<?xml version="1.0" encoding="UTF-8" standalone="no"?>
<svg
   xmlns:ns2="http://www.iki.fi/pav/software/textext/"
   xmlns:dc="http://purl.org/dc/elements/1.1/"
   xmlns:cc="http://creativecommons.org/ns#"
   xmlns:rdf="http://www.w3.org/1999/02/22-rdf-syntax-ns#"
   xmlns:svg="http://www.w3.org/2000/svg"
   xmlns="http://www.w3.org/2000/svg"
   xmlns:sodipodi="http://sodipodi.sourceforge.net/DTD/sodipodi-0.dtd"
   xmlns:inkscape="http://www.inkscape.org/namespaces/inkscape"
   width="25.208715mm"
   height="20.368658mm"
   viewBox="0 0 25.208716 20.368658"
   version="1.1"
   id="svg3508"
   inkscape:version="1.0.1 (3bc2e813f5, 2020-09-07)"
   sodipodi:docname="pendulum_1_fx.svg">
  <defs
     id="defs3502" />
  <sodipodi:namedview
     id="base"
     pagecolor="#ffffff"
     bordercolor="#666666"
     borderopacity="1.0"
     inkscape:pageopacity="0.0"
     inkscape:pageshadow="2"
     inkscape:zoom="16"
     inkscape:cx="9.5381223"
     inkscape:cy="6.6880035"
     inkscape:document-units="mm"
     inkscape:current-layer="layer1"
     inkscape:document-rotation="0"
     showgrid="true"
     inkscape:window-width="1600"
     inkscape:window-height="834"
     inkscape:window-x="-8"
     inkscape:window-y="-8"
     inkscape:window-maximized="1"
     fit-margin-top="0"
     fit-margin-left="0"
     fit-margin-right="0"
     fit-margin-bottom="0"
     inkscape:snap-grids="true"
     inkscape:snap-object-midpoints="true">
    <inkscape:grid
       type="xygrid"
       id="grid4823" />
  </sodipodi:namedview>
  <metadata
     id="metadata3505">
    <rdf:RDF>
      <cc:Work
         rdf:about="">
        <dc:format>image/svg+xml</dc:format>
        <dc:type
           rdf:resource="http://purl.org/dc/dcmitype/StillImage" />
        <dc:title />
      </cc:Work>
    </rdf:RDF>
  </metadata>
  <g
     inkscape:label="Layer 1"
     inkscape:groupmode="layer"
     id="layer1"
     transform="translate(-60.723018,-69.096172)">
    <path
       style="fill:none;stroke:#999999;stroke-width:0.264583px;stroke-linecap:butt;stroke-linejoin:miter;stroke-opacity:1"
       d="m 73.327379,31.537556 -2e-6,56.885424"
       id="path846-1-6" />
    <path
       style="fill:none;stroke:#999999;stroke-width:0.2;stop-color:#000000;stroke-miterlimit:4;stroke-dasharray:0.2,0.4;stroke-dashoffset:0"
       id="path2834"
       sodipodi:type="arc"
       sodipodi:cx="73.327377"
       sodipodi:cy="31.537544"
       sodipodi:rx="51.933857"
       sodipodi:ry="51.933857"
       sodipodi:start="0"
       sodipodi:end="3.1415927"
       sodipodi:open="true"
       sodipodi:arc-type="arc"
       d="M 125.26123,31.537544 A 51.933857,51.933857 0 0 1 99.294305,76.513584 51.933857,51.933857 0 0 1 47.360447,76.513583 51.933857,51.933857 0 0 1 21.39352,31.537544" />
    <path
       style="fill:none;stroke:#999999;stroke-width:0.2;stroke-linecap:butt;stroke-linejoin:miter;stroke-opacity:1;stroke-miterlimit:4;stroke-dasharray:none"
       d="m 73.327379,31.537556 4.95789,56.668956"
       id="path846-1" />
    <path
       style="fill:none;stroke:#999999;stroke-width:0.2;stroke-linecap:butt;stroke-linejoin:miter;stroke-opacity:1;stroke-miterlimit:4;stroke-dasharray:none"
       d="m 73.327379,31.537546 9.878053,56.021206"
       id="path846-1-9" />
    <path
       style="fill:none;stroke:#999999;stroke-width:0.2;stroke-linecap:butt;stroke-linejoin:miter;stroke-opacity:1;stroke-miterlimit:4;stroke-dasharray:none"
       d="m 73.327379,31.537546 -4.95789,56.668966"
       id="path846-1-9-6" />
    <path
       style="fill:none;stroke:#999999;stroke-width:0.2;stroke-linecap:butt;stroke-linejoin:miter;stroke-opacity:1;stroke-miterlimit:4;stroke-dasharray:none"
       d="m 73.327379,31.537556 -9.87806,56.021206"
       id="path846-1-9-6-9" />
    <g
       id="pendulum">
      <path
         style="fill:none;stroke:#337ab7;stroke-width:0.5;stroke-linecap:butt;stroke-linejoin:miter;stroke-opacity:1"
         d="M 73.327379,31.537546 V 83.537545"
         id="path2832" />
      <path
         style="fill:none;stroke:#d9534f;stroke-width:0.264583px;stroke-linecap:butt;stroke-linejoin:miter;stroke-opacity:1"
         d="m 73.327379,83.537545 c 0,2.431353 0,2.431353 0,2.431353"
         id="path2844" />
      <circle
         style="fill:#d9534f;stroke:#d9534f;stroke-width:1;stop-color:#000000"
         id="path2867"
         cx="73.327377"
         cy="83.537544"
         r="0.80770677" />
    </g>
    <ellipse
       style="fill:#000000;stroke:#d9534f;stroke-width:0.132292;stop-color:#000000"
       id="path2830"
       cx="73.327377"
       cy="61.547005"
       rx="0.063782267"
       ry="0.041074689" />
    <rect
       style="fill:none;stroke:none;stroke-width:2.00001;stop-color:#000000"
       id="rect2838"
       width="27.957115"
       height="27.86783"
       x="59.348824"
       y="61.547005" />
    <ellipse
       style="fill:#000000;stroke:none;stroke-width:1;stop-color:#000000"
       id="path2874"
       cx="73.327377"
       cy="31.537544"
       rx="1.9367676e-06"
       ry="1.0102539e-06" />
    <g
       id="f_x_neg"
       style="fill:#5cb85c">
      <path
         style="fill:#5cb85c;stroke:none;stroke-width:0.264583px;stroke-linecap:butt;stroke-linejoin:miter;stroke-opacity:1"
         d="m 76.751751,83.272961 v 0.529166 h -1.5875 v 0.264584 l -0.529165,-0.529167 0.529165,-0.529167 v 0.264584 z"
         id="path4899" />
      <circle
         style="fill:#5cb85c;stroke:none;stroke-width:0.2;stop-color:#000000"
         id="path4881"
         cx="74.635086"
         cy="83.537544"
         r="0.0049999999" />
    </g>
    <g
       id="f_x_pos"
       style="fill:#5cb85c">
      <circle
         style="fill:#5cb85c;stroke:none;stroke-width:0.2;stop-color:#000000"
         id="path4881-5"
         cx="72.019669"
         cy="83.537544"
         r="0.0049999999" />
      <path
         style="fill:#5cb85c;stroke:none;stroke-width:0.264583px;stroke-linecap:butt;stroke-linejoin:miter;stroke-opacity:1"
         d="m 72.019671,83.537544 -0.529167,0.529167 v -0.264584 h -1.587501 v -0.529166 h 1.587501 v -0.264584 z"
         id="f_x_" />
    </g>
    <g
       id="f_x_neg-7"
       style="fill:#5cb85c"
       transform="matrix(-1,0,0,1,158.37685,-13.118455)">
      <path
         style="fill:#5cb85c;stroke:none;stroke-width:0.264583px;stroke-linecap:butt;stroke-linejoin:miter;stroke-opacity:1"
         d="m 76.751751,83.272961 v 0.529166 h -1.5875 v 0.264584 l -0.529165,-0.529167 0.529165,-0.529167 v 0.264584 z"
         id="path4899-3" />
      <circle
         style="fill:#5cb85c;stroke:none;stroke-width:0.2;stop-color:#000000"
         id="path4881-2"
         cx="74.635086"
         cy="83.537544"
         r="0.0049999999" />
    </g>
    <g
       transform="matrix(0.12721297,0,0,0.12721297,84.219441,69.841693)"
       ns2:version="1.3.0"
       ns2:texconverter="pdflatex"
       ns2:pdfconverter="inkscape"
       ns2:text="$f_x$"
       ns2:preamble="C:\\Users\jmmau\AppData\Roaming\inkscape\extensions\textext\default_packages.tex"
       ns2:scale="0.750000000002"
       ns2:alignment="middle center"
       ns2:inkscapeversion="1.0.1"
       ns2:jacobian_sqrt="0.264584"
       id="g5000"
       style="stroke-width:2.07985">
      <defs
         id="id-2084eb37-a0bb-44e1-b7e3-abd30c628642" />
      <g
         id="id-7182e453-942b-40ee-82fa-99e7ff80d954"
         transform="translate(-149.243,-127.734)"
         style="stroke-width:2.07985">
        <g
           style="fill:#000000;fill-opacity:1;stroke-width:2.07985"
           id="id-10117bd8-a66b-4908-ad03-d8f0eb61246e">
          <g
             transform="translate(148.712,134.765)"
             id="g4992"
             style="stroke-width:2.07985">
            <path
               style="stroke:none;stroke-width:0"
               d="m 3.65625,-3.984375 h 0.859375 c 0.203125,0 0.296875,0 0.296875,-0.203125 0,-0.109375 -0.09375,-0.109375 -0.265625,-0.109375 H 3.71875 L 3.921875,-5.4375 c 0.046875,-0.203125 0.1875,-0.90625 0.25,-1.03125 0.078125,-0.1875 0.25,-0.34375 0.46875,-0.34375 0.03125,0 0.296875,0 0.484375,0.1875 -0.4375,0.03125 -0.546875,0.390625 -0.546875,0.53125 0,0.234375 0.1875,0.359375 0.375,0.359375 C 5.21875,-5.734375 5.5,-5.96875 5.5,-6.34375 c 0,-0.453125 -0.453125,-0.6875 -0.859375,-0.6875 -0.34375,0 -0.96875,0.1875 -1.265625,1.171875 -0.0625,0.203125 -0.09375,0.3125 -0.328125,1.5625 h -0.6875 c -0.203125,0 -0.3125,0 -0.3125,0.1875 0,0.125 0.09375,0.125 0.28125,0.125 h 0.65625 L 2.25,-0.046875 c -0.1875,0.96875 -0.359375,1.875 -0.875,1.875 -0.046875,0 -0.28125,0 -0.484375,-0.1875 C 1.359375,1.609375 1.453125,1.25 1.453125,1.109375 1.453125,0.875 1.265625,0.75 1.078125,0.75 0.8125,0.75 0.53125,0.984375 0.53125,1.359375 c 0,0.4375 0.4375,0.6875 0.84375,0.6875 0.546875,0 0.953125,-0.59375 1.125,-0.96875 0.328125,-0.625 0.546875,-1.828125 0.5625,-1.90625 z m 0,0"
               id="id-542cad8d-d6b0-4034-ab67-f09f92bb4101" />
          </g>
        </g>
        <g
           style="fill:#000000;fill-opacity:1;stroke-width:2.07985"
           id="id-36134410-7874-42c8-a449-4a2ed8df1346">
          <g
             transform="translate(153.59,136.259)"
             id="g4996"
             style="stroke-width:2.07985">
            <path
               style="stroke:none;stroke-width:0"
               d="M 1.734375,-0.734375 C 1.671875,-0.5 1.4375,-0.125 1.078125,-0.125 c -0.015625,0 -0.234375,0 -0.375,-0.09375 0.28125,-0.09375 0.3125,-0.34375 0.3125,-0.390625 0,-0.15625 -0.125,-0.25 -0.28125,-0.25 -0.203125,0 -0.40625,0.15625 -0.40625,0.421875 0,0.34375 0.390625,0.5 0.734375,0.5 0.328125,0 0.609375,-0.1875 0.78125,-0.484375 C 2.015625,-0.0625 2.390625,0.0625 2.671875,0.0625 c 0.8125,0 1.234375,-0.859375 1.234375,-1.0625 0,-0.09375 -0.09375,-0.09375 -0.109375,-0.09375 -0.109375,0 -0.109375,0.046875 -0.140625,0.125 -0.140625,0.484375 -0.5625,0.84375 -0.953125,0.84375 -0.28125,0 -0.421875,-0.1875 -0.421875,-0.453125 0,-0.1875 0.171875,-0.8125 0.359375,-1.59375 C 2.78125,-2.703125 3.09375,-2.875 3.328125,-2.875 c 0.015625,0 0.21875,0 0.375,0.09375 -0.21875,0.0625 -0.3125,0.265625 -0.3125,0.390625 0,0.140625 0.125,0.25 0.28125,0.25 0.15625,0 0.390625,-0.125 0.390625,-0.421875 0,-0.390625 -0.453125,-0.515625 -0.71875,-0.515625 -0.359375,0 -0.640625,0.234375 -0.78125,0.5 -0.125,-0.28125 -0.453125,-0.5 -0.84375,-0.5 C 0.9375,-3.078125 0.5,-2.21875 0.5,-2 c 0,0.078125 0.09375,0.078125 0.109375,0.078125 0.09375,0 0.09375,-0.015625 0.140625,-0.109375 C 0.921875,-2.578125 1.359375,-2.875 1.703125,-2.875 1.9375,-2.875 2.125,-2.75 2.125,-2.421875 2.125,-2.28125 2.03125,-1.9375 1.96875,-1.6875 Z m 0,0"
               id="id-21951c1f-9c9a-4713-ac02-0cec3ee596a2" />
          </g>
        </g>
      </g>
    </g>
    <circle
       style="fill:#5e4485;stroke:none;stroke-width:0.499999;stroke-miterlimit:4;stroke-dasharray:0.2, 0.4;stroke-dashoffset:0;stop-color:#000000"
       id="path5629"
       cx="73.327377"
       cy="31.525339"
       r="0.52916664" />
    <g
       id="play">
      <rect
         style="fill:#5e4485;stroke:none;stroke-width:0.293939;stop-color:#000000"
         id="rect872"
         width="2.1166668"
         height="1.5875055"
         x="60.987602"
         y="70.154503" />
      <path
         style="fill:#eeeeee;stroke:none;stroke-width:0.264583px;stroke-linecap:butt;stroke-linejoin:miter;stroke-opacity:1"
         d="m 62.442811,70.948255 -0.79375,-0.529166 v 1.058333 z"
         id="path868"
         sodipodi:nodetypes="cccc" />
    </g>
    <circle
       style="fill:#f0ad4e;stroke-width:0.0253538;stop-color:#000000"
       id="path1467"
       cx="62.44281"
       cy="70.948257"
       r="0.0049999999" />
    <g
       id="stop"
       transform="translate(2.248958)"
       style="fill:none">
      <rect
         style="fill:none;stroke:none;stroke-width:0.293939;stop-color:#000000"
         id="rect872-4"
         width="2.1166668"
         height="1.5875055"
         x="60.987602"
         y="70.154503" />
      <path
         style="fill:none;stroke:none;stroke-width:0.198437px;stroke-linecap:butt;stroke-linejoin:miter;stroke-opacity:1"
         d="m 62.442811,70.551381 h -0.79375 v 0.79375 h 0.79375 z"
         id="path868-4"
         sodipodi:nodetypes="ccccc" />
    </g>
  </g>
</svg>
