<?xml version="1.0" encoding="UTF-8"?>
<svg width="257.45" height="85.92" version="1.1" xmlns="http://www.w3.org/2000/svg">
 <g transform="rotate(90 255.76 -46.595)" stroke-width="2">
  <rect x="323.04" y="136.36" width="43.056" height="22.902" rx="5.6569" ry="5.6569" fill="#5cb85c" stop-color="#000000" style="-inkscape-stroke:none"/>
  <rect x="349.69" y="136.86" width="19.256" height="22.902" rx="5.6569" ry="5.6569" fill="#337ab7" stop-color="#000000" style="-inkscape-stroke:none"/>
  <rect x="319.69" y="136.36" width="19.256" height="22.902" rx="5.6569" ry="5.6569" fill="#d9534f" stop-color="#000000" style="-inkscape-stroke:none"/>
 </g>
 <g transform="rotate(90 345.17 43.996)" stroke-width="2">
  <rect x="323.04" y="136.36" width="43.056" height="22.902" rx="5.6569" ry="5.6569" fill="#5cb85c" stop-color="#000000" style="-inkscape-stroke:none"/>
  <rect x="349.69" y="136.86" width="19.256" height="22.902" rx="5.6569" ry="5.6569" fill="#337ab7" stop-color="#000000" style="-inkscape-stroke:none"/>
  <rect x="319.69" y="136.36" width="19.256" height="22.902" rx="5.6569" ry="5.6569" fill="#d9534f" stop-color="#000000" style="-inkscape-stroke:none"/>
 </g>
 <rect x="4.6" y="20.387" width="15" height="15"/>
 <g fill="#000000">
  <text id="AC1_tt" x="4.5570312" y="13.50625">AC1</text>
  <text id="AC2_tt" x="49.308006" y="13.50625">AC2</text>
  <text id="AC3_tt" x="139.36954" y="13.50625">AC3</text>
  <text id="AC4_tt" x="229.2084" y="13.50625">AC4</text>
  <text id="DC2_tt" x="48.276756" y="80.207008">DC2</text>
  <text id="DC4_tt" x="228.17715" y="81.161491">DC4</text>
 </g>
 <g stroke="#191928" stroke-width="2">
  <line id="l_AC2_AC3_a" x1="56.1" x2="146.1" y1="22.887" y2="22.887"/>
  <line id="l_AC2_AC3_b" x1="56.1" x2="146.1" y1="25.887" y2="25.887"/>
  <line id="l_AC2_AC3_c" x1="56.1" x2="146.1" y1="28.887" y2="28.887"/>
  <line id="l_AC2_AC3_n" x1="56.1" x2="146.1" y1="31.887" y2="31.887"/>
  <line id="l_AC3_AC4_a" x1="146.1" x2="236.1" y1="22.887" y2="22.887"/>
  <line id="l_AC3_AC4_b" x1="146.1" x2="236.1" y1="25.887" y2="25.887"/>
  <line id="l_AC3_AC4_c" x1="146.1" x2="236.1" y1="28.887" y2="28.887"/>
  <line id="l_AC3_AC4_n" x1="146.1" x2="236.1" y1="31.887" y2="31.887"/>
  <line id="l_DC2_DC4_a" x1="56.1" x2="236.1" y1="52.887" y2="52.887"/>
  <line id="l_DC2_DC4_n" x1="56.1" x2="236.1" y1="61.887" y2="61.887"/>
 </g>
 <rect x="53.6" y="20.387" width="15" height="15"/>
 <rect x="143.6" y="20.387" width="15" height="15"/>
 <rect x="53.6" y="50.387" width="15" height="15"/>
 <rect x="233.6" y="20.387" width="15" height="15"/>
 <rect x="233.6" y="50.387" width="15" height="15"/>
 <g transform="rotate(-90 15.167 77.82)" stroke="#000" stroke-width="2">
  <line x1="61.1" x2="61.1" y1="107.52" y2="118.75"/>
  <line x1="64.1" x2="64.1" y1="109.03" y2="118.75"/>
  <line x1="67.1" x2="67.1" y1="109.03" y2="118.75"/>
  <line x1="70.1" x2="70.1" y1="107.52" y2="118.75"/>
  <circle cx="65.6" cy="102.31" r="6.88" fill="none" stop-color="#000000" style="-inkscape-stroke:none;font-variation-settings:normal"/>
  <circle cx="65.6" cy="94.496" r="6.88" fill="none" stop-color="#000000" style="-inkscape-stroke:none;font-variation-settings:normal"/>
  <g transform="translate(-99.76 43.754)">
   <line x1="162.36" x2="162.36" y1="36.532" y2="44.55"/>
   <line x1="165.36" x2="165.36" y1="36.532" y2="43.862"/>
   <line x1="168.36" x2="168.36" y1="36.532" y2="44.55"/>
  </g>
 </g>
</svg>
