<svg xmlns="http://www.w3.org/2000/svg" xmlns:inkscape="http://www.inkscape.org/namespaces/inkscape" xmlns:sodipodi="http://sodipodi.sourceforge.net/DTD/sodipodi-0.dtd" width="257.45" height="85.92" version="1.1" id="svg1307" sodipodi:docname="grid_trafo_2bus_plain.svg" inkscape:export-filename="C:\Users\jmmau\workspace\pydae\examples\grids\grid_uri\acdc\grid_trafo_2bus_plain.png" inkscape:export-xdpi="200" inkscape:export-ydpi="200" inkscape:version="1.1.1 (3bf5ae0d25, 2021-09-20)">
  <sodipodi:namedview id="namedview1404" pagecolor="#ffffff" bordercolor="#666666" borderopacity="1.0" inkscape:pageshadow="2" inkscape:pageopacity="0.0" inkscape:pagecheckerboard="0" showgrid="false" inkscape:zoom="2.9058805" inkscape:cx="127.50008" inkscape:cy="44.908935" inkscape:window-width="1600" inkscape:window-height="812" inkscape:window-x="-8" inkscape:window-y="-8" inkscape:window-maximized="1" inkscape:current-layer="svg1307" />
  <defs id="defs1311" />
  <g transform="rotate(90 255.76 -46.595)" stroke-width="2" id="g1243">
    <rect x="323.04" y="136.36" width="43.056" height="22.902" rx="5.6569" ry="5.6569" fill="#5cb85c" stop-color="#000000" style="-inkscape-stroke:none" id="rect1237" />
    <rect x="349.69" y="136.86" width="19.256" height="22.902" rx="5.6569" ry="5.6569" fill="#337ab7" stop-color="#000000" style="-inkscape-stroke:none" id="rect1239" />
    <rect x="319.69" y="136.36" width="19.256" height="22.902" rx="5.6569" ry="5.6569" fill="#d9534f" stop-color="#000000" style="-inkscape-stroke:none" id="rect1241" />
  </g>
  <g transform="rotate(90 345.17 43.996)" stroke-width="2" id="g1251">
    <rect x="323.04" y="136.36" width="43.056" height="22.902" rx="5.6569" ry="5.6569" fill="#5cb85c" stop-color="#000000" style="-inkscape-stroke:none" id="rect1245" />
    <rect x="349.69" y="136.86" width="19.256" height="22.902" rx="5.6569" ry="5.6569" fill="#337ab7" stop-color="#000000" style="-inkscape-stroke:none" id="rect1247" />
    <rect x="319.69" y="136.36" width="19.256" height="22.902" rx="5.6569" ry="5.6569" fill="#d9534f" stop-color="#000000" style="-inkscape-stroke:none" id="rect1249" />
  </g>
  <rect x="4.6" y="20.387" width="15" height="15" id="rect1253" />
  <g fill="#000000" id="g1261">
    <text id="AC1_tt" x="4.5570312" y="13.50625">AC1</text>
    <text id="AC2_tt" x="49.308006" y="13.50625">AC2</text>
    <text id="AC3_tt" x="139.36954" y="13.50625">AC3</text>
    <text id="AC4_tt" x="229.2084" y="13.50625">AC4</text>
    <text id="DC2_tt" x="48.276756" y="80.207008">DC2</text>
    <text id="DC4_tt" x="228.17715" y="81.161491">DC4</text>
  </g>
  <g stroke="#191928" stroke-width="2" id="g1273">
    <line id="l_AC2_AC3_a" x1="56.1" x2="146.1" y1="22.887" y2="22.887" style="stroke:#820000" />
    <line id="l_AC2_AC3_b" x1="56.1" x2="146.1" y1="25.887" y2="25.887" style="stroke:#850000" />
    <line id="l_AC2_AC3_c" x1="56.1" x2="146.1" y1="28.887" y2="28.887" style="stroke:#870000" />
    <line id="l_AC2_AC3_n" x1="56.1" x2="146.1" y1="31.887" y2="31.887" style="stroke:#000000" />
    <line id="l_AC3_AC4_a" x1="146.1" x2="236.1" y1="22.887" y2="22.887" style="stroke:#0e0000" />
    <line id="l_AC3_AC4_b" x1="146.1" x2="236.1" y1="25.887" y2="25.887" style="stroke:#0e0000" />
    <line id="l_AC3_AC4_c" x1="146.1" x2="236.1" y1="28.887" y2="28.887" style="stroke:#0f0000" />
    <line id="l_AC3_AC4_n" x1="146.1" x2="236.1" y1="31.887" y2="31.887" style="stroke:#000000" />
    <line id="l_DC2_DC4_a" x1="56.1" x2="236.1" y1="52.887" y2="52.887" style="stroke:#0b0000" />
    <line id="l_DC2_DC4_n" x1="56.1" x2="236.1" y1="61.887" y2="61.887" style="stroke:#0b0000" />
  </g>
  <rect x="53.6" y="20.387" width="15" height="15" id="rect1275" />
  <rect x="143.6" y="20.387" width="15" height="15" id="rect1277" />
  <rect x="53.6" y="50.387" width="15" height="15" id="rect1279" />
  <rect x="233.6" y="20.387" width="15" height="15" id="rect1281" />
  <rect x="233.6" y="50.387" width="15" height="15" id="rect1283" />
  <g transform="rotate(-90 15.167 77.82)" stroke="#000" stroke-width="2" id="g1305">
    <line x1="61.1" x2="61.1" y1="107.52" y2="118.75" id="line1285" />
    <line x1="64.1" x2="64.1" y1="109.03" y2="118.75" id="line1287" />
    <line x1="67.1" x2="67.1" y1="109.03" y2="118.75" id="line1289" />
    <line x1="70.1" x2="70.1" y1="107.52" y2="118.75" id="line1291" />
    <circle cx="65.6" cy="102.31" r="6.88" fill="none" stop-color="#000000" style="-inkscape-stroke:none;font-variation-settings:normal" id="circle1293" />
    <circle cx="65.6" cy="94.496" r="6.88" fill="none" stop-color="#000000" style="-inkscape-stroke:none;font-variation-settings:normal" id="circle1295" />
    <g transform="translate(-99.76 43.754)" id="g1303">
      <line x1="162.36" x2="162.36" y1="36.532" y2="44.55" id="line1297" />
      <line x1="165.36" x2="165.36" y1="36.532" y2="43.862" id="line1299" />
      <line x1="168.36" x2="168.36" y1="36.532" y2="44.55" id="line1301" />
    </g>
  </g>
</svg>