<?xml version="1.0" encoding="utf-8" standalone="no"?>
<!DOCTYPE svg PUBLIC "-//W3C//DTD SVG 1.1//EN"
  "http://www.w3.org/Graphics/SVG/1.1/DTD/svg11.dtd">
<svg xmlns:xlink="http://www.w3.org/1999/xlink" width="432pt" height="216pt" viewBox="0 0 432 216" xmlns="http://www.w3.org/2000/svg" version="1.1">
 <metadata>
  <rdf:RDF xmlns:dc="http://purl.org/dc/elements/1.1/" xmlns:cc="http://creativecommons.org/ns#" xmlns:rdf="http://www.w3.org/1999/02/22-rdf-syntax-ns#">
   <cc:Work>
    <dc:type rdf:resource="http://purl.org/dc/dcmitype/StillImage"/>
    <dc:date>2023-04-16T21:17:35.654969</dc:date>
    <dc:format>image/svg+xml</dc:format>
    <dc:creator>
     <cc:Agent>
      <dc:title>Matplotlib v3.5.2, https://matplotlib.org/</dc:title>
     </cc:Agent>
    </dc:creator>
   </cc:Work>
  </rdf:RDF>
 </metadata>
 <defs>
  <style type="text/css">*{stroke-linejoin: round; stroke-linecap: butt}</style>
 </defs>
 <g id="figure_1">
  <g id="patch_1">
   <path d="M 0 216 
L 432 216 
L 432 0 
L 0 0 
z
" style="fill: #ffffff"/>
  </g>
  <g id="axes_1">
   <g id="patch_2">
    <path d="M 34.50225 178.513688 
L 201.405427 178.513688 
L 201.405427 9.72 
L 34.50225 9.72 
z
" style="fill: #ffffff"/>
   </g>
   <g id="matplotlib.axis_1">
    <g id="xtick_1">
     <g id="line2d_1">
      <path d="M 34.50225 178.513688 
L 34.50225 9.72 
" clip-path="url(#paaae79e1ba)" style="fill: none; stroke: #cbcbcb"/>
     </g>
     <g id="line2d_2"/>
     <g id="text_1">
      <text style="font: 9px 'sans-serif'; text-anchor: middle" x="34.50225" y="188.852281" transform="rotate(-0, 34.50225, 188.852281)">0</text>
     </g>
    </g>
    <g id="xtick_2">
     <g id="line2d_3">
      <path d="M 67.5393 178.513688 
L 67.5393 9.72 
" clip-path="url(#paaae79e1ba)" style="fill: none; stroke: #cbcbcb"/>
     </g>
     <g id="line2d_4"/>
     <g id="text_2">
      <text style="font: 9px 'sans-serif'; text-anchor: middle" x="67.5393" y="188.852281" transform="rotate(-0, 67.5393, 188.852281)">10</text>
     </g>
    </g>
    <g id="xtick_3">
     <g id="line2d_5">
      <path d="M 100.57635 178.513688 
L 100.57635 9.72 
" clip-path="url(#paaae79e1ba)" style="fill: none; stroke: #cbcbcb"/>
     </g>
     <g id="line2d_6"/>
     <g id="text_3">
      <text style="font: 9px 'sans-serif'; text-anchor: middle" x="100.57635" y="188.852281" transform="rotate(-0, 100.57635, 188.852281)">20</text>
     </g>
    </g>
    <g id="xtick_4">
     <g id="line2d_7">
      <path d="M 133.6134 178.513688 
L 133.6134 9.72 
" clip-path="url(#paaae79e1ba)" style="fill: none; stroke: #cbcbcb"/>
     </g>
     <g id="line2d_8"/>
     <g id="text_4">
      <text style="font: 9px 'sans-serif'; text-anchor: middle" x="133.6134" y="188.852281" transform="rotate(-0, 133.6134, 188.852281)">30</text>
     </g>
    </g>
    <g id="xtick_5">
     <g id="line2d_9">
      <path d="M 166.65045 178.513688 
L 166.65045 9.72 
" clip-path="url(#paaae79e1ba)" style="fill: none; stroke: #cbcbcb"/>
     </g>
     <g id="line2d_10"/>
     <g id="text_5">
      <text style="font: 9px 'sans-serif'; text-anchor: middle" x="166.65045" y="188.852281" transform="rotate(-0, 166.65045, 188.852281)">40</text>
     </g>
    </g>
    <g id="xtick_6">
     <g id="line2d_11">
      <path d="M 199.6875 178.513688 
L 199.6875 9.72 
" clip-path="url(#paaae79e1ba)" style="fill: none; stroke: #cbcbcb"/>
     </g>
     <g id="line2d_12"/>
     <g id="text_6">
      <text style="font: 9px 'sans-serif'; text-anchor: middle" x="199.6875" y="188.852281" transform="rotate(-0, 199.6875, 188.852281)">50</text>
     </g>
    </g>
    <g id="text_7">
     <!-- $\sf v_{pv}$ (V) -->
     <g transform="translate(100.295838 202.932)">
      <text>
       <tspan style="font: 10.8px 'DejaVu Sans'" x="0 16.058358 19.490365 23.702615 31.088555" y="-0.8125">v (V)</tspan>
       <tspan style="font: 7.56px 'DejaVu Sans'" x="6.492916 11.290356" y="0.9593749999999996">pv</tspan>
      </text>
     </g>
    </g>
   </g>
   <g id="matplotlib.axis_2">
    <g id="ytick_1">
     <g id="line2d_13">
      <path d="M 34.50225 178.513688 
L 201.405427 178.513688 
" clip-path="url(#paaae79e1ba)" style="fill: none; stroke: #cbcbcb"/>
     </g>
     <g id="line2d_14"/>
     <g id="text_8">
      <text style="font: 9px 'sans-serif'; text-anchor: end" x="31.00225" y="181.932984" transform="rotate(-0, 31.00225, 181.932984)">0</text>
     </g>
    </g>
    <g id="ytick_2">
     <g id="line2d_15">
      <path d="M 34.50225 142.167071 
L 201.405427 142.167071 
" clip-path="url(#paaae79e1ba)" style="fill: none; stroke: #cbcbcb"/>
     </g>
     <g id="line2d_16"/>
     <g id="text_9">
      <text style="font: 9px 'sans-serif'; text-anchor: end" x="31.00225" y="145.586368" transform="rotate(-0, 31.00225, 145.586368)">1</text>
     </g>
    </g>
    <g id="ytick_3">
     <g id="line2d_17">
      <path d="M 34.50225 105.820454 
L 201.405427 105.820454 
" clip-path="url(#paaae79e1ba)" style="fill: none; stroke: #cbcbcb"/>
     </g>
     <g id="line2d_18"/>
     <g id="text_10">
      <text style="font: 9px 'sans-serif'; text-anchor: end" x="31.00225" y="109.239751" transform="rotate(-0, 31.00225, 109.239751)">2</text>
     </g>
    </g>
    <g id="ytick_4">
     <g id="line2d_19">
      <path d="M 34.50225 69.473838 
L 201.405427 69.473838 
" clip-path="url(#paaae79e1ba)" style="fill: none; stroke: #cbcbcb"/>
     </g>
     <g id="line2d_20"/>
     <g id="text_11">
      <text style="font: 9px 'sans-serif'; text-anchor: end" x="31.00225" y="72.893135" transform="rotate(-0, 31.00225, 72.893135)">3</text>
     </g>
    </g>
    <g id="ytick_5">
     <g id="line2d_21">
      <path d="M 34.50225 33.127221 
L 201.405427 33.127221 
" clip-path="url(#paaae79e1ba)" style="fill: none; stroke: #cbcbcb"/>
     </g>
     <g id="line2d_22"/>
     <g id="text_12">
      <text style="font: 9px 'sans-serif'; text-anchor: end" x="31.00225" y="36.546518" transform="rotate(-0, 31.00225, 36.546518)">4</text>
     </g>
    </g>
    <g id="text_13">
     <!-- $\sf i_{pv}$ (A) -->
     <g transform="translate(17.928 110.100844)rotate(-90)">
      <text>
       <tspan style="font: 10.8px 'DejaVu Sans'" x="0 12.668511 16.100518 20.312768 27.698708" y="-0.796875">i (A)</tspan>
       <tspan style="font: 7.56px 'DejaVu Sans'" x="3.103069 7.900509" y="0.9749999999999996">pv</tspan>
      </text>
     </g>
    </g>
   </g>
   <g id="line2d_23">
    <path d="M 34.50225 37.071982 
L 37.805955 37.091509 
L 41.10966 37.111041 
L 44.413365 37.130584 
L 47.71707 37.150141 
L 51.020775 37.169721 
L 54.32448 37.189333 
L 57.628185 37.208994 
L 60.93189 37.228728 
L 64.235595 37.248572 
L 67.5393 37.268579 
L 70.843005 37.288831 
L 74.14671 37.309449 
L 77.450415 37.330613 
L 80.75412 37.352595 
L 84.057825 37.375797 
L 87.36153 37.400824 
L 90.665235 37.428579 
L 93.96894 37.460411 
L 97.272645 37.498334 
L 100.57635 37.545358 
L 103.880055 37.605976 
L 107.18376 37.686894 
L 110.487465 37.798107 
L 113.79117 37.954497 
L 117.094875 38.17818 
L 120.39858 38.501925 
L 123.702285 38.974076 
L 127.00599 39.665504 
L 130.309695 40.679131 
L 133.6134 42.162367 
L 136.917105 44.322146 
L 140.22081 47.440656 
L 143.524515 51.887238 
L 146.82822 58.118438 
L 150.131925 66.656241 
L 153.43563 78.037936 
L 156.739335 92.742956 
L 160.04304 111.11783 
L 163.346745 133.327374 
L 166.65045 159.349157 
L 169.954155 189.006721 
L 172.755324 217 
" clip-path="url(#paaae79e1ba)" style="fill: none; stroke: #d9524f; stroke-width: 3"/>
   </g>
   <g id="patch_3">
    <path d="M 34.50225 178.513688 
L 34.50225 9.72 
" style="fill: none; stroke: #ffffff; stroke-width: 2; stroke-linejoin: miter; stroke-linecap: square"/>
   </g>
   <g id="patch_4">
    <path d="M 201.405427 178.513688 
L 201.405427 9.72 
" style="fill: none; stroke: #ffffff; stroke-width: 2; stroke-linejoin: miter; stroke-linecap: square"/>
   </g>
   <g id="patch_5">
    <path d="M 34.50225 178.513688 
L 201.405427 178.513688 
" style="fill: none; stroke: #ffffff; stroke-width: 2; stroke-linejoin: miter; stroke-linecap: square"/>
   </g>
   <g id="patch_6">
    <path d="M 34.50225 9.72 
L 201.405427 9.72 
" style="fill: none; stroke: #ffffff; stroke-width: 2; stroke-linejoin: miter; stroke-linecap: square"/>
   </g>
  </g>
  <g id="axes_2">
   <g id="patch_7">
    <path d="M 251.3685 178.513688 
L 418.271677 178.513688 
L 418.271677 9.72 
L 251.3685 9.72 
z
" style="fill: #ffffff"/>
   </g>
   <g id="matplotlib.axis_3">
    <g id="xtick_7">
     <g id="line2d_24">
      <path d="M 251.3685 178.513688 
L 251.3685 9.72 
" clip-path="url(#p8087953b67)" style="fill: none; stroke: #cbcbcb"/>
     </g>
     <g id="line2d_25"/>
     <g id="text_14">
      <text style="font: 9px 'sans-serif'; text-anchor: middle" x="251.3685" y="188.852281" transform="rotate(-0, 251.3685, 188.852281)">0</text>
     </g>
    </g>
    <g id="xtick_8">
     <g id="line2d_26">
      <path d="M 284.40555 178.513688 
L 284.40555 9.72 
" clip-path="url(#p8087953b67)" style="fill: none; stroke: #cbcbcb"/>
     </g>
     <g id="line2d_27"/>
     <g id="text_15">
      <text style="font: 9px 'sans-serif'; text-anchor: middle" x="284.40555" y="188.852281" transform="rotate(-0, 284.40555, 188.852281)">10</text>
     </g>
    </g>
    <g id="xtick_9">
     <g id="line2d_28">
      <path d="M 317.4426 178.513688 
L 317.4426 9.72 
" clip-path="url(#p8087953b67)" style="fill: none; stroke: #cbcbcb"/>
     </g>
     <g id="line2d_29"/>
     <g id="text_16">
      <text style="font: 9px 'sans-serif'; text-anchor: middle" x="317.4426" y="188.852281" transform="rotate(-0, 317.4426, 188.852281)">20</text>
     </g>
    </g>
    <g id="xtick_10">
     <g id="line2d_30">
      <path d="M 350.47965 178.513688 
L 350.47965 9.72 
" clip-path="url(#p8087953b67)" style="fill: none; stroke: #cbcbcb"/>
     </g>
     <g id="line2d_31"/>
     <g id="text_17">
      <text style="font: 9px 'sans-serif'; text-anchor: middle" x="350.47965" y="188.852281" transform="rotate(-0, 350.47965, 188.852281)">30</text>
     </g>
    </g>
    <g id="xtick_11">
     <g id="line2d_32">
      <path d="M 383.5167 178.513688 
L 383.5167 9.72 
" clip-path="url(#p8087953b67)" style="fill: none; stroke: #cbcbcb"/>
     </g>
     <g id="line2d_33"/>
     <g id="text_18">
      <text style="font: 9px 'sans-serif'; text-anchor: middle" x="383.5167" y="188.852281" transform="rotate(-0, 383.5167, 188.852281)">40</text>
     </g>
    </g>
    <g id="xtick_12">
     <g id="line2d_34">
      <path d="M 416.55375 178.513688 
L 416.55375 9.72 
" clip-path="url(#p8087953b67)" style="fill: none; stroke: #cbcbcb"/>
     </g>
     <g id="line2d_35"/>
     <g id="text_19">
      <text style="font: 9px 'sans-serif'; text-anchor: middle" x="416.55375" y="188.852281" transform="rotate(-0, 416.55375, 188.852281)">50</text>
     </g>
    </g>
    <g id="text_20">
     <!-- $\sf v_{pv}$ (V) -->
     <g transform="translate(317.162088 202.932)">
      <text>
       <tspan style="font: 10.8px 'DejaVu Sans'" x="0 16.058358 19.490365 23.702615 31.088555" y="-0.8125">v (V)</tspan>
       <tspan style="font: 7.56px 'DejaVu Sans'" x="6.492916 11.290356" y="0.9593749999999996">pv</tspan>
      </text>
     </g>
    </g>
   </g>
   <g id="matplotlib.axis_4">
    <g id="ytick_6">
     <g id="line2d_36">
      <path d="M 251.3685 178.513688 
L 418.271677 178.513688 
" clip-path="url(#p8087953b67)" style="fill: none; stroke: #cbcbcb"/>
     </g>
     <g id="line2d_37"/>
     <g id="text_21">
      <text style="font: 9px 'sans-serif'; text-anchor: end" x="247.8685" y="181.932984" transform="rotate(-0, 247.8685, 181.932984)">0</text>
     </g>
    </g>
    <g id="ytick_7">
     <g id="line2d_38">
      <path d="M 251.3685 155.064648 
L 418.271677 155.064648 
" clip-path="url(#p8087953b67)" style="fill: none; stroke: #cbcbcb"/>
     </g>
     <g id="line2d_39"/>
     <g id="text_22">
      <text style="font: 9px 'sans-serif'; text-anchor: end" x="247.8685" y="158.483945" transform="rotate(-0, 247.8685, 158.483945)">20</text>
     </g>
    </g>
    <g id="ytick_8">
     <g id="line2d_40">
      <path d="M 251.3685 131.615609 
L 418.271677 131.615609 
" clip-path="url(#p8087953b67)" style="fill: none; stroke: #cbcbcb"/>
     </g>
     <g id="line2d_41"/>
     <g id="text_23">
      <text style="font: 9px 'sans-serif'; text-anchor: end" x="247.8685" y="135.034906" transform="rotate(-0, 247.8685, 135.034906)">40</text>
     </g>
    </g>
    <g id="ytick_9">
     <g id="line2d_42">
      <path d="M 251.3685 108.16657 
L 418.271677 108.16657 
" clip-path="url(#p8087953b67)" style="fill: none; stroke: #cbcbcb"/>
     </g>
     <g id="line2d_43"/>
     <g id="text_24">
      <text style="font: 9px 'sans-serif'; text-anchor: end" x="247.8685" y="111.585867" transform="rotate(-0, 247.8685, 111.585867)">60</text>
     </g>
    </g>
    <g id="ytick_10">
     <g id="line2d_44">
      <path d="M 251.3685 84.717531 
L 418.271677 84.717531 
" clip-path="url(#p8087953b67)" style="fill: none; stroke: #cbcbcb"/>
     </g>
     <g id="line2d_45"/>
     <g id="text_25">
      <text style="font: 9px 'sans-serif'; text-anchor: end" x="247.8685" y="88.136828" transform="rotate(-0, 247.8685, 88.136828)">80</text>
     </g>
    </g>
    <g id="ytick_11">
     <g id="line2d_46">
      <path d="M 251.3685 61.268492 
L 418.271677 61.268492 
" clip-path="url(#p8087953b67)" style="fill: none; stroke: #cbcbcb"/>
     </g>
     <g id="line2d_47"/>
     <g id="text_26">
      <text style="font: 9px 'sans-serif'; text-anchor: end" x="247.8685" y="64.687789" transform="rotate(-0, 247.8685, 64.687789)">100</text>
     </g>
    </g>
    <g id="ytick_12">
     <g id="line2d_48">
      <path d="M 251.3685 37.819453 
L 418.271677 37.819453 
" clip-path="url(#p8087953b67)" style="fill: none; stroke: #cbcbcb"/>
     </g>
     <g id="line2d_49"/>
     <g id="text_27">
      <text style="font: 9px 'sans-serif'; text-anchor: end" x="247.8685" y="41.238749" transform="rotate(-0, 247.8685, 41.238749)">120</text>
     </g>
    </g>
    <g id="ytick_13">
     <g id="line2d_50">
      <path d="M 251.3685 14.370413 
L 418.271677 14.370413 
" clip-path="url(#p8087953b67)" style="fill: none; stroke: #cbcbcb"/>
     </g>
     <g id="line2d_51"/>
     <g id="text_28">
      <text style="font: 9px 'sans-serif'; text-anchor: end" x="247.8685" y="17.78971" transform="rotate(-0, 247.8685, 17.78971)">140</text>
     </g>
    </g>
    <g id="text_29">
     <!-- $\sf p_{pv}$ (W) -->
     <g transform="translate(223.34175 113.664844)rotate(-90)">
      <text>
       <tspan style="font: 10.8px 'DejaVu Sans'" x="0 16.522286 19.954293 24.166543 34.842156" y="-0.8125">p (W)</tspan>
       <tspan style="font: 7.56px 'DejaVu Sans'" x="6.956844 11.754284" y="0.9593749999999996">pv</tspan>
      </text>
     </g>
    </g>
   </g>
   <g id="line2d_52">
    <path d="M 251.3685 178.513688 
L 254.672205 173.951758 
L 257.97591 169.391088 
L 261.279615 164.83168 
L 264.58332 160.273534 
L 267.887025 155.716654 
L 271.19073 151.161043 
L 274.494435 146.606708 
L 277.79814 142.053661 
L 281.101845 137.501918 
L 284.40555 132.951509 
L 287.709255 128.402477 
L 291.01296 123.854894 
L 294.316665 119.308869 
L 297.62037 114.764579 
L 300.924075 110.222298 
L 304.22778 105.682456 
L 307.531485 101.145724 
L 310.83519 96.61315 
L 314.138895 92.086363 
L 317.4426 87.567894 
L 320.746305 83.061668 
L 324.05001 78.573758 
L 327.353715 74.113546 
L 330.65742 69.695483 
L 333.961125 65.341778 
L 337.26483 61.086425 
L 340.568535 56.981213 
L 343.87224 53.104516 
L 347.175945 49.573832 
L 350.47965 46.562997 
L 353.783355 44.324383 
L 357.08706 43.214749 
L 360.390765 43.720037 
L 363.69447 46.469486 
L 366.998175 52.225127 
L 370.30188 61.834115 
L 373.605585 76.143876 
L 376.90929 95.900787 
L 380.212995 121.667337 
L 383.5167 153.785673 
L 386.820405 192.391339 
L 388.624333 217 
" clip-path="url(#p8087953b67)" style="fill: none; stroke: #5cb85c; stroke-width: 3"/>
   </g>
   <g id="patch_8">
    <path d="M 251.3685 178.513688 
L 251.3685 9.72 
" style="fill: none; stroke: #ffffff; stroke-width: 2; stroke-linejoin: miter; stroke-linecap: square"/>
   </g>
   <g id="patch_9">
    <path d="M 418.271677 178.513688 
L 418.271677 9.72 
" style="fill: none; stroke: #ffffff; stroke-width: 2; stroke-linejoin: miter; stroke-linecap: square"/>
   </g>
   <g id="patch_10">
    <path d="M 251.3685 178.513688 
L 418.271677 178.513688 
" style="fill: none; stroke: #ffffff; stroke-width: 2; stroke-linejoin: miter; stroke-linecap: square"/>
   </g>
   <g id="patch_11">
    <path d="M 251.3685 9.72 
L 418.271677 9.72 
" style="fill: none; stroke: #ffffff; stroke-width: 2; stroke-linejoin: miter; stroke-linecap: square"/>
   </g>
  </g>
 </g>
 <defs>
  <clipPath id="paaae79e1ba">
   <rect x="34.50225" y="9.72" width="166.903177" height="168.793688"/>
  </clipPath>
  <clipPath id="p8087953b67">
   <rect x="251.3685" y="9.72" width="166.903177" height="168.793688"/>
  </clipPath>
 </defs>
</svg>
