<?xml version="1.0" encoding="utf-8" standalone="no"?>
<!DOCTYPE svg PUBLIC "-//W3C//DTD SVG 1.1//EN"
  "http://www.w3.org/Graphics/SVG/1.1/DTD/svg11.dtd">
<svg xmlns:xlink="http://www.w3.org/1999/xlink" width="432pt" height="216pt" viewBox="0 0 432 216" xmlns="http://www.w3.org/2000/svg" version="1.1">
 <metadata>
  <rdf:RDF xmlns:dc="http://purl.org/dc/elements/1.1/" xmlns:cc="http://creativecommons.org/ns#" xmlns:rdf="http://www.w3.org/1999/02/22-rdf-syntax-ns#">
   <cc:Work>
    <dc:type rdf:resource="http://purl.org/dc/dcmitype/StillImage"/>
    <dc:date>2023-04-15T20:24:54.708930</dc:date>
    <dc:format>image/svg+xml</dc:format>
    <dc:creator>
     <cc:Agent>
      <dc:title>Matplotlib v3.5.2, https://matplotlib.org/</dc:title>
     </cc:Agent>
    </dc:creator>
   </cc:Work>
  </rdf:RDF>
 </metadata>
 <defs>
  <style type="text/css">*{stroke-linejoin: round; stroke-linecap: butt}</style>
 </defs>
 <g id="figure_1">
  <g id="patch_1">
   <path d="M 0 216 
L 432 216 
L 432 0 
L 0 0 
z
" style="fill: #ffffff"/>
  </g>
  <g id="axes_1">
   <g id="patch_2">
    <path d="M 34.50225 178.513688 
L 205.41375 178.513688 
L 205.41375 13.139297 
L 34.50225 13.139297 
z
" style="fill: #ffffff"/>
   </g>
   <g id="matplotlib.axis_1">
    <g id="xtick_1">
     <g id="line2d_1">
      <path d="M 34.50225 178.513688 
L 34.50225 13.139297 
" clip-path="url(#p2fe5c7a2f1)" style="fill: none; stroke: #cbcbcb"/>
     </g>
     <g id="line2d_2"/>
     <g id="text_1">
      <text style="font: 9px 'sans-serif'; text-anchor: middle" x="34.50225" y="188.852281" transform="rotate(-0, 34.50225, 188.852281)">0</text>
     </g>
    </g>
    <g id="xtick_2">
     <g id="line2d_3">
      <path d="M 65.577068 178.513688 
L 65.577068 13.139297 
" clip-path="url(#p2fe5c7a2f1)" style="fill: none; stroke: #cbcbcb"/>
     </g>
     <g id="line2d_4"/>
     <g id="text_2">
      <text style="font: 9px 'sans-serif'; text-anchor: middle" x="65.577068" y="188.852281" transform="rotate(-0, 65.577068, 188.852281)">10</text>
     </g>
    </g>
    <g id="xtick_3">
     <g id="line2d_5">
      <path d="M 96.651886 178.513688 
L 96.651886 13.139297 
" clip-path="url(#p2fe5c7a2f1)" style="fill: none; stroke: #cbcbcb"/>
     </g>
     <g id="line2d_6"/>
     <g id="text_3">
      <text style="font: 9px 'sans-serif'; text-anchor: middle" x="96.651886" y="188.852281" transform="rotate(-0, 96.651886, 188.852281)">20</text>
     </g>
    </g>
    <g id="xtick_4">
     <g id="line2d_7">
      <path d="M 127.726705 178.513688 
L 127.726705 13.139297 
" clip-path="url(#p2fe5c7a2f1)" style="fill: none; stroke: #cbcbcb"/>
     </g>
     <g id="line2d_8"/>
     <g id="text_4">
      <text style="font: 9px 'sans-serif'; text-anchor: middle" x="127.726705" y="188.852281" transform="rotate(-0, 127.726705, 188.852281)">30</text>
     </g>
    </g>
    <g id="xtick_5">
     <g id="line2d_9">
      <path d="M 158.801523 178.513688 
L 158.801523 13.139297 
" clip-path="url(#p2fe5c7a2f1)" style="fill: none; stroke: #cbcbcb"/>
     </g>
     <g id="line2d_10"/>
     <g id="text_5">
      <text style="font: 9px 'sans-serif'; text-anchor: middle" x="158.801523" y="188.852281" transform="rotate(-0, 158.801523, 188.852281)">40</text>
     </g>
    </g>
    <g id="xtick_6">
     <g id="line2d_11">
      <path d="M 189.876341 178.513688 
L 189.876341 13.139297 
" clip-path="url(#p2fe5c7a2f1)" style="fill: none; stroke: #cbcbcb"/>
     </g>
     <g id="line2d_12"/>
     <g id="text_6">
      <text style="font: 9px 'sans-serif'; text-anchor: middle" x="189.876341" y="188.852281" transform="rotate(-0, 189.876341, 188.852281)">50</text>
     </g>
    </g>
    <g id="text_7">
     <!-- $\sf v_{pv}$ (V) -->
     <g transform="translate(102.3 202.932)">
      <text>
       <tspan style="font: 10.8px 'DejaVu Sans'" x="0 16.058358 19.490365 23.702615 31.088555" y="-0.8125">v (V)</tspan>
       <tspan style="font: 7.56px 'DejaVu Sans'" x="6.492916 11.290356" y="0.9593749999999996">pv</tspan>
      </text>
     </g>
    </g>
   </g>
   <g id="matplotlib.axis_2">
    <g id="ytick_1">
     <g id="line2d_13">
      <path d="M 34.50225 178.513688 
L 205.41375 178.513688 
" clip-path="url(#p2fe5c7a2f1)" style="fill: none; stroke: #cbcbcb"/>
     </g>
     <g id="line2d_14"/>
     <g id="text_8">
      <text style="font: 9px 'sans-serif'; text-anchor: end" x="31.00225" y="181.932984" transform="rotate(-0, 31.00225, 181.932984)">0</text>
     </g>
    </g>
    <g id="ytick_2">
     <g id="line2d_15">
      <path d="M 34.50225 145.438809 
L 205.41375 145.438809 
" clip-path="url(#p2fe5c7a2f1)" style="fill: none; stroke: #cbcbcb"/>
     </g>
     <g id="line2d_16"/>
     <g id="text_9">
      <text style="font: 9px 'sans-serif'; text-anchor: end" x="31.00225" y="148.858106" transform="rotate(-0, 31.00225, 148.858106)">1</text>
     </g>
    </g>
    <g id="ytick_3">
     <g id="line2d_17">
      <path d="M 34.50225 112.363931 
L 205.41375 112.363931 
" clip-path="url(#p2fe5c7a2f1)" style="fill: none; stroke: #cbcbcb"/>
     </g>
     <g id="line2d_18"/>
     <g id="text_10">
      <text style="font: 9px 'sans-serif'; text-anchor: end" x="31.00225" y="115.783228" transform="rotate(-0, 31.00225, 115.783228)">2</text>
     </g>
    </g>
    <g id="ytick_4">
     <g id="line2d_19">
      <path d="M 34.50225 79.289053 
L 205.41375 79.289053 
" clip-path="url(#p2fe5c7a2f1)" style="fill: none; stroke: #cbcbcb"/>
     </g>
     <g id="line2d_20"/>
     <g id="text_11">
      <text style="font: 9px 'sans-serif'; text-anchor: end" x="31.00225" y="82.70835" transform="rotate(-0, 31.00225, 82.70835)">3</text>
     </g>
    </g>
    <g id="ytick_5">
     <g id="line2d_21">
      <path d="M 34.50225 46.214175 
L 205.41375 46.214175 
" clip-path="url(#p2fe5c7a2f1)" style="fill: none; stroke: #cbcbcb"/>
     </g>
     <g id="line2d_22"/>
     <g id="text_12">
      <text style="font: 9px 'sans-serif'; text-anchor: end" x="31.00225" y="49.633472" transform="rotate(-0, 31.00225, 49.633472)">4</text>
     </g>
    </g>
    <g id="ytick_6">
     <g id="line2d_23">
      <path d="M 34.50225 13.139297 
L 205.41375 13.139297 
" clip-path="url(#p2fe5c7a2f1)" style="fill: none; stroke: #cbcbcb"/>
     </g>
     <g id="line2d_24"/>
     <g id="text_13">
      <text style="font: 9px 'sans-serif'; text-anchor: end" x="31.00225" y="16.558594" transform="rotate(-0, 31.00225, 16.558594)">5</text>
     </g>
    </g>
    <g id="text_14">
     <!-- $\sf i_{pv}$ (A) -->
     <g transform="translate(17.928 111.810492)rotate(-90)">
      <text>
       <tspan style="font: 10.8px 'DejaVu Sans'" x="0 12.668511 16.100518 20.312768 27.698708" y="-0.796875">i (A)</tspan>
       <tspan style="font: 7.56px 'DejaVu Sans'" x="3.103069 7.900509" y="0.9749999999999996">pv</tspan>
      </text>
     </g>
    </g>
   </g>
   <g id="line2d_25">
    <path d="M 34.50225 56.950479 
L 37.609732 56.968242 
L 40.717214 56.986008 
L 43.824695 57.003779 
L 46.932177 57.021557 
L 50.039659 57.039346 
L 53.147141 57.05715 
L 56.254623 57.074978 
L 59.362105 57.092842 
L 62.469586 57.110758 
L 65.577068 57.128753 
L 68.68455 57.146867 
L 71.792032 57.165157 
L 74.899514 57.18371 
L 78.006995 57.202659 
L 81.114477 57.222197 
L 84.221959 57.242616 
L 87.329441 57.264353 
L 90.436923 57.288059 
L 93.544405 57.314707 
L 96.651886 57.345753 
L 99.759368 57.38337 
L 102.86685 57.430803 
L 105.974332 57.492898 
L 109.081814 57.57688 
L 112.189295 57.693519 
L 115.296777 57.858834 
L 118.404259 58.096609 
L 121.511741 58.442023 
L 124.619223 58.946854 
L 127.726705 59.68674 
L 130.834186 60.770949 
L 133.941668 62.354795 
L 137.04915 64.653919 
L 140.156632 67.957801 
L 143.264114 72.637087 
L 146.371595 79.13631 
L 149.479077 87.943424 
L 152.586559 99.533862 
L 155.694041 114.30018 
L 158.801523 132.490963 
L 161.909005 154.182286 
L 165.016486 179.289192 
L 168.123968 207.60583 
L 169.05815 217 
" clip-path="url(#p2fe5c7a2f1)" style="fill: none; stroke: #d9524f; stroke-width: 3"/>
   </g>
   <g id="patch_3">
    <path d="M 34.50225 178.513688 
L 34.50225 13.139297 
" style="fill: none; stroke: #ffffff; stroke-width: 2; stroke-linejoin: miter; stroke-linecap: square"/>
   </g>
   <g id="patch_4">
    <path d="M 205.41375 178.513688 
L 205.41375 13.139297 
" style="fill: none; stroke: #ffffff; stroke-width: 2; stroke-linejoin: miter; stroke-linecap: square"/>
   </g>
   <g id="patch_5">
    <path d="M 34.50225 178.513688 
L 205.41375 178.513688 
" style="fill: none; stroke: #ffffff; stroke-width: 2; stroke-linejoin: miter; stroke-linecap: square"/>
   </g>
   <g id="patch_6">
    <path d="M 34.50225 13.139297 
L 205.41375 13.139297 
" style="fill: none; stroke: #ffffff; stroke-width: 2; stroke-linejoin: miter; stroke-linecap: square"/>
   </g>
  </g>
  <g id="axes_2">
   <g id="patch_7">
    <path d="M 251.3685 178.513688 
L 422.28 178.513688 
L 422.28 13.139297 
L 251.3685 13.139297 
z
" style="fill: #ffffff"/>
   </g>
   <g id="matplotlib.axis_3">
    <g id="xtick_7">
     <g id="line2d_26">
      <path d="M 251.3685 178.513688 
L 251.3685 13.139297 
" clip-path="url(#p29f4785aa6)" style="fill: none; stroke: #cbcbcb"/>
     </g>
     <g id="line2d_27"/>
     <g id="text_15">
      <text style="font: 9px 'sans-serif'; text-anchor: middle" x="251.3685" y="188.852281" transform="rotate(-0, 251.3685, 188.852281)">0</text>
     </g>
    </g>
    <g id="xtick_8">
     <g id="line2d_28">
      <path d="M 282.443318 178.513688 
L 282.443318 13.139297 
" clip-path="url(#p29f4785aa6)" style="fill: none; stroke: #cbcbcb"/>
     </g>
     <g id="line2d_29"/>
     <g id="text_16">
      <text style="font: 9px 'sans-serif'; text-anchor: middle" x="282.443318" y="188.852281" transform="rotate(-0, 282.443318, 188.852281)">10</text>
     </g>
    </g>
    <g id="xtick_9">
     <g id="line2d_30">
      <path d="M 313.518136 178.513688 
L 313.518136 13.139297 
" clip-path="url(#p29f4785aa6)" style="fill: none; stroke: #cbcbcb"/>
     </g>
     <g id="line2d_31"/>
     <g id="text_17">
      <text style="font: 9px 'sans-serif'; text-anchor: middle" x="313.518136" y="188.852281" transform="rotate(-0, 313.518136, 188.852281)">20</text>
     </g>
    </g>
    <g id="xtick_10">
     <g id="line2d_32">
      <path d="M 344.592955 178.513688 
L 344.592955 13.139297 
" clip-path="url(#p29f4785aa6)" style="fill: none; stroke: #cbcbcb"/>
     </g>
     <g id="line2d_33"/>
     <g id="text_18">
      <text style="font: 9px 'sans-serif'; text-anchor: middle" x="344.592955" y="188.852281" transform="rotate(-0, 344.592955, 188.852281)">30</text>
     </g>
    </g>
    <g id="xtick_11">
     <g id="line2d_34">
      <path d="M 375.667773 178.513688 
L 375.667773 13.139297 
" clip-path="url(#p29f4785aa6)" style="fill: none; stroke: #cbcbcb"/>
     </g>
     <g id="line2d_35"/>
     <g id="text_19">
      <text style="font: 9px 'sans-serif'; text-anchor: middle" x="375.667773" y="188.852281" transform="rotate(-0, 375.667773, 188.852281)">40</text>
     </g>
    </g>
    <g id="xtick_12">
     <g id="line2d_36">
      <path d="M 406.742591 178.513688 
L 406.742591 13.139297 
" clip-path="url(#p29f4785aa6)" style="fill: none; stroke: #cbcbcb"/>
     </g>
     <g id="line2d_37"/>
     <g id="text_20">
      <text style="font: 9px 'sans-serif'; text-anchor: middle" x="406.742591" y="188.852281" transform="rotate(-0, 406.742591, 188.852281)">50</text>
     </g>
    </g>
    <g id="text_21">
     <!-- $\sf v_{pv}$ (V) -->
     <g transform="translate(319.16625 202.932)">
      <text>
       <tspan style="font: 10.8px 'DejaVu Sans'" x="0 16.058358 19.490365 23.702615 31.088555" y="-0.8125">v (V)</tspan>
       <tspan style="font: 7.56px 'DejaVu Sans'" x="6.492916 11.290356" y="0.9593749999999996">pv</tspan>
      </text>
     </g>
    </g>
   </g>
   <g id="matplotlib.axis_4">
    <g id="ytick_7">
     <g id="line2d_38">
      <path d="M 251.3685 178.513688 
L 422.28 178.513688 
" clip-path="url(#p29f4785aa6)" style="fill: none; stroke: #cbcbcb"/>
     </g>
     <g id="line2d_39"/>
     <g id="text_22">
      <text style="font: 9px 'sans-serif'; text-anchor: end" x="247.8685" y="181.932984" transform="rotate(-0, 247.8685, 181.932984)">0</text>
     </g>
    </g>
    <g id="ytick_8">
     <g id="line2d_40">
      <path d="M 251.3685 156.463769 
L 422.28 156.463769 
" clip-path="url(#p29f4785aa6)" style="fill: none; stroke: #cbcbcb"/>
     </g>
     <g id="line2d_41"/>
     <g id="text_23">
      <text style="font: 9px 'sans-serif'; text-anchor: end" x="247.8685" y="159.883066" transform="rotate(-0, 247.8685, 159.883066)">20</text>
     </g>
    </g>
    <g id="ytick_9">
     <g id="line2d_42">
      <path d="M 251.3685 134.41385 
L 422.28 134.41385 
" clip-path="url(#p29f4785aa6)" style="fill: none; stroke: #cbcbcb"/>
     </g>
     <g id="line2d_43"/>
     <g id="text_24">
      <text style="font: 9px 'sans-serif'; text-anchor: end" x="247.8685" y="137.833147" transform="rotate(-0, 247.8685, 137.833147)">40</text>
     </g>
    </g>
    <g id="ytick_10">
     <g id="line2d_44">
      <path d="M 251.3685 112.363931 
L 422.28 112.363931 
" clip-path="url(#p29f4785aa6)" style="fill: none; stroke: #cbcbcb"/>
     </g>
     <g id="line2d_45"/>
     <g id="text_25">
      <text style="font: 9px 'sans-serif'; text-anchor: end" x="247.8685" y="115.783228" transform="rotate(-0, 247.8685, 115.783228)">60</text>
     </g>
    </g>
    <g id="ytick_11">
     <g id="line2d_46">
      <path d="M 251.3685 90.314012 
L 422.28 90.314012 
" clip-path="url(#p29f4785aa6)" style="fill: none; stroke: #cbcbcb"/>
     </g>
     <g id="line2d_47"/>
     <g id="text_26">
      <text style="font: 9px 'sans-serif'; text-anchor: end" x="247.8685" y="93.733309" transform="rotate(-0, 247.8685, 93.733309)">80</text>
     </g>
    </g>
    <g id="ytick_12">
     <g id="line2d_48">
      <path d="M 251.3685 68.264094 
L 422.28 68.264094 
" clip-path="url(#p29f4785aa6)" style="fill: none; stroke: #cbcbcb"/>
     </g>
     <g id="line2d_49"/>
     <g id="text_27">
      <text style="font: 9px 'sans-serif'; text-anchor: end" x="247.8685" y="71.683391" transform="rotate(-0, 247.8685, 71.683391)">100</text>
     </g>
    </g>
    <g id="ytick_13">
     <g id="line2d_50">
      <path d="M 251.3685 46.214175 
L 422.28 46.214175 
" clip-path="url(#p29f4785aa6)" style="fill: none; stroke: #cbcbcb"/>
     </g>
     <g id="line2d_51"/>
     <g id="text_28">
      <text style="font: 9px 'sans-serif'; text-anchor: end" x="247.8685" y="49.633472" transform="rotate(-0, 247.8685, 49.633472)">120</text>
     </g>
    </g>
    <g id="ytick_14">
     <g id="line2d_52">
      <path d="M 251.3685 24.164256 
L 422.28 24.164256 
" clip-path="url(#p29f4785aa6)" style="fill: none; stroke: #cbcbcb"/>
     </g>
     <g id="line2d_53"/>
     <g id="text_29">
      <text style="font: 9px 'sans-serif'; text-anchor: end" x="247.8685" y="27.583553" transform="rotate(-0, 247.8685, 27.583553)">140</text>
     </g>
    </g>
    <g id="text_30">
     <!-- $\sf p_{pv}$ (W) -->
     <g transform="translate(223.34175 115.374492)rotate(-90)">
      <text>
       <tspan style="font: 10.8px 'DejaVu Sans'" x="0 16.522286 19.954293 24.166543 34.842156" y="-0.8125">p (W)</tspan>
       <tspan style="font: 7.56px 'DejaVu Sans'" x="6.956844 11.754284" y="0.9593749999999996">pv</tspan>
      </text>
     </g>
    </g>
   </g>
   <g id="line2d_54">
    <path d="M 251.3685 178.513688 
L 254.475982 174.462173 
L 257.583464 170.411842 
L 260.690945 166.362697 
L 263.798427 162.314737 
L 266.905909 158.267964 
L 270.013391 154.22238 
L 273.120873 150.177989 
L 276.228355 146.134795 
L 279.335836 142.092809 
L 282.443318 138.052043 
L 285.5508 134.01252 
L 288.658282 129.974275 
L 291.765764 125.937364 
L 294.873245 121.901874 
L 297.980727 117.867942 
L 301.088209 113.835783 
L 304.195691 109.805731 
L 307.303173 105.77831 
L 310.410655 101.754333 
L 313.518136 97.735065 
L 316.625618 93.722465 
L 319.7331 89.719572 
L 322.840582 85.731082 
L 325.948064 81.764242 
L 329.055545 77.830213 
L 332.163027 73.946148 
L 335.270509 70.138317 
L 338.377991 66.4468 
L 341.485473 62.932416 
L 344.592955 59.68674 
L 347.700436 56.846191 
L 350.807918 54.610869 
L 353.9154 53.267942 
L 357.022882 53.217016 
L 360.130364 54.990987 
L 363.237845 59.260834 
L 366.345327 66.810362 
L 369.452809 78.472575 
L 372.560291 95.036128 
L 375.667773 117.150055 
L 378.775255 145.260772 
L 381.882736 179.599394 
L 384.744421 217 
" clip-path="url(#p29f4785aa6)" style="fill: none; stroke: #5cb85c; stroke-width: 3"/>
   </g>
   <g id="patch_8">
    <path d="M 251.3685 178.513688 
L 251.3685 13.139297 
" style="fill: none; stroke: #ffffff; stroke-width: 2; stroke-linejoin: miter; stroke-linecap: square"/>
   </g>
   <g id="patch_9">
    <path d="M 422.28 178.513688 
L 422.28 13.139297 
" style="fill: none; stroke: #ffffff; stroke-width: 2; stroke-linejoin: miter; stroke-linecap: square"/>
   </g>
   <g id="patch_10">
    <path d="M 251.3685 178.513688 
L 422.28 178.513688 
" style="fill: none; stroke: #ffffff; stroke-width: 2; stroke-linejoin: miter; stroke-linecap: square"/>
   </g>
   <g id="patch_11">
    <path d="M 251.3685 13.139297 
L 422.28 13.139297 
" style="fill: none; stroke: #ffffff; stroke-width: 2; stroke-linejoin: miter; stroke-linecap: square"/>
   </g>
  </g>
 </g>
 <defs>
  <clipPath id="p2fe5c7a2f1">
   <rect x="34.50225" y="13.139297" width="170.9115" height="165.374391"/>
  </clipPath>
  <clipPath id="p29f4785aa6">
   <rect x="251.3685" y="13.139297" width="170.9115" height="165.374391"/>
  </clipPath>
 </defs>
</svg>
