<?xml version="1.0" encoding="utf-8" standalone="no"?>
<!DOCTYPE svg PUBLIC "-//W3C//DTD SVG 1.1//EN"
  "http://www.w3.org/Graphics/SVG/1.1/DTD/svg11.dtd">
<!-- Created with matplotlib (https://matplotlib.org/) -->
<svg height="360pt" version="1.1" viewBox="0 0 432 360" width="432pt" xmlns="http://www.w3.org/2000/svg" xmlns:xlink="http://www.w3.org/1999/xlink">
 <metadata>
  <rdf:RDF xmlns:cc="http://creativecommons.org/ns#" xmlns:dc="http://purl.org/dc/elements/1.1/" xmlns:rdf="http://www.w3.org/1999/02/22-rdf-syntax-ns#">
   <cc:Work>
    <dc:type rdf:resource="http://purl.org/dc/dcmitype/StillImage"/>
    <dc:date>2021-04-14T10:43:44.105874</dc:date>
    <dc:format>image/svg+xml</dc:format>
    <dc:creator>
     <cc:Agent>
      <dc:title>Matplotlib v3.3.2, https://matplotlib.org/</dc:title>
     </cc:Agent>
    </dc:creator>
   </cc:Work>
  </rdf:RDF>
 </metadata>
 <defs>
  <style type="text/css">*{stroke-linecap:butt;stroke-linejoin:round;}</style>
 </defs>
 <g id="figure_1">
  <g id="axes_1">
   <g id="patch_1">
    <path d="M 54 320.4 
L 388.8 320.4 
L 388.8 43.2 
L 54 43.2 
z
" style="fill:#ffffff;"/>
   </g>
   <g id="matplotlib.axis_1">
    <g id="xtick_1">
     <g id="line2d_1">
      <path clip-path="url(#p74acbf321d)" d="M 69.218182 320.4 
L 69.218182 43.2 
" style="fill:none;stroke:#b0b0b0;stroke-linecap:square;stroke-width:0.8;"/>
     </g>
     <g id="line2d_2">
      <defs>
       <path d="M 0 0 
L 0 3.5 
" id="m905fb757cd" style="stroke:#000000;stroke-width:0.8;"/>
      </defs>
      <g>
       <use style="stroke:#000000;stroke-width:0.8;" x="69.218182" xlink:href="#m905fb757cd" y="320.4"/>
      </g>
     </g>
     <g id="text_1">
      <!-- 0 -->
      <g transform="translate(66.036932 334.998438)scale(0.1 -0.1)">
       <defs>
        <path d="M 31.78125 66.40625 
Q 24.171875 66.40625 20.328125 58.90625 
Q 16.5 51.421875 16.5 36.375 
Q 16.5 21.390625 20.328125 13.890625 
Q 24.171875 6.390625 31.78125 6.390625 
Q 39.453125 6.390625 43.28125 13.890625 
Q 47.125 21.390625 47.125 36.375 
Q 47.125 51.421875 43.28125 58.90625 
Q 39.453125 66.40625 31.78125 66.40625 
z
M 31.78125 74.21875 
Q 44.046875 74.21875 50.515625 64.515625 
Q 56.984375 54.828125 56.984375 36.375 
Q 56.984375 17.96875 50.515625 8.265625 
Q 44.046875 -1.421875 31.78125 -1.421875 
Q 19.53125 -1.421875 13.0625 8.265625 
Q 6.59375 17.96875 6.59375 36.375 
Q 6.59375 54.828125 13.0625 64.515625 
Q 19.53125 74.21875 31.78125 74.21875 
z
" id="DejaVuSans-48"/>
       </defs>
       <use xlink:href="#DejaVuSans-48"/>
      </g>
     </g>
    </g>
    <g id="xtick_2">
     <g id="line2d_3">
      <path clip-path="url(#p74acbf321d)" d="M 130.151843 320.4 
L 130.151843 43.2 
" style="fill:none;stroke:#b0b0b0;stroke-linecap:square;stroke-width:0.8;"/>
     </g>
     <g id="line2d_4">
      <g>
       <use style="stroke:#000000;stroke-width:0.8;" x="130.151843" xlink:href="#m905fb757cd" y="320.4"/>
      </g>
     </g>
     <g id="text_2">
      <!-- 2 -->
      <g transform="translate(126.970593 334.998438)scale(0.1 -0.1)">
       <defs>
        <path d="M 19.1875 8.296875 
L 53.609375 8.296875 
L 53.609375 0 
L 7.328125 0 
L 7.328125 8.296875 
Q 12.9375 14.109375 22.625 23.890625 
Q 32.328125 33.6875 34.8125 36.53125 
Q 39.546875 41.84375 41.421875 45.53125 
Q 43.3125 49.21875 43.3125 52.78125 
Q 43.3125 58.59375 39.234375 62.25 
Q 35.15625 65.921875 28.609375 65.921875 
Q 23.96875 65.921875 18.8125 64.3125 
Q 13.671875 62.703125 7.8125 59.421875 
L 7.8125 69.390625 
Q 13.765625 71.78125 18.9375 73 
Q 24.125 74.21875 28.421875 74.21875 
Q 39.75 74.21875 46.484375 68.546875 
Q 53.21875 62.890625 53.21875 53.421875 
Q 53.21875 48.921875 51.53125 44.890625 
Q 49.859375 40.875 45.40625 35.40625 
Q 44.1875 33.984375 37.640625 27.21875 
Q 31.109375 20.453125 19.1875 8.296875 
z
" id="DejaVuSans-50"/>
       </defs>
       <use xlink:href="#DejaVuSans-50"/>
      </g>
     </g>
    </g>
    <g id="xtick_3">
     <g id="line2d_5">
      <path clip-path="url(#p74acbf321d)" d="M 191.085504 320.4 
L 191.085504 43.2 
" style="fill:none;stroke:#b0b0b0;stroke-linecap:square;stroke-width:0.8;"/>
     </g>
     <g id="line2d_6">
      <g>
       <use style="stroke:#000000;stroke-width:0.8;" x="191.085504" xlink:href="#m905fb757cd" y="320.4"/>
      </g>
     </g>
     <g id="text_3">
      <!-- 4 -->
      <g transform="translate(187.904254 334.998438)scale(0.1 -0.1)">
       <defs>
        <path d="M 37.796875 64.3125 
L 12.890625 25.390625 
L 37.796875 25.390625 
z
M 35.203125 72.90625 
L 47.609375 72.90625 
L 47.609375 25.390625 
L 58.015625 25.390625 
L 58.015625 17.1875 
L 47.609375 17.1875 
L 47.609375 0 
L 37.796875 0 
L 37.796875 17.1875 
L 4.890625 17.1875 
L 4.890625 26.703125 
z
" id="DejaVuSans-52"/>
       </defs>
       <use xlink:href="#DejaVuSans-52"/>
      </g>
     </g>
    </g>
    <g id="xtick_4">
     <g id="line2d_7">
      <path clip-path="url(#p74acbf321d)" d="M 252.019165 320.4 
L 252.019165 43.2 
" style="fill:none;stroke:#b0b0b0;stroke-linecap:square;stroke-width:0.8;"/>
     </g>
     <g id="line2d_8">
      <g>
       <use style="stroke:#000000;stroke-width:0.8;" x="252.019165" xlink:href="#m905fb757cd" y="320.4"/>
      </g>
     </g>
     <g id="text_4">
      <!-- 6 -->
      <g transform="translate(248.837915 334.998438)scale(0.1 -0.1)">
       <defs>
        <path d="M 33.015625 40.375 
Q 26.375 40.375 22.484375 35.828125 
Q 18.609375 31.296875 18.609375 23.390625 
Q 18.609375 15.53125 22.484375 10.953125 
Q 26.375 6.390625 33.015625 6.390625 
Q 39.65625 6.390625 43.53125 10.953125 
Q 47.40625 15.53125 47.40625 23.390625 
Q 47.40625 31.296875 43.53125 35.828125 
Q 39.65625 40.375 33.015625 40.375 
z
M 52.59375 71.296875 
L 52.59375 62.3125 
Q 48.875 64.0625 45.09375 64.984375 
Q 41.3125 65.921875 37.59375 65.921875 
Q 27.828125 65.921875 22.671875 59.328125 
Q 17.53125 52.734375 16.796875 39.40625 
Q 19.671875 43.65625 24.015625 45.921875 
Q 28.375 48.1875 33.59375 48.1875 
Q 44.578125 48.1875 50.953125 41.515625 
Q 57.328125 34.859375 57.328125 23.390625 
Q 57.328125 12.15625 50.6875 5.359375 
Q 44.046875 -1.421875 33.015625 -1.421875 
Q 20.359375 -1.421875 13.671875 8.265625 
Q 6.984375 17.96875 6.984375 36.375 
Q 6.984375 53.65625 15.1875 63.9375 
Q 23.390625 74.21875 37.203125 74.21875 
Q 40.921875 74.21875 44.703125 73.484375 
Q 48.484375 72.75 52.59375 71.296875 
z
" id="DejaVuSans-54"/>
       </defs>
       <use xlink:href="#DejaVuSans-54"/>
      </g>
     </g>
    </g>
    <g id="xtick_5">
     <g id="line2d_9">
      <path clip-path="url(#p74acbf321d)" d="M 312.952826 320.4 
L 312.952826 43.2 
" style="fill:none;stroke:#b0b0b0;stroke-linecap:square;stroke-width:0.8;"/>
     </g>
     <g id="line2d_10">
      <g>
       <use style="stroke:#000000;stroke-width:0.8;" x="312.952826" xlink:href="#m905fb757cd" y="320.4"/>
      </g>
     </g>
     <g id="text_5">
      <!-- 8 -->
      <g transform="translate(309.771576 334.998438)scale(0.1 -0.1)">
       <defs>
        <path d="M 31.78125 34.625 
Q 24.75 34.625 20.71875 30.859375 
Q 16.703125 27.09375 16.703125 20.515625 
Q 16.703125 13.921875 20.71875 10.15625 
Q 24.75 6.390625 31.78125 6.390625 
Q 38.8125 6.390625 42.859375 10.171875 
Q 46.921875 13.96875 46.921875 20.515625 
Q 46.921875 27.09375 42.890625 30.859375 
Q 38.875 34.625 31.78125 34.625 
z
M 21.921875 38.8125 
Q 15.578125 40.375 12.03125 44.71875 
Q 8.5 49.078125 8.5 55.328125 
Q 8.5 64.0625 14.71875 69.140625 
Q 20.953125 74.21875 31.78125 74.21875 
Q 42.671875 74.21875 48.875 69.140625 
Q 55.078125 64.0625 55.078125 55.328125 
Q 55.078125 49.078125 51.53125 44.71875 
Q 48 40.375 41.703125 38.8125 
Q 48.828125 37.15625 52.796875 32.3125 
Q 56.78125 27.484375 56.78125 20.515625 
Q 56.78125 9.90625 50.3125 4.234375 
Q 43.84375 -1.421875 31.78125 -1.421875 
Q 19.734375 -1.421875 13.25 4.234375 
Q 6.78125 9.90625 6.78125 20.515625 
Q 6.78125 27.484375 10.78125 32.3125 
Q 14.796875 37.15625 21.921875 38.8125 
z
M 18.3125 54.390625 
Q 18.3125 48.734375 21.84375 45.5625 
Q 25.390625 42.390625 31.78125 42.390625 
Q 38.140625 42.390625 41.71875 45.5625 
Q 45.3125 48.734375 45.3125 54.390625 
Q 45.3125 60.0625 41.71875 63.234375 
Q 38.140625 66.40625 31.78125 66.40625 
Q 25.390625 66.40625 21.84375 63.234375 
Q 18.3125 60.0625 18.3125 54.390625 
z
" id="DejaVuSans-56"/>
       </defs>
       <use xlink:href="#DejaVuSans-56"/>
      </g>
     </g>
    </g>
    <g id="xtick_6">
     <g id="line2d_11">
      <path clip-path="url(#p74acbf321d)" d="M 373.886486 320.4 
L 373.886486 43.2 
" style="fill:none;stroke:#b0b0b0;stroke-linecap:square;stroke-width:0.8;"/>
     </g>
     <g id="line2d_12">
      <g>
       <use style="stroke:#000000;stroke-width:0.8;" x="373.886486" xlink:href="#m905fb757cd" y="320.4"/>
      </g>
     </g>
     <g id="text_6">
      <!-- 10 -->
      <g transform="translate(367.523986 334.998438)scale(0.1 -0.1)">
       <defs>
        <path d="M 12.40625 8.296875 
L 28.515625 8.296875 
L 28.515625 63.921875 
L 10.984375 60.40625 
L 10.984375 69.390625 
L 28.421875 72.90625 
L 38.28125 72.90625 
L 38.28125 8.296875 
L 54.390625 8.296875 
L 54.390625 0 
L 12.40625 0 
z
" id="DejaVuSans-49"/>
       </defs>
       <use xlink:href="#DejaVuSans-49"/>
       <use x="63.623047" xlink:href="#DejaVuSans-48"/>
      </g>
     </g>
    </g>
    <g id="text_7">
     <!-- Time (s) -->
     <g transform="translate(201.071094 348.676562)scale(0.1 -0.1)">
      <defs>
       <path d="M -0.296875 72.90625 
L 61.375 72.90625 
L 61.375 64.59375 
L 35.5 64.59375 
L 35.5 0 
L 25.59375 0 
L 25.59375 64.59375 
L -0.296875 64.59375 
z
" id="DejaVuSans-84"/>
       <path d="M 9.421875 54.6875 
L 18.40625 54.6875 
L 18.40625 0 
L 9.421875 0 
z
M 9.421875 75.984375 
L 18.40625 75.984375 
L 18.40625 64.59375 
L 9.421875 64.59375 
z
" id="DejaVuSans-105"/>
       <path d="M 52 44.1875 
Q 55.375 50.25 60.0625 53.125 
Q 64.75 56 71.09375 56 
Q 79.640625 56 84.28125 50.015625 
Q 88.921875 44.046875 88.921875 33.015625 
L 88.921875 0 
L 79.890625 0 
L 79.890625 32.71875 
Q 79.890625 40.578125 77.09375 44.375 
Q 74.3125 48.1875 68.609375 48.1875 
Q 61.625 48.1875 57.5625 43.546875 
Q 53.515625 38.921875 53.515625 30.90625 
L 53.515625 0 
L 44.484375 0 
L 44.484375 32.71875 
Q 44.484375 40.625 41.703125 44.40625 
Q 38.921875 48.1875 33.109375 48.1875 
Q 26.21875 48.1875 22.15625 43.53125 
Q 18.109375 38.875 18.109375 30.90625 
L 18.109375 0 
L 9.078125 0 
L 9.078125 54.6875 
L 18.109375 54.6875 
L 18.109375 46.1875 
Q 21.1875 51.21875 25.484375 53.609375 
Q 29.78125 56 35.6875 56 
Q 41.65625 56 45.828125 52.96875 
Q 50 49.953125 52 44.1875 
z
" id="DejaVuSans-109"/>
       <path d="M 56.203125 29.59375 
L 56.203125 25.203125 
L 14.890625 25.203125 
Q 15.484375 15.921875 20.484375 11.0625 
Q 25.484375 6.203125 34.421875 6.203125 
Q 39.59375 6.203125 44.453125 7.46875 
Q 49.3125 8.734375 54.109375 11.28125 
L 54.109375 2.78125 
Q 49.265625 0.734375 44.1875 -0.34375 
Q 39.109375 -1.421875 33.890625 -1.421875 
Q 20.796875 -1.421875 13.15625 6.1875 
Q 5.515625 13.8125 5.515625 26.8125 
Q 5.515625 40.234375 12.765625 48.109375 
Q 20.015625 56 32.328125 56 
Q 43.359375 56 49.78125 48.890625 
Q 56.203125 41.796875 56.203125 29.59375 
z
M 47.21875 32.234375 
Q 47.125 39.59375 43.09375 43.984375 
Q 39.0625 48.390625 32.421875 48.390625 
Q 24.90625 48.390625 20.390625 44.140625 
Q 15.875 39.890625 15.1875 32.171875 
z
" id="DejaVuSans-101"/>
       <path id="DejaVuSans-32"/>
       <path d="M 31 75.875 
Q 24.46875 64.65625 21.28125 53.65625 
Q 18.109375 42.671875 18.109375 31.390625 
Q 18.109375 20.125 21.3125 9.0625 
Q 24.515625 -2 31 -13.1875 
L 23.1875 -13.1875 
Q 15.875 -1.703125 12.234375 9.375 
Q 8.59375 20.453125 8.59375 31.390625 
Q 8.59375 42.28125 12.203125 53.3125 
Q 15.828125 64.359375 23.1875 75.875 
z
" id="DejaVuSans-40"/>
       <path d="M 44.28125 53.078125 
L 44.28125 44.578125 
Q 40.484375 46.53125 36.375 47.5 
Q 32.28125 48.484375 27.875 48.484375 
Q 21.1875 48.484375 17.84375 46.4375 
Q 14.5 44.390625 14.5 40.28125 
Q 14.5 37.15625 16.890625 35.375 
Q 19.28125 33.59375 26.515625 31.984375 
L 29.59375 31.296875 
Q 39.15625 29.25 43.1875 25.515625 
Q 47.21875 21.78125 47.21875 15.09375 
Q 47.21875 7.46875 41.1875 3.015625 
Q 35.15625 -1.421875 24.609375 -1.421875 
Q 20.21875 -1.421875 15.453125 -0.5625 
Q 10.6875 0.296875 5.421875 2 
L 5.421875 11.28125 
Q 10.40625 8.6875 15.234375 7.390625 
Q 20.0625 6.109375 24.8125 6.109375 
Q 31.15625 6.109375 34.5625 8.28125 
Q 37.984375 10.453125 37.984375 14.40625 
Q 37.984375 18.0625 35.515625 20.015625 
Q 33.0625 21.96875 24.703125 23.78125 
L 21.578125 24.515625 
Q 13.234375 26.265625 9.515625 29.90625 
Q 5.8125 33.546875 5.8125 39.890625 
Q 5.8125 47.609375 11.28125 51.796875 
Q 16.75 56 26.8125 56 
Q 31.78125 56 36.171875 55.265625 
Q 40.578125 54.546875 44.28125 53.078125 
z
" id="DejaVuSans-115"/>
       <path d="M 8.015625 75.875 
L 15.828125 75.875 
Q 23.140625 64.359375 26.78125 53.3125 
Q 30.421875 42.28125 30.421875 31.390625 
Q 30.421875 20.453125 26.78125 9.375 
Q 23.140625 -1.703125 15.828125 -13.1875 
L 8.015625 -13.1875 
Q 14.5 -2 17.703125 9.0625 
Q 20.90625 20.125 20.90625 31.390625 
Q 20.90625 42.671875 17.703125 53.65625 
Q 14.5 64.65625 8.015625 75.875 
z
" id="DejaVuSans-41"/>
      </defs>
      <use xlink:href="#DejaVuSans-84"/>
      <use x="57.958984" xlink:href="#DejaVuSans-105"/>
      <use x="85.742188" xlink:href="#DejaVuSans-109"/>
      <use x="183.154297" xlink:href="#DejaVuSans-101"/>
      <use x="244.677734" xlink:href="#DejaVuSans-32"/>
      <use x="276.464844" xlink:href="#DejaVuSans-40"/>
      <use x="315.478516" xlink:href="#DejaVuSans-115"/>
      <use x="367.578125" xlink:href="#DejaVuSans-41"/>
     </g>
    </g>
   </g>
   <g id="matplotlib.axis_2">
    <g id="ytick_1">
     <g id="line2d_13">
      <path clip-path="url(#p74acbf321d)" d="M 54 299.648473 
L 388.8 299.648473 
" style="fill:none;stroke:#b0b0b0;stroke-linecap:square;stroke-width:0.8;"/>
     </g>
     <g id="line2d_14">
      <defs>
       <path d="M 0 0 
L -3.5 0 
" id="m9934aee74b" style="stroke:#000000;stroke-width:0.8;"/>
      </defs>
      <g>
       <use style="stroke:#000000;stroke-width:0.8;" x="54" xlink:href="#m9934aee74b" y="299.648473"/>
      </g>
     </g>
     <g id="text_8">
      <!-- −0.015 -->
      <g transform="translate(9.992188 303.447692)scale(0.1 -0.1)">
       <defs>
        <path d="M 10.59375 35.5 
L 73.1875 35.5 
L 73.1875 27.203125 
L 10.59375 27.203125 
z
" id="DejaVuSans-8722"/>
        <path d="M 10.6875 12.40625 
L 21 12.40625 
L 21 0 
L 10.6875 0 
z
" id="DejaVuSans-46"/>
        <path d="M 10.796875 72.90625 
L 49.515625 72.90625 
L 49.515625 64.59375 
L 19.828125 64.59375 
L 19.828125 46.734375 
Q 21.96875 47.46875 24.109375 47.828125 
Q 26.265625 48.1875 28.421875 48.1875 
Q 40.625 48.1875 47.75 41.5 
Q 54.890625 34.8125 54.890625 23.390625 
Q 54.890625 11.625 47.5625 5.09375 
Q 40.234375 -1.421875 26.90625 -1.421875 
Q 22.3125 -1.421875 17.546875 -0.640625 
Q 12.796875 0.140625 7.71875 1.703125 
L 7.71875 11.625 
Q 12.109375 9.234375 16.796875 8.0625 
Q 21.484375 6.890625 26.703125 6.890625 
Q 35.15625 6.890625 40.078125 11.328125 
Q 45.015625 15.765625 45.015625 23.390625 
Q 45.015625 31 40.078125 35.4375 
Q 35.15625 39.890625 26.703125 39.890625 
Q 22.75 39.890625 18.8125 39.015625 
Q 14.890625 38.140625 10.796875 36.28125 
z
" id="DejaVuSans-53"/>
       </defs>
       <use xlink:href="#DejaVuSans-8722"/>
       <use x="83.789062" xlink:href="#DejaVuSans-48"/>
       <use x="147.412109" xlink:href="#DejaVuSans-46"/>
       <use x="179.199219" xlink:href="#DejaVuSans-48"/>
       <use x="242.822266" xlink:href="#DejaVuSans-49"/>
       <use x="306.445312" xlink:href="#DejaVuSans-53"/>
      </g>
     </g>
    </g>
    <g id="ytick_2">
     <g id="line2d_15">
      <path clip-path="url(#p74acbf321d)" d="M 54 264.591068 
L 388.8 264.591068 
" style="fill:none;stroke:#b0b0b0;stroke-linecap:square;stroke-width:0.8;"/>
     </g>
     <g id="line2d_16">
      <g>
       <use style="stroke:#000000;stroke-width:0.8;" x="54" xlink:href="#m9934aee74b" y="264.591068"/>
      </g>
     </g>
     <g id="text_9">
      <!-- −0.010 -->
      <g transform="translate(9.992188 268.390286)scale(0.1 -0.1)">
       <use xlink:href="#DejaVuSans-8722"/>
       <use x="83.789062" xlink:href="#DejaVuSans-48"/>
       <use x="147.412109" xlink:href="#DejaVuSans-46"/>
       <use x="179.199219" xlink:href="#DejaVuSans-48"/>
       <use x="242.822266" xlink:href="#DejaVuSans-49"/>
       <use x="306.445312" xlink:href="#DejaVuSans-48"/>
      </g>
     </g>
    </g>
    <g id="ytick_3">
     <g id="line2d_17">
      <path clip-path="url(#p74acbf321d)" d="M 54 229.533662 
L 388.8 229.533662 
" style="fill:none;stroke:#b0b0b0;stroke-linecap:square;stroke-width:0.8;"/>
     </g>
     <g id="line2d_18">
      <g>
       <use style="stroke:#000000;stroke-width:0.8;" x="54" xlink:href="#m9934aee74b" y="229.533662"/>
      </g>
     </g>
     <g id="text_10">
      <!-- −0.005 -->
      <g transform="translate(9.992188 233.33288)scale(0.1 -0.1)">
       <use xlink:href="#DejaVuSans-8722"/>
       <use x="83.789062" xlink:href="#DejaVuSans-48"/>
       <use x="147.412109" xlink:href="#DejaVuSans-46"/>
       <use x="179.199219" xlink:href="#DejaVuSans-48"/>
       <use x="242.822266" xlink:href="#DejaVuSans-48"/>
       <use x="306.445312" xlink:href="#DejaVuSans-53"/>
      </g>
     </g>
    </g>
    <g id="ytick_4">
     <g id="line2d_19">
      <path clip-path="url(#p74acbf321d)" d="M 54 194.476256 
L 388.8 194.476256 
" style="fill:none;stroke:#b0b0b0;stroke-linecap:square;stroke-width:0.8;"/>
     </g>
     <g id="line2d_20">
      <g>
       <use style="stroke:#000000;stroke-width:0.8;" x="54" xlink:href="#m9934aee74b" y="194.476256"/>
      </g>
     </g>
     <g id="text_11">
      <!-- 0.000 -->
      <g transform="translate(18.371875 198.275475)scale(0.1 -0.1)">
       <use xlink:href="#DejaVuSans-48"/>
       <use x="63.623047" xlink:href="#DejaVuSans-46"/>
       <use x="95.410156" xlink:href="#DejaVuSans-48"/>
       <use x="159.033203" xlink:href="#DejaVuSans-48"/>
       <use x="222.65625" xlink:href="#DejaVuSans-48"/>
      </g>
     </g>
    </g>
    <g id="ytick_5">
     <g id="line2d_21">
      <path clip-path="url(#p74acbf321d)" d="M 54 159.41885 
L 388.8 159.41885 
" style="fill:none;stroke:#b0b0b0;stroke-linecap:square;stroke-width:0.8;"/>
     </g>
     <g id="line2d_22">
      <g>
       <use style="stroke:#000000;stroke-width:0.8;" x="54" xlink:href="#m9934aee74b" y="159.41885"/>
      </g>
     </g>
     <g id="text_12">
      <!-- 0.005 -->
      <g transform="translate(18.371875 163.218069)scale(0.1 -0.1)">
       <use xlink:href="#DejaVuSans-48"/>
       <use x="63.623047" xlink:href="#DejaVuSans-46"/>
       <use x="95.410156" xlink:href="#DejaVuSans-48"/>
       <use x="159.033203" xlink:href="#DejaVuSans-48"/>
       <use x="222.65625" xlink:href="#DejaVuSans-53"/>
      </g>
     </g>
    </g>
    <g id="ytick_6">
     <g id="line2d_23">
      <path clip-path="url(#p74acbf321d)" d="M 54 124.361444 
L 388.8 124.361444 
" style="fill:none;stroke:#b0b0b0;stroke-linecap:square;stroke-width:0.8;"/>
     </g>
     <g id="line2d_24">
      <g>
       <use style="stroke:#000000;stroke-width:0.8;" x="54" xlink:href="#m9934aee74b" y="124.361444"/>
      </g>
     </g>
     <g id="text_13">
      <!-- 0.010 -->
      <g transform="translate(18.371875 128.160663)scale(0.1 -0.1)">
       <use xlink:href="#DejaVuSans-48"/>
       <use x="63.623047" xlink:href="#DejaVuSans-46"/>
       <use x="95.410156" xlink:href="#DejaVuSans-48"/>
       <use x="159.033203" xlink:href="#DejaVuSans-49"/>
       <use x="222.65625" xlink:href="#DejaVuSans-48"/>
      </g>
     </g>
    </g>
    <g id="ytick_7">
     <g id="line2d_25">
      <path clip-path="url(#p74acbf321d)" d="M 54 89.304038 
L 388.8 89.304038 
" style="fill:none;stroke:#b0b0b0;stroke-linecap:square;stroke-width:0.8;"/>
     </g>
     <g id="line2d_26">
      <g>
       <use style="stroke:#000000;stroke-width:0.8;" x="54" xlink:href="#m9934aee74b" y="89.304038"/>
      </g>
     </g>
     <g id="text_14">
      <!-- 0.015 -->
      <g transform="translate(18.371875 93.103257)scale(0.1 -0.1)">
       <use xlink:href="#DejaVuSans-48"/>
       <use x="63.623047" xlink:href="#DejaVuSans-46"/>
       <use x="95.410156" xlink:href="#DejaVuSans-48"/>
       <use x="159.033203" xlink:href="#DejaVuSans-49"/>
       <use x="222.65625" xlink:href="#DejaVuSans-53"/>
      </g>
     </g>
    </g>
    <g id="ytick_8">
     <g id="line2d_27">
      <path clip-path="url(#p74acbf321d)" d="M 54 54.246633 
L 388.8 54.246633 
" style="fill:none;stroke:#b0b0b0;stroke-linecap:square;stroke-width:0.8;"/>
     </g>
     <g id="line2d_28">
      <g>
       <use style="stroke:#000000;stroke-width:0.8;" x="54" xlink:href="#m9934aee74b" y="54.246633"/>
      </g>
     </g>
     <g id="text_15">
      <!-- 0.020 -->
      <g transform="translate(18.371875 58.045851)scale(0.1 -0.1)">
       <use xlink:href="#DejaVuSans-48"/>
       <use x="63.623047" xlink:href="#DejaVuSans-46"/>
       <use x="95.410156" xlink:href="#DejaVuSans-48"/>
       <use x="159.033203" xlink:href="#DejaVuSans-50"/>
       <use x="222.65625" xlink:href="#DejaVuSans-48"/>
      </g>
     </g>
    </g>
   </g>
   <g id="line2d_29">
    <path clip-path="url(#p74acbf321d)" d="M 69.218182 194.476779 
L 99.685012 194.476779 
L 99.989681 192.905188 
L 100.294349 188.211295 
L 100.599017 180.457288 
L 101.208354 156.217049 
L 102.427027 101.504076 
L 103.036364 80.717216 
L 103.6457 65.781155 
L 104.255037 57.404244 
L 104.559705 55.8 
L 104.864373 55.938862 
L 105.169042 57.807035 
L 105.47371 61.367887 
L 106.083047 73.311186 
L 106.692383 91.051488 
L 107.606388 126.253838 
L 110.95774 272.267989 
L 111.567076 289.606282 
L 112.176413 301.436074 
L 112.481081 305.110024 
L 112.785749 307.236252 
L 113.090418 307.8 
L 113.395086 306.807041 
L 113.699754 304.283439 
L 114.309091 294.846789 
L 114.918428 280.079345 
L 115.832432 249.869737 
L 117.355774 187.781966 
L 118.879115 128.879663 
L 119.79312 103.049971 
L 120.402457 91.724397 
L 120.707125 88.0525 
L 121.011794 85.765577 
L 121.316462 84.883729 
L 121.62113 85.408311 
L 121.925799 87.322049 
L 122.230467 90.589414 
L 122.839803 100.955578 
L 123.44914 115.886617 
L 124.363145 144.931916 
L 127.714496 261.557986 
L 128.323833 274.816153 
L 128.93317 283.541603 
L 129.237838 286.075605 
L 129.542506 287.354072 
L 129.847174 287.370436 
L 130.151843 286.134695 
L 130.456511 283.673153 
L 131.065848 275.256372 
L 131.675184 262.633827 
L 132.589189 237.447294 
L 136.245209 125.607872 
L 136.854545 115.044972 
L 137.463882 108.699315 
L 137.76855 107.20154 
L 138.073219 106.840561 
L 138.377887 107.612568 
L 138.682555 109.498804 
L 139.291892 116.466596 
L 139.901229 127.313581 
L 140.815233 149.440885 
L 142.338575 194.815998 
L 143.861916 237.818326 
L 144.775921 256.701528 
L 145.385258 265.016145 
L 145.689926 267.731202 
L 145.994595 269.44332 
L 146.299263 270.138055 
L 146.603931 269.814404 
L 146.9086 268.484711 
L 147.213268 266.174403 
L 147.822604 258.776292 
L 148.431941 248.064718 
L 149.345946 227.156929 
L 152.697297 142.803424 
L 153.306634 133.189457 
L 153.915971 126.865356 
L 154.220639 125.032389 
L 154.525307 124.112643 
L 154.829975 124.11129 
L 155.134644 125.021335 
L 155.439312 126.823803 
L 156.048649 132.972435 
L 156.657985 142.182639 
L 157.57199 160.546108 
L 161.22801 242.014998 
L 161.837346 249.728879 
L 162.446683 254.387417 
L 162.751351 255.503457 
L 163.05602 255.796144 
L 163.360688 255.268146 
L 163.665356 253.932871 
L 164.274693 248.946114 
L 164.884029 241.14475 
L 165.798034 225.18401 
L 167.321376 192.362919 
L 168.844717 161.179532 
L 169.758722 147.463743 
L 170.368059 141.419566 
L 170.672727 139.445109 
L 170.977396 138.199749 
L 171.282064 137.694322 
L 171.586732 137.929817 
L 171.8914 138.89744 
L 172.196069 140.578808 
L 172.805405 145.963307 
L 173.414742 153.759457 
L 174.328747 168.974965 
L 177.680098 230.347726 
L 178.289435 237.353431 
L 178.898771 241.974984 
L 179.20344 243.322796 
L 179.508108 244.008974 
L 179.812776 244.029726 
L 180.117445 243.39002 
L 180.422113 242.103448 
L 181.03145 237.685631 
L 181.640786 231.045595 
L 182.554791 217.777729 
L 184.382801 185.686596 
L 185.601474 166.269051 
L 186.515479 155.635857 
L 187.124816 151.109632 
L 187.429484 149.703221 
L 187.734152 148.889336 
L 188.038821 148.674149 
L 188.343489 149.055893 
L 188.648157 150.024941 
L 189.257494 153.648381 
L 189.86683 159.31992 
L 190.780835 170.925563 
L 192.304177 194.790585 
L 193.827518 217.466479 
L 194.741523 227.449075 
L 195.35086 231.857099 
L 195.960197 234.218168 
L 196.264865 234.598233 
L 196.569533 234.441253 
L 196.874201 233.753508 
L 197.17887 232.548199 
L 197.788206 228.670832 
L 198.397543 223.042398 
L 199.311548 212.038296 
L 202.662899 167.524745 
L 203.272236 162.431132 
L 203.881572 159.0679 
L 204.186241 158.085782 
L 204.490909 157.584522 
L 204.795577 157.567023 
L 205.100246 158.029788 
L 205.404914 158.963017 
L 206.014251 162.171301 
L 206.623587 166.996152 
L 207.537592 176.639536 
L 209.365602 199.966788 
L 210.584275 214.085402 
L 211.49828 221.824272 
L 212.107617 225.125685 
L 212.412285 226.155352 
L 212.716953 226.755477 
L 213.021622 226.92155 
L 213.32629 226.654797 
L 213.630958 225.96212 
L 214.240295 223.35409 
L 214.849631 219.259277 
L 215.763636 210.864807 
L 217.286978 193.572801 
L 218.810319 177.115392 
L 219.724324 169.861273 
L 220.333661 166.65505 
L 220.942998 164.935267 
L 221.247666 164.656993 
L 221.552334 164.769073 
L 221.857002 165.267019 
L 222.161671 166.141293 
L 222.771007 168.956488 
L 223.380344 173.045207 
L 224.294349 181.041247 
L 227.6457 213.40016 
L 228.255037 217.108723 
L 228.864373 219.562651 
L 229.169042 220.282428 
L 229.47371 220.653523 
L 229.778378 220.673796 
L 230.083047 220.345731 
L 230.387715 219.676371 
L 230.997052 217.363895 
L 231.606388 213.877578 
L 232.520393 206.898701 
L 234.348403 189.988569 
L 235.567076 179.739171 
L 236.481081 174.1156 
L 237.090418 171.714341 
L 237.395086 170.964633 
L 237.699754 170.52694 
L 238.004423 170.404618 
L 238.309091 170.596845 
L 238.613759 171.09866 
L 239.223096 172.991169 
L 239.832432 175.964728 
L 240.746437 182.06293 
L 242.269779 194.628262 
L 243.79312 206.591766 
L 244.707125 211.869965 
L 245.316462 214.206888 
L 245.925799 215.465862 
L 246.230467 215.673519 
L 246.535135 215.598023 
L 246.839803 215.242584 
L 247.144472 214.614069 
L 247.753808 212.582779 
L 248.363145 209.626527 
L 249.27715 203.837411 
L 252.628501 180.361431 
L 253.237838 177.666129 
L 253.847174 175.881255 
L 254.151843 175.35707 
L 254.456511 175.086144 
L 254.761179 175.07009 
L 255.065848 175.307151 
L 255.370516 175.792249 
L 255.979853 177.470249 
L 256.589189 180.001636 
L 257.503194 185.070812 
L 259.331204 197.35802 
L 260.549877 204.809233 
L 261.463882 208.901507 
L 262.073219 210.652272 
L 262.682555 211.522623 
L 262.987224 211.615855 
L 263.291892 211.480873 
L 263.59656 211.121237 
L 264.205897 209.75677 
L 264.815233 207.607257 
L 265.729238 203.192451 
L 267.25258 194.083557 
L 268.775921 185.400554 
L 269.689926 181.566068 
L 270.299263 179.867004 
L 270.9086 178.950448 
L 271.213268 178.798518 
L 271.517936 178.852279 
L 271.822604 179.109436 
L 272.431941 180.211528 
L 273.041278 182.034989 
L 273.955283 185.881383 
L 275.173956 192.307046 
L 277.001966 201.922985 
L 277.915971 205.510419 
L 278.525307 207.151947 
L 279.134644 208.099635 
L 279.439312 208.299695 
L 279.74398 208.314831 
L 280.048649 208.14629 
L 280.353317 207.797726 
L 280.962654 206.586739 
L 281.57199 204.75592 
L 282.485995 201.084875 
L 284.314005 192.174859 
L 285.532678 186.765765 
L 286.446683 183.792699 
L 287.05602 182.519697 
L 287.665356 181.885814 
L 287.970025 181.817193 
L 288.274693 181.914344 
L 288.579361 182.174707 
L 289.188698 183.164258 
L 289.798034 184.724379 
L 290.712039 187.930116 
L 292.235381 194.547165 
L 293.758722 200.858339 
L 294.672727 203.648126 
L 295.282064 204.886252 
L 295.8914 205.55673 
L 296.196069 205.669699 
L 296.500737 205.633402 
L 296.805405 205.449485 
L 297.414742 204.654949 
L 298.024079 203.336533 
L 298.938084 200.55131 
L 300.156757 195.893184 
L 301.984767 188.914905 
L 302.898771 186.309079 
L 303.508108 185.115864 
L 304.117445 184.426213 
L 304.422113 184.280165 
L 304.726781 184.268415 
L 305.03145 184.39008 
L 305.640786 185.021413 
L 306.250123 186.133128 
L 307.164128 188.552333 
L 308.382801 192.68809 
L 310.210811 199.026513 
L 311.124816 201.457137 
L 311.734152 202.602684 
L 312.343489 203.302468 
L 312.952826 203.526893 
L 313.257494 203.458507 
L 313.86683 202.9697 
L 314.476167 202.041434 
L 315.085504 200.729035 
L 315.999509 198.207464 
L 319.046192 188.972051 
L 319.960197 187.201824 
L 320.569533 186.50391 
L 321.17887 186.230411 
L 321.788206 186.389076 
L 322.397543 186.964949 
L 323.00688 187.921497 
L 323.920885 189.943378 
L 325.444226 194.220246 
L 326.967568 198.397432 
L 327.881572 200.292927 
L 328.490909 201.16205 
L 329.100246 201.665848 
L 329.709582 201.783701 
L 330.318919 201.515466 
L 330.928256 200.881164 
L 331.537592 199.919627 
L 332.451597 197.988517 
L 336.107617 189.322444 
L 336.716953 188.489847 
L 337.32629 187.980717 
L 337.935627 187.816675 
L 338.544963 188.000971 
L 339.1543 188.518599 
L 339.763636 189.337364 
L 340.677641 191.022873 
L 342.200983 194.507718 
L 343.724324 197.836894 
L 344.638329 199.311167 
L 345.247666 199.966934 
L 345.857002 200.323785 
L 346.466339 200.367736 
L 347.075676 200.101363 
L 347.685012 199.54341 
L 348.599017 198.237058 
L 349.81769 195.890278 
L 351.950369 191.566909 
L 352.864373 190.190028 
L 353.47371 189.558248 
L 354.083047 189.191578 
L 354.692383 189.10509 
L 355.30172 189.298979 
L 355.911057 189.758787 
L 356.825061 190.882216 
L 358.043735 192.954152 
L 360.481081 197.342581 
L 361.395086 198.485977 
L 362.004423 198.977649 
L 362.613759 199.225127 
L 363.223096 199.219285 
L 363.832432 198.964372 
L 364.441769 198.477578 
L 365.355774 197.378961 
L 366.574447 195.452462 
L 368.707125 191.990448 
L 369.62113 190.919434 
L 370.230467 190.442663 
L 370.839803 190.18282 
L 371.44914 190.150136 
L 372.058477 190.342811 
L 372.667813 190.747297 
L 373.581818 191.69516 
L 373.581818 191.69516 
" style="fill:none;stroke:#d9524f;stroke-linecap:square;stroke-width:1.5;"/>
   </g>
   <g id="line2d_30">
    <path clip-path="url(#p74acbf321d)" d="M 69.218182 194.476256 
L 99.685012 194.476256 
L 101.208354 189.739531 
L 101.513022 189.831151 
L 102.122359 190.392118 
L 103.036364 191.610153 
L 104.255037 193.688517 
L 106.083047 196.861587 
L 106.997052 198.069774 
L 107.606388 198.634304 
L 108.215725 198.973688 
L 108.825061 199.073885 
L 109.434398 198.933658 
L 110.043735 198.564367 
L 110.95774 197.634317 
L 112.176413 195.888883 
L 114.613759 192.120225 
L 115.527764 191.112603 
L 116.137101 190.667099 
L 116.746437 190.427979 
L 117.355774 190.404733 
L 117.965111 190.595476 
L 118.574447 190.987165 
L 119.488452 191.897764 
L 120.707125 193.526275 
L 122.839803 196.509068 
L 123.753808 197.450741 
L 124.667813 198.024457 
L 125.27715 198.171795 
L 125.886486 198.124205 
L 126.495823 197.887411 
L 127.409828 197.213791 
L 128.323833 196.239164 
L 131.979853 191.9073 
L 132.893857 191.348619 
L 133.503194 191.184011 
L 134.112531 191.194153 
L 134.721867 191.375981 
L 135.635872 191.94212 
L 136.549877 192.791755 
L 138.682555 195.250824 
L 139.901229 196.480385 
L 140.815233 197.118519 
L 141.729238 197.434099 
L 142.338575 197.449275 
L 143.25258 197.183629 
L 144.166585 196.60986 
L 145.385258 195.497541 
L 148.127273 192.767381 
L 149.041278 192.164062 
L 149.955283 191.843762 
L 150.869287 191.837475 
L 151.783292 192.139039 
L 152.697297 192.706533 
L 153.915971 193.748953 
L 156.353317 195.945636 
L 157.267322 196.513417 
L 158.181327 196.830656 
L 159.095332 196.866407 
L 160.009337 196.623332 
L 160.923342 196.136464 
L 162.142015 195.219005 
L 164.884029 193.032867 
L 165.798034 192.568095 
L 166.712039 192.336123 
L 167.626044 192.358755 
L 168.540049 192.627711 
L 169.758722 193.302306 
L 171.8914 194.89907 
L 173.414742 195.886778 
L 174.328747 196.261009 
L 175.242752 196.418655 
L 176.156757 196.346545 
L 177.070762 196.058601 
L 178.289435 195.408724 
L 181.945455 193.123277 
L 182.859459 192.827149 
L 183.773464 192.729847 
L 184.687469 192.838248 
L 185.906143 193.269792 
L 187.429484 194.122329 
L 189.86683 195.525716 
L 191.085504 195.940036 
L 191.999509 196.047587 
L 192.913514 195.969739 
L 194.132187 195.603766 
L 195.655528 194.852653 
L 198.092875 193.57832 
L 199.311548 193.1845 
L 200.530221 193.06704 
L 201.748894 193.241688 
L 202.967568 193.66394 
L 207.537592 195.618496 
L 208.756265 195.74574 
L 209.974939 195.609407 
L 211.193612 195.245685 
L 213.630958 194.189164 
L 215.1543 193.623625 
L 216.372973 193.374979 
L 217.591646 193.359332 
L 218.810319 193.572874 
L 220.333661 194.081378 
L 223.685012 195.294433 
L 224.903686 195.484614 
L 226.122359 195.462635 
L 227.341032 195.239649 
L 229.169042 194.65012 
L 231.606388 193.837904 
L 233.12973 193.578391 
L 234.348403 193.581475 
L 235.871744 193.838434 
L 238.004423 194.487529 
L 240.137101 195.095622 
L 241.660442 195.295754 
L 243.183784 195.229859 
L 244.707125 194.929052 
L 249.27715 193.796233 
L 250.800491 193.742148 
L 252.323833 193.921746 
L 254.456511 194.43058 
L 256.893857 194.99301 
L 258.417199 195.141324 
L 259.940541 195.07429 
L 261.76855 194.755432 
L 265.729238 193.947668 
L 267.25258 193.877643 
L 269.08059 194.043357 
L 271.822604 194.590023 
L 273.955283 194.941485 
L 275.783292 195.009731 
L 277.611302 194.836576 
L 283.704668 193.991063 
L 285.532678 194.101985 
L 288.579361 194.584663 
L 291.016708 194.881618 
L 292.844717 194.891765 
L 294.977396 194.673693 
L 299.54742 194.102212 
L 301.680098 194.132297 
L 304.422113 194.451138 
L 307.468796 194.792447 
L 309.601474 194.807637 
L 312.038821 194.587831 
L 316.304177 194.170767 
L 318.436855 194.204226 
L 321.788206 194.535399 
L 324.834889 194.755931 
L 327.272236 194.689302 
L 334.584275 194.235721 
L 337.630958 194.450124 
L 341.591646 194.703614 
L 344.333661 194.623715 
L 351.036364 194.277144 
L 354.387715 194.462488 
L 358.348403 194.660816 
L 361.395086 194.572931 
L 367.488452 194.312478 
L 371.144472 194.471065 
L 373.581818 194.595178 
L 373.581818 194.595178 
" style="fill:none;stroke:#5cb85c;stroke-linecap:square;stroke-width:1.5;"/>
   </g>
   <g id="line2d_31">
    <path clip-path="url(#p74acbf321d)" d="M 69.218182 194.476312 
L 100.903686 194.555676 
L 101.81769 194.883358 
L 102.731695 195.500737 
L 103.950369 196.640619 
L 106.387715 199.04152 
L 107.30172 199.653739 
L 108.215725 199.987135 
L 109.12973 200.010629 
L 110.043735 199.730674 
L 110.95774 199.188213 
L 112.176413 198.178271 
L 114.918428 195.766559 
L 115.832432 195.23788 
L 116.746437 194.956162 
L 117.660442 194.947911 
L 118.574447 195.20759 
L 119.488452 195.697866 
L 121.011794 196.842202 
L 122.839803 198.250508 
L 124.058477 198.892213 
L 124.972482 199.114938 
L 125.886486 199.088476 
L 126.800491 198.820484 
L 128.019165 198.151544 
L 129.847174 196.784836 
L 131.370516 195.700638 
L 132.589189 195.104008 
L 133.503194 194.889895 
L 134.417199 194.898285 
L 135.331204 195.121309 
L 136.549877 195.692062 
L 140.510565 197.949853 
L 141.42457 198.16833 
L 142.338575 198.188354 
L 143.25258 198.010254 
L 144.471253 197.507704 
L 146.299263 196.417098 
L 148.127273 195.356354 
L 149.345946 194.892044 
L 150.259951 194.736274 
L 151.173956 194.760851 
L 152.392629 195.055704 
L 153.915971 195.73012 
L 156.657985 197.040923 
L 157.876658 197.35232 
L 159.095332 197.386513 
L 160.314005 197.140558 
L 161.837346 196.526122 
L 165.493366 194.860197 
L 166.712039 194.619759 
L 167.930713 194.635297 
L 169.149386 194.891677 
L 170.977396 195.576264 
L 173.414742 196.494656 
L 174.633415 196.730208 
L 175.852088 196.740212 
L 177.070762 196.525815 
L 178.594103 196.017021 
L 181.945455 194.763093 
L 183.164128 194.536963 
L 184.382801 194.515563 
L 185.601474 194.693628 
L 187.429484 195.224799 
L 190.171499 196.059579 
L 191.69484 196.253485 
L 192.913514 196.20094 
L 194.436855 195.897498 
L 199.920885 194.457712 
L 201.444226 194.480709 
L 202.967568 194.73887 
L 207.84226 195.830853 
L 209.365602 195.834918 
L 210.888943 195.616912 
L 213.630958 194.924578 
L 215.763636 194.490964 
L 217.286978 194.397439 
L 218.810319 194.511849 
L 220.942998 194.91956 
L 223.685012 195.449758 
L 225.513022 195.553395 
L 227.341032 195.391 
L 230.083047 194.84393 
L 232.520393 194.441831 
L 234.348403 194.38634 
L 236.176413 194.562058 
L 241.660442 195.313754 
L 243.488452 195.241153 
L 245.925799 194.88621 
L 248.972482 194.438081 
L 250.800491 194.371939 
L 252.93317 194.531655 
L 258.417199 195.130509 
L 260.549877 195.03658 
L 264.510565 194.529729 
L 266.947912 194.370278 
L 269.08059 194.455028 
L 276.087961 194.974329 
L 278.829975 194.755619 
L 283.095332 194.384206 
L 285.532678 194.431073 
L 293.149386 194.851773 
L 296.500737 194.597298 
L 299.852088 194.388276 
L 302.594103 194.450725 
L 309.601474 194.775983 
L 313.257494 194.557619 
L 316.913514 194.39255 
L 319.960197 194.484785 
L 325.748894 194.71936 
L 329.404914 194.565322 
L 333.974939 194.402454 
L 337.935627 194.542558 
L 342.505651 194.666197 
L 346.771007 194.509412 
L 351.036364 194.414816 
L 356.520393 194.596136 
L 360.481081 194.602867 
L 369.62113 194.460601 
L 373.581818 194.578598 
L 373.581818 194.578598 
" style="fill:none;stroke:#337ab7;stroke-linecap:square;stroke-width:1.5;"/>
   </g>
   <g id="line2d_32">
    <path clip-path="url(#p74acbf321d)" d="M 69.218182 194.476591 
L 100.294349 194.413897 
L 100.599017 194.267263 
L 100.903686 193.986173 
L 101.208354 193.531065 
L 101.81769 192.012183 
L 102.427027 189.764033 
L 103.341032 185.38654 
L 106.083047 171.245417 
L 106.692383 169.132721 
L 107.30172 167.723772 
L 107.606388 167.312079 
L 107.911057 167.105665 
L 108.215725 167.108618 
L 108.520393 167.322197 
L 108.825061 167.74483 
L 109.434398 169.197078 
L 110.043735 171.398523 
L 110.95774 175.864333 
L 112.481081 185.128297 
L 114.004423 194.228033 
L 114.918428 198.482068 
L 115.527764 200.532321 
L 116.137101 201.851976 
L 116.441769 202.222572 
L 116.746437 202.397298 
L 117.051106 202.377074 
L 117.355774 202.165351 
L 117.965111 201.193412 
L 118.574447 199.556287 
L 119.488452 196.096576 
L 121.011794 188.866437 
L 122.230467 183.233556 
L 123.144472 179.910584 
L 123.753808 178.356511 
L 124.363145 177.430499 
L 124.667813 177.219077 
L 124.972482 177.179457 
L 125.27715 177.311843 
L 125.581818 177.614156 
L 126.191155 178.709138 
L 126.800491 180.404506 
L 127.714496 183.867558 
L 129.237838 191.029208 
L 130.761179 197.945108 
L 131.675184 201.077371 
L 132.284521 202.520423 
L 132.893857 203.370452 
L 133.198526 203.562325 
L 133.503194 203.597154 
L 133.807862 203.476311 
L 134.417199 202.78317 
L 135.026536 201.533125 
L 135.940541 198.791663 
L 137.159214 194.098717 
L 138.987224 186.948078 
L 139.901229 184.245704 
L 140.510565 182.998472 
L 141.119902 182.269662 
L 141.42457 182.111135 
L 141.729238 182.092329 
L 142.033907 182.212781 
L 142.643243 182.860496 
L 143.25258 184.014856 
L 144.166585 186.546971 
L 145.385258 190.912731 
L 147.213268 197.691457 
L 148.127273 200.341251 
L 148.736609 201.618742 
L 149.345946 202.433245 
L 149.955283 202.75126 
L 150.259951 202.72085 
L 150.869287 202.289264 
L 151.478624 201.392717 
L 152.087961 200.086992 
L 153.001966 197.532292 
L 156.353317 187.241501 
L 156.962654 186.078904 
L 157.57199 185.321884 
L 158.181327 185.004908 
L 158.485995 185.015803 
L 159.095332 185.37205 
L 159.704668 186.151567 
L 160.314005 187.308228 
L 161.22801 189.603377 
L 164.884029 199.749976 
L 165.493366 200.711158 
L 166.102703 201.293236 
L 166.712039 201.472495 
L 167.321376 201.246664 
L 167.930713 200.634663 
L 168.540049 199.675255 
L 169.454054 197.711771 
L 170.977396 193.67809 
L 172.500737 189.855 
L 173.414742 188.179917 
L 174.024079 187.446029 
L 174.633415 187.060623 
L 175.242752 187.039021 
L 175.852088 187.377321 
L 176.461425 188.052869 
L 177.37543 189.606942 
L 178.594103 192.369569 
L 180.726781 197.412526 
L 181.640786 199.004345 
L 182.250123 199.728993 
L 182.859459 200.143425 
L 183.468796 200.231224 
L 184.078133 199.993312 
L 184.687469 199.447615 
L 185.296806 198.627832 
L 186.210811 196.991152 
L 189.86683 189.728036 
L 190.476167 189.042984 
L 191.085504 188.631924 
L 191.69484 188.512406 
L 192.304177 188.686497 
L 192.913514 189.140897 
L 193.52285 189.847851 
L 194.436855 191.290167 
L 196.264865 194.855263 
L 197.483538 197.05892 
L 198.397543 198.294102 
L 199.00688 198.83893 
L 199.616216 199.130203 
L 200.225553 199.156893 
L 200.834889 198.92198 
L 201.444226 198.442062 
L 202.358231 197.329518 
L 203.576904 195.344617 
L 205.709582 191.715981 
L 206.623587 190.571336 
L 207.232924 190.051505 
L 207.84226 189.756188 
L 208.451597 189.697541 
L 209.060934 189.87518 
L 209.67027 190.276383 
L 210.584275 191.241595 
L 211.802948 193.006089 
L 214.240295 196.712131 
L 215.1543 197.668698 
L 215.763636 198.076152 
L 216.372973 198.276641 
L 216.98231 198.263074 
L 217.591646 198.039659 
L 218.200983 197.621501 
L 219.114988 196.686242 
L 220.333661 195.056905 
L 222.466339 192.15098 
L 223.380344 191.260776 
L 224.294349 190.741084 
L 224.903686 190.628391 
L 225.513022 190.707812 
L 226.122359 190.972373 
L 227.036364 191.677786 
L 228.255037 193.044172 
L 230.997052 196.394819 
L 231.911057 197.133564 
L 232.825061 197.524614 
L 233.434398 197.571952 
L 234.043735 197.447639 
L 234.95774 196.961937 
L 235.871744 196.178241 
L 237.395086 194.487263 
L 239.223096 192.520058 
L 240.137101 191.829933 
L 241.051106 191.445597 
L 241.660442 191.379698 
L 242.269779 191.468617 
L 243.183784 191.875004 
L 244.097789 192.557691 
L 245.62113 194.067433 
L 247.44914 195.869126 
L 248.363145 196.521105 
L 249.27715 196.903921 
L 250.191155 196.979507 
L 251.10516 196.746483 
L 252.019165 196.239434 
L 253.237838 195.254072 
L 255.979853 192.834214 
L 256.893857 192.300946 
L 257.807862 192.019571 
L 258.721867 192.017268 
L 259.635872 192.288104 
L 260.549877 192.794472 
L 262.073219 193.978792 
L 264.205897 195.674945 
L 265.119902 196.180229 
L 266.033907 196.46342 
L 266.947912 196.496895 
L 267.861916 196.282763 
L 268.775921 195.851916 
L 270.299263 194.810858 
L 272.431941 193.277156 
L 273.650614 192.69062 
L 274.564619 192.487114 
L 275.478624 192.509816 
L 276.392629 192.751035 
L 277.611302 193.352478 
L 281.876658 195.892421 
L 282.790663 196.099879 
L 283.704668 196.104655 
L 284.618673 195.911052 
L 285.837346 195.394392 
L 287.970025 194.131105 
L 289.493366 193.327581 
L 290.712039 192.944283 
L 291.626044 192.859951 
L 292.540049 192.958247 
L 293.758722 193.343721 
L 295.282064 194.102497 
L 297.71941 195.349773 
L 298.938084 195.718202 
L 300.156757 195.809446 
L 301.37543 195.613644 
L 302.594103 195.179971 
L 306.859459 193.343861 
L 308.078133 193.176901 
L 309.296806 193.271003 
L 310.515479 193.599127 
L 312.343489 194.35904 
L 314.476167 195.216847 
L 315.69484 195.497629 
L 316.913514 195.552034 
L 318.132187 195.376101 
L 319.655528 194.901971 
L 323.311548 193.607196 
L 324.530221 193.437698 
L 325.748894 193.478469 
L 327.272236 193.798918 
L 329.709582 194.638456 
L 331.537592 195.170705 
L 333.060934 195.352782 
L 334.279607 195.286343 
L 335.802948 194.969939 
L 340.677641 193.676884 
L 342.200983 193.65518 
L 343.724324 193.884832 
L 346.161671 194.550787 
L 348.294349 195.055666 
L 349.81769 195.187607 
L 351.341032 195.082829 
L 353.169042 194.708769 
L 356.825061 193.886008 
L 358.348403 193.796498 
L 359.871744 193.918474 
L 362.004423 194.345966 
L 365.051106 194.958391 
L 366.574447 195.052626 
L 368.402457 194.916215 
L 370.839803 194.452989 
L 373.27715 194.023416 
L 373.581818 193.990987 
L 373.581818 193.990987 
" style="fill:none;stroke:#f0ad4e;stroke-linecap:square;stroke-width:1.5;"/>
   </g>
   <g id="patch_2">
    <path d="M 54 320.4 
L 54 43.2 
" style="fill:none;stroke:#000000;stroke-linecap:square;stroke-linejoin:miter;stroke-width:0.8;"/>
   </g>
   <g id="patch_3">
    <path d="M 388.8 320.4 
L 388.8 43.2 
" style="fill:none;stroke:#000000;stroke-linecap:square;stroke-linejoin:miter;stroke-width:0.8;"/>
   </g>
   <g id="patch_4">
    <path d="M 54 320.4 
L 388.8 320.4 
" style="fill:none;stroke:#000000;stroke-linecap:square;stroke-linejoin:miter;stroke-width:0.8;"/>
   </g>
   <g id="patch_5">
    <path d="M 54 43.2 
L 388.8 43.2 
" style="fill:none;stroke:#000000;stroke-linecap:square;stroke-linejoin:miter;stroke-width:0.8;"/>
   </g>
   <g id="legend_1">
    <g id="patch_6">
     <path d="M 332 113.25625 
L 381.8 113.25625 
Q 383.8 113.25625 383.8 111.25625 
L 383.8 50.2 
Q 383.8 48.2 381.8 48.2 
L 332 48.2 
Q 330 48.2 330 50.2 
L 330 111.25625 
Q 330 113.25625 332 113.25625 
z
" style="fill:#ffffff;opacity:0.8;stroke:#cccccc;stroke-linejoin:miter;"/>
    </g>
    <g id="line2d_33">
     <path d="M 334 56.298437 
L 354 56.298437 
" style="fill:none;stroke:#d9524f;stroke-linecap:square;stroke-width:1.5;"/>
    </g>
    <g id="line2d_34"/>
    <g id="text_16">
     <!-- $\Delta \delta$ -->
     <g transform="translate(362 59.798437)scale(0.1 -0.1)">
      <defs>
       <path d="M 34.1875 63.1875 
L 14.15625 8.203125 
L 54.25 8.203125 
z
M 0.78125 0 
L 28.609375 72.90625 
L 39.796875 72.90625 
L 67.578125 0 
z
" id="DejaVuSans-916"/>
       <path d="M 54.25 63.328125 
Q 49.953125 66.75 38.28125 66.75 
Q 25.921875 66.75 24.8125 61.03125 
Q 23.921875 56.546875 36.375 54.203125 
Q 46.140625 52.390625 50.828125 46.921875 
Q 56.5 40.328125 53.859375 26.8125 
Q 51.3125 13.875 43.171875 6.25 
Q 34.96875 -1.421875 23.25 -1.421875 
Q 11.578125 -1.421875 6.34375 6.25 
Q 1.125 13.875 3.765625 27.296875 
Q 5.671875 37.25 13.921875 45.3125 
Q 17.140625 48.4375 21.140625 50.203125 
Q 14.265625 54.046875 15.625 60.9375 
Q 18.21875 74.21875 39.75 74.21875 
Q 50.53125 74.21875 55.71875 70.796875 
z
M 27.390625 47.75 
Q 23.828125 46.34375 20.40625 42.78125 
Q 15.140625 37.25 13.234375 27.296875 
Q 11.28125 17.390625 14.359375 11.8125 
Q 17.484375 6.203125 24.75 6.203125 
Q 31.9375 6.203125 37.203125 11.859375 
Q 42.53125 17.53125 44.34375 26.8125 
Q 46.1875 36.53125 42.671875 41.21875 
Q 38.921875 46.234375 32.859375 46.78125 
Q 29.78125 47.078125 27.390625 47.75 
z
" id="DejaVuSans-Oblique-948"/>
      </defs>
      <use transform="translate(0 0.78125)" xlink:href="#DejaVuSans-916"/>
      <use transform="translate(68.408203 0.78125)" xlink:href="#DejaVuSans-Oblique-948"/>
     </g>
    </g>
    <g id="line2d_35">
     <path d="M 334 70.976562 
L 354 70.976562 
" style="fill:none;stroke:#5cb85c;stroke-linecap:square;stroke-width:1.5;"/>
    </g>
    <g id="line2d_36"/>
    <g id="text_17">
     <!-- $\Delta \omega$ -->
     <g transform="translate(362 74.476562)scale(0.1 -0.1)">
      <defs>
       <path d="M 21.390625 -1.421875 
Q 1.125 -1.421875 6.78125 27.59375 
Q 8.984375 39.0625 19.625 54.6875 
L 29.296875 54.6875 
Q 19.234375 39.0625 17 27.34375 
Q 12.796875 6.203125 23.734375 6.203125 
Q 33.84375 6.203125 38.71875 32.46875 
L 47.015625 32.46875 
Q 41.703125 6.0625 51.8125 6.203125 
Q 62.703125 6.296875 66.796875 27.34375 
Q 69.046875 39.0625 65.140625 54.6875 
L 74.8125 54.6875 
Q 79.296875 39.0625 77.09375 27.59375 
Q 71.53125 -1.46875 51.21875 -1.421875 
Q 37.9375 -1.375 39.109375 13.1875 
Q 34.28125 -1.421875 21.390625 -1.421875 
z
" id="DejaVuSans-Oblique-969"/>
      </defs>
      <use transform="translate(0 0.09375)" xlink:href="#DejaVuSans-916"/>
      <use transform="translate(68.408203 0.09375)" xlink:href="#DejaVuSans-Oblique-969"/>
     </g>
    </g>
    <g id="line2d_37">
     <path d="M 334 85.85625 
L 354 85.85625 
" style="fill:none;stroke:#337ab7;stroke-linecap:square;stroke-width:1.5;"/>
    </g>
    <g id="line2d_38"/>
    <g id="text_18">
     <!-- $\Delta e_q' $ -->
     <g transform="translate(362 89.35625)scale(0.1 -0.1)">
      <defs>
       <path d="M 48.09375 32.234375 
Q 48.25 33.015625 48.3125 33.84375 
Q 48.390625 34.671875 48.390625 35.5 
Q 48.390625 41.453125 44.890625 44.921875 
Q 41.40625 48.390625 35.40625 48.390625 
Q 28.71875 48.390625 23.578125 44.15625 
Q 18.453125 39.9375 15.828125 32.171875 
z
M 55.90625 25.203125 
L 14.109375 25.203125 
Q 13.8125 23.34375 13.71875 22.265625 
Q 13.625 21.1875 13.625 20.40625 
Q 13.625 13.625 17.796875 9.90625 
Q 21.96875 6.203125 29.59375 6.203125 
Q 35.453125 6.203125 40.671875 7.515625 
Q 45.90625 8.84375 50.390625 11.375 
L 48.6875 2.484375 
Q 43.84375 0.53125 38.6875 -0.4375 
Q 33.546875 -1.421875 28.21875 -1.421875 
Q 16.84375 -1.421875 10.71875 4.015625 
Q 4.59375 9.46875 4.59375 19.484375 
Q 4.59375 28.03125 7.640625 35.375 
Q 10.6875 42.71875 16.609375 48.484375 
Q 20.40625 52.09375 25.65625 54.046875 
Q 30.90625 56 36.8125 56 
Q 46.09375 56 51.578125 50.4375 
Q 57.078125 44.875 57.078125 35.5 
Q 57.078125 33.25 56.78125 30.6875 
Q 56.5 28.125 55.90625 25.203125 
z
" id="DejaVuSans-Oblique-101"/>
       <path d="M 3.515625 5.421875 
Q 2.875 5.609375 2.875 6.390625 
L 15.09375 51.8125 
Q 15.671875 53.65625 17.078125 54.78125 
Q 18.5 55.90625 20.3125 55.90625 
Q 22.65625 55.90625 24.4375 54.359375 
Q 26.21875 52.828125 26.21875 50.484375 
Q 26.21875 49.46875 25.6875 48.1875 
L 7.625 4.984375 
Q 7.28125 4.296875 6.6875 4.296875 
Q 6.15625 4.296875 5 4.78125 
Q 3.859375 5.28125 3.515625 5.421875 
z
" id="Cmsy10-48"/>
       <path d="M 41.703125 8.203125 
Q 38.09375 3.46875 33.171875 1.015625 
Q 28.265625 -1.421875 22.3125 -1.421875 
Q 14.015625 -1.421875 9.296875 4.171875 
Q 4.59375 9.765625 4.59375 19.578125 
Q 4.59375 27.484375 7.5 34.859375 
Q 10.40625 42.234375 15.828125 48.09375 
Q 19.34375 51.90625 23.90625 53.953125 
Q 28.46875 56 33.5 56 
Q 39.546875 56 43.453125 53.609375 
Q 47.359375 51.21875 49.125 46.390625 
L 50.6875 54.59375 
L 59.71875 54.59375 
L 45.125 -20.609375 
L 36.078125 -20.609375 
z
M 13.921875 20.90625 
Q 13.921875 13.671875 16.9375 9.890625 
Q 19.96875 6.109375 25.6875 6.109375 
Q 34.1875 6.109375 40.1875 14.234375 
Q 46.1875 22.359375 46.1875 33.984375 
Q 46.1875 41.015625 43.078125 44.75 
Q 39.984375 48.484375 34.1875 48.484375 
Q 29.9375 48.484375 26.3125 46.5 
Q 22.703125 44.53125 20.015625 40.71875 
Q 17.1875 36.71875 15.546875 31.34375 
Q 13.921875 25.984375 13.921875 20.90625 
z
" id="DejaVuSans-Oblique-113"/>
      </defs>
      <use transform="translate(0 0.584375)" xlink:href="#DejaVuSans-916"/>
      <use transform="translate(68.408203 0.584375)" xlink:href="#DejaVuSans-Oblique-101"/>
      <use transform="translate(134.581536 38.865625)scale(0.7)" xlink:href="#Cmsy10-48"/>
      <use transform="translate(129.931641 -26.759375)scale(0.7)" xlink:href="#DejaVuSans-Oblique-113"/>
     </g>
    </g>
    <g id="line2d_39">
     <path d="M 334 102.85625 
L 354 102.85625 
" style="fill:none;stroke:#f0ad4e;stroke-linecap:square;stroke-width:1.5;"/>
    </g>
    <g id="line2d_40"/>
    <g id="text_19">
     <!-- $\Delta e_d' $ -->
     <g transform="translate(362 106.35625)scale(0.1 -0.1)">
      <defs>
       <path d="M 41.796875 8.203125 
Q 38.1875 3.46875 33.25 1.015625 
Q 28.328125 -1.421875 22.3125 -1.421875 
Q 14.109375 -1.421875 9.34375 4.171875 
Q 4.59375 9.765625 4.59375 19.484375 
Q 4.59375 27.59375 7.46875 34.9375 
Q 10.359375 42.28125 15.828125 48.09375 
Q 19.4375 51.953125 23.96875 53.96875 
Q 28.515625 56 33.5 56 
Q 38.765625 56 42.796875 53.453125 
Q 46.828125 50.921875 49.03125 46.1875 
L 54.890625 75.984375 
L 63.921875 75.984375 
L 49.125 0 
L 40.09375 0 
z
M 13.921875 21.09375 
Q 13.921875 14.015625 17.109375 10.0625 
Q 20.3125 6.109375 25.984375 6.109375 
Q 30.171875 6.109375 33.765625 8.125 
Q 37.359375 10.15625 40.09375 14.109375 
Q 42.96875 18.21875 44.625 23.578125 
Q 46.296875 28.953125 46.296875 34.1875 
Q 46.296875 40.96875 43.09375 44.765625 
Q 39.890625 48.578125 34.28125 48.578125 
Q 30.03125 48.578125 26.359375 46.578125 
Q 22.703125 44.578125 20.125 40.828125 
Q 17.28125 36.765625 15.59375 31.390625 
Q 13.921875 26.03125 13.921875 21.09375 
z
" id="DejaVuSans-Oblique-100"/>
      </defs>
      <use transform="translate(0 0.520313)" xlink:href="#DejaVuSans-916"/>
      <use transform="translate(68.408203 0.520313)" xlink:href="#DejaVuSans-Oblique-101"/>
      <use transform="translate(134.581536 38.865625)scale(0.7)" xlink:href="#Cmsy10-48"/>
      <use transform="translate(129.931641 -26.823437)scale(0.7)" xlink:href="#DejaVuSans-Oblique-100"/>
     </g>
    </g>
   </g>
  </g>
 </g>
 <defs>
  <clipPath id="p74acbf321d">
   <rect height="277.2" width="334.8" x="54" y="43.2"/>
  </clipPath>
 </defs>
</svg>
