<svg xmlns="http://www.w3.org/2000/svg" baseProfile="full" height="800" version="1.1" width="640"><defs /><rect height="15" id="C00" width="15" x="147.5" y="42.5" /><text fill="black" id="C00_tt" x="155.0" y="40.0">C00</text><rect height="15" id="C01" width="15" x="147.5" y="72.5" /><text fill="black" id="C01_tt" x="155.0" y="70.0">C01</text><rect height="15" id="C02" width="15" x="147.5" y="117.5" /><text fill="black" id="C02_tt" x="155.0" y="115.0">C02</text><rect height="15" id="C03" width="15" x="147.5" y="162.5" /><text fill="black" id="C03_tt" x="155.0" y="160.0">C03</text><rect height="15" id="C04" width="15" x="147.5" y="207.5" /><text fill="black" id="C04_tt" x="155.0" y="205.0">C04</text><rect height="15" id="C05" width="15" x="147.5" y="252.5" /><text fill="black" id="C05_tt" x="155.0" y="250.0">C05</text><rect height="15" id="C06" width="15" x="147.5" y="297.5" /><text fill="black" id="C06_tt" x="155.0" y="295.0">C06</text><rect height="15" id="C07" width="15" x="147.5" y="342.5" /><text fill="black" id="C07_tt" x="155.0" y="340.0">C07</text><rect height="15" id="C08" width="15" x="147.5" y="387.5" /><text fill="black" id="C08_tt" x="155.0" y="385.0">C08</text><rect height="15" id="C09" width="15" x="147.5" y="432.5" /><text fill="black" id="C09_tt" x="155.0" y="430.0">C09</text><rect height="15" id="C10" width="15" x="102.5" y="162.5" /><text fill="black" id="C10_tt" x="110.0" y="160.0">C10</text><rect height="15" id="C11" width="15" x="57.5" y="162.5" /><text fill="black" id="C11_tt" x="65.0" y="160.0">C11</text><rect height="15" id="C12" width="15" x="12.5" y="162.5" /><text fill="black" id="C12_tt" x="20.0" y="160.0">C12</text><rect height="15" id="C13" width="15" x="57.5" y="207.5" /><text fill="black" id="C13_tt" x="65.0" y="205.0">C13</text><rect height="15" id="C14" width="15" x="102.5" y="207.5" /><text fill="black" id="C14_tt" x="110.0" y="205.0">C14</text><rect height="15" id="C15" width="15" x="192.5" y="252.5" /><text fill="black" id="C15_tt" x="200.0" y="250.0">C15</text><rect height="15" id="C16" width="15" x="237.5" y="252.5" /><text fill="black" id="C16_tt" x="245.0" y="250.0">C16</text><rect height="15" id="C17" width="15" x="237.5" y="297.5" /><text fill="black" id="C17_tt" x="245.0" y="295.0">C17</text><rect height="15" id="C18" width="15" x="192.5" y="297.5" /><text fill="black" id="C18_tt" x="200.0" y="295.0">C18</text><rect height="15" id="C19" width="15" x="102.5" y="387.5" /><text fill="black" id="C19_tt" x="110.0" y="385.0">C19</text><rect height="15" id="C20" width="15" x="192.5" y="432.5" /><text fill="black" id="C20_tt" x="200.0" y="430.0">C20</text><line id="l_C01_C02_a" stroke="rgb(10%,10%,16%)" stroke-width="2" x1="150.0" x2="150.0" y1="75.0" y2="120.0" style="stroke:#680000" /><line id="l_C01_C02_b" stroke="rgb(10%,10%,16%)" stroke-width="2" x1="153.0" x2="153.0" y1="75.0" y2="120.0" style="stroke:#650000" /><line id="l_C01_C02_c" stroke="rgb(10%,10%,16%)" stroke-width="2" x1="156.0" x2="156.0" y1="75.0" y2="120.0" style="stroke:#660000" /><line id="l_C01_C02_n" stroke="rgb(10%,10%,16%)" stroke-width="2" x1="159.0" x2="159.0" y1="75.0" y2="120.0" style="stroke:#000000" /><line id="l_C02_C03_a" stroke="rgb(10%,10%,16%)" stroke-width="2" x1="150.0" x2="150.0" y1="120.0" y2="165.0" style="stroke:#680000" /><line id="l_C02_C03_b" stroke="rgb(10%,10%,16%)" stroke-width="2" x1="153.0" x2="153.0" y1="120.0" y2="165.0" style="stroke:#650000" /><line id="l_C02_C03_c" stroke="rgb(10%,10%,16%)" stroke-width="2" x1="156.0" x2="156.0" y1="120.0" y2="165.0" style="stroke:#660000" /><line id="l_C02_C03_n" stroke="rgb(10%,10%,16%)" stroke-width="2" x1="159.0" x2="159.0" y1="120.0" y2="165.0" style="stroke:#000000" /><line id="l_C03_C04_a" stroke="rgb(10%,10%,16%)" stroke-width="2" x1="150.0" x2="150.0" y1="165.0" y2="210.0" style="stroke:#160000" /><line id="l_C03_C04_b" stroke="rgb(10%,10%,16%)" stroke-width="2" x1="153.0" x2="153.0" y1="165.0" y2="210.0" style="stroke:#160000" /><line id="l_C03_C04_c" stroke="rgb(10%,10%,16%)" stroke-width="2" x1="156.0" x2="156.0" y1="165.0" y2="210.0" style="stroke:#160000" /><line id="l_C03_C04_n" stroke="rgb(10%,10%,16%)" stroke-width="2" x1="159.0" x2="159.0" y1="165.0" y2="210.0" style="stroke:#000000" /><line id="l_C04_C05_a" stroke="rgb(10%,10%,16%)" stroke-width="2" x1="150.0" x2="150.0" y1="210.0" y2="255.0" style="stroke:#160000" /><line id="l_C04_C05_b" stroke="rgb(10%,10%,16%)" stroke-width="2" x1="153.0" x2="153.0" y1="210.0" y2="255.0" style="stroke:#160000" /><line id="l_C04_C05_c" stroke="rgb(10%,10%,16%)" stroke-width="2" x1="156.0" x2="156.0" y1="210.0" y2="255.0" style="stroke:#160000" /><line id="l_C04_C05_n" stroke="rgb(10%,10%,16%)" stroke-width="2" x1="159.0" x2="159.0" y1="210.0" y2="255.0" style="stroke:#000000" /><line id="l_C05_C06_a" stroke="rgb(10%,10%,16%)" stroke-width="2" x1="150.0" x2="150.0" y1="255.0" y2="300.0" style="stroke:#030000" /><line id="l_C05_C06_b" stroke="rgb(10%,10%,16%)" stroke-width="2" x1="153.0" x2="153.0" y1="255.0" y2="300.0" style="stroke:#030000" /><line id="l_C05_C06_c" stroke="rgb(10%,10%,16%)" stroke-width="2" x1="156.0" x2="156.0" y1="255.0" y2="300.0" style="stroke:#030000" /><line id="l_C05_C06_n" stroke="rgb(10%,10%,16%)" stroke-width="2" x1="159.0" x2="159.0" y1="255.0" y2="300.0" style="stroke:#000000" /><line id="l_C06_C07_a" stroke="rgb(10%,10%,16%)" stroke-width="2" x1="150.0" x2="150.0" y1="300.0" y2="345.0" style="stroke:#030000" /><line id="l_C06_C07_b" stroke="rgb(10%,10%,16%)" stroke-width="2" x1="153.0" x2="153.0" y1="300.0" y2="345.0" style="stroke:#030000" /><line id="l_C06_C07_c" stroke="rgb(10%,10%,16%)" stroke-width="2" x1="156.0" x2="156.0" y1="300.0" y2="345.0" style="stroke:#030000" /><line id="l_C06_C07_n" stroke="rgb(10%,10%,16%)" stroke-width="2" x1="159.0" x2="159.0" y1="300.0" y2="345.0" style="stroke:#000000" /><line id="l_C07_C08_a" stroke="rgb(10%,10%,16%)" stroke-width="2" x1="150.0" x2="150.0" y1="345.0" y2="390.0" style="stroke:#030000" /><line id="l_C07_C08_b" stroke="rgb(10%,10%,16%)" stroke-width="2" x1="153.0" x2="153.0" y1="345.0" y2="390.0" style="stroke:#030000" /><line id="l_C07_C08_c" stroke="rgb(10%,10%,16%)" stroke-width="2" x1="156.0" x2="156.0" y1="345.0" y2="390.0" style="stroke:#030000" /><line id="l_C07_C08_n" stroke="rgb(10%,10%,16%)" stroke-width="2" x1="159.0" x2="159.0" y1="345.0" y2="390.0" style="stroke:#000000" /><line id="l_C08_C09_a" stroke="rgb(10%,10%,16%)" stroke-width="2" x1="150.0" x2="150.0" y1="390.0" y2="435.0" style="stroke:#000000" /><line id="l_C08_C09_b" stroke="rgb(10%,10%,16%)" stroke-width="2" x1="153.0" x2="153.0" y1="390.0" y2="435.0" style="stroke:#000000" /><line id="l_C08_C09_c" stroke="rgb(10%,10%,16%)" stroke-width="2" x1="156.0" x2="156.0" y1="390.0" y2="435.0" style="stroke:#000000" /><line id="l_C08_C09_n" stroke="rgb(10%,10%,16%)" stroke-width="2" x1="159.0" x2="159.0" y1="390.0" y2="435.0" style="stroke:#000000" /><line id="l_C03_C10_a" stroke="rgb(10%,10%,16%)" stroke-width="2" x1="150.0" x2="105.0" y1="165.0" y2="165.0" style="stroke:#1d0000" /><line id="l_C03_C10_b" stroke="rgb(10%,10%,16%)" stroke-width="2" x1="150.0" x2="105.0" y1="168.0" y2="168.0" style="stroke:#1c0000" /><line id="l_C03_C10_c" stroke="rgb(10%,10%,16%)" stroke-width="2" x1="150.0" x2="105.0" y1="171.0" y2="171.0" style="stroke:#1c0000" /><line id="l_C03_C10_n" stroke="rgb(10%,10%,16%)" stroke-width="2" x1="150.0" x2="105.0" y1="174.0" y2="174.0" style="stroke:#000000" /><line id="l_C10_C11_a" stroke="rgb(10%,10%,16%)" stroke-width="2" x1="105.0" x2="60.0" y1="165.0" y2="165.0" style="stroke:#0b0000" /><line id="l_C10_C11_b" stroke="rgb(10%,10%,16%)" stroke-width="2" x1="105.0" x2="60.0" y1="168.0" y2="168.0" style="stroke:#0a0000" /><line id="l_C10_C11_c" stroke="rgb(10%,10%,16%)" stroke-width="2" x1="105.0" x2="60.0" y1="171.0" y2="171.0" style="stroke:#0b0000" /><line id="l_C10_C11_n" stroke="rgb(10%,10%,16%)" stroke-width="2" x1="105.0" x2="60.0" y1="174.0" y2="174.0" style="stroke:#000000" /><line id="l_C11_C12_a" stroke="rgb(10%,10%,16%)" stroke-width="2" x1="60.0" x2="15.0" y1="165.0" y2="165.0" style="stroke:#020000" /><line id="l_C11_C12_b" stroke="rgb(10%,10%,16%)" stroke-width="2" x1="60.0" x2="15.0" y1="168.0" y2="168.0" style="stroke:#020000" /><line id="l_C11_C12_c" stroke="rgb(10%,10%,16%)" stroke-width="2" x1="60.0" x2="15.0" y1="171.0" y2="171.0" style="stroke:#020000" /><line id="l_C11_C12_n" stroke="rgb(10%,10%,16%)" stroke-width="2" x1="60.0" x2="15.0" y1="174.0" y2="174.0" style="stroke:#000000" /><line id="l_C11_C13_a" stroke="rgb(10%,10%,16%)" stroke-width="2" x1="60.0" x2="60.0" y1="165.0" y2="210.0" style="stroke:#020000" /><line id="l_C11_C13_b" stroke="rgb(10%,10%,16%)" stroke-width="2" x1="63.0" x2="63.0" y1="165.0" y2="210.0" style="stroke:#020000" /><line id="l_C11_C13_c" stroke="rgb(10%,10%,16%)" stroke-width="2" x1="66.0" x2="66.0" y1="165.0" y2="210.0" style="stroke:#020000" /><line id="l_C11_C13_n" stroke="rgb(10%,10%,16%)" stroke-width="2" x1="69.0" x2="69.0" y1="165.0" y2="210.0" style="stroke:#000000" /><line id="l_C10_C14_a" stroke="rgb(10%,10%,16%)" stroke-width="2" x1="105.0" x2="105.0" y1="165.0" y2="210.0" style="stroke:#040000" /><line id="l_C10_C14_b" stroke="rgb(10%,10%,16%)" stroke-width="2" x1="108.0" x2="108.0" y1="165.0" y2="210.0" style="stroke:#040000" /><line id="l_C10_C14_c" stroke="rgb(10%,10%,16%)" stroke-width="2" x1="111.0" x2="111.0" y1="165.0" y2="210.0" style="stroke:#040000" /><line id="l_C10_C14_n" stroke="rgb(10%,10%,16%)" stroke-width="2" x1="114.0" x2="114.0" y1="165.0" y2="210.0" style="stroke:#000000" /><line id="l_C05_C15_a" stroke="rgb(10%,10%,16%)" stroke-width="2" x1="150.0" x2="195.0" y1="255.0" y2="255.0" style="stroke:#070000" /><line id="l_C05_C15_b" stroke="rgb(10%,10%,16%)" stroke-width="2" x1="150.0" x2="195.0" y1="258.0" y2="258.0" style="stroke:#070000" /><line id="l_C05_C15_c" stroke="rgb(10%,10%,16%)" stroke-width="2" x1="150.0" x2="195.0" y1="261.0" y2="261.0" style="stroke:#070000" /><line id="l_C05_C15_n" stroke="rgb(10%,10%,16%)" stroke-width="2" x1="150.0" x2="195.0" y1="264.0" y2="264.0" style="stroke:#000000" /><line id="l_C15_C16_a" stroke="rgb(10%,10%,16%)" stroke-width="2" x1="195.0" x2="240.0" y1="255.0" y2="255.0" style="stroke:#040000" /><line id="l_C15_C16_b" stroke="rgb(10%,10%,16%)" stroke-width="2" x1="195.0" x2="240.0" y1="258.0" y2="258.0" style="stroke:#040000" /><line id="l_C15_C16_c" stroke="rgb(10%,10%,16%)" stroke-width="2" x1="195.0" x2="240.0" y1="261.0" y2="261.0" style="stroke:#040000" /><line id="l_C15_C16_n" stroke="rgb(10%,10%,16%)" stroke-width="2" x1="195.0" x2="240.0" y1="264.0" y2="264.0" style="stroke:#000000" /><line id="l_C15_C18_a" stroke="rgb(10%,10%,16%)" stroke-width="2" x1="195.0" x2="195.0" y1="255.0" y2="300.0" style="stroke:#000000" /><line id="l_C15_C18_b" stroke="rgb(10%,10%,16%)" stroke-width="2" x1="198.0" x2="198.0" y1="255.0" y2="300.0" style="stroke:#000000" /><line id="l_C15_C18_c" stroke="rgb(10%,10%,16%)" stroke-width="2" x1="201.0" x2="201.0" y1="255.0" y2="300.0" style="stroke:#000000" /><line id="l_C15_C18_n" stroke="rgb(10%,10%,16%)" stroke-width="2" x1="204.0" x2="204.0" y1="255.0" y2="300.0" style="stroke:#000000" /><line id="l_C16_C17_a" stroke="rgb(10%,10%,16%)" stroke-width="2" x1="240.0" x2="240.0" y1="255.0" y2="300.0" style="stroke:#040000" /><line id="l_C16_C17_b" stroke="rgb(10%,10%,16%)" stroke-width="2" x1="243.0" x2="243.0" y1="255.0" y2="300.0" style="stroke:#040000" /><line id="l_C16_C17_c" stroke="rgb(10%,10%,16%)" stroke-width="2" x1="246.0" x2="246.0" y1="255.0" y2="300.0" style="stroke:#040000" /><line id="l_C16_C17_n" stroke="rgb(10%,10%,16%)" stroke-width="2" x1="249.0" x2="249.0" y1="255.0" y2="300.0" style="stroke:#000000" /><line id="l_C08_C19_a" stroke="rgb(10%,10%,16%)" stroke-width="2" x1="150.0" x2="105.0" y1="390.0" y2="390.0" style="stroke:#010000" /><line id="l_C08_C19_b" stroke="rgb(10%,10%,16%)" stroke-width="2" x1="150.0" x2="105.0" y1="393.0" y2="393.0" style="stroke:#010000" /><line id="l_C08_C19_c" stroke="rgb(10%,10%,16%)" stroke-width="2" x1="150.0" x2="105.0" y1="396.0" y2="396.0" style="stroke:#010000" /><line id="l_C08_C19_n" stroke="rgb(10%,10%,16%)" stroke-width="2" x1="150.0" x2="105.0" y1="399.0" y2="399.0" style="stroke:#000000" /><line id="l_C09_C20_a" stroke="rgb(10%,10%,16%)" stroke-width="2" x1="150.0" x2="195.0" y1="435.0" y2="435.0" style="stroke:#000000" /><line id="l_C09_C20_b" stroke="rgb(10%,10%,16%)" stroke-width="2" x1="150.0" x2="195.0" y1="438.0" y2="438.0" style="stroke:#000000" /><line id="l_C09_C20_c" stroke="rgb(10%,10%,16%)" stroke-width="2" x1="150.0" x2="195.0" y1="441.0" y2="441.0" style="stroke:#000000" /><line id="l_C09_C20_n" stroke="rgb(10%,10%,16%)" stroke-width="2" x1="150.0" x2="195.0" y1="444.0" y2="444.0" style="stroke:#000000" /><line stroke="rgb(10%,10%,16%)" x1="150.0" x2="150.0" y1="45.0" y2="75.0" /></svg>