<?xml version="1.0" encoding="utf-8" standalone="no"?>
<!DOCTYPE svg PUBLIC "-//W3C//DTD SVG 1.1//EN"
  "http://www.w3.org/Graphics/SVG/1.1/DTD/svg11.dtd">
<!-- Created with matplotlib (https://matplotlib.org/) -->
<svg height="288pt" version="1.1" viewBox="0 0 648 288" width="648pt" xmlns="http://www.w3.org/2000/svg" xmlns:xlink="http://www.w3.org/1999/xlink">
 <metadata>
  <rdf:RDF xmlns:cc="http://creativecommons.org/ns#" xmlns:dc="http://purl.org/dc/elements/1.1/" xmlns:rdf="http://www.w3.org/1999/02/22-rdf-syntax-ns#">
   <cc:Work>
    <dc:type rdf:resource="http://purl.org/dc/dcmitype/StillImage"/>
    <dc:date>2021-02-24T11:27:43.198079</dc:date>
    <dc:format>image/svg+xml</dc:format>
    <dc:creator>
     <cc:Agent>
      <dc:title>Matplotlib v3.3.2, https://matplotlib.org/</dc:title>
     </cc:Agent>
    </dc:creator>
   </cc:Work>
  </rdf:RDF>
 </metadata>
 <defs>
  <style type="text/css">*{stroke-linecap:butt;stroke-linejoin:round;}</style>
 </defs>
 <g id="figure_1">
  <g id="axes_1">
   <g id="patch_1">
    <path d="M 33.491094 125.798711 
L 314.261016 125.798711 
L 314.261016 9.72 
L 33.491094 9.72 
z
" style="fill:#ffffff;"/>
   </g>
   <g id="matplotlib.axis_1">
    <g id="xtick_1">
     <g id="line2d_1">
      <path clip-path="url(#p149b4a96f2)" d="M 46.253363 125.798711 
L 46.253363 9.72 
" style="fill:none;stroke:#cbcbcb;"/>
     </g>
     <g id="line2d_2"/>
     <g id="text_1">
      <text style="font-family:Arial;font-size:9px;font-stretch:normal;font-style:normal;font-weight:normal;text-anchor:middle;" transform="rotate(-0, 46.253363, 135.740742)" x="46.253363" y="135.740742">0.00</text>
     </g>
    </g>
    <g id="xtick_2">
     <g id="line2d_3">
      <path clip-path="url(#p149b4a96f2)" d="M 78.562905 125.798711 
L 78.562905 9.72 
" style="fill:none;stroke:#cbcbcb;"/>
     </g>
     <g id="line2d_4"/>
     <g id="text_2">
      <text style="font-family:Arial;font-size:9px;font-stretch:normal;font-style:normal;font-weight:normal;text-anchor:middle;" transform="rotate(-0, 78.562905, 135.740742)" x="78.562905" y="135.740742">0.01</text>
     </g>
    </g>
    <g id="xtick_3">
     <g id="line2d_5">
      <path clip-path="url(#p149b4a96f2)" d="M 110.872447 125.798711 
L 110.872447 9.72 
" style="fill:none;stroke:#cbcbcb;"/>
     </g>
     <g id="line2d_6"/>
     <g id="text_3">
      <text style="font-family:Arial;font-size:9px;font-stretch:normal;font-style:normal;font-weight:normal;text-anchor:middle;" transform="rotate(-0, 110.872447, 135.740742)" x="110.872447" y="135.740742">0.02</text>
     </g>
    </g>
    <g id="xtick_4">
     <g id="line2d_7">
      <path clip-path="url(#p149b4a96f2)" d="M 143.18199 125.798711 
L 143.18199 9.72 
" style="fill:none;stroke:#cbcbcb;"/>
     </g>
     <g id="line2d_8"/>
     <g id="text_4">
      <text style="font-family:Arial;font-size:9px;font-stretch:normal;font-style:normal;font-weight:normal;text-anchor:middle;" transform="rotate(-0, 143.18199, 135.740742)" x="143.18199" y="135.740742">0.03</text>
     </g>
    </g>
    <g id="xtick_5">
     <g id="line2d_9">
      <path clip-path="url(#p149b4a96f2)" d="M 175.491532 125.798711 
L 175.491532 9.72 
" style="fill:none;stroke:#cbcbcb;"/>
     </g>
     <g id="line2d_10"/>
     <g id="text_5">
      <text style="font-family:Arial;font-size:9px;font-stretch:normal;font-style:normal;font-weight:normal;text-anchor:middle;" transform="rotate(-0, 175.491532, 135.740742)" x="175.491532" y="135.740742">0.04</text>
     </g>
    </g>
    <g id="xtick_6">
     <g id="line2d_11">
      <path clip-path="url(#p149b4a96f2)" d="M 207.801074 125.798711 
L 207.801074 9.72 
" style="fill:none;stroke:#cbcbcb;"/>
     </g>
     <g id="line2d_12"/>
     <g id="text_6">
      <text style="font-family:Arial;font-size:9px;font-stretch:normal;font-style:normal;font-weight:normal;text-anchor:middle;" transform="rotate(-0, 207.801074, 135.740742)" x="207.801074" y="135.740742">0.05</text>
     </g>
    </g>
    <g id="xtick_7">
     <g id="line2d_13">
      <path clip-path="url(#p149b4a96f2)" d="M 240.110616 125.798711 
L 240.110616 9.72 
" style="fill:none;stroke:#cbcbcb;"/>
     </g>
     <g id="line2d_14"/>
     <g id="text_7">
      <text style="font-family:Arial;font-size:9px;font-stretch:normal;font-style:normal;font-weight:normal;text-anchor:middle;" transform="rotate(-0, 240.110616, 135.740742)" x="240.110616" y="135.740742">0.06</text>
     </g>
    </g>
    <g id="xtick_8">
     <g id="line2d_15">
      <path clip-path="url(#p149b4a96f2)" d="M 272.420158 125.798711 
L 272.420158 9.72 
" style="fill:none;stroke:#cbcbcb;"/>
     </g>
     <g id="line2d_16"/>
     <g id="text_8">
      <text style="font-family:Arial;font-size:9px;font-stretch:normal;font-style:normal;font-weight:normal;text-anchor:middle;" transform="rotate(-0, 272.420158, 135.740742)" x="272.420158" y="135.740742">0.07</text>
     </g>
    </g>
    <g id="xtick_9">
     <g id="line2d_17">
      <path clip-path="url(#p149b4a96f2)" d="M 304.729701 125.798711 
L 304.729701 9.72 
" style="fill:none;stroke:#cbcbcb;"/>
     </g>
     <g id="line2d_18"/>
     <g id="text_9">
      <text style="font-family:Arial;font-size:9px;font-stretch:normal;font-style:normal;font-weight:normal;text-anchor:middle;" transform="rotate(-0, 304.729701, 135.740742)" x="304.729701" y="135.740742">0.08</text>
     </g>
    </g>
   </g>
   <g id="matplotlib.axis_2">
    <g id="ytick_1">
     <g id="line2d_19">
      <path clip-path="url(#p149b4a96f2)" d="M 33.491094 98.531391 
L 314.261016 98.531391 
" style="fill:none;stroke:#cbcbcb;"/>
     </g>
     <g id="line2d_20"/>
     <g id="text_10">
      <text style="font-family:Arial;font-size:9px;font-stretch:normal;font-style:normal;font-weight:normal;text-anchor:end;" transform="rotate(-0, 29.991094, 101.752407)" x="29.991094" y="101.752407">−200</text>
     </g>
    </g>
    <g id="ytick_2">
     <g id="line2d_21">
      <path clip-path="url(#p149b4a96f2)" d="M 33.491094 67.759355 
L 314.261016 67.759355 
" style="fill:none;stroke:#cbcbcb;"/>
     </g>
     <g id="line2d_22"/>
     <g id="text_11">
      <text style="font-family:Arial;font-size:9px;font-stretch:normal;font-style:normal;font-weight:normal;text-anchor:end;" transform="rotate(-0, 29.991094, 70.980371)" x="29.991094" y="70.980371">0</text>
     </g>
    </g>
    <g id="ytick_3">
     <g id="line2d_23">
      <path clip-path="url(#p149b4a96f2)" d="M 33.491094 36.98732 
L 314.261016 36.98732 
" style="fill:none;stroke:#cbcbcb;"/>
     </g>
     <g id="line2d_24"/>
     <g id="text_12">
      <text style="font-family:Arial;font-size:9px;font-stretch:normal;font-style:normal;font-weight:normal;text-anchor:end;" transform="rotate(-0, 29.991094, 40.208335)" x="29.991094" y="40.208335">200</text>
     </g>
    </g>
   </g>
   <g id="line2d_25">
    <path clip-path="url(#p149b4a96f2)" d="M 46.253363 17.508831 
L 46.899554 17.607989 
L 47.545745 17.905072 
L 48.191935 18.398906 
L 49.161222 19.504094 
L 50.130508 21.0376 
L 51.099794 22.985811 
L 52.392176 26.198123 
L 53.684558 30.065881 
L 55.300035 35.728466 
L 57.238607 43.550981 
L 59.500275 53.739906 
L 63.700516 74.057416 
L 66.93147 89.154988 
L 68.870042 97.295873 
L 70.48552 103.291842 
L 72.100997 108.412884 
L 73.393378 111.794226 
L 74.68576 114.481111 
L 75.655046 116.014617 
L 76.624333 117.119805 
L 77.270523 117.613639 
L 77.916714 117.910722 
L 78.562905 118.00988 
L 79.209096 117.910722 
L 79.855287 117.613639 
L 80.501478 117.119805 
L 81.470764 116.014617 
L 82.44005 114.481111 
L 83.409336 112.5329 
L 84.701718 109.320588 
L 85.9941 105.45283 
L 87.609577 99.790245 
L 89.548149 91.96773 
L 91.809817 81.778805 
L 96.010058 61.461295 
L 99.241012 46.363723 
L 101.179585 38.222838 
L 102.795062 32.226869 
L 104.410539 27.105827 
L 105.702921 23.724485 
L 106.995302 21.0376 
L 107.964589 19.504094 
L 108.933875 18.398906 
L 109.580066 17.905072 
L 110.226257 17.607989 
L 110.872447 17.508831 
L 111.518638 17.607989 
L 112.164829 17.905072 
L 112.81102 18.398906 
L 113.780306 19.504094 
L 114.749592 21.0376 
L 115.718879 22.985811 
L 117.01126 26.198123 
L 118.303642 30.065881 
L 119.919119 35.728466 
L 121.857692 43.550981 
L 124.11936 53.739906 
L 128.3196 74.057416 
L 131.550554 89.154988 
L 133.489127 97.295873 
L 135.104604 103.291842 
L 136.720081 108.412884 
L 138.012463 111.794226 
L 139.304845 114.481111 
L 140.274131 116.014617 
L 141.243417 117.119805 
L 141.889608 117.613639 
L 142.535799 117.910722 
L 143.18199 118.00988 
L 143.82818 117.910722 
L 144.474371 117.613639 
L 145.120562 117.119805 
L 146.089848 116.014617 
L 147.059135 114.481111 
L 148.028421 112.5329 
L 149.320803 109.320588 
L 150.613184 105.45283 
L 152.228661 99.790245 
L 154.167234 91.96773 
L 156.428902 81.778805 
L 160.629142 61.461295 
L 163.860097 46.363723 
L 165.798669 38.222838 
L 167.414146 32.226869 
L 169.029623 27.105827 
L 170.322005 23.724485 
L 171.614387 21.0376 
L 172.583673 19.504094 
L 173.552959 18.398906 
L 174.19915 17.905072 
L 174.845341 17.607989 
L 175.814627 17.282498 
L 176.460818 16.981432 
L 177.107009 16.886702 
L 177.7532 17.002615 
L 178.399391 17.332608 
L 178.722486 17.578713 
L 179.691772 19.335822 
L 180.661059 21.522742 
L 181.95344 25.073151 
L 183.245822 29.296747 
L 184.861299 35.42051 
L 186.799872 43.805432 
L 189.06154 54.637718 
L 197.462021 96.031212 
L 199.400593 103.878149 
L 201.01607 109.450344 
L 202.308452 113.17473 
L 203.600834 116.182889 
L 204.57012 117.939998 
L 205.539406 119.251701 
L 206.508692 120.106353 
L 207.154883 120.41829 
L 207.801074 120.522406 
L 208.447265 120.41829 
L 209.093456 120.106353 
L 209.739647 119.587827 
L 210.708933 118.42738 
L 211.678219 116.817199 
L 212.647505 114.771578 
L 213.939887 111.39865 
L 215.232269 107.337504 
L 216.847746 101.39179 
L 218.786318 93.178149 
L 221.047986 82.479777 
L 225.248227 61.146392 
L 228.479181 45.293941 
L 230.417754 36.746013 
L 232.033231 30.450245 
L 233.648708 25.073151 
L 234.941089 21.522742 
L 236.233471 18.701512 
L 237.202757 17.091331 
L 238.172044 15.930884 
L 238.818235 15.412357 
L 239.464425 15.100421 
L 240.110616 14.996305 
L 240.756807 15.100421 
L 241.402998 15.412357 
L 242.049189 15.930884 
L 243.018475 17.091331 
L 243.987761 18.701512 
L 244.957048 20.747133 
L 246.249429 24.120061 
L 247.541811 28.181207 
L 249.157288 34.126921 
L 251.095861 42.340562 
L 253.357529 53.038934 
L 257.557769 74.372319 
L 260.788723 90.22477 
L 262.727296 98.772698 
L 264.342773 105.068466 
L 265.95825 110.44556 
L 267.250632 113.995969 
L 268.543013 116.817199 
L 269.5123 118.42738 
L 270.481586 119.587827 
L 271.127777 120.106353 
L 271.773968 120.41829 
L 272.420158 120.522406 
L 273.066349 120.41829 
L 273.71254 120.106353 
L 274.358731 119.587827 
L 275.328017 118.42738 
L 276.297304 116.817199 
L 277.26659 114.771578 
L 278.558971 111.39865 
L 279.851353 107.337504 
L 281.46683 101.39179 
L 283.405403 93.178149 
L 285.667071 82.479777 
L 289.867311 61.146392 
L 293.098265 45.293941 
L 295.036838 36.746013 
L 296.652315 30.450245 
L 298.267792 25.073151 
L 299.560174 21.522742 
L 300.852556 18.701512 
L 301.498746 17.578713 
L 301.498746 17.578713 
" style="fill:none;stroke:#d9524f;stroke-width:3;"/>
   </g>
   <g id="line2d_26">
    <path clip-path="url(#p149b4a96f2)" d="M 46.253363 92.884618 
L 48.191935 100.594083 
L 49.807413 106.140506 
L 51.099794 109.902991 
L 52.392176 113.000846 
L 53.361462 114.858267 
L 54.330748 116.297635 
L 55.300035 117.306173 
L 55.946226 117.734602 
L 56.592416 117.965801 
L 57.238607 117.998859 
L 57.884798 117.833644 
L 58.530989 117.470809 
L 59.17718 116.911785 
L 60.146466 115.710432 
L 61.115752 114.083462 
L 62.085039 112.045316 
L 63.37742 108.719955 
L 64.669802 104.74862 
L 66.285279 98.972357 
L 68.223852 91.040224 
L 70.48552 80.765148 
L 79.209096 39.95114 
L 81.147669 32.600906 
L 82.763146 27.417356 
L 84.055527 23.980405 
L 85.347909 21.233873 
L 86.317195 19.653549 
L 87.286482 18.500215 
L 88.255768 17.784109 
L 88.901959 17.55291 
L 89.548149 17.519852 
L 90.19434 17.685067 
L 90.840531 18.047902 
L 91.486722 18.606926 
L 92.456008 19.808279 
L 93.425295 21.435249 
L 94.394581 23.473395 
L 95.686963 26.798756 
L 96.979344 30.770091 
L 98.594821 36.546354 
L 100.533394 44.478487 
L 102.795062 54.753563 
L 111.518638 95.567571 
L 113.457211 102.917805 
L 115.072688 108.101354 
L 116.36507 111.538306 
L 117.657451 114.284838 
L 118.626737 115.865162 
L 119.596024 117.018496 
L 120.56531 117.734602 
L 121.211501 117.965801 
L 121.857692 117.998859 
L 122.503883 117.833644 
L 123.150073 117.470809 
L 123.796264 116.911785 
L 124.765551 115.710432 
L 125.734837 114.083462 
L 126.704123 112.045316 
L 127.996505 108.719955 
L 129.288886 104.74862 
L 130.904364 98.972357 
L 132.842936 91.040224 
L 135.104604 80.765148 
L 143.82818 39.95114 
L 145.766753 32.600906 
L 147.38223 27.417356 
L 148.674612 23.980405 
L 149.966993 21.233873 
L 150.93628 19.653549 
L 151.905566 18.500215 
L 152.874852 17.784109 
L 153.521043 17.55291 
L 154.167234 17.519852 
L 154.813425 17.685067 
L 155.459616 18.047902 
L 156.105806 18.606926 
L 157.075093 19.808279 
L 158.044379 21.435249 
L 159.013665 23.473395 
L 160.306047 26.798756 
L 161.598429 30.770091 
L 163.213906 36.546354 
L 165.152478 44.478487 
L 167.414146 54.753563 
L 177.107009 100.173627 
L 178.722486 106.969943 
L 180.014868 111.085693 
L 181.307249 114.51816 
L 182.276536 116.611112 
L 183.245822 118.270452 
L 184.215108 119.481453 
L 184.861299 120.034234 
L 185.50749 120.38071 
L 186.153681 120.519513 
L 186.799872 120.450096 
L 187.446062 120.172733 
L 188.092253 119.688518 
L 189.06154 118.578751 
L 190.030826 117.017907 
L 191.000112 115.01984 
L 192.292494 111.706821 
L 193.584875 107.700724 
L 195.200353 101.815672 
L 196.81583 95.092041 
L 199.077498 84.588622 
L 202.308452 68.311879 
L 206.508692 47.312851 
L 208.77036 37.194714 
L 210.385837 30.842983 
L 212.001315 25.400257 
L 213.293696 21.791457 
L 214.586078 18.907599 
L 215.555364 17.248259 
L 216.52465 16.037258 
L 217.170841 15.484477 
L 217.817032 15.138001 
L 218.463223 14.999198 
L 219.109414 15.068615 
L 219.755605 15.345978 
L 220.401795 15.830193 
L 221.371082 16.93996 
L 222.340368 18.500804 
L 223.309654 20.498871 
L 224.602036 23.81189 
L 225.894418 27.817987 
L 227.509895 33.703039 
L 229.125372 40.42667 
L 231.38704 50.930089 
L 234.617994 67.206832 
L 238.818235 88.20586 
L 241.079903 98.323997 
L 242.69538 104.675728 
L 244.310857 110.118454 
L 245.603238 113.727254 
L 246.89562 116.611112 
L 247.864906 118.270452 
L 248.834193 119.481453 
L 249.480383 120.034234 
L 250.126574 120.38071 
L 250.772765 120.519513 
L 251.418956 120.450096 
L 252.065147 120.172733 
L 252.711338 119.688518 
L 253.680624 118.578751 
L 254.64991 117.017907 
L 255.619196 115.01984 
L 256.911578 111.706821 
L 258.20396 107.700724 
L 259.819437 101.815672 
L 261.434914 95.092041 
L 263.696582 84.588622 
L 266.927536 68.311879 
L 271.127777 47.312851 
L 273.389445 37.194714 
L 275.004922 30.842983 
L 276.620399 25.400257 
L 277.912781 21.791457 
L 279.205162 18.907599 
L 280.174449 17.248259 
L 281.143735 16.037258 
L 281.789926 15.484477 
L 282.436117 15.138001 
L 283.082307 14.999198 
L 283.728498 15.068615 
L 284.374689 15.345978 
L 285.02088 15.830193 
L 285.990166 16.93996 
L 286.959452 18.500804 
L 287.928739 20.498871 
L 289.22112 23.81189 
L 290.513502 27.817987 
L 292.128979 33.703039 
L 293.744456 40.42667 
L 296.006124 50.930089 
L 299.237078 67.206832 
L 301.498746 78.72941 
L 301.498746 78.72941 
" style="fill:none;stroke:#5cb85c;stroke-width:3;"/>
   </g>
   <g id="line2d_27">
    <path clip-path="url(#p149b4a96f2)" d="M 46.253363 92.884618 
L 48.515031 82.786312 
L 52.069081 65.655082 
L 55.62313 48.772658 
L 57.884798 39.0807 
L 59.500275 32.978798 
L 61.115752 27.73331 
L 62.408134 24.241125 
L 63.700516 21.435249 
L 64.669802 19.808279 
L 65.639088 18.606926 
L 66.608375 17.841853 
L 67.254565 17.577698 
L 67.900756 17.511587 
L 68.546947 17.64378 
L 69.193138 17.973757 
L 69.839329 18.500215 
L 70.808615 19.653549 
L 71.777901 21.233873 
L 72.747188 23.227161 
L 74.039569 26.496177 
L 75.331951 30.415938 
L 76.947428 36.135676 
L 78.886001 44.013432 
L 81.147669 54.245994 
L 85.671004 76.139572 
L 88.578863 89.629946 
L 90.517436 97.719968 
L 92.132913 103.661982 
L 93.74839 108.719955 
L 95.040772 112.045316 
L 96.333153 114.672261 
L 97.30244 116.158779 
L 98.271726 117.215701 
L 98.917917 117.676858 
L 99.564108 117.941013 
L 100.210298 118.007124 
L 100.856489 117.874931 
L 101.50268 117.544954 
L 102.148871 117.018496 
L 103.118157 115.865162 
L 104.087443 114.284838 
L 105.05673 112.29155 
L 106.349111 109.022534 
L 107.641493 105.102773 
L 109.25697 99.383035 
L 111.195543 91.505279 
L 113.457211 81.272717 
L 117.980547 59.379139 
L 120.888405 45.888765 
L 122.826978 37.798743 
L 124.442455 31.856729 
L 126.057932 26.798756 
L 127.350314 23.473395 
L 128.642696 20.84645 
L 129.611982 19.359932 
L 130.581268 18.30301 
L 131.227459 17.841853 
L 131.87365 17.577698 
L 132.519841 17.511587 
L 133.166031 17.64378 
L 133.812222 17.973757 
L 134.458413 18.500215 
L 135.427699 19.653549 
L 136.396986 21.233873 
L 137.366272 23.227161 
L 138.658654 26.496177 
L 139.951035 30.415938 
L 141.566512 36.135676 
L 143.505085 44.013432 
L 145.766753 54.245994 
L 150.290089 76.139572 
L 153.197948 89.629946 
L 155.13652 97.719968 
L 156.751997 103.661982 
L 158.367474 108.719955 
L 159.659856 112.045316 
L 160.952238 114.672261 
L 161.921524 116.158779 
L 162.89081 117.215701 
L 163.537001 117.676858 
L 164.183192 117.941013 
L 164.829383 118.007124 
L 165.475574 117.874931 
L 166.121765 117.544954 
L 166.767955 117.018496 
L 167.737242 115.865162 
L 168.706528 114.284838 
L 169.675814 112.29155 
L 170.968196 109.022534 
L 172.260578 105.102773 
L 173.876055 99.383035 
L 176.137723 90.325938 
L 177.7532 83.312256 
L 179.691772 73.82379 
L 185.184394 46.298689 
L 187.446062 36.300712 
L 189.06154 30.061597 
L 190.677017 24.750726 
L 191.969398 21.259097 
L 193.26178 18.500804 
L 194.231066 16.93996 
L 195.200353 15.830193 
L 195.846543 15.345978 
L 196.492734 15.068615 
L 197.138925 14.999198 
L 197.785116 15.138001 
L 198.431307 15.484477 
L 199.077498 16.037258 
L 200.046784 17.248259 
L 201.01607 18.907599 
L 201.985356 21.000551 
L 203.277738 24.433018 
L 204.57012 28.548768 
L 206.185597 34.554492 
L 208.124169 42.826136 
L 210.385837 53.570325 
L 214.909173 76.558583 
L 217.817032 90.723476 
L 219.755605 99.217999 
L 221.371082 105.457113 
L 222.986559 110.767984 
L 224.278941 114.259614 
L 225.571322 117.017907 
L 226.540609 118.578751 
L 227.509895 119.688518 
L 228.156086 120.172733 
L 228.802276 120.450096 
L 229.448467 120.519513 
L 230.094658 120.38071 
L 230.740849 120.034234 
L 231.38704 119.481453 
L 232.356326 118.270452 
L 233.325612 116.611112 
L 234.294899 114.51816 
L 235.58728 111.085693 
L 236.879662 106.969943 
L 238.495139 100.964219 
L 240.433712 92.692575 
L 242.69538 81.948386 
L 247.218716 58.960128 
L 250.126574 44.795235 
L 252.065147 36.300712 
L 253.680624 30.061597 
L 255.296101 24.750726 
L 256.588483 21.259097 
L 257.880864 18.500804 
L 258.850151 16.93996 
L 259.819437 15.830193 
L 260.465628 15.345978 
L 261.111819 15.068615 
L 261.75801 14.999198 
L 262.4042 15.138001 
L 263.050391 15.484477 
L 263.696582 16.037258 
L 264.665868 17.248259 
L 265.635155 18.907599 
L 266.604441 21.000551 
L 267.896823 24.433018 
L 269.189204 28.548768 
L 270.804681 34.554492 
L 272.743254 42.826136 
L 275.004922 53.570325 
L 279.528258 76.558583 
L 282.436117 90.723476 
L 284.374689 99.217999 
L 285.990166 105.457113 
L 287.605643 110.767984 
L 288.898025 114.259614 
L 290.190407 117.017907 
L 291.159693 118.578751 
L 292.128979 119.688518 
L 292.77517 120.172733 
L 293.421361 120.450096 
L 294.067552 120.519513 
L 294.713743 120.38071 
L 295.359933 120.034234 
L 296.006124 119.481453 
L 296.975411 118.270452 
L 297.944697 116.611112 
L 298.913983 114.51816 
L 300.206365 111.085693 
L 301.498746 106.969943 
L 301.498746 106.969943 
" style="fill:none;stroke:#337ab7;stroke-width:3;"/>
   </g>
   <g id="line2d_28">
    <path clip-path="url(#p149b4a96f2)" d="M 46.253363 17.508831 
L 46.899554 17.607989 
L 47.545745 17.905072 
L 48.191935 18.398906 
L 49.161222 19.504094 
L 50.130508 21.0376 
L 51.099794 22.985811 
L 52.392176 26.198123 
L 53.684558 30.065881 
L 55.300035 35.728466 
L 57.238607 43.550981 
L 59.500275 53.739906 
L 63.700516 74.057416 
L 66.93147 89.154988 
L 68.870042 97.295873 
L 70.48552 103.291842 
L 72.100997 108.412884 
L 73.393378 111.794226 
L 74.68576 114.481111 
L 75.655046 116.014617 
L 76.624333 117.119805 
L 77.270523 117.613639 
L 77.916714 117.910722 
L 78.562905 118.00988 
L 79.209096 117.910722 
L 79.855287 117.613639 
L 80.501478 117.119805 
L 81.470764 116.014617 
L 82.44005 114.481111 
L 83.409336 112.5329 
L 84.701718 109.320588 
L 85.9941 105.45283 
L 87.609577 99.790245 
L 89.548149 91.96773 
L 91.809817 81.778805 
L 96.010058 61.461295 
L 99.241012 46.363723 
L 101.179585 38.222838 
L 102.795062 32.226869 
L 104.410539 27.105827 
L 105.702921 23.724485 
L 106.995302 21.0376 
L 107.964589 19.504094 
L 108.933875 18.398906 
L 109.580066 17.905072 
L 110.226257 17.607989 
L 110.872447 17.508831 
L 111.518638 17.607989 
L 112.164829 17.905072 
L 112.81102 18.398906 
L 113.780306 19.504094 
L 114.749592 21.0376 
L 115.718879 22.985811 
L 117.01126 26.198123 
L 118.303642 30.065881 
L 119.919119 35.728466 
L 121.857692 43.550981 
L 124.11936 53.739906 
L 128.3196 74.057416 
L 131.550554 89.154988 
L 133.489127 97.295873 
L 135.104604 103.291842 
L 136.720081 108.412884 
L 138.012463 111.794226 
L 139.304845 114.481111 
L 140.274131 116.014617 
L 141.243417 117.119805 
L 141.889608 117.613639 
L 142.535799 117.910722 
L 143.18199 118.00988 
L 143.82818 117.910722 
L 144.474371 117.613639 
L 145.120562 117.119805 
L 146.089848 116.014617 
L 147.059135 114.481111 
L 148.028421 112.5329 
L 149.320803 109.320588 
L 150.613184 105.45283 
L 152.228661 99.790245 
L 154.167234 91.96773 
L 156.428902 81.778805 
L 160.629142 61.461295 
L 163.860097 46.363723 
L 165.798669 38.222838 
L 167.414146 32.226869 
L 169.029623 27.105827 
L 170.322005 23.724485 
L 171.614387 21.0376 
L 172.583673 19.504094 
L 173.552959 18.398906 
L 174.19915 17.905072 
L 174.845341 17.607989 
L 175.491532 17.508831 
L 176.137723 17.607989 
L 176.783913 17.905072 
L 177.430104 18.398906 
L 178.399391 19.504094 
L 179.368677 21.0376 
L 180.337963 22.985811 
L 181.630345 26.198123 
L 182.922727 30.065881 
L 184.538204 35.728466 
L 186.476776 43.550981 
L 188.738444 53.739906 
L 192.938685 74.057416 
L 196.169639 89.154988 
L 198.108211 97.295873 
L 199.723688 103.291842 
L 201.339166 108.412884 
L 202.631547 111.794226 
L 203.923929 114.481111 
L 204.893215 116.014617 
L 205.862501 117.119805 
L 206.508692 117.613639 
L 207.154883 117.910722 
L 207.801074 118.00988 
L 208.447265 117.910722 
L 209.093456 117.613639 
L 209.739647 117.119805 
L 210.708933 116.014617 
L 211.678219 114.481111 
L 212.647505 112.5329 
L 213.939887 109.320588 
L 215.232269 105.45283 
L 216.847746 99.790245 
L 218.786318 91.96773 
L 221.047986 81.778805 
L 225.248227 61.461295 
L 228.479181 46.363723 
L 230.417754 38.222838 
L 232.033231 32.226869 
L 233.648708 27.105827 
L 234.941089 23.724485 
L 236.233471 21.0376 
L 237.202757 19.504094 
L 238.172044 18.398906 
L 238.818235 17.905072 
L 239.464425 17.607989 
L 240.110616 17.508831 
L 240.756807 17.607989 
L 241.402998 17.905072 
L 242.049189 18.398906 
L 243.018475 19.504094 
L 243.987761 21.0376 
L 244.957048 22.985811 
L 246.249429 26.198123 
L 247.541811 30.065881 
L 249.157288 35.728466 
L 251.095861 43.550981 
L 253.357529 53.739906 
L 257.557769 74.057416 
L 260.788723 89.154988 
L 262.727296 97.295873 
L 264.342773 103.291842 
L 265.95825 108.412884 
L 267.250632 111.794226 
L 268.543013 114.481111 
L 269.5123 116.014617 
L 270.481586 117.119805 
L 271.127777 117.613639 
L 271.773968 117.910722 
L 272.420158 118.00988 
L 273.066349 117.910722 
L 273.71254 117.613639 
L 274.358731 117.119805 
L 275.328017 116.014617 
L 276.297304 114.481111 
L 277.26659 112.5329 
L 278.558971 109.320588 
L 279.851353 105.45283 
L 281.46683 99.790245 
L 283.405403 91.96773 
L 285.667071 81.778805 
L 289.867311 61.461295 
L 293.098265 46.363723 
L 295.036838 38.222838 
L 296.652315 32.226869 
L 298.267792 27.105827 
L 299.560174 23.724485 
L 300.852556 21.0376 
L 301.498746 19.968267 
L 301.498746 19.968267 
" style="fill:none;stroke:#f0ad4e;stroke-width:3;"/>
   </g>
   <g id="line2d_29">
    <path clip-path="url(#p149b4a96f2)" d="M 46.253363 92.884618 
L 48.191935 100.594083 
L 49.807413 106.140506 
L 51.099794 109.902991 
L 52.392176 113.000846 
L 53.361462 114.858267 
L 54.330748 116.297635 
L 55.300035 117.306173 
L 55.946226 117.734602 
L 56.592416 117.965801 
L 57.238607 117.998859 
L 57.884798 117.833644 
L 58.530989 117.470809 
L 59.17718 116.911785 
L 60.146466 115.710432 
L 61.115752 114.083462 
L 62.085039 112.045316 
L 63.37742 108.719955 
L 64.669802 104.74862 
L 66.285279 98.972357 
L 68.223852 91.040224 
L 70.48552 80.765148 
L 79.209096 39.95114 
L 81.147669 32.600906 
L 82.763146 27.417356 
L 84.055527 23.980405 
L 85.347909 21.233873 
L 86.317195 19.653549 
L 87.286482 18.500215 
L 88.255768 17.784109 
L 88.901959 17.55291 
L 89.548149 17.519852 
L 90.19434 17.685067 
L 90.840531 18.047902 
L 91.486722 18.606926 
L 92.456008 19.808279 
L 93.425295 21.435249 
L 94.394581 23.473395 
L 95.686963 26.798756 
L 96.979344 30.770091 
L 98.594821 36.546354 
L 100.533394 44.478487 
L 102.795062 54.753563 
L 111.518638 95.567571 
L 113.457211 102.917805 
L 115.072688 108.101354 
L 116.36507 111.538306 
L 117.657451 114.284838 
L 118.626737 115.865162 
L 119.596024 117.018496 
L 120.56531 117.734602 
L 121.211501 117.965801 
L 121.857692 117.998859 
L 122.503883 117.833644 
L 123.150073 117.470809 
L 123.796264 116.911785 
L 124.765551 115.710432 
L 125.734837 114.083462 
L 126.704123 112.045316 
L 127.996505 108.719955 
L 129.288886 104.74862 
L 130.904364 98.972357 
L 132.842936 91.040224 
L 135.104604 80.765148 
L 143.82818 39.95114 
L 145.766753 32.600906 
L 147.38223 27.417356 
L 148.674612 23.980405 
L 149.966993 21.233873 
L 150.93628 19.653549 
L 151.905566 18.500215 
L 152.874852 17.784109 
L 153.521043 17.55291 
L 154.167234 17.519852 
L 154.813425 17.685067 
L 155.459616 18.047902 
L 156.105806 18.606926 
L 157.075093 19.808279 
L 158.044379 21.435249 
L 159.013665 23.473395 
L 160.306047 26.798756 
L 161.598429 30.770091 
L 163.213906 36.546354 
L 165.152478 44.478487 
L 167.414146 54.753563 
L 176.137723 95.567571 
L 178.076295 102.917805 
L 179.691772 108.101354 
L 180.984154 111.538306 
L 182.276536 114.284838 
L 183.245822 115.865162 
L 184.215108 117.018496 
L 185.184394 117.734602 
L 185.830585 117.965801 
L 186.476776 117.998859 
L 187.122967 117.833644 
L 187.769158 117.470809 
L 188.415349 116.911785 
L 189.384635 115.710432 
L 190.353921 114.083462 
L 191.323207 112.045316 
L 192.615589 108.719955 
L 193.907971 104.74862 
L 195.523448 98.972357 
L 197.462021 91.040224 
L 199.723688 80.765148 
L 208.447265 39.95114 
L 210.385837 32.600906 
L 212.001315 27.417356 
L 213.293696 23.980405 
L 214.586078 21.233873 
L 215.555364 19.653549 
L 216.52465 18.500215 
L 217.493937 17.784109 
L 218.140128 17.55291 
L 218.786318 17.519852 
L 219.432509 17.685067 
L 220.0787 18.047902 
L 220.724891 18.606926 
L 221.694177 19.808279 
L 222.663463 21.435249 
L 223.63275 23.473395 
L 224.925131 26.798756 
L 226.217513 30.770091 
L 227.83299 36.546354 
L 229.771563 44.478487 
L 232.033231 54.753563 
L 240.756807 95.567571 
L 242.69538 102.917805 
L 244.310857 108.101354 
L 245.603238 111.538306 
L 246.89562 114.284838 
L 247.864906 115.865162 
L 248.834193 117.018496 
L 249.803479 117.734602 
L 250.44967 117.965801 
L 251.095861 117.998859 
L 251.742051 117.833644 
L 252.388242 117.470809 
L 253.034433 116.911785 
L 254.003719 115.710432 
L 254.973006 114.083462 
L 255.942292 112.045316 
L 257.234674 108.719955 
L 258.527055 104.74862 
L 260.142532 98.972357 
L 262.081105 91.040224 
L 264.342773 80.765148 
L 273.066349 39.95114 
L 275.004922 32.600906 
L 276.620399 27.417356 
L 277.912781 23.980405 
L 279.205162 21.233873 
L 280.174449 19.653549 
L 281.143735 18.500215 
L 282.113021 17.784109 
L 282.759212 17.55291 
L 283.405403 17.519852 
L 284.051594 17.685067 
L 284.697784 18.047902 
L 285.343975 18.606926 
L 286.313262 19.808279 
L 287.282548 21.435249 
L 288.251834 23.473395 
L 289.544216 26.798756 
L 290.836598 30.770091 
L 292.452075 36.546354 
L 294.390647 44.478487 
L 296.652315 54.753563 
L 301.498746 78.207027 
L 301.498746 78.207027 
" style="fill:none;stroke:#5bc0de;stroke-width:3;"/>
   </g>
   <g id="line2d_30">
    <path clip-path="url(#p149b4a96f2)" d="M 46.253363 92.884618 
L 48.515031 82.786312 
L 52.069081 65.655082 
L 55.62313 48.772658 
L 57.884798 39.0807 
L 59.500275 32.978798 
L 61.115752 27.73331 
L 62.408134 24.241125 
L 63.700516 21.435249 
L 64.669802 19.808279 
L 65.639088 18.606926 
L 66.608375 17.841853 
L 67.254565 17.577698 
L 67.900756 17.511587 
L 68.546947 17.64378 
L 69.193138 17.973757 
L 69.839329 18.500215 
L 70.808615 19.653549 
L 71.777901 21.233873 
L 72.747188 23.227161 
L 74.039569 26.496177 
L 75.331951 30.415938 
L 76.947428 36.135676 
L 78.886001 44.013432 
L 81.147669 54.245994 
L 85.671004 76.139572 
L 88.578863 89.629946 
L 90.517436 97.719968 
L 92.132913 103.661982 
L 93.74839 108.719955 
L 95.040772 112.045316 
L 96.333153 114.672261 
L 97.30244 116.158779 
L 98.271726 117.215701 
L 98.917917 117.676858 
L 99.564108 117.941013 
L 100.210298 118.007124 
L 100.856489 117.874931 
L 101.50268 117.544954 
L 102.148871 117.018496 
L 103.118157 115.865162 
L 104.087443 114.284838 
L 105.05673 112.29155 
L 106.349111 109.022534 
L 107.641493 105.102773 
L 109.25697 99.383035 
L 111.195543 91.505279 
L 113.457211 81.272717 
L 117.980547 59.379139 
L 120.888405 45.888765 
L 122.826978 37.798743 
L 124.442455 31.856729 
L 126.057932 26.798756 
L 127.350314 23.473395 
L 128.642696 20.84645 
L 129.611982 19.359932 
L 130.581268 18.30301 
L 131.227459 17.841853 
L 131.87365 17.577698 
L 132.519841 17.511587 
L 133.166031 17.64378 
L 133.812222 17.973757 
L 134.458413 18.500215 
L 135.427699 19.653549 
L 136.396986 21.233873 
L 137.366272 23.227161 
L 138.658654 26.496177 
L 139.951035 30.415938 
L 141.566512 36.135676 
L 143.505085 44.013432 
L 145.766753 54.245994 
L 150.290089 76.139572 
L 153.197948 89.629946 
L 155.13652 97.719968 
L 156.751997 103.661982 
L 158.367474 108.719955 
L 159.659856 112.045316 
L 160.952238 114.672261 
L 161.921524 116.158779 
L 162.89081 117.215701 
L 163.537001 117.676858 
L 164.183192 117.941013 
L 164.829383 118.007124 
L 165.475574 117.874931 
L 166.121765 117.544954 
L 166.767955 117.018496 
L 167.737242 115.865162 
L 168.706528 114.284838 
L 169.675814 112.29155 
L 170.968196 109.022534 
L 172.260578 105.102773 
L 173.876055 99.383035 
L 175.814627 91.505279 
L 178.076295 81.272717 
L 182.599631 59.379139 
L 185.50749 45.888765 
L 187.446062 37.798743 
L 189.06154 31.856729 
L 190.677017 26.798756 
L 191.969398 23.473395 
L 193.26178 20.84645 
L 194.231066 19.359932 
L 195.200353 18.30301 
L 195.846543 17.841853 
L 196.492734 17.577698 
L 197.138925 17.511587 
L 197.785116 17.64378 
L 198.431307 17.973757 
L 199.077498 18.500215 
L 200.046784 19.653549 
L 201.01607 21.233873 
L 201.985356 23.227161 
L 203.277738 26.496177 
L 204.57012 30.415938 
L 206.185597 36.135676 
L 208.124169 44.013432 
L 210.385837 54.245994 
L 214.909173 76.139572 
L 217.817032 89.629946 
L 219.755605 97.719968 
L 221.371082 103.661982 
L 222.986559 108.719955 
L 224.278941 112.045316 
L 225.571322 114.672261 
L 226.540609 116.158779 
L 227.509895 117.215701 
L 228.156086 117.676858 
L 228.802276 117.941013 
L 229.448467 118.007124 
L 230.094658 117.874931 
L 230.740849 117.544954 
L 231.38704 117.018496 
L 232.356326 115.865162 
L 233.325612 114.284838 
L 234.294899 112.29155 
L 235.58728 109.022534 
L 236.879662 105.102773 
L 238.495139 99.383035 
L 240.433712 91.505279 
L 242.69538 81.272717 
L 247.218716 59.379139 
L 250.126574 45.888765 
L 252.065147 37.798743 
L 253.680624 31.856729 
L 255.296101 26.798756 
L 256.588483 23.473395 
L 257.880864 20.84645 
L 258.850151 19.359932 
L 259.819437 18.30301 
L 260.465628 17.841853 
L 261.111819 17.577698 
L 261.75801 17.511587 
L 262.4042 17.64378 
L 263.050391 17.973757 
L 263.696582 18.500215 
L 264.665868 19.653549 
L 265.635155 21.233873 
L 266.604441 23.227161 
L 267.896823 26.496177 
L 269.189204 30.415938 
L 270.804681 36.135676 
L 272.743254 44.013432 
L 275.004922 54.245994 
L 279.528258 76.139572 
L 282.436117 89.629946 
L 284.374689 97.719968 
L 285.990166 103.661982 
L 287.605643 108.719955 
L 288.898025 112.045316 
L 290.190407 114.672261 
L 291.159693 116.158779 
L 292.128979 117.215701 
L 292.77517 117.676858 
L 293.421361 117.941013 
L 294.067552 118.007124 
L 294.713743 117.874931 
L 295.359933 117.544954 
L 296.006124 117.018496 
L 296.975411 115.865162 
L 297.944697 114.284838 
L 298.913983 112.29155 
L 300.206365 109.022534 
L 301.498746 105.102773 
L 301.498746 105.102773 
" style="fill:none;stroke:#5e4485;stroke-width:3;"/>
   </g>
   <g id="patch_2">
    <path d="M 33.491094 125.798711 
L 33.491094 9.72 
" style="fill:none;stroke:#ffffff;stroke-linecap:square;stroke-linejoin:miter;stroke-width:2;"/>
   </g>
   <g id="patch_3">
    <path d="M 314.261016 125.798711 
L 314.261016 9.72 
" style="fill:none;stroke:#ffffff;stroke-linecap:square;stroke-linejoin:miter;stroke-width:2;"/>
   </g>
   <g id="patch_4">
    <path d="M 33.491094 125.798711 
L 314.261016 125.798711 
" style="fill:none;stroke:#ffffff;stroke-linecap:square;stroke-linejoin:miter;stroke-width:2;"/>
   </g>
   <g id="patch_5">
    <path d="M 33.491094 9.72 
L 314.261016 9.72 
" style="fill:none;stroke:#ffffff;stroke-linecap:square;stroke-linejoin:miter;stroke-width:2;"/>
   </g>
  </g>
  <g id="axes_2">
   <g id="patch_6">
    <path d="M 357.510078 125.798711 
L 638.28 125.798711 
L 638.28 9.72 
L 357.510078 9.72 
z
" style="fill:#ffffff;"/>
   </g>
   <g id="matplotlib.axis_3">
    <g id="xtick_10">
     <g id="line2d_31">
      <path clip-path="url(#pda8fb9126e)" d="M 370.272347 125.798711 
L 370.272347 9.72 
" style="fill:none;stroke:#cbcbcb;"/>
     </g>
     <g id="line2d_32"/>
     <g id="text_13">
      <text style="font-family:Arial;font-size:9px;font-stretch:normal;font-style:normal;font-weight:normal;text-anchor:middle;" transform="rotate(-0, 370.272347, 135.740742)" x="370.272347" y="135.740742">0.00</text>
     </g>
    </g>
    <g id="xtick_11">
     <g id="line2d_33">
      <path clip-path="url(#pda8fb9126e)" d="M 402.58189 125.798711 
L 402.58189 9.72 
" style="fill:none;stroke:#cbcbcb;"/>
     </g>
     <g id="line2d_34"/>
     <g id="text_14">
      <text style="font-family:Arial;font-size:9px;font-stretch:normal;font-style:normal;font-weight:normal;text-anchor:middle;" transform="rotate(-0, 402.58189, 135.740742)" x="402.58189" y="135.740742">0.01</text>
     </g>
    </g>
    <g id="xtick_12">
     <g id="line2d_35">
      <path clip-path="url(#pda8fb9126e)" d="M 434.891432 125.798711 
L 434.891432 9.72 
" style="fill:none;stroke:#cbcbcb;"/>
     </g>
     <g id="line2d_36"/>
     <g id="text_15">
      <text style="font-family:Arial;font-size:9px;font-stretch:normal;font-style:normal;font-weight:normal;text-anchor:middle;" transform="rotate(-0, 434.891432, 135.740742)" x="434.891432" y="135.740742">0.02</text>
     </g>
    </g>
    <g id="xtick_13">
     <g id="line2d_37">
      <path clip-path="url(#pda8fb9126e)" d="M 467.200974 125.798711 
L 467.200974 9.72 
" style="fill:none;stroke:#cbcbcb;"/>
     </g>
     <g id="line2d_38"/>
     <g id="text_16">
      <text style="font-family:Arial;font-size:9px;font-stretch:normal;font-style:normal;font-weight:normal;text-anchor:middle;" transform="rotate(-0, 467.200974, 135.740742)" x="467.200974" y="135.740742">0.03</text>
     </g>
    </g>
    <g id="xtick_14">
     <g id="line2d_39">
      <path clip-path="url(#pda8fb9126e)" d="M 499.510516 125.798711 
L 499.510516 9.72 
" style="fill:none;stroke:#cbcbcb;"/>
     </g>
     <g id="line2d_40"/>
     <g id="text_17">
      <text style="font-family:Arial;font-size:9px;font-stretch:normal;font-style:normal;font-weight:normal;text-anchor:middle;" transform="rotate(-0, 499.510516, 135.740742)" x="499.510516" y="135.740742">0.04</text>
     </g>
    </g>
    <g id="xtick_15">
     <g id="line2d_41">
      <path clip-path="url(#pda8fb9126e)" d="M 531.820058 125.798711 
L 531.820058 9.72 
" style="fill:none;stroke:#cbcbcb;"/>
     </g>
     <g id="line2d_42"/>
     <g id="text_18">
      <text style="font-family:Arial;font-size:9px;font-stretch:normal;font-style:normal;font-weight:normal;text-anchor:middle;" transform="rotate(-0, 531.820058, 135.740742)" x="531.820058" y="135.740742">0.05</text>
     </g>
    </g>
    <g id="xtick_16">
     <g id="line2d_43">
      <path clip-path="url(#pda8fb9126e)" d="M 564.129601 125.798711 
L 564.129601 9.72 
" style="fill:none;stroke:#cbcbcb;"/>
     </g>
     <g id="line2d_44"/>
     <g id="text_19">
      <text style="font-family:Arial;font-size:9px;font-stretch:normal;font-style:normal;font-weight:normal;text-anchor:middle;" transform="rotate(-0, 564.129601, 135.740742)" x="564.129601" y="135.740742">0.06</text>
     </g>
    </g>
    <g id="xtick_17">
     <g id="line2d_45">
      <path clip-path="url(#pda8fb9126e)" d="M 596.439143 125.798711 
L 596.439143 9.72 
" style="fill:none;stroke:#cbcbcb;"/>
     </g>
     <g id="line2d_46"/>
     <g id="text_20">
      <text style="font-family:Arial;font-size:9px;font-stretch:normal;font-style:normal;font-weight:normal;text-anchor:middle;" transform="rotate(-0, 596.439143, 135.740742)" x="596.439143" y="135.740742">0.07</text>
     </g>
    </g>
    <g id="xtick_18">
     <g id="line2d_47">
      <path clip-path="url(#pda8fb9126e)" d="M 628.748685 125.798711 
L 628.748685 9.72 
" style="fill:none;stroke:#cbcbcb;"/>
     </g>
     <g id="line2d_48"/>
     <g id="text_21">
      <text style="font-family:Arial;font-size:9px;font-stretch:normal;font-style:normal;font-weight:normal;text-anchor:middle;" transform="rotate(-0, 628.748685, 135.740742)" x="628.748685" y="135.740742">0.08</text>
     </g>
    </g>
   </g>
   <g id="matplotlib.axis_4">
    <g id="ytick_4">
     <g id="line2d_49">
      <path clip-path="url(#pda8fb9126e)" d="M 357.510078 115.624092 
L 638.28 115.624092 
" style="fill:none;stroke:#cbcbcb;"/>
     </g>
     <g id="line2d_50"/>
     <g id="text_22">
      <text style="font-family:Arial;font-size:9px;font-stretch:normal;font-style:normal;font-weight:normal;text-anchor:end;" transform="rotate(-0, 354.010078, 118.845107)" x="354.010078" y="118.845107">−400</text>
     </g>
    </g>
    <g id="ytick_5">
     <g id="line2d_51">
      <path clip-path="url(#pda8fb9126e)" d="M 357.510078 91.691724 
L 638.28 91.691724 
" style="fill:none;stroke:#cbcbcb;"/>
     </g>
     <g id="line2d_52"/>
     <g id="text_23">
      <text style="font-family:Arial;font-size:9px;font-stretch:normal;font-style:normal;font-weight:normal;text-anchor:end;" transform="rotate(-0, 354.010078, 94.912739)" x="354.010078" y="94.912739">−200</text>
     </g>
    </g>
    <g id="ytick_6">
     <g id="line2d_53">
      <path clip-path="url(#pda8fb9126e)" d="M 357.510078 67.759355 
L 638.28 67.759355 
" style="fill:none;stroke:#cbcbcb;"/>
     </g>
     <g id="line2d_54"/>
     <g id="text_24">
      <text style="font-family:Arial;font-size:9px;font-stretch:normal;font-style:normal;font-weight:normal;text-anchor:end;" transform="rotate(-0, 354.010078, 70.980371)" x="354.010078" y="70.980371">0</text>
     </g>
    </g>
    <g id="ytick_7">
     <g id="line2d_55">
      <path clip-path="url(#pda8fb9126e)" d="M 357.510078 43.826987 
L 638.28 43.826987 
" style="fill:none;stroke:#cbcbcb;"/>
     </g>
     <g id="line2d_56"/>
     <g id="text_25">
      <text style="font-family:Arial;font-size:9px;font-stretch:normal;font-style:normal;font-weight:normal;text-anchor:end;" transform="rotate(-0, 354.010078, 47.048003)" x="354.010078" y="47.048003">200</text>
     </g>
    </g>
    <g id="ytick_8">
     <g id="line2d_57">
      <path clip-path="url(#pda8fb9126e)" d="M 357.510078 19.894619 
L 638.28 19.894619 
" style="fill:none;stroke:#cbcbcb;"/>
     </g>
     <g id="line2d_58"/>
     <g id="text_26">
      <text style="font-family:Arial;font-size:9px;font-stretch:normal;font-style:normal;font-weight:normal;text-anchor:end;" transform="rotate(-0, 354.010078, 23.115635)" x="354.010078" y="23.115635">400</text>
     </g>
    </g>
   </g>
   <g id="line2d_59">
    <path clip-path="url(#pda8fb9126e)" d="M 370.272347 67.759355 
L 499.510516 67.759355 
L 501.449089 37.15112 
L 502.74147 15.459028 
L 503.387661 15.124268 
L 504.033852 14.997234 
L 504.680043 15.078429 
L 505.326234 15.367531 
L 505.972425 15.863399 
L 506.941711 16.990388 
L 507.910997 18.568005 
L 508.880283 20.582248 
L 510.172665 23.915661 
L 511.465047 27.940515 
L 513.080524 33.846264 
L 514.696001 40.587066 
L 516.957669 51.107812 
L 520.511719 69.051818 
L 524.388864 88.378725 
L 526.650532 98.476848 
L 528.266009 104.809704 
L 529.881486 110.230257 
L 531.173868 113.819307 
L 532.466249 116.681964 
L 533.435536 118.324651 
L 534.404822 119.518517 
L 535.051013 120.059683 
L 535.697203 120.394443 
L 536.343394 120.521477 
L 536.989585 120.440282 
L 537.635776 120.15118 
L 538.281967 119.655311 
L 539.251253 118.528323 
L 540.220539 116.950706 
L 541.189826 114.936463 
L 542.482207 111.60305 
L 543.774589 107.578196 
L 545.390066 101.672447 
L 547.005543 94.931645 
L 549.267211 84.410898 
L 552.821261 66.466893 
L 556.698406 47.139986 
L 558.960074 37.041863 
L 560.575551 30.709007 
L 562.191028 25.288454 
L 563.48341 21.699404 
L 564.775791 18.836747 
L 565.745078 17.19406 
L 566.714364 16.000194 
L 567.360555 15.459028 
L 568.006746 15.124268 
L 568.652937 14.997234 
L 569.299127 15.078429 
L 569.945318 15.367531 
L 570.591509 15.863399 
L 571.560795 16.990388 
L 572.530082 18.568005 
L 573.499368 20.582248 
L 574.79175 23.915661 
L 576.084131 27.940515 
L 577.699608 33.846264 
L 579.315085 40.587066 
L 581.576753 51.107812 
L 585.130803 69.051818 
L 589.007948 88.378725 
L 591.269616 98.476848 
L 592.885093 104.809704 
L 594.50057 110.230257 
L 595.792952 113.819307 
L 597.085334 116.681964 
L 598.05462 118.324651 
L 599.023906 119.518517 
L 599.670097 120.059683 
L 600.316288 120.394443 
L 600.962479 120.521477 
L 601.60867 120.440282 
L 602.25486 120.15118 
L 602.901051 119.655311 
L 603.870338 118.528323 
L 604.839624 116.950706 
L 605.80891 114.936463 
L 607.101292 111.60305 
L 608.393673 107.578196 
L 610.009151 101.672447 
L 611.624628 94.931645 
L 613.886296 84.410898 
L 617.440345 66.466893 
L 621.31749 47.139986 
L 623.579158 37.041863 
L 625.194635 30.709007 
L 625.517731 29.547295 
L 625.517731 29.547295 
" style="fill:none;stroke:#d9524f;stroke-width:3;"/>
   </g>
   <g id="line2d_60">
    <path clip-path="url(#pda8fb9126e)" d="M 370.272347 67.759355 
L 499.510516 67.759355 
L 499.833612 68.329529 
L 500.479802 70.454591 
L 501.125993 73.874881 
L 501.772184 78.560155 
L 503.064566 89.391327 
L 505.003138 98.025924 
L 506.618615 104.414283 
L 508.234093 109.900077 
L 509.526474 113.547256 
L 510.818856 116.472333 
L 511.788142 118.164061 
L 512.757428 119.408394 
L 513.726715 120.194286 
L 514.372906 120.45991 
L 515.019096 120.517549 
L 515.665287 120.366976 
L 516.311478 120.008785 
L 516.957669 119.444389 
L 517.926955 118.216254 
L 518.896242 116.54026 
L 519.865528 114.431284 
L 521.157909 110.978674 
L 522.450291 106.84447 
L 524.065768 100.818491 
L 526.004341 92.527316 
L 528.266009 81.767776 
L 533.11244 57.146533 
L 536.020299 43.148265 
L 537.958871 34.838748 
L 539.574349 28.793702 
L 540.86673 24.642101 
L 542.159112 21.170485 
L 543.128398 19.046378 
L 544.097684 17.35465 
L 545.066971 16.110317 
L 546.036257 15.324425 
L 546.682448 15.058801 
L 547.328639 15.001162 
L 547.97483 15.151735 
L 548.62102 15.509926 
L 549.267211 16.074322 
L 550.236497 17.302457 
L 551.205784 18.978451 
L 552.17507 21.087427 
L 553.467452 24.540037 
L 554.759833 28.674241 
L 556.37531 34.70022 
L 558.313883 42.991395 
L 560.575551 53.750935 
L 565.421982 78.372178 
L 568.329841 92.370446 
L 570.268414 100.679963 
L 571.883891 106.725009 
L 573.176272 110.87661 
L 574.468654 114.348225 
L 575.43794 116.472333 
L 576.407227 118.164061 
L 577.376513 119.408394 
L 578.345799 120.194286 
L 578.99199 120.45991 
L 579.638181 120.517549 
L 580.284372 120.366976 
L 580.930563 120.008785 
L 581.576753 119.444389 
L 582.54604 118.216254 
L 583.515326 116.54026 
L 584.484612 114.431284 
L 585.776994 110.978674 
L 587.069376 106.84447 
L 588.684853 100.818491 
L 590.623425 92.527316 
L 592.885093 81.767776 
L 597.731525 57.146533 
L 600.639383 43.148265 
L 602.577956 34.838748 
L 604.193433 28.793702 
L 605.485815 24.642101 
L 606.778196 21.170485 
L 607.747483 19.046378 
L 608.716769 17.35465 
L 609.686055 16.110317 
L 610.655341 15.324425 
L 611.301532 15.058801 
L 611.947723 15.001162 
L 612.593914 15.151735 
L 613.240105 15.509926 
L 613.886296 16.074322 
L 614.855582 17.302457 
L 615.824868 18.978451 
L 616.794154 21.087427 
L 618.086536 24.540037 
L 619.378918 28.674241 
L 620.994395 34.70022 
L 622.932967 42.991395 
L 625.194635 53.750935 
L 625.517731 55.355707 
L 625.517731 55.355707 
" style="fill:none;stroke:#5cb85c;stroke-width:3;"/>
   </g>
   <g id="line2d_61">
    <path clip-path="url(#pda8fb9126e)" d="M 370.272347 67.759355 
L 499.510516 67.759355 
L 500.802898 83.541012 
L 501.772184 92.946825 
L 502.74147 99.950033 
L 504.680043 91.5462 
L 506.941711 80.699366 
L 515.019096 40.739373 
L 516.957669 32.725865 
L 518.573146 26.985198 
L 519.865528 23.109562 
L 521.157909 19.938079 
L 522.127196 18.052097 
L 523.096482 16.60732 
L 524.065768 15.616572 
L 524.711959 15.212822 
L 525.35815 15.01645 
L 526.004341 15.02823 
L 526.650532 15.248116 
L 527.296722 15.67524 
L 527.942913 16.307916 
L 528.9122 17.636659 
L 529.881486 19.410294 
L 530.850772 21.613079 
L 532.143154 25.183371 
L 533.435536 29.425112 
L 535.051013 35.568678 
L 536.989585 43.972511 
L 539.251253 54.819345 
L 547.328639 94.779338 
L 549.267211 102.792846 
L 550.882688 108.533513 
L 552.17507 112.409149 
L 553.467452 115.580632 
L 554.436738 117.466614 
L 555.406024 118.911391 
L 556.37531 119.902139 
L 557.021501 120.305889 
L 557.667692 120.502261 
L 558.313883 120.49048 
L 558.960074 120.270595 
L 559.606265 119.843471 
L 560.252456 119.210795 
L 561.221742 117.882052 
L 562.191028 116.108417 
L 563.160314 113.905632 
L 564.452696 110.33534 
L 565.745078 106.093599 
L 567.360555 99.950033 
L 569.299127 91.5462 
L 571.560795 80.699366 
L 579.638181 40.739373 
L 581.576753 32.725865 
L 583.192231 26.985198 
L 584.484612 23.109562 
L 585.776994 19.938079 
L 586.74628 18.052097 
L 587.715566 16.60732 
L 588.684853 15.616572 
L 589.331044 15.212822 
L 589.977234 15.01645 
L 590.623425 15.02823 
L 591.269616 15.248116 
L 591.915807 15.67524 
L 592.561998 16.307916 
L 593.531284 17.636659 
L 594.50057 19.410294 
L 595.469857 21.613079 
L 596.762238 25.183371 
L 598.05462 29.425112 
L 599.670097 35.568678 
L 601.60867 43.972511 
L 603.870338 54.819345 
L 611.947723 94.779338 
L 613.886296 102.792846 
L 615.501773 108.533513 
L 616.794154 112.409149 
L 618.086536 115.580632 
L 619.055822 117.466614 
L 620.025109 118.911391 
L 620.994395 119.902139 
L 621.640586 120.305889 
L 622.286777 120.502261 
L 622.932967 120.49048 
L 623.579158 120.270595 
L 624.225349 119.843471 
L 624.87154 119.210795 
L 625.517731 118.375064 
L 625.517731 118.375064 
" style="fill:none;stroke:#337ab7;stroke-width:3;"/>
   </g>
   <g id="patch_7">
    <path d="M 357.510078 125.798711 
L 357.510078 9.72 
" style="fill:none;stroke:#ffffff;stroke-linecap:square;stroke-linejoin:miter;stroke-width:2;"/>
   </g>
   <g id="patch_8">
    <path d="M 638.28 125.798711 
L 638.28 9.72 
" style="fill:none;stroke:#ffffff;stroke-linecap:square;stroke-linejoin:miter;stroke-width:2;"/>
   </g>
   <g id="patch_9">
    <path d="M 357.510078 125.798711 
L 638.28 125.798711 
" style="fill:none;stroke:#ffffff;stroke-linecap:square;stroke-linejoin:miter;stroke-width:2;"/>
   </g>
   <g id="patch_10">
    <path d="M 357.510078 9.72 
L 638.28 9.72 
" style="fill:none;stroke:#ffffff;stroke-linecap:square;stroke-linejoin:miter;stroke-width:2;"/>
   </g>
  </g>
  <g id="axes_3">
   <g id="patch_11">
    <path d="M 33.491094 266.549219 
L 314.261016 266.549219 
L 314.261016 150.470508 
L 33.491094 150.470508 
z
" style="fill:#ffffff;"/>
   </g>
   <g id="matplotlib.axis_5">
    <g id="xtick_19">
     <g id="line2d_62">
      <path clip-path="url(#p408ce63859)" d="M 46.253363 266.549219 
L 46.253363 150.470508 
" style="fill:none;stroke:#cbcbcb;"/>
     </g>
     <g id="line2d_63"/>
     <g id="text_27">
      <text style="font-family:Arial;font-size:9px;font-stretch:normal;font-style:normal;font-weight:normal;text-anchor:middle;" transform="rotate(-0, 46.253363, 276.49125)" x="46.253363" y="276.49125">0.00</text>
     </g>
    </g>
    <g id="xtick_20">
     <g id="line2d_64">
      <path clip-path="url(#p408ce63859)" d="M 78.562905 266.549219 
L 78.562905 150.470508 
" style="fill:none;stroke:#cbcbcb;"/>
     </g>
     <g id="line2d_65"/>
     <g id="text_28">
      <text style="font-family:Arial;font-size:9px;font-stretch:normal;font-style:normal;font-weight:normal;text-anchor:middle;" transform="rotate(-0, 78.562905, 276.49125)" x="78.562905" y="276.49125">0.01</text>
     </g>
    </g>
    <g id="xtick_21">
     <g id="line2d_66">
      <path clip-path="url(#p408ce63859)" d="M 110.872447 266.549219 
L 110.872447 150.470508 
" style="fill:none;stroke:#cbcbcb;"/>
     </g>
     <g id="line2d_67"/>
     <g id="text_29">
      <text style="font-family:Arial;font-size:9px;font-stretch:normal;font-style:normal;font-weight:normal;text-anchor:middle;" transform="rotate(-0, 110.872447, 276.49125)" x="110.872447" y="276.49125">0.02</text>
     </g>
    </g>
    <g id="xtick_22">
     <g id="line2d_68">
      <path clip-path="url(#p408ce63859)" d="M 143.18199 266.549219 
L 143.18199 150.470508 
" style="fill:none;stroke:#cbcbcb;"/>
     </g>
     <g id="line2d_69"/>
     <g id="text_30">
      <text style="font-family:Arial;font-size:9px;font-stretch:normal;font-style:normal;font-weight:normal;text-anchor:middle;" transform="rotate(-0, 143.18199, 276.49125)" x="143.18199" y="276.49125">0.03</text>
     </g>
    </g>
    <g id="xtick_23">
     <g id="line2d_70">
      <path clip-path="url(#p408ce63859)" d="M 175.491532 266.549219 
L 175.491532 150.470508 
" style="fill:none;stroke:#cbcbcb;"/>
     </g>
     <g id="line2d_71"/>
     <g id="text_31">
      <text style="font-family:Arial;font-size:9px;font-stretch:normal;font-style:normal;font-weight:normal;text-anchor:middle;" transform="rotate(-0, 175.491532, 276.49125)" x="175.491532" y="276.49125">0.04</text>
     </g>
    </g>
    <g id="xtick_24">
     <g id="line2d_72">
      <path clip-path="url(#p408ce63859)" d="M 207.801074 266.549219 
L 207.801074 150.470508 
" style="fill:none;stroke:#cbcbcb;"/>
     </g>
     <g id="line2d_73"/>
     <g id="text_32">
      <text style="font-family:Arial;font-size:9px;font-stretch:normal;font-style:normal;font-weight:normal;text-anchor:middle;" transform="rotate(-0, 207.801074, 276.49125)" x="207.801074" y="276.49125">0.05</text>
     </g>
    </g>
    <g id="xtick_25">
     <g id="line2d_74">
      <path clip-path="url(#p408ce63859)" d="M 240.110616 266.549219 
L 240.110616 150.470508 
" style="fill:none;stroke:#cbcbcb;"/>
     </g>
     <g id="line2d_75"/>
     <g id="text_33">
      <text style="font-family:Arial;font-size:9px;font-stretch:normal;font-style:normal;font-weight:normal;text-anchor:middle;" transform="rotate(-0, 240.110616, 276.49125)" x="240.110616" y="276.49125">0.06</text>
     </g>
    </g>
    <g id="xtick_26">
     <g id="line2d_76">
      <path clip-path="url(#p408ce63859)" d="M 272.420158 266.549219 
L 272.420158 150.470508 
" style="fill:none;stroke:#cbcbcb;"/>
     </g>
     <g id="line2d_77"/>
     <g id="text_34">
      <text style="font-family:Arial;font-size:9px;font-stretch:normal;font-style:normal;font-weight:normal;text-anchor:middle;" transform="rotate(-0, 272.420158, 276.49125)" x="272.420158" y="276.49125">0.07</text>
     </g>
    </g>
    <g id="xtick_27">
     <g id="line2d_78">
      <path clip-path="url(#p408ce63859)" d="M 304.729701 266.549219 
L 304.729701 150.470508 
" style="fill:none;stroke:#cbcbcb;"/>
     </g>
     <g id="line2d_79"/>
     <g id="text_35">
      <text style="font-family:Arial;font-size:9px;font-stretch:normal;font-style:normal;font-weight:normal;text-anchor:middle;" transform="rotate(-0, 304.729701, 276.49125)" x="304.729701" y="276.49125">0.08</text>
     </g>
    </g>
   </g>
   <g id="matplotlib.axis_6">
    <g id="ytick_9">
     <g id="line2d_80">
      <path clip-path="url(#p408ce63859)" d="M 33.491094 266.549219 
L 314.261016 266.549219 
" style="fill:none;stroke:#cbcbcb;"/>
     </g>
     <g id="line2d_81"/>
     <g id="text_36">
      <text style="font-family:Arial;font-size:9px;font-stretch:normal;font-style:normal;font-weight:normal;text-anchor:end;" transform="rotate(-0, 29.991094, 269.770234)" x="29.991094" y="269.770234">315</text>
     </g>
    </g>
    <g id="ytick_10">
     <g id="line2d_82">
      <path clip-path="url(#p408ce63859)" d="M 33.491094 237.529541 
L 314.261016 237.529541 
" style="fill:none;stroke:#cbcbcb;"/>
     </g>
     <g id="line2d_83"/>
     <g id="text_37">
      <text style="font-family:Arial;font-size:9px;font-stretch:normal;font-style:normal;font-weight:normal;text-anchor:end;" transform="rotate(-0, 29.991094, 240.750557)" x="29.991094" y="240.750557">320</text>
     </g>
    </g>
    <g id="ytick_11">
     <g id="line2d_84">
      <path clip-path="url(#p408ce63859)" d="M 33.491094 208.509863 
L 314.261016 208.509863 
" style="fill:none;stroke:#cbcbcb;"/>
     </g>
     <g id="line2d_85"/>
     <g id="text_38">
      <text style="font-family:Arial;font-size:9px;font-stretch:normal;font-style:normal;font-weight:normal;text-anchor:end;" transform="rotate(-0, 29.991094, 211.730879)" x="29.991094" y="211.730879">325</text>
     </g>
    </g>
    <g id="ytick_12">
     <g id="line2d_86">
      <path clip-path="url(#p408ce63859)" d="M 33.491094 179.490186 
L 314.261016 179.490186 
" style="fill:none;stroke:#cbcbcb;"/>
     </g>
     <g id="line2d_87"/>
     <g id="text_39">
      <text style="font-family:Arial;font-size:9px;font-stretch:normal;font-style:normal;font-weight:normal;text-anchor:end;" transform="rotate(-0, 29.991094, 182.711201)" x="29.991094" y="182.711201">330</text>
     </g>
    </g>
    <g id="ytick_13">
     <g id="line2d_88">
      <path clip-path="url(#p408ce63859)" d="M 33.491094 150.470508 
L 314.261016 150.470508 
" style="fill:none;stroke:#cbcbcb;"/>
     </g>
     <g id="line2d_89"/>
     <g id="text_40">
      <text style="font-family:Arial;font-size:9px;font-stretch:normal;font-style:normal;font-weight:normal;text-anchor:end;" transform="rotate(-0, 29.991094, 153.691523)" x="29.991094" y="153.691523">335</text>
     </g>
    </g>
   </g>
   <g id="line2d_90">
    <path clip-path="url(#p408ce63859)" d="M 46.253363 199.231504 
L 46.576458 200.166847 
L 46.899554 202.971954 
L 47.222649 207.644055 
L 47.86884 222.568961 
L 48.515031 244.882664 
L 49.161222 274.497102 
L 49.428836 289 
M 107.696974 289 
L 108.610779 244.882664 
L 109.25697 222.568961 
L 109.903161 207.644055 
L 110.226257 202.971954 
L 110.549352 200.166847 
L 110.872447 199.231504 
L 111.195543 200.166847 
L 111.518638 202.971954 
L 111.841734 207.644055 
L 112.487924 222.568961 
L 113.134115 244.882664 
L 113.780306 274.497102 
L 114.047921 289 
M 172.316058 289 
L 173.229864 244.882664 
L 173.876055 222.568961 
L 174.522246 207.644055 
L 174.845341 202.971954 
L 175.168436 200.166847 
L 175.491532 199.231504 
L 176.137723 184.053784 
L 176.460818 179.336882 
L 176.783913 176.566333 
L 177.107009 175.763462 
L 177.430104 176.947581 
L 177.7532 180.135946 
L 178.076295 185.343726 
L 178.722486 201.867576 
L 179.691772 268.149504 
L 179.953593 289 
M 235.648555 289 
L 236.556567 222.120725 
L 237.525853 166.983676 
L 238.172044 139.707943 
L 238.818235 120.148022 
L 239.464425 108.381105 
L 239.787521 105.435744 
L 240.110616 104.453633 
L 240.433712 105.435744 
L 240.756807 108.381105 
L 241.079903 113.286812 
L 241.726093 128.957964 
L 242.372284 152.387352 
L 243.018475 183.482512 
L 243.987761 244.221971 
L 244.572677 289 
M 300.267639 289 
L 301.175651 222.120725 
L 301.498746 201.867576 
L 301.498746 201.867576 
" style="fill:none;stroke:#d9524f;stroke-width:3;"/>
   </g>
   <g id="line2d_91">
    <path clip-path="url(#p408ce63859)" d="M 86.158988 289 
L 86.963386 249.314211 
L 87.609577 225.77682 
L 88.255768 209.615566 
L 88.578863 204.322067 
L 88.901959 200.89423 
L 89.225054 199.335439 
L 89.548149 199.647231 
L 89.871245 201.8293 
L 90.19434 205.879491 
L 90.840531 219.566413 
L 91.486722 240.653981 
L 92.132913 269.058974 
L 92.508339 289 
M 150.778072 289 
L 151.582471 249.314211 
L 152.228661 225.77682 
L 152.874852 209.615566 
L 153.197948 204.322067 
L 153.521043 200.89423 
L 153.844139 199.335439 
L 154.167234 199.647231 
L 154.490329 201.8293 
L 154.813425 205.879491 
L 155.459616 219.566413 
L 156.105806 240.653981 
L 156.751997 269.058974 
L 157.127424 289 
M 214.109902 289 
L 214.909173 229.283503 
L 215.87846 172.272664 
L 216.52465 143.720611 
L 217.170841 122.868533 
L 217.817032 109.798724 
L 218.140128 106.199496 
L 218.463223 104.562765 
L 218.786318 104.890147 
L 219.109414 107.181319 
L 219.432509 111.434019 
L 220.0787 125.805288 
L 220.724891 147.947235 
L 221.371082 177.772476 
L 222.340368 236.650854 
L 223.03332 289 
M 278.728987 289 
L 279.528258 229.283503 
L 280.497544 172.272664 
L 281.143735 143.720611 
L 281.789926 122.868533 
L 282.436117 109.798724 
L 282.759212 106.199496 
L 283.082307 104.562765 
L 283.405403 104.890147 
L 283.728498 107.181319 
L 284.051594 111.434019 
L 284.697784 125.805288 
L 285.343975 147.947235 
L 285.990166 177.772476 
L 286.959452 236.650854 
L 287.652404 289 
L 287.652404 289 
" style="fill:none;stroke:#5cb85c;stroke-width:3;"/>
   </g>
   <g id="line2d_92">
    <path clip-path="url(#p408ce63859)" d="M 64.617471 289 
L 65.315993 253.948134 
L 65.962184 229.189636 
L 66.608375 211.793807 
L 67.254565 201.8293 
L 67.577661 199.647231 
L 67.900756 199.335439 
L 68.223852 200.89423 
L 68.546947 204.322067 
L 68.870042 209.615566 
L 69.516233 225.77682 
L 70.162424 249.314211 
L 70.966823 289 
M 129.236556 289 
L 129.935077 253.948134 
L 130.581268 229.189636 
L 131.227459 211.793807 
L 131.87365 201.8293 
L 132.196745 199.647231 
L 132.519841 199.335439 
L 132.842936 200.89423 
L 133.166031 204.322067 
L 133.489127 209.615566 
L 134.135318 225.77682 
L 134.781509 249.314211 
L 135.585907 289 
M 192.568828 289 
L 193.26178 236.650854 
L 194.231066 177.772476 
L 194.877257 147.947235 
L 195.523448 125.805288 
L 196.169639 111.434019 
L 196.492734 107.181319 
L 196.81583 104.890147 
L 197.138925 104.562765 
L 197.462021 106.199496 
L 197.785116 109.798724 
L 198.108211 115.356898 
L 198.754402 132.326215 
L 199.400593 157.040475 
L 200.046784 189.402143 
L 201.01607 251.996024 
L 201.492246 289 
M 257.187913 289 
L 257.880864 236.650854 
L 258.850151 177.772476 
L 259.496342 147.947235 
L 260.142532 125.805288 
L 260.788723 111.434019 
L 261.111819 107.181319 
L 261.434914 104.890147 
L 261.75801 104.562765 
L 262.081105 106.199496 
L 262.4042 109.798724 
L 262.727296 115.356898 
L 263.373487 132.326215 
L 264.019677 157.040475 
L 264.665868 189.402143 
L 265.635155 251.996024 
L 266.11133 289 
L 266.11133 289 
" style="fill:none;stroke:#337ab7;stroke-width:3;"/>
   </g>
   <g id="line2d_93">
    <path clip-path="url(#p408ce63859)" d="M 46.253363 199.231504 
L 46.576458 200.166847 
L 46.899554 202.971954 
L 47.222649 207.644055 
L 47.86884 222.568961 
L 48.515031 244.882664 
L 49.161222 274.497102 
L 49.428836 289 
M 107.696974 289 
L 108.610779 244.882664 
L 109.25697 222.568961 
L 109.903161 207.644055 
L 110.226257 202.971954 
L 110.549352 200.166847 
L 110.872447 199.231504 
L 111.195543 200.166847 
L 111.518638 202.971954 
L 111.841734 207.644055 
L 112.487924 222.568961 
L 113.134115 244.882664 
L 113.780306 274.497102 
L 114.047921 289 
M 172.316058 289 
L 173.229864 244.882664 
L 173.876055 222.568961 
L 174.522246 207.644055 
L 174.845341 202.971954 
L 175.168436 200.166847 
L 175.491532 199.231504 
L 175.814627 200.166847 
L 176.137723 202.971954 
L 176.460818 207.644055 
L 177.107009 222.568961 
L 177.7532 244.882664 
L 178.399391 274.497102 
L 178.667005 289 
M 236.935143 289 
L 237.848948 244.882664 
L 238.495139 222.568961 
L 239.14133 207.644055 
L 239.464425 202.971954 
L 239.787521 200.166847 
L 240.110616 199.231504 
L 240.433712 200.166847 
L 240.756807 202.971954 
L 241.079903 207.644055 
L 241.726093 222.568961 
L 242.372284 244.882664 
L 243.018475 274.497102 
L 243.28609 289 
L 243.28609 289 
" style="fill:none;stroke:#f0ad4e;stroke-width:3;"/>
   </g>
   <g id="line2d_94">
    <path clip-path="url(#p408ce63859)" d="M 86.158988 289 
L 86.963386 249.314211 
L 87.609577 225.77682 
L 88.255768 209.615566 
L 88.578863 204.322067 
L 88.901959 200.89423 
L 89.225054 199.335439 
L 89.548149 199.647231 
L 89.871245 201.8293 
L 90.19434 205.879491 
L 90.840531 219.566413 
L 91.486722 240.653981 
L 92.132913 269.058974 
L 92.508339 289 
M 150.778072 289 
L 151.582471 249.314211 
L 152.228661 225.77682 
L 152.874852 209.615566 
L 153.197948 204.322067 
L 153.521043 200.89423 
L 153.844139 199.335439 
L 154.167234 199.647231 
L 154.490329 201.8293 
L 154.813425 205.879491 
L 155.459616 219.566413 
L 156.105806 240.653981 
L 156.751997 269.058974 
L 157.127424 289 
M 215.397157 289 
L 216.201555 249.314211 
L 216.847746 225.77682 
L 217.493937 209.615566 
L 217.817032 204.322067 
L 218.140128 200.89423 
L 218.463223 199.335439 
L 218.786318 199.647231 
L 219.109414 201.8293 
L 219.432509 205.879491 
L 220.0787 219.566413 
L 220.724891 240.653981 
L 221.371082 269.058974 
L 221.746508 289 
M 280.016241 289 
L 280.820639 249.314211 
L 281.46683 225.77682 
L 282.113021 209.615566 
L 282.436117 204.322067 
L 282.759212 200.89423 
L 283.082307 199.335439 
L 283.405403 199.647231 
L 283.728498 201.8293 
L 284.051594 205.879491 
L 284.697784 219.566413 
L 285.343975 240.653981 
L 285.990166 269.058974 
L 286.365592 289 
L 286.365592 289 
" style="fill:none;stroke:#5bc0de;stroke-width:3;"/>
   </g>
   <g id="line2d_95">
    <path clip-path="url(#p408ce63859)" d="M 64.617471 289 
L 65.315993 253.948134 
L 65.962184 229.189636 
L 66.608375 211.793807 
L 67.254565 201.8293 
L 67.577661 199.647231 
L 67.900756 199.335439 
L 68.223852 200.89423 
L 68.546947 204.322067 
L 68.870042 209.615566 
L 69.516233 225.77682 
L 70.162424 249.314211 
L 70.966823 289 
M 129.236556 289 
L 129.935077 253.948134 
L 130.581268 229.189636 
L 131.227459 211.793807 
L 131.87365 201.8293 
L 132.196745 199.647231 
L 132.519841 199.335439 
L 132.842936 200.89423 
L 133.166031 204.322067 
L 133.489127 209.615566 
L 134.135318 225.77682 
L 134.781509 249.314211 
L 135.585907 289 
M 193.85564 289 
L 194.554162 253.948134 
L 195.200353 229.189636 
L 195.846543 211.793807 
L 196.492734 201.8293 
L 196.81583 199.647231 
L 197.138925 199.335439 
L 197.462021 200.89423 
L 197.785116 204.322067 
L 198.108211 209.615566 
L 198.754402 225.77682 
L 199.400593 249.314211 
L 200.204991 289 
M 258.474724 289 
L 259.173246 253.948134 
L 259.819437 229.189636 
L 260.465628 211.793807 
L 261.111819 201.8293 
L 261.434914 199.647231 
L 261.75801 199.335439 
L 262.081105 200.89423 
L 262.4042 204.322067 
L 262.727296 209.615566 
L 263.373487 225.77682 
L 264.019677 249.314211 
L 264.824076 289 
L 264.824076 289 
" style="fill:none;stroke:#5e4485;stroke-width:3;"/>
   </g>
   <g id="patch_12">
    <path d="M 33.491094 266.549219 
L 33.491094 150.470508 
" style="fill:none;stroke:#ffffff;stroke-linecap:square;stroke-linejoin:miter;stroke-width:2;"/>
   </g>
   <g id="patch_13">
    <path d="M 314.261016 266.549219 
L 314.261016 150.470508 
" style="fill:none;stroke:#ffffff;stroke-linecap:square;stroke-linejoin:miter;stroke-width:2;"/>
   </g>
   <g id="patch_14">
    <path d="M 33.491094 266.549219 
L 314.261016 266.549219 
" style="fill:none;stroke:#ffffff;stroke-linecap:square;stroke-linejoin:miter;stroke-width:2;"/>
   </g>
   <g id="patch_15">
    <path d="M 33.491094 150.470508 
L 314.261016 150.470508 
" style="fill:none;stroke:#ffffff;stroke-linecap:square;stroke-linejoin:miter;stroke-width:2;"/>
   </g>
  </g>
  <g id="axes_4">
   <g id="patch_16">
    <path d="M 357.510078 266.549219 
L 638.28 266.549219 
L 638.28 150.470508 
L 357.510078 150.470508 
z
" style="fill:#ffffff;"/>
   </g>
   <g id="matplotlib.axis_7">
    <g id="xtick_28">
     <g id="line2d_96">
      <path clip-path="url(#p98db1288a3)" d="M 370.272347 266.549219 
L 370.272347 150.470508 
" style="fill:none;stroke:#cbcbcb;"/>
     </g>
     <g id="line2d_97"/>
     <g id="text_41">
      <text style="font-family:Arial;font-size:9px;font-stretch:normal;font-style:normal;font-weight:normal;text-anchor:middle;" transform="rotate(-0, 370.272347, 276.49125)" x="370.272347" y="276.49125">0.00</text>
     </g>
    </g>
    <g id="xtick_29">
     <g id="line2d_98">
      <path clip-path="url(#p98db1288a3)" d="M 402.58189 266.549219 
L 402.58189 150.470508 
" style="fill:none;stroke:#cbcbcb;"/>
     </g>
     <g id="line2d_99"/>
     <g id="text_42">
      <text style="font-family:Arial;font-size:9px;font-stretch:normal;font-style:normal;font-weight:normal;text-anchor:middle;" transform="rotate(-0, 402.58189, 276.49125)" x="402.58189" y="276.49125">0.01</text>
     </g>
    </g>
    <g id="xtick_30">
     <g id="line2d_100">
      <path clip-path="url(#p98db1288a3)" d="M 434.891432 266.549219 
L 434.891432 150.470508 
" style="fill:none;stroke:#cbcbcb;"/>
     </g>
     <g id="line2d_101"/>
     <g id="text_43">
      <text style="font-family:Arial;font-size:9px;font-stretch:normal;font-style:normal;font-weight:normal;text-anchor:middle;" transform="rotate(-0, 434.891432, 276.49125)" x="434.891432" y="276.49125">0.02</text>
     </g>
    </g>
    <g id="xtick_31">
     <g id="line2d_102">
      <path clip-path="url(#p98db1288a3)" d="M 467.200974 266.549219 
L 467.200974 150.470508 
" style="fill:none;stroke:#cbcbcb;"/>
     </g>
     <g id="line2d_103"/>
     <g id="text_44">
      <text style="font-family:Arial;font-size:9px;font-stretch:normal;font-style:normal;font-weight:normal;text-anchor:middle;" transform="rotate(-0, 467.200974, 276.49125)" x="467.200974" y="276.49125">0.03</text>
     </g>
    </g>
    <g id="xtick_32">
     <g id="line2d_104">
      <path clip-path="url(#p98db1288a3)" d="M 499.510516 266.549219 
L 499.510516 150.470508 
" style="fill:none;stroke:#cbcbcb;"/>
     </g>
     <g id="line2d_105"/>
     <g id="text_45">
      <text style="font-family:Arial;font-size:9px;font-stretch:normal;font-style:normal;font-weight:normal;text-anchor:middle;" transform="rotate(-0, 499.510516, 276.49125)" x="499.510516" y="276.49125">0.04</text>
     </g>
    </g>
    <g id="xtick_33">
     <g id="line2d_106">
      <path clip-path="url(#p98db1288a3)" d="M 531.820058 266.549219 
L 531.820058 150.470508 
" style="fill:none;stroke:#cbcbcb;"/>
     </g>
     <g id="line2d_107"/>
     <g id="text_46">
      <text style="font-family:Arial;font-size:9px;font-stretch:normal;font-style:normal;font-weight:normal;text-anchor:middle;" transform="rotate(-0, 531.820058, 276.49125)" x="531.820058" y="276.49125">0.05</text>
     </g>
    </g>
    <g id="xtick_34">
     <g id="line2d_108">
      <path clip-path="url(#p98db1288a3)" d="M 564.129601 266.549219 
L 564.129601 150.470508 
" style="fill:none;stroke:#cbcbcb;"/>
     </g>
     <g id="line2d_109"/>
     <g id="text_47">
      <text style="font-family:Arial;font-size:9px;font-stretch:normal;font-style:normal;font-weight:normal;text-anchor:middle;" transform="rotate(-0, 564.129601, 276.49125)" x="564.129601" y="276.49125">0.06</text>
     </g>
    </g>
    <g id="xtick_35">
     <g id="line2d_110">
      <path clip-path="url(#p98db1288a3)" d="M 596.439143 266.549219 
L 596.439143 150.470508 
" style="fill:none;stroke:#cbcbcb;"/>
     </g>
     <g id="line2d_111"/>
     <g id="text_48">
      <text style="font-family:Arial;font-size:9px;font-stretch:normal;font-style:normal;font-weight:normal;text-anchor:middle;" transform="rotate(-0, 596.439143, 276.49125)" x="596.439143" y="276.49125">0.07</text>
     </g>
    </g>
    <g id="xtick_36">
     <g id="line2d_112">
      <path clip-path="url(#p98db1288a3)" d="M 628.748685 266.549219 
L 628.748685 150.470508 
" style="fill:none;stroke:#cbcbcb;"/>
     </g>
     <g id="line2d_113"/>
     <g id="text_49">
      <text style="font-family:Arial;font-size:9px;font-stretch:normal;font-style:normal;font-weight:normal;text-anchor:middle;" transform="rotate(-0, 628.748685, 276.49125)" x="628.748685" y="276.49125">0.08</text>
     </g>
    </g>
   </g>
   <g id="matplotlib.axis_8">
    <g id="ytick_14">
     <g id="line2d_114">
      <path clip-path="url(#p98db1288a3)" d="M 357.510078 257.579995 
L 638.28 257.579995 
" style="fill:none;stroke:#cbcbcb;"/>
     </g>
     <g id="line2d_115"/>
     <g id="text_50">
      <text style="font-family:Arial;font-size:9px;font-stretch:normal;font-style:normal;font-weight:normal;text-anchor:end;" transform="rotate(-0, 354.010078, 260.801011)" x="354.010078" y="260.801011">0</text>
     </g>
    </g>
    <g id="ytick_15">
     <g id="line2d_116">
      <path clip-path="url(#p98db1288a3)" d="M 357.510078 232.688649 
L 638.28 232.688649 
" style="fill:none;stroke:#cbcbcb;"/>
     </g>
     <g id="line2d_117"/>
     <g id="text_51">
      <text style="font-family:Arial;font-size:9px;font-stretch:normal;font-style:normal;font-weight:normal;text-anchor:end;" transform="rotate(-0, 354.010078, 235.909665)" x="354.010078" y="235.909665">50000</text>
     </g>
    </g>
    <g id="ytick_16">
     <g id="line2d_118">
      <path clip-path="url(#p98db1288a3)" d="M 357.510078 207.797304 
L 638.28 207.797304 
" style="fill:none;stroke:#cbcbcb;"/>
     </g>
     <g id="line2d_119"/>
     <g id="text_52">
      <text style="font-family:Arial;font-size:9px;font-stretch:normal;font-style:normal;font-weight:normal;text-anchor:end;" transform="rotate(-0, 354.010078, 211.018319)" x="354.010078" y="211.018319">100000</text>
     </g>
    </g>
    <g id="ytick_17">
     <g id="line2d_120">
      <path clip-path="url(#p98db1288a3)" d="M 357.510078 182.905958 
L 638.28 182.905958 
" style="fill:none;stroke:#cbcbcb;"/>
     </g>
     <g id="line2d_121"/>
     <g id="text_53">
      <text style="font-family:Arial;font-size:9px;font-stretch:normal;font-style:normal;font-weight:normal;text-anchor:end;" transform="rotate(-0, 354.010078, 186.126973)" x="354.010078" y="186.126973">150000</text>
     </g>
    </g>
    <g id="ytick_18">
     <g id="line2d_122">
      <path clip-path="url(#p98db1288a3)" d="M 357.510078 158.014612 
L 638.28 158.014612 
" style="fill:none;stroke:#cbcbcb;"/>
     </g>
     <g id="line2d_123"/>
     <g id="text_54">
      <text style="font-family:Arial;font-size:9px;font-stretch:normal;font-style:normal;font-weight:normal;text-anchor:end;" transform="rotate(-0, 354.010078, 161.235628)" x="354.010078" y="161.235628">200000</text>
     </g>
    </g>
   </g>
   <g id="line2d_124">
    <path clip-path="url(#p98db1288a3)" d="M 370.272347 257.579995 
L 499.510516 257.579995 
L 501.125993 222.802091 
L 502.74147 186.616158 
L 503.387661 187.759928 
L 504.033852 189.469478 
L 504.680043 191.717848 
L 505.649329 196.020938 
L 506.618615 201.302292 
L 507.910997 209.538287 
L 510.172665 225.739001 
L 512.434333 241.539342 
L 513.726715 249.210305 
L 514.696001 253.931779 
L 515.665287 257.579995 
L 516.311478 259.350351 
L 516.957669 260.557463 
L 517.60386 261.182296 
L 517.926955 261.272914 
L 518.250051 261.214994 
L 518.573146 261.008767 
L 519.219337 260.155222 
L 519.865528 258.725742 
L 520.511719 256.742869 
L 521.481005 252.801622 
L 522.450291 247.827154 
L 523.742673 239.896389 
L 525.681245 226.258734 
L 528.589104 205.73186 
L 529.881486 198.060897 
L 530.850772 193.339423 
L 531.820058 189.691207 
L 532.466249 187.920852 
L 533.11244 186.713739 
L 533.758631 186.088906 
L 534.081726 185.998288 
L 534.404822 186.056208 
L 534.727917 186.262435 
L 535.374108 187.11598 
L 536.020299 188.54546 
L 536.66649 190.528333 
L 537.635776 194.46958 
L 538.605062 199.444048 
L 539.897444 207.374813 
L 541.836016 221.012468 
L 544.743875 241.539342 
L 546.036257 249.210305 
L 547.005543 253.931779 
L 547.97483 257.579995 
L 548.62102 259.350351 
L 549.267211 260.557463 
L 549.913402 261.182296 
L 550.236497 261.272914 
L 550.559593 261.214994 
L 550.882688 261.008767 
L 551.528879 260.155222 
L 552.17507 258.725742 
L 552.821261 256.742869 
L 553.790547 252.801622 
L 554.759833 247.827154 
L 556.052215 239.896389 
L 557.990788 226.258734 
L 560.898646 205.73186 
L 562.191028 198.060897 
L 563.160314 193.339423 
L 564.129601 189.691207 
L 564.775791 187.920852 
L 565.421982 186.713739 
L 566.068173 186.088906 
L 566.391269 185.998288 
L 566.714364 186.056208 
L 567.037459 186.262435 
L 567.68365 187.11598 
L 568.329841 188.54546 
L 568.976032 190.528333 
L 569.945318 194.46958 
L 570.914604 199.444048 
L 572.206986 207.374813 
L 574.145559 221.012468 
L 577.053417 241.539342 
L 578.345799 249.210305 
L 579.315085 253.931779 
L 580.284372 257.579995 
L 580.930563 259.350351 
L 581.576753 260.557463 
L 582.222944 261.182296 
L 582.54604 261.272914 
L 582.869135 261.214994 
L 583.192231 261.008767 
L 583.838421 260.155222 
L 584.484612 258.725742 
L 585.130803 256.742869 
L 586.100089 252.801622 
L 587.069376 247.827154 
L 588.361757 239.896389 
L 590.30033 226.258734 
L 593.208189 205.73186 
L 594.50057 198.060897 
L 595.469857 193.339423 
L 596.439143 189.691207 
L 597.085334 187.920852 
L 597.731525 186.713739 
L 598.377715 186.088906 
L 598.700811 185.998288 
L 599.023906 186.056208 
L 599.347002 186.262435 
L 599.993192 187.11598 
L 600.639383 188.54546 
L 601.285574 190.528333 
L 602.25486 194.46958 
L 603.224147 199.444048 
L 604.516528 207.374813 
L 606.455101 221.012468 
L 609.36296 241.539342 
L 610.655341 249.210305 
L 611.624628 253.931779 
L 612.593914 257.579995 
L 613.240105 259.350351 
L 613.886296 260.557463 
L 614.532486 261.182296 
L 614.855582 261.272914 
L 615.178677 261.214994 
L 615.501773 261.008767 
L 616.147964 260.155222 
L 616.794154 258.725742 
L 617.440345 256.742869 
L 618.409632 252.801622 
L 619.378918 247.827154 
L 620.671299 239.896389 
L 622.609872 226.258734 
L 625.517731 205.73186 
L 625.517731 205.73186 
" style="fill:none;stroke:#d9524f;stroke-width:3;"/>
   </g>
   <g id="line2d_125">
    <path clip-path="url(#p98db1288a3)" d="M 370.272347 257.579995 
L 499.510516 257.579995 
L 499.833612 257.169712 
L 500.156707 256.464149 
L 500.802898 254.022899 
L 501.449089 249.987808 
L 502.09528 244.128302 
L 503.064566 234.007809 
L 507.587902 202.369287 
L 508.880283 195.314479 
L 509.84957 191.170922 
L 510.818856 188.177443 
L 511.465047 186.87489 
L 512.111238 186.152076 
L 512.434333 186.011996 
L 512.757428 186.020399 
L 513.080524 186.177252 
L 513.726715 186.933249 
L 514.372906 188.268064 
L 515.019096 190.160647 
L 515.988383 193.977751 
L 516.957669 198.845499 
L 518.250051 206.667502 
L 520.188623 220.226725 
L 523.096482 240.842069 
L 524.388864 248.626379 
L 525.35815 253.457421 
L 526.327436 257.23201 
L 526.973627 259.093759 
L 527.619818 260.396312 
L 528.266009 261.119126 
L 528.589104 261.259206 
L 528.9122 261.250803 
L 529.235295 261.09395 
L 529.881486 260.337953 
L 530.527677 259.003138 
L 531.173868 257.110555 
L 532.143154 253.293451 
L 533.11244 248.425703 
L 534.404822 240.6037 
L 536.343394 227.044477 
L 539.251253 206.429133 
L 540.543635 198.644824 
L 541.512921 193.813781 
L 542.482207 190.039192 
L 543.128398 188.177443 
L 543.774589 186.87489 
L 544.42078 186.152076 
L 544.743875 186.011996 
L 545.066971 186.020399 
L 545.390066 186.177252 
L 546.036257 186.933249 
L 546.682448 188.268064 
L 547.328639 190.160647 
L 548.297925 193.977751 
L 549.267211 198.845499 
L 550.559593 206.667502 
L 552.498165 220.226725 
L 555.406024 240.842069 
L 556.698406 248.626379 
L 557.667692 253.457421 
L 558.636978 257.23201 
L 559.283169 259.093759 
L 559.92936 260.396312 
L 560.575551 261.119126 
L 560.898646 261.259206 
L 561.221742 261.250803 
L 561.544837 261.09395 
L 562.191028 260.337953 
L 562.837219 259.003138 
L 563.48341 257.110555 
L 564.452696 253.293451 
L 565.421982 248.425703 
L 566.714364 240.6037 
L 568.652937 227.044477 
L 571.560795 206.429133 
L 572.853177 198.644824 
L 573.822463 193.813781 
L 574.79175 190.039192 
L 575.43794 188.177443 
L 576.084131 186.87489 
L 576.730322 186.152076 
L 577.053417 186.011996 
L 577.376513 186.020399 
L 577.699608 186.177252 
L 578.345799 186.933249 
L 578.99199 188.268064 
L 579.638181 190.160647 
L 580.607467 193.977751 
L 581.576753 198.845499 
L 582.869135 206.667502 
L 584.807708 220.226725 
L 587.715566 240.842069 
L 589.007948 248.626379 
L 589.977234 253.457421 
L 590.946521 257.23201 
L 591.592711 259.093759 
L 592.238902 260.396312 
L 592.885093 261.119126 
L 593.208189 261.259206 
L 593.531284 261.250803 
L 593.854379 261.09395 
L 594.50057 260.337953 
L 595.146761 259.003138 
L 595.792952 257.110555 
L 596.762238 253.293451 
L 597.731525 248.425703 
L 599.023906 240.6037 
L 600.962479 227.044477 
L 603.870338 206.429133 
L 605.162719 198.644824 
L 606.132005 193.813781 
L 607.101292 190.039192 
L 607.747483 188.177443 
L 608.393673 186.87489 
L 609.039864 186.152076 
L 609.36296 186.011996 
L 609.686055 186.020399 
L 610.009151 186.177252 
L 610.655341 186.933249 
L 611.301532 188.268064 
L 611.947723 190.160647 
L 612.917009 193.977751 
L 613.886296 198.845499 
L 615.178677 206.667502 
L 617.11725 220.226725 
L 620.025109 240.842069 
L 621.31749 248.626379 
L 622.286777 253.457421 
L 623.256063 257.23201 
L 623.902254 259.093759 
L 624.548445 260.396312 
L 625.194635 261.119126 
L 625.517731 261.259206 
L 625.517731 261.259206 
" style="fill:none;stroke:#5cb85c;stroke-width:3;"/>
   </g>
   <g id="line2d_126">
    <path clip-path="url(#p98db1288a3)" d="M 370.272347 257.579995 
L 499.510516 257.579995 
L 500.156707 252.506169 
L 500.802898 249.104229 
L 501.449089 247.313693 
L 501.772184 246.987644 
L 502.09528 247.015101 
L 502.418375 247.372158 
L 502.74147 248.03149 
L 503.710757 252.969982 
L 504.680043 256.869289 
L 505.326234 258.821615 
L 505.972425 260.219037 
L 506.618615 261.039515 
L 506.941711 261.228996 
L 507.264806 261.270112 
L 507.587902 261.162702 
L 507.910997 260.90719 
L 508.557188 259.956473 
L 509.203379 258.432954 
L 509.84957 256.36066 
L 510.818856 252.296999 
L 511.788142 247.217993 
L 513.080524 239.181945 
L 515.019096 225.47184 
L 517.60386 207.133954 
L 518.896242 199.239712 
L 519.865528 194.30122 
L 520.834814 190.401913 
L 521.481005 188.449587 
L 522.127196 187.052166 
L 522.773387 186.231687 
L 523.096482 186.042206 
L 523.419577 186.00109 
L 523.742673 186.1085 
L 524.065768 186.364012 
L 524.711959 187.314729 
L 525.35815 188.838248 
L 526.004341 190.910542 
L 526.973627 194.974203 
L 527.942913 200.053209 
L 529.235295 208.089257 
L 531.173868 221.799362 
L 533.758631 240.137248 
L 535.051013 248.03149 
L 536.020299 252.969982 
L 536.989585 256.869289 
L 537.635776 258.821615 
L 538.281967 260.219037 
L 538.928158 261.039515 
L 539.251253 261.228996 
L 539.574349 261.270112 
L 539.897444 261.162702 
L 540.220539 260.90719 
L 540.86673 259.956473 
L 541.512921 258.432954 
L 542.159112 256.36066 
L 543.128398 252.296999 
L 544.097684 247.217993 
L 545.390066 239.181945 
L 547.328639 225.47184 
L 549.913402 207.133954 
L 551.205784 199.239712 
L 552.17507 194.30122 
L 553.144356 190.401913 
L 553.790547 188.449587 
L 554.436738 187.052166 
L 555.082929 186.231687 
L 555.406024 186.042206 
L 555.72912 186.00109 
L 556.052215 186.1085 
L 556.37531 186.364012 
L 557.021501 187.314729 
L 557.667692 188.838248 
L 558.313883 190.910542 
L 559.283169 194.974203 
L 560.252456 200.053209 
L 561.544837 208.089257 
L 563.48341 221.799362 
L 566.068173 240.137248 
L 567.360555 248.03149 
L 568.329841 252.969982 
L 569.299127 256.869289 
L 569.945318 258.821615 
L 570.591509 260.219037 
L 571.2377 261.039515 
L 571.560795 261.228996 
L 571.883891 261.270112 
L 572.206986 261.162702 
L 572.530082 260.90719 
L 573.176272 259.956473 
L 573.822463 258.432954 
L 574.468654 256.36066 
L 575.43794 252.296999 
L 576.407227 247.217993 
L 577.699608 239.181945 
L 579.638181 225.47184 
L 582.222944 207.133954 
L 583.515326 199.239712 
L 584.484612 194.30122 
L 585.453898 190.401913 
L 586.100089 188.449587 
L 586.74628 187.052166 
L 587.392471 186.231687 
L 587.715566 186.042206 
L 588.038662 186.00109 
L 588.361757 186.1085 
L 588.684853 186.364012 
L 589.331044 187.314729 
L 589.977234 188.838248 
L 590.623425 190.910542 
L 591.592711 194.974203 
L 592.561998 200.053209 
L 593.854379 208.089257 
L 595.792952 221.799362 
L 598.377715 240.137248 
L 599.670097 248.03149 
L 600.639383 252.969982 
L 601.60867 256.869289 
L 602.25486 258.821615 
L 602.901051 260.219037 
L 603.547242 261.039515 
L 603.870338 261.228996 
L 604.193433 261.270112 
L 604.516528 261.162702 
L 604.839624 260.90719 
L 605.485815 259.956473 
L 606.132005 258.432954 
L 606.778196 256.36066 
L 607.747483 252.296999 
L 608.716769 247.217993 
L 610.009151 239.181945 
L 611.947723 225.47184 
L 614.532486 207.133954 
L 615.824868 199.239712 
L 616.794154 194.30122 
L 617.763441 190.401913 
L 618.409632 188.449587 
L 619.055822 187.052166 
L 619.702013 186.231687 
L 620.025109 186.042206 
L 620.348204 186.00109 
L 620.671299 186.1085 
L 620.994395 186.364012 
L 621.640586 187.314729 
L 622.286777 188.838248 
L 622.932967 190.910542 
L 623.902254 194.974203 
L 624.87154 200.053209 
L 625.517731 203.915736 
L 625.517731 203.915736 
" style="fill:none;stroke:#337ab7;stroke-width:3;"/>
   </g>
   <g id="line2d_127">
    <path clip-path="url(#p98db1288a3)" d="M 370.272347 257.579995 
L 499.510516 257.579995 
L 502.09528 176.889321 
L 502.74147 155.746813 
L 625.517731 155.746813 
L 625.517731 155.746813 
" style="fill:none;stroke:#f0ad4e;stroke-width:3;"/>
   </g>
   <g id="line2d_128">
    <path clip-path="url(#p98db1288a3)" d="M 370.272347 257.579995 
L 373.503302 257.579995 
L 376.734256 257.579995 
L 379.96521 257.579995 
L 383.196164 257.579995 
L 386.427118 257.579995 
L 389.658073 257.579995 
L 392.889027 257.579995 
L 396.119981 257.579995 
L 399.350935 257.579995 
L 402.58189 257.579995 
L 405.812844 257.579995 
L 409.043798 257.579995 
L 412.274752 257.579995 
L 415.505706 257.579995 
L 418.736661 257.579995 
L 421.967615 257.579995 
L 425.198569 257.579995 
L 428.429523 257.579995 
L 431.660478 257.579995 
L 434.891432 257.579995 
L 438.122386 257.579995 
L 441.35334 257.579995 
L 444.584294 257.579995 
L 447.815249 257.579995 
L 451.046203 257.579995 
L 454.277157 257.579995 
L 457.508111 257.579995 
L 460.739066 257.579995 
L 463.97002 257.579995 
L 467.200974 257.579995 
L 470.431928 257.579995 
L 473.662882 257.579995 
L 476.893837 257.579995 
L 480.124791 257.579995 
L 483.355745 257.579995 
L 486.586699 257.579995 
L 489.817654 257.579995 
L 493.048608 257.579995 
L 496.279562 257.579995 
L 499.510516 257.579995 
L 502.74147 155.746813 
L 505.972425 155.746813 
L 509.203379 155.746813 
L 512.434333 155.746813 
L 515.665287 155.746813 
L 518.896242 155.746813 
L 522.127196 155.746813 
L 525.35815 155.746813 
L 528.589104 155.746813 
L 531.820058 155.746813 
L 535.051013 155.746813 
L 538.281967 155.746813 
L 541.512921 155.746813 
L 544.743875 155.746813 
L 547.97483 155.746813 
L 551.205784 155.746813 
L 554.436738 155.746813 
L 557.667692 155.746813 
L 560.898646 155.746813 
L 564.129601 155.746813 
L 567.360555 155.746813 
L 570.591509 155.746813 
L 573.822463 155.746813 
L 577.053417 155.746813 
L 580.284372 155.746813 
L 583.515326 155.746813 
L 586.74628 155.746813 
L 589.977234 155.746813 
L 593.208189 155.746813 
L 596.439143 155.746813 
L 599.670097 155.746813 
L 602.901051 155.746813 
L 606.132005 155.746813 
L 609.36296 155.746813 
L 612.593914 155.746813 
L 615.824868 155.746813 
L 619.055822 155.746813 
L 622.286777 155.746813 
L 625.517731 155.746813 
" style="fill:none;stroke:#5bc0de;stroke-width:3;"/>
   </g>
   <g id="line2d_129">
    <path clip-path="url(#p98db1288a3)" d="M 370.272347 257.579995 
L 373.503302 257.579995 
L 376.734256 257.579995 
L 379.96521 257.579995 
L 383.196164 257.579995 
L 386.427118 257.579995 
L 389.658073 257.579995 
L 392.889027 257.579995 
L 396.119981 257.579995 
L 399.350935 257.579995 
L 402.58189 257.579995 
L 405.812844 257.579995 
L 409.043798 257.579995 
L 412.274752 257.579995 
L 415.505706 257.579995 
L 418.736661 257.579995 
L 421.967615 257.579995 
L 425.198569 257.579995 
L 428.429523 257.579995 
L 431.660478 257.579995 
L 434.891432 257.579995 
L 438.122386 257.579995 
L 441.35334 257.579995 
L 444.584294 257.579995 
L 447.815249 257.579995 
L 451.046203 257.579995 
L 454.277157 257.579995 
L 457.508111 257.579995 
L 460.739066 257.579995 
L 463.97002 257.579995 
L 467.200974 257.579995 
L 470.431928 257.579995 
L 473.662882 257.579995 
L 476.893837 257.579995 
L 480.124791 257.579995 
L 483.355745 257.579995 
L 486.586699 257.579995 
L 489.817654 257.579995 
L 493.048608 257.579995 
L 496.279562 257.579995 
L 499.510516 257.579995 
L 502.74147 208.797632 
L 505.972425 208.797632 
L 509.203379 208.797632 
L 512.434333 208.797632 
L 515.665287 208.797632 
L 518.896242 208.797632 
L 522.127196 208.797632 
L 525.35815 208.797632 
L 528.589104 208.797632 
L 531.820058 208.797632 
L 535.051013 208.797632 
L 538.281967 208.797632 
L 541.512921 208.797632 
L 544.743875 208.797632 
L 547.97483 208.797632 
L 551.205784 208.797632 
L 554.436738 208.797632 
L 557.667692 208.797632 
L 560.898646 208.797632 
L 564.129601 208.797632 
L 567.360555 208.797632 
L 570.591509 208.797632 
L 573.822463 208.797632 
L 577.053417 208.797632 
L 580.284372 208.797632 
L 583.515326 208.797632 
L 586.74628 208.797632 
L 589.977234 208.797632 
L 593.208189 208.797632 
L 596.439143 208.797632 
L 599.670097 208.797632 
L 602.901051 208.797632 
L 606.132005 208.797632 
L 609.36296 208.797632 
L 612.593914 208.797632 
L 615.824868 208.797632 
L 619.055822 208.797632 
L 622.286777 208.797632 
L 625.517731 208.797632 
" style="fill:none;stroke:#5e4485;stroke-width:3;"/>
   </g>
   <g id="patch_17">
    <path d="M 357.510078 266.549219 
L 357.510078 150.470508 
" style="fill:none;stroke:#ffffff;stroke-linecap:square;stroke-linejoin:miter;stroke-width:2;"/>
   </g>
   <g id="patch_18">
    <path d="M 638.28 266.549219 
L 638.28 150.470508 
" style="fill:none;stroke:#ffffff;stroke-linecap:square;stroke-linejoin:miter;stroke-width:2;"/>
   </g>
   <g id="patch_19">
    <path d="M 357.510078 266.549219 
L 638.28 266.549219 
" style="fill:none;stroke:#ffffff;stroke-linecap:square;stroke-linejoin:miter;stroke-width:2;"/>
   </g>
   <g id="patch_20">
    <path d="M 357.510078 150.470508 
L 638.28 150.470508 
" style="fill:none;stroke:#ffffff;stroke-linecap:square;stroke-linejoin:miter;stroke-width:2;"/>
   </g>
  </g>
 </g>
 <defs>
  <clipPath id="p149b4a96f2">
   <rect height="116.078711" width="280.769922" x="33.491094" y="9.72"/>
  </clipPath>
  <clipPath id="pda8fb9126e">
   <rect height="116.078711" width="280.769922" x="357.510078" y="9.72"/>
  </clipPath>
  <clipPath id="p408ce63859">
   <rect height="116.078711" width="280.769922" x="33.491094" y="150.470508"/>
  </clipPath>
  <clipPath id="p98db1288a3">
   <rect height="116.078711" width="280.769922" x="357.510078" y="150.470508"/>
  </clipPath>
 </defs>
</svg>
