<?xml version="1.0" encoding="utf-8" standalone="no"?>
<!DOCTYPE svg PUBLIC "-//W3C//DTD SVG 1.1//EN"
  "http://www.w3.org/Graphics/SVG/1.1/DTD/svg11.dtd">
<svg xmlns:xlink="http://www.w3.org/1999/xlink" width="460.8pt" height="345.6pt" viewBox="0 0 460.8 345.6" xmlns="http://www.w3.org/2000/svg" version="1.1">
 <metadata>
  <rdf:RDF xmlns:dc="http://purl.org/dc/elements/1.1/" xmlns:cc="http://creativecommons.org/ns#" xmlns:rdf="http://www.w3.org/1999/02/22-rdf-syntax-ns#">
   <cc:Work>
    <dc:type rdf:resource="http://purl.org/dc/dcmitype/StillImage"/>
    <dc:date>2024-03-10T17:37:34.407315</dc:date>
    <dc:format>image/svg+xml</dc:format>
    <dc:creator>
     <cc:Agent>
      <dc:title>Matplotlib v3.8.3, https://matplotlib.org/</dc:title>
     </cc:Agent>
    </dc:creator>
   </cc:Work>
  </rdf:RDF>
 </metadata>
 <defs>
  <style type="text/css">*{stroke-linejoin: round; stroke-linecap: butt}</style>
 </defs>
 <g id="figure_1">
  <g id="patch_1">
   <path d="M 0 345.6 
L 460.8 345.6 
L 460.8 0 
L 0 0 
z
" style="fill: #ffffff"/>
  </g>
  <g id="axes_1">
   <g id="patch_2">
    <path d="M 57.6 307.584 
L 414.72 307.584 
L 414.72 41.472 
L 57.6 41.472 
z
" style="fill: #ffffff"/>
   </g>
   <g id="matplotlib.axis_1">
    <g id="xtick_1">
     <g id="line2d_1">
      <path d="M 73.832727 307.584 
L 73.832727 41.472 
" clip-path="url(#pb3dbcbad6e)" style="fill: none; stroke: #b0b0b0; stroke-width: 0.8; stroke-linecap: square"/>
     </g>
     <g id="line2d_2">
      <defs>
       <path id="m4928756803" d="M 0 0 
L 0 3.5 
" style="stroke: #000000; stroke-width: 0.8"/>
      </defs>
      <g>
       <use xlink:href="#m4928756803" x="73.832727" y="307.584" style="stroke: #000000; stroke-width: 0.8"/>
      </g>
     </g>
     <g id="text_1">
      <!-- 0 -->
      <g transform="translate(70.651477 322.182437) scale(0.1 -0.1)">
       <defs>
        <path id="DejaVuSans-30" d="M 2034 4250 
Q 1547 4250 1301 3770 
Q 1056 3291 1056 2328 
Q 1056 1369 1301 889 
Q 1547 409 2034 409 
Q 2525 409 2770 889 
Q 3016 1369 3016 2328 
Q 3016 3291 2770 3770 
Q 2525 4250 2034 4250 
z
M 2034 4750 
Q 2819 4750 3233 4129 
Q 3647 3509 3647 2328 
Q 3647 1150 3233 529 
Q 2819 -91 2034 -91 
Q 1250 -91 836 529 
Q 422 1150 422 2328 
Q 422 3509 836 4129 
Q 1250 4750 2034 4750 
z
" transform="scale(0.015625)"/>
       </defs>
       <use xlink:href="#DejaVuSans-30"/>
      </g>
     </g>
    </g>
    <g id="xtick_2">
     <g id="line2d_3">
      <path d="M 138.763636 307.584 
L 138.763636 41.472 
" clip-path="url(#pb3dbcbad6e)" style="fill: none; stroke: #b0b0b0; stroke-width: 0.8; stroke-linecap: square"/>
     </g>
     <g id="line2d_4">
      <g>
       <use xlink:href="#m4928756803" x="138.763636" y="307.584" style="stroke: #000000; stroke-width: 0.8"/>
      </g>
     </g>
     <g id="text_2">
      <!-- 2 -->
      <g transform="translate(135.582386 322.182437) scale(0.1 -0.1)">
       <defs>
        <path id="DejaVuSans-32" d="M 1228 531 
L 3431 531 
L 3431 0 
L 469 0 
L 469 531 
Q 828 903 1448 1529 
Q 2069 2156 2228 2338 
Q 2531 2678 2651 2914 
Q 2772 3150 2772 3378 
Q 2772 3750 2511 3984 
Q 2250 4219 1831 4219 
Q 1534 4219 1204 4116 
Q 875 4013 500 3803 
L 500 4441 
Q 881 4594 1212 4672 
Q 1544 4750 1819 4750 
Q 2544 4750 2975 4387 
Q 3406 4025 3406 3419 
Q 3406 3131 3298 2873 
Q 3191 2616 2906 2266 
Q 2828 2175 2409 1742 
Q 1991 1309 1228 531 
z
" transform="scale(0.015625)"/>
       </defs>
       <use xlink:href="#DejaVuSans-32"/>
      </g>
     </g>
    </g>
    <g id="xtick_3">
     <g id="line2d_5">
      <path d="M 203.694545 307.584 
L 203.694545 41.472 
" clip-path="url(#pb3dbcbad6e)" style="fill: none; stroke: #b0b0b0; stroke-width: 0.8; stroke-linecap: square"/>
     </g>
     <g id="line2d_6">
      <g>
       <use xlink:href="#m4928756803" x="203.694545" y="307.584" style="stroke: #000000; stroke-width: 0.8"/>
      </g>
     </g>
     <g id="text_3">
      <!-- 4 -->
      <g transform="translate(200.513295 322.182437) scale(0.1 -0.1)">
       <defs>
        <path id="DejaVuSans-34" d="M 2419 4116 
L 825 1625 
L 2419 1625 
L 2419 4116 
z
M 2253 4666 
L 3047 4666 
L 3047 1625 
L 3713 1625 
L 3713 1100 
L 3047 1100 
L 3047 0 
L 2419 0 
L 2419 1100 
L 313 1100 
L 313 1709 
L 2253 4666 
z
" transform="scale(0.015625)"/>
       </defs>
       <use xlink:href="#DejaVuSans-34"/>
      </g>
     </g>
    </g>
    <g id="xtick_4">
     <g id="line2d_7">
      <path d="M 268.625455 307.584 
L 268.625455 41.472 
" clip-path="url(#pb3dbcbad6e)" style="fill: none; stroke: #b0b0b0; stroke-width: 0.8; stroke-linecap: square"/>
     </g>
     <g id="line2d_8">
      <g>
       <use xlink:href="#m4928756803" x="268.625455" y="307.584" style="stroke: #000000; stroke-width: 0.8"/>
      </g>
     </g>
     <g id="text_4">
      <!-- 6 -->
      <g transform="translate(265.444205 322.182437) scale(0.1 -0.1)">
       <defs>
        <path id="DejaVuSans-36" d="M 2113 2584 
Q 1688 2584 1439 2293 
Q 1191 2003 1191 1497 
Q 1191 994 1439 701 
Q 1688 409 2113 409 
Q 2538 409 2786 701 
Q 3034 994 3034 1497 
Q 3034 2003 2786 2293 
Q 2538 2584 2113 2584 
z
M 3366 4563 
L 3366 3988 
Q 3128 4100 2886 4159 
Q 2644 4219 2406 4219 
Q 1781 4219 1451 3797 
Q 1122 3375 1075 2522 
Q 1259 2794 1537 2939 
Q 1816 3084 2150 3084 
Q 2853 3084 3261 2657 
Q 3669 2231 3669 1497 
Q 3669 778 3244 343 
Q 2819 -91 2113 -91 
Q 1303 -91 875 529 
Q 447 1150 447 2328 
Q 447 3434 972 4092 
Q 1497 4750 2381 4750 
Q 2619 4750 2861 4703 
Q 3103 4656 3366 4563 
z
" transform="scale(0.015625)"/>
       </defs>
       <use xlink:href="#DejaVuSans-36"/>
      </g>
     </g>
    </g>
    <g id="xtick_5">
     <g id="line2d_9">
      <path d="M 333.556364 307.584 
L 333.556364 41.472 
" clip-path="url(#pb3dbcbad6e)" style="fill: none; stroke: #b0b0b0; stroke-width: 0.8; stroke-linecap: square"/>
     </g>
     <g id="line2d_10">
      <g>
       <use xlink:href="#m4928756803" x="333.556364" y="307.584" style="stroke: #000000; stroke-width: 0.8"/>
      </g>
     </g>
     <g id="text_5">
      <!-- 8 -->
      <g transform="translate(330.375114 322.182437) scale(0.1 -0.1)">
       <defs>
        <path id="DejaVuSans-38" d="M 2034 2216 
Q 1584 2216 1326 1975 
Q 1069 1734 1069 1313 
Q 1069 891 1326 650 
Q 1584 409 2034 409 
Q 2484 409 2743 651 
Q 3003 894 3003 1313 
Q 3003 1734 2745 1975 
Q 2488 2216 2034 2216 
z
M 1403 2484 
Q 997 2584 770 2862 
Q 544 3141 544 3541 
Q 544 4100 942 4425 
Q 1341 4750 2034 4750 
Q 2731 4750 3128 4425 
Q 3525 4100 3525 3541 
Q 3525 3141 3298 2862 
Q 3072 2584 2669 2484 
Q 3125 2378 3379 2068 
Q 3634 1759 3634 1313 
Q 3634 634 3220 271 
Q 2806 -91 2034 -91 
Q 1263 -91 848 271 
Q 434 634 434 1313 
Q 434 1759 690 2068 
Q 947 2378 1403 2484 
z
M 1172 3481 
Q 1172 3119 1398 2916 
Q 1625 2713 2034 2713 
Q 2441 2713 2670 2916 
Q 2900 3119 2900 3481 
Q 2900 3844 2670 4047 
Q 2441 4250 2034 4250 
Q 1625 4250 1398 4047 
Q 1172 3844 1172 3481 
z
" transform="scale(0.015625)"/>
       </defs>
       <use xlink:href="#DejaVuSans-38"/>
      </g>
     </g>
    </g>
    <g id="xtick_6">
     <g id="line2d_11">
      <path d="M 398.487273 307.584 
L 398.487273 41.472 
" clip-path="url(#pb3dbcbad6e)" style="fill: none; stroke: #b0b0b0; stroke-width: 0.8; stroke-linecap: square"/>
     </g>
     <g id="line2d_12">
      <g>
       <use xlink:href="#m4928756803" x="398.487273" y="307.584" style="stroke: #000000; stroke-width: 0.8"/>
      </g>
     </g>
     <g id="text_6">
      <!-- 10 -->
      <g transform="translate(392.124773 322.182437) scale(0.1 -0.1)">
       <defs>
        <path id="DejaVuSans-31" d="M 794 531 
L 1825 531 
L 1825 4091 
L 703 3866 
L 703 4441 
L 1819 4666 
L 2450 4666 
L 2450 531 
L 3481 531 
L 3481 0 
L 794 0 
L 794 531 
z
" transform="scale(0.015625)"/>
       </defs>
       <use xlink:href="#DejaVuSans-31"/>
       <use xlink:href="#DejaVuSans-30" x="63.623047"/>
      </g>
     </g>
    </g>
   </g>
   <g id="matplotlib.axis_2">
    <g id="ytick_1">
     <g id="line2d_13">
      <path d="M 57.6 294.43832 
L 414.72 294.43832 
" clip-path="url(#pb3dbcbad6e)" style="fill: none; stroke: #b0b0b0; stroke-width: 0.8; stroke-linecap: square"/>
     </g>
     <g id="line2d_14">
      <defs>
       <path id="ma418dcad4a" d="M 0 0 
L -3.5 0 
" style="stroke: #000000; stroke-width: 0.8"/>
      </defs>
      <g>
       <use xlink:href="#ma418dcad4a" x="57.6" y="294.43832" style="stroke: #000000; stroke-width: 0.8"/>
      </g>
     </g>
     <g id="text_7">
      <!-- 0.990 -->
      <g transform="translate(21.971875 298.237539) scale(0.1 -0.1)">
       <defs>
        <path id="DejaVuSans-2e" d="M 684 794 
L 1344 794 
L 1344 0 
L 684 0 
L 684 794 
z
" transform="scale(0.015625)"/>
        <path id="DejaVuSans-39" d="M 703 97 
L 703 672 
Q 941 559 1184 500 
Q 1428 441 1663 441 
Q 2288 441 2617 861 
Q 2947 1281 2994 2138 
Q 2813 1869 2534 1725 
Q 2256 1581 1919 1581 
Q 1219 1581 811 2004 
Q 403 2428 403 3163 
Q 403 3881 828 4315 
Q 1253 4750 1959 4750 
Q 2769 4750 3195 4129 
Q 3622 3509 3622 2328 
Q 3622 1225 3098 567 
Q 2575 -91 1691 -91 
Q 1453 -91 1209 -44 
Q 966 3 703 97 
z
M 1959 2075 
Q 2384 2075 2632 2365 
Q 2881 2656 2881 3163 
Q 2881 3666 2632 3958 
Q 2384 4250 1959 4250 
Q 1534 4250 1286 3958 
Q 1038 3666 1038 3163 
Q 1038 2656 1286 2365 
Q 1534 2075 1959 2075 
z
" transform="scale(0.015625)"/>
       </defs>
       <use xlink:href="#DejaVuSans-30"/>
       <use xlink:href="#DejaVuSans-2e" x="63.623047"/>
       <use xlink:href="#DejaVuSans-39" x="95.410156"/>
       <use xlink:href="#DejaVuSans-39" x="159.033203"/>
       <use xlink:href="#DejaVuSans-30" x="222.65625"/>
      </g>
     </g>
    </g>
    <g id="ytick_2">
     <g id="line2d_15">
      <path d="M 57.6 261.315141 
L 414.72 261.315141 
" clip-path="url(#pb3dbcbad6e)" style="fill: none; stroke: #b0b0b0; stroke-width: 0.8; stroke-linecap: square"/>
     </g>
     <g id="line2d_16">
      <g>
       <use xlink:href="#ma418dcad4a" x="57.6" y="261.315141" style="stroke: #000000; stroke-width: 0.8"/>
      </g>
     </g>
     <g id="text_8">
      <!-- 0.992 -->
      <g transform="translate(21.971875 265.11436) scale(0.1 -0.1)">
       <use xlink:href="#DejaVuSans-30"/>
       <use xlink:href="#DejaVuSans-2e" x="63.623047"/>
       <use xlink:href="#DejaVuSans-39" x="95.410156"/>
       <use xlink:href="#DejaVuSans-39" x="159.033203"/>
       <use xlink:href="#DejaVuSans-32" x="222.65625"/>
      </g>
     </g>
    </g>
    <g id="ytick_3">
     <g id="line2d_17">
      <path d="M 57.6 228.191961 
L 414.72 228.191961 
" clip-path="url(#pb3dbcbad6e)" style="fill: none; stroke: #b0b0b0; stroke-width: 0.8; stroke-linecap: square"/>
     </g>
     <g id="line2d_18">
      <g>
       <use xlink:href="#ma418dcad4a" x="57.6" y="228.191961" style="stroke: #000000; stroke-width: 0.8"/>
      </g>
     </g>
     <g id="text_9">
      <!-- 0.994 -->
      <g transform="translate(21.971875 231.99118) scale(0.1 -0.1)">
       <use xlink:href="#DejaVuSans-30"/>
       <use xlink:href="#DejaVuSans-2e" x="63.623047"/>
       <use xlink:href="#DejaVuSans-39" x="95.410156"/>
       <use xlink:href="#DejaVuSans-39" x="159.033203"/>
       <use xlink:href="#DejaVuSans-34" x="222.65625"/>
      </g>
     </g>
    </g>
    <g id="ytick_4">
     <g id="line2d_19">
      <path d="M 57.6 195.068782 
L 414.72 195.068782 
" clip-path="url(#pb3dbcbad6e)" style="fill: none; stroke: #b0b0b0; stroke-width: 0.8; stroke-linecap: square"/>
     </g>
     <g id="line2d_20">
      <g>
       <use xlink:href="#ma418dcad4a" x="57.6" y="195.068782" style="stroke: #000000; stroke-width: 0.8"/>
      </g>
     </g>
     <g id="text_10">
      <!-- 0.996 -->
      <g transform="translate(21.971875 198.868001) scale(0.1 -0.1)">
       <use xlink:href="#DejaVuSans-30"/>
       <use xlink:href="#DejaVuSans-2e" x="63.623047"/>
       <use xlink:href="#DejaVuSans-39" x="95.410156"/>
       <use xlink:href="#DejaVuSans-39" x="159.033203"/>
       <use xlink:href="#DejaVuSans-36" x="222.65625"/>
      </g>
     </g>
    </g>
    <g id="ytick_5">
     <g id="line2d_21">
      <path d="M 57.6 161.945603 
L 414.72 161.945603 
" clip-path="url(#pb3dbcbad6e)" style="fill: none; stroke: #b0b0b0; stroke-width: 0.8; stroke-linecap: square"/>
     </g>
     <g id="line2d_22">
      <g>
       <use xlink:href="#ma418dcad4a" x="57.6" y="161.945603" style="stroke: #000000; stroke-width: 0.8"/>
      </g>
     </g>
     <g id="text_11">
      <!-- 0.998 -->
      <g transform="translate(21.971875 165.744821) scale(0.1 -0.1)">
       <use xlink:href="#DejaVuSans-30"/>
       <use xlink:href="#DejaVuSans-2e" x="63.623047"/>
       <use xlink:href="#DejaVuSans-39" x="95.410156"/>
       <use xlink:href="#DejaVuSans-39" x="159.033203"/>
       <use xlink:href="#DejaVuSans-38" x="222.65625"/>
      </g>
     </g>
    </g>
    <g id="ytick_6">
     <g id="line2d_23">
      <path d="M 57.6 128.822423 
L 414.72 128.822423 
" clip-path="url(#pb3dbcbad6e)" style="fill: none; stroke: #b0b0b0; stroke-width: 0.8; stroke-linecap: square"/>
     </g>
     <g id="line2d_24">
      <g>
       <use xlink:href="#ma418dcad4a" x="57.6" y="128.822423" style="stroke: #000000; stroke-width: 0.8"/>
      </g>
     </g>
     <g id="text_12">
      <!-- 1.000 -->
      <g transform="translate(21.971875 132.621642) scale(0.1 -0.1)">
       <use xlink:href="#DejaVuSans-31"/>
       <use xlink:href="#DejaVuSans-2e" x="63.623047"/>
       <use xlink:href="#DejaVuSans-30" x="95.410156"/>
       <use xlink:href="#DejaVuSans-30" x="159.033203"/>
       <use xlink:href="#DejaVuSans-30" x="222.65625"/>
      </g>
     </g>
    </g>
    <g id="ytick_7">
     <g id="line2d_25">
      <path d="M 57.6 95.699244 
L 414.72 95.699244 
" clip-path="url(#pb3dbcbad6e)" style="fill: none; stroke: #b0b0b0; stroke-width: 0.8; stroke-linecap: square"/>
     </g>
     <g id="line2d_26">
      <g>
       <use xlink:href="#ma418dcad4a" x="57.6" y="95.699244" style="stroke: #000000; stroke-width: 0.8"/>
      </g>
     </g>
     <g id="text_13">
      <!-- 1.002 -->
      <g transform="translate(21.971875 99.498462) scale(0.1 -0.1)">
       <use xlink:href="#DejaVuSans-31"/>
       <use xlink:href="#DejaVuSans-2e" x="63.623047"/>
       <use xlink:href="#DejaVuSans-30" x="95.410156"/>
       <use xlink:href="#DejaVuSans-30" x="159.033203"/>
       <use xlink:href="#DejaVuSans-32" x="222.65625"/>
      </g>
     </g>
    </g>
    <g id="ytick_8">
     <g id="line2d_27">
      <path d="M 57.6 62.576064 
L 414.72 62.576064 
" clip-path="url(#pb3dbcbad6e)" style="fill: none; stroke: #b0b0b0; stroke-width: 0.8; stroke-linecap: square"/>
     </g>
     <g id="line2d_28">
      <g>
       <use xlink:href="#ma418dcad4a" x="57.6" y="62.576064" style="stroke: #000000; stroke-width: 0.8"/>
      </g>
     </g>
     <g id="text_14">
      <!-- 1.004 -->
      <g transform="translate(21.971875 66.375283) scale(0.1 -0.1)">
       <use xlink:href="#DejaVuSans-31"/>
       <use xlink:href="#DejaVuSans-2e" x="63.623047"/>
       <use xlink:href="#DejaVuSans-30" x="95.410156"/>
       <use xlink:href="#DejaVuSans-30" x="159.033203"/>
       <use xlink:href="#DejaVuSans-34" x="222.65625"/>
      </g>
     </g>
    </g>
   </g>
   <g id="line2d_29">
    <path d="M 73.832727 128.822423 
L 106.88256 128.930201 
L 107.23968 129.25924 
L 107.5968 129.933343 
L 107.986385 131.179625 
L 108.440902 133.445103 
L 108.960349 137.260286 
L 109.577193 143.649548 
L 110.291433 153.655813 
L 111.135535 168.927209 
L 112.206895 192.732851 
L 115.81056 276.780176 
L 116.557265 287.527684 
L 117.109178 292.688619 
L 117.531229 294.878241 
L 117.823418 295.463136 
L 117.985745 295.453226 
L 118.180538 295.123644 
L 118.440262 294.144634 
L 118.797382 291.797492 
L 119.251898 287.166108 
L 119.836276 278.624804 
L 120.550516 264.569658 
L 121.459549 241.823032 
L 122.693236 204.792762 
L 126.102109 99.364229 
L 127.076073 77.361695 
L 127.822778 64.959488 
L 128.439622 58.026309 
L 128.926604 54.792597 
L 129.283724 53.703613 
L 129.510982 53.576749 
L 129.673309 53.754261 
L 129.900567 54.374778 
L 130.225222 56.002296 
L 130.647273 59.382031 
L 131.199185 65.834349 
L 131.88096 76.656121 
L 132.789993 95.036878 
L 134.250938 129.984819 
L 136.004073 170.675211 
L 136.945571 187.622601 
L 137.659811 196.891291 
L 138.244189 201.82204 
L 138.66624 203.815027 
L 138.958429 204.412932 
L 139.153222 204.457056 
L 139.348015 204.220101 
L 139.607738 203.473016 
L 139.964858 201.661122 
L 140.419375 198.099857 
L 141.003753 191.61907 
L 141.750458 180.653608 
L 142.756887 162.30399 
L 146.620276 88.167352 
L 147.431913 78.222436 
L 148.081222 72.75914 
L 148.600669 70.111984 
L 148.957789 69.207315 
L 149.217513 69.02063 
L 149.412305 69.140008 
L 149.672029 69.641782 
L 149.996684 70.810471 
L 150.4512 73.424675 
L 151.003113 78.042334 
L 151.717353 86.1133 
L 152.626385 99.129504 
L 154.119796 124.287396 
L 155.905396 153.463547 
L 156.87936 165.858405 
L 157.626065 172.726292 
L 158.210444 176.264302 
L 158.66496 177.838589 
L 158.989615 178.323303 
L 159.216873 178.346625 
L 159.444131 178.112702 
L 159.73632 177.440707 
L 160.125905 175.914973 
L 160.645353 172.823203 
L 161.294662 167.425464 
L 162.138764 158.305015 
L 163.339985 142.595852 
L 165.969687 107.60162 
L 166.911185 98.20168 
L 167.657891 92.792868 
L 168.242269 89.997906 
L 168.696785 88.746616 
L 169.02144 88.356117 
L 169.281164 88.345809 
L 169.540887 88.601801 
L 169.865542 89.290255 
L 170.287593 90.779301 
L 170.80704 93.484903 
L 171.488815 98.357196 
L 172.365382 106.438702 
L 173.664 120.811516 
L 175.904116 145.662561 
L 176.845615 153.683726 
L 177.59232 158.316159 
L 178.176698 160.716503 
L 178.631215 161.797267 
L 178.988335 162.156289 
L 179.248058 162.147453 
L 179.507782 161.91423 
L 179.864902 161.235255 
L 180.319418 159.794572 
L 180.871331 157.237075 
L 181.585571 152.769947 
L 182.527069 145.316478 
L 184.117876 130.590061 
L 185.80608 115.607951 
L 186.780044 108.796921 
L 187.526749 104.952965 
L 188.143593 102.820455 
L 188.630575 101.846172 
L 188.987695 101.537995 
L 189.279884 101.541659 
L 189.572073 101.773155 
L 189.929193 102.359252 
L 190.383709 103.570009 
L 190.968087 105.841316 
L 191.682327 109.581788 
L 192.623825 115.787593 
L 194.279564 128.512644 
L 195.870371 140.122751 
L 196.844335 145.681696 
L 197.59104 148.759729 
L 198.175418 150.346012 
L 198.6624 151.085062 
L 199.01952 151.285287 
L 199.344175 151.217782 
L 199.701295 150.874065 
L 200.123345 150.115896 
L 200.642793 148.689073 
L 201.292102 146.214074 
L 202.136204 142.045168 
L 203.369891 134.669735 
L 205.934662 119.120998 
L 206.87616 114.842509 
L 207.622865 112.393036 
L 208.207244 111.138699 
L 208.694225 110.562425 
L 209.083811 110.413204 
L 209.440931 110.518641 
L 209.830516 110.892747 
L 210.285033 111.658531 
L 210.869411 113.130631 
L 211.583651 115.590335 
L 212.525149 119.712427 
L 214.083491 127.733006 
L 215.836625 136.404094 
L 216.810589 140.150452 
L 217.557295 142.229783 
L 218.174138 143.350686 
L 218.66112 143.832376 
L 219.083171 143.95781 
L 219.472756 143.835001 
L 219.894807 143.450167 
L 220.414255 142.634088 
L 221.031098 141.214398 
L 221.810269 138.821688 
L 222.881629 134.728503 
L 226.355433 120.819065 
L 227.199535 118.551933 
L 227.881309 117.286056 
L 228.433222 116.665814 
L 228.920204 116.429322 
L 229.342255 116.460559 
L 229.796771 116.734804 
L 230.316218 117.341282 
L 230.933062 118.437636 
L 231.712233 120.3304 
L 232.718662 123.414602 
L 236.646982 136.140551 
L 237.458618 137.738681 
L 238.107927 138.570137 
L 238.65984 138.943397 
L 239.146822 139.013994 
L 239.633804 138.84514 
L 240.153251 138.411065 
L 240.770095 137.578872 
L 241.5168 136.16706 
L 242.490764 133.80533 
L 244.178967 128.999426 
L 245.834705 124.537674 
L 246.808669 122.502411 
L 247.58784 121.339221 
L 248.237149 120.731704 
L 248.789062 120.488292 
L 249.308509 120.490655 
L 249.827956 120.713016 
L 250.412335 121.213301 
L 251.094109 122.102063 
L 251.938211 123.586411 
L 253.106967 126.133415 
L 256.126255 132.913779 
L 257.067753 134.393841 
L 257.814458 135.191924 
L 258.463767 135.585462 
L 259.048145 135.692178 
L 259.632524 135.566224 
L 260.249367 135.191712 
L 260.963607 134.474795 
L 261.840175 133.243837 
L 263.008931 131.177451 
L 266.15808 125.399871 
L 267.099578 124.208314 
L 267.878749 123.551036 
L 268.560524 123.246611 
L 269.209833 123.198986 
L 269.859142 123.383928 
L 270.573382 123.839815 
L 271.385018 124.641358 
L 272.423913 126.01193 
L 274.177047 128.773677 
L 275.865251 131.282492 
L 276.904145 132.451149 
L 277.748247 133.090759 
L 278.494953 133.392904 
L 279.209193 133.440909 
L 279.923433 133.257496 
L 280.702604 132.812258 
L 281.611636 132.015143 
L 282.780393 130.668941 
L 286.448989 126.216504 
L 287.422953 125.488092 
L 288.267055 125.124817 
L 289.046225 125.026789 
L 289.825396 125.155809 
L 290.669498 125.534836 
L 291.643462 126.236656 
L 292.909615 127.451107 
L 296.318487 130.874919 
L 297.357382 131.537105 
L 298.266415 131.863677 
L 299.110516 131.93832 
L 299.954618 131.794725 
L 300.896116 131.39869 
L 301.999942 130.675618 
L 303.623215 129.306698 
L 305.960727 127.368042 
L 307.129484 126.689375 
L 308.135913 126.351654 
L 309.077411 126.266175 
L 310.018909 126.403057 
L 311.057804 126.787907 
L 312.291491 127.494817 
L 314.596538 129.140965 
L 316.284742 130.201461 
L 317.485964 130.700764 
L 318.557324 130.908052 
L 319.596218 130.880399 
L 320.700044 130.618107 
L 321.966196 130.075471 
L 323.914124 128.958411 
L 326.121775 127.757145 
L 327.452858 127.287342 
L 328.621615 127.107374 
L 329.757905 127.155818 
L 330.991593 127.439048 
L 332.485004 128.026804 
L 337.030167 129.988156 
L 338.328785 130.213671 
L 339.594938 130.20689 
L 340.926022 129.971996 
L 342.549295 129.446665 
L 347.029527 127.864007 
L 348.458007 127.672916 
L 349.854022 127.711594 
L 351.379898 127.985322 
L 353.457687 128.608614 
L 356.541905 129.518081 
L 358.165178 129.751188 
L 359.691055 129.746986 
L 361.346793 129.514058 
L 363.684305 128.932863 
L 366.703593 128.222564 
L 368.456727 128.047013 
L 370.144931 128.100029 
L 372.092858 128.392719 
L 377.969105 129.439329 
L 379.852102 129.435078 
L 381.962356 129.194219 
L 388.29312 128.3035 
L 390.370909 128.352938 
L 392.93568 128.655252 
L 397.480844 129.21557 
L 398.487273 129.252842 
L 398.487273 129.252842 
" clip-path="url(#pb3dbcbad6e)" style="fill: none; stroke: #1f77b4; stroke-width: 1.5; stroke-linecap: square"/>
   </g>
   <g id="line2d_30">
    <path d="M 73.832727 128.822423 
L 106.330647 128.723935 
L 106.979956 125.839564 
L 107.726662 123.393751 
L 108.343505 122.06418 
L 108.862953 121.427307 
L 109.285004 121.231534 
L 109.674589 121.302535 
L 110.064175 121.609429 
L 110.551156 122.312559 
L 111.135535 123.596169 
L 111.849775 125.744638 
L 112.791273 129.340091 
L 116.005353 142.297641 
L 116.687127 143.915029 
L 117.23904 144.715837 
L 117.693556 145.018809 
L 118.083142 145.025379 
L 118.472727 144.808333 
L 118.927244 144.292265 
L 119.511622 143.258689 
L 120.258327 141.437491 
L 121.264756 138.336844 
L 122.855564 132.6082 
L 125.550196 122.929181 
L 126.654022 119.796399 
L 127.498124 118.014207 
L 128.179898 117.056641 
L 128.731811 116.637229 
L 129.186327 116.547699 
L 129.608378 116.679251 
L 130.062895 117.05582 
L 130.582342 117.783174 
L 131.199185 119.044285 
L 131.978356 121.198639 
L 132.984785 124.71781 
L 136.426124 137.409814 
L 137.172829 139.073783 
L 137.757207 139.900844 
L 138.244189 140.254203 
L 138.66624 140.313656 
L 139.088291 140.151032 
L 139.575273 139.703381 
L 140.159651 138.833445 
L 140.906356 137.276839 
L 141.912785 134.60308 
L 146.133295 122.718428 
L 147.009862 121.182645 
L 147.724102 120.344006 
L 148.340945 119.943447 
L 148.892858 119.849295 
L 149.412305 119.991086 
L 149.964218 120.383529 
L 150.581062 121.105474 
L 151.327767 122.346753 
L 152.269265 124.390486 
L 153.697745 128.120229 
L 155.613207 133.024924 
L 156.554705 134.848426 
L 157.301411 135.851225 
L 157.918255 136.343187 
L 158.470167 136.515642 
L 158.989615 136.449978 
L 159.541527 136.149938 
L 160.190836 135.520596 
L 160.970007 134.43079 
L 162.008902 132.560146 
L 166.196945 124.557874 
L 167.073513 123.542821 
L 167.820218 122.991857 
L 168.469527 122.765689 
L 169.086371 122.774699 
L 169.73568 123.017844 
L 170.417455 123.51967 
L 171.229091 124.414842 
L 172.23552 125.889682 
L 173.858793 128.742281 
L 175.579462 131.635425 
L 176.585891 132.910046 
L 177.397527 133.596687 
L 178.111767 133.91498 
L 178.761076 133.965095 
L 179.410385 133.793992 
L 180.124625 133.370587 
L 180.968727 132.598506 
L 182.072553 131.260489 
L 186.260596 125.849502 
L 187.202095 125.144206 
L 188.013731 124.796736 
L 188.760436 124.704647 
L 189.507142 124.831999 
L 190.318778 125.207891 
L 191.227811 125.889826 
L 192.364102 127.042062 
L 196.454749 131.483903 
L 197.363782 132.014554 
L 198.175418 132.248116 
L 198.987055 132.247462 
L 199.798691 132.022871 
L 200.707724 131.537103 
L 201.844015 130.661479 
L 203.856873 128.761445 
L 205.610007 127.237378 
L 206.778764 126.507721 
L 207.752727 126.146917 
L 208.66176 126.036949 
L 209.570793 126.149096 
L 210.544756 126.499796 
L 211.681047 127.160559 
L 213.30432 128.397707 
L 215.706764 130.206189 
L 216.87552 130.805276 
L 217.914415 131.092024 
L 218.888378 131.130547 
L 219.894807 130.943386 
L 221.031098 130.493629 
L 222.524509 129.63691 
L 225.998313 127.554616 
L 227.264465 127.108643 
L 228.400756 126.945016 
L 229.504582 127.012496 
L 230.673338 127.310052 
L 232.101818 127.920577 
L 236.809309 130.143607 
L 238.042996 130.361835 
L 239.244218 130.345454 
L 240.510371 130.100168 
L 242.068713 129.55528 
L 246.711273 127.769134 
L 248.107287 127.56643 
L 249.438371 127.597598 
L 250.866851 127.857425 
L 252.717382 128.440124 
L 256.321047 129.6168 
L 257.846924 129.846993 
L 259.307869 129.841116 
L 260.898676 129.601338 
L 263.073862 129.019655 
L 266.255476 128.184652 
L 267.976145 127.979607 
L 269.599418 128.011305 
L 271.417484 128.280113 
L 274.891287 129.09346 
L 277.066473 129.454819 
L 278.852073 129.524966 
L 280.702604 129.371529 
L 283.29984 128.905304 
L 286.611316 128.348045 
L 288.624175 128.245003 
L 290.669498 128.368574 
L 293.558924 128.797748 
L 296.8704 129.235853 
L 299.045585 129.290991 
L 301.383098 129.120436 
L 308.493033 128.432941 
L 310.992873 128.544132 
L 319.336495 129.131041 
L 322.388247 128.938204 
L 327.874909 128.564416 
L 330.861731 128.629193 
L 339.952058 129.014766 
L 344.72448 128.75851 
L 348.750196 128.646355 
L 352.775913 128.779346 
L 358.717091 128.9672 
L 363.29472 128.835601 
L 369.073571 128.705771 
L 374.819956 128.861878 
L 380.046895 128.907644 
L 393.390196 128.818218 
L 398.487273 128.888382 
L 398.487273 128.888382 
" clip-path="url(#pb3dbcbad6e)" style="fill: none; stroke: #ff7f0e; stroke-width: 1.5; stroke-linecap: square"/>
   </g>
   <g id="line2d_31">
    <path d="M 73.832727 128.822423 
L 106.687767 128.72039 
L 107.174749 128.344703 
L 107.888989 127.474776 
L 110.129105 124.544115 
L 110.778415 124.116943 
L 111.330327 124.009012 
L 111.849775 124.145229 
L 112.369222 124.522587 
L 112.9536 125.235324 
L 113.635375 126.431997 
L 114.511942 128.464834 
L 115.81056 132.125932 
L 117.661091 137.2603 
L 118.570124 139.140254 
L 119.284364 140.148803 
L 119.868742 140.63293 
L 120.388189 140.799773 
L 120.875171 140.734958 
L 121.394618 140.440048 
L 122.011462 139.808159 
L 122.725702 138.734216 
L 123.602269 136.992854 
L 124.771025 134.128532 
L 127.335796 127.01615 
L 128.699345 123.671681 
L 129.673309 121.837641 
L 130.420015 120.860312 
L 131.036858 120.379171 
L 131.588771 120.218878 
L 132.108218 120.309373 
L 132.627665 120.6347 
L 133.212044 121.2734 
L 133.926284 122.417006 
L 134.802851 124.28039 
L 136.101469 127.641061 
L 138.211724 133.078275 
L 139.153222 134.886684 
L 139.899927 135.879473 
L 140.516771 136.369981 
L 141.068684 136.548911 
L 141.588131 136.496777 
L 142.140044 136.218422 
L 142.789353 135.62164 
L 143.568524 134.574404 
L 144.574953 132.813008 
L 146.295622 129.257802 
L 148.081222 125.735135 
L 149.152582 124.0949 
L 149.996684 123.184038 
L 150.710924 122.72075 
L 151.360233 122.562287 
L 151.977076 122.648649 
L 152.59392 122.962013 
L 153.30816 123.591804 
L 154.152262 124.660273 
L 155.256087 126.455154 
L 158.697425 132.339849 
L 159.573993 133.291007 
L 160.320698 133.798187 
L 161.002473 134.001867 
L 161.651782 133.966441 
L 162.333556 133.700775 
L 163.112727 133.13992 
L 164.054225 132.16148 
L 165.352844 130.451097 
L 168.339665 126.406545 
L 169.37856 125.411645 
L 170.255127 124.863199 
L 171.034298 124.629409 
L 171.781004 124.639503 
L 172.527709 124.875487 
L 173.339345 125.369824 
L 174.313309 126.239701 
L 175.644393 127.758201 
L 178.30656 130.849206 
L 179.345455 131.693034 
L 180.222022 132.138394 
L 181.033658 132.310382 
L 181.845295 132.250025 
L 182.689396 131.956731 
L 183.66336 131.367814 
L 184.897047 130.340227 
L 188.955229 126.743295 
L 189.994124 126.224108 
L 190.935622 125.998284 
L 191.844655 126.014558 
L 192.753687 126.254826 
L 193.792582 126.772002 
L 195.0912 127.688944 
L 198.889658 130.538673 
L 199.993484 130.995156 
L 200.967447 131.166078 
L 201.941411 131.113202 
L 202.980305 130.828487 
L 204.213993 130.242613 
L 206.064524 129.075913 
L 208.369571 127.675475 
L 209.668189 127.148788 
L 210.80448 126.924825 
L 211.87584 126.936024 
L 213.012131 127.174759 
L 214.310749 127.684787 
L 216.323607 128.753689 
L 218.498793 129.836319 
L 219.829876 130.254147 
L 221.031098 130.402642 
L 222.23232 130.324207 
L 223.530938 130.012036 
L 225.219142 129.35999 
L 228.887738 127.877385 
L 230.316218 127.583769 
L 231.647302 127.538392 
L 233.010851 127.718699 
L 234.634124 128.172163 
L 239.698735 129.769317 
L 241.15968 129.888118 
L 242.620625 129.783783 
L 244.341295 129.425004 
L 250.185076 127.995794 
L 251.808349 127.965056 
L 253.496553 128.160066 
L 255.8016 128.67386 
L 259.080611 129.384888 
L 260.898676 129.537549 
L 262.684276 129.461796 
L 264.826996 129.134605 
L 269.794211 128.29062 
L 271.774604 128.244442 
L 273.884858 128.428338 
L 281.286982 129.305514 
L 283.527098 129.180552 
L 287.390487 128.68537 
L 290.247447 128.442306 
L 292.649891 128.468506 
L 295.669178 128.746136 
L 299.987084 129.127005 
L 302.616785 129.113631 
L 306.090589 128.844284 
L 310.278633 128.564884 
L 313.232989 128.610614 
L 323.167418 128.998275 
L 333.491433 128.68981 
L 343.166138 128.940265 
L 354.074531 128.749679 
L 363.067462 128.903154 
L 375.112145 128.796281 
L 383.325905 128.873198 
L 395.79264 128.815874 
L 398.487273 128.85372 
L 398.487273 128.85372 
" clip-path="url(#pb3dbcbad6e)" style="fill: none; stroke: #2ca02c; stroke-width: 1.5; stroke-linecap: square"/>
   </g>
   <g id="patch_3">
    <path d="M 57.6 307.584 
L 57.6 41.472 
" style="fill: none; stroke: #000000; stroke-width: 0.8; stroke-linejoin: miter; stroke-linecap: square"/>
   </g>
   <g id="patch_4">
    <path d="M 414.72 307.584 
L 414.72 41.472 
" style="fill: none; stroke: #000000; stroke-width: 0.8; stroke-linejoin: miter; stroke-linecap: square"/>
   </g>
   <g id="patch_5">
    <path d="M 57.6 307.584 
L 414.72 307.584 
" style="fill: none; stroke: #000000; stroke-width: 0.8; stroke-linejoin: miter; stroke-linecap: square"/>
   </g>
   <g id="patch_6">
    <path d="M 57.6 41.472 
L 414.72 41.472 
" style="fill: none; stroke: #000000; stroke-width: 0.8; stroke-linejoin: miter; stroke-linecap: square"/>
   </g>
  </g>
 </g>
 <defs>
  <clipPath id="pb3dbcbad6e">
   <rect x="57.6" y="41.472" width="357.12" height="266.112"/>
  </clipPath>
 </defs>
</svg>
