<?xml version="1.0" encoding="utf-8" standalone="no"?>
<!DOCTYPE svg PUBLIC "-//W3C//DTD SVG 1.1//EN"
  "http://www.w3.org/Graphics/SVG/1.1/DTD/svg11.dtd">
<svg xmlns:xlink="http://www.w3.org/1999/xlink" width="460.8pt" height="345.6pt" viewBox="0 0 460.8 345.6" xmlns="http://www.w3.org/2000/svg" version="1.1">
 <metadata>
  <rdf:RDF xmlns:dc="http://purl.org/dc/elements/1.1/" xmlns:cc="http://creativecommons.org/ns#" xmlns:rdf="http://www.w3.org/1999/02/22-rdf-syntax-ns#">
   <cc:Work>
    <dc:type rdf:resource="http://purl.org/dc/dcmitype/StillImage"/>
    <dc:date>2024-03-10T17:44:44.522348</dc:date>
    <dc:format>image/svg+xml</dc:format>
    <dc:creator>
     <cc:Agent>
      <dc:title>Matplotlib v3.8.3, https://matplotlib.org/</dc:title>
     </cc:Agent>
    </dc:creator>
   </cc:Work>
  </rdf:RDF>
 </metadata>
 <defs>
  <style type="text/css">*{stroke-linejoin: round; stroke-linecap: butt}</style>
 </defs>
 <g id="figure_1">
  <g id="patch_1">
   <path d="M 0 345.6 
L 460.8 345.6 
L 460.8 0 
L 0 0 
z
" style="fill: #ffffff"/>
  </g>
  <g id="axes_1">
   <g id="patch_2">
    <path d="M 57.6 307.584 
L 414.72 307.584 
L 414.72 41.472 
L 57.6 41.472 
z
" style="fill: #ffffff"/>
   </g>
   <g id="matplotlib.axis_1">
    <g id="xtick_1">
     <g id="line2d_1">
      <path d="M 73.832727 307.584 
L 73.832727 41.472 
" clip-path="url(#p604de893ef)" style="fill: none; stroke: #b0b0b0; stroke-width: 0.8; stroke-linecap: square"/>
     </g>
     <g id="line2d_2">
      <defs>
       <path id="m3b0e669cd0" d="M 0 0 
L 0 3.5 
" style="stroke: #000000; stroke-width: 0.8"/>
      </defs>
      <g>
       <use xlink:href="#m3b0e669cd0" x="73.832727" y="307.584" style="stroke: #000000; stroke-width: 0.8"/>
      </g>
     </g>
     <g id="text_1">
      <!-- 0 -->
      <g transform="translate(70.651477 322.182437) scale(0.1 -0.1)">
       <defs>
        <path id="DejaVuSans-30" d="M 2034 4250 
Q 1547 4250 1301 3770 
Q 1056 3291 1056 2328 
Q 1056 1369 1301 889 
Q 1547 409 2034 409 
Q 2525 409 2770 889 
Q 3016 1369 3016 2328 
Q 3016 3291 2770 3770 
Q 2525 4250 2034 4250 
z
M 2034 4750 
Q 2819 4750 3233 4129 
Q 3647 3509 3647 2328 
Q 3647 1150 3233 529 
Q 2819 -91 2034 -91 
Q 1250 -91 836 529 
Q 422 1150 422 2328 
Q 422 3509 836 4129 
Q 1250 4750 2034 4750 
z
" transform="scale(0.015625)"/>
       </defs>
       <use xlink:href="#DejaVuSans-30"/>
      </g>
     </g>
    </g>
    <g id="xtick_2">
     <g id="line2d_3">
      <path d="M 138.763636 307.584 
L 138.763636 41.472 
" clip-path="url(#p604de893ef)" style="fill: none; stroke: #b0b0b0; stroke-width: 0.8; stroke-linecap: square"/>
     </g>
     <g id="line2d_4">
      <g>
       <use xlink:href="#m3b0e669cd0" x="138.763636" y="307.584" style="stroke: #000000; stroke-width: 0.8"/>
      </g>
     </g>
     <g id="text_2">
      <!-- 2 -->
      <g transform="translate(135.582386 322.182437) scale(0.1 -0.1)">
       <defs>
        <path id="DejaVuSans-32" d="M 1228 531 
L 3431 531 
L 3431 0 
L 469 0 
L 469 531 
Q 828 903 1448 1529 
Q 2069 2156 2228 2338 
Q 2531 2678 2651 2914 
Q 2772 3150 2772 3378 
Q 2772 3750 2511 3984 
Q 2250 4219 1831 4219 
Q 1534 4219 1204 4116 
Q 875 4013 500 3803 
L 500 4441 
Q 881 4594 1212 4672 
Q 1544 4750 1819 4750 
Q 2544 4750 2975 4387 
Q 3406 4025 3406 3419 
Q 3406 3131 3298 2873 
Q 3191 2616 2906 2266 
Q 2828 2175 2409 1742 
Q 1991 1309 1228 531 
z
" transform="scale(0.015625)"/>
       </defs>
       <use xlink:href="#DejaVuSans-32"/>
      </g>
     </g>
    </g>
    <g id="xtick_3">
     <g id="line2d_5">
      <path d="M 203.694545 307.584 
L 203.694545 41.472 
" clip-path="url(#p604de893ef)" style="fill: none; stroke: #b0b0b0; stroke-width: 0.8; stroke-linecap: square"/>
     </g>
     <g id="line2d_6">
      <g>
       <use xlink:href="#m3b0e669cd0" x="203.694545" y="307.584" style="stroke: #000000; stroke-width: 0.8"/>
      </g>
     </g>
     <g id="text_3">
      <!-- 4 -->
      <g transform="translate(200.513295 322.182437) scale(0.1 -0.1)">
       <defs>
        <path id="DejaVuSans-34" d="M 2419 4116 
L 825 1625 
L 2419 1625 
L 2419 4116 
z
M 2253 4666 
L 3047 4666 
L 3047 1625 
L 3713 1625 
L 3713 1100 
L 3047 1100 
L 3047 0 
L 2419 0 
L 2419 1100 
L 313 1100 
L 313 1709 
L 2253 4666 
z
" transform="scale(0.015625)"/>
       </defs>
       <use xlink:href="#DejaVuSans-34"/>
      </g>
     </g>
    </g>
    <g id="xtick_4">
     <g id="line2d_7">
      <path d="M 268.625455 307.584 
L 268.625455 41.472 
" clip-path="url(#p604de893ef)" style="fill: none; stroke: #b0b0b0; stroke-width: 0.8; stroke-linecap: square"/>
     </g>
     <g id="line2d_8">
      <g>
       <use xlink:href="#m3b0e669cd0" x="268.625455" y="307.584" style="stroke: #000000; stroke-width: 0.8"/>
      </g>
     </g>
     <g id="text_4">
      <!-- 6 -->
      <g transform="translate(265.444205 322.182437) scale(0.1 -0.1)">
       <defs>
        <path id="DejaVuSans-36" d="M 2113 2584 
Q 1688 2584 1439 2293 
Q 1191 2003 1191 1497 
Q 1191 994 1439 701 
Q 1688 409 2113 409 
Q 2538 409 2786 701 
Q 3034 994 3034 1497 
Q 3034 2003 2786 2293 
Q 2538 2584 2113 2584 
z
M 3366 4563 
L 3366 3988 
Q 3128 4100 2886 4159 
Q 2644 4219 2406 4219 
Q 1781 4219 1451 3797 
Q 1122 3375 1075 2522 
Q 1259 2794 1537 2939 
Q 1816 3084 2150 3084 
Q 2853 3084 3261 2657 
Q 3669 2231 3669 1497 
Q 3669 778 3244 343 
Q 2819 -91 2113 -91 
Q 1303 -91 875 529 
Q 447 1150 447 2328 
Q 447 3434 972 4092 
Q 1497 4750 2381 4750 
Q 2619 4750 2861 4703 
Q 3103 4656 3366 4563 
z
" transform="scale(0.015625)"/>
       </defs>
       <use xlink:href="#DejaVuSans-36"/>
      </g>
     </g>
    </g>
    <g id="xtick_5">
     <g id="line2d_9">
      <path d="M 333.556364 307.584 
L 333.556364 41.472 
" clip-path="url(#p604de893ef)" style="fill: none; stroke: #b0b0b0; stroke-width: 0.8; stroke-linecap: square"/>
     </g>
     <g id="line2d_10">
      <g>
       <use xlink:href="#m3b0e669cd0" x="333.556364" y="307.584" style="stroke: #000000; stroke-width: 0.8"/>
      </g>
     </g>
     <g id="text_5">
      <!-- 8 -->
      <g transform="translate(330.375114 322.182437) scale(0.1 -0.1)">
       <defs>
        <path id="DejaVuSans-38" d="M 2034 2216 
Q 1584 2216 1326 1975 
Q 1069 1734 1069 1313 
Q 1069 891 1326 650 
Q 1584 409 2034 409 
Q 2484 409 2743 651 
Q 3003 894 3003 1313 
Q 3003 1734 2745 1975 
Q 2488 2216 2034 2216 
z
M 1403 2484 
Q 997 2584 770 2862 
Q 544 3141 544 3541 
Q 544 4100 942 4425 
Q 1341 4750 2034 4750 
Q 2731 4750 3128 4425 
Q 3525 4100 3525 3541 
Q 3525 3141 3298 2862 
Q 3072 2584 2669 2484 
Q 3125 2378 3379 2068 
Q 3634 1759 3634 1313 
Q 3634 634 3220 271 
Q 2806 -91 2034 -91 
Q 1263 -91 848 271 
Q 434 634 434 1313 
Q 434 1759 690 2068 
Q 947 2378 1403 2484 
z
M 1172 3481 
Q 1172 3119 1398 2916 
Q 1625 2713 2034 2713 
Q 2441 2713 2670 2916 
Q 2900 3119 2900 3481 
Q 2900 3844 2670 4047 
Q 2441 4250 2034 4250 
Q 1625 4250 1398 4047 
Q 1172 3844 1172 3481 
z
" transform="scale(0.015625)"/>
       </defs>
       <use xlink:href="#DejaVuSans-38"/>
      </g>
     </g>
    </g>
    <g id="xtick_6">
     <g id="line2d_11">
      <path d="M 398.487273 307.584 
L 398.487273 41.472 
" clip-path="url(#p604de893ef)" style="fill: none; stroke: #b0b0b0; stroke-width: 0.8; stroke-linecap: square"/>
     </g>
     <g id="line2d_12">
      <g>
       <use xlink:href="#m3b0e669cd0" x="398.487273" y="307.584" style="stroke: #000000; stroke-width: 0.8"/>
      </g>
     </g>
     <g id="text_6">
      <!-- 10 -->
      <g transform="translate(392.124773 322.182437) scale(0.1 -0.1)">
       <defs>
        <path id="DejaVuSans-31" d="M 794 531 
L 1825 531 
L 1825 4091 
L 703 3866 
L 703 4441 
L 1819 4666 
L 2450 4666 
L 2450 531 
L 3481 531 
L 3481 0 
L 794 0 
L 794 531 
z
" transform="scale(0.015625)"/>
       </defs>
       <use xlink:href="#DejaVuSans-31"/>
       <use xlink:href="#DejaVuSans-30" x="63.623047"/>
      </g>
     </g>
    </g>
   </g>
   <g id="matplotlib.axis_2">
    <g id="ytick_1">
     <g id="line2d_13">
      <path d="M 57.6 295.062229 
L 414.72 295.062229 
" clip-path="url(#p604de893ef)" style="fill: none; stroke: #b0b0b0; stroke-width: 0.8; stroke-linecap: square"/>
     </g>
     <g id="line2d_14">
      <defs>
       <path id="mf776d5bf74" d="M 0 0 
L -3.5 0 
" style="stroke: #000000; stroke-width: 0.8"/>
      </defs>
      <g>
       <use xlink:href="#mf776d5bf74" x="57.6" y="295.062229" style="stroke: #000000; stroke-width: 0.8"/>
      </g>
     </g>
     <g id="text_7">
      <!-- 0.990 -->
      <g transform="translate(21.971875 298.861448) scale(0.1 -0.1)">
       <defs>
        <path id="DejaVuSans-2e" d="M 684 794 
L 1344 794 
L 1344 0 
L 684 0 
L 684 794 
z
" transform="scale(0.015625)"/>
        <path id="DejaVuSans-39" d="M 703 97 
L 703 672 
Q 941 559 1184 500 
Q 1428 441 1663 441 
Q 2288 441 2617 861 
Q 2947 1281 2994 2138 
Q 2813 1869 2534 1725 
Q 2256 1581 1919 1581 
Q 1219 1581 811 2004 
Q 403 2428 403 3163 
Q 403 3881 828 4315 
Q 1253 4750 1959 4750 
Q 2769 4750 3195 4129 
Q 3622 3509 3622 2328 
Q 3622 1225 3098 567 
Q 2575 -91 1691 -91 
Q 1453 -91 1209 -44 
Q 966 3 703 97 
z
M 1959 2075 
Q 2384 2075 2632 2365 
Q 2881 2656 2881 3163 
Q 2881 3666 2632 3958 
Q 2384 4250 1959 4250 
Q 1534 4250 1286 3958 
Q 1038 3666 1038 3163 
Q 1038 2656 1286 2365 
Q 1534 2075 1959 2075 
z
" transform="scale(0.015625)"/>
       </defs>
       <use xlink:href="#DejaVuSans-30"/>
       <use xlink:href="#DejaVuSans-2e" x="63.623047"/>
       <use xlink:href="#DejaVuSans-39" x="95.410156"/>
       <use xlink:href="#DejaVuSans-39" x="159.033203"/>
       <use xlink:href="#DejaVuSans-30" x="222.65625"/>
      </g>
     </g>
    </g>
    <g id="ytick_2">
     <g id="line2d_15">
      <path d="M 57.6 261.260565 
L 414.72 261.260565 
" clip-path="url(#p604de893ef)" style="fill: none; stroke: #b0b0b0; stroke-width: 0.8; stroke-linecap: square"/>
     </g>
     <g id="line2d_16">
      <g>
       <use xlink:href="#mf776d5bf74" x="57.6" y="261.260565" style="stroke: #000000; stroke-width: 0.8"/>
      </g>
     </g>
     <g id="text_8">
      <!-- 0.992 -->
      <g transform="translate(21.971875 265.059784) scale(0.1 -0.1)">
       <use xlink:href="#DejaVuSans-30"/>
       <use xlink:href="#DejaVuSans-2e" x="63.623047"/>
       <use xlink:href="#DejaVuSans-39" x="95.410156"/>
       <use xlink:href="#DejaVuSans-39" x="159.033203"/>
       <use xlink:href="#DejaVuSans-32" x="222.65625"/>
      </g>
     </g>
    </g>
    <g id="ytick_3">
     <g id="line2d_17">
      <path d="M 57.6 227.458901 
L 414.72 227.458901 
" clip-path="url(#p604de893ef)" style="fill: none; stroke: #b0b0b0; stroke-width: 0.8; stroke-linecap: square"/>
     </g>
     <g id="line2d_18">
      <g>
       <use xlink:href="#mf776d5bf74" x="57.6" y="227.458901" style="stroke: #000000; stroke-width: 0.8"/>
      </g>
     </g>
     <g id="text_9">
      <!-- 0.994 -->
      <g transform="translate(21.971875 231.25812) scale(0.1 -0.1)">
       <use xlink:href="#DejaVuSans-30"/>
       <use xlink:href="#DejaVuSans-2e" x="63.623047"/>
       <use xlink:href="#DejaVuSans-39" x="95.410156"/>
       <use xlink:href="#DejaVuSans-39" x="159.033203"/>
       <use xlink:href="#DejaVuSans-34" x="222.65625"/>
      </g>
     </g>
    </g>
    <g id="ytick_4">
     <g id="line2d_19">
      <path d="M 57.6 193.657237 
L 414.72 193.657237 
" clip-path="url(#p604de893ef)" style="fill: none; stroke: #b0b0b0; stroke-width: 0.8; stroke-linecap: square"/>
     </g>
     <g id="line2d_20">
      <g>
       <use xlink:href="#mf776d5bf74" x="57.6" y="193.657237" style="stroke: #000000; stroke-width: 0.8"/>
      </g>
     </g>
     <g id="text_10">
      <!-- 0.996 -->
      <g transform="translate(21.971875 197.456456) scale(0.1 -0.1)">
       <use xlink:href="#DejaVuSans-30"/>
       <use xlink:href="#DejaVuSans-2e" x="63.623047"/>
       <use xlink:href="#DejaVuSans-39" x="95.410156"/>
       <use xlink:href="#DejaVuSans-39" x="159.033203"/>
       <use xlink:href="#DejaVuSans-36" x="222.65625"/>
      </g>
     </g>
    </g>
    <g id="ytick_5">
     <g id="line2d_21">
      <path d="M 57.6 159.855573 
L 414.72 159.855573 
" clip-path="url(#p604de893ef)" style="fill: none; stroke: #b0b0b0; stroke-width: 0.8; stroke-linecap: square"/>
     </g>
     <g id="line2d_22">
      <g>
       <use xlink:href="#mf776d5bf74" x="57.6" y="159.855573" style="stroke: #000000; stroke-width: 0.8"/>
      </g>
     </g>
     <g id="text_11">
      <!-- 0.998 -->
      <g transform="translate(21.971875 163.654792) scale(0.1 -0.1)">
       <use xlink:href="#DejaVuSans-30"/>
       <use xlink:href="#DejaVuSans-2e" x="63.623047"/>
       <use xlink:href="#DejaVuSans-39" x="95.410156"/>
       <use xlink:href="#DejaVuSans-39" x="159.033203"/>
       <use xlink:href="#DejaVuSans-38" x="222.65625"/>
      </g>
     </g>
    </g>
    <g id="ytick_6">
     <g id="line2d_23">
      <path d="M 57.6 126.053909 
L 414.72 126.053909 
" clip-path="url(#p604de893ef)" style="fill: none; stroke: #b0b0b0; stroke-width: 0.8; stroke-linecap: square"/>
     </g>
     <g id="line2d_24">
      <g>
       <use xlink:href="#mf776d5bf74" x="57.6" y="126.053909" style="stroke: #000000; stroke-width: 0.8"/>
      </g>
     </g>
     <g id="text_12">
      <!-- 1.000 -->
      <g transform="translate(21.971875 129.853128) scale(0.1 -0.1)">
       <use xlink:href="#DejaVuSans-31"/>
       <use xlink:href="#DejaVuSans-2e" x="63.623047"/>
       <use xlink:href="#DejaVuSans-30" x="95.410156"/>
       <use xlink:href="#DejaVuSans-30" x="159.033203"/>
       <use xlink:href="#DejaVuSans-30" x="222.65625"/>
      </g>
     </g>
    </g>
    <g id="ytick_7">
     <g id="line2d_25">
      <path d="M 57.6 92.252245 
L 414.72 92.252245 
" clip-path="url(#p604de893ef)" style="fill: none; stroke: #b0b0b0; stroke-width: 0.8; stroke-linecap: square"/>
     </g>
     <g id="line2d_26">
      <g>
       <use xlink:href="#mf776d5bf74" x="57.6" y="92.252245" style="stroke: #000000; stroke-width: 0.8"/>
      </g>
     </g>
     <g id="text_13">
      <!-- 1.002 -->
      <g transform="translate(21.971875 96.051464) scale(0.1 -0.1)">
       <use xlink:href="#DejaVuSans-31"/>
       <use xlink:href="#DejaVuSans-2e" x="63.623047"/>
       <use xlink:href="#DejaVuSans-30" x="95.410156"/>
       <use xlink:href="#DejaVuSans-30" x="159.033203"/>
       <use xlink:href="#DejaVuSans-32" x="222.65625"/>
      </g>
     </g>
    </g>
    <g id="ytick_8">
     <g id="line2d_27">
      <path d="M 57.6 58.450581 
L 414.72 58.450581 
" clip-path="url(#p604de893ef)" style="fill: none; stroke: #b0b0b0; stroke-width: 0.8; stroke-linecap: square"/>
     </g>
     <g id="line2d_28">
      <g>
       <use xlink:href="#mf776d5bf74" x="57.6" y="58.450581" style="stroke: #000000; stroke-width: 0.8"/>
      </g>
     </g>
     <g id="text_14">
      <!-- 1.004 -->
      <g transform="translate(21.971875 62.2498) scale(0.1 -0.1)">
       <use xlink:href="#DejaVuSans-31"/>
       <use xlink:href="#DejaVuSans-2e" x="63.623047"/>
       <use xlink:href="#DejaVuSans-30" x="95.410156"/>
       <use xlink:href="#DejaVuSans-30" x="159.033203"/>
       <use xlink:href="#DejaVuSans-34" x="222.65625"/>
      </g>
     </g>
    </g>
   </g>
   <g id="line2d_29">
    <path d="M 73.832727 126.053909 
L 106.88256 126.164045 
L 107.23968 126.501011 
L 107.5968 127.193121 
L 107.986385 128.476293 
L 108.440902 130.815915 
L 108.960349 134.768077 
L 109.544727 141.001918 
L 110.226502 150.757492 
L 111.038138 165.723302 
L 112.077033 189.318507 
L 115.778095 277.911153 
L 116.492335 288.107963 
L 117.044247 293.10983 
L 117.433833 294.995706 
L 117.693556 295.468908 
L 117.855884 295.441943 
L 118.050676 295.080609 
L 118.3104 294.041194 
L 118.66752 291.580379 
L 119.122036 286.760939 
L 119.706415 277.92527 
L 120.420655 263.467638 
L 121.329687 240.211648 
L 122.628305 200.526334 
L 125.744989 103.042078 
L 126.751418 79.414984 
L 127.530589 65.902291 
L 128.147433 58.599063 
L 128.634415 55.088795 
L 128.991535 53.809514 
L 129.218793 53.568 
L 129.38112 53.666916 
L 129.608378 54.182191 
L 129.900567 55.481364 
L 130.290153 58.297435 
L 130.8096 63.880635 
L 131.458909 73.522357 
L 132.303011 89.706996 
L 133.569164 118.89612 
L 135.679418 167.374005 
L 136.588451 183.210528 
L 137.302691 192.098269 
L 137.854604 196.522414 
L 138.276655 198.395844 
L 138.568844 198.91803 
L 138.763636 198.915774 
L 138.958429 198.636271 
L 139.250618 197.706031 
L 139.640204 195.540909 
L 140.127185 191.430089 
L 140.744029 184.196188 
L 141.555665 171.799173 
L 142.691956 150.662552 
L 145.613847 94.879569 
L 146.52288 82.260174 
L 147.23712 75.123555 
L 147.821498 71.331887 
L 148.243549 69.798108 
L 148.568204 69.316872 
L 148.762996 69.319653 
L 148.990255 69.597259 
L 149.282444 70.382758 
L 149.672029 72.161629 
L 150.159011 75.507309 
L 150.775855 81.387317 
L 151.587491 91.498971 
L 152.723782 108.835755 
L 155.515811 152.588037 
L 156.392378 162.489533 
L 157.074153 167.97096 
L 157.626065 170.822741 
L 158.048116 172.007707 
L 158.340305 172.319184 
L 158.567564 172.275872 
L 158.827287 171.924954 
L 159.151942 171.044761 
L 159.573993 169.196383 
L 160.125905 165.662021 
L 160.840145 159.439063 
L 161.781644 149.023281 
L 163.404916 128.037567 
L 165.060655 107.673836 
L 166.034618 98.309997 
L 166.781324 93.08957 
L 167.365702 90.367545 
L 167.820218 89.128112 
L 168.177338 88.703821 
L 168.437062 88.699171 
L 168.696785 88.948141 
L 169.02144 89.60993 
L 169.443491 91.034558 
L 169.995404 93.804678 
L 170.677178 98.498475 
L 171.553745 106.207469 
L 172.917295 120.4555 
L 174.897687 140.86379 
L 175.839185 148.393371 
L 176.585891 152.743436 
L 177.170269 154.99706 
L 177.624785 156.011685 
L 177.981905 156.349164 
L 178.241629 156.341732 
L 178.533818 156.08264 
L 178.890938 155.41443 
L 179.345455 154.028992 
L 179.929833 151.434188 
L 180.676538 146.964811 
L 181.682967 139.396828 
L 185.513891 108.959711 
L 186.293062 105.074255 
L 186.909905 102.973413 
L 187.396887 101.968505 
L 187.786473 101.590662 
L 188.111127 101.565765 
L 188.435782 101.801546 
L 188.825367 102.420517 
L 189.312349 103.687783 
L 189.896727 105.878098 
L 190.643433 109.599166 
L 191.649862 115.849596 
L 195.285993 139.611818 
L 196.097629 142.992429 
L 196.746938 144.804963 
L 197.23392 145.605095 
L 197.623505 145.892354 
L 197.94816 145.89274 
L 198.30528 145.646389 
L 198.727331 145.032359 
L 199.246778 143.822903 
L 199.896087 141.674371 
L 200.707724 138.159655 
L 201.87648 131.997758 
L 204.603578 117.292194 
L 205.512611 113.68573 
L 206.226851 111.646946 
L 206.811229 110.565979 
L 207.298211 110.089329 
L 207.687796 109.989155 
L 208.044916 110.115065 
L 208.466967 110.525982 
L 208.953949 111.337604 
L 209.570793 112.844345 
L 210.349964 115.406855 
L 211.388858 119.671501 
L 214.862662 134.616281 
L 215.706764 136.996652 
L 216.356073 138.240204 
L 216.907985 138.861508 
L 217.362502 139.064661 
L 217.784553 139.00478 
L 218.206604 138.711348 
L 218.726051 138.044487 
L 219.342895 136.849652 
L 220.122065 134.803503 
L 221.16096 131.385115 
L 224.73216 119.048477 
L 225.576262 117.157014 
L 226.258036 116.134528 
L 226.809949 115.665177 
L 227.296931 115.524284 
L 227.751447 115.622661 
L 228.238429 115.967299 
L 228.790342 116.640615 
L 229.472116 117.846936 
L 230.348684 119.900793 
L 231.614836 123.519287 
L 234.049745 130.538734 
L 235.023709 132.62623 
L 235.770415 133.752865 
L 236.419724 134.352826 
L 236.971636 134.571903 
L 237.491084 134.533217 
L 238.010531 134.263661 
L 238.594909 133.700524 
L 239.309149 132.677043 
L 240.218182 130.939489 
L 241.549265 127.843018 
L 243.821847 122.554649 
L 244.828276 120.79078 
L 245.607447 119.832923 
L 246.289222 119.328996 
L 246.8736 119.157872 
L 247.425513 119.217859 
L 248.009891 119.508448 
L 248.6592 120.08632 
L 249.438371 121.089977 
L 250.4448 122.773566 
L 252.392727 126.58912 
L 253.853673 129.197228 
L 254.827636 130.508426 
L 255.606807 131.218504 
L 256.288582 131.562682 
L 256.937891 131.641269 
L 257.554735 131.493774 
L 258.236509 131.093136 
L 259.01568 130.363131 
L 259.989644 129.123972 
L 261.51552 126.760427 
L 263.528378 123.720156 
L 264.567273 122.543448 
L 265.411375 121.897825 
L 266.15808 121.591513 
L 266.87232 121.540778 
L 267.58656 121.722601 
L 268.365731 122.166929 
L 269.274764 122.962824 
L 270.475985 124.344548 
L 273.884858 128.46049 
L 274.858822 129.212167 
L 275.702924 129.59836 
L 276.482095 129.718236 
L 277.261265 129.61098 
L 278.072902 129.273152 
L 279.0144 128.63266 
L 280.248087 127.500304 
L 283.851753 124.013711 
L 284.890647 123.410138 
L 285.79968 123.134694 
L 286.643782 123.10368 
L 287.520349 123.294805 
L 288.494313 123.74579 
L 289.695535 124.569821 
L 292.22784 126.683131 
L 293.688785 127.707655 
L 294.792611 128.219426 
L 295.766575 128.434927 
L 296.708073 128.420981 
L 297.714502 128.176076 
L 298.850793 127.657993 
L 300.409135 126.674419 
L 303.266095 124.84429 
L 304.499782 124.340528 
L 305.603607 124.128446 
L 306.674967 124.154131 
L 307.778793 124.405201 
L 309.077411 124.936166 
L 311.252596 126.114956 
L 313.232989 127.087101 
L 314.564073 127.493941 
L 315.765295 127.627415 
L 316.966516 127.530234 
L 318.265135 127.195895 
L 320.018269 126.490406 
L 323.232349 125.168277 
L 324.660829 124.85043 
L 325.959447 124.785662 
L 327.322996 124.947044 
L 328.913804 125.373686 
L 334.205673 126.993156 
L 335.666618 127.084557 
L 337.160029 126.950839 
L 338.945629 126.552908 
L 343.880378 125.314061 
L 345.503651 125.22051 
L 347.159389 125.350302 
L 349.237178 125.753753 
L 353.457687 126.625019 
L 355.275753 126.729899 
L 357.126284 126.60906 
L 359.561193 126.204131 
L 363.262255 125.595489 
L 365.275113 125.508745 
L 367.352902 125.645895 
L 370.664378 126.130983 
L 373.553804 126.457285 
L 375.761455 126.479595 
L 378.29376 126.268442 
L 384.040145 125.703958 
L 386.539985 125.753609 
L 390.143651 126.08484 
L 393.714851 126.333893 
L 396.474415 126.292404 
L 398.487273 126.153347 
L 398.487273 126.153347 
" clip-path="url(#p604de893ef)" style="fill: none; stroke: #1f77b4; stroke-width: 1.5; stroke-linecap: square"/>
   </g>
   <g id="line2d_30">
    <path d="M 73.832727 126.053909 
L 106.298182 126.053909 
L 107.23968 121.97814 
L 107.95392 119.827833 
L 108.538298 118.70172 
L 109.02528 118.210173 
L 109.414865 118.110948 
L 109.771985 118.247523 
L 110.194036 118.683641 
L 110.681018 119.542546 
L 111.297862 121.138565 
L 112.077033 123.855566 
L 113.148393 128.495709 
L 115.388509 138.379103 
L 116.16768 140.779843 
L 116.784524 142.025055 
L 117.271505 142.560438 
L 117.661091 142.702214 
L 118.050676 142.597809 
L 118.472727 142.224145 
L 118.992175 141.429274 
L 119.641484 139.996657 
L 120.518051 137.478774 
L 121.849135 132.882795 
L 125.744989 119.038178 
L 126.751418 116.414415 
L 127.530589 114.947367 
L 128.147433 114.209411 
L 128.66688 113.912208 
L 129.121396 113.911306 
L 129.543447 114.134504 
L 130.030429 114.66317 
L 130.582342 115.608472 
L 131.264116 117.255293 
L 132.108218 119.927901 
L 133.341905 124.67774 
L 135.387229 132.546799 
L 136.263796 135.038923 
L 136.945571 136.370114 
L 137.497484 137.012568 
L 137.952 137.24205 
L 138.374051 137.21739 
L 138.828567 136.94692 
L 139.348015 136.352411 
L 139.997324 135.235402 
L 140.841425 133.291668 
L 142.107578 129.729807 
L 144.802211 122.040237 
L 145.841105 119.784224 
L 146.685207 118.451559 
L 147.366982 117.75624 
L 147.95136 117.453276 
L 148.470807 117.419504 
L 148.990255 117.609479 
L 149.542167 118.052791 
L 150.191476 118.877947 
L 150.970647 120.258019 
L 151.977076 122.538669 
L 155.710604 131.525262 
L 156.489775 132.607669 
L 157.139084 133.147401 
L 157.690996 133.336518 
L 158.210444 133.291387 
L 158.762356 133.018666 
L 159.411665 132.42904 
L 160.190836 131.397634 
L 161.229731 129.6209 
L 165.385309 122.072425 
L 166.261876 121.106542 
L 167.008582 120.586115 
L 167.690356 120.374217 
L 168.339665 120.412833 
L 168.988975 120.683364 
L 169.703215 121.234608 
L 170.547316 122.189724 
L 171.618676 123.766721 
L 175.319738 129.532677 
L 176.16384 130.303102 
L 176.910545 130.693486 
L 177.59232 130.799944 
L 178.274095 130.67304 
L 178.988335 130.309038 
L 179.832436 129.617584 
L 180.936262 128.395521 
L 185.254167 123.261822 
L 186.195665 122.643016 
L 187.007302 122.358045 
L 187.786473 122.314044 
L 188.565644 122.493891 
L 189.409745 122.92508 
L 190.383709 123.68364 
L 191.714793 125.032549 
L 194.539287 127.963921 
L 195.578182 128.685728 
L 196.487215 129.051403 
L 197.331316 129.149045 
L 198.175418 129.017489 
L 199.084451 128.644446 
L 200.188276 127.93356 
L 201.844015 126.559556 
L 204.116596 124.712385 
L 205.317818 124.021597 
L 206.356713 123.67544 
L 207.298211 123.588371 
L 208.272175 123.727012 
L 209.311069 124.109674 
L 210.544756 124.812893 
L 213.109527 126.621983 
L 214.602938 127.498302 
L 215.739229 127.919437 
L 216.778124 128.073367 
L 217.817018 128.000346 
L 218.953309 127.685633 
L 220.316858 127.062876 
L 224.991884 124.717185 
L 226.225571 124.466526 
L 227.394327 124.456694 
L 228.595549 124.669814 
L 230.024029 125.162644 
L 232.848524 126.454781 
L 234.569193 127.08322 
L 235.900276 127.338823 
L 237.166429 127.358487 
L 238.497513 127.155635 
L 240.153251 126.662224 
L 244.73088 125.16331 
L 246.191825 124.996262 
L 247.620305 125.053612 
L 249.211113 125.345586 
L 251.646022 126.055238 
L 254.145862 126.708881 
L 255.8016 126.907498 
L 257.392407 126.870593 
L 259.178007 126.596548 
L 265.671098 125.365843 
L 267.456698 125.4112 
L 269.502022 125.696223 
L 275.021149 126.592413 
L 276.969076 126.594652 
L 279.176727 126.364946 
L 285.215302 125.606161 
L 287.422953 125.650769 
L 290.214982 125.95157 
L 294.403025 126.3938 
L 296.837935 126.400787 
L 299.759825 126.166893 
L 304.629644 125.766529 
L 307.356742 125.802092 
L 311.544785 126.12774 
L 315.051055 126.296063 
L 318.167738 126.20916 
L 326.056844 125.864322 
L 330.147491 126.043291 
L 335.08224 126.213366 
L 339.172887 126.099687 
L 345.406255 125.926771 
L 350.535796 126.073103 
L 355.860131 126.151582 
L 370.956567 126.083141 
L 377.027607 126.100246 
L 388.260655 126.036426 
L 397.675636 126.07332 
L 398.487273 126.063078 
L 398.487273 126.063078 
" clip-path="url(#p604de893ef)" style="fill: none; stroke: #ff7f0e; stroke-width: 1.5; stroke-linecap: square"/>
   </g>
   <g id="line2d_31">
    <path d="M 73.832727 126.053909 
L 106.460509 125.961309 
L 106.720233 125.514443 
L 107.23968 124.044284 
L 108.603229 120.059583 
L 109.220073 118.967418 
L 109.674589 118.547294 
L 110.064175 118.457853 
L 110.421295 118.596259 
L 110.843345 119.027456 
L 111.330327 119.872185 
L 111.947171 121.437638 
L 112.726342 124.095517 
L 113.830167 128.763954 
L 115.972887 137.956296 
L 116.784524 140.419299 
L 117.401367 141.652804 
L 117.888349 142.198504 
L 118.3104 142.362729 
L 118.699985 142.267756 
L 119.122036 141.913669 
L 119.641484 141.152912 
L 120.290793 139.771648 
L 121.16736 137.3246 
L 122.433513 133.049017 
L 126.491695 118.863702 
L 127.465658 116.428384 
L 128.212364 115.090103 
L 128.829207 114.398369 
L 129.316189 114.14498 
L 129.770705 114.155534 
L 130.225222 114.411936 
L 130.712204 114.96157 
L 131.296582 115.988841 
L 132.010822 117.752344 
L 132.887389 120.559609 
L 134.283404 125.911232 
L 135.971607 132.196848 
L 136.848175 134.674198 
L 137.529949 136.021727 
L 138.114327 136.721744 
L 138.601309 136.974608 
L 139.02336 136.95476 
L 139.477876 136.696627 
L 139.997324 136.123799 
L 140.646633 135.04224 
L 141.490735 133.152273 
L 142.724422 129.767621 
L 145.516451 121.967376 
L 146.555345 119.78688 
L 147.366982 118.555439 
L 148.048756 117.891479 
L 148.633135 117.612246 
L 149.152582 117.596392 
L 149.672029 117.800579 
L 150.256407 118.288189 
L 150.938182 119.18332 
L 151.749818 120.654149 
L 152.821178 123.107173 
L 156.067724 130.89522 
L 156.87936 132.153009 
L 157.561135 132.83607 
L 158.145513 133.131107 
L 158.697425 133.162913 
L 159.249338 132.964446 
L 159.866182 132.491765 
L 160.612887 131.61264 
L 161.554385 130.133297 
L 163.080262 127.250557 
L 165.125585 123.475676 
L 166.196945 121.950061 
L 167.073513 121.069064 
L 167.820218 120.62265 
L 168.469527 120.477926 
L 169.118836 120.563923 
L 169.768145 120.875893 
L 170.514851 121.495816 
L 171.391418 122.532482 
L 172.560175 124.290744 
L 175.579462 129.004707 
L 176.52096 129.983972 
L 177.300131 130.487875 
L 177.981905 130.681642 
L 178.66368 130.644425 
L 179.37792 130.371477 
L 180.189556 129.804707 
L 181.195985 128.802408 
L 182.721862 126.915346 
L 184.929513 124.222948 
L 186.033338 123.218113 
L 186.942371 122.666333 
L 187.754007 122.416024 
L 188.533178 122.401689 
L 189.344815 122.618949 
L 190.221382 123.099141 
L 191.260276 123.942147 
L 192.753687 125.478783 
L 194.993804 127.759872 
L 196.097629 128.555918 
L 197.006662 128.950138 
L 197.850764 129.081329 
L 198.694865 128.986956 
L 199.603898 128.654363 
L 200.675258 128.010938 
L 202.201135 126.800048 
L 204.863302 124.675721 
L 206.064524 124.02129 
L 207.103418 123.705799 
L 208.077382 123.64499 
L 209.051345 123.810897 
L 210.122705 124.229106 
L 211.453789 125.009754 
L 215.544436 127.595829 
L 216.648262 127.937401 
L 217.687156 128.032129 
L 218.758516 127.900665 
L 219.927273 127.525939 
L 221.453149 126.783489 
L 225.056815 124.939454 
L 226.355433 124.574211 
L 227.556655 124.467654 
L 228.757876 124.589752 
L 230.08896 124.959554 
L 231.907025 125.724298 
L 234.796451 126.936584 
L 236.192465 127.26656 
L 237.491084 127.34586 
L 238.822167 127.199118 
L 240.380509 126.790563 
L 245.997033 125.086076 
L 247.457978 125.016975 
L 248.951389 125.172235 
L 250.769455 125.600219 
L 255.347084 126.784947 
L 256.970356 126.901318 
L 258.593629 126.792556 
L 260.574022 126.423655 
L 265.281513 125.455601 
L 267.099578 125.373184 
L 268.950109 125.515956 
L 271.482415 125.958737 
L 274.858822 126.516588 
L 276.87168 126.607558 
L 278.949469 126.470458 
L 282.22848 125.985788 
L 285.150371 125.64854 
L 287.358022 125.622061 
L 289.857862 125.828624 
L 295.734109 126.410647 
L 298.201484 126.356088 
L 301.87008 126.012725 
L 305.343884 125.770911 
L 308.103447 125.81243 
L 312.681076 126.162768 
L 316.025018 126.292088 
L 319.271564 126.17909 
L 326.219171 125.862676 
L 330.017629 126.000248 
L 335.828945 126.209823 
L 340.049455 126.088572 
L 346.055564 125.929479 
L 351.282502 126.076089 
L 356.574371 126.148736 
L 371.411084 126.078442 
L 377.611985 126.100231 
L 389.072291 126.039303 
L 398.357411 126.072517 
L 398.487273 126.070953 
L 398.487273 126.070953 
" clip-path="url(#p604de893ef)" style="fill: none; stroke: #2ca02c; stroke-width: 1.5; stroke-linecap: square"/>
   </g>
   <g id="patch_3">
    <path d="M 57.6 307.584 
L 57.6 41.472 
" style="fill: none; stroke: #000000; stroke-width: 0.8; stroke-linejoin: miter; stroke-linecap: square"/>
   </g>
   <g id="patch_4">
    <path d="M 414.72 307.584 
L 414.72 41.472 
" style="fill: none; stroke: #000000; stroke-width: 0.8; stroke-linejoin: miter; stroke-linecap: square"/>
   </g>
   <g id="patch_5">
    <path d="M 57.6 307.584 
L 414.72 307.584 
" style="fill: none; stroke: #000000; stroke-width: 0.8; stroke-linejoin: miter; stroke-linecap: square"/>
   </g>
   <g id="patch_6">
    <path d="M 57.6 41.472 
L 414.72 41.472 
" style="fill: none; stroke: #000000; stroke-width: 0.8; stroke-linejoin: miter; stroke-linecap: square"/>
   </g>
  </g>
 </g>
 <defs>
  <clipPath id="p604de893ef">
   <rect x="57.6" y="41.472" width="357.12" height="266.112"/>
  </clipPath>
 </defs>
</svg>
