<?xml version="1.0" encoding="utf-8" standalone="no"?>
<!DOCTYPE svg PUBLIC "-//W3C//DTD SVG 1.1//EN"
  "http://www.w3.org/Graphics/SVG/1.1/DTD/svg11.dtd">
<svg xmlns:xlink="http://www.w3.org/1999/xlink" width="460.8pt" height="345.6pt" viewBox="0 0 460.8 345.6" xmlns="http://www.w3.org/2000/svg" version="1.1">
 <metadata>
  <rdf:RDF xmlns:dc="http://purl.org/dc/elements/1.1/" xmlns:cc="http://creativecommons.org/ns#" xmlns:rdf="http://www.w3.org/1999/02/22-rdf-syntax-ns#">
   <cc:Work>
    <dc:type rdf:resource="http://purl.org/dc/dcmitype/StillImage"/>
    <dc:date>2024-05-10T00:57:44.153739</dc:date>
    <dc:format>image/svg+xml</dc:format>
    <dc:creator>
     <cc:Agent>
      <dc:title>Matplotlib v3.8.0, https://matplotlib.org/</dc:title>
     </cc:Agent>
    </dc:creator>
   </cc:Work>
  </rdf:RDF>
 </metadata>
 <defs>
  <style type="text/css">*{stroke-linejoin: round; stroke-linecap: butt}</style>
 </defs>
 <g id="figure_1">
  <g id="patch_1">
   <path d="M 0 345.6 
L 460.8 345.6 
L 460.8 0 
L 0 0 
z
" style="fill: #ffffff"/>
  </g>
  <g id="axes_1">
   <g id="patch_2">
    <path d="M 57.6 307.584 
L 414.72 307.584 
L 414.72 41.472 
L 57.6 41.472 
z
" style="fill: #ffffff"/>
   </g>
   <g id="matplotlib.axis_1">
    <g id="xtick_1">
     <g id="line2d_1">
      <path d="M 73.832727 307.584 
L 73.832727 41.472 
" clip-path="url(#p85b84c54c9)" style="fill: none; stroke: #b0b0b0; stroke-width: 0.8; stroke-linecap: square"/>
     </g>
     <g id="line2d_2">
      <defs>
       <path id="m950d7cfa21" d="M 0 0 
L 0 3.5 
" style="stroke: #000000; stroke-width: 0.8"/>
      </defs>
      <g>
       <use xlink:href="#m950d7cfa21" x="73.832727" y="307.584" style="stroke: #000000; stroke-width: 0.8"/>
      </g>
     </g>
     <g id="text_1">
      <!-- 0 -->
      <g transform="translate(70.651477 322.182437) scale(0.1 -0.1)">
       <defs>
        <path id="DejaVuSans-30" d="M 2034 4250 
Q 1547 4250 1301 3770 
Q 1056 3291 1056 2328 
Q 1056 1369 1301 889 
Q 1547 409 2034 409 
Q 2525 409 2770 889 
Q 3016 1369 3016 2328 
Q 3016 3291 2770 3770 
Q 2525 4250 2034 4250 
z
M 2034 4750 
Q 2819 4750 3233 4129 
Q 3647 3509 3647 2328 
Q 3647 1150 3233 529 
Q 2819 -91 2034 -91 
Q 1250 -91 836 529 
Q 422 1150 422 2328 
Q 422 3509 836 4129 
Q 1250 4750 2034 4750 
z
" transform="scale(0.015625)"/>
       </defs>
       <use xlink:href="#DejaVuSans-30"/>
      </g>
     </g>
    </g>
    <g id="xtick_2">
     <g id="line2d_3">
      <path d="M 138.763636 307.584 
L 138.763636 41.472 
" clip-path="url(#p85b84c54c9)" style="fill: none; stroke: #b0b0b0; stroke-width: 0.8; stroke-linecap: square"/>
     </g>
     <g id="line2d_4">
      <g>
       <use xlink:href="#m950d7cfa21" x="138.763636" y="307.584" style="stroke: #000000; stroke-width: 0.8"/>
      </g>
     </g>
     <g id="text_2">
      <!-- 2 -->
      <g transform="translate(135.582386 322.182437) scale(0.1 -0.1)">
       <defs>
        <path id="DejaVuSans-32" d="M 1228 531 
L 3431 531 
L 3431 0 
L 469 0 
L 469 531 
Q 828 903 1448 1529 
Q 2069 2156 2228 2338 
Q 2531 2678 2651 2914 
Q 2772 3150 2772 3378 
Q 2772 3750 2511 3984 
Q 2250 4219 1831 4219 
Q 1534 4219 1204 4116 
Q 875 4013 500 3803 
L 500 4441 
Q 881 4594 1212 4672 
Q 1544 4750 1819 4750 
Q 2544 4750 2975 4387 
Q 3406 4025 3406 3419 
Q 3406 3131 3298 2873 
Q 3191 2616 2906 2266 
Q 2828 2175 2409 1742 
Q 1991 1309 1228 531 
z
" transform="scale(0.015625)"/>
       </defs>
       <use xlink:href="#DejaVuSans-32"/>
      </g>
     </g>
    </g>
    <g id="xtick_3">
     <g id="line2d_5">
      <path d="M 203.694545 307.584 
L 203.694545 41.472 
" clip-path="url(#p85b84c54c9)" style="fill: none; stroke: #b0b0b0; stroke-width: 0.8; stroke-linecap: square"/>
     </g>
     <g id="line2d_6">
      <g>
       <use xlink:href="#m950d7cfa21" x="203.694545" y="307.584" style="stroke: #000000; stroke-width: 0.8"/>
      </g>
     </g>
     <g id="text_3">
      <!-- 4 -->
      <g transform="translate(200.513295 322.182437) scale(0.1 -0.1)">
       <defs>
        <path id="DejaVuSans-34" d="M 2419 4116 
L 825 1625 
L 2419 1625 
L 2419 4116 
z
M 2253 4666 
L 3047 4666 
L 3047 1625 
L 3713 1625 
L 3713 1100 
L 3047 1100 
L 3047 0 
L 2419 0 
L 2419 1100 
L 313 1100 
L 313 1709 
L 2253 4666 
z
" transform="scale(0.015625)"/>
       </defs>
       <use xlink:href="#DejaVuSans-34"/>
      </g>
     </g>
    </g>
    <g id="xtick_4">
     <g id="line2d_7">
      <path d="M 268.625455 307.584 
L 268.625455 41.472 
" clip-path="url(#p85b84c54c9)" style="fill: none; stroke: #b0b0b0; stroke-width: 0.8; stroke-linecap: square"/>
     </g>
     <g id="line2d_8">
      <g>
       <use xlink:href="#m950d7cfa21" x="268.625455" y="307.584" style="stroke: #000000; stroke-width: 0.8"/>
      </g>
     </g>
     <g id="text_4">
      <!-- 6 -->
      <g transform="translate(265.444205 322.182437) scale(0.1 -0.1)">
       <defs>
        <path id="DejaVuSans-36" d="M 2113 2584 
Q 1688 2584 1439 2293 
Q 1191 2003 1191 1497 
Q 1191 994 1439 701 
Q 1688 409 2113 409 
Q 2538 409 2786 701 
Q 3034 994 3034 1497 
Q 3034 2003 2786 2293 
Q 2538 2584 2113 2584 
z
M 3366 4563 
L 3366 3988 
Q 3128 4100 2886 4159 
Q 2644 4219 2406 4219 
Q 1781 4219 1451 3797 
Q 1122 3375 1075 2522 
Q 1259 2794 1537 2939 
Q 1816 3084 2150 3084 
Q 2853 3084 3261 2657 
Q 3669 2231 3669 1497 
Q 3669 778 3244 343 
Q 2819 -91 2113 -91 
Q 1303 -91 875 529 
Q 447 1150 447 2328 
Q 447 3434 972 4092 
Q 1497 4750 2381 4750 
Q 2619 4750 2861 4703 
Q 3103 4656 3366 4563 
z
" transform="scale(0.015625)"/>
       </defs>
       <use xlink:href="#DejaVuSans-36"/>
      </g>
     </g>
    </g>
    <g id="xtick_5">
     <g id="line2d_9">
      <path d="M 333.556364 307.584 
L 333.556364 41.472 
" clip-path="url(#p85b84c54c9)" style="fill: none; stroke: #b0b0b0; stroke-width: 0.8; stroke-linecap: square"/>
     </g>
     <g id="line2d_10">
      <g>
       <use xlink:href="#m950d7cfa21" x="333.556364" y="307.584" style="stroke: #000000; stroke-width: 0.8"/>
      </g>
     </g>
     <g id="text_5">
      <!-- 8 -->
      <g transform="translate(330.375114 322.182437) scale(0.1 -0.1)">
       <defs>
        <path id="DejaVuSans-38" d="M 2034 2216 
Q 1584 2216 1326 1975 
Q 1069 1734 1069 1313 
Q 1069 891 1326 650 
Q 1584 409 2034 409 
Q 2484 409 2743 651 
Q 3003 894 3003 1313 
Q 3003 1734 2745 1975 
Q 2488 2216 2034 2216 
z
M 1403 2484 
Q 997 2584 770 2862 
Q 544 3141 544 3541 
Q 544 4100 942 4425 
Q 1341 4750 2034 4750 
Q 2731 4750 3128 4425 
Q 3525 4100 3525 3541 
Q 3525 3141 3298 2862 
Q 3072 2584 2669 2484 
Q 3125 2378 3379 2068 
Q 3634 1759 3634 1313 
Q 3634 634 3220 271 
Q 2806 -91 2034 -91 
Q 1263 -91 848 271 
Q 434 634 434 1313 
Q 434 1759 690 2068 
Q 947 2378 1403 2484 
z
M 1172 3481 
Q 1172 3119 1398 2916 
Q 1625 2713 2034 2713 
Q 2441 2713 2670 2916 
Q 2900 3119 2900 3481 
Q 2900 3844 2670 4047 
Q 2441 4250 2034 4250 
Q 1625 4250 1398 4047 
Q 1172 3844 1172 3481 
z
" transform="scale(0.015625)"/>
       </defs>
       <use xlink:href="#DejaVuSans-38"/>
      </g>
     </g>
    </g>
    <g id="xtick_6">
     <g id="line2d_11">
      <path d="M 398.487273 307.584 
L 398.487273 41.472 
" clip-path="url(#p85b84c54c9)" style="fill: none; stroke: #b0b0b0; stroke-width: 0.8; stroke-linecap: square"/>
     </g>
     <g id="line2d_12">
      <g>
       <use xlink:href="#m950d7cfa21" x="398.487273" y="307.584" style="stroke: #000000; stroke-width: 0.8"/>
      </g>
     </g>
     <g id="text_6">
      <!-- 10 -->
      <g transform="translate(392.124773 322.182437) scale(0.1 -0.1)">
       <defs>
        <path id="DejaVuSans-31" d="M 794 531 
L 1825 531 
L 1825 4091 
L 703 3866 
L 703 4441 
L 1819 4666 
L 2450 4666 
L 2450 531 
L 3481 531 
L 3481 0 
L 794 0 
L 794 531 
z
" transform="scale(0.015625)"/>
       </defs>
       <use xlink:href="#DejaVuSans-31"/>
       <use xlink:href="#DejaVuSans-30" x="63.623047"/>
      </g>
     </g>
    </g>
   </g>
   <g id="matplotlib.axis_2">
    <g id="ytick_1">
     <g id="line2d_13">
      <path d="M 57.6 269.746624 
L 414.72 269.746624 
" clip-path="url(#p85b84c54c9)" style="fill: none; stroke: #b0b0b0; stroke-width: 0.8; stroke-linecap: square"/>
     </g>
     <g id="line2d_14">
      <defs>
       <path id="m181271d1fe" d="M 0 0 
L -3.5 0 
" style="stroke: #000000; stroke-width: 0.8"/>
      </defs>
      <g>
       <use xlink:href="#m181271d1fe" x="57.6" y="269.746624" style="stroke: #000000; stroke-width: 0.8"/>
      </g>
     </g>
     <g id="text_7">
      <!-- 1.0 -->
      <g transform="translate(34.696875 273.545843) scale(0.1 -0.1)">
       <defs>
        <path id="DejaVuSans-2e" d="M 684 794 
L 1344 794 
L 1344 0 
L 684 0 
L 684 794 
z
" transform="scale(0.015625)"/>
       </defs>
       <use xlink:href="#DejaVuSans-31"/>
       <use xlink:href="#DejaVuSans-2e" x="63.623047"/>
       <use xlink:href="#DejaVuSans-30" x="95.410156"/>
      </g>
     </g>
    </g>
    <g id="ytick_2">
     <g id="line2d_15">
      <path d="M 57.6 211.795682 
L 414.72 211.795682 
" clip-path="url(#p85b84c54c9)" style="fill: none; stroke: #b0b0b0; stroke-width: 0.8; stroke-linecap: square"/>
     </g>
     <g id="line2d_16">
      <g>
       <use xlink:href="#m181271d1fe" x="57.6" y="211.795682" style="stroke: #000000; stroke-width: 0.8"/>
      </g>
     </g>
     <g id="text_8">
      <!-- 1.1 -->
      <g transform="translate(34.696875 215.594901) scale(0.1 -0.1)">
       <use xlink:href="#DejaVuSans-31"/>
       <use xlink:href="#DejaVuSans-2e" x="63.623047"/>
       <use xlink:href="#DejaVuSans-31" x="95.410156"/>
      </g>
     </g>
    </g>
    <g id="ytick_3">
     <g id="line2d_17">
      <path d="M 57.6 153.844741 
L 414.72 153.844741 
" clip-path="url(#p85b84c54c9)" style="fill: none; stroke: #b0b0b0; stroke-width: 0.8; stroke-linecap: square"/>
     </g>
     <g id="line2d_18">
      <g>
       <use xlink:href="#m181271d1fe" x="57.6" y="153.844741" style="stroke: #000000; stroke-width: 0.8"/>
      </g>
     </g>
     <g id="text_9">
      <!-- 1.2 -->
      <g transform="translate(34.696875 157.643959) scale(0.1 -0.1)">
       <use xlink:href="#DejaVuSans-31"/>
       <use xlink:href="#DejaVuSans-2e" x="63.623047"/>
       <use xlink:href="#DejaVuSans-32" x="95.410156"/>
      </g>
     </g>
    </g>
    <g id="ytick_4">
     <g id="line2d_19">
      <path d="M 57.6 95.893799 
L 414.72 95.893799 
" clip-path="url(#p85b84c54c9)" style="fill: none; stroke: #b0b0b0; stroke-width: 0.8; stroke-linecap: square"/>
     </g>
     <g id="line2d_20">
      <g>
       <use xlink:href="#m181271d1fe" x="57.6" y="95.893799" style="stroke: #000000; stroke-width: 0.8"/>
      </g>
     </g>
     <g id="text_10">
      <!-- 1.3 -->
      <g transform="translate(34.696875 99.693018) scale(0.1 -0.1)">
       <defs>
        <path id="DejaVuSans-33" d="M 2597 2516 
Q 3050 2419 3304 2112 
Q 3559 1806 3559 1356 
Q 3559 666 3084 287 
Q 2609 -91 1734 -91 
Q 1441 -91 1130 -33 
Q 819 25 488 141 
L 488 750 
Q 750 597 1062 519 
Q 1375 441 1716 441 
Q 2309 441 2620 675 
Q 2931 909 2931 1356 
Q 2931 1769 2642 2001 
Q 2353 2234 1838 2234 
L 1294 2234 
L 1294 2753 
L 1863 2753 
Q 2328 2753 2575 2939 
Q 2822 3125 2822 3475 
Q 2822 3834 2567 4026 
Q 2313 4219 1838 4219 
Q 1578 4219 1281 4162 
Q 984 4106 628 3988 
L 628 4550 
Q 988 4650 1302 4700 
Q 1616 4750 1894 4750 
Q 2613 4750 3031 4423 
Q 3450 4097 3450 3541 
Q 3450 3153 3228 2886 
Q 3006 2619 2597 2516 
z
" transform="scale(0.015625)"/>
       </defs>
       <use xlink:href="#DejaVuSans-31"/>
       <use xlink:href="#DejaVuSans-2e" x="63.623047"/>
       <use xlink:href="#DejaVuSans-33" x="95.410156"/>
      </g>
     </g>
    </g>
   </g>
   <g id="line2d_21">
    <path d="M 73.832727 269.746624 
L 108.603229 269.63829 
L 109.966778 269.345236 
L 111.200465 268.850869 
L 112.369222 268.138403 
L 113.505513 267.184773 
L 114.674269 265.90658 
L 115.875491 264.257712 
L 117.206575 262.036798 
L 118.894778 258.74609 
L 121.52448 253.611413 
L 122.563375 252.078147 
L 123.407476 251.203126 
L 124.121716 250.762863 
L 124.771025 250.615178 
L 125.387869 250.699766 
L 126.037178 251.019659 
L 126.751418 251.628094 
L 127.59552 252.653148 
L 128.66688 254.330914 
L 130.257687 257.293131 
L 135.549556 267.908342 
L 137.172829 271.627521 
L 138.471447 275.175441 
L 139.705135 279.224948 
L 141.133615 284.74935 
L 143.081542 292.258452 
L 143.828247 294.252042 
L 144.38016 295.144529 
L 144.802211 295.454341 
L 145.159331 295.464869 
L 145.548916 295.229721 
L 146.003433 294.668084 
L 146.620276 293.510896 
L 147.529309 291.261958 
L 149.120116 286.633146 
L 151.132975 280.133715 
L 153.015971 273.274005 
L 155.385949 263.715408 
L 157.820858 254.078907 
L 158.924684 250.603771 
L 159.768785 248.618033 
L 160.515491 247.397482 
L 161.1648 246.726756 
L 161.781644 246.388772 
L 162.398487 246.302448 
L 163.047796 246.445142 
L 163.762036 246.84169 
L 164.606138 247.587772 
L 165.677498 248.867123 
L 168.469527 252.375415 
L 169.183767 252.846145 
L 169.73568 252.958939 
L 170.222662 252.831114 
L 170.709644 252.451478 
L 171.229091 251.727717 
L 171.781004 250.55427 
L 172.430313 248.596059 
L 173.177018 245.572929 
L 174.248378 240.147248 
L 175.611927 233.424224 
L 176.228771 231.387669 
L 176.715753 230.449305 
L 177.105338 230.134 
L 177.429993 230.144878 
L 177.787113 230.406614 
L 178.274095 231.097606 
L 179.0208 232.61903 
L 180.579142 235.845251 
L 181.195985 236.605313 
L 181.650502 236.84487 
L 182.007622 236.806721 
L 182.364742 236.546906 
L 182.786793 235.933486 
L 183.273775 234.80109 
L 183.890618 232.748621 
L 184.799651 228.829314 
L 186.000873 223.835076 
L 186.552785 222.393223 
L 186.974836 221.831419 
L 187.299491 221.732236 
L 187.59168 221.880173 
L 187.9488 222.336087 
L 188.468247 223.430461 
L 190.513571 228.253133 
L 190.870691 228.459172 
L 191.16288 228.38165 
L 191.487535 228.018934 
L 191.87712 227.195693 
L 192.396567 225.488856 
L 193.175738 222.019574 
L 194.279564 217.24224 
L 194.799011 215.903022 
L 195.156131 215.477548 
L 195.44832 215.43831 
L 195.740509 215.661991 
L 196.130095 216.31738 
L 196.714473 217.844477 
L 197.94816 221.1817 
L 198.370211 221.717234 
L 198.6624 221.782798 
L 198.922124 221.610111 
L 199.246778 221.081651 
L 199.668829 219.902127 
L 200.285673 217.396701 
L 201.681687 211.498574 
L 202.136204 210.511139 
L 202.460858 210.236653 
L 202.720582 210.276487 
L 203.012771 210.578228 
L 203.402356 211.339613 
L 204.116596 213.356822 
L 204.863302 215.269092 
L 205.252887 215.76426 
L 205.512611 215.813926 
L 205.772335 215.615405 
L 206.096989 215.013738 
L 206.51904 213.694337 
L 207.23328 210.554604 
L 208.142313 206.743988 
L 208.596829 205.645164 
L 208.921484 205.320582 
L 209.181207 205.343374 
L 209.473396 205.650466 
L 209.862982 206.450573 
L 210.642153 208.732498 
L 211.258996 210.196343 
L 211.583651 210.522636 
L 211.810909 210.508298 
L 212.070633 210.229218 
L 212.395287 209.493377 
L 212.849804 207.850385 
L 214.505542 201.282144 
L 214.862662 200.838134 
L 215.122385 200.833942 
L 215.382109 201.084409 
L 215.739229 201.785607 
L 216.421004 203.772572 
L 217.037847 205.321648 
L 217.362502 205.67644 
L 217.58976 205.661265 
L 217.817018 205.412229 
L 218.141673 204.660573 
L 218.596189 202.962134 
L 220.024669 197.191662 
L 220.381789 196.656838 
L 220.641513 196.604756 
L 220.901236 196.825624 
L 221.258356 197.514239 
L 221.907665 199.412453 
L 222.492044 200.866073 
L 222.816698 201.181788 
L 223.043956 201.11421 
L 223.30368 200.728473 
L 223.6608 199.698543 
L 224.245178 197.174648 
L 225.08928 193.673305 
L 225.511331 192.771912 
L 225.80352 192.602955 
L 226.030778 192.728519 
L 226.322967 193.188361 
L 226.777484 194.391681 
L 227.621585 196.663196 
L 227.913775 196.947654 
L 228.108567 196.904857 
L 228.335825 196.605224 
L 228.66048 195.736086 
L 229.179927 193.568377 
L 230.121425 189.681693 
L 230.511011 188.927408 
L 230.770735 188.811853 
L 230.997993 188.961714 
L 231.290182 189.461702 
L 231.809629 190.918772 
L 232.491404 192.693433 
L 232.783593 192.94955 
L 232.978385 192.871305 
L 233.205644 192.516112 
L 233.530298 191.556178 
L 234.147142 188.834124 
L 234.861382 186.005965 
L 235.218502 185.308909 
L 235.478225 185.18558 
L 235.705484 185.339627 
L 235.997673 185.856719 
L 236.51712 187.34182 
L 237.133964 188.914121 
L 237.393687 189.137999 
L 237.58848 189.060725 
L 237.815738 188.693222 
L 238.172858 187.573813 
L 239.7312 181.820995 
L 239.990924 181.706722 
L 240.218182 181.878365 
L 240.510371 182.425937 
L 241.094749 184.142093 
L 241.581731 185.304224 
L 241.841455 185.496759 
L 242.036247 185.381494 
L 242.295971 184.8736 
L 242.685556 183.475459 
L 243.886778 178.728586 
L 244.178967 178.3703 
L 244.406225 178.39858 
L 244.665949 178.738793 
L 245.055535 179.722623 
L 245.867171 181.854157 
L 246.126895 181.99432 
L 246.321687 181.824923 
L 246.581411 181.23504 
L 247.003462 179.586761 
L 247.94496 175.731363 
L 248.269615 175.177069 
L 248.496873 175.125446 
L 248.724131 175.342483 
L 249.048785 176.044287 
L 250.08768 178.604157 
L 250.282473 178.595017 
L 250.477265 178.336627 
L 250.769455 177.513272 
L 251.321367 175.08623 
L 251.938211 172.665443 
L 252.295331 172.032434 
L 252.522589 171.996317 
L 252.749847 172.235833 
L 253.074502 172.971881 
L 254.016 175.331829 
L 254.210793 175.353847 
L 254.405585 175.118137 
L 254.697775 174.30993 
L 255.249687 171.881805 
L 255.866531 169.515273 
L 256.191185 168.979092 
L 256.418444 168.961224 
L 256.645702 169.225162 
L 257.002822 170.090339 
L 257.781993 172.118103 
L 258.009251 172.212821 
L 258.204044 172.007986 
L 258.463767 171.337818 
L 258.918284 169.416575 
L 259.632524 166.559107 
L 259.957178 166.016634 
L 260.184436 166.004224 
L 260.411695 166.280628 
L 260.768815 167.168269 
L 261.51552 169.078417 
L 261.742778 169.142277 
L 261.937571 168.900633 
L 262.22976 168.058568 
L 262.846604 165.299867 
L 263.366051 163.493377 
L 263.65824 163.104969 
L 263.853033 163.132124 
L 264.080291 163.435318 
L 264.437411 164.357982 
L 265.119185 166.097037 
L 265.346444 166.168227 
L 265.541236 165.924263 
L 265.833425 165.066974 
L 267.164509 160.320164 
L 267.359302 160.293461 
L 267.58656 160.546904 
L 267.911215 161.332639 
L 268.65792 163.227653 
L 268.852713 163.273119 
L 269.047505 163.028203 
L 269.339695 162.157911 
L 270.605847 157.589641 
L 270.80064 157.540217 
L 270.995433 157.724424 
L 271.287622 158.367181 
L 272.131724 160.443245 
L 272.294051 160.436231 
L 272.488844 160.153282 
L 272.781033 159.226051 
L 273.917324 154.974509 
L 274.144582 154.847933 
L 274.339375 155.00158 
L 274.631564 155.617293 
L 275.475665 157.689611 
L 275.637993 157.674146 
L 275.832785 157.374214 
L 276.124975 156.416839 
L 277.196335 152.370641 
L 277.423593 152.219346 
L 277.618385 152.358666 
L 277.878109 152.879118 
L 278.787142 155.013488 
L 278.949469 154.9287 
L 279.176727 154.448593 
L 279.566313 152.890771 
L 280.280553 150.057352 
L 280.572742 149.656912 
L 280.767535 149.710278 
L 280.994793 150.070619 
L 281.449309 151.376103 
L 281.87136 152.318617 
L 282.066153 152.357059 
L 282.260945 152.075232 
L 282.553135 151.118975 
L 283.592029 147.244862 
L 283.819287 147.130714 
L 284.01408 147.310686 
L 284.306269 147.975599 
L 285.020509 149.762871 
L 285.182836 149.778204 
L 285.377629 149.495708 
L 285.669818 148.529279 
L 286.643782 144.819479 
L 286.87104 144.651797 
L 287.065833 144.794096 
L 287.325556 145.335451 
L 288.137193 147.265875 
L 288.29952 147.195316 
L 288.494313 146.805731 
L 288.851433 145.42288 
L 289.565673 142.587106 
L 289.825396 142.235741 
L 290.020189 142.289341 
L 290.247447 142.666179 
L 290.766895 144.174723 
L 291.091549 144.766137 
L 291.253876 144.755195 
L 291.448669 144.428899 
L 291.773324 143.25474 
L 292.58496 140.091676 
L 292.844684 139.838729 
L 293.007011 139.929679 
L 293.266735 140.424751 
L 294.110836 142.356131 
L 294.273164 142.225641 
L 294.500422 141.650887 
L 294.954938 139.669196 
L 295.44192 137.863112 
L 295.701644 137.505815 
L 295.863971 137.537107 
L 296.091229 137.88529 
L 296.545745 139.1979 
L 296.902865 139.930205 
L 297.065193 139.939837 
L 297.22752 139.702511 
L 297.487244 138.866268 
L 298.461207 135.277378 
L 298.656 135.196285 
L 298.850793 135.394532 
L 299.142982 136.106235 
L 299.72736 137.571211 
L 299.889687 137.596936 
L 300.052015 137.371513 
L 300.311738 136.543228 
L 301.253236 133.029663 
L 301.448029 132.923959 
L 301.642822 133.103911 
L 301.935011 133.802763 
L 302.519389 135.264976 
L 302.681716 135.282952 
L 302.844044 135.045324 
L 303.103767 134.195456 
L 304.0128 130.799621 
L 304.207593 130.690722 
L 304.36992 130.822981 
L 304.629644 131.388356 
L 305.311418 133.02454 
L 305.473745 132.96138 
L 305.668538 132.546764 
L 306.025658 131.092395 
L 306.610036 128.816394 
L 306.86976 128.491553 
L 307.032087 128.559477 
L 307.259345 128.968445 
L 308.070982 130.793675 
L 308.233309 130.62704 
L 308.460567 129.977848 
L 309.499462 126.341605 
L 309.661789 126.35459 
L 309.856582 126.633077 
L 310.246167 127.73475 
L 310.635753 128.567829 
L 310.79808 128.548641 
L 310.992873 128.173778 
L 311.317527 126.896117 
L 311.934371 124.480265 
L 312.194095 124.18513 
L 312.356422 124.27899 
L 312.58368 124.725029 
L 313.330385 126.420751 
L 313.492713 126.267738 
L 313.719971 125.623144 
L 314.7264 122.098246 
L 314.888727 122.112754 
L 315.08352 122.399825 
L 315.505571 123.60914 
L 315.830225 124.257348 
L 315.992553 124.234191 
L 316.187345 123.844609 
L 316.544465 122.388855 
L 317.096378 120.276272 
L 317.356102 119.999276 
L 317.518429 120.111606 
L 317.778153 120.675238 
L 318.394996 122.160721 
L 318.557324 122.095476 
L 318.752116 121.653631 
L 319.141702 119.994806 
L 319.628684 118.203597 
L 319.855942 117.949096 
L 320.018269 118.035376 
L 320.245527 118.484371 
L 320.927302 120.08745 
L 321.057164 120.019713 
L 321.251956 119.583068 
L 321.641542 117.923844 
L 322.128524 116.15391 
L 322.355782 115.922653 
L 322.518109 116.028334 
L 322.777833 116.592421 
L 323.362211 118.018977 
L 323.524538 117.969744 
L 323.719331 117.536266 
L 324.108916 115.875168 
L 324.595898 114.12933 
L 324.823156 113.923038 
L 324.985484 114.049025 
L 325.245207 114.639955 
L 325.79712 115.987986 
L 325.959447 115.946149 
L 326.15424 115.516308 
L 326.543825 113.853821 
L 326.998342 112.194578 
L 327.2256 111.947192 
L 327.387927 112.048422 
L 327.615185 112.523912 
L 328.232029 113.99824 
L 328.361891 113.949295 
L 328.556684 113.526054 
L 328.946269 111.864499 
L 329.400785 110.221949 
L 329.628044 109.994567 
L 329.790371 110.112728 
L 330.050095 110.702367 
L 330.602007 112.016587 
L 330.731869 111.979232 
L 330.926662 111.568066 
L 331.283782 110.06412 
L 331.770764 108.278458 
L 331.998022 108.065371 
L 332.160349 108.1964 
L 332.420073 108.803568 
L 332.93952 110.05567 
L 333.069382 110.035447 
L 333.231709 109.737769 
L 333.523898 108.609168 
L 334.108276 106.364949 
L 334.335535 106.15802 
L 334.497862 106.296322 
L 334.757585 106.914548 
L 335.244567 108.112429 
L 335.406895 108.086638 
L 335.601687 107.656891 
L 335.991273 105.979898 
L 336.413324 104.482472 
L 336.640582 104.271188 
L 336.802909 104.409645 
L 337.062633 105.031277 
L 337.549615 106.209709 
L 337.679476 106.197684 
L 337.841804 105.903708 
L 338.133993 104.769962 
L 338.685905 102.632719 
L 338.913164 102.404242 
L 339.075491 102.534158 
L 339.335215 103.150116 
L 339.822196 104.323386 
L 339.952058 104.304738 
L 340.114385 103.999667 
L 340.43904 102.698042 
L 340.958487 100.751579 
L 341.185745 100.560595 
L 341.348073 100.71863 
L 341.640262 101.466283 
L 342.062313 102.452957 
L 342.192175 102.438876 
L 342.354502 102.136304 
L 342.646691 100.985289 
L 343.198604 98.905918 
L 343.425862 98.736501 
L 343.588189 98.911669 
L 343.880378 99.679002 
L 344.269964 100.596204 
L 344.432291 100.567987 
L 344.627084 100.118676 
L 345.049135 98.272622 
L 345.43872 97.040385 
L 345.633513 96.928675 
L 345.79584 97.10889 
L 346.088029 97.883601 
L 346.477615 98.775892 
L 346.607476 98.75942 
L 346.769804 98.448032 
L 347.094458 97.127731 
L 347.58144 95.318923 
L 347.808698 95.135686 
L 347.971025 95.307534 
L 348.263215 96.077098 
L 348.6528 96.967101 
L 348.782662 96.945825 
L 348.944989 96.62577 
L 349.269644 95.293419 
L 349.756625 93.518767 
L 349.951418 93.358692 
L 350.113745 93.507032 
L 350.373469 94.15618 
L 350.79552 95.169519 
L 350.925382 95.160048 
L 351.087709 94.851313 
L 351.412364 93.526027 
L 351.899345 91.755504 
L 352.094138 91.603357 
L 352.256465 91.76044 
L 352.548655 92.521394 
L 352.93824 93.40369 
L 353.068102 93.370893 
L 353.230429 93.031507 
L 353.587549 91.522379 
L 354.0096 90.028881 
L 354.204393 89.862667 
L 354.36672 90.011435 
L 354.626444 90.66624 
L 355.048495 91.647273 
L 355.178356 91.609869 
L 355.340684 91.26232 
L 355.697804 89.743591 
L 356.119855 88.281704 
L 356.314647 88.141994 
L 356.476975 88.313714 
L 356.769164 89.092991 
L 357.126284 89.900255 
L 357.256145 89.878612 
L 357.418473 89.546892 
L 357.743127 88.190779 
L 358.197644 86.572224 
L 358.392436 86.434555 
L 358.554764 86.610322 
L 358.846953 87.395343 
L 359.204073 88.181225 
L 359.333935 88.142157 
L 359.496262 87.787266 
L 359.853382 86.257736 
L 360.242967 84.90102 
L 360.43776 84.739122 
L 360.600087 84.898809 
L 360.892276 85.672069 
L 361.249396 86.470032 
L 361.379258 86.435966 
L 361.541585 86.084242 
L 361.898705 84.554778 
L 362.288291 83.210895 
L 362.483084 83.062889 
L 362.645411 83.235689 
L 362.9376 84.022458 
L 363.29472 84.783516 
L 363.424582 84.722143 
L 363.619375 84.223644 
L 364.463476 81.397122 
L 364.625804 81.508881 
L 364.885527 82.141317 
L 365.307578 83.104769 
L 365.43744 83.040628 
L 365.632233 82.535299 
L 366.476335 79.746718 
L 366.638662 79.878005 
L 366.898385 80.531419 
L 367.287971 81.433653 
L 367.417833 81.392826 
L 367.58016 81.025491 
L 367.969745 79.332571 
L 368.326865 78.210916 
L 368.521658 78.129343 
L 368.683985 78.358627 
L 369.333295 79.790126 
L 369.398225 79.737123 
L 369.560553 79.359218 
L 369.982604 77.518894 
L 370.307258 76.570651 
L 370.469585 76.497113 
L 370.631913 76.698549 
L 370.989033 77.707026 
L 371.248756 78.155928 
L 371.378618 78.07058 
L 371.573411 77.528883 
L 372.352582 74.88364 
L 372.482444 74.935133 
L 372.677236 75.315466 
L 373.229149 76.532168 
L 373.359011 76.378835 
L 373.586269 75.61498 
L 374.203113 73.351865 
L 374.36544 73.296919 
L 374.527767 73.518875 
L 375.177076 74.913345 
L 375.209542 74.887623 
L 375.371869 74.541678 
L 375.728989 73.002491 
L 376.086109 71.819596 
L 376.280902 71.711316 
L 376.443229 71.930048 
L 377.092538 73.313578 
L 377.125004 73.285946 
L 377.287331 72.929618 
L 377.676916 71.237699 
L 378.034036 70.185853 
L 378.196364 70.146834 
L 378.358691 70.386545 
L 378.975535 71.735546 
L 379.008 71.714095 
L 379.170327 71.384572 
L 379.527447 69.852913 
L 379.884567 68.677832 
L 380.07936 68.583734 
L 380.241687 68.817101 
L 380.858531 70.162083 
L 380.890996 70.139844 
L 381.053324 69.805038 
L 381.410444 68.268249 
L 381.767564 67.115508 
L 381.962356 67.041878 
L 382.124684 67.291967 
L 382.709062 68.606575 
L 382.741527 68.592108 
L 382.903855 68.292017 
L 383.228509 66.927487 
L 383.618095 65.592366 
L 383.812887 65.499271 
L 383.975215 65.737574 
L 384.592058 67.044329 
L 384.624524 67.01526 
L 384.786851 66.646068 
L 385.630953 63.960461 
L 385.663418 63.977191 
L 385.825745 64.225891 
L 386.410124 65.516876 
L 386.442589 65.497778 
L 386.604916 65.172705 
L 386.962036 63.637596 
L 387.319156 62.51656 
L 387.481484 62.454044 
L 387.643811 62.683026 
L 388.228189 63.99228 
L 388.29312 63.945121 
L 388.455447 63.561853 
L 389.267084 60.937761 
L 389.299549 60.949906 
L 389.461876 61.18073 
L 390.046255 62.474764 
L 390.111185 62.421424 
L 390.273513 62.022697 
L 391.085149 59.447404 
L 391.247476 59.647605 
L 391.86432 60.960588 
L 391.929251 60.888107 
L 392.124044 60.321237 
L 392.805818 57.969028 
L 392.93568 58.003851 
L 393.130473 58.386386 
L 393.617455 59.4781 
L 393.747316 59.334046 
L 393.974575 58.549675 
L 394.526487 56.545465 
L 394.688815 56.507614 
L 394.851142 56.764957 
L 395.403055 57.991249 
L 395.43552 57.97349 
L 395.597847 57.646806 
L 395.954967 56.104526 
L 396.279622 55.099887 
L 396.441949 55.034905 
L 396.604276 55.270975 
L 397.188655 56.505244 
L 397.22112 56.475225 
L 397.383447 56.091293 
L 398.162618 53.568 
L 398.29248 53.687709 
L 398.487273 54.164228 
L 398.487273 54.164228 
" clip-path="url(#p85b84c54c9)" style="fill: none; stroke: #1f77b4; stroke-width: 1.5; stroke-linecap: square"/>
   </g>
   <g id="line2d_22">
    <path d="M 73.832727 269.746624 
L 108.375971 269.856676 
L 117.726022 270.136046 
L 119.38176 269.765415 
L 122.173789 269.134859 
L 124.478836 268.894328 
L 129.283724 268.657765 
L 132.400407 268.680036 
L 134.056145 268.924398 
L 135.939142 269.44696 
L 138.601309 270.434413 
L 141.945251 271.674045 
L 143.178938 271.866932 
L 144.250298 271.81636 
L 145.354124 271.535012 
L 146.847535 270.888641 
L 148.211084 270.372258 
L 149.152582 270.262581 
L 151.003113 270.364163 
L 152.301731 270.28501 
L 153.66528 269.966542 
L 156.294982 269.044751 
L 158.015651 268.588491 
L 159.411665 268.448897 
L 161.067404 268.527333 
L 163.210124 268.604979 
L 164.703535 268.40605 
L 166.196945 267.988411 
L 167.430633 267.413292 
L 169.183767 266.546222 
L 169.833076 266.525875 
L 170.839505 266.771554 
L 172.008262 266.977307 
L 173.144553 266.931896 
L 175.546996 266.766703 
L 176.813149 266.994196 
L 178.890938 267.385784 
L 179.702575 267.293291 
L 180.286953 267.012851 
L 180.773935 266.52113 
L 181.195985 265.76511 
L 181.682967 264.36834 
L 182.397207 262.22449 
L 182.559535 262.184718 
L 182.721862 262.393768 
L 183.046516 263.289276 
L 183.760756 265.208374 
L 184.215273 265.833963 
L 184.73472 266.187171 
L 185.546356 266.430971 
L 187.137164 266.649648 
L 188.078662 266.573566 
L 188.857833 266.30053 
L 189.442211 265.866161 
L 189.929193 265.203688 
L 190.383709 264.186311 
L 191.260276 262.045091 
L 191.455069 262.07607 
L 191.682327 262.436958 
L 193.013411 265.176451 
L 193.597789 265.636978 
L 194.474356 266.011667 
L 195.383389 266.173971 
L 196.097629 266.081319 
L 196.746938 265.772843 
L 197.266385 265.271649 
L 197.688436 264.547477 
L 198.110487 263.361577 
L 198.922124 260.9167 
L 199.051985 260.961451 
L 199.246778 261.34588 
L 200.577862 264.839924 
L 201.129775 265.372737 
L 201.844015 265.751558 
L 202.493324 265.869679 
L 203.077702 265.756898 
L 203.629615 265.432171 
L 204.116596 264.894954 
L 204.538647 264.080393 
L 204.960698 262.707424 
L 205.739869 259.949958 
L 205.869731 260.051346 
L 206.096989 260.722335 
L 207.006022 263.936607 
L 207.493004 264.73208 
L 208.077382 265.258613 
L 208.694225 265.521463 
L 209.213673 265.508479 
L 209.73312 265.259086 
L 210.220102 264.774908 
L 210.642153 264.041135 
L 211.031738 262.890386 
L 211.51872 260.584674 
L 211.87584 259.208372 
L 212.005702 259.162643 
L 212.135564 259.414679 
L 212.427753 260.679936 
L 213.044596 263.240457 
L 213.499113 264.232523 
L 214.01856 264.863608 
L 214.570473 265.200787 
L 215.024989 265.2407 
L 215.479505 265.049677 
L 215.934022 264.611246 
L 216.356073 263.895763 
L 216.745658 262.759549 
L 217.167709 260.689562 
L 217.654691 258.397397 
L 217.752087 258.374583 
L 217.784553 258.413904 
L 217.94688 258.918827 
L 219.083171 263.726639 
L 219.570153 264.488899 
L 220.057135 264.888084 
L 220.479185 264.981312 
L 220.868771 264.848062 
L 221.290822 264.459147 
L 221.712873 263.757058 
L 222.102458 262.632656 
L 222.492044 260.694907 
L 223.076422 257.630184 
L 223.173818 257.692561 
L 223.336145 258.296245 
L 224.342575 263.246178 
L 224.797091 264.123707 
L 225.284073 264.612771 
L 225.673658 264.725735 
L 226.030778 264.604584 
L 226.420364 264.223929 
L 226.842415 263.466236 
L 227.199535 262.363368 
L 227.556655 260.498572 
L 228.173498 256.932497 
L 228.270895 257.047089 
L 228.465687 258.006288 
L 229.212393 262.411755 
L 229.666909 263.619633 
L 230.121425 264.255541 
L 230.511011 264.473785 
L 230.835665 264.424792 
L 231.192785 264.126397 
L 231.582371 263.489507 
L 231.971956 262.376287 
L 232.329076 260.576328 
L 233.010851 256.271844 
L 233.075782 256.350455 
L 233.238109 257.121517 
L 234.114676 262.508531 
L 234.569193 263.615661 
L 234.991244 264.131018 
L 235.348364 264.245744 
L 235.673018 264.090537 
L 236.030138 263.634586 
L 236.419724 262.734431 
L 236.776844 261.283035 
L 237.133964 258.771161 
L 237.58848 255.653682 
L 237.653411 255.675479 
L 237.783273 256.20311 
L 238.919564 262.949227 
L 239.341615 263.729411 
L 239.698735 264.006673 
L 239.990924 263.978383 
L 240.283113 263.720729 
L 240.640233 263.087527 
L 240.997353 261.988287 
L 241.322007 260.259648 
L 241.776524 256.260737 
L 242.003782 255.0444 
L 242.068713 255.087915 
L 242.198575 255.711831 
L 243.205004 262.470621 
L 243.627055 263.420546 
L 243.984175 263.774331 
L 244.276364 263.773419 
L 244.568553 263.511673 
L 244.925673 262.833303 
L 245.282793 261.631893 
L 245.607447 259.708052 
L 246.256756 254.454377 
L 246.354153 254.684277 
L 246.548945 256.242366 
L 247.133324 261.08429 
L 247.555375 262.665809 
L 247.94496 263.394411 
L 248.269615 263.597294 
L 248.529338 263.496815 
L 248.821527 263.1092 
L 249.178647 262.21322 
L 249.503302 260.79328 
L 249.827956 258.299126 
L 250.347404 253.890789 
L 250.412335 254.027183 
L 250.574662 255.236633 
L 251.223971 260.976491 
L 251.646022 262.563757 
L 252.035607 263.259265 
L 252.327796 263.394382 
L 252.555055 263.271387 
L 252.847244 262.826182 
L 253.204364 261.802025 
L 253.529018 260.145678 
L 253.853673 257.211648 
L 254.275724 253.347574 
L 254.340655 253.425749 
L 254.470516 254.297792 
L 255.282153 261.390422 
L 255.671738 262.638859 
L 256.028858 263.148867 
L 256.288582 263.176271 
L 256.548305 262.917151 
L 256.87296 262.193277 
L 257.197615 260.908259 
L 257.522269 258.597535 
L 258.106647 252.808817 
L 258.171578 252.939088 
L 258.333905 254.322569 
L 258.950749 260.488743 
L 259.340335 262.138487 
L 259.697455 262.863468 
L 259.957178 263.009447 
L 260.184436 262.876339 
L 260.44416 262.433622 
L 260.768815 261.412648 
L 261.093469 259.589494 
L 261.418124 256.263405 
L 261.807709 252.29399 
L 261.87264 252.407663 
L 262.034967 253.859123 
L 262.651811 260.33065 
L 263.041396 262.013511 
L 263.398516 262.719097 
L 263.65824 262.815239 
L 263.885498 262.61503 
L 264.177687 261.977011 
L 264.502342 260.682221 
L 264.794531 258.614734 
L 265.151651 254.169198 
L 265.411375 251.789992 
L 265.476305 251.920904 
L 265.638633 253.498449 
L 266.223011 260.015875 
L 266.612596 261.814353 
L 266.969716 262.54787 
L 267.196975 262.637492 
L 267.391767 262.483881 
L 267.651491 261.957533 
L 267.976145 260.731105 
L 268.268335 258.761657 
L 268.592989 254.819273 
L 268.917644 251.299627 
L 268.982575 251.443462 
L 269.144902 253.140977 
L 269.696815 259.681038 
L 270.0864 261.609258 
L 270.44352 262.377043 
L 270.670778 262.456085 
L 270.865571 262.274502 
L 271.125295 261.684625 
L 271.449949 260.315615 
L 271.742138 258.076187 
L 272.099258 253.146309 
L 272.326516 250.830206 
L 272.358982 250.832444 
L 272.456378 251.424872 
L 272.845964 257.004636 
L 273.203084 260.155769 
L 273.592669 261.772878 
L 273.884858 262.257307 
L 274.079651 262.265803 
L 274.274444 262.027432 
L 274.566633 261.216392 
L 274.891287 259.525899 
L 275.183476 256.684911 
L 275.670458 250.352568 
L 275.735389 250.533599 
L 275.897716 252.491355 
L 276.417164 259.232824 
L 276.774284 261.192603 
L 277.098938 262.002031 
L 277.326196 262.117314 
L 277.520989 261.926235 
L 277.780713 261.268271 
L 278.072902 259.909416 
L 278.365091 257.448897 
L 278.722211 251.977401 
L 278.949469 249.909661 
L 279.046865 250.586948 
L 279.955898 260.795587 
L 280.313018 261.818235 
L 280.540276 261.952911 
L 280.735069 261.757356 
L 280.994793 261.064637 
L 281.286982 259.618789 
L 281.579171 256.96333 
L 282.131084 249.457874 
L 282.196015 249.808044 
L 282.390807 252.796816 
L 282.812858 258.642708 
L 283.169978 260.82699 
L 283.494633 261.690527 
L 283.689425 261.790405 
L 283.851753 261.639026 
L 284.079011 261.080825 
L 284.3712 259.725608 
L 284.663389 257.22471 
L 284.988044 252.013781 
L 285.247767 249.019805 
L 285.345164 249.750577 
L 286.189265 260.293367 
L 286.51392 261.413149 
L 286.741178 261.635784 
L 286.903505 261.520583 
L 287.130764 260.988777 
L 287.422953 259.638629 
L 287.715142 257.121363 
L 288.007331 252.419024 
L 288.29952 248.587936 
L 288.396916 249.342891 
L 289.241018 260.196346 
L 289.565673 261.29812 
L 289.792931 261.475121 
L 289.955258 261.311043 
L 290.182516 260.689565 
L 290.474705 259.159757 
L 290.766895 256.258966 
L 291.286342 248.158808 
L 291.383738 248.873285 
L 292.260305 260.23545 
L 292.58496 261.224051 
L 292.779753 261.312499 
L 292.94208 261.105142 
L 293.169338 260.40067 
L 293.461527 258.69389 
L 293.753716 255.401012 
L 294.208233 247.751149 
L 294.273164 247.967559 
L 294.435491 250.615395 
L 294.890007 258.024981 
L 295.247127 260.370153 
L 295.539316 261.122714 
L 295.701644 261.153668 
L 295.863971 260.915363 
L 296.123695 259.99104 
L 296.415884 257.990384 
L 296.675607 254.633297 
L 297.097658 247.337994 
L 297.162589 247.625701 
L 297.324916 250.477101 
L 297.746967 257.664933 
L 298.104087 260.169913 
L 298.396276 260.969723 
L 298.558604 261.004598 
L 298.720931 260.755125 
L 298.948189 259.943759 
L 299.240378 257.971692 
L 299.500102 254.639668 
L 299.922153 246.950414 
L 299.987084 247.164168 
L 300.149411 250.030746 
L 300.571462 257.484391 
L 300.928582 260.047858 
L 301.220771 260.83726 
L 301.383098 260.844538 
L 301.545425 260.553258 
L 301.805149 259.482008 
L 302.097338 257.146185 
L 302.357062 253.128027 
L 302.714182 246.54594 
L 302.746647 246.608428 
L 302.844044 247.811215 
L 303.493353 258.651525 
L 303.818007 260.35378 
L 304.045265 260.731886 
L 304.175127 260.664924 
L 304.36992 260.192438 
L 304.629644 258.864269 
L 304.889367 256.416254 
L 305.149091 251.799735 
L 305.473745 246.178206 
L 305.571142 247.262737 
L 306.252916 258.728081 
L 306.577571 260.317605 
L 306.804829 260.590257 
L 306.934691 260.450488 
L 307.129484 259.854213 
L 307.389207 258.303705 
L 307.648931 255.416981 
L 307.94112 249.219838 
L 308.168378 245.796539 
L 308.265775 246.922731 
L 308.915084 258.395638 
L 309.239738 260.12888 
L 309.466996 260.452561 
L 309.596858 260.32679 
L 309.791651 259.731812 
L 310.051375 258.149926 
L 310.311098 255.176931 
L 310.603287 248.757324 
L 310.79808 245.408096 
L 310.830545 245.456025 
L 310.927942 246.774804 
L 311.544785 258.121012 
L 311.86944 259.963078 
L 312.096698 260.314962 
L 312.22656 260.19028 
L 312.421353 259.577603 
L 312.681076 257.933614 
L 312.9408 254.813057 
L 313.232989 248.093041 
L 313.427782 245.034888 
L 313.492713 245.568826 
L 313.752436 251.883987 
L 314.077091 257.269899 
L 314.401745 259.574417 
L 314.661469 260.174233 
L 314.791331 260.100029 
L 314.986124 259.540405 
L 315.245847 257.943557 
L 315.505571 254.886909 
L 315.79776 248.142002 
L 315.992553 244.666425 
L 316.025018 244.756748 
L 316.15488 247.079278 
L 316.609396 256.70599 
L 316.934051 259.29596 
L 317.193775 260.025093 
L 317.323636 259.997127 
L 317.485964 259.607639 
L 317.713222 258.414522 
L 317.972945 255.855284 
L 318.232669 250.803615 
L 318.524858 244.318013 
L 318.557324 244.361117 
L 318.65472 245.8255 
L 319.206633 257.270961 
L 319.531287 259.466631 
L 319.758545 259.911953 
L 319.888407 259.793967 
L 320.0832 259.131313 
L 320.342924 257.301524 
L 320.602647 253.725472 
L 321.024698 243.976432 
L 321.122095 244.747304 
L 321.8688 258.52227 
L 322.160989 259.710093 
L 322.290851 259.769955 
L 322.323316 259.741074 
L 322.485644 259.341727 
L 322.712902 258.078425 
L 322.972625 255.322196 
L 323.232349 249.797127 
L 323.524538 243.626798 
L 323.621935 245.064998 
L 324.206313 257.37556 
L 324.530967 259.378898 
L 324.72576 259.64965 
L 324.855622 259.465074 
L 325.050415 258.665128 
L 325.310138 256.533367 
L 325.569862 252.265709 
L 325.959447 243.270855 
L 325.991913 243.506286 
L 326.15424 247.514875 
L 326.543825 256.185723 
L 326.86848 258.897898 
L 327.095738 259.514108 
L 327.2256 259.443535 
L 327.387927 258.940817 
L 327.647651 257.17311 
L 327.907375 253.62878 
L 328.199564 245.692419 
L 328.361891 242.918191 
L 328.394356 243.123647 
L 328.524218 246.139062 
L 328.946269 256.053489 
L 329.270924 258.798046 
L 329.498182 259.393338 
L 329.595578 259.348801 
L 329.757905 258.89059 
L 329.985164 257.454331 
L 330.244887 254.257233 
L 330.504611 247.758343 
L 330.731869 242.573696 
L 330.764335 242.723155 
L 330.894196 245.685544 
L 331.316247 255.88822 
L 331.640902 258.686407 
L 331.86816 259.271438 
L 331.965556 259.211401 
L 332.127884 258.713927 
L 332.355142 257.189553 
L 332.614865 253.776405 
L 332.874589 246.854088 
L 333.069382 242.256608 
L 333.101847 242.310516 
L 333.199244 244.129799 
L 333.718691 256.488115 
L 334.043345 258.835275 
L 334.238138 259.147364 
L 334.368 258.930768 
L 334.562793 257.99886 
L 334.822516 255.482341 
L 335.08224 250.24537 
L 335.406895 241.916777 
L 335.43936 242.1424 
L 335.569222 245.450619 
L 335.958807 255.386368 
L 336.283462 258.404285 
L 336.51072 259.026632 
L 336.608116 258.959253 
L 336.770444 258.420544 
L 336.997702 256.773536 
L 337.257425 253.029998 
L 337.549615 244.367403 
L 337.679476 241.615248 
L 337.711942 241.637295 
L 337.809338 243.497591 
L 338.29632 255.917026 
L 338.620975 258.531233 
L 338.815767 258.90764 
L 338.913164 258.786617 
L 339.075491 258.14727 
L 339.302749 256.312569 
L 339.562473 252.11154 
L 339.952058 241.273839 
L 340.049455 242.470261 
L 340.666298 256.984453 
L 340.958487 258.669784 
L 341.088349 258.781142 
L 341.120815 258.74987 
L 341.250676 258.395722 
L 341.477935 256.911516 
L 341.737658 253.437871 
L 341.997382 246.117678 
L 342.192175 240.961901 
L 342.22464 241.020754 
L 342.322036 243.081094 
L 342.809018 255.824163 
L 343.101207 258.246669 
L 343.296 258.671021 
L 343.393396 258.552012 
L 343.555724 257.885418 
L 343.782982 255.945375 
L 344.01024 252.208761 
L 344.432291 240.648717 
L 344.497222 241.599749 
L 345.146531 257.040067 
L 345.406255 258.453888 
L 345.536116 258.536683 
L 345.665978 258.221133 
L 345.860771 257.031375 
L 346.120495 253.81597 
L 346.347753 248.013926 
L 346.607476 240.323806 
L 346.639942 240.424429 
L 346.769804 243.863103 
L 347.159389 254.826866 
L 347.451578 257.78125 
L 347.678836 258.438718 
L 347.776233 258.326507 
L 347.93856 257.639599 
L 348.165818 255.603602 
L 348.393076 251.624858 
L 348.782662 240.006444 
L 348.880058 241.517707 
L 349.431971 256.107589 
L 349.72416 258.148885 
L 349.854022 258.322 
L 349.886487 258.297779 
L 350.016349 257.939417 
L 350.211142 256.639118 
L 350.470865 253.109038 
L 350.698124 246.663307 
L 350.925382 239.717952 
L 350.957847 239.791066 
L 351.055244 242.11978 
L 351.50976 255.136874 
L 351.801949 257.791138 
L 351.996742 258.206824 
L 352.094138 258.039956 
L 352.256465 257.233978 
L 352.483724 254.935181 
L 352.710982 250.364824 
L 353.068102 239.397878 
L 353.133033 240.313344 
L 353.782342 256.725417 
L 354.042065 258.057511 
L 354.139462 258.073839 
L 354.269324 257.703412 
L 354.464116 256.337353 
L 354.691375 253.230019 
L 354.918633 246.92114 
L 355.178356 239.106148 
L 355.210822 239.423816 
L 355.373149 245.043568 
L 355.697804 254.297782 
L 355.989993 257.39962 
L 356.184785 257.985921 
L 356.282182 257.878655 
L 356.444509 257.135287 
L 356.671767 254.876231 
L 356.899025 250.333002 
L 357.256145 238.795263 
L 357.321076 239.629496 
L 358.002851 256.827237 
L 358.230109 257.853204 
L 358.327505 257.830177 
L 358.457367 257.38629 
L 358.684625 255.497353 
L 358.911884 251.653106 
L 359.171607 242.512077 
L 359.333935 238.522363 
L 359.3664 238.887495 
L 359.528727 244.823111 
L 359.853382 254.20742 
L 360.145571 257.269612 
L 360.340364 257.764986 
L 360.43776 257.590951 
L 360.600087 256.708072 
L 360.827345 254.144274 
L 361.054604 248.895743 
L 361.379258 238.221022 
L 361.411724 238.563545 
L 361.574051 244.569639 
L 361.898705 254.106588 
L 362.190895 257.185113 
L 362.385687 257.653183 
L 362.483084 257.454433 
L 362.677876 256.237013 
L 362.905135 253.253583 
L 363.132393 247.05948 
L 363.392116 237.933731 
L 363.424582 238.049849 
L 363.554444 242.238462 
L 363.911564 253.767871 
L 364.203753 257.023404 
L 364.398545 257.549096 
L 364.495942 257.366211 
L 364.658269 256.435519 
L 364.885527 253.719043 
L 365.112785 248.07666 
L 365.404975 237.639843 
L 365.469905 238.408923 
L 366.15168 256.528664 
L 366.378938 257.443414 
L 366.476335 257.322211 
L 366.638662 256.47269 
L 366.86592 253.863942 
L 367.093178 248.426146 
L 367.417833 237.387576 
L 367.450298 237.840061 
L 367.645091 245.812387 
L 367.93728 254.017393 
L 368.229469 256.995167 
L 368.391796 257.333436 
L 368.489193 257.120432 
L 368.65152 256.10725 
L 368.878778 253.17122 
L 369.106036 246.979186 
L 369.36576 237.11679 
L 369.430691 237.670559 
L 370.177396 256.776989 
L 370.339724 257.234343 
L 370.372189 257.217717 
L 370.502051 256.803969 
L 370.696844 255.172161 
L 370.924102 251.294376 
L 371.15136 243.108054 
L 371.346153 236.792788 
L 371.378618 237.161803 
L 371.540945 243.784507 
L 371.8656 253.786974 
L 372.157789 256.815104 
L 372.287651 257.130082 
L 372.320116 257.116545 
L 372.417513 256.860918 
L 372.612305 255.417025 
L 372.839564 251.859682 
L 373.066822 244.245229 
L 373.29408 236.539181 
L 373.326545 237.000486 
L 373.521338 245.389605 
L 373.813527 253.816255 
L 374.105716 256.763993 
L 374.235578 257.025833 
L 374.268044 256.996991 
L 374.397905 256.518239 
L 374.592698 254.734904 
L 374.819956 250.479598 
L 375.07968 239.944119 
L 375.209542 236.228403 
L 375.242007 236.511486 
L 375.404335 243.207629 
L 375.728989 253.566003 
L 376.021178 256.638494 
L 376.15104 256.924381 
L 376.183505 256.899087 
L 376.313367 256.424961 
L 376.50816 254.622181 
L 376.735418 250.291899 
L 376.995142 239.547337 
L 377.125004 235.960206 
L 377.157469 236.323731 
L 377.319796 243.280528 
L 377.644451 253.583236 
L 377.93664 256.582896 
L 378.066502 256.81792 
L 378.098967 256.777871 
L 378.228829 256.237779 
L 378.423622 254.305913 
L 378.65088 249.663702 
L 379.008 235.703593 
L 379.105396 237.708018 
L 379.559913 253.851754 
L 379.819636 256.450913 
L 379.949498 256.720045 
L 379.981964 256.685951 
L 380.111825 256.159613 
L 380.306618 254.222311 
L 380.533876 249.534091 
L 380.890996 235.426365 
L 380.988393 237.564202 
L 381.442909 253.827329 
L 381.702633 256.385447 
L 381.832495 256.614307 
L 381.86496 256.568022 
L 381.994822 255.985498 
L 382.189615 253.932595 
L 382.416873 248.951746 
L 382.773993 235.174299 
L 382.838924 236.683351 
L 383.358371 254.490224 
L 383.618095 256.465379 
L 383.683025 256.52055 
L 383.715491 256.48479 
L 383.845353 255.93345 
L 384.040145 253.90243 
L 384.267404 248.936624 
L 384.624524 234.899557 
L 384.689455 236.380111 
L 385.208902 254.41149 
L 385.468625 256.376023 
L 385.533556 256.419041 
L 385.566022 256.375863 
L 385.695884 255.786588 
L 385.890676 253.668041 
L 386.117935 248.468001 
L 386.442589 234.665213 
L 386.539985 236.64924 
L 386.994502 253.571403 
L 387.254225 256.136728 
L 387.351622 256.326512 
L 387.384087 256.300843 
L 387.513949 255.769438 
L 387.708742 253.713997 
L 387.936 248.622106 
L 388.29312 234.409483 
L 388.358051 236.134017 
L 388.845033 253.918811 
L 389.104756 256.14507 
L 389.169687 256.229334 
L 389.202153 256.203479 
L 389.332015 255.661803 
L 389.526807 253.562216 
L 389.754065 248.334187 
L 390.07872 234.149064 
L 390.176116 236.195891 
L 390.630633 253.459541 
L 390.890356 255.983832 
L 390.987753 256.127816 
L 391.020218 256.083266 
L 391.15008 255.460125 
L 391.344873 253.203417 
L 391.572131 247.573778 
L 391.896785 233.851401 
L 391.961716 235.412095 
L 392.448698 253.715181 
L 392.708422 255.965415 
L 392.773353 256.035418 
L 392.805818 255.999573 
L 392.93568 255.400195 
L 393.130473 253.152905 
L 393.357731 247.509328 
L 393.682385 233.594151 
L 393.747316 235.17635 
L 394.234298 253.659066 
L 394.494022 255.883134 
L 394.558953 255.937077 
L 394.591418 255.891845 
L 394.72128 255.246666 
L 394.916073 252.89735 
L 395.143331 246.972973 
L 395.43552 233.393934 
L 395.500451 234.18729 
L 396.117295 254.945562 
L 396.312087 255.84724 
L 396.377018 255.749131 
L 396.50688 254.98621 
L 396.701673 252.413807 
L 396.928931 245.898641 
L 397.22112 233.111192 
L 397.253585 233.702199 
L 397.93536 255.333031 
L 398.065222 255.753177 
L 398.097687 255.731206 
L 398.195084 255.37102 
L 398.389876 253.369624 
L 398.487273 251.646665 
L 398.487273 251.646665 
" clip-path="url(#p85b84c54c9)" style="fill: none; stroke: #ff7f0e; stroke-width: 1.5; stroke-linecap: square"/>
   </g>
   <g id="patch_3">
    <path d="M 57.6 307.584 
L 57.6 41.472 
" style="fill: none; stroke: #000000; stroke-width: 0.8; stroke-linejoin: miter; stroke-linecap: square"/>
   </g>
   <g id="patch_4">
    <path d="M 414.72 307.584 
L 414.72 41.472 
" style="fill: none; stroke: #000000; stroke-width: 0.8; stroke-linejoin: miter; stroke-linecap: square"/>
   </g>
   <g id="patch_5">
    <path d="M 57.6 307.584 
L 414.72 307.584 
" style="fill: none; stroke: #000000; stroke-width: 0.8; stroke-linejoin: miter; stroke-linecap: square"/>
   </g>
   <g id="patch_6">
    <path d="M 57.6 41.472 
L 414.72 41.472 
" style="fill: none; stroke: #000000; stroke-width: 0.8; stroke-linejoin: miter; stroke-linecap: square"/>
   </g>
  </g>
 </g>
 <defs>
  <clipPath id="p85b84c54c9">
   <rect x="57.6" y="41.472" width="357.12" height="266.112"/>
  </clipPath>
 </defs>
</svg>
