<?xml version="1.0" encoding="utf-8" standalone="no"?>
<!DOCTYPE svg PUBLIC "-//W3C//DTD SVG 1.1//EN"
  "http://www.w3.org/Graphics/SVG/1.1/DTD/svg11.dtd">
<svg xmlns:xlink="http://www.w3.org/1999/xlink" width="576pt" height="432pt" viewBox="0 0 576 432" xmlns="http://www.w3.org/2000/svg" version="1.1">
 <metadata>
  <rdf:RDF xmlns:dc="http://purl.org/dc/elements/1.1/" xmlns:cc="http://creativecommons.org/ns#" xmlns:rdf="http://www.w3.org/1999/02/22-rdf-syntax-ns#">
   <cc:Work>
    <dc:type rdf:resource="http://purl.org/dc/dcmitype/StillImage"/>
    <dc:date>2026-04-08T11:42:20.942641</dc:date>
    <dc:format>image/svg+xml</dc:format>
    <dc:creator>
     <cc:Agent>
      <dc:title>Matplotlib v3.10.6, https://matplotlib.org/</dc:title>
     </cc:Agent>
    </dc:creator>
   </cc:Work>
  </rdf:RDF>
 </metadata>
 <defs>
  <style type="text/css">*{stroke-linejoin: round; stroke-linecap: butt}</style>
 </defs>
 <g id="figure_1">
  <g id="patch_1">
   <path d="M 0 432 
L 576 432 
L 576 0 
L 0 0 
z
" style="fill: #ffffff"/>
  </g>
  <g id="axes_1">
   <g id="patch_2">
    <path d="M 60.59 186.48 
L 565.2 186.48 
L 565.2 10.8 
L 60.59 10.8 
z
" style="fill: #ffffff"/>
   </g>
   <g id="matplotlib.axis_1">
    <g id="xtick_1">
     <g id="line2d_1">
      <path d="M 83.526818 186.48 
L 83.526818 10.8 
" clip-path="url(#p9bb139ed06)" style="fill: none; stroke: #b0b0b0; stroke-width: 0.8; stroke-linecap: square"/>
     </g>
     <g id="line2d_2">
      <defs>
       <path id="m89807460f8" d="M 0 0 
L 0 3.5 
" style="stroke: #000000; stroke-width: 0.8"/>
      </defs>
      <g>
       <use xlink:href="#m89807460f8" x="83.526818" y="186.48" style="stroke: #000000; stroke-width: 0.8"/>
      </g>
     </g>
     <g id="text_1">
      <!-- 0 -->
      <g transform="translate(80.345568 201.078437) scale(0.1 -0.1)">
       <defs>
        <path id="DejaVuSans-30" d="M 2034 4250 
Q 1547 4250 1301 3770 
Q 1056 3291 1056 2328 
Q 1056 1369 1301 889 
Q 1547 409 2034 409 
Q 2525 409 2770 889 
Q 3016 1369 3016 2328 
Q 3016 3291 2770 3770 
Q 2525 4250 2034 4250 
z
M 2034 4750 
Q 2819 4750 3233 4129 
Q 3647 3509 3647 2328 
Q 3647 1150 3233 529 
Q 2819 -91 2034 -91 
Q 1250 -91 836 529 
Q 422 1150 422 2328 
Q 422 3509 836 4129 
Q 1250 4750 2034 4750 
z
" transform="scale(0.015625)"/>
       </defs>
       <use xlink:href="#DejaVuSans-30"/>
      </g>
     </g>
    </g>
    <g id="xtick_2">
     <g id="line2d_3">
      <path d="M 175.274091 186.48 
L 175.274091 10.8 
" clip-path="url(#p9bb139ed06)" style="fill: none; stroke: #b0b0b0; stroke-width: 0.8; stroke-linecap: square"/>
     </g>
     <g id="line2d_4">
      <g>
       <use xlink:href="#m89807460f8" x="175.274091" y="186.48" style="stroke: #000000; stroke-width: 0.8"/>
      </g>
     </g>
     <g id="text_2">
      <!-- 2 -->
      <g transform="translate(172.092841 201.078437) scale(0.1 -0.1)">
       <defs>
        <path id="DejaVuSans-32" d="M 1228 531 
L 3431 531 
L 3431 0 
L 469 0 
L 469 531 
Q 828 903 1448 1529 
Q 2069 2156 2228 2338 
Q 2531 2678 2651 2914 
Q 2772 3150 2772 3378 
Q 2772 3750 2511 3984 
Q 2250 4219 1831 4219 
Q 1534 4219 1204 4116 
Q 875 4013 500 3803 
L 500 4441 
Q 881 4594 1212 4672 
Q 1544 4750 1819 4750 
Q 2544 4750 2975 4387 
Q 3406 4025 3406 3419 
Q 3406 3131 3298 2873 
Q 3191 2616 2906 2266 
Q 2828 2175 2409 1742 
Q 1991 1309 1228 531 
z
" transform="scale(0.015625)"/>
       </defs>
       <use xlink:href="#DejaVuSans-32"/>
      </g>
     </g>
    </g>
    <g id="xtick_3">
     <g id="line2d_5">
      <path d="M 267.021364 186.48 
L 267.021364 10.8 
" clip-path="url(#p9bb139ed06)" style="fill: none; stroke: #b0b0b0; stroke-width: 0.8; stroke-linecap: square"/>
     </g>
     <g id="line2d_6">
      <g>
       <use xlink:href="#m89807460f8" x="267.021364" y="186.48" style="stroke: #000000; stroke-width: 0.8"/>
      </g>
     </g>
     <g id="text_3">
      <!-- 4 -->
      <g transform="translate(263.840114 201.078437) scale(0.1 -0.1)">
       <defs>
        <path id="DejaVuSans-34" d="M 2419 4116 
L 825 1625 
L 2419 1625 
L 2419 4116 
z
M 2253 4666 
L 3047 4666 
L 3047 1625 
L 3713 1625 
L 3713 1100 
L 3047 1100 
L 3047 0 
L 2419 0 
L 2419 1100 
L 313 1100 
L 313 1709 
L 2253 4666 
z
" transform="scale(0.015625)"/>
       </defs>
       <use xlink:href="#DejaVuSans-34"/>
      </g>
     </g>
    </g>
    <g id="xtick_4">
     <g id="line2d_7">
      <path d="M 358.768636 186.48 
L 358.768636 10.8 
" clip-path="url(#p9bb139ed06)" style="fill: none; stroke: #b0b0b0; stroke-width: 0.8; stroke-linecap: square"/>
     </g>
     <g id="line2d_8">
      <g>
       <use xlink:href="#m89807460f8" x="358.768636" y="186.48" style="stroke: #000000; stroke-width: 0.8"/>
      </g>
     </g>
     <g id="text_4">
      <!-- 6 -->
      <g transform="translate(355.587386 201.078437) scale(0.1 -0.1)">
       <defs>
        <path id="DejaVuSans-36" d="M 2113 2584 
Q 1688 2584 1439 2293 
Q 1191 2003 1191 1497 
Q 1191 994 1439 701 
Q 1688 409 2113 409 
Q 2538 409 2786 701 
Q 3034 994 3034 1497 
Q 3034 2003 2786 2293 
Q 2538 2584 2113 2584 
z
M 3366 4563 
L 3366 3988 
Q 3128 4100 2886 4159 
Q 2644 4219 2406 4219 
Q 1781 4219 1451 3797 
Q 1122 3375 1075 2522 
Q 1259 2794 1537 2939 
Q 1816 3084 2150 3084 
Q 2853 3084 3261 2657 
Q 3669 2231 3669 1497 
Q 3669 778 3244 343 
Q 2819 -91 2113 -91 
Q 1303 -91 875 529 
Q 447 1150 447 2328 
Q 447 3434 972 4092 
Q 1497 4750 2381 4750 
Q 2619 4750 2861 4703 
Q 3103 4656 3366 4563 
z
" transform="scale(0.015625)"/>
       </defs>
       <use xlink:href="#DejaVuSans-36"/>
      </g>
     </g>
    </g>
    <g id="xtick_5">
     <g id="line2d_9">
      <path d="M 450.515909 186.48 
L 450.515909 10.8 
" clip-path="url(#p9bb139ed06)" style="fill: none; stroke: #b0b0b0; stroke-width: 0.8; stroke-linecap: square"/>
     </g>
     <g id="line2d_10">
      <g>
       <use xlink:href="#m89807460f8" x="450.515909" y="186.48" style="stroke: #000000; stroke-width: 0.8"/>
      </g>
     </g>
     <g id="text_5">
      <!-- 8 -->
      <g transform="translate(447.334659 201.078437) scale(0.1 -0.1)">
       <defs>
        <path id="DejaVuSans-38" d="M 2034 2216 
Q 1584 2216 1326 1975 
Q 1069 1734 1069 1313 
Q 1069 891 1326 650 
Q 1584 409 2034 409 
Q 2484 409 2743 651 
Q 3003 894 3003 1313 
Q 3003 1734 2745 1975 
Q 2488 2216 2034 2216 
z
M 1403 2484 
Q 997 2584 770 2862 
Q 544 3141 544 3541 
Q 544 4100 942 4425 
Q 1341 4750 2034 4750 
Q 2731 4750 3128 4425 
Q 3525 4100 3525 3541 
Q 3525 3141 3298 2862 
Q 3072 2584 2669 2484 
Q 3125 2378 3379 2068 
Q 3634 1759 3634 1313 
Q 3634 634 3220 271 
Q 2806 -91 2034 -91 
Q 1263 -91 848 271 
Q 434 634 434 1313 
Q 434 1759 690 2068 
Q 947 2378 1403 2484 
z
M 1172 3481 
Q 1172 3119 1398 2916 
Q 1625 2713 2034 2713 
Q 2441 2713 2670 2916 
Q 2900 3119 2900 3481 
Q 2900 3844 2670 4047 
Q 2441 4250 2034 4250 
Q 1625 4250 1398 4047 
Q 1172 3844 1172 3481 
z
" transform="scale(0.015625)"/>
       </defs>
       <use xlink:href="#DejaVuSans-38"/>
      </g>
     </g>
    </g>
    <g id="xtick_6">
     <g id="line2d_11">
      <path d="M 542.263182 186.48 
L 542.263182 10.8 
" clip-path="url(#p9bb139ed06)" style="fill: none; stroke: #b0b0b0; stroke-width: 0.8; stroke-linecap: square"/>
     </g>
     <g id="line2d_12">
      <g>
       <use xlink:href="#m89807460f8" x="542.263182" y="186.48" style="stroke: #000000; stroke-width: 0.8"/>
      </g>
     </g>
     <g id="text_6">
      <!-- 10 -->
      <g transform="translate(535.900682 201.078437) scale(0.1 -0.1)">
       <defs>
        <path id="DejaVuSans-31" d="M 794 531 
L 1825 531 
L 1825 4091 
L 703 3866 
L 703 4441 
L 1819 4666 
L 2450 4666 
L 2450 531 
L 3481 531 
L 3481 0 
L 794 0 
L 794 531 
z
" transform="scale(0.015625)"/>
       </defs>
       <use xlink:href="#DejaVuSans-31"/>
       <use xlink:href="#DejaVuSans-30" transform="translate(63.623047 0)"/>
      </g>
     </g>
    </g>
   </g>
   <g id="matplotlib.axis_2">
    <g id="ytick_1">
     <g id="line2d_13">
      <path d="M 60.59 166.938738 
L 565.2 166.938738 
" clip-path="url(#p9bb139ed06)" style="fill: none; stroke: #b0b0b0; stroke-width: 0.8; stroke-linecap: square"/>
     </g>
     <g id="line2d_14">
      <defs>
       <path id="me7c2ee7909" d="M 0 0 
L -3.5 0 
" style="stroke: #000000; stroke-width: 0.8"/>
      </defs>
      <g>
       <use xlink:href="#me7c2ee7909" x="60.59" y="166.938738" style="stroke: #000000; stroke-width: 0.8"/>
      </g>
     </g>
     <g id="text_7">
      <!-- 0.996 -->
      <g transform="translate(24.961875 170.737957) scale(0.1 -0.1)">
       <defs>
        <path id="DejaVuSans-2e" d="M 684 794 
L 1344 794 
L 1344 0 
L 684 0 
L 684 794 
z
" transform="scale(0.015625)"/>
        <path id="DejaVuSans-39" d="M 703 97 
L 703 672 
Q 941 559 1184 500 
Q 1428 441 1663 441 
Q 2288 441 2617 861 
Q 2947 1281 2994 2138 
Q 2813 1869 2534 1725 
Q 2256 1581 1919 1581 
Q 1219 1581 811 2004 
Q 403 2428 403 3163 
Q 403 3881 828 4315 
Q 1253 4750 1959 4750 
Q 2769 4750 3195 4129 
Q 3622 3509 3622 2328 
Q 3622 1225 3098 567 
Q 2575 -91 1691 -91 
Q 1453 -91 1209 -44 
Q 966 3 703 97 
z
M 1959 2075 
Q 2384 2075 2632 2365 
Q 2881 2656 2881 3163 
Q 2881 3666 2632 3958 
Q 2384 4250 1959 4250 
Q 1534 4250 1286 3958 
Q 1038 3666 1038 3163 
Q 1038 2656 1286 2365 
Q 1534 2075 1959 2075 
z
" transform="scale(0.015625)"/>
       </defs>
       <use xlink:href="#DejaVuSans-30"/>
       <use xlink:href="#DejaVuSans-2e" transform="translate(63.623047 0)"/>
       <use xlink:href="#DejaVuSans-39" transform="translate(95.410156 0)"/>
       <use xlink:href="#DejaVuSans-39" transform="translate(159.033203 0)"/>
       <use xlink:href="#DejaVuSans-36" transform="translate(222.65625 0)"/>
      </g>
     </g>
    </g>
    <g id="ytick_2">
     <g id="line2d_15">
      <path d="M 60.59 136.649021 
L 565.2 136.649021 
" clip-path="url(#p9bb139ed06)" style="fill: none; stroke: #b0b0b0; stroke-width: 0.8; stroke-linecap: square"/>
     </g>
     <g id="line2d_16">
      <g>
       <use xlink:href="#me7c2ee7909" x="60.59" y="136.649021" style="stroke: #000000; stroke-width: 0.8"/>
      </g>
     </g>
     <g id="text_8">
      <!-- 0.998 -->
      <g transform="translate(24.961875 140.44824) scale(0.1 -0.1)">
       <use xlink:href="#DejaVuSans-30"/>
       <use xlink:href="#DejaVuSans-2e" transform="translate(63.623047 0)"/>
       <use xlink:href="#DejaVuSans-39" transform="translate(95.410156 0)"/>
       <use xlink:href="#DejaVuSans-39" transform="translate(159.033203 0)"/>
       <use xlink:href="#DejaVuSans-38" transform="translate(222.65625 0)"/>
      </g>
     </g>
    </g>
    <g id="ytick_3">
     <g id="line2d_17">
      <path d="M 60.59 106.359304 
L 565.2 106.359304 
" clip-path="url(#p9bb139ed06)" style="fill: none; stroke: #b0b0b0; stroke-width: 0.8; stroke-linecap: square"/>
     </g>
     <g id="line2d_18">
      <g>
       <use xlink:href="#me7c2ee7909" x="60.59" y="106.359304" style="stroke: #000000; stroke-width: 0.8"/>
      </g>
     </g>
     <g id="text_9">
      <!-- 1.000 -->
      <g transform="translate(24.961875 110.158523) scale(0.1 -0.1)">
       <use xlink:href="#DejaVuSans-31"/>
       <use xlink:href="#DejaVuSans-2e" transform="translate(63.623047 0)"/>
       <use xlink:href="#DejaVuSans-30" transform="translate(95.410156 0)"/>
       <use xlink:href="#DejaVuSans-30" transform="translate(159.033203 0)"/>
       <use xlink:href="#DejaVuSans-30" transform="translate(222.65625 0)"/>
      </g>
     </g>
    </g>
    <g id="ytick_4">
     <g id="line2d_19">
      <path d="M 60.59 76.069587 
L 565.2 76.069587 
" clip-path="url(#p9bb139ed06)" style="fill: none; stroke: #b0b0b0; stroke-width: 0.8; stroke-linecap: square"/>
     </g>
     <g id="line2d_20">
      <g>
       <use xlink:href="#me7c2ee7909" x="60.59" y="76.069587" style="stroke: #000000; stroke-width: 0.8"/>
      </g>
     </g>
     <g id="text_10">
      <!-- 1.002 -->
      <g transform="translate(24.961875 79.868806) scale(0.1 -0.1)">
       <use xlink:href="#DejaVuSans-31"/>
       <use xlink:href="#DejaVuSans-2e" transform="translate(63.623047 0)"/>
       <use xlink:href="#DejaVuSans-30" transform="translate(95.410156 0)"/>
       <use xlink:href="#DejaVuSans-30" transform="translate(159.033203 0)"/>
       <use xlink:href="#DejaVuSans-32" transform="translate(222.65625 0)"/>
      </g>
     </g>
    </g>
    <g id="ytick_5">
     <g id="line2d_21">
      <path d="M 60.59 45.77987 
L 565.2 45.77987 
" clip-path="url(#p9bb139ed06)" style="fill: none; stroke: #b0b0b0; stroke-width: 0.8; stroke-linecap: square"/>
     </g>
     <g id="line2d_22">
      <g>
       <use xlink:href="#me7c2ee7909" x="60.59" y="45.77987" style="stroke: #000000; stroke-width: 0.8"/>
      </g>
     </g>
     <g id="text_11">
      <!-- 1.004 -->
      <g transform="translate(24.961875 49.579089) scale(0.1 -0.1)">
       <use xlink:href="#DejaVuSans-31"/>
       <use xlink:href="#DejaVuSans-2e" transform="translate(63.623047 0)"/>
       <use xlink:href="#DejaVuSans-30" transform="translate(95.410156 0)"/>
       <use xlink:href="#DejaVuSans-30" transform="translate(159.033203 0)"/>
       <use xlink:href="#DejaVuSans-34" transform="translate(222.65625 0)"/>
      </g>
     </g>
    </g>
    <g id="ytick_6">
     <g id="line2d_23">
      <path d="M 60.59 15.490154 
L 565.2 15.490154 
" clip-path="url(#p9bb139ed06)" style="fill: none; stroke: #b0b0b0; stroke-width: 0.8; stroke-linecap: square"/>
     </g>
     <g id="line2d_24">
      <g>
       <use xlink:href="#me7c2ee7909" x="60.59" y="15.490154" style="stroke: #000000; stroke-width: 0.8"/>
      </g>
     </g>
     <g id="text_12">
      <!-- 1.006 -->
      <g transform="translate(24.961875 19.289372) scale(0.1 -0.1)">
       <use xlink:href="#DejaVuSans-31"/>
       <use xlink:href="#DejaVuSans-2e" transform="translate(63.623047 0)"/>
       <use xlink:href="#DejaVuSans-30" transform="translate(95.410156 0)"/>
       <use xlink:href="#DejaVuSans-30" transform="translate(159.033203 0)"/>
       <use xlink:href="#DejaVuSans-36" transform="translate(222.65625 0)"/>
      </g>
     </g>
    </g>
    <g id="text_13">
     <!-- Rotor Speed -->
     <g transform="translate(18.882188 129.288437) rotate(-90) scale(0.1 -0.1)">
      <defs>
       <path id="DejaVuSans-52" d="M 2841 2188 
Q 3044 2119 3236 1894 
Q 3428 1669 3622 1275 
L 4263 0 
L 3584 0 
L 2988 1197 
Q 2756 1666 2539 1819 
Q 2322 1972 1947 1972 
L 1259 1972 
L 1259 0 
L 628 0 
L 628 4666 
L 2053 4666 
Q 2853 4666 3247 4331 
Q 3641 3997 3641 3322 
Q 3641 2881 3436 2590 
Q 3231 2300 2841 2188 
z
M 1259 4147 
L 1259 2491 
L 2053 2491 
Q 2509 2491 2742 2702 
Q 2975 2913 2975 3322 
Q 2975 3731 2742 3939 
Q 2509 4147 2053 4147 
L 1259 4147 
z
" transform="scale(0.015625)"/>
       <path id="DejaVuSans-6f" d="M 1959 3097 
Q 1497 3097 1228 2736 
Q 959 2375 959 1747 
Q 959 1119 1226 758 
Q 1494 397 1959 397 
Q 2419 397 2687 759 
Q 2956 1122 2956 1747 
Q 2956 2369 2687 2733 
Q 2419 3097 1959 3097 
z
M 1959 3584 
Q 2709 3584 3137 3096 
Q 3566 2609 3566 1747 
Q 3566 888 3137 398 
Q 2709 -91 1959 -91 
Q 1206 -91 779 398 
Q 353 888 353 1747 
Q 353 2609 779 3096 
Q 1206 3584 1959 3584 
z
" transform="scale(0.015625)"/>
       <path id="DejaVuSans-74" d="M 1172 4494 
L 1172 3500 
L 2356 3500 
L 2356 3053 
L 1172 3053 
L 1172 1153 
Q 1172 725 1289 603 
Q 1406 481 1766 481 
L 2356 481 
L 2356 0 
L 1766 0 
Q 1100 0 847 248 
Q 594 497 594 1153 
L 594 3053 
L 172 3053 
L 172 3500 
L 594 3500 
L 594 4494 
L 1172 4494 
z
" transform="scale(0.015625)"/>
       <path id="DejaVuSans-72" d="M 2631 2963 
Q 2534 3019 2420 3045 
Q 2306 3072 2169 3072 
Q 1681 3072 1420 2755 
Q 1159 2438 1159 1844 
L 1159 0 
L 581 0 
L 581 3500 
L 1159 3500 
L 1159 2956 
Q 1341 3275 1631 3429 
Q 1922 3584 2338 3584 
Q 2397 3584 2469 3576 
Q 2541 3569 2628 3553 
L 2631 2963 
z
" transform="scale(0.015625)"/>
       <path id="DejaVuSans-20" transform="scale(0.015625)"/>
       <path id="DejaVuSans-53" d="M 3425 4513 
L 3425 3897 
Q 3066 4069 2747 4153 
Q 2428 4238 2131 4238 
Q 1616 4238 1336 4038 
Q 1056 3838 1056 3469 
Q 1056 3159 1242 3001 
Q 1428 2844 1947 2747 
L 2328 2669 
Q 3034 2534 3370 2195 
Q 3706 1856 3706 1288 
Q 3706 609 3251 259 
Q 2797 -91 1919 -91 
Q 1588 -91 1214 -16 
Q 841 59 441 206 
L 441 856 
Q 825 641 1194 531 
Q 1563 422 1919 422 
Q 2459 422 2753 634 
Q 3047 847 3047 1241 
Q 3047 1584 2836 1778 
Q 2625 1972 2144 2069 
L 1759 2144 
Q 1053 2284 737 2584 
Q 422 2884 422 3419 
Q 422 4038 858 4394 
Q 1294 4750 2059 4750 
Q 2388 4750 2728 4690 
Q 3069 4631 3425 4513 
z
" transform="scale(0.015625)"/>
       <path id="DejaVuSans-70" d="M 1159 525 
L 1159 -1331 
L 581 -1331 
L 581 3500 
L 1159 3500 
L 1159 2969 
Q 1341 3281 1617 3432 
Q 1894 3584 2278 3584 
Q 2916 3584 3314 3078 
Q 3713 2572 3713 1747 
Q 3713 922 3314 415 
Q 2916 -91 2278 -91 
Q 1894 -91 1617 61 
Q 1341 213 1159 525 
z
M 3116 1747 
Q 3116 2381 2855 2742 
Q 2594 3103 2138 3103 
Q 1681 3103 1420 2742 
Q 1159 2381 1159 1747 
Q 1159 1113 1420 752 
Q 1681 391 2138 391 
Q 2594 391 2855 752 
Q 3116 1113 3116 1747 
z
" transform="scale(0.015625)"/>
       <path id="DejaVuSans-65" d="M 3597 1894 
L 3597 1613 
L 953 1613 
Q 991 1019 1311 708 
Q 1631 397 2203 397 
Q 2534 397 2845 478 
Q 3156 559 3463 722 
L 3463 178 
Q 3153 47 2828 -22 
Q 2503 -91 2169 -91 
Q 1331 -91 842 396 
Q 353 884 353 1716 
Q 353 2575 817 3079 
Q 1281 3584 2069 3584 
Q 2775 3584 3186 3129 
Q 3597 2675 3597 1894 
z
M 3022 2063 
Q 3016 2534 2758 2815 
Q 2500 3097 2075 3097 
Q 1594 3097 1305 2825 
Q 1016 2553 972 2059 
L 3022 2063 
z
" transform="scale(0.015625)"/>
       <path id="DejaVuSans-64" d="M 2906 2969 
L 2906 4863 
L 3481 4863 
L 3481 0 
L 2906 0 
L 2906 525 
Q 2725 213 2448 61 
Q 2172 -91 1784 -91 
Q 1150 -91 751 415 
Q 353 922 353 1747 
Q 353 2572 751 3078 
Q 1150 3584 1784 3584 
Q 2172 3584 2448 3432 
Q 2725 3281 2906 2969 
z
M 947 1747 
Q 947 1113 1208 752 
Q 1469 391 1925 391 
Q 2381 391 2643 752 
Q 2906 1113 2906 1747 
Q 2906 2381 2643 2742 
Q 2381 3103 1925 3103 
Q 1469 3103 1208 2742 
Q 947 2381 947 1747 
z
" transform="scale(0.015625)"/>
      </defs>
      <use xlink:href="#DejaVuSans-52"/>
      <use xlink:href="#DejaVuSans-6f" transform="translate(64.982422 0)"/>
      <use xlink:href="#DejaVuSans-74" transform="translate(126.164062 0)"/>
      <use xlink:href="#DejaVuSans-6f" transform="translate(165.373047 0)"/>
      <use xlink:href="#DejaVuSans-72" transform="translate(226.554688 0)"/>
      <use xlink:href="#DejaVuSans-20" transform="translate(267.667969 0)"/>
      <use xlink:href="#DejaVuSans-53" transform="translate(299.455078 0)"/>
      <use xlink:href="#DejaVuSans-70" transform="translate(362.931641 0)"/>
      <use xlink:href="#DejaVuSans-65" transform="translate(426.408203 0)"/>
      <use xlink:href="#DejaVuSans-65" transform="translate(487.931641 0)"/>
      <use xlink:href="#DejaVuSans-64" transform="translate(549.455078 0)"/>
     </g>
    </g>
   </g>
   <g id="line2d_25">
    <path d="M 83.526818 106.359304 
L 129.400455 106.374745 
L 131.694136 70.011396 
L 133.070345 51.122109 
L 134.446555 35.816873 
L 135.364027 28.0692 
L 136.2815 22.547903 
L 136.740236 20.676177 
L 137.198973 19.41854 
L 137.657709 18.786057 
L 138.116445 18.785455 
L 138.575182 19.418896 
L 139.033918 20.683789 
L 139.492655 22.572625 
L 140.410127 28.16695 
L 141.3276 36.040966 
L 142.245073 45.954638 
L 143.621282 63.945986 
L 145.456227 91.649678 
L 148.208645 133.648579 
L 149.584855 151.46385 
L 150.502327 161.244639 
L 151.4198 168.999987 
L 152.337273 174.523069 
L 152.796009 176.407289 
L 153.254745 177.696629 
L 153.713482 178.390681 
L 154.172218 178.494545 
L 154.630955 178.018597 
L 155.089691 176.978188 
L 155.548427 175.393301 
L 156.4659 170.690745 
L 157.383373 164.147551 
L 158.300845 156.046625 
L 159.677055 141.668497 
L 161.970736 114.571034 
L 164.264418 88.018297 
L 165.640627 74.277626 
L 166.5581 66.549646 
L 167.475573 60.202198 
L 168.393045 55.393774 
L 169.310518 52.241 
L 169.769255 51.309542 
L 170.227991 50.814873 
L 170.686727 50.758217 
L 171.145464 51.1376 
L 171.6042 51.947804 
L 172.062936 53.180355 
L 172.980409 56.862406 
L 173.897882 62.051982 
L 174.815355 68.569141 
L 176.191564 80.335771 
L 178.485245 102.961358 
L 180.778927 125.25172 
L 182.155136 136.565387 
L 183.072609 142.739369 
L 183.990082 147.605578 
L 184.907555 151.038421 
L 185.366291 152.192969 
L 185.825027 152.966864 
L 186.283764 153.359832 
L 186.7425 153.374935 
L 187.201236 153.018441 
L 187.659973 152.299679 
L 188.118709 151.230852 
L 189.036182 148.104951 
L 189.953655 143.787638 
L 190.871127 138.457111 
L 192.247336 129.006238 
L 194.999755 107.604083 
L 196.8347 93.86969 
L 198.210909 84.983882 
L 199.128382 80.043562 
L 200.045855 76.043677 
L 200.963327 73.08413 
L 201.422064 72.017406 
L 201.8808 71.234128 
L 202.339536 70.737784 
L 202.798273 70.529732 
L 203.257009 70.609179 
L 203.715745 70.973176 
L 204.174482 71.616627 
L 204.633218 72.532313 
L 205.550691 75.141187 
L 206.468164 78.701524 
L 207.385636 83.086066 
L 208.761845 90.868119 
L 211.514264 108.508601 
L 213.349209 119.708195 
L 214.725418 126.786253 
L 215.642891 130.600956 
L 216.560364 133.565119 
L 217.477836 135.605216 
L 217.936573 136.264925 
L 218.395309 136.68128 
L 218.854045 136.854556 
L 219.312782 136.787066 
L 219.771518 136.483099 
L 220.230255 135.94883 
L 221.147727 134.222891 
L 222.0652 131.6922 
L 222.982673 128.462171 
L 224.358882 122.579188 
L 226.193827 113.533683 
L 228.946245 99.766133 
L 230.322455 93.798892 
L 231.698664 88.963061 
L 232.616136 86.51351 
L 233.533609 84.75691 
L 233.992345 84.151492 
L 234.451082 83.732155 
L 234.909818 83.500246 
L 235.368555 83.45568 
L 235.827291 83.596945 
L 236.286027 83.921116 
L 236.744764 84.423879 
L 237.662236 85.941181 
L 238.579709 88.088096 
L 239.497182 90.784918 
L 240.873391 95.647399 
L 243.167073 104.975095 
L 245.460755 114.164559 
L 246.836964 118.85144 
L 247.754436 121.427895 
L 248.671909 123.479651 
L 249.589382 124.954384 
L 250.506855 125.820353 
L 250.965591 126.020875 
L 251.424327 126.066797 
L 251.883064 125.959989 
L 252.3418 125.703537 
L 253.259273 124.759837 
L 254.176745 123.282635 
L 255.094218 121.334253 
L 256.470427 117.695126 
L 258.305373 111.967941 
L 261.516527 101.659537 
L 262.892736 97.914913 
L 264.268945 94.937068 
L 265.186418 93.467653 
L 266.103891 92.45423 
L 267.021364 91.917681 
L 267.4801 91.83068 
L 267.938836 91.863959 
L 268.856309 92.284102 
L 269.773782 93.15468 
L 270.691255 94.438667 
L 271.608727 96.086737 
L 272.984936 99.107974 
L 274.819882 103.785696 
L 277.5723 110.926758 
L 278.948509 114.001821 
L 280.324718 116.460966 
L 281.242191 117.680643 
L 282.159664 118.527669 
L 283.077136 118.984951 
L 283.994609 119.0485 
L 284.912082 118.727124 
L 285.829555 118.041691 
L 286.747027 117.024025 
L 287.6645 115.715472 
L 289.040709 113.316584 
L 291.334391 108.635486 
L 294.086809 103.060662 
L 295.463018 100.736859 
L 296.839227 98.927944 
L 297.7567 98.062227 
L 298.674173 97.493551 
L 299.591645 97.232488 
L 300.509118 97.27989 
L 301.426591 97.627032 
L 302.344064 98.256039 
L 303.261536 99.140593 
L 304.637745 100.870856 
L 306.472691 103.707763 
L 310.601318 110.409296 
L 311.977527 112.177209 
L 313.353736 113.501025 
L 314.271209 114.097253 
L 315.188682 114.448227 
L 316.106155 114.549289 
L 317.023627 114.403903 
L 317.9411 114.023287 
L 318.858573 113.425802 
L 320.234782 112.178433 
L 321.610991 110.60454 
L 324.363409 106.97766 
L 326.657091 104.088276 
L 328.0333 102.659938 
L 329.409509 101.574382 
L 330.326982 101.073196 
L 331.244455 100.763886 
L 332.161927 100.651361 
L 333.0794 100.734296 
L 333.996873 101.005294 
L 334.914345 101.451244 
L 336.290555 102.406904 
L 337.666764 103.633966 
L 340.419182 106.507602 
L 342.712864 108.827643 
L 344.089073 109.98379 
L 345.465282 110.868414 
L 346.841491 111.429292 
L 347.758964 111.608878 
L 348.676436 111.630372 
L 349.593909 111.497239 
L 350.970118 111.02693 
L 352.346327 110.274283 
L 354.181273 108.943825 
L 360.144845 104.225088 
L 361.521055 103.500698 
L 362.897264 103.029005 
L 364.273473 102.833279 
L 365.649682 102.916731 
L 367.025891 103.262979 
L 368.4021 103.837836 
L 370.237045 104.873559 
L 376.659355 108.844303 
L 378.035564 109.366735 
L 379.411773 109.680337 
L 380.787982 109.770987 
L 382.164191 109.640875 
L 383.5404 109.307672 
L 385.375345 108.603095 
L 387.669027 107.452493 
L 391.797655 105.350281 
L 393.6326 104.680473 
L 395.467545 104.287999 
L 396.843755 104.197569 
L 398.219964 104.282578 
L 400.054909 104.645201 
L 401.889855 105.236293 
L 405.101009 106.557261 
L 407.853427 107.639253 
L 409.688373 108.177049 
L 411.523318 108.495857 
L 413.358264 108.567162 
L 415.193209 108.394613 
L 417.028155 108.011839 
L 419.780573 107.174546 
L 424.367936 105.711333 
L 426.661618 105.238236 
L 428.496564 105.066529 
L 430.331509 105.092643 
L 432.625191 105.380656 
L 435.377609 105.997953 
L 441.341182 107.47124 
L 443.634864 107.770092 
L 445.928545 107.82263 
L 448.222227 107.634088 
L 450.974645 107.163762 
L 458.314427 105.728533 
L 460.608109 105.550397 
L 462.901791 105.575199 
L 465.654209 105.844843 
L 469.782836 106.528011 
L 473.911464 107.172746 
L 476.663882 107.370724 
L 479.4163 107.328216 
L 482.627455 107.016827 
L 492.260918 105.845703 
L 495.013336 105.836095 
L 498.224491 106.051953 
L 503.729327 106.7048 
L 507.399218 107.039146 
L 510.610373 107.099474 
L 513.821527 106.93857 
L 519.7851 106.345259 
L 523.913727 106.028611 
L 527.124882 105.981486 
L 530.794773 106.158684 
L 541.804445 106.938901 
L 542.263182 106.939392 
L 542.263182 106.939392 
" clip-path="url(#p9bb139ed06)" style="fill: none; stroke: #0000ff; stroke-width: 1.5; stroke-linecap: square"/>
   </g>
   <g id="patch_3">
    <path d="M 60.59 186.48 
L 60.59 10.8 
" style="fill: none; stroke: #000000; stroke-width: 0.8; stroke-linejoin: miter; stroke-linecap: square"/>
   </g>
   <g id="patch_4">
    <path d="M 565.2 186.48 
L 565.2 10.8 
" style="fill: none; stroke: #000000; stroke-width: 0.8; stroke-linejoin: miter; stroke-linecap: square"/>
   </g>
   <g id="patch_5">
    <path d="M 60.59 186.48 
L 565.2 186.48 
" style="fill: none; stroke: #000000; stroke-width: 0.8; stroke-linejoin: miter; stroke-linecap: square"/>
   </g>
   <g id="patch_6">
    <path d="M 60.59 10.8 
L 565.2 10.8 
" style="fill: none; stroke: #000000; stroke-width: 0.8; stroke-linejoin: miter; stroke-linecap: square"/>
   </g>
   <g id="legend_1">
    <g id="patch_7">
     <path d="M 494.1 33.5 
L 558.2 33.5 
Q 560.2 33.5 560.2 31.5 
L 560.2 17.8 
Q 560.2 15.8 558.2 15.8 
L 494.1 15.8 
Q 492.1 15.8 492.1 17.8 
L 492.1 31.5 
Q 492.1 33.5 494.1 33.5 
z
" style="fill: #ffffff; opacity: 0.8; stroke: #cccccc; stroke-linejoin: miter"/>
    </g>
    <g id="line2d_26">
     <path d="M 496.1 23.9 
L 506.1 23.9 
L 516.1 23.9 
" style="fill: none; stroke: #0000ff; stroke-width: 1.5; stroke-linecap: square"/>
    </g>
    <g id="text_14">
     <!-- $\omega$ (pu) -->
     <g transform="translate(524.1 27.4) scale(0.1 -0.1)">
      <defs>
       <path id="DejaVuSans-Oblique-3c9" d="M 1369 -91 
Q 72 -91 434 1766 
Q 575 2500 1256 3500 
L 1875 3500 
Q 1231 2500 1088 1750 
Q 819 397 1519 397 
Q 2166 397 2478 2078 
L 3009 2078 
Q 2669 388 3316 397 
Q 4013 403 4275 1750 
Q 4419 2500 4169 3500 
L 4788 3500 
Q 5075 2500 4934 1766 
Q 4578 -94 3278 -91 
Q 2428 -88 2503 844 
Q 2194 -91 1369 -91 
z
" transform="scale(0.015625)"/>
       <path id="DejaVuSans-28" d="M 1984 4856 
Q 1566 4138 1362 3434 
Q 1159 2731 1159 2009 
Q 1159 1288 1364 580 
Q 1569 -128 1984 -844 
L 1484 -844 
Q 1016 -109 783 600 
Q 550 1309 550 2009 
Q 550 2706 781 3412 
Q 1013 4119 1484 4856 
L 1984 4856 
z
" transform="scale(0.015625)"/>
       <path id="DejaVuSans-75" d="M 544 1381 
L 544 3500 
L 1119 3500 
L 1119 1403 
Q 1119 906 1312 657 
Q 1506 409 1894 409 
Q 2359 409 2629 706 
Q 2900 1003 2900 1516 
L 2900 3500 
L 3475 3500 
L 3475 0 
L 2900 0 
L 2900 538 
Q 2691 219 2414 64 
Q 2138 -91 1772 -91 
Q 1169 -91 856 284 
Q 544 659 544 1381 
z
M 1991 3584 
L 1991 3584 
z
" transform="scale(0.015625)"/>
       <path id="DejaVuSans-29" d="M 513 4856 
L 1013 4856 
Q 1481 4119 1714 3412 
Q 1947 2706 1947 2009 
Q 1947 1309 1714 600 
Q 1481 -109 1013 -844 
L 513 -844 
Q 928 -128 1133 580 
Q 1338 1288 1338 2009 
Q 1338 2731 1133 3434 
Q 928 4138 513 4856 
z
" transform="scale(0.015625)"/>
      </defs>
      <use xlink:href="#DejaVuSans-Oblique-3c9" transform="translate(0 0.125)"/>
      <use xlink:href="#DejaVuSans-20" transform="translate(83.740234 0.125)"/>
      <use xlink:href="#DejaVuSans-28" transform="translate(115.527344 0.125)"/>
      <use xlink:href="#DejaVuSans-70" transform="translate(154.541016 0.125)"/>
      <use xlink:href="#DejaVuSans-75" transform="translate(218.017578 0.125)"/>
      <use xlink:href="#DejaVuSans-29" transform="translate(281.396484 0.125)"/>
     </g>
    </g>
   </g>
  </g>
  <g id="axes_2">
   <g id="patch_8">
    <path d="M 60.59 390.04 
L 565.2 390.04 
L 565.2 214.36 
L 60.59 214.36 
z
" style="fill: #ffffff"/>
   </g>
   <g id="matplotlib.axis_3">
    <g id="xtick_7">
     <g id="line2d_27">
      <path d="M 83.526818 390.04 
L 83.526818 214.36 
" clip-path="url(#p5317231ec8)" style="fill: none; stroke: #b0b0b0; stroke-width: 0.8; stroke-linecap: square"/>
     </g>
     <g id="line2d_28">
      <g>
       <use xlink:href="#m89807460f8" x="83.526818" y="390.04" style="stroke: #000000; stroke-width: 0.8"/>
      </g>
     </g>
     <g id="text_15">
      <!-- 0 -->
      <g transform="translate(80.345568 404.638437) scale(0.1 -0.1)">
       <use xlink:href="#DejaVuSans-30"/>
      </g>
     </g>
    </g>
    <g id="xtick_8">
     <g id="line2d_29">
      <path d="M 175.274091 390.04 
L 175.274091 214.36 
" clip-path="url(#p5317231ec8)" style="fill: none; stroke: #b0b0b0; stroke-width: 0.8; stroke-linecap: square"/>
     </g>
     <g id="line2d_30">
      <g>
       <use xlink:href="#m89807460f8" x="175.274091" y="390.04" style="stroke: #000000; stroke-width: 0.8"/>
      </g>
     </g>
     <g id="text_16">
      <!-- 2 -->
      <g transform="translate(172.092841 404.638437) scale(0.1 -0.1)">
       <use xlink:href="#DejaVuSans-32"/>
      </g>
     </g>
    </g>
    <g id="xtick_9">
     <g id="line2d_31">
      <path d="M 267.021364 390.04 
L 267.021364 214.36 
" clip-path="url(#p5317231ec8)" style="fill: none; stroke: #b0b0b0; stroke-width: 0.8; stroke-linecap: square"/>
     </g>
     <g id="line2d_32">
      <g>
       <use xlink:href="#m89807460f8" x="267.021364" y="390.04" style="stroke: #000000; stroke-width: 0.8"/>
      </g>
     </g>
     <g id="text_17">
      <!-- 4 -->
      <g transform="translate(263.840114 404.638437) scale(0.1 -0.1)">
       <use xlink:href="#DejaVuSans-34"/>
      </g>
     </g>
    </g>
    <g id="xtick_10">
     <g id="line2d_33">
      <path d="M 358.768636 390.04 
L 358.768636 214.36 
" clip-path="url(#p5317231ec8)" style="fill: none; stroke: #b0b0b0; stroke-width: 0.8; stroke-linecap: square"/>
     </g>
     <g id="line2d_34">
      <g>
       <use xlink:href="#m89807460f8" x="358.768636" y="390.04" style="stroke: #000000; stroke-width: 0.8"/>
      </g>
     </g>
     <g id="text_18">
      <!-- 6 -->
      <g transform="translate(355.587386 404.638437) scale(0.1 -0.1)">
       <use xlink:href="#DejaVuSans-36"/>
      </g>
     </g>
    </g>
    <g id="xtick_11">
     <g id="line2d_35">
      <path d="M 450.515909 390.04 
L 450.515909 214.36 
" clip-path="url(#p5317231ec8)" style="fill: none; stroke: #b0b0b0; stroke-width: 0.8; stroke-linecap: square"/>
     </g>
     <g id="line2d_36">
      <g>
       <use xlink:href="#m89807460f8" x="450.515909" y="390.04" style="stroke: #000000; stroke-width: 0.8"/>
      </g>
     </g>
     <g id="text_19">
      <!-- 8 -->
      <g transform="translate(447.334659 404.638437) scale(0.1 -0.1)">
       <use xlink:href="#DejaVuSans-38"/>
      </g>
     </g>
    </g>
    <g id="xtick_12">
     <g id="line2d_37">
      <path d="M 542.263182 390.04 
L 542.263182 214.36 
" clip-path="url(#p5317231ec8)" style="fill: none; stroke: #b0b0b0; stroke-width: 0.8; stroke-linecap: square"/>
     </g>
     <g id="line2d_38">
      <g>
       <use xlink:href="#m89807460f8" x="542.263182" y="390.04" style="stroke: #000000; stroke-width: 0.8"/>
      </g>
     </g>
     <g id="text_20">
      <!-- 10 -->
      <g transform="translate(535.900682 404.638437) scale(0.1 -0.1)">
       <use xlink:href="#DejaVuSans-31"/>
       <use xlink:href="#DejaVuSans-30" transform="translate(63.623047 0)"/>
      </g>
     </g>
    </g>
    <g id="text_21">
     <!-- Time (s) -->
     <g transform="translate(292.566094 418.316562) scale(0.1 -0.1)">
      <defs>
       <path id="DejaVuSans-54" d="M -19 4666 
L 3928 4666 
L 3928 4134 
L 2272 4134 
L 2272 0 
L 1638 0 
L 1638 4134 
L -19 4134 
L -19 4666 
z
" transform="scale(0.015625)"/>
       <path id="DejaVuSans-69" d="M 603 3500 
L 1178 3500 
L 1178 0 
L 603 0 
L 603 3500 
z
M 603 4863 
L 1178 4863 
L 1178 4134 
L 603 4134 
L 603 4863 
z
" transform="scale(0.015625)"/>
       <path id="DejaVuSans-6d" d="M 3328 2828 
Q 3544 3216 3844 3400 
Q 4144 3584 4550 3584 
Q 5097 3584 5394 3201 
Q 5691 2819 5691 2113 
L 5691 0 
L 5113 0 
L 5113 2094 
Q 5113 2597 4934 2840 
Q 4756 3084 4391 3084 
Q 3944 3084 3684 2787 
Q 3425 2491 3425 1978 
L 3425 0 
L 2847 0 
L 2847 2094 
Q 2847 2600 2669 2842 
Q 2491 3084 2119 3084 
Q 1678 3084 1418 2786 
Q 1159 2488 1159 1978 
L 1159 0 
L 581 0 
L 581 3500 
L 1159 3500 
L 1159 2956 
Q 1356 3278 1631 3431 
Q 1906 3584 2284 3584 
Q 2666 3584 2933 3390 
Q 3200 3197 3328 2828 
z
" transform="scale(0.015625)"/>
       <path id="DejaVuSans-73" d="M 2834 3397 
L 2834 2853 
Q 2591 2978 2328 3040 
Q 2066 3103 1784 3103 
Q 1356 3103 1142 2972 
Q 928 2841 928 2578 
Q 928 2378 1081 2264 
Q 1234 2150 1697 2047 
L 1894 2003 
Q 2506 1872 2764 1633 
Q 3022 1394 3022 966 
Q 3022 478 2636 193 
Q 2250 -91 1575 -91 
Q 1294 -91 989 -36 
Q 684 19 347 128 
L 347 722 
Q 666 556 975 473 
Q 1284 391 1588 391 
Q 1994 391 2212 530 
Q 2431 669 2431 922 
Q 2431 1156 2273 1281 
Q 2116 1406 1581 1522 
L 1381 1569 
Q 847 1681 609 1914 
Q 372 2147 372 2553 
Q 372 3047 722 3315 
Q 1072 3584 1716 3584 
Q 2034 3584 2315 3537 
Q 2597 3491 2834 3397 
z
" transform="scale(0.015625)"/>
      </defs>
      <use xlink:href="#DejaVuSans-54"/>
      <use xlink:href="#DejaVuSans-69" transform="translate(57.958984 0)"/>
      <use xlink:href="#DejaVuSans-6d" transform="translate(85.742188 0)"/>
      <use xlink:href="#DejaVuSans-65" transform="translate(183.154297 0)"/>
      <use xlink:href="#DejaVuSans-20" transform="translate(244.677734 0)"/>
      <use xlink:href="#DejaVuSans-28" transform="translate(276.464844 0)"/>
      <use xlink:href="#DejaVuSans-73" transform="translate(315.478516 0)"/>
      <use xlink:href="#DejaVuSans-29" transform="translate(367.578125 0)"/>
     </g>
    </g>
   </g>
   <g id="matplotlib.axis_4">
    <g id="ytick_7">
     <g id="line2d_39">
      <path d="M 60.59 387.827155 
L 565.2 387.827155 
" clip-path="url(#p5317231ec8)" style="fill: none; stroke: #b0b0b0; stroke-width: 0.8; stroke-linecap: square"/>
     </g>
     <g id="line2d_40">
      <g>
       <use xlink:href="#me7c2ee7909" x="60.59" y="387.827155" style="stroke: #000000; stroke-width: 0.8"/>
      </g>
     </g>
     <g id="text_22">
      <!-- 0.94 -->
      <g transform="translate(31.324375 391.626374) scale(0.1 -0.1)">
       <use xlink:href="#DejaVuSans-30"/>
       <use xlink:href="#DejaVuSans-2e" transform="translate(63.623047 0)"/>
       <use xlink:href="#DejaVuSans-39" transform="translate(95.410156 0)"/>
       <use xlink:href="#DejaVuSans-34" transform="translate(159.033203 0)"/>
      </g>
     </g>
    </g>
    <g id="ytick_8">
     <g id="line2d_41">
      <path d="M 60.59 355.656597 
L 565.2 355.656597 
" clip-path="url(#p5317231ec8)" style="fill: none; stroke: #b0b0b0; stroke-width: 0.8; stroke-linecap: square"/>
     </g>
     <g id="line2d_42">
      <g>
       <use xlink:href="#me7c2ee7909" x="60.59" y="355.656597" style="stroke: #000000; stroke-width: 0.8"/>
      </g>
     </g>
     <g id="text_23">
      <!-- 0.96 -->
      <g transform="translate(31.324375 359.455816) scale(0.1 -0.1)">
       <use xlink:href="#DejaVuSans-30"/>
       <use xlink:href="#DejaVuSans-2e" transform="translate(63.623047 0)"/>
       <use xlink:href="#DejaVuSans-39" transform="translate(95.410156 0)"/>
       <use xlink:href="#DejaVuSans-36" transform="translate(159.033203 0)"/>
      </g>
     </g>
    </g>
    <g id="ytick_9">
     <g id="line2d_43">
      <path d="M 60.59 323.486039 
L 565.2 323.486039 
" clip-path="url(#p5317231ec8)" style="fill: none; stroke: #b0b0b0; stroke-width: 0.8; stroke-linecap: square"/>
     </g>
     <g id="line2d_44">
      <g>
       <use xlink:href="#me7c2ee7909" x="60.59" y="323.486039" style="stroke: #000000; stroke-width: 0.8"/>
      </g>
     </g>
     <g id="text_24">
      <!-- 0.98 -->
      <g transform="translate(31.324375 327.285258) scale(0.1 -0.1)">
       <use xlink:href="#DejaVuSans-30"/>
       <use xlink:href="#DejaVuSans-2e" transform="translate(63.623047 0)"/>
       <use xlink:href="#DejaVuSans-39" transform="translate(95.410156 0)"/>
       <use xlink:href="#DejaVuSans-38" transform="translate(159.033203 0)"/>
      </g>
     </g>
    </g>
    <g id="ytick_10">
     <g id="line2d_45">
      <path d="M 60.59 291.315481 
L 565.2 291.315481 
" clip-path="url(#p5317231ec8)" style="fill: none; stroke: #b0b0b0; stroke-width: 0.8; stroke-linecap: square"/>
     </g>
     <g id="line2d_46">
      <g>
       <use xlink:href="#me7c2ee7909" x="60.59" y="291.315481" style="stroke: #000000; stroke-width: 0.8"/>
      </g>
     </g>
     <g id="text_25">
      <!-- 1.00 -->
      <g transform="translate(31.324375 295.1147) scale(0.1 -0.1)">
       <use xlink:href="#DejaVuSans-31"/>
       <use xlink:href="#DejaVuSans-2e" transform="translate(63.623047 0)"/>
       <use xlink:href="#DejaVuSans-30" transform="translate(95.410156 0)"/>
       <use xlink:href="#DejaVuSans-30" transform="translate(159.033203 0)"/>
      </g>
     </g>
    </g>
    <g id="ytick_11">
     <g id="line2d_47">
      <path d="M 60.59 259.144923 
L 565.2 259.144923 
" clip-path="url(#p5317231ec8)" style="fill: none; stroke: #b0b0b0; stroke-width: 0.8; stroke-linecap: square"/>
     </g>
     <g id="line2d_48">
      <g>
       <use xlink:href="#me7c2ee7909" x="60.59" y="259.144923" style="stroke: #000000; stroke-width: 0.8"/>
      </g>
     </g>
     <g id="text_26">
      <!-- 1.02 -->
      <g transform="translate(31.324375 262.944142) scale(0.1 -0.1)">
       <use xlink:href="#DejaVuSans-31"/>
       <use xlink:href="#DejaVuSans-2e" transform="translate(63.623047 0)"/>
       <use xlink:href="#DejaVuSans-30" transform="translate(95.410156 0)"/>
       <use xlink:href="#DejaVuSans-32" transform="translate(159.033203 0)"/>
      </g>
     </g>
    </g>
    <g id="ytick_12">
     <g id="line2d_49">
      <path d="M 60.59 226.974365 
L 565.2 226.974365 
" clip-path="url(#p5317231ec8)" style="fill: none; stroke: #b0b0b0; stroke-width: 0.8; stroke-linecap: square"/>
     </g>
     <g id="line2d_50">
      <g>
       <use xlink:href="#me7c2ee7909" x="60.59" y="226.974365" style="stroke: #000000; stroke-width: 0.8"/>
      </g>
     </g>
     <g id="text_27">
      <!-- 1.04 -->
      <g transform="translate(31.324375 230.773584) scale(0.1 -0.1)">
       <use xlink:href="#DejaVuSans-31"/>
       <use xlink:href="#DejaVuSans-2e" transform="translate(63.623047 0)"/>
       <use xlink:href="#DejaVuSans-30" transform="translate(95.410156 0)"/>
       <use xlink:href="#DejaVuSans-34" transform="translate(159.033203 0)"/>
      </g>
     </g>
    </g>
    <g id="text_28">
     <!-- Transient Voltage -->
     <g transform="translate(25.244688 345.349219) rotate(-90) scale(0.1 -0.1)">
      <defs>
       <path id="DejaVuSans-61" d="M 2194 1759 
Q 1497 1759 1228 1600 
Q 959 1441 959 1056 
Q 959 750 1161 570 
Q 1363 391 1709 391 
Q 2188 391 2477 730 
Q 2766 1069 2766 1631 
L 2766 1759 
L 2194 1759 
z
M 3341 1997 
L 3341 0 
L 2766 0 
L 2766 531 
Q 2569 213 2275 61 
Q 1981 -91 1556 -91 
Q 1019 -91 701 211 
Q 384 513 384 1019 
Q 384 1609 779 1909 
Q 1175 2209 1959 2209 
L 2766 2209 
L 2766 2266 
Q 2766 2663 2505 2880 
Q 2244 3097 1772 3097 
Q 1472 3097 1187 3025 
Q 903 2953 641 2809 
L 641 3341 
Q 956 3463 1253 3523 
Q 1550 3584 1831 3584 
Q 2591 3584 2966 3190 
Q 3341 2797 3341 1997 
z
" transform="scale(0.015625)"/>
       <path id="DejaVuSans-6e" d="M 3513 2113 
L 3513 0 
L 2938 0 
L 2938 2094 
Q 2938 2591 2744 2837 
Q 2550 3084 2163 3084 
Q 1697 3084 1428 2787 
Q 1159 2491 1159 1978 
L 1159 0 
L 581 0 
L 581 3500 
L 1159 3500 
L 1159 2956 
Q 1366 3272 1645 3428 
Q 1925 3584 2291 3584 
Q 2894 3584 3203 3211 
Q 3513 2838 3513 2113 
z
" transform="scale(0.015625)"/>
       <path id="DejaVuSans-56" d="M 1831 0 
L 50 4666 
L 709 4666 
L 2188 738 
L 3669 4666 
L 4325 4666 
L 2547 0 
L 1831 0 
z
" transform="scale(0.015625)"/>
       <path id="DejaVuSans-6c" d="M 603 4863 
L 1178 4863 
L 1178 0 
L 603 0 
L 603 4863 
z
" transform="scale(0.015625)"/>
       <path id="DejaVuSans-67" d="M 2906 1791 
Q 2906 2416 2648 2759 
Q 2391 3103 1925 3103 
Q 1463 3103 1205 2759 
Q 947 2416 947 1791 
Q 947 1169 1205 825 
Q 1463 481 1925 481 
Q 2391 481 2648 825 
Q 2906 1169 2906 1791 
z
M 3481 434 
Q 3481 -459 3084 -895 
Q 2688 -1331 1869 -1331 
Q 1566 -1331 1297 -1286 
Q 1028 -1241 775 -1147 
L 775 -588 
Q 1028 -725 1275 -790 
Q 1522 -856 1778 -856 
Q 2344 -856 2625 -561 
Q 2906 -266 2906 331 
L 2906 616 
Q 2728 306 2450 153 
Q 2172 0 1784 0 
Q 1141 0 747 490 
Q 353 981 353 1791 
Q 353 2603 747 3093 
Q 1141 3584 1784 3584 
Q 2172 3584 2450 3431 
Q 2728 3278 2906 2969 
L 2906 3500 
L 3481 3500 
L 3481 434 
z
" transform="scale(0.015625)"/>
      </defs>
      <use xlink:href="#DejaVuSans-54"/>
      <use xlink:href="#DejaVuSans-72" transform="translate(46.333984 0)"/>
      <use xlink:href="#DejaVuSans-61" transform="translate(87.447266 0)"/>
      <use xlink:href="#DejaVuSans-6e" transform="translate(148.726562 0)"/>
      <use xlink:href="#DejaVuSans-73" transform="translate(212.105469 0)"/>
      <use xlink:href="#DejaVuSans-69" transform="translate(264.205078 0)"/>
      <use xlink:href="#DejaVuSans-65" transform="translate(291.988281 0)"/>
      <use xlink:href="#DejaVuSans-6e" transform="translate(353.511719 0)"/>
      <use xlink:href="#DejaVuSans-74" transform="translate(416.890625 0)"/>
      <use xlink:href="#DejaVuSans-20" transform="translate(456.099609 0)"/>
      <use xlink:href="#DejaVuSans-56" transform="translate(487.886719 0)"/>
      <use xlink:href="#DejaVuSans-6f" transform="translate(548.544922 0)"/>
      <use xlink:href="#DejaVuSans-6c" transform="translate(609.726562 0)"/>
      <use xlink:href="#DejaVuSans-74" transform="translate(637.509766 0)"/>
      <use xlink:href="#DejaVuSans-61" transform="translate(676.71875 0)"/>
      <use xlink:href="#DejaVuSans-67" transform="translate(737.998047 0)"/>
      <use xlink:href="#DejaVuSans-65" transform="translate(801.474609 0)"/>
     </g>
    </g>
   </g>
   <g id="line2d_51">
    <path d="M 83.526818 382.030535 
L 129.400455 382.054545 
L 132.152873 370.500886 
L 133.987818 363.840455 
L 135.364027 359.699829 
L 136.2815 357.433778 
L 137.198973 355.606201 
L 138.116445 354.242652 
L 139.033918 353.35621 
L 139.951391 352.945646 
L 140.410127 352.914207 
L 141.3276 353.181069 
L 142.245073 353.852215 
L 143.162545 354.872385 
L 144.538755 356.905163 
L 146.832436 360.948305 
L 148.667382 363.989998 
L 149.584855 365.223379 
L 150.502327 366.176089 
L 151.4198 366.79756 
L 152.337273 367.052175 
L 153.254745 366.919902 
L 154.172218 366.396035 
L 155.089691 365.490123 
L 156.007164 364.224253 
L 156.924636 362.630918 
L 158.300845 359.717315 
L 160.135791 355.108022 
L 166.099364 339.144955 
L 167.475573 336.203265 
L 168.851782 333.815163 
L 169.769255 332.572088 
L 170.686727 331.626187 
L 171.6042 330.983091 
L 172.521673 330.638991 
L 173.439145 330.580328 
L 174.356618 330.783917 
L 175.274091 331.217541 
L 176.6503 332.209466 
L 178.485245 333.912982 
L 180.778927 336.055097 
L 182.155136 337.040812 
L 183.072609 337.483849 
L 183.990082 337.718345 
L 184.907555 337.7221 
L 185.825027 337.482146 
L 186.7425 336.994628 
L 187.659973 336.264314 
L 188.577445 335.303773 
L 189.953655 333.475071 
L 191.329864 331.260272 
L 193.164809 327.891577 
L 198.210909 318.323227 
L 200.045855 315.497664 
L 201.422064 313.805304 
L 202.798273 312.532474 
L 203.715745 311.92721 
L 204.633218 311.51515 
L 205.550691 311.288243 
L 206.468164 311.232399 
L 207.844373 311.425627 
L 209.220582 311.873529 
L 211.973 313.112162 
L 213.807945 313.835465 
L 215.184155 314.154282 
L 216.560364 314.196146 
L 217.477836 314.044663 
L 218.395309 313.739763 
L 219.771518 312.991211 
L 221.147727 311.907639 
L 222.523936 310.526191 
L 224.358882 308.318731 
L 227.1113 304.568684 
L 230.322455 300.265052 
L 232.1574 298.166216 
L 233.533609 296.862041 
L 234.909818 295.825726 
L 236.286027 295.070493 
L 237.662236 294.590259 
L 239.038445 294.359888 
L 240.414655 294.336962 
L 242.2496 294.530081 
L 246.836964 295.138369 
L 248.213173 295.094496 
L 249.589382 294.861755 
L 250.965591 294.416554 
L 252.3418 293.75235 
L 253.718009 292.878938 
L 255.552955 291.432575 
L 257.846636 289.300963 
L 263.351473 283.999922 
L 265.186418 282.557146 
L 267.021364 281.405006 
L 268.856309 280.571068 
L 270.691255 280.044165 
L 272.5262 279.776243 
L 274.819882 279.684412 
L 279.407245 279.575438 
L 281.242191 279.304473 
L 283.077136 278.810693 
L 284.912082 278.07457 
L 286.747027 277.108982 
L 289.040709 275.644037 
L 297.297964 270.013694 
L 299.591645 268.898312 
L 301.426591 268.23467 
L 303.720273 267.672859 
L 306.472691 267.292473 
L 312.895 266.579322 
L 315.188682 266.046926 
L 317.482364 265.280948 
L 320.234782 264.077004 
L 323.904673 262.170376 
L 328.492036 259.823507 
L 331.244455 258.683354 
L 333.538136 257.952296 
L 336.290555 257.32752 
L 339.960445 256.785527 
L 345.465282 255.990087 
L 348.2177 255.365383 
L 350.970118 254.533214 
L 354.640009 253.16792 
L 361.521055 250.518502 
L 364.732209 249.553826 
L 367.943364 248.838423 
L 372.071991 248.188321 
L 378.4943 247.213937 
L 382.164191 246.412289 
L 386.292818 245.265945 
L 395.008809 242.741503 
L 398.6787 241.943433 
L 402.807327 241.271315 
L 413.358264 239.686706 
L 418.404364 238.609677 
L 428.496564 236.380047 
L 433.542664 235.573417 
L 450.057173 233.220695 
L 461.984318 231.166214 
L 468.406627 230.373608 
L 480.792509 228.904799 
L 496.848282 226.751698 
L 533.547191 223.035963 
L 542.263182 222.345455 
L 542.263182 222.345455 
" clip-path="url(#p5317231ec8)" style="fill: none; stroke: #ff0000; stroke-width: 1.5; stroke-linecap: square"/>
   </g>
   <g id="patch_9">
    <path d="M 60.59 390.04 
L 60.59 214.36 
" style="fill: none; stroke: #000000; stroke-width: 0.8; stroke-linejoin: miter; stroke-linecap: square"/>
   </g>
   <g id="patch_10">
    <path d="M 565.2 390.04 
L 565.2 214.36 
" style="fill: none; stroke: #000000; stroke-width: 0.8; stroke-linejoin: miter; stroke-linecap: square"/>
   </g>
   <g id="patch_11">
    <path d="M 60.59 390.04 
L 565.2 390.04 
" style="fill: none; stroke: #000000; stroke-width: 0.8; stroke-linejoin: miter; stroke-linecap: square"/>
   </g>
   <g id="patch_12">
    <path d="M 60.59 214.36 
L 565.2 214.36 
" style="fill: none; stroke: #000000; stroke-width: 0.8; stroke-linejoin: miter; stroke-linecap: square"/>
   </g>
   <g id="legend_2">
    <g id="patch_13">
     <path d="M 67.59 238.26 
L 136.89 238.26 
Q 138.89 238.26 138.89 236.26 
L 138.89 221.36 
Q 138.89 219.36 136.89 219.36 
L 67.59 219.36 
Q 65.59 219.36 65.59 221.36 
L 65.59 236.26 
Q 65.59 238.26 67.59 238.26 
z
" style="fill: #ffffff; opacity: 0.8; stroke: #cccccc; stroke-linejoin: miter"/>
    </g>
    <g id="line2d_52">
     <path d="M 69.59 227.66 
L 79.59 227.66 
L 89.59 227.66 
" style="fill: none; stroke: #ff0000; stroke-width: 1.5; stroke-linecap: square"/>
    </g>
    <g id="text_29">
     <!-- $e'_q$ (pu) -->
     <g transform="translate(97.59 231.16) scale(0.1 -0.1)">
      <defs>
       <path id="DejaVuSans-Oblique-65" d="M 3078 2063 
Q 3088 2113 3092 2166 
Q 3097 2219 3097 2272 
Q 3097 2653 2873 2875 
Q 2650 3097 2266 3097 
Q 1838 3097 1509 2826 
Q 1181 2556 1013 2059 
L 3078 2063 
z
M 3578 1613 
L 903 1613 
Q 884 1494 878 1425 
Q 872 1356 872 1306 
Q 872 872 1139 634 
Q 1406 397 1894 397 
Q 2269 397 2603 481 
Q 2938 566 3225 728 
L 3116 159 
Q 2806 34 2476 -28 
Q 2147 -91 1806 -91 
Q 1078 -91 686 257 
Q 294 606 294 1247 
Q 294 1794 489 2264 
Q 684 2734 1063 3103 
Q 1306 3334 1642 3459 
Q 1978 3584 2356 3584 
Q 2950 3584 3301 3228 
Q 3653 2872 3653 2272 
Q 3653 2128 3634 1964 
Q 3616 1800 3578 1613 
z
" transform="scale(0.015625)"/>
       <path id="Cmsy10-30" d="M 225 347 
Q 184 359 184 409 
L 966 3316 
Q 1003 3434 1093 3506 
Q 1184 3578 1300 3578 
Q 1450 3578 1564 3479 
Q 1678 3381 1678 3231 
Q 1678 3166 1644 3084 
L 488 319 
Q 466 275 428 275 
Q 394 275 320 306 
Q 247 338 225 347 
z
" transform="scale(0.015625)"/>
       <path id="DejaVuSans-Oblique-71" d="M 2669 525 
Q 2438 222 2123 65 
Q 1809 -91 1428 -91 
Q 897 -91 595 267 
Q 294 625 294 1253 
Q 294 1759 480 2231 
Q 666 2703 1013 3078 
Q 1238 3322 1530 3453 
Q 1822 3584 2144 3584 
Q 2531 3584 2781 3431 
Q 3031 3278 3144 2969 
L 3244 3494 
L 3822 3494 
L 2888 -1319 
L 2309 -1319 
L 2669 525 
z
M 891 1338 
Q 891 875 1084 633 
Q 1278 391 1644 391 
Q 2188 391 2572 911 
Q 2956 1431 2956 2175 
Q 2956 2625 2757 2864 
Q 2559 3103 2188 3103 
Q 1916 3103 1684 2976 
Q 1453 2850 1281 2606 
Q 1100 2350 995 2006 
Q 891 1663 891 1338 
z
" transform="scale(0.015625)"/>
      </defs>
      <use xlink:href="#DejaVuSans-Oblique-65" transform="translate(0 0.584375)"/>
      <use xlink:href="#Cmsy10-30" transform="translate(66.173333 38.865625) scale(0.7)"/>
      <use xlink:href="#DejaVuSans-Oblique-71" transform="translate(89.107904 -15.821875) scale(0.7)"/>
      <use xlink:href="#DejaVuSans-20" transform="translate(136.275872 0.584375)"/>
      <use xlink:href="#DejaVuSans-28" transform="translate(168.062982 0.584375)"/>
      <use xlink:href="#DejaVuSans-70" transform="translate(207.076654 0.584375)"/>
      <use xlink:href="#DejaVuSans-75" transform="translate(270.553216 0.584375)"/>
      <use xlink:href="#DejaVuSans-29" transform="translate(333.932122 0.584375)"/>
     </g>
    </g>
   </g>
  </g>
 </g>
 <defs>
  <clipPath id="p9bb139ed06">
   <rect x="60.59" y="10.8" width="504.61" height="175.68"/>
  </clipPath>
  <clipPath id="p5317231ec8">
   <rect x="60.59" y="214.36" width="504.61" height="175.68"/>
  </clipPath>
 </defs>
</svg>
