<?xml version="1.0" encoding="utf-8" standalone="no"?>
<!DOCTYPE svg PUBLIC "-//W3C//DTD SVG 1.1//EN"
  "http://www.w3.org/Graphics/SVG/1.1/DTD/svg11.dtd">
<svg xmlns:xlink="http://www.w3.org/1999/xlink" width="460.8pt" height="345.6pt" viewBox="0 0 460.8 345.6" xmlns="http://www.w3.org/2000/svg" version="1.1">
 <metadata>
  <rdf:RDF xmlns:dc="http://purl.org/dc/elements/1.1/" xmlns:cc="http://creativecommons.org/ns#" xmlns:rdf="http://www.w3.org/1999/02/22-rdf-syntax-ns#">
   <cc:Work>
    <dc:type rdf:resource="http://purl.org/dc/dcmitype/StillImage"/>
    <dc:date>2025-05-28T12:17:42.538698</dc:date>
    <dc:format>image/svg+xml</dc:format>
    <dc:creator>
     <cc:Agent>
      <dc:title>Matplotlib v3.8.0, https://matplotlib.org/</dc:title>
     </cc:Agent>
    </dc:creator>
   </cc:Work>
  </rdf:RDF>
 </metadata>
 <defs>
  <style type="text/css">*{stroke-linejoin: round; stroke-linecap: butt}</style>
 </defs>
 <g id="figure_1">
  <g id="patch_1">
   <path d="M 0 345.6 
L 460.8 345.6 
L 460.8 0 
L 0 0 
z
" style="fill: #ffffff"/>
  </g>
  <g id="axes_1">
   <g id="patch_2">
    <path d="M 57.6 307.584 
L 414.72 307.584 
L 414.72 41.472 
L 57.6 41.472 
z
" style="fill: #ffffff"/>
   </g>
   <g id="matplotlib.axis_1">
    <g id="xtick_1">
     <g id="line2d_1">
      <path d="M 73.832727 307.584 
L 73.832727 41.472 
" clip-path="url(#peb2547f37c)" style="fill: none; stroke: #b0b0b0; stroke-width: 0.8; stroke-linecap: square"/>
     </g>
     <g id="line2d_2">
      <defs>
       <path id="mda5ea44c73" d="M 0 0 
L 0 3.5 
" style="stroke: #000000; stroke-width: 0.8"/>
      </defs>
      <g>
       <use xlink:href="#mda5ea44c73" x="73.832727" y="307.584" style="stroke: #000000; stroke-width: 0.8"/>
      </g>
     </g>
     <g id="text_1">
      <!-- 0 -->
      <g transform="translate(70.651477 322.182437) scale(0.1 -0.1)">
       <defs>
        <path id="DejaVuSans-30" d="M 2034 4250 
Q 1547 4250 1301 3770 
Q 1056 3291 1056 2328 
Q 1056 1369 1301 889 
Q 1547 409 2034 409 
Q 2525 409 2770 889 
Q 3016 1369 3016 2328 
Q 3016 3291 2770 3770 
Q 2525 4250 2034 4250 
z
M 2034 4750 
Q 2819 4750 3233 4129 
Q 3647 3509 3647 2328 
Q 3647 1150 3233 529 
Q 2819 -91 2034 -91 
Q 1250 -91 836 529 
Q 422 1150 422 2328 
Q 422 3509 836 4129 
Q 1250 4750 2034 4750 
z
" transform="scale(0.015625)"/>
       </defs>
       <use xlink:href="#DejaVuSans-30"/>
      </g>
     </g>
    </g>
    <g id="xtick_2">
     <g id="line2d_3">
      <path d="M 138.776625 307.584 
L 138.776625 41.472 
" clip-path="url(#peb2547f37c)" style="fill: none; stroke: #b0b0b0; stroke-width: 0.8; stroke-linecap: square"/>
     </g>
     <g id="line2d_4">
      <g>
       <use xlink:href="#mda5ea44c73" x="138.776625" y="307.584" style="stroke: #000000; stroke-width: 0.8"/>
      </g>
     </g>
     <g id="text_2">
      <!-- 1 -->
      <g transform="translate(135.595375 322.182437) scale(0.1 -0.1)">
       <defs>
        <path id="DejaVuSans-31" d="M 794 531 
L 1825 531 
L 1825 4091 
L 703 3866 
L 703 4441 
L 1819 4666 
L 2450 4666 
L 2450 531 
L 3481 531 
L 3481 0 
L 794 0 
L 794 531 
z
" transform="scale(0.015625)"/>
       </defs>
       <use xlink:href="#DejaVuSans-31"/>
      </g>
     </g>
    </g>
    <g id="xtick_3">
     <g id="line2d_5">
      <path d="M 203.720523 307.584 
L 203.720523 41.472 
" clip-path="url(#peb2547f37c)" style="fill: none; stroke: #b0b0b0; stroke-width: 0.8; stroke-linecap: square"/>
     </g>
     <g id="line2d_6">
      <g>
       <use xlink:href="#mda5ea44c73" x="203.720523" y="307.584" style="stroke: #000000; stroke-width: 0.8"/>
      </g>
     </g>
     <g id="text_3">
      <!-- 2 -->
      <g transform="translate(200.539273 322.182437) scale(0.1 -0.1)">
       <defs>
        <path id="DejaVuSans-32" d="M 1228 531 
L 3431 531 
L 3431 0 
L 469 0 
L 469 531 
Q 828 903 1448 1529 
Q 2069 2156 2228 2338 
Q 2531 2678 2651 2914 
Q 2772 3150 2772 3378 
Q 2772 3750 2511 3984 
Q 2250 4219 1831 4219 
Q 1534 4219 1204 4116 
Q 875 4013 500 3803 
L 500 4441 
Q 881 4594 1212 4672 
Q 1544 4750 1819 4750 
Q 2544 4750 2975 4387 
Q 3406 4025 3406 3419 
Q 3406 3131 3298 2873 
Q 3191 2616 2906 2266 
Q 2828 2175 2409 1742 
Q 1991 1309 1228 531 
z
" transform="scale(0.015625)"/>
       </defs>
       <use xlink:href="#DejaVuSans-32"/>
      </g>
     </g>
    </g>
    <g id="xtick_4">
     <g id="line2d_7">
      <path d="M 268.664421 307.584 
L 268.664421 41.472 
" clip-path="url(#peb2547f37c)" style="fill: none; stroke: #b0b0b0; stroke-width: 0.8; stroke-linecap: square"/>
     </g>
     <g id="line2d_8">
      <g>
       <use xlink:href="#mda5ea44c73" x="268.664421" y="307.584" style="stroke: #000000; stroke-width: 0.8"/>
      </g>
     </g>
     <g id="text_4">
      <!-- 3 -->
      <g transform="translate(265.483171 322.182437) scale(0.1 -0.1)">
       <defs>
        <path id="DejaVuSans-33" d="M 2597 2516 
Q 3050 2419 3304 2112 
Q 3559 1806 3559 1356 
Q 3559 666 3084 287 
Q 2609 -91 1734 -91 
Q 1441 -91 1130 -33 
Q 819 25 488 141 
L 488 750 
Q 750 597 1062 519 
Q 1375 441 1716 441 
Q 2309 441 2620 675 
Q 2931 909 2931 1356 
Q 2931 1769 2642 2001 
Q 2353 2234 1838 2234 
L 1294 2234 
L 1294 2753 
L 1863 2753 
Q 2328 2753 2575 2939 
Q 2822 3125 2822 3475 
Q 2822 3834 2567 4026 
Q 2313 4219 1838 4219 
Q 1578 4219 1281 4162 
Q 984 4106 628 3988 
L 628 4550 
Q 988 4650 1302 4700 
Q 1616 4750 1894 4750 
Q 2613 4750 3031 4423 
Q 3450 4097 3450 3541 
Q 3450 3153 3228 2886 
Q 3006 2619 2597 2516 
z
" transform="scale(0.015625)"/>
       </defs>
       <use xlink:href="#DejaVuSans-33"/>
      </g>
     </g>
    </g>
    <g id="xtick_5">
     <g id="line2d_9">
      <path d="M 333.608319 307.584 
L 333.608319 41.472 
" clip-path="url(#peb2547f37c)" style="fill: none; stroke: #b0b0b0; stroke-width: 0.8; stroke-linecap: square"/>
     </g>
     <g id="line2d_10">
      <g>
       <use xlink:href="#mda5ea44c73" x="333.608319" y="307.584" style="stroke: #000000; stroke-width: 0.8"/>
      </g>
     </g>
     <g id="text_5">
      <!-- 4 -->
      <g transform="translate(330.427069 322.182437) scale(0.1 -0.1)">
       <defs>
        <path id="DejaVuSans-34" d="M 2419 4116 
L 825 1625 
L 2419 1625 
L 2419 4116 
z
M 2253 4666 
L 3047 4666 
L 3047 1625 
L 3713 1625 
L 3713 1100 
L 3047 1100 
L 3047 0 
L 2419 0 
L 2419 1100 
L 313 1100 
L 313 1709 
L 2253 4666 
z
" transform="scale(0.015625)"/>
       </defs>
       <use xlink:href="#DejaVuSans-34"/>
      </g>
     </g>
    </g>
    <g id="xtick_6">
     <g id="line2d_11">
      <path d="M 398.552217 307.584 
L 398.552217 41.472 
" clip-path="url(#peb2547f37c)" style="fill: none; stroke: #b0b0b0; stroke-width: 0.8; stroke-linecap: square"/>
     </g>
     <g id="line2d_12">
      <g>
       <use xlink:href="#mda5ea44c73" x="398.552217" y="307.584" style="stroke: #000000; stroke-width: 0.8"/>
      </g>
     </g>
     <g id="text_6">
      <!-- 5 -->
      <g transform="translate(395.370967 322.182437) scale(0.1 -0.1)">
       <defs>
        <path id="DejaVuSans-35" d="M 691 4666 
L 3169 4666 
L 3169 4134 
L 1269 4134 
L 1269 2991 
Q 1406 3038 1543 3061 
Q 1681 3084 1819 3084 
Q 2600 3084 3056 2656 
Q 3513 2228 3513 1497 
Q 3513 744 3044 326 
Q 2575 -91 1722 -91 
Q 1428 -91 1123 -41 
Q 819 9 494 109 
L 494 744 
Q 775 591 1075 516 
Q 1375 441 1709 441 
Q 2250 441 2565 725 
Q 2881 1009 2881 1497 
Q 2881 1984 2565 2268 
Q 2250 2553 1709 2553 
Q 1456 2553 1204 2497 
Q 953 2441 691 2322 
L 691 4666 
z
" transform="scale(0.015625)"/>
       </defs>
       <use xlink:href="#DejaVuSans-35"/>
      </g>
     </g>
    </g>
   </g>
   <g id="matplotlib.axis_2">
    <g id="ytick_1">
     <g id="line2d_13">
      <path d="M 57.6 295.488 
L 414.72 295.488 
" clip-path="url(#peb2547f37c)" style="fill: none; stroke: #b0b0b0; stroke-width: 0.8; stroke-linecap: square"/>
     </g>
     <g id="line2d_14">
      <defs>
       <path id="m01ed5e6690" d="M 0 0 
L -3.5 0 
" style="stroke: #000000; stroke-width: 0.8"/>
      </defs>
      <g>
       <use xlink:href="#m01ed5e6690" x="57.6" y="295.488" style="stroke: #000000; stroke-width: 0.8"/>
      </g>
     </g>
     <g id="text_7">
      <!-- 1.00 -->
      <g transform="translate(28.334375 299.287219) scale(0.1 -0.1)">
       <defs>
        <path id="DejaVuSans-2e" d="M 684 794 
L 1344 794 
L 1344 0 
L 684 0 
L 684 794 
z
" transform="scale(0.015625)"/>
       </defs>
       <use xlink:href="#DejaVuSans-31"/>
       <use xlink:href="#DejaVuSans-2e" x="63.623047"/>
       <use xlink:href="#DejaVuSans-30" x="95.410156"/>
       <use xlink:href="#DejaVuSans-30" x="159.033203"/>
      </g>
     </g>
    </g>
    <g id="ytick_2">
     <g id="line2d_15">
      <path d="M 57.6 244.917248 
L 414.72 244.917248 
" clip-path="url(#peb2547f37c)" style="fill: none; stroke: #b0b0b0; stroke-width: 0.8; stroke-linecap: square"/>
     </g>
     <g id="line2d_16">
      <g>
       <use xlink:href="#m01ed5e6690" x="57.6" y="244.917248" style="stroke: #000000; stroke-width: 0.8"/>
      </g>
     </g>
     <g id="text_8">
      <!-- 1.05 -->
      <g transform="translate(28.334375 248.716467) scale(0.1 -0.1)">
       <use xlink:href="#DejaVuSans-31"/>
       <use xlink:href="#DejaVuSans-2e" x="63.623047"/>
       <use xlink:href="#DejaVuSans-30" x="95.410156"/>
       <use xlink:href="#DejaVuSans-35" x="159.033203"/>
      </g>
     </g>
    </g>
    <g id="ytick_3">
     <g id="line2d_17">
      <path d="M 57.6 194.346496 
L 414.72 194.346496 
" clip-path="url(#peb2547f37c)" style="fill: none; stroke: #b0b0b0; stroke-width: 0.8; stroke-linecap: square"/>
     </g>
     <g id="line2d_18">
      <g>
       <use xlink:href="#m01ed5e6690" x="57.6" y="194.346496" style="stroke: #000000; stroke-width: 0.8"/>
      </g>
     </g>
     <g id="text_9">
      <!-- 1.10 -->
      <g transform="translate(28.334375 198.145715) scale(0.1 -0.1)">
       <use xlink:href="#DejaVuSans-31"/>
       <use xlink:href="#DejaVuSans-2e" x="63.623047"/>
       <use xlink:href="#DejaVuSans-31" x="95.410156"/>
       <use xlink:href="#DejaVuSans-30" x="159.033203"/>
      </g>
     </g>
    </g>
    <g id="ytick_4">
     <g id="line2d_19">
      <path d="M 57.6 143.775744 
L 414.72 143.775744 
" clip-path="url(#peb2547f37c)" style="fill: none; stroke: #b0b0b0; stroke-width: 0.8; stroke-linecap: square"/>
     </g>
     <g id="line2d_20">
      <g>
       <use xlink:href="#m01ed5e6690" x="57.6" y="143.775744" style="stroke: #000000; stroke-width: 0.8"/>
      </g>
     </g>
     <g id="text_10">
      <!-- 1.15 -->
      <g transform="translate(28.334375 147.574963) scale(0.1 -0.1)">
       <use xlink:href="#DejaVuSans-31"/>
       <use xlink:href="#DejaVuSans-2e" x="63.623047"/>
       <use xlink:href="#DejaVuSans-31" x="95.410156"/>
       <use xlink:href="#DejaVuSans-35" x="159.033203"/>
      </g>
     </g>
    </g>
    <g id="ytick_5">
     <g id="line2d_21">
      <path d="M 57.6 93.204992 
L 414.72 93.204992 
" clip-path="url(#peb2547f37c)" style="fill: none; stroke: #b0b0b0; stroke-width: 0.8; stroke-linecap: square"/>
     </g>
     <g id="line2d_22">
      <g>
       <use xlink:href="#m01ed5e6690" x="57.6" y="93.204992" style="stroke: #000000; stroke-width: 0.8"/>
      </g>
     </g>
     <g id="text_11">
      <!-- 1.20 -->
      <g transform="translate(28.334375 97.004211) scale(0.1 -0.1)">
       <use xlink:href="#DejaVuSans-31"/>
       <use xlink:href="#DejaVuSans-2e" x="63.623047"/>
       <use xlink:href="#DejaVuSans-32" x="95.410156"/>
       <use xlink:href="#DejaVuSans-30" x="159.033203"/>
      </g>
     </g>
    </g>
    <g id="ytick_6">
     <g id="line2d_23">
      <path d="M 57.6 42.63424 
L 414.72 42.63424 
" clip-path="url(#peb2547f37c)" style="fill: none; stroke: #b0b0b0; stroke-width: 0.8; stroke-linecap: square"/>
     </g>
     <g id="line2d_24">
      <g>
       <use xlink:href="#m01ed5e6690" x="57.6" y="42.63424" style="stroke: #000000; stroke-width: 0.8"/>
      </g>
     </g>
     <g id="text_12">
      <!-- 1.25 -->
      <g transform="translate(28.334375 46.433458) scale(0.1 -0.1)">
       <use xlink:href="#DejaVuSans-31"/>
       <use xlink:href="#DejaVuSans-2e" x="63.623047"/>
       <use xlink:href="#DejaVuSans-32" x="95.410156"/>
       <use xlink:href="#DejaVuSans-35" x="159.033203"/>
      </g>
     </g>
    </g>
   </g>
   <g id="line2d_25">
    <path d="M 73.832727 295.488 
L 138.971457 295.390408 
L 139.68584 294.678132 
L 142.218652 291.724815 
L 158.454626 272.460094 
L 158.714402 272.386169 
L 158.974177 272.906936 
L 161.506989 278.409161 
L 163.260475 281.709076 
L 164.819128 284.199535 
L 166.312838 286.183486 
L 167.741604 287.725374 
L 169.170369 288.941362 
L 170.534191 289.819966 
L 171.898013 290.442088 
L 173.261835 290.822154 
L 174.625657 290.968723 
L 175.989479 290.88332 
L 177.288357 290.580458 
L 178.587235 290.048108 
L 179.886112 289.264698 
L 181.120047 288.259936 
L 182.353981 286.965896 
L 183.587915 285.338914 
L 184.821849 283.326851 
L 186.055783 280.870898 
L 187.289717 277.91039 
L 188.588595 274.191649 
L 189.952417 269.592699 
L 191.576014 263.272842 
L 195.862311 246.050917 
L 196.901414 243.074333 
L 197.810628 241.134991 
L 198.654899 239.863465 
L 199.49917 239.010526 
L 200.408384 238.419378 
L 201.642318 237.910402 
L 203.136028 237.522504 
L 204.110186 237.47306 
L 204.889513 237.660879 
L 205.603896 238.086698 
L 206.318279 238.802134 
L 207.097606 239.927802 
L 208.071764 241.781876 
L 209.955137 246.031737 
L 211.124127 248.367023 
L 211.903454 249.495188 
L 212.552893 250.071612 
L 213.072444 250.255961 
L 213.527052 250.197669 
L 213.981659 249.924128 
L 214.50121 249.340595 
L 215.085705 248.336664 
L 215.800088 246.623834 
L 216.644359 243.97205 
L 217.748405 239.710206 
L 220.735824 227.749391 
L 221.645039 225.202448 
L 222.424366 223.609374 
L 223.203692 222.483409 
L 224.047963 221.644741 
L 225.022122 220.989609 
L 225.931336 220.617971 
L 226.645719 220.543611 
L 227.230214 220.690731 
L 227.814709 221.077664 
L 228.399204 221.736321 
L 229.113587 222.910027 
L 230.087746 225.021074 
L 231.906175 229.076136 
L 232.555614 230.010221 
L 233.075165 230.400829 
L 233.464828 230.450793 
L 233.854492 230.275591 
L 234.309099 229.776028 
L 234.82865 228.815682 
L 235.478089 227.063711 
L 236.32236 224.022016 
L 237.945957 217.022935 
L 239.114947 212.498801 
L 239.959218 210.056685 
L 240.738545 208.467752 
L 241.517872 207.393374 
L 242.362142 206.62407 
L 243.206413 206.159186 
L 243.855852 206.040862 
L 244.375403 206.154188 
L 244.894954 206.501778 
L 245.479449 207.208773 
L 246.128888 208.377392 
L 247.167991 210.810331 
L 248.336981 213.414634 
L 248.921476 214.22902 
L 249.376083 214.500542 
L 249.700803 214.469225 
L 250.090466 214.166467 
L 250.545073 213.441085 
L 251.064625 212.140672 
L 251.779007 209.651009 
L 252.947998 204.57002 
L 254.246876 199.226187 
L 255.026202 196.8662 
L 255.740585 195.348071 
L 256.454968 194.326218 
L 257.234295 193.604535 
L 257.948678 193.237235 
L 258.468229 193.182635 
L 258.922836 193.329364 
L 259.377443 193.695523 
L 259.896995 194.406393 
L 260.546434 195.700214 
L 262.689582 200.377442 
L 263.079246 200.684236 
L 263.403965 200.700904 
L 263.728685 200.482193 
L 264.118348 199.900963 
L 264.572955 198.797938 
L 265.222394 196.54059 
L 266.326441 191.666585 
L 267.495431 186.834903 
L 268.274757 184.537037 
L 268.98914 183.130617 
L 269.703523 182.226814 
L 270.417906 181.683214 
L 271.002401 181.506527 
L 271.457008 181.586749 
L 271.911616 181.906876 
L 272.431167 182.601525 
L 273.080606 183.927791 
L 274.899035 188.012521 
L 275.288698 188.349517 
L 275.613418 188.358963 
L 275.938137 188.09909 
L 276.327801 187.42508 
L 276.847352 185.95161 
L 277.561735 183.101482 
L 279.510052 174.885031 
L 280.224435 173.008425 
L 280.873874 171.894005 
L 281.523313 171.185021 
L 282.107808 170.826261 
L 282.627359 170.762429 
L 283.081966 170.96386 
L 283.536573 171.453172 
L 284.056125 172.373476 
L 284.900395 174.440196 
L 285.80961 176.507135 
L 286.264217 177.045323 
L 286.588937 177.11547 
L 286.848712 176.958712 
L 287.173432 176.487438 
L 287.628039 175.333792 
L 288.212534 173.150502 
L 290.485571 163.79264 
L 291.13501 162.33262 
L 291.784449 161.409322 
L 292.433888 160.876808 
L 292.953439 160.73209 
L 293.343102 160.834205 
L 293.732765 161.157827 
L 294.187373 161.83886 
L 294.836812 163.299884 
L 296.070746 166.208264 
L 296.460409 166.637383 
L 296.720185 166.691198 
L 296.97996 166.537527 
L 297.30468 166.044401 
L 297.759287 164.819728 
L 298.408726 162.228847 
L 300.162211 154.765309 
L 300.81165 153.105043 
L 301.396145 152.14986 
L 301.98064 151.565306 
L 302.500192 151.326679 
L 302.889855 151.359899 
L 303.279518 151.621952 
L 303.734126 152.252977 
L 304.318621 153.531153 
L 305.617499 156.579319 
L 306.007162 156.926616 
L 306.266938 156.896283 
L 306.526713 156.636991 
L 306.851433 155.990057 
L 307.30604 154.540157 
L 308.085367 151.098232 
L 309.189413 146.321402 
L 309.838852 144.437139 
L 310.423347 143.356309 
L 311.007842 142.701529 
L 311.527393 142.424041 
L 311.917057 142.440021 
L 312.30672 142.699598 
L 312.761328 143.350262 
L 313.345823 144.673994 
L 314.449869 147.318747 
L 314.839532 147.718669 
L 315.099308 147.709462 
L 315.359083 147.455784 
L 315.683803 146.793512 
L 316.13841 145.291764 
L 316.982681 141.461979 
L 317.956839 137.366567 
L 318.606278 135.598972 
L 319.190773 134.624998 
L 319.775269 134.074525 
L 320.229876 133.926303 
L 320.619539 134.046526 
L 321.009203 134.4459 
L 321.46381 135.278182 
L 322.308081 137.452548 
L 322.892576 138.688524 
L 323.217295 138.996753 
L 323.477071 138.975842 
L 323.736846 138.694434 
L 324.061566 137.978185 
L 324.516173 136.385002 
L 325.555275 131.572406 
L 326.334602 128.588406 
L 326.919097 127.160586 
L 327.503592 126.300844 
L 328.023144 125.896912 
L 328.412807 125.829407 
L 328.737526 125.968207 
L 329.12719 126.411113 
L 329.581797 127.307874 
L 331.075507 130.625246 
L 331.335282 130.692508 
L 331.595058 130.489311 
L 331.919777 129.847076 
L 332.374385 128.306339 
L 333.283599 124.089484 
L 334.062926 120.951881 
L 334.647421 119.436759 
L 335.231916 118.536034 
L 335.751467 118.121049 
L 336.141131 118.060042 
L 336.46585 118.217446 
L 336.855514 118.699519 
L 337.375065 119.815366 
L 338.544055 122.545418 
L 338.868774 122.73602 
L 339.12855 122.57626 
L 339.45327 121.967809 
L 339.907877 120.43625 
L 340.817091 116.203313 
L 341.531474 113.346307 
L 342.115969 111.846127 
L 342.635521 111.049059 
L 343.155072 110.632659 
L 343.544735 110.586535 
L 343.869455 110.770769 
L 344.259118 111.301546 
L 344.778669 112.484503 
L 345.752828 114.815551 
L 346.077547 115.082444 
L 346.272379 115.031535 
L 346.532154 114.697025 
L 346.856874 113.863349 
L 347.376425 111.776012 
L 348.740247 105.866373 
L 349.324742 104.441826 
L 349.844293 103.710116 
L 350.298901 103.392033 
L 350.688564 103.389364 
L 351.013283 103.629105 
L 351.402947 104.242382 
L 351.987442 105.691345 
L 352.701825 107.388841 
L 353.026544 107.703605 
L 353.221376 107.676326 
L 353.481152 107.362717 
L 353.805871 106.536228 
L 354.325422 104.431628 
L 355.6243 98.79697 
L 356.143851 97.503732 
L 356.663402 96.740327 
L 357.11801 96.411304 
L 357.442729 96.389698 
L 357.767449 96.593039 
L 358.157112 97.174222 
L 358.676663 98.432285 
L 359.45599 100.303491 
L 359.78071 100.589297 
L 359.975541 100.532672 
L 360.235317 100.167945 
L 360.560036 99.267824 
L 361.079588 97.06915 
L 362.183634 92.208136 
L 362.703185 90.823458 
L 363.222736 90.009046 
L 363.677343 89.653727 
L 364.002063 89.619017 
L 364.326782 89.815975 
L 364.716446 90.401571 
L 365.300941 91.855388 
L 365.95038 93.397859 
L 366.275099 93.694436 
L 366.469931 93.636415 
L 366.729707 93.259164 
L 367.054426 92.330179 
L 367.638921 89.770955 
L 368.61308 85.528768 
L 369.132631 84.163778 
L 369.652182 83.378549 
L 370.106789 83.060336 
L 370.431509 83.069285 
L 370.756228 83.328363 
L 371.145892 84.000998 
L 371.925218 86.039968 
L 372.379826 86.890901 
L 372.639601 87.005813 
L 372.834433 86.867523 
L 373.094209 86.373404 
L 373.483872 85.043576 
L 375.302301 77.809762 
L 375.821852 76.996627 
L 376.27646 76.669531 
L 376.601179 76.68037 
L 376.925899 76.950816 
L 377.315562 77.647747 
L 378.61444 80.492003 
L 378.809272 80.47796 
L 379.069047 80.14049 
L 379.393767 79.226781 
L 379.913318 76.961069 
L 380.887476 72.710851 
L 381.407028 71.388178 
L 381.926579 70.661626 
L 382.316242 70.431212 
L 382.640962 70.481578 
L 382.965681 70.807668 
L 383.355345 71.576768 
L 384.459391 74.114404 
L 384.719166 74.15977 
L 384.913998 73.950376 
L 385.238718 73.141795 
L 385.693325 71.26206 
L 386.797371 66.440778 
L 387.316922 65.18514 
L 387.77153 64.576624 
L 388.161193 64.355559 
L 388.485912 64.424905 
L 388.810632 64.781686 
L 389.200295 65.592382 
L 390.239398 67.960278 
L 390.434229 68.013928 
L 390.629061 67.854161 
L 390.888837 67.304032 
L 391.2785 65.864402 
L 392.707266 59.892564 
L 393.226817 58.901983 
L 393.681424 58.478923 
L 394.006144 58.431144 
L 394.265919 58.586652 
L 394.590639 59.058942 
L 395.11019 60.343788 
L 395.759629 61.84141 
L 396.019405 62.003271 
L 396.214236 61.875226 
L 396.474012 61.357085 
L 396.863675 59.939129 
L 398.292441 54.000057 
L 398.487273 53.568 
L 398.487273 53.568 
" clip-path="url(#peb2547f37c)" style="fill: none; stroke: #1f77b4; stroke-width: 1.5; stroke-linecap: square"/>
   </g>
   <g id="line2d_26">
    <path d="M 73.832727 295.488 
L 398.487273 295.487758 
L 398.487273 295.487758 
" clip-path="url(#peb2547f37c)" style="fill: none; stroke: #ff7f0e; stroke-width: 1.5; stroke-linecap: square"/>
   </g>
   <g id="patch_3">
    <path d="M 57.6 307.584 
L 57.6 41.472 
" style="fill: none; stroke: #000000; stroke-width: 0.8; stroke-linejoin: miter; stroke-linecap: square"/>
   </g>
   <g id="patch_4">
    <path d="M 414.72 307.584 
L 414.72 41.472 
" style="fill: none; stroke: #000000; stroke-width: 0.8; stroke-linejoin: miter; stroke-linecap: square"/>
   </g>
   <g id="patch_5">
    <path d="M 57.6 307.584 
L 414.72 307.584 
" style="fill: none; stroke: #000000; stroke-width: 0.8; stroke-linejoin: miter; stroke-linecap: square"/>
   </g>
   <g id="patch_6">
    <path d="M 57.6 41.472 
L 414.72 41.472 
" style="fill: none; stroke: #000000; stroke-width: 0.8; stroke-linejoin: miter; stroke-linecap: square"/>
   </g>
  </g>
 </g>
 <defs>
  <clipPath id="peb2547f37c">
   <rect x="57.6" y="41.472" width="357.12" height="266.112"/>
  </clipPath>
 </defs>
</svg>
