<?xml version="1.0" encoding="utf-8" ?>
<svg baseProfile="full" height="800" version="1.1" width="640" xmlns="http://www.w3.org/2000/svg" xmlns:ev="http://www.w3.org/2001/xml-events" xmlns:xlink="http://www.w3.org/1999/xlink"><defs /><rect height="15" id="R00" width="15" x="147.5" y="42.5" /><text fill="black" id="R00_tt" x="155.0" y="40.0">R00</text><rect height="15" id="R01" width="15" x="147.5" y="72.5" /><text fill="black" id="R01_tt" x="155.0" y="70.0">R01</text><rect height="15" id="R02" width="15" x="147.5" y="125.0" /><text fill="black" id="R02_tt" x="155.0" y="122.5">R02</text><rect height="15" id="R03" width="15" x="147.5" y="177.5" /><text fill="black" id="R03_tt" x="155.0" y="175.0">R03</text><rect height="15" id="R04" width="15" x="147.5" y="230.0" /><text fill="black" id="R04_tt" x="155.0" y="227.5">R04</text><rect height="15" id="R05" width="15" x="147.5" y="282.5" /><text fill="black" id="R05_tt" x="155.0" y="280.0">R05</text><rect height="15" id="R06" width="15" x="147.5" y="335.0" /><text fill="black" id="R06_tt" x="155.0" y="332.5">R06</text><rect height="15" id="R07" width="15" x="147.5" y="387.5" /><text fill="black" id="R07_tt" x="155.0" y="385.0">R07</text><rect height="15" id="R08" width="15" x="147.5" y="440.0" /><text fill="black" id="R08_tt" x="155.0" y="437.5">R08</text><rect height="15" id="R09" width="15" x="147.5" y="492.5" /><text fill="black" id="R09_tt" x="155.0" y="490.0">R09</text><rect height="15" id="R10" width="15" x="147.5" y="545.0" /><text fill="black" id="R10_tt" x="155.0" y="542.5">R10</text><rect height="15" id="R11" width="15" x="102.5" y="177.5" /><text fill="black" id="R11_tt" x="110.0" y="175.0">R11</text><rect height="15" id="R12" width="15" x="200.0" y="230.0" /><text fill="black" id="R12_tt" x="207.5" y="227.5">R12</text><rect height="15" id="R13" width="15" x="252.5" y="230.0" /><text fill="black" id="R13_tt" x="260.0" y="227.5">R13</text><rect height="15" id="R14" width="15" x="305.0" y="230.0" /><text fill="black" id="R14_tt" x="312.5" y="227.5">R14</text><rect height="15" id="R15" width="15" x="305.0" y="282.5" /><text fill="black" id="R15_tt" x="312.5" y="280.0">R15</text><rect height="15" id="R16" width="15" x="95.0" y="335.0" /><text fill="black" id="R16_tt" x="102.5" y="332.5">R16</text><rect height="15" id="R17" width="15" x="192.5" y="492.5" /><text fill="black" id="R17_tt" x="200.0" y="490.0">R17</text><rect height="15" id="R18" width="15" x="102.5" y="545.0" /><text fill="black" id="R18_tt" x="110.0" y="542.5">R18</text><line id="l_R01_R02_a" stroke="rgb(10%,10%,16%)" stroke-width="2" x1="150.0" x2="150.0" y1="75.0" y2="127.5" /><line id="l_R01_R02_b" stroke="rgb(10%,10%,16%)" stroke-width="2" x1="153.0" x2="153.0" y1="75.0" y2="127.5" /><line id="l_R01_R02_c" stroke="rgb(10%,10%,16%)" stroke-width="2" x1="156.0" x2="156.0" y1="75.0" y2="127.5" /><line id="l_R01_R02_n" stroke="rgb(10%,10%,16%)" stroke-width="2" x1="159.0" x2="159.0" y1="75.0" y2="127.5" /><line id="l_R02_R03_a" stroke="rgb(10%,10%,16%)" stroke-width="2" x1="150.0" x2="150.0" y1="127.5" y2="180.0" /><line id="l_R02_R03_b" stroke="rgb(10%,10%,16%)" stroke-width="2" x1="153.0" x2="153.0" y1="127.5" y2="180.0" /><line id="l_R02_R03_c" stroke="rgb(10%,10%,16%)" stroke-width="2" x1="156.0" x2="156.0" y1="127.5" y2="180.0" /><line id="l_R02_R03_n" stroke="rgb(10%,10%,16%)" stroke-width="2" x1="159.0" x2="159.0" y1="127.5" y2="180.0" /><line id="l_R03_R04_a" stroke="rgb(10%,10%,16%)" stroke-width="2" x1="150.0" x2="150.0" y1="180.0" y2="232.5" /><line id="l_R03_R04_b" stroke="rgb(10%,10%,16%)" stroke-width="2" x1="153.0" x2="153.0" y1="180.0" y2="232.5" /><line id="l_R03_R04_c" stroke="rgb(10%,10%,16%)" stroke-width="2" x1="156.0" x2="156.0" y1="180.0" y2="232.5" /><line id="l_R03_R04_n" stroke="rgb(10%,10%,16%)" stroke-width="2" x1="159.0" x2="159.0" y1="180.0" y2="232.5" /><line id="l_R04_R05_a" stroke="rgb(10%,10%,16%)" stroke-width="2" x1="150.0" x2="150.0" y1="232.5" y2="285.0" /><line id="l_R04_R05_b" stroke="rgb(10%,10%,16%)" stroke-width="2" x1="153.0" x2="153.0" y1="232.5" y2="285.0" /><line id="l_R04_R05_c" stroke="rgb(10%,10%,16%)" stroke-width="2" x1="156.0" x2="156.0" y1="232.5" y2="285.0" /><line id="l_R04_R05_n" stroke="rgb(10%,10%,16%)" stroke-width="2" x1="159.0" x2="159.0" y1="232.5" y2="285.0" /><line id="l_R05_R06_a" stroke="rgb(10%,10%,16%)" stroke-width="2" x1="150.0" x2="150.0" y1="285.0" y2="337.5" /><line id="l_R05_R06_b" stroke="rgb(10%,10%,16%)" stroke-width="2" x1="153.0" x2="153.0" y1="285.0" y2="337.5" /><line id="l_R05_R06_c" stroke="rgb(10%,10%,16%)" stroke-width="2" x1="156.0" x2="156.0" y1="285.0" y2="337.5" /><line id="l_R05_R06_n" stroke="rgb(10%,10%,16%)" stroke-width="2" x1="159.0" x2="159.0" y1="285.0" y2="337.5" /><line id="l_R06_R07_a" stroke="rgb(10%,10%,16%)" stroke-width="2" x1="150.0" x2="150.0" y1="337.5" y2="390.0" /><line id="l_R06_R07_b" stroke="rgb(10%,10%,16%)" stroke-width="2" x1="153.0" x2="153.0" y1="337.5" y2="390.0" /><line id="l_R06_R07_c" stroke="rgb(10%,10%,16%)" stroke-width="2" x1="156.0" x2="156.0" y1="337.5" y2="390.0" /><line id="l_R06_R07_n" stroke="rgb(10%,10%,16%)" stroke-width="2" x1="159.0" x2="159.0" y1="337.5" y2="390.0" /><line id="l_R07_R08_a" stroke="rgb(10%,10%,16%)" stroke-width="2" x1="150.0" x2="150.0" y1="390.0" y2="442.5" /><line id="l_R07_R08_b" stroke="rgb(10%,10%,16%)" stroke-width="2" x1="153.0" x2="153.0" y1="390.0" y2="442.5" /><line id="l_R07_R08_c" stroke="rgb(10%,10%,16%)" stroke-width="2" x1="156.0" x2="156.0" y1="390.0" y2="442.5" /><line id="l_R07_R08_n" stroke="rgb(10%,10%,16%)" stroke-width="2" x1="159.0" x2="159.0" y1="390.0" y2="442.5" /><line id="l_R08_R09_a" stroke="rgb(10%,10%,16%)" stroke-width="2" x1="150.0" x2="150.0" y1="442.5" y2="495.0" /><line id="l_R08_R09_b" stroke="rgb(10%,10%,16%)" stroke-width="2" x1="153.0" x2="153.0" y1="442.5" y2="495.0" /><line id="l_R08_R09_c" stroke="rgb(10%,10%,16%)" stroke-width="2" x1="156.0" x2="156.0" y1="442.5" y2="495.0" /><line id="l_R08_R09_n" stroke="rgb(10%,10%,16%)" stroke-width="2" x1="159.0" x2="159.0" y1="442.5" y2="495.0" /><line id="l_R09_R10_a" stroke="rgb(10%,10%,16%)" stroke-width="2" x1="150.0" x2="150.0" y1="495.0" y2="547.5" /><line id="l_R09_R10_b" stroke="rgb(10%,10%,16%)" stroke-width="2" x1="153.0" x2="153.0" y1="495.0" y2="547.5" /><line id="l_R09_R10_c" stroke="rgb(10%,10%,16%)" stroke-width="2" x1="156.0" x2="156.0" y1="495.0" y2="547.5" /><line id="l_R09_R10_n" stroke="rgb(10%,10%,16%)" stroke-width="2" x1="159.0" x2="159.0" y1="495.0" y2="547.5" /><line id="l_R03_R11_a" stroke="rgb(10%,10%,16%)" stroke-width="2" x1="150.0" x2="105.0" y1="180.0" y2="180.0" /><line id="l_R03_R11_b" stroke="rgb(10%,10%,16%)" stroke-width="2" x1="150.0" x2="105.0" y1="183.0" y2="183.0" /><line id="l_R03_R11_c" stroke="rgb(10%,10%,16%)" stroke-width="2" x1="150.0" x2="105.0" y1="186.0" y2="186.0" /><line id="l_R03_R11_n" stroke="rgb(10%,10%,16%)" stroke-width="2" x1="150.0" x2="105.0" y1="189.0" y2="189.0" /><line id="l_R04_R12_a" stroke="rgb(10%,10%,16%)" stroke-width="2" x1="150.0" x2="202.5" y1="232.5" y2="232.5" /><line id="l_R04_R12_b" stroke="rgb(10%,10%,16%)" stroke-width="2" x1="150.0" x2="202.5" y1="235.5" y2="235.5" /><line id="l_R04_R12_c" stroke="rgb(10%,10%,16%)" stroke-width="2" x1="150.0" x2="202.5" y1="238.5" y2="238.5" /><line id="l_R04_R12_n" stroke="rgb(10%,10%,16%)" stroke-width="2" x1="150.0" x2="202.5" y1="241.5" y2="241.5" /><line id="l_R12_R13_a" stroke="rgb(10%,10%,16%)" stroke-width="2" x1="202.5" x2="255.0" y1="232.5" y2="232.5" /><line id="l_R12_R13_b" stroke="rgb(10%,10%,16%)" stroke-width="2" x1="202.5" x2="255.0" y1="235.5" y2="235.5" /><line id="l_R12_R13_c" stroke="rgb(10%,10%,16%)" stroke-width="2" x1="202.5" x2="255.0" y1="238.5" y2="238.5" /><line id="l_R12_R13_n" stroke="rgb(10%,10%,16%)" stroke-width="2" x1="202.5" x2="255.0" y1="241.5" y2="241.5" /><line id="l_R13_R14_a" stroke="rgb(10%,10%,16%)" stroke-width="2" x1="255.0" x2="307.5" y1="232.5" y2="232.5" /><line id="l_R13_R14_b" stroke="rgb(10%,10%,16%)" stroke-width="2" x1="255.0" x2="307.5" y1="235.5" y2="235.5" /><line id="l_R13_R14_c" stroke="rgb(10%,10%,16%)" stroke-width="2" x1="255.0" x2="307.5" y1="238.5" y2="238.5" /><line id="l_R13_R14_n" stroke="rgb(10%,10%,16%)" stroke-width="2" x1="255.0" x2="307.5" y1="241.5" y2="241.5" /><line id="l_R14_R15_a" stroke="rgb(10%,10%,16%)" stroke-width="2" x1="307.5" x2="307.5" y1="232.5" y2="285.0" /><line id="l_R14_R15_b" stroke="rgb(10%,10%,16%)" stroke-width="2" x1="310.5" x2="310.5" y1="232.5" y2="285.0" /><line id="l_R14_R15_c" stroke="rgb(10%,10%,16%)" stroke-width="2" x1="313.5" x2="313.5" y1="232.5" y2="285.0" /><line id="l_R14_R15_n" stroke="rgb(10%,10%,16%)" stroke-width="2" x1="316.5" x2="316.5" y1="232.5" y2="285.0" /><line id="l_R06_R16_a" stroke="rgb(10%,10%,16%)" stroke-width="2" x1="150.0" x2="97.5" y1="337.5" y2="337.5" /><line id="l_R06_R16_b" stroke="rgb(10%,10%,16%)" stroke-width="2" x1="150.0" x2="97.5" y1="340.5" y2="340.5" /><line id="l_R06_R16_c" stroke="rgb(10%,10%,16%)" stroke-width="2" x1="150.0" x2="97.5" y1="343.5" y2="343.5" /><line id="l_R06_R16_n" stroke="rgb(10%,10%,16%)" stroke-width="2" x1="150.0" x2="97.5" y1="346.5" y2="346.5" /><line id="l_R09_R17_a" stroke="rgb(10%,10%,16%)" stroke-width="2" x1="150.0" x2="195.0" y1="495.0" y2="495.0" /><line id="l_R09_R17_b" stroke="rgb(10%,10%,16%)" stroke-width="2" x1="150.0" x2="195.0" y1="498.0" y2="498.0" /><line id="l_R09_R17_c" stroke="rgb(10%,10%,16%)" stroke-width="2" x1="150.0" x2="195.0" y1="501.0" y2="501.0" /><line id="l_R09_R17_n" stroke="rgb(10%,10%,16%)" stroke-width="2" x1="150.0" x2="195.0" y1="504.0" y2="504.0" /><line id="l_R10_R18_a" stroke="rgb(10%,10%,16%)" stroke-width="2" x1="150.0" x2="105.0" y1="547.5" y2="547.5" /><line id="l_R10_R18_b" stroke="rgb(10%,10%,16%)" stroke-width="2" x1="150.0" x2="105.0" y1="550.5" y2="550.5" /><line id="l_R10_R18_c" stroke="rgb(10%,10%,16%)" stroke-width="2" x1="150.0" x2="105.0" y1="553.5" y2="553.5" /><line id="l_R10_R18_n" stroke="rgb(10%,10%,16%)" stroke-width="2" x1="150.0" x2="105.0" y1="556.5" y2="556.5" /><line stroke="rgb(10%,10%,16%)" x1="150.0" x2="150.0" y1="45.0" y2="75.0" /></svg>