<?xml version="1.0" encoding="utf-8" standalone="no"?>
<!DOCTYPE svg PUBLIC "-//W3C//DTD SVG 1.1//EN"
  "http://www.w3.org/Graphics/SVG/1.1/DTD/svg11.dtd">
<!-- Created with matplotlib (https://matplotlib.org/) -->
<svg height="288pt" version="1.1" viewBox="0 0 648 288" width="648pt" xmlns="http://www.w3.org/2000/svg" xmlns:xlink="http://www.w3.org/1999/xlink">
 <metadata>
  <rdf:RDF xmlns:cc="http://creativecommons.org/ns#" xmlns:dc="http://purl.org/dc/elements/1.1/" xmlns:rdf="http://www.w3.org/1999/02/22-rdf-syntax-ns#">
   <cc:Work>
    <dc:type rdf:resource="http://purl.org/dc/dcmitype/StillImage"/>
    <dc:date>2020-09-10T16:30:56.758604</dc:date>
    <dc:format>image/svg+xml</dc:format>
    <dc:creator>
     <cc:Agent>
      <dc:title>Matplotlib v3.3.1, https://matplotlib.org/</dc:title>
     </cc:Agent>
    </dc:creator>
   </cc:Work>
  </rdf:RDF>
 </metadata>
 <defs>
  <style type="text/css">*{stroke-linecap:butt;stroke-linejoin:round;}</style>
 </defs>
 <g id="figure_1">
  <g id="axes_1">
   <g id="patch_1">
    <path d="M 33.491094 125.798711 
L 316.763438 125.798711 
L 316.763438 9.72 
L 33.491094 9.72 
z
" style="fill:#ffffff;"/>
   </g>
   <g id="matplotlib.axis_1">
    <g id="xtick_1">
     <g id="line2d_1">
      <path clip-path="url(#p3d44773428)" d="M 46.367109 125.798711 
L 46.367109 9.72 
" style="fill:none;stroke:#cbcbcb;"/>
     </g>
     <g id="line2d_2"/>
     <g id="text_1">
      <text style="font-family:Arial;font-size:9px;font-stretch:normal;font-style:normal;font-weight:normal;text-anchor:middle;" transform="rotate(-0, 46.367109, 135.740742)" x="46.367109" y="135.740742">0.00</text>
     </g>
    </g>
    <g id="xtick_2">
     <g id="line2d_3">
      <path clip-path="url(#p3d44773428)" d="M 78.964617 125.798711 
L 78.964617 9.72 
" style="fill:none;stroke:#cbcbcb;"/>
     </g>
     <g id="line2d_4"/>
     <g id="text_2">
      <text style="font-family:Arial;font-size:9px;font-stretch:normal;font-style:normal;font-weight:normal;text-anchor:middle;" transform="rotate(-0, 78.964617, 135.740742)" x="78.964617" y="135.740742">0.01</text>
     </g>
    </g>
    <g id="xtick_3">
     <g id="line2d_5">
      <path clip-path="url(#p3d44773428)" d="M 111.562125 125.798711 
L 111.562125 9.72 
" style="fill:none;stroke:#cbcbcb;"/>
     </g>
     <g id="line2d_6"/>
     <g id="text_3">
      <text style="font-family:Arial;font-size:9px;font-stretch:normal;font-style:normal;font-weight:normal;text-anchor:middle;" transform="rotate(-0, 111.562125, 135.740742)" x="111.562125" y="135.740742">0.02</text>
     </g>
    </g>
    <g id="xtick_4">
     <g id="line2d_7">
      <path clip-path="url(#p3d44773428)" d="M 144.159633 125.798711 
L 144.159633 9.72 
" style="fill:none;stroke:#cbcbcb;"/>
     </g>
     <g id="line2d_8"/>
     <g id="text_4">
      <text style="font-family:Arial;font-size:9px;font-stretch:normal;font-style:normal;font-weight:normal;text-anchor:middle;" transform="rotate(-0, 144.159633, 135.740742)" x="144.159633" y="135.740742">0.03</text>
     </g>
    </g>
    <g id="xtick_5">
     <g id="line2d_9">
      <path clip-path="url(#p3d44773428)" d="M 176.757141 125.798711 
L 176.757141 9.72 
" style="fill:none;stroke:#cbcbcb;"/>
     </g>
     <g id="line2d_10"/>
     <g id="text_5">
      <text style="font-family:Arial;font-size:9px;font-stretch:normal;font-style:normal;font-weight:normal;text-anchor:middle;" transform="rotate(-0, 176.757141, 135.740742)" x="176.757141" y="135.740742">0.04</text>
     </g>
    </g>
    <g id="xtick_6">
     <g id="line2d_11">
      <path clip-path="url(#p3d44773428)" d="M 209.354649 125.798711 
L 209.354649 9.72 
" style="fill:none;stroke:#cbcbcb;"/>
     </g>
     <g id="line2d_12"/>
     <g id="text_6">
      <text style="font-family:Arial;font-size:9px;font-stretch:normal;font-style:normal;font-weight:normal;text-anchor:middle;" transform="rotate(-0, 209.354649, 135.740742)" x="209.354649" y="135.740742">0.05</text>
     </g>
    </g>
    <g id="xtick_7">
     <g id="line2d_13">
      <path clip-path="url(#p3d44773428)" d="M 241.952157 125.798711 
L 241.952157 9.72 
" style="fill:none;stroke:#cbcbcb;"/>
     </g>
     <g id="line2d_14"/>
     <g id="text_7">
      <text style="font-family:Arial;font-size:9px;font-stretch:normal;font-style:normal;font-weight:normal;text-anchor:middle;" transform="rotate(-0, 241.952157, 135.740742)" x="241.952157" y="135.740742">0.06</text>
     </g>
    </g>
    <g id="xtick_8">
     <g id="line2d_15">
      <path clip-path="url(#p3d44773428)" d="M 274.549665 125.798711 
L 274.549665 9.72 
" style="fill:none;stroke:#cbcbcb;"/>
     </g>
     <g id="line2d_16"/>
     <g id="text_8">
      <text style="font-family:Arial;font-size:9px;font-stretch:normal;font-style:normal;font-weight:normal;text-anchor:middle;" transform="rotate(-0, 274.549665, 135.740742)" x="274.549665" y="135.740742">0.07</text>
     </g>
    </g>
    <g id="xtick_9">
     <g id="line2d_17">
      <path clip-path="url(#p3d44773428)" d="M 307.147173 125.798711 
L 307.147173 9.72 
" style="fill:none;stroke:#cbcbcb;"/>
     </g>
     <g id="line2d_18"/>
     <g id="text_9">
      <text style="font-family:Arial;font-size:9px;font-stretch:normal;font-style:normal;font-weight:normal;text-anchor:middle;" transform="rotate(-0, 307.147173, 135.740742)" x="307.147173" y="135.740742">0.08</text>
     </g>
    </g>
   </g>
   <g id="matplotlib.axis_2">
    <g id="ytick_1">
     <g id="line2d_19">
      <path clip-path="url(#p3d44773428)" d="M 33.491094 99.671096 
L 316.763438 99.671096 
" style="fill:none;stroke:#cbcbcb;"/>
     </g>
     <g id="line2d_20"/>
     <g id="text_10">
      <text style="font-family:Arial;font-size:9px;font-stretch:normal;font-style:normal;font-weight:normal;text-anchor:end;" transform="rotate(-0, 29.991094, 102.892112)" x="29.991094" y="102.892112">−200</text>
     </g>
    </g>
    <g id="ytick_2">
     <g id="line2d_21">
      <path clip-path="url(#p3d44773428)" d="M 33.491094 67.759355 
L 316.763438 67.759355 
" style="fill:none;stroke:#cbcbcb;"/>
     </g>
     <g id="line2d_22"/>
     <g id="text_11">
      <text style="font-family:Arial;font-size:9px;font-stretch:normal;font-style:normal;font-weight:normal;text-anchor:end;" transform="rotate(-0, 29.991094, 70.980371)" x="29.991094" y="70.980371">0</text>
     </g>
    </g>
    <g id="ytick_3">
     <g id="line2d_23">
      <path clip-path="url(#p3d44773428)" d="M 33.491094 35.847615 
L 316.763438 35.847615 
" style="fill:none;stroke:#cbcbcb;"/>
     </g>
     <g id="line2d_24"/>
     <g id="text_12">
      <text style="font-family:Arial;font-size:9px;font-stretch:normal;font-style:normal;font-weight:normal;text-anchor:end;" transform="rotate(-0, 29.991094, 39.06863)" x="29.991094" y="39.06863">200</text>
     </g>
    </g>
   </g>
   <g id="line2d_25">
    <path clip-path="url(#p3d44773428)" d="M 46.367109 15.647701 
L 47.01906 15.750531 
L 47.67101 16.058617 
L 48.32296 16.570741 
L 49.300885 17.716862 
L 50.27881 19.307164 
L 51.256736 21.327531 
L 52.560636 24.658818 
L 53.864536 28.669826 
L 55.494412 34.542137 
L 57.450262 42.654374 
L 59.732088 53.220667 
L 63.969764 74.290678 
L 67.229514 89.947419 
L 69.185365 98.389818 
L 70.81524 104.60786 
L 72.445116 109.91857 
L 73.749016 113.425147 
L 75.052916 116.211547 
L 76.030842 117.801848 
L 77.008767 118.94797 
L 77.660717 119.460094 
L 78.312667 119.76818 
L 78.964617 119.87101 
L 79.616567 119.76818 
L 80.268518 119.460094 
L 80.920468 118.94797 
L 81.898393 117.801848 
L 82.876318 116.211547 
L 83.854243 114.19118 
L 85.158144 110.859893 
L 86.462044 106.848885 
L 88.09192 100.976574 
L 90.04777 92.864337 
L 92.329596 82.298044 
L 96.567272 61.228033 
L 99.827022 45.571292 
L 101.782873 37.128893 
L 103.412748 30.910851 
L 105.042624 25.600141 
L 106.346524 22.093564 
L 107.650424 19.307164 
L 108.628349 17.716862 
L 109.606275 16.570741 
L 110.258225 16.058617 
L 110.910175 15.750531 
L 111.562125 15.647701 
L 112.214075 15.750531 
L 112.866026 16.058617 
L 113.517976 16.570741 
L 114.495901 17.716862 
L 115.473826 19.307164 
L 116.451751 21.327531 
L 117.755652 24.658818 
L 119.059552 28.669826 
L 120.689427 34.542137 
L 122.645278 42.654374 
L 124.927103 53.220667 
L 129.164779 74.290678 
L 132.42453 89.947419 
L 134.380381 98.389818 
L 136.010256 104.60786 
L 137.640132 109.91857 
L 138.944032 113.425147 
L 140.247932 116.211547 
L 141.225857 117.801848 
L 142.203783 118.94797 
L 142.855733 119.460094 
L 143.507683 119.76818 
L 144.159633 119.87101 
L 144.811583 119.76818 
L 145.463533 119.460094 
L 146.115484 118.94797 
L 147.093409 117.801848 
L 148.071334 116.211547 
L 149.049259 114.19118 
L 150.35316 110.859893 
L 151.65706 106.848885 
L 153.286935 100.976574 
L 155.242786 92.864337 
L 157.524611 82.298044 
L 161.762287 61.228033 
L 165.022038 45.571292 
L 166.977889 37.128893 
L 168.607764 30.910851 
L 170.237639 25.600141 
L 171.54154 22.093564 
L 172.84544 19.307164 
L 173.823365 17.716862 
L 174.801291 16.570741 
L 175.453241 16.058617 
L 176.105191 15.750531 
L 177.083116 15.608307 
L 177.735066 15.684423 
L 178.387016 15.967594 
L 179.038967 16.457723 
L 180.016892 17.578713 
L 180.994817 19.335822 
L 181.972742 21.522742 
L 183.276643 25.073151 
L 184.580543 29.296747 
L 186.210418 35.42051 
L 188.166269 43.805432 
L 190.448094 54.637718 
L 198.923446 96.031212 
L 200.879297 103.878149 
L 202.509172 109.450344 
L 203.813073 113.17473 
L 205.116973 116.182889 
L 206.094898 117.939998 
L 207.072823 119.251701 
L 208.050749 120.106353 
L 208.702699 120.41829 
L 209.354649 120.522406 
L 210.006599 120.41829 
L 210.658549 120.106353 
L 211.310499 119.587827 
L 212.288425 118.42738 
L 213.26635 116.817199 
L 214.244275 114.771578 
L 215.548175 111.39865 
L 216.852076 107.337504 
L 218.481951 101.39179 
L 220.437802 93.178149 
L 222.719627 82.479777 
L 226.957303 61.146392 
L 230.217054 45.293941 
L 232.172904 36.746013 
L 233.80278 30.450245 
L 235.432655 25.073151 
L 236.736556 21.522742 
L 238.040456 18.701512 
L 239.018381 17.091331 
L 239.996306 15.930884 
L 240.648257 15.412357 
L 241.300207 15.100421 
L 241.952157 14.996305 
L 242.604107 15.100421 
L 243.256057 15.412357 
L 243.908007 15.930884 
L 244.885933 17.091331 
L 245.863858 18.701512 
L 246.841783 20.747133 
L 248.145683 24.120061 
L 249.449584 28.181207 
L 251.079459 34.126921 
L 253.03531 42.340562 
L 255.317135 53.038934 
L 259.554811 74.372319 
L 262.814562 90.22477 
L 264.770412 98.772698 
L 266.400288 105.068466 
L 268.030163 110.44556 
L 269.334063 113.995969 
L 270.637964 116.817199 
L 271.615889 118.42738 
L 272.593814 119.587827 
L 273.245764 120.106353 
L 273.897715 120.41829 
L 274.549665 120.522406 
L 275.201615 120.41829 
L 275.853565 120.106353 
L 276.505515 119.587827 
L 277.48344 118.42738 
L 278.461366 116.817199 
L 279.439291 114.771578 
L 280.743191 111.39865 
L 282.047092 107.337504 
L 283.676967 101.39179 
L 285.632817 93.178149 
L 287.914643 82.479777 
L 292.152319 61.146392 
L 295.41207 45.293941 
L 297.36792 36.746013 
L 298.997796 30.450245 
L 300.627671 25.073151 
L 301.931571 21.522742 
L 303.235472 18.701512 
L 303.887422 17.578713 
L 303.887422 17.578713 
" style="fill:none;stroke:#d9524f;stroke-width:3;"/>
   </g>
   <g id="line2d_26">
    <path clip-path="url(#p3d44773428)" d="M 46.367109 93.815183 
L 48.32296 101.810184 
L 49.952835 107.56203 
L 51.256736 111.463867 
L 52.560636 114.676456 
L 53.538561 116.602671 
L 54.516486 118.095349 
L 55.494412 119.141241 
L 56.146362 119.585537 
L 56.798312 119.825299 
L 57.450262 119.859581 
L 58.102212 119.688247 
L 58.754162 119.311974 
L 59.406113 118.732246 
L 60.384038 117.486398 
L 61.361963 115.79917 
L 62.339888 113.685537 
L 63.643789 110.237014 
L 64.947689 106.118593 
L 66.577564 100.128394 
L 68.533415 91.902478 
L 70.81524 81.246844 
L 79.616567 38.921206 
L 81.572418 31.298741 
L 83.202293 25.923208 
L 84.506194 22.358962 
L 85.810094 19.510707 
L 86.788019 17.871852 
L 87.765944 16.675802 
L 88.417895 16.129846 
L 89.069845 15.787648 
L 89.721795 15.650558 
L 90.373745 15.719118 
L 91.025695 15.993057 
L 91.677645 16.471294 
L 92.655571 17.56736 
L 93.633496 19.108935 
L 94.611421 21.082333 
L 95.915321 24.354451 
L 97.219222 28.31109 
L 98.849097 34.123487 
L 100.478973 40.764111 
L 102.760798 51.137858 
L 106.020549 67.213653 
L 110.258225 87.953434 
L 112.54005 97.946656 
L 114.169926 104.21997 
L 115.799801 109.595503 
L 117.103702 113.159749 
L 118.407602 116.008004 
L 119.385527 117.646859 
L 120.363452 118.842908 
L 121.015402 119.388865 
L 121.667353 119.731063 
L 122.319303 119.868153 
L 122.971253 119.799593 
L 123.623203 119.525654 
L 124.275153 119.047417 
L 125.253079 117.951351 
L 126.231004 116.409776 
L 127.208929 114.436377 
L 128.512829 111.16426 
L 129.81673 107.20762 
L 131.446605 101.395224 
L 133.07648 94.7546 
L 135.358306 84.380853 
L 138.618057 68.305057 
L 142.855733 47.565277 
L 145.137558 37.572055 
L 146.767434 31.298741 
L 148.397309 25.923208 
L 149.701209 22.358962 
L 151.00511 19.510707 
L 151.983035 17.871852 
L 152.96096 16.675802 
L 153.61291 16.129846 
L 154.264861 15.787648 
L 154.916811 15.650558 
L 155.568761 15.719118 
L 156.220711 15.993057 
L 156.872661 16.471294 
L 157.850586 17.56736 
L 158.828512 19.108935 
L 159.806437 21.082333 
L 161.110337 24.354451 
L 162.414238 28.31109 
L 164.044113 34.123487 
L 165.673988 40.764111 
L 167.955814 51.137858 
L 171.215565 67.213653 
L 175.453241 87.953434 
L 178.061041 99.423549 
L 180.016892 106.969943 
L 181.320792 111.085693 
L 182.624692 114.51816 
L 183.602618 116.611112 
L 184.580543 118.270452 
L 185.558468 119.481453 
L 186.210418 120.034234 
L 186.862368 120.38071 
L 187.514319 120.519513 
L 188.166269 120.450096 
L 188.818219 120.172733 
L 189.470169 119.688518 
L 190.448094 118.578751 
L 191.42602 117.017907 
L 192.403945 115.01984 
L 193.707845 111.706821 
L 195.011745 107.700724 
L 196.641621 101.815672 
L 198.271496 95.092041 
L 200.553322 84.588622 
L 203.813073 68.311879 
L 208.050749 47.312851 
L 210.332574 37.194714 
L 211.96245 30.842983 
L 213.592325 25.400257 
L 214.896225 21.791457 
L 216.200126 18.907599 
L 217.178051 17.248259 
L 218.155976 16.037258 
L 218.807926 15.484477 
L 219.459876 15.138001 
L 220.111827 14.999198 
L 220.763777 15.068615 
L 221.415727 15.345978 
L 222.067677 15.830193 
L 223.045602 16.93996 
L 224.023527 18.500804 
L 225.001453 20.498871 
L 226.305353 23.81189 
L 227.609253 27.817987 
L 229.239129 33.703039 
L 230.869004 40.42667 
L 233.15083 50.930089 
L 236.41058 67.206832 
L 240.648257 88.20586 
L 242.930082 98.323997 
L 244.559957 104.675728 
L 246.189833 110.118454 
L 247.493733 113.727254 
L 248.797634 116.611112 
L 249.775559 118.270452 
L 250.753484 119.481453 
L 251.405434 120.034234 
L 252.057384 120.38071 
L 252.709334 120.519513 
L 253.361285 120.450096 
L 254.013235 120.172733 
L 254.665185 119.688518 
L 255.64311 118.578751 
L 256.621035 117.017907 
L 257.598961 115.01984 
L 258.902861 111.706821 
L 260.206761 107.700724 
L 261.836637 101.815672 
L 263.466512 95.092041 
L 265.748338 84.588622 
L 269.008088 68.311879 
L 273.245764 47.312851 
L 275.52759 37.194714 
L 277.157465 30.842983 
L 278.787341 25.400257 
L 280.091241 21.791457 
L 281.395141 18.907599 
L 282.373067 17.248259 
L 283.350992 16.037258 
L 284.002942 15.484477 
L 284.654892 15.138001 
L 285.306842 14.999198 
L 285.958793 15.068615 
L 286.610743 15.345978 
L 287.262693 15.830193 
L 288.240618 16.93996 
L 289.218543 18.500804 
L 290.196469 20.498871 
L 291.500369 23.81189 
L 292.804269 27.817987 
L 294.434145 33.703039 
L 296.06402 40.42667 
L 298.345846 50.930089 
L 301.605596 67.206832 
L 303.887422 78.72941 
L 303.887422 78.72941 
" style="fill:none;stroke:#5cb85c;stroke-width:3;"/>
   </g>
   <g id="line2d_27">
    <path clip-path="url(#p3d44773428)" d="M 46.367109 93.815183 
L 48.648935 83.342866 
L 52.234661 65.577146 
L 55.820387 48.069447 
L 58.102212 38.018527 
L 59.732088 31.690629 
L 61.361963 26.250863 
L 62.665863 22.629339 
L 63.969764 19.719541 
L 64.947689 18.032313 
L 65.925614 16.786465 
L 66.903539 15.993057 
L 67.55549 15.719118 
L 68.20744 15.650558 
L 68.85939 15.787648 
L 69.51134 16.129846 
L 70.16329 16.675802 
L 71.141215 17.871852 
L 72.119141 19.510707 
L 73.097066 21.577821 
L 74.400966 24.967911 
L 75.704866 29.032849 
L 77.334742 34.964429 
L 79.290592 43.133953 
L 81.572418 53.745499 
L 86.136069 76.449951 
L 89.069845 90.439968 
L 91.025695 98.82962 
L 92.655571 104.991709 
L 94.285446 110.237014 
L 95.589346 113.685537 
L 96.567272 115.79917 
L 97.545197 117.486398 
L 98.523122 118.732246 
L 99.501047 119.525654 
L 100.152997 119.799593 
L 100.804948 119.868153 
L 101.456898 119.731063 
L 102.108848 119.388865 
L 102.760798 118.842908 
L 103.738723 117.646859 
L 104.716649 116.008004 
L 105.694574 113.94089 
L 106.998474 110.5508 
L 108.302374 106.485862 
L 109.93225 100.554282 
L 111.8881 92.384758 
L 114.169926 81.773212 
L 118.733577 59.06876 
L 121.667353 45.078743 
L 123.623203 36.689091 
L 125.253079 30.527002 
L 126.882954 25.281697 
L 128.186854 21.833174 
L 129.164779 19.719541 
L 130.142705 18.032313 
L 131.12063 16.786465 
L 132.098555 15.993057 
L 132.750505 15.719118 
L 133.402455 15.650558 
L 134.054406 15.787648 
L 134.706356 16.129846 
L 135.358306 16.675802 
L 136.336231 17.871852 
L 137.314156 19.510707 
L 138.292082 21.577821 
L 139.595982 24.967911 
L 140.899882 29.032849 
L 142.529758 34.964429 
L 144.485608 43.133953 
L 146.767434 53.745499 
L 151.331085 76.449951 
L 154.264861 90.439968 
L 156.220711 98.82962 
L 157.850586 104.991709 
L 159.480462 110.237014 
L 160.784362 113.685537 
L 161.762287 115.79917 
L 162.740213 117.486398 
L 163.718138 118.732246 
L 164.696063 119.525654 
L 165.348013 119.799593 
L 165.999963 119.868153 
L 166.651914 119.731063 
L 167.303864 119.388865 
L 167.955814 118.842908 
L 168.933739 117.646859 
L 169.911664 116.008004 
L 170.88959 113.94089 
L 172.19349 110.5508 
L 173.49739 106.485862 
L 175.127266 100.554282 
L 177.083116 92.41554 
L 179.038967 83.479222 
L 181.972742 68.864341 
L 186.210418 47.823323 
L 188.492244 37.646767 
L 190.122119 31.23977 
L 191.751995 25.732007 
L 193.055895 22.065213 
L 194.359795 19.119044 
L 195.337721 17.410725 
L 196.315646 16.149304 
L 197.293571 15.345978 
L 197.945521 15.068615 
L 198.597471 14.999198 
L 199.249421 15.138001 
L 199.901372 15.484477 
L 200.553322 16.037258 
L 201.531247 17.248259 
L 202.509172 18.907599 
L 203.487098 21.000551 
L 204.790998 24.433018 
L 206.094898 28.548768 
L 207.724774 34.554492 
L 209.680624 42.826136 
L 211.96245 53.570325 
L 216.526101 76.558583 
L 219.459876 90.723476 
L 221.415727 99.217999 
L 223.045602 105.457113 
L 224.675478 110.767984 
L 225.979378 114.259614 
L 226.957303 116.399667 
L 227.935228 118.107986 
L 228.913154 119.369407 
L 229.891079 120.172733 
L 230.543029 120.450096 
L 231.194979 120.519513 
L 231.846929 120.38071 
L 232.49888 120.034234 
L 233.15083 119.481453 
L 234.128755 118.270452 
L 235.10668 116.611112 
L 236.084605 114.51816 
L 237.388506 111.085693 
L 238.692406 106.969943 
L 240.322281 100.964219 
L 242.278132 92.692575 
L 244.559957 81.948386 
L 249.123609 58.960128 
L 252.057384 44.795235 
L 254.013235 36.300712 
L 255.64311 30.061597 
L 257.272986 24.750726 
L 258.576886 21.259097 
L 259.554811 19.119044 
L 260.532736 17.410725 
L 261.510662 16.149304 
L 262.488587 15.345978 
L 263.140537 15.068615 
L 263.792487 14.999198 
L 264.444437 15.138001 
L 265.096387 15.484477 
L 265.748338 16.037258 
L 266.726263 17.248259 
L 267.704188 18.907599 
L 268.682113 21.000551 
L 269.986014 24.433018 
L 271.289914 28.548768 
L 272.919789 34.554492 
L 274.87564 42.826136 
L 277.157465 53.570325 
L 281.721116 76.558583 
L 284.654892 90.723476 
L 286.610743 99.217999 
L 288.240618 105.457113 
L 289.870493 110.767984 
L 291.174394 114.259614 
L 292.152319 116.399667 
L 293.130244 118.107986 
L 294.10817 119.369407 
L 295.086095 120.172733 
L 295.738045 120.450096 
L 296.389995 120.519513 
L 297.041945 120.38071 
L 297.693895 120.034234 
L 298.345846 119.481453 
L 299.323771 118.270452 
L 300.301696 116.611112 
L 301.279621 114.51816 
L 302.583522 111.085693 
L 303.887422 106.969943 
L 303.887422 106.969943 
" style="fill:none;stroke:#337ab7;stroke-width:3;"/>
   </g>
   <g id="line2d_28">
    <path clip-path="url(#p3d44773428)" d="M 46.367109 15.647701 
L 47.01906 15.750531 
L 47.67101 16.058617 
L 48.32296 16.570741 
L 49.300885 17.716862 
L 50.27881 19.307164 
L 51.256736 21.327531 
L 52.560636 24.658818 
L 53.864536 28.669826 
L 55.494412 34.542137 
L 57.450262 42.654374 
L 59.732088 53.220667 
L 63.969764 74.290678 
L 67.229514 89.947419 
L 69.185365 98.389818 
L 70.81524 104.60786 
L 72.445116 109.91857 
L 73.749016 113.425147 
L 75.052916 116.211547 
L 76.030842 117.801848 
L 77.008767 118.94797 
L 77.660717 119.460094 
L 78.312667 119.76818 
L 78.964617 119.87101 
L 79.616567 119.76818 
L 80.268518 119.460094 
L 80.920468 118.94797 
L 81.898393 117.801848 
L 82.876318 116.211547 
L 83.854243 114.19118 
L 85.158144 110.859893 
L 86.462044 106.848885 
L 88.09192 100.976574 
L 90.04777 92.864337 
L 92.329596 82.298044 
L 96.567272 61.228033 
L 99.827022 45.571292 
L 101.782873 37.128893 
L 103.412748 30.910851 
L 105.042624 25.600141 
L 106.346524 22.093564 
L 107.650424 19.307164 
L 108.628349 17.716862 
L 109.606275 16.570741 
L 110.258225 16.058617 
L 110.910175 15.750531 
L 111.562125 15.647701 
L 112.214075 15.750531 
L 112.866026 16.058617 
L 113.517976 16.570741 
L 114.495901 17.716862 
L 115.473826 19.307164 
L 116.451751 21.327531 
L 117.755652 24.658818 
L 119.059552 28.669826 
L 120.689427 34.542137 
L 122.645278 42.654374 
L 124.927103 53.220667 
L 129.164779 74.290678 
L 132.42453 89.947419 
L 134.380381 98.389818 
L 136.010256 104.60786 
L 137.640132 109.91857 
L 138.944032 113.425147 
L 140.247932 116.211547 
L 141.225857 117.801848 
L 142.203783 118.94797 
L 142.855733 119.460094 
L 143.507683 119.76818 
L 144.159633 119.87101 
L 144.811583 119.76818 
L 145.463533 119.460094 
L 146.115484 118.94797 
L 147.093409 117.801848 
L 148.071334 116.211547 
L 149.049259 114.19118 
L 150.35316 110.859893 
L 151.65706 106.848885 
L 153.286935 100.976574 
L 155.242786 92.864337 
L 157.524611 82.298044 
L 161.762287 61.228033 
L 165.022038 45.571292 
L 166.977889 37.128893 
L 168.607764 30.910851 
L 170.237639 25.600141 
L 171.54154 22.093564 
L 172.84544 19.307164 
L 173.823365 17.716862 
L 174.801291 16.570741 
L 175.453241 16.058617 
L 176.105191 15.750531 
L 176.757141 15.647701 
L 177.409091 15.750531 
L 178.061041 16.058617 
L 178.712991 16.570741 
L 179.690917 17.716862 
L 180.668842 19.307164 
L 181.646767 21.327531 
L 182.950668 24.658818 
L 184.254568 28.669826 
L 185.884443 34.542137 
L 187.840294 42.654374 
L 190.122119 53.220667 
L 194.359795 74.290678 
L 197.619546 89.947419 
L 199.575397 98.389818 
L 201.205272 104.60786 
L 202.835147 109.91857 
L 204.139048 113.425147 
L 205.442948 116.211547 
L 206.420873 117.801848 
L 207.398798 118.94797 
L 208.050749 119.460094 
L 208.702699 119.76818 
L 209.354649 119.87101 
L 210.006599 119.76818 
L 210.658549 119.460094 
L 211.310499 118.94797 
L 212.288425 117.801848 
L 213.26635 116.211547 
L 214.244275 114.19118 
L 215.548175 110.859893 
L 216.852076 106.848885 
L 218.481951 100.976574 
L 220.437802 92.864337 
L 222.719627 82.298044 
L 226.957303 61.228033 
L 230.217054 45.571292 
L 232.172904 37.128893 
L 233.80278 30.910851 
L 235.432655 25.600141 
L 236.736556 22.093564 
L 238.040456 19.307164 
L 239.018381 17.716862 
L 239.996306 16.570741 
L 240.648257 16.058617 
L 241.300207 15.750531 
L 241.952157 15.647701 
L 242.604107 15.750531 
L 243.256057 16.058617 
L 243.908007 16.570741 
L 244.885933 17.716862 
L 245.863858 19.307164 
L 246.841783 21.327531 
L 248.145683 24.658818 
L 249.449584 28.669826 
L 251.079459 34.542137 
L 253.03531 42.654374 
L 255.317135 53.220667 
L 259.554811 74.290678 
L 262.814562 89.947419 
L 264.770412 98.389818 
L 266.400288 104.60786 
L 268.030163 109.91857 
L 269.334063 113.425147 
L 270.637964 116.211547 
L 271.615889 117.801848 
L 272.593814 118.94797 
L 273.245764 119.460094 
L 273.897715 119.76818 
L 274.549665 119.87101 
L 275.201615 119.76818 
L 275.853565 119.460094 
L 276.505515 118.94797 
L 277.48344 117.801848 
L 278.461366 116.211547 
L 279.439291 114.19118 
L 280.743191 110.859893 
L 282.047092 106.848885 
L 283.676967 100.976574 
L 285.632817 92.864337 
L 287.914643 82.298044 
L 292.152319 61.228033 
L 295.41207 45.571292 
L 297.36792 37.128893 
L 298.997796 30.910851 
L 300.627671 25.600141 
L 301.931571 22.093564 
L 303.235472 19.307164 
L 303.887422 18.198227 
L 303.887422 18.198227 
" style="fill:none;stroke:#f0ad4e;stroke-width:3;"/>
   </g>
   <g id="line2d_29">
    <path clip-path="url(#p3d44773428)" d="M 46.367109 93.815183 
L 48.32296 101.810184 
L 49.952835 107.56203 
L 51.256736 111.463867 
L 52.560636 114.676456 
L 53.538561 116.602671 
L 54.516486 118.095349 
L 55.494412 119.141241 
L 56.146362 119.585537 
L 56.798312 119.825299 
L 57.450262 119.859581 
L 58.102212 119.688247 
L 58.754162 119.311974 
L 59.406113 118.732246 
L 60.384038 117.486398 
L 61.361963 115.79917 
L 62.339888 113.685537 
L 63.643789 110.237014 
L 64.947689 106.118593 
L 66.577564 100.128394 
L 68.533415 91.902478 
L 70.81524 81.246844 
L 79.616567 38.921206 
L 81.572418 31.298741 
L 83.202293 25.923208 
L 84.506194 22.358962 
L 85.810094 19.510707 
L 86.788019 17.871852 
L 87.765944 16.675802 
L 88.417895 16.129846 
L 89.069845 15.787648 
L 89.721795 15.650558 
L 90.373745 15.719118 
L 91.025695 15.993057 
L 91.677645 16.471294 
L 92.655571 17.56736 
L 93.633496 19.108935 
L 94.611421 21.082333 
L 95.915321 24.354451 
L 97.219222 28.31109 
L 98.849097 34.123487 
L 100.478973 40.764111 
L 102.760798 51.137858 
L 106.020549 67.213653 
L 110.258225 87.953434 
L 112.54005 97.946656 
L 114.169926 104.21997 
L 115.799801 109.595503 
L 117.103702 113.159749 
L 118.407602 116.008004 
L 119.385527 117.646859 
L 120.363452 118.842908 
L 121.015402 119.388865 
L 121.667353 119.731063 
L 122.319303 119.868153 
L 122.971253 119.799593 
L 123.623203 119.525654 
L 124.275153 119.047417 
L 125.253079 117.951351 
L 126.231004 116.409776 
L 127.208929 114.436377 
L 128.512829 111.16426 
L 129.81673 107.20762 
L 131.446605 101.395224 
L 133.07648 94.7546 
L 135.358306 84.380853 
L 138.618057 68.305057 
L 142.855733 47.565277 
L 145.137558 37.572055 
L 146.767434 31.298741 
L 148.397309 25.923208 
L 149.701209 22.358962 
L 151.00511 19.510707 
L 151.983035 17.871852 
L 152.96096 16.675802 
L 153.61291 16.129846 
L 154.264861 15.787648 
L 154.916811 15.650558 
L 155.568761 15.719118 
L 156.220711 15.993057 
L 156.872661 16.471294 
L 157.850586 17.56736 
L 158.828512 19.108935 
L 159.806437 21.082333 
L 161.110337 24.354451 
L 162.414238 28.31109 
L 164.044113 34.123487 
L 165.673988 40.764111 
L 167.955814 51.137858 
L 171.215565 67.213653 
L 175.453241 87.953434 
L 177.735066 97.946656 
L 179.364942 104.21997 
L 180.994817 109.595503 
L 182.298717 113.159749 
L 183.602618 116.008004 
L 184.580543 117.646859 
L 185.558468 118.842908 
L 186.210418 119.388865 
L 186.862368 119.731063 
L 187.514319 119.868153 
L 188.166269 119.799593 
L 188.818219 119.525654 
L 189.470169 119.047417 
L 190.448094 117.951351 
L 191.42602 116.409776 
L 192.403945 114.436377 
L 193.707845 111.16426 
L 195.011745 107.20762 
L 196.641621 101.395224 
L 198.271496 94.7546 
L 200.553322 84.380853 
L 203.813073 68.305057 
L 208.050749 47.565277 
L 210.332574 37.572055 
L 211.96245 31.298741 
L 213.592325 25.923208 
L 214.896225 22.358962 
L 216.200126 19.510707 
L 217.178051 17.871852 
L 218.155976 16.675802 
L 218.807926 16.129846 
L 219.459876 15.787648 
L 220.111827 15.650558 
L 220.763777 15.719118 
L 221.415727 15.993057 
L 222.067677 16.471294 
L 223.045602 17.56736 
L 224.023527 19.108935 
L 225.001453 21.082333 
L 226.305353 24.354451 
L 227.609253 28.31109 
L 229.239129 34.123487 
L 230.869004 40.764111 
L 233.15083 51.137858 
L 236.41058 67.213653 
L 240.648257 87.953434 
L 242.930082 97.946656 
L 244.559957 104.21997 
L 246.189833 109.595503 
L 247.493733 113.159749 
L 248.797634 116.008004 
L 249.775559 117.646859 
L 250.753484 118.842908 
L 251.405434 119.388865 
L 252.057384 119.731063 
L 252.709334 119.868153 
L 253.361285 119.799593 
L 254.013235 119.525654 
L 254.665185 119.047417 
L 255.64311 117.951351 
L 256.621035 116.409776 
L 257.598961 114.436377 
L 258.902861 111.16426 
L 260.206761 107.20762 
L 261.836637 101.395224 
L 263.466512 94.7546 
L 265.748338 84.380853 
L 269.008088 68.305057 
L 273.245764 47.565277 
L 275.52759 37.572055 
L 277.157465 31.298741 
L 278.787341 25.923208 
L 280.091241 22.358962 
L 281.395141 19.510707 
L 282.373067 17.871852 
L 283.350992 16.675802 
L 284.002942 16.129846 
L 284.654892 15.787648 
L 285.306842 15.650558 
L 285.958793 15.719118 
L 286.610743 15.993057 
L 287.262693 16.471294 
L 288.240618 17.56736 
L 289.218543 19.108935 
L 290.196469 21.082333 
L 291.500369 24.354451 
L 292.804269 28.31109 
L 294.434145 34.123487 
L 296.06402 40.764111 
L 298.345846 51.137858 
L 301.605596 67.213653 
L 303.887422 78.593978 
L 303.887422 78.593978 
" style="fill:none;stroke:#5bc0de;stroke-width:3;"/>
   </g>
   <g id="line2d_30">
    <path clip-path="url(#p3d44773428)" d="M 46.367109 93.815183 
L 48.648935 83.342866 
L 52.234661 65.577146 
L 55.820387 48.069447 
L 58.102212 38.018527 
L 59.732088 31.690629 
L 61.361963 26.250863 
L 62.665863 22.629339 
L 63.969764 19.719541 
L 64.947689 18.032313 
L 65.925614 16.786465 
L 66.903539 15.993057 
L 67.55549 15.719118 
L 68.20744 15.650558 
L 68.85939 15.787648 
L 69.51134 16.129846 
L 70.16329 16.675802 
L 71.141215 17.871852 
L 72.119141 19.510707 
L 73.097066 21.577821 
L 74.400966 24.967911 
L 75.704866 29.032849 
L 77.334742 34.964429 
L 79.290592 43.133953 
L 81.572418 53.745499 
L 86.136069 76.449951 
L 89.069845 90.439968 
L 91.025695 98.82962 
L 92.655571 104.991709 
L 94.285446 110.237014 
L 95.589346 113.685537 
L 96.567272 115.79917 
L 97.545197 117.486398 
L 98.523122 118.732246 
L 99.501047 119.525654 
L 100.152997 119.799593 
L 100.804948 119.868153 
L 101.456898 119.731063 
L 102.108848 119.388865 
L 102.760798 118.842908 
L 103.738723 117.646859 
L 104.716649 116.008004 
L 105.694574 113.94089 
L 106.998474 110.5508 
L 108.302374 106.485862 
L 109.93225 100.554282 
L 111.8881 92.384758 
L 114.169926 81.773212 
L 118.733577 59.06876 
L 121.667353 45.078743 
L 123.623203 36.689091 
L 125.253079 30.527002 
L 126.882954 25.281697 
L 128.186854 21.833174 
L 129.164779 19.719541 
L 130.142705 18.032313 
L 131.12063 16.786465 
L 132.098555 15.993057 
L 132.750505 15.719118 
L 133.402455 15.650558 
L 134.054406 15.787648 
L 134.706356 16.129846 
L 135.358306 16.675802 
L 136.336231 17.871852 
L 137.314156 19.510707 
L 138.292082 21.577821 
L 139.595982 24.967911 
L 140.899882 29.032849 
L 142.529758 34.964429 
L 144.485608 43.133953 
L 146.767434 53.745499 
L 151.331085 76.449951 
L 154.264861 90.439968 
L 156.220711 98.82962 
L 157.850586 104.991709 
L 159.480462 110.237014 
L 160.784362 113.685537 
L 161.762287 115.79917 
L 162.740213 117.486398 
L 163.718138 118.732246 
L 164.696063 119.525654 
L 165.348013 119.799593 
L 165.999963 119.868153 
L 166.651914 119.731063 
L 167.303864 119.388865 
L 167.955814 118.842908 
L 168.933739 117.646859 
L 169.911664 116.008004 
L 170.88959 113.94089 
L 172.19349 110.5508 
L 173.49739 106.485862 
L 175.127266 100.554282 
L 177.083116 92.384758 
L 179.364942 81.773212 
L 183.928593 59.06876 
L 186.862368 45.078743 
L 188.818219 36.689091 
L 190.448094 30.527002 
L 192.07797 25.281697 
L 193.38187 21.833174 
L 194.359795 19.719541 
L 195.337721 18.032313 
L 196.315646 16.786465 
L 197.293571 15.993057 
L 197.945521 15.719118 
L 198.597471 15.650558 
L 199.249421 15.787648 
L 199.901372 16.129846 
L 200.553322 16.675802 
L 201.531247 17.871852 
L 202.509172 19.510707 
L 203.487098 21.577821 
L 204.790998 24.967911 
L 206.094898 29.032849 
L 207.724774 34.964429 
L 209.680624 43.133953 
L 211.96245 53.745499 
L 216.526101 76.449951 
L 219.459876 90.439968 
L 221.415727 98.82962 
L 223.045602 104.991709 
L 224.675478 110.237014 
L 225.979378 113.685537 
L 226.957303 115.79917 
L 227.935228 117.486398 
L 228.913154 118.732246 
L 229.891079 119.525654 
L 230.543029 119.799593 
L 231.194979 119.868153 
L 231.846929 119.731063 
L 232.49888 119.388865 
L 233.15083 118.842908 
L 234.128755 117.646859 
L 235.10668 116.008004 
L 236.084605 113.94089 
L 237.388506 110.5508 
L 238.692406 106.485862 
L 240.322281 100.554282 
L 242.278132 92.384758 
L 244.559957 81.773212 
L 249.123609 59.06876 
L 252.057384 45.078743 
L 254.013235 36.689091 
L 255.64311 30.527002 
L 257.272986 25.281697 
L 258.576886 21.833174 
L 259.554811 19.719541 
L 260.532736 18.032313 
L 261.510662 16.786465 
L 262.488587 15.993057 
L 263.140537 15.719118 
L 263.792487 15.650558 
L 264.444437 15.787648 
L 265.096387 16.129846 
L 265.748338 16.675802 
L 266.726263 17.871852 
L 267.704188 19.510707 
L 268.682113 21.577821 
L 269.986014 24.967911 
L 271.289914 29.032849 
L 272.919789 34.964429 
L 274.87564 43.133953 
L 277.157465 53.745499 
L 281.721116 76.449951 
L 284.654892 90.439968 
L 286.610743 98.82962 
L 288.240618 104.991709 
L 289.870493 110.237014 
L 291.174394 113.685537 
L 292.152319 115.79917 
L 293.130244 117.486398 
L 294.10817 118.732246 
L 295.086095 119.525654 
L 295.738045 119.799593 
L 296.389995 119.868153 
L 297.041945 119.731063 
L 297.693895 119.388865 
L 298.345846 118.842908 
L 299.323771 117.646859 
L 300.301696 116.008004 
L 301.279621 113.94089 
L 302.583522 110.5508 
L 303.887422 106.485862 
L 303.887422 106.485862 
" style="fill:none;stroke:#5e4485;stroke-width:3;"/>
   </g>
   <g id="patch_2">
    <path d="M 33.491094 125.798711 
L 33.491094 9.72 
" style="fill:none;stroke:#ffffff;stroke-linecap:square;stroke-linejoin:miter;stroke-width:2;"/>
   </g>
   <g id="patch_3">
    <path d="M 316.763438 125.798711 
L 316.763438 9.72 
" style="fill:none;stroke:#ffffff;stroke-linecap:square;stroke-linejoin:miter;stroke-width:2;"/>
   </g>
   <g id="patch_4">
    <path d="M 33.491094 125.798711 
L 316.763438 125.798711 
" style="fill:none;stroke:#ffffff;stroke-linecap:square;stroke-linejoin:miter;stroke-width:2;"/>
   </g>
   <g id="patch_5">
    <path d="M 33.491094 9.72 
L 316.763438 9.72 
" style="fill:none;stroke:#ffffff;stroke-linecap:square;stroke-linejoin:miter;stroke-width:2;"/>
   </g>
  </g>
  <g id="axes_2">
   <g id="patch_6">
    <path d="M 355.007656 125.798711 
L 638.28 125.798711 
L 638.28 9.72 
L 355.007656 9.72 
z
" style="fill:#ffffff;"/>
   </g>
   <g id="matplotlib.axis_3">
    <g id="xtick_10">
     <g id="line2d_31">
      <path clip-path="url(#pcb9c1e76a8)" d="M 367.883672 125.798711 
L 367.883672 9.72 
" style="fill:none;stroke:#cbcbcb;"/>
     </g>
     <g id="line2d_32"/>
     <g id="text_13">
      <text style="font-family:Arial;font-size:9px;font-stretch:normal;font-style:normal;font-weight:normal;text-anchor:middle;" transform="rotate(-0, 367.883672, 135.740742)" x="367.883672" y="135.740742">0.00</text>
     </g>
    </g>
    <g id="xtick_11">
     <g id="line2d_33">
      <path clip-path="url(#pcb9c1e76a8)" d="M 400.48118 125.798711 
L 400.48118 9.72 
" style="fill:none;stroke:#cbcbcb;"/>
     </g>
     <g id="line2d_34"/>
     <g id="text_14">
      <text style="font-family:Arial;font-size:9px;font-stretch:normal;font-style:normal;font-weight:normal;text-anchor:middle;" transform="rotate(-0, 400.48118, 135.740742)" x="400.48118" y="135.740742">0.01</text>
     </g>
    </g>
    <g id="xtick_12">
     <g id="line2d_35">
      <path clip-path="url(#pcb9c1e76a8)" d="M 433.078688 125.798711 
L 433.078688 9.72 
" style="fill:none;stroke:#cbcbcb;"/>
     </g>
     <g id="line2d_36"/>
     <g id="text_15">
      <text style="font-family:Arial;font-size:9px;font-stretch:normal;font-style:normal;font-weight:normal;text-anchor:middle;" transform="rotate(-0, 433.078688, 135.740742)" x="433.078688" y="135.740742">0.02</text>
     </g>
    </g>
    <g id="xtick_13">
     <g id="line2d_37">
      <path clip-path="url(#pcb9c1e76a8)" d="M 465.676196 125.798711 
L 465.676196 9.72 
" style="fill:none;stroke:#cbcbcb;"/>
     </g>
     <g id="line2d_38"/>
     <g id="text_16">
      <text style="font-family:Arial;font-size:9px;font-stretch:normal;font-style:normal;font-weight:normal;text-anchor:middle;" transform="rotate(-0, 465.676196, 135.740742)" x="465.676196" y="135.740742">0.03</text>
     </g>
    </g>
    <g id="xtick_14">
     <g id="line2d_39">
      <path clip-path="url(#pcb9c1e76a8)" d="M 498.273704 125.798711 
L 498.273704 9.72 
" style="fill:none;stroke:#cbcbcb;"/>
     </g>
     <g id="line2d_40"/>
     <g id="text_17">
      <text style="font-family:Arial;font-size:9px;font-stretch:normal;font-style:normal;font-weight:normal;text-anchor:middle;" transform="rotate(-0, 498.273704, 135.740742)" x="498.273704" y="135.740742">0.04</text>
     </g>
    </g>
    <g id="xtick_15">
     <g id="line2d_41">
      <path clip-path="url(#pcb9c1e76a8)" d="M 530.871211 125.798711 
L 530.871211 9.72 
" style="fill:none;stroke:#cbcbcb;"/>
     </g>
     <g id="line2d_42"/>
     <g id="text_18">
      <text style="font-family:Arial;font-size:9px;font-stretch:normal;font-style:normal;font-weight:normal;text-anchor:middle;" transform="rotate(-0, 530.871211, 135.740742)" x="530.871211" y="135.740742">0.05</text>
     </g>
    </g>
    <g id="xtick_16">
     <g id="line2d_43">
      <path clip-path="url(#pcb9c1e76a8)" d="M 563.468719 125.798711 
L 563.468719 9.72 
" style="fill:none;stroke:#cbcbcb;"/>
     </g>
     <g id="line2d_44"/>
     <g id="text_19">
      <text style="font-family:Arial;font-size:9px;font-stretch:normal;font-style:normal;font-weight:normal;text-anchor:middle;" transform="rotate(-0, 563.468719, 135.740742)" x="563.468719" y="135.740742">0.06</text>
     </g>
    </g>
    <g id="xtick_17">
     <g id="line2d_45">
      <path clip-path="url(#pcb9c1e76a8)" d="M 596.066227 125.798711 
L 596.066227 9.72 
" style="fill:none;stroke:#cbcbcb;"/>
     </g>
     <g id="line2d_46"/>
     <g id="text_20">
      <text style="font-family:Arial;font-size:9px;font-stretch:normal;font-style:normal;font-weight:normal;text-anchor:middle;" transform="rotate(-0, 596.066227, 135.740742)" x="596.066227" y="135.740742">0.07</text>
     </g>
    </g>
    <g id="xtick_18">
     <g id="line2d_47">
      <path clip-path="url(#pcb9c1e76a8)" d="M 628.663735 125.798711 
L 628.663735 9.72 
" style="fill:none;stroke:#cbcbcb;"/>
     </g>
     <g id="line2d_48"/>
     <g id="text_21">
      <text style="font-family:Arial;font-size:9px;font-stretch:normal;font-style:normal;font-weight:normal;text-anchor:middle;" transform="rotate(-0, 628.663735, 135.740742)" x="628.663735" y="135.740742">0.08</text>
     </g>
    </g>
   </g>
   <g id="matplotlib.axis_4">
    <g id="ytick_4">
     <g id="line2d_49">
      <path clip-path="url(#pcb9c1e76a8)" d="M 355.007656 115.624092 
L 638.28 115.624092 
" style="fill:none;stroke:#cbcbcb;"/>
     </g>
     <g id="line2d_50"/>
     <g id="text_22">
      <text style="font-family:Arial;font-size:9px;font-stretch:normal;font-style:normal;font-weight:normal;text-anchor:end;" transform="rotate(-0, 351.507656, 118.845107)" x="351.507656" y="118.845107">−100</text>
     </g>
    </g>
    <g id="ytick_5">
     <g id="line2d_51">
      <path clip-path="url(#pcb9c1e76a8)" d="M 355.007656 91.691724 
L 638.28 91.691724 
" style="fill:none;stroke:#cbcbcb;"/>
     </g>
     <g id="line2d_52"/>
     <g id="text_23">
      <text style="font-family:Arial;font-size:9px;font-stretch:normal;font-style:normal;font-weight:normal;text-anchor:end;" transform="rotate(-0, 351.507656, 94.912739)" x="351.507656" y="94.912739">−50</text>
     </g>
    </g>
    <g id="ytick_6">
     <g id="line2d_53">
      <path clip-path="url(#pcb9c1e76a8)" d="M 355.007656 67.759355 
L 638.28 67.759355 
" style="fill:none;stroke:#cbcbcb;"/>
     </g>
     <g id="line2d_54"/>
     <g id="text_24">
      <text style="font-family:Arial;font-size:9px;font-stretch:normal;font-style:normal;font-weight:normal;text-anchor:end;" transform="rotate(-0, 351.507656, 70.980371)" x="351.507656" y="70.980371">0</text>
     </g>
    </g>
    <g id="ytick_7">
     <g id="line2d_55">
      <path clip-path="url(#pcb9c1e76a8)" d="M 355.007656 43.826987 
L 638.28 43.826987 
" style="fill:none;stroke:#cbcbcb;"/>
     </g>
     <g id="line2d_56"/>
     <g id="text_25">
      <text style="font-family:Arial;font-size:9px;font-stretch:normal;font-style:normal;font-weight:normal;text-anchor:end;" transform="rotate(-0, 351.507656, 47.048003)" x="351.507656" y="47.048003">50</text>
     </g>
    </g>
    <g id="ytick_8">
     <g id="line2d_57">
      <path clip-path="url(#pcb9c1e76a8)" d="M 355.007656 19.894619 
L 638.28 19.894619 
" style="fill:none;stroke:#cbcbcb;"/>
     </g>
     <g id="line2d_58"/>
     <g id="text_26">
      <text style="font-family:Arial;font-size:9px;font-stretch:normal;font-style:normal;font-weight:normal;text-anchor:end;" transform="rotate(-0, 351.507656, 23.115635)" x="351.507656" y="23.115635">100</text>
     </g>
    </g>
   </g>
   <g id="line2d_59">
    <path clip-path="url(#pcb9c1e76a8)" d="M 367.883672 67.759355 
L 498.273704 67.759355 
L 500.229554 37.15112 
L 501.533454 15.459028 
L 502.185404 15.124268 
L 502.837355 14.997234 
L 503.489305 15.078429 
L 504.141255 15.367531 
L 504.793205 15.863399 
L 505.77113 16.990388 
L 506.749056 18.568005 
L 507.726981 20.582248 
L 509.030881 23.915661 
L 510.334781 27.940515 
L 511.964657 33.846264 
L 513.594532 40.587066 
L 515.876358 51.107812 
L 519.136109 67.394339 
L 523.373785 88.378725 
L 525.65561 98.476848 
L 527.285486 104.809704 
L 528.915361 110.230257 
L 530.219261 113.819307 
L 531.523162 116.681964 
L 532.501087 118.324651 
L 533.479012 119.518517 
L 534.130962 120.059683 
L 534.782912 120.394443 
L 535.434863 120.521477 
L 536.086813 120.440282 
L 536.738763 120.15118 
L 537.390713 119.655311 
L 538.368638 118.528323 
L 539.346563 116.950706 
L 540.324489 114.936463 
L 541.628389 111.60305 
L 542.932289 107.578196 
L 544.562165 101.672447 
L 546.19204 94.931645 
L 548.473866 84.410898 
L 551.733616 68.124372 
L 555.971293 47.139986 
L 558.253118 37.041863 
L 559.882993 30.709007 
L 561.512869 25.288454 
L 562.816769 21.699404 
L 564.12067 18.836747 
L 565.098595 17.19406 
L 566.07652 16.000194 
L 566.72847 15.459028 
L 567.38042 15.124268 
L 568.03237 14.997234 
L 568.684321 15.078429 
L 569.336271 15.367531 
L 569.988221 15.863399 
L 570.966146 16.990388 
L 571.944071 18.568005 
L 572.921997 20.582248 
L 574.225897 23.915661 
L 575.529797 27.940515 
L 577.159673 33.846264 
L 578.789548 40.587066 
L 581.071374 51.107812 
L 584.331124 67.394339 
L 588.5688 88.378725 
L 590.850626 98.476848 
L 592.480501 104.809704 
L 594.110377 110.230257 
L 595.414277 113.819307 
L 596.718177 116.681964 
L 597.696103 118.324651 
L 598.674028 119.518517 
L 599.325978 120.059683 
L 599.977928 120.394443 
L 600.629878 120.521477 
L 601.281829 120.440282 
L 601.933779 120.15118 
L 602.585729 119.655311 
L 603.563654 118.528323 
L 604.541579 116.950706 
L 605.519505 114.936463 
L 606.823405 111.60305 
L 608.127305 107.578196 
L 609.757181 101.672447 
L 611.387056 94.931645 
L 613.668882 84.410898 
L 616.928632 68.124372 
L 621.166308 47.139986 
L 623.448134 37.041863 
L 625.078009 30.709007 
L 625.403984 29.547295 
L 625.403984 29.547295 
" style="fill:none;stroke:#d9524f;stroke-width:3;"/>
   </g>
   <g id="line2d_60">
    <path clip-path="url(#pcb9c1e76a8)" d="M 367.883672 67.759355 
L 498.273704 67.759355 
L 498.599679 68.329529 
L 498.925654 69.228665 
L 499.577604 72.004484 
L 500.229554 76.061682 
L 500.881504 81.364947 
L 501.533454 87.869005 
L 503.81528 98.025924 
L 505.445155 104.414283 
L 507.075031 109.900077 
L 508.378931 113.547256 
L 509.682831 116.472333 
L 510.660757 118.164061 
L 511.638682 119.408394 
L 512.616607 120.194286 
L 513.268557 120.45991 
L 513.920507 120.517549 
L 514.572457 120.366976 
L 515.224408 120.008785 
L 515.876358 119.444389 
L 516.854283 118.216254 
L 517.832208 116.54026 
L 518.810134 114.431284 
L 520.114034 110.978674 
L 521.417934 106.84447 
L 523.04781 100.818491 
L 525.00366 92.527316 
L 527.285486 81.767776 
L 532.175112 57.146533 
L 534.782912 44.62641 
L 536.738763 36.15017 
L 538.368638 29.930398 
L 539.998514 24.642101 
L 541.302414 21.170485 
L 542.280339 19.046378 
L 543.258264 17.35465 
L 544.23619 16.110317 
L 545.214115 15.324425 
L 545.866065 15.058801 
L 546.518015 15.001162 
L 547.169965 15.151735 
L 547.821916 15.509926 
L 548.473866 16.074322 
L 549.451791 17.302457 
L 550.429716 18.978451 
L 551.407641 21.087427 
L 552.711542 24.540037 
L 554.015442 28.674241 
L 555.645317 34.70022 
L 557.601168 42.991395 
L 559.882993 53.750935 
L 564.77262 78.372178 
L 567.38042 90.892301 
L 569.336271 99.368541 
L 570.966146 105.588313 
L 572.596022 110.87661 
L 573.899922 114.348225 
L 574.877847 116.472333 
L 575.855772 118.164061 
L 576.833698 119.408394 
L 577.811623 120.194286 
L 578.463573 120.45991 
L 579.115523 120.517549 
L 579.767473 120.366976 
L 580.419423 120.008785 
L 581.071374 119.444389 
L 582.049299 118.216254 
L 583.027224 116.54026 
L 584.005149 114.431284 
L 585.30905 110.978674 
L 586.61295 106.84447 
L 588.242825 100.818491 
L 590.198676 92.527316 
L 592.480501 81.767776 
L 597.370128 57.146533 
L 599.977928 44.62641 
L 601.933779 36.15017 
L 603.563654 29.930398 
L 605.193529 24.642101 
L 606.49743 21.170485 
L 607.475355 19.046378 
L 608.45328 17.35465 
L 609.431205 16.110317 
L 610.409131 15.324425 
L 611.061081 15.058801 
L 611.713031 15.001162 
L 612.364981 15.151735 
L 613.016931 15.509926 
L 613.668882 16.074322 
L 614.646807 17.302457 
L 615.624732 18.978451 
L 616.602657 21.087427 
L 617.906558 24.540037 
L 619.210458 28.674241 
L 620.840333 34.70022 
L 622.796184 42.991395 
L 625.078009 53.750935 
L 625.403984 55.355707 
L 625.403984 55.355707 
" style="fill:none;stroke:#5cb85c;stroke-width:3;"/>
   </g>
   <g id="line2d_61">
    <path clip-path="url(#pcb9c1e76a8)" d="M 367.883672 67.759355 
L 498.273704 67.759355 
L 499.577604 83.541012 
L 500.555529 92.946825 
L 501.533454 99.950033 
L 503.489305 91.5462 
L 505.77113 80.699366 
L 513.920507 40.739373 
L 515.876358 32.725865 
L 517.506233 26.985198 
L 518.810134 23.109562 
L 520.114034 19.938079 
L 521.091959 18.052097 
L 522.069884 16.60732 
L 523.04781 15.616572 
L 523.69976 15.212822 
L 524.35171 15.01645 
L 525.00366 15.02823 
L 525.65561 15.248116 
L 526.30756 15.67524 
L 526.95951 16.307916 
L 527.937436 17.636659 
L 528.915361 19.410294 
L 529.893286 21.613079 
L 531.197187 25.183371 
L 532.501087 29.425112 
L 534.130962 35.568678 
L 536.086813 43.972511 
L 538.368638 54.819345 
L 546.518015 94.779338 
L 548.473866 102.792846 
L 550.103741 108.533513 
L 551.407641 112.409149 
L 552.711542 115.580632 
L 553.689467 117.466614 
L 554.667392 118.911391 
L 555.645317 119.902139 
L 556.297268 120.305889 
L 556.949218 120.502261 
L 557.601168 120.49048 
L 558.253118 120.270595 
L 558.905068 119.843471 
L 559.557018 119.210795 
L 560.534944 117.882052 
L 561.512869 116.108417 
L 562.490794 113.905632 
L 563.794694 110.33534 
L 565.098595 106.093599 
L 566.72847 99.950033 
L 568.684321 91.5462 
L 570.966146 80.699366 
L 579.115523 40.739373 
L 581.071374 32.725865 
L 582.701249 26.985198 
L 584.005149 23.109562 
L 585.30905 19.938079 
L 586.286975 18.052097 
L 587.2649 16.60732 
L 588.242825 15.616572 
L 588.894776 15.212822 
L 589.546726 15.01645 
L 590.198676 15.02823 
L 590.850626 15.248116 
L 591.502576 15.67524 
L 592.154526 16.307916 
L 593.132452 17.636659 
L 594.110377 19.410294 
L 595.088302 21.613079 
L 596.392202 25.183371 
L 597.696103 29.425112 
L 599.325978 35.568678 
L 601.281829 43.972511 
L 603.563654 54.819345 
L 611.713031 94.779338 
L 613.668882 102.792846 
L 615.298757 108.533513 
L 616.602657 112.409149 
L 617.906558 115.580632 
L 618.884483 117.466614 
L 619.862408 118.911391 
L 620.840333 119.902139 
L 621.492283 120.305889 
L 622.144234 120.502261 
L 622.796184 120.49048 
L 623.448134 120.270595 
L 624.100084 119.843471 
L 624.752034 119.210795 
L 625.403984 118.375064 
L 625.403984 118.375064 
" style="fill:none;stroke:#337ab7;stroke-width:3;"/>
   </g>
   <g id="patch_7">
    <path d="M 355.007656 125.798711 
L 355.007656 9.72 
" style="fill:none;stroke:#ffffff;stroke-linecap:square;stroke-linejoin:miter;stroke-width:2;"/>
   </g>
   <g id="patch_8">
    <path d="M 638.28 125.798711 
L 638.28 9.72 
" style="fill:none;stroke:#ffffff;stroke-linecap:square;stroke-linejoin:miter;stroke-width:2;"/>
   </g>
   <g id="patch_9">
    <path d="M 355.007656 125.798711 
L 638.28 125.798711 
" style="fill:none;stroke:#ffffff;stroke-linecap:square;stroke-linejoin:miter;stroke-width:2;"/>
   </g>
   <g id="patch_10">
    <path d="M 355.007656 9.72 
L 638.28 9.72 
" style="fill:none;stroke:#ffffff;stroke-linecap:square;stroke-linejoin:miter;stroke-width:2;"/>
   </g>
  </g>
  <g id="axes_3">
   <g id="patch_11">
    <path d="M 33.491094 266.549219 
L 316.763438 266.549219 
L 316.763438 150.470508 
L 33.491094 150.470508 
z
" style="fill:#ffffff;"/>
   </g>
   <g id="matplotlib.axis_5">
    <g id="xtick_19">
     <g id="line2d_62">
      <path clip-path="url(#p379a43f155)" d="M 46.367109 266.549219 
L 46.367109 150.470508 
" style="fill:none;stroke:#cbcbcb;"/>
     </g>
     <g id="line2d_63"/>
     <g id="text_27">
      <text style="font-family:Arial;font-size:9px;font-stretch:normal;font-style:normal;font-weight:normal;text-anchor:middle;" transform="rotate(-0, 46.367109, 276.49125)" x="46.367109" y="276.49125">0.00</text>
     </g>
    </g>
    <g id="xtick_20">
     <g id="line2d_64">
      <path clip-path="url(#p379a43f155)" d="M 78.964617 266.549219 
L 78.964617 150.470508 
" style="fill:none;stroke:#cbcbcb;"/>
     </g>
     <g id="line2d_65"/>
     <g id="text_28">
      <text style="font-family:Arial;font-size:9px;font-stretch:normal;font-style:normal;font-weight:normal;text-anchor:middle;" transform="rotate(-0, 78.964617, 276.49125)" x="78.964617" y="276.49125">0.01</text>
     </g>
    </g>
    <g id="xtick_21">
     <g id="line2d_66">
      <path clip-path="url(#p379a43f155)" d="M 111.562125 266.549219 
L 111.562125 150.470508 
" style="fill:none;stroke:#cbcbcb;"/>
     </g>
     <g id="line2d_67"/>
     <g id="text_29">
      <text style="font-family:Arial;font-size:9px;font-stretch:normal;font-style:normal;font-weight:normal;text-anchor:middle;" transform="rotate(-0, 111.562125, 276.49125)" x="111.562125" y="276.49125">0.02</text>
     </g>
    </g>
    <g id="xtick_22">
     <g id="line2d_68">
      <path clip-path="url(#p379a43f155)" d="M 144.159633 266.549219 
L 144.159633 150.470508 
" style="fill:none;stroke:#cbcbcb;"/>
     </g>
     <g id="line2d_69"/>
     <g id="text_30">
      <text style="font-family:Arial;font-size:9px;font-stretch:normal;font-style:normal;font-weight:normal;text-anchor:middle;" transform="rotate(-0, 144.159633, 276.49125)" x="144.159633" y="276.49125">0.03</text>
     </g>
    </g>
    <g id="xtick_23">
     <g id="line2d_70">
      <path clip-path="url(#p379a43f155)" d="M 176.757141 266.549219 
L 176.757141 150.470508 
" style="fill:none;stroke:#cbcbcb;"/>
     </g>
     <g id="line2d_71"/>
     <g id="text_31">
      <text style="font-family:Arial;font-size:9px;font-stretch:normal;font-style:normal;font-weight:normal;text-anchor:middle;" transform="rotate(-0, 176.757141, 276.49125)" x="176.757141" y="276.49125">0.04</text>
     </g>
    </g>
    <g id="xtick_24">
     <g id="line2d_72">
      <path clip-path="url(#p379a43f155)" d="M 209.354649 266.549219 
L 209.354649 150.470508 
" style="fill:none;stroke:#cbcbcb;"/>
     </g>
     <g id="line2d_73"/>
     <g id="text_32">
      <text style="font-family:Arial;font-size:9px;font-stretch:normal;font-style:normal;font-weight:normal;text-anchor:middle;" transform="rotate(-0, 209.354649, 276.49125)" x="209.354649" y="276.49125">0.05</text>
     </g>
    </g>
    <g id="xtick_25">
     <g id="line2d_74">
      <path clip-path="url(#p379a43f155)" d="M 241.952157 266.549219 
L 241.952157 150.470508 
" style="fill:none;stroke:#cbcbcb;"/>
     </g>
     <g id="line2d_75"/>
     <g id="text_33">
      <text style="font-family:Arial;font-size:9px;font-stretch:normal;font-style:normal;font-weight:normal;text-anchor:middle;" transform="rotate(-0, 241.952157, 276.49125)" x="241.952157" y="276.49125">0.06</text>
     </g>
    </g>
    <g id="xtick_26">
     <g id="line2d_76">
      <path clip-path="url(#p379a43f155)" d="M 274.549665 266.549219 
L 274.549665 150.470508 
" style="fill:none;stroke:#cbcbcb;"/>
     </g>
     <g id="line2d_77"/>
     <g id="text_34">
      <text style="font-family:Arial;font-size:9px;font-stretch:normal;font-style:normal;font-weight:normal;text-anchor:middle;" transform="rotate(-0, 274.549665, 276.49125)" x="274.549665" y="276.49125">0.07</text>
     </g>
    </g>
    <g id="xtick_27">
     <g id="line2d_78">
      <path clip-path="url(#p379a43f155)" d="M 307.147173 266.549219 
L 307.147173 150.470508 
" style="fill:none;stroke:#cbcbcb;"/>
     </g>
     <g id="line2d_79"/>
     <g id="text_35">
      <text style="font-family:Arial;font-size:9px;font-stretch:normal;font-style:normal;font-weight:normal;text-anchor:middle;" transform="rotate(-0, 307.147173, 276.49125)" x="307.147173" y="276.49125">0.08</text>
     </g>
    </g>
   </g>
   <g id="matplotlib.axis_6">
    <g id="ytick_9">
     <g id="line2d_80">
      <path clip-path="url(#p379a43f155)" d="M 33.491094 266.549219 
L 316.763438 266.549219 
" style="fill:none;stroke:#cbcbcb;"/>
     </g>
     <g id="line2d_81"/>
     <g id="text_36">
      <text style="font-family:Arial;font-size:9px;font-stretch:normal;font-style:normal;font-weight:normal;text-anchor:end;" transform="rotate(-0, 29.991094, 269.770234)" x="29.991094" y="269.770234">315</text>
     </g>
    </g>
    <g id="ytick_10">
     <g id="line2d_82">
      <path clip-path="url(#p379a43f155)" d="M 33.491094 237.529541 
L 316.763438 237.529541 
" style="fill:none;stroke:#cbcbcb;"/>
     </g>
     <g id="line2d_83"/>
     <g id="text_37">
      <text style="font-family:Arial;font-size:9px;font-stretch:normal;font-style:normal;font-weight:normal;text-anchor:end;" transform="rotate(-0, 29.991094, 240.750557)" x="29.991094" y="240.750557">320</text>
     </g>
    </g>
    <g id="ytick_11">
     <g id="line2d_84">
      <path clip-path="url(#p379a43f155)" d="M 33.491094 208.509863 
L 316.763438 208.509863 
" style="fill:none;stroke:#cbcbcb;"/>
     </g>
     <g id="line2d_85"/>
     <g id="text_38">
      <text style="font-family:Arial;font-size:9px;font-stretch:normal;font-style:normal;font-weight:normal;text-anchor:end;" transform="rotate(-0, 29.991094, 211.730879)" x="29.991094" y="211.730879">325</text>
     </g>
    </g>
    <g id="ytick_12">
     <g id="line2d_86">
      <path clip-path="url(#p379a43f155)" d="M 33.491094 179.490186 
L 316.763438 179.490186 
" style="fill:none;stroke:#cbcbcb;"/>
     </g>
     <g id="line2d_87"/>
     <g id="text_39">
      <text style="font-family:Arial;font-size:9px;font-stretch:normal;font-style:normal;font-weight:normal;text-anchor:end;" transform="rotate(-0, 29.991094, 182.711201)" x="29.991094" y="182.711201">330</text>
     </g>
    </g>
    <g id="ytick_13">
     <g id="line2d_88">
      <path clip-path="url(#p379a43f155)" d="M 33.491094 150.470508 
L 316.763438 150.470508 
" style="fill:none;stroke:#cbcbcb;"/>
     </g>
     <g id="line2d_89"/>
     <g id="text_40">
      <text style="font-family:Arial;font-size:9px;font-stretch:normal;font-style:normal;font-weight:normal;text-anchor:end;" transform="rotate(-0, 29.991094, 153.691523)" x="29.991094" y="153.691523">335</text>
     </g>
    </g>
   </g>
   <g id="line2d_90">
    <path clip-path="url(#p379a43f155)" d="M 46.367109 199.231504 
L 46.693084 200.166847 
L 47.01906 202.971954 
L 47.345035 207.644055 
L 47.996985 222.568961 
L 48.648935 244.882664 
L 49.300885 274.497102 
L 49.570885 289 
M 108.35835 289 
L 109.2803 244.882664 
L 109.93225 222.568961 
L 110.5842 207.644055 
L 110.910175 202.971954 
L 111.23615 200.166847 
L 111.562125 199.231504 
L 111.8881 200.166847 
L 112.214075 202.971954 
L 112.54005 207.644055 
L 113.192001 222.568961 
L 113.843951 244.882664 
L 114.495901 274.497102 
L 114.765901 289 
M 173.553366 289 
L 174.475315 244.882664 
L 175.127266 222.568961 
L 175.779216 207.644055 
L 176.105191 202.971954 
L 176.431166 200.166847 
L 176.757141 199.231504 
L 177.083116 197.79857 
L 177.409091 198.242411 
L 177.735066 200.567262 
L 178.061041 204.775489 
L 178.712991 218.842173 
L 179.364942 240.423876 
L 180.016892 269.471909 
L 180.342838 289 
M 238.36646 289 
L 239.344356 235.833863 
L 239.996306 209.532264 
L 240.648257 190.670911 
L 241.300207 179.324242 
L 241.626182 176.484071 
L 241.952157 175.537036 
L 242.278132 176.484071 
L 242.604107 179.324242 
L 242.930082 184.054744 
L 243.582032 199.166212 
L 244.233982 221.758836 
L 244.885933 251.743455 
L 245.537854 289 
M 303.561476 289 
L 303.887422 269.471909 
L 303.887422 269.471909 
" style="fill:none;stroke:#d9524f;stroke-width:3;"/>
   </g>
   <g id="line2d_91">
    <path clip-path="url(#p379a43f155)" d="M 86.628402 289 
L 87.439969 249.314211 
L 88.09192 225.77682 
L 88.74387 209.615566 
L 89.069845 204.322067 
L 89.39582 200.89423 
L 89.721795 199.335439 
L 90.04777 199.647231 
L 90.373745 201.8293 
L 90.69972 205.879491 
L 91.35167 219.566413 
L 92.00362 240.653981 
L 92.655571 269.058974 
L 93.034343 289 
M 151.823417 289 
L 152.634985 249.314211 
L 153.286935 225.77682 
L 153.938885 209.615566 
L 154.264861 204.322067 
L 154.590836 200.89423 
L 154.916811 199.335439 
L 155.242786 199.647231 
L 155.568761 201.8293 
L 155.894736 205.879491 
L 156.546686 219.566413 
L 157.198636 240.653981 
L 157.850586 269.058974 
L 158.229359 289 
M 216.637998 289 
L 217.504026 240.933958 
L 218.155976 213.401622 
L 218.807926 193.294261 
L 219.459876 180.691231 
L 219.785851 177.220546 
L 220.111827 175.64227 
L 220.437802 175.95796 
L 220.763777 178.167304 
L 221.089752 182.268123 
L 221.741702 196.126132 
L 222.393652 217.477295 
L 223.045602 246.237349 
L 223.803072 289 
M 281.833014 289 
L 282.699042 240.933958 
L 283.350992 213.401622 
L 284.002942 193.294261 
L 284.654892 180.691231 
L 284.980867 177.220546 
L 285.306842 175.64227 
L 285.632817 175.95796 
L 285.958793 178.167304 
L 286.284768 182.268123 
L 286.936718 196.126132 
L 287.588668 217.477295 
L 288.240618 246.237349 
L 288.998088 289 
L 288.998088 289 
" style="fill:none;stroke:#5cb85c;stroke-width:3;"/>
   </g>
   <g id="line2d_92">
    <path clip-path="url(#p379a43f155)" d="M 64.894892 289 
L 65.599639 253.948134 
L 66.251589 229.189636 
L 66.903539 211.793807 
L 67.55549 201.8293 
L 67.881465 199.647231 
L 68.20744 199.335439 
L 68.533415 200.89423 
L 68.85939 204.322067 
L 69.185365 209.615566 
L 69.837315 225.77682 
L 70.489265 249.314211 
L 71.300833 289 
M 130.089907 289 
L 130.794655 253.948134 
L 131.446605 229.189636 
L 132.098555 211.793807 
L 132.750505 201.8293 
L 133.07648 199.647231 
L 133.402455 199.335439 
L 133.728431 200.89423 
L 134.054406 204.322067 
L 134.380381 209.615566 
L 135.032331 225.77682 
L 135.684281 249.314211 
L 136.495849 289 
M 194.906226 289 
L 195.663696 246.237349 
L 196.315646 217.477295 
L 196.967596 196.126132 
L 197.619546 182.268123 
L 197.945521 178.167304 
L 198.271496 175.95796 
L 198.597471 175.64227 
L 198.923446 177.220546 
L 199.249421 180.691231 
L 199.575397 186.050899 
L 200.227347 202.414169 
L 200.879297 226.245777 
L 201.531247 257.451671 
L 202.071299 289 
M 260.101242 289 
L 260.858711 246.237349 
L 261.510662 217.477295 
L 262.162612 196.126132 
L 262.814562 182.268123 
L 263.140537 178.167304 
L 263.466512 175.95796 
L 263.792487 175.64227 
L 264.118462 177.220546 
L 264.444437 180.691231 
L 264.770412 186.050899 
L 265.422363 202.414169 
L 266.074313 226.245777 
L 266.726263 257.451671 
L 267.266315 289 
L 267.266315 289 
" style="fill:none;stroke:#337ab7;stroke-width:3;"/>
   </g>
   <g id="line2d_93">
    <path clip-path="url(#p379a43f155)" d="M 46.367109 199.231504 
L 46.693084 200.166847 
L 47.01906 202.971954 
L 47.345035 207.644055 
L 47.996985 222.568961 
L 48.648935 244.882664 
L 49.300885 274.497102 
L 49.570885 289 
M 108.35835 289 
L 109.2803 244.882664 
L 109.93225 222.568961 
L 110.5842 207.644055 
L 110.910175 202.971954 
L 111.23615 200.166847 
L 111.562125 199.231504 
L 111.8881 200.166847 
L 112.214075 202.971954 
L 112.54005 207.644055 
L 113.192001 222.568961 
L 113.843951 244.882664 
L 114.495901 274.497102 
L 114.765901 289 
M 173.553366 289 
L 174.475315 244.882664 
L 175.127266 222.568961 
L 175.779216 207.644055 
L 176.105191 202.971954 
L 176.431166 200.166847 
L 176.757141 199.231504 
L 177.083116 200.166847 
L 177.409091 202.971954 
L 177.735066 207.644055 
L 178.387016 222.568961 
L 179.038967 244.882664 
L 179.690917 274.497102 
L 179.960916 289 
M 238.748381 289 
L 239.670331 244.882664 
L 240.322281 222.568961 
L 240.974232 207.644055 
L 241.300207 202.971954 
L 241.626182 200.166847 
L 241.952157 199.231504 
L 242.278132 200.166847 
L 242.604107 202.971954 
L 242.930082 207.644055 
L 243.582032 222.568961 
L 244.233982 244.882664 
L 244.885933 274.497102 
L 245.155932 289 
L 245.155932 289 
" style="fill:none;stroke:#f0ad4e;stroke-width:3;"/>
   </g>
   <g id="line2d_94">
    <path clip-path="url(#p379a43f155)" d="M 86.628402 289 
L 87.439969 249.314211 
L 88.09192 225.77682 
L 88.74387 209.615566 
L 89.069845 204.322067 
L 89.39582 200.89423 
L 89.721795 199.335439 
L 90.04777 199.647231 
L 90.373745 201.8293 
L 90.69972 205.879491 
L 91.35167 219.566413 
L 92.00362 240.653981 
L 92.655571 269.058974 
L 93.034343 289 
M 151.823417 289 
L 152.634985 249.314211 
L 153.286935 225.77682 
L 153.938885 209.615566 
L 154.264861 204.322067 
L 154.590836 200.89423 
L 154.916811 199.335439 
L 155.242786 199.647231 
L 155.568761 201.8293 
L 155.894736 205.879491 
L 156.546686 219.566413 
L 157.198636 240.653981 
L 157.850586 269.058974 
L 158.229359 289 
M 217.018433 289 
L 217.830001 249.314211 
L 218.481951 225.77682 
L 219.133901 209.615566 
L 219.459876 204.322067 
L 219.785851 200.89423 
L 220.111827 199.335439 
L 220.437802 199.647231 
L 220.763777 201.8293 
L 221.089752 205.879491 
L 221.741702 219.566413 
L 222.393652 240.653981 
L 223.045602 269.058974 
L 223.424375 289 
M 282.213449 289 
L 283.025017 249.314211 
L 283.676967 225.77682 
L 284.328917 209.615566 
L 284.654892 204.322067 
L 284.980867 200.89423 
L 285.306842 199.335439 
L 285.632817 199.647231 
L 285.958793 201.8293 
L 286.284768 205.879491 
L 286.936718 219.566413 
L 287.588668 240.653981 
L 288.240618 269.058974 
L 288.61939 289 
L 288.61939 289 
" style="fill:none;stroke:#5bc0de;stroke-width:3;"/>
   </g>
   <g id="line2d_95">
    <path clip-path="url(#p379a43f155)" d="M 64.894892 289 
L 65.599639 253.948134 
L 66.251589 229.189636 
L 66.903539 211.793807 
L 67.55549 201.8293 
L 67.881465 199.647231 
L 68.20744 199.335439 
L 68.533415 200.89423 
L 68.85939 204.322067 
L 69.185365 209.615566 
L 69.837315 225.77682 
L 70.489265 249.314211 
L 71.300833 289 
M 130.089907 289 
L 130.794655 253.948134 
L 131.446605 229.189636 
L 132.098555 211.793807 
L 132.750505 201.8293 
L 133.07648 199.647231 
L 133.402455 199.335439 
L 133.728431 200.89423 
L 134.054406 204.322067 
L 134.380381 209.615566 
L 135.032331 225.77682 
L 135.684281 249.314211 
L 136.495849 289 
M 195.284923 289 
L 195.989671 253.948134 
L 196.641621 229.189636 
L 197.293571 211.793807 
L 197.945521 201.8293 
L 198.271496 199.647231 
L 198.597471 199.335439 
L 198.923446 200.89423 
L 199.249421 204.322067 
L 199.575397 209.615566 
L 200.227347 225.77682 
L 200.879297 249.314211 
L 201.690865 289 
M 260.479939 289 
L 261.184687 253.948134 
L 261.836637 229.189636 
L 262.488587 211.793807 
L 263.140537 201.8293 
L 263.466512 199.647231 
L 263.792487 199.335439 
L 264.118462 200.89423 
L 264.444437 204.322067 
L 264.770412 209.615566 
L 265.422363 225.77682 
L 266.074313 249.314211 
L 266.88588 289 
L 266.88588 289 
" style="fill:none;stroke:#5e4485;stroke-width:3;"/>
   </g>
   <g id="patch_12">
    <path d="M 33.491094 266.549219 
L 33.491094 150.470508 
" style="fill:none;stroke:#ffffff;stroke-linecap:square;stroke-linejoin:miter;stroke-width:2;"/>
   </g>
   <g id="patch_13">
    <path d="M 316.763438 266.549219 
L 316.763438 150.470508 
" style="fill:none;stroke:#ffffff;stroke-linecap:square;stroke-linejoin:miter;stroke-width:2;"/>
   </g>
   <g id="patch_14">
    <path d="M 33.491094 266.549219 
L 316.763438 266.549219 
" style="fill:none;stroke:#ffffff;stroke-linecap:square;stroke-linejoin:miter;stroke-width:2;"/>
   </g>
   <g id="patch_15">
    <path d="M 33.491094 150.470508 
L 316.763438 150.470508 
" style="fill:none;stroke:#ffffff;stroke-linecap:square;stroke-linejoin:miter;stroke-width:2;"/>
   </g>
  </g>
  <g id="axes_4">
   <g id="patch_16">
    <path d="M 355.007656 266.549219 
L 638.28 266.549219 
L 638.28 150.470508 
L 355.007656 150.470508 
z
" style="fill:#ffffff;"/>
   </g>
   <g id="matplotlib.axis_7">
    <g id="xtick_28">
     <g id="line2d_96">
      <path clip-path="url(#p2868cdb285)" d="M 367.883672 266.549219 
L 367.883672 150.470508 
" style="fill:none;stroke:#cbcbcb;"/>
     </g>
     <g id="line2d_97"/>
     <g id="text_41">
      <text style="font-family:Arial;font-size:9px;font-stretch:normal;font-style:normal;font-weight:normal;text-anchor:middle;" transform="rotate(-0, 367.883672, 276.49125)" x="367.883672" y="276.49125">0.00</text>
     </g>
    </g>
    <g id="xtick_29">
     <g id="line2d_98">
      <path clip-path="url(#p2868cdb285)" d="M 400.48118 266.549219 
L 400.48118 150.470508 
" style="fill:none;stroke:#cbcbcb;"/>
     </g>
     <g id="line2d_99"/>
     <g id="text_42">
      <text style="font-family:Arial;font-size:9px;font-stretch:normal;font-style:normal;font-weight:normal;text-anchor:middle;" transform="rotate(-0, 400.48118, 276.49125)" x="400.48118" y="276.49125">0.01</text>
     </g>
    </g>
    <g id="xtick_30">
     <g id="line2d_100">
      <path clip-path="url(#p2868cdb285)" d="M 433.078688 266.549219 
L 433.078688 150.470508 
" style="fill:none;stroke:#cbcbcb;"/>
     </g>
     <g id="line2d_101"/>
     <g id="text_43">
      <text style="font-family:Arial;font-size:9px;font-stretch:normal;font-style:normal;font-weight:normal;text-anchor:middle;" transform="rotate(-0, 433.078688, 276.49125)" x="433.078688" y="276.49125">0.02</text>
     </g>
    </g>
    <g id="xtick_31">
     <g id="line2d_102">
      <path clip-path="url(#p2868cdb285)" d="M 465.676196 266.549219 
L 465.676196 150.470508 
" style="fill:none;stroke:#cbcbcb;"/>
     </g>
     <g id="line2d_103"/>
     <g id="text_44">
      <text style="font-family:Arial;font-size:9px;font-stretch:normal;font-style:normal;font-weight:normal;text-anchor:middle;" transform="rotate(-0, 465.676196, 276.49125)" x="465.676196" y="276.49125">0.03</text>
     </g>
    </g>
    <g id="xtick_32">
     <g id="line2d_104">
      <path clip-path="url(#p2868cdb285)" d="M 498.273704 266.549219 
L 498.273704 150.470508 
" style="fill:none;stroke:#cbcbcb;"/>
     </g>
     <g id="line2d_105"/>
     <g id="text_45">
      <text style="font-family:Arial;font-size:9px;font-stretch:normal;font-style:normal;font-weight:normal;text-anchor:middle;" transform="rotate(-0, 498.273704, 276.49125)" x="498.273704" y="276.49125">0.04</text>
     </g>
    </g>
    <g id="xtick_33">
     <g id="line2d_106">
      <path clip-path="url(#p2868cdb285)" d="M 530.871211 266.549219 
L 530.871211 150.470508 
" style="fill:none;stroke:#cbcbcb;"/>
     </g>
     <g id="line2d_107"/>
     <g id="text_46">
      <text style="font-family:Arial;font-size:9px;font-stretch:normal;font-style:normal;font-weight:normal;text-anchor:middle;" transform="rotate(-0, 530.871211, 276.49125)" x="530.871211" y="276.49125">0.05</text>
     </g>
    </g>
    <g id="xtick_34">
     <g id="line2d_108">
      <path clip-path="url(#p2868cdb285)" d="M 563.468719 266.549219 
L 563.468719 150.470508 
" style="fill:none;stroke:#cbcbcb;"/>
     </g>
     <g id="line2d_109"/>
     <g id="text_47">
      <text style="font-family:Arial;font-size:9px;font-stretch:normal;font-style:normal;font-weight:normal;text-anchor:middle;" transform="rotate(-0, 563.468719, 276.49125)" x="563.468719" y="276.49125">0.06</text>
     </g>
    </g>
    <g id="xtick_35">
     <g id="line2d_110">
      <path clip-path="url(#p2868cdb285)" d="M 596.066227 266.549219 
L 596.066227 150.470508 
" style="fill:none;stroke:#cbcbcb;"/>
     </g>
     <g id="line2d_111"/>
     <g id="text_48">
      <text style="font-family:Arial;font-size:9px;font-stretch:normal;font-style:normal;font-weight:normal;text-anchor:middle;" transform="rotate(-0, 596.066227, 276.49125)" x="596.066227" y="276.49125">0.07</text>
     </g>
    </g>
    <g id="xtick_36">
     <g id="line2d_112">
      <path clip-path="url(#p2868cdb285)" d="M 628.663735 266.549219 
L 628.663735 150.470508 
" style="fill:none;stroke:#cbcbcb;"/>
     </g>
     <g id="line2d_113"/>
     <g id="text_49">
      <text style="font-family:Arial;font-size:9px;font-stretch:normal;font-style:normal;font-weight:normal;text-anchor:middle;" transform="rotate(-0, 628.663735, 276.49125)" x="628.663735" y="276.49125">0.08</text>
     </g>
    </g>
   </g>
   <g id="matplotlib.axis_8">
    <g id="ytick_14">
     <g id="line2d_114">
      <path clip-path="url(#p2868cdb285)" d="M 355.007656 257.579995 
L 638.28 257.579995 
" style="fill:none;stroke:#cbcbcb;"/>
     </g>
     <g id="line2d_115"/>
     <g id="text_50">
      <text style="font-family:Arial;font-size:9px;font-stretch:normal;font-style:normal;font-weight:normal;text-anchor:end;" transform="rotate(-0, 351.507656, 260.801011)" x="351.507656" y="260.801011">0</text>
     </g>
    </g>
    <g id="ytick_15">
     <g id="line2d_116">
      <path clip-path="url(#p2868cdb285)" d="M 355.007656 236.929397 
L 638.28 236.929397 
" style="fill:none;stroke:#cbcbcb;"/>
     </g>
     <g id="line2d_117"/>
     <g id="text_51">
      <text style="font-family:Arial;font-size:9px;font-stretch:normal;font-style:normal;font-weight:normal;text-anchor:end;" transform="rotate(-0, 351.507656, 240.150413)" x="351.507656" y="240.150413">10000</text>
     </g>
    </g>
    <g id="ytick_16">
     <g id="line2d_118">
      <path clip-path="url(#p2868cdb285)" d="M 355.007656 216.278799 
L 638.28 216.278799 
" style="fill:none;stroke:#cbcbcb;"/>
     </g>
     <g id="line2d_119"/>
     <g id="text_52">
      <text style="font-family:Arial;font-size:9px;font-stretch:normal;font-style:normal;font-weight:normal;text-anchor:end;" transform="rotate(-0, 351.507656, 219.499815)" x="351.507656" y="219.499815">20000</text>
     </g>
    </g>
    <g id="ytick_17">
     <g id="line2d_120">
      <path clip-path="url(#p2868cdb285)" d="M 355.007656 195.628201 
L 638.28 195.628201 
" style="fill:none;stroke:#cbcbcb;"/>
     </g>
     <g id="line2d_121"/>
     <g id="text_53">
      <text style="font-family:Arial;font-size:9px;font-stretch:normal;font-style:normal;font-weight:normal;text-anchor:end;" transform="rotate(-0, 351.507656, 198.849217)" x="351.507656" y="198.849217">30000</text>
     </g>
    </g>
    <g id="ytick_18">
     <g id="line2d_122">
      <path clip-path="url(#p2868cdb285)" d="M 355.007656 174.977603 
L 638.28 174.977603 
" style="fill:none;stroke:#cbcbcb;"/>
     </g>
     <g id="line2d_123"/>
     <g id="text_54">
      <text style="font-family:Arial;font-size:9px;font-stretch:normal;font-style:normal;font-weight:normal;text-anchor:end;" transform="rotate(-0, 351.507656, 178.198619)" x="351.507656" y="178.198619">40000</text>
     </g>
    </g>
    <g id="ytick_19">
     <g id="line2d_124">
      <path clip-path="url(#p2868cdb285)" d="M 355.007656 154.327005 
L 638.28 154.327005 
" style="fill:none;stroke:#cbcbcb;"/>
     </g>
     <g id="line2d_125"/>
     <g id="text_55">
      <text style="font-family:Arial;font-size:9px;font-stretch:normal;font-style:normal;font-weight:normal;text-anchor:end;" transform="rotate(-0, 351.507656, 157.548021)" x="351.507656" y="157.548021">50000</text>
     </g>
    </g>
   </g>
   <g id="line2d_126">
    <path clip-path="url(#p2868cdb285)" d="M 367.883672 257.579995 
L 498.273704 257.579995 
L 500.555529 207.658383 
L 501.533454 186.616158 
L 502.185404 187.759928 
L 502.837355 189.469478 
L 503.489305 191.717848 
L 504.46723 196.020938 
L 505.445155 201.302292 
L 506.749056 209.538287 
L 509.030881 225.739001 
L 511.312707 241.539342 
L 512.616607 249.210305 
L 513.594532 253.931779 
L 514.572457 257.579995 
L 515.224408 259.350351 
L 515.876358 260.557463 
L 516.528308 261.182296 
L 516.854283 261.272914 
L 517.180258 261.214994 
L 517.506233 261.008767 
L 518.158183 260.155222 
L 518.810134 258.725742 
L 519.462084 256.742869 
L 520.440009 252.801622 
L 521.417934 247.827154 
L 522.721834 239.896389 
L 524.677685 226.258734 
L 527.611461 205.73186 
L 528.915361 198.060897 
L 529.893286 193.339423 
L 530.871211 189.691207 
L 531.523162 187.920852 
L 532.175112 186.713739 
L 532.827062 186.088906 
L 533.153037 185.998288 
L 533.479012 186.056208 
L 533.804987 186.262435 
L 534.456937 187.11598 
L 535.108887 188.54546 
L 535.760838 190.528333 
L 536.738763 194.46958 
L 537.716688 199.444048 
L 539.020588 207.374813 
L 540.976439 221.012468 
L 543.910215 241.539342 
L 545.214115 249.210305 
L 546.19204 253.931779 
L 547.169965 257.579995 
L 547.821916 259.350351 
L 548.473866 260.557463 
L 549.125816 261.182296 
L 549.451791 261.272914 
L 549.777766 261.214994 
L 550.103741 261.008767 
L 550.755691 260.155222 
L 551.407641 258.725742 
L 552.059592 256.742869 
L 553.037517 252.801622 
L 554.015442 247.827154 
L 555.319342 239.896389 
L 557.275193 226.258734 
L 560.208969 205.73186 
L 561.512869 198.060897 
L 562.490794 193.339423 
L 563.468719 189.691207 
L 564.12067 187.920852 
L 564.77262 186.713739 
L 565.42457 186.088906 
L 565.750545 185.998288 
L 566.07652 186.056208 
L 566.402495 186.262435 
L 567.054445 187.11598 
L 567.706395 188.54546 
L 568.358346 190.528333 
L 569.336271 194.46958 
L 570.314196 199.444048 
L 571.618096 207.374813 
L 573.573947 221.012468 
L 576.507723 241.539342 
L 577.811623 249.210305 
L 578.789548 253.931779 
L 579.767473 257.579995 
L 580.419423 259.350351 
L 581.071374 260.557463 
L 581.723324 261.182296 
L 582.049299 261.272914 
L 582.375274 261.214994 
L 582.701249 261.008767 
L 583.353199 260.155222 
L 584.005149 258.725742 
L 584.657099 256.742869 
L 585.635025 252.801622 
L 586.61295 247.827154 
L 587.91685 239.896389 
L 589.872701 226.258734 
L 592.806476 205.73186 
L 594.110377 198.060897 
L 595.088302 193.339423 
L 596.066227 189.691207 
L 596.718177 187.920852 
L 597.370128 186.713739 
L 598.022078 186.088906 
L 598.348053 185.998288 
L 598.674028 186.056208 
L 599.000003 186.262435 
L 599.651953 187.11598 
L 600.303903 188.54546 
L 600.955853 190.528333 
L 601.933779 194.46958 
L 602.911704 199.444048 
L 604.215604 207.374813 
L 606.171455 221.012468 
L 609.10523 241.539342 
L 610.409131 249.210305 
L 611.387056 253.931779 
L 612.364981 257.579995 
L 613.016931 259.350351 
L 613.668882 260.557463 
L 614.320832 261.182296 
L 614.646807 261.272914 
L 614.972782 261.214994 
L 615.298757 261.008767 
L 615.950707 260.155222 
L 616.602657 258.725742 
L 617.254607 256.742869 
L 618.232533 252.801622 
L 619.210458 247.827154 
L 620.514358 239.896389 
L 622.470209 226.258734 
L 625.403984 205.73186 
L 625.403984 205.73186 
" style="fill:none;stroke:#d9524f;stroke-width:3;"/>
   </g>
   <g id="line2d_127">
    <path clip-path="url(#p2868cdb285)" d="M 367.883672 257.579995 
L 498.273704 257.579995 
L 498.599679 257.156104 
L 498.925654 256.431414 
L 499.577604 253.945402 
L 500.229554 249.878607 
L 500.881504 244.032493 
L 501.859429 234.007809 
L 506.42308 202.369287 
L 507.726981 195.314479 
L 508.704906 191.170922 
L 509.356856 189.040051 
L 510.008806 187.454772 
L 510.660757 186.440086 
L 511.312707 186.011996 
L 511.638682 186.020399 
L 511.964657 186.177252 
L 512.616607 186.933249 
L 513.268557 188.268064 
L 513.920507 190.160647 
L 514.898433 193.977751 
L 515.876358 198.845499 
L 517.180258 206.667502 
L 519.136109 220.226725 
L 522.069884 240.842069 
L 523.373785 248.626379 
L 524.35171 253.457421 
L 525.329635 257.23201 
L 525.981585 259.093759 
L 526.633535 260.396312 
L 527.285486 261.119126 
L 527.611461 261.259206 
L 527.937436 261.250803 
L 528.263411 261.09395 
L 528.915361 260.337953 
L 529.567311 259.003138 
L 530.219261 257.110555 
L 531.197187 253.293451 
L 532.175112 248.425703 
L 533.479012 240.6037 
L 535.434863 227.044477 
L 538.368638 206.429133 
L 539.672539 198.644824 
L 540.650464 193.813781 
L 541.628389 190.039192 
L 542.280339 188.177443 
L 542.932289 186.87489 
L 543.58424 186.152076 
L 543.910215 186.011996 
L 544.23619 186.020399 
L 544.562165 186.177252 
L 545.214115 186.933249 
L 545.866065 188.268064 
L 546.518015 190.160647 
L 547.49594 193.977751 
L 548.473866 198.845499 
L 549.777766 206.667502 
L 551.733616 220.226725 
L 554.667392 240.842069 
L 555.971293 248.626379 
L 556.949218 253.457421 
L 557.927143 257.23201 
L 558.579093 259.093759 
L 559.231043 260.396312 
L 559.882993 261.119126 
L 560.208969 261.259206 
L 560.534944 261.250803 
L 560.860919 261.09395 
L 561.512869 260.337953 
L 562.164819 259.003138 
L 562.816769 257.110555 
L 563.794694 253.293451 
L 564.77262 248.425703 
L 566.07652 240.6037 
L 568.03237 227.044477 
L 570.966146 206.429133 
L 572.270046 198.644824 
L 573.247972 193.813781 
L 574.225897 190.039192 
L 574.877847 188.177443 
L 575.529797 186.87489 
L 576.181747 186.152076 
L 576.507723 186.011996 
L 576.833698 186.020399 
L 577.159673 186.177252 
L 577.811623 186.933249 
L 578.463573 188.268064 
L 579.115523 190.160647 
L 580.093448 193.977751 
L 581.071374 198.845499 
L 582.375274 206.667502 
L 584.331124 220.226725 
L 587.2649 240.842069 
L 588.5688 248.626379 
L 589.546726 253.457421 
L 590.524651 257.23201 
L 591.176601 259.093759 
L 591.828551 260.396312 
L 592.480501 261.119126 
L 592.806476 261.259206 
L 593.132452 261.250803 
L 593.458427 261.09395 
L 594.110377 260.337953 
L 594.762327 259.003138 
L 595.414277 257.110555 
L 596.392202 253.293451 
L 597.370128 248.425703 
L 598.674028 240.6037 
L 600.629878 227.044477 
L 603.563654 206.429133 
L 604.867554 198.644824 
L 605.84548 193.813781 
L 606.823405 190.039192 
L 607.475355 188.177443 
L 608.127305 186.87489 
L 608.779255 186.152076 
L 609.10523 186.011996 
L 609.431205 186.020399 
L 609.757181 186.177252 
L 610.409131 186.933249 
L 611.061081 188.268064 
L 611.713031 190.160647 
L 612.690956 193.977751 
L 613.668882 198.845499 
L 614.972782 206.667502 
L 616.928632 220.226725 
L 619.862408 240.842069 
L 621.166308 248.626379 
L 622.144234 253.457421 
L 623.122159 257.23201 
L 623.774109 259.093759 
L 624.426059 260.396312 
L 625.078009 261.119126 
L 625.403984 261.259206 
L 625.403984 261.259206 
" style="fill:none;stroke:#5cb85c;stroke-width:3;"/>
   </g>
   <g id="line2d_128">
    <path clip-path="url(#p2868cdb285)" d="M 367.883672 257.579995 
L 498.273704 257.579995 
L 498.925654 252.357322 
L 499.577604 248.919571 
L 499.903579 247.840795 
L 500.229554 247.166029 
L 500.555529 246.873931 
L 500.881504 246.939852 
L 501.207479 247.33598 
L 501.533454 248.03149 
L 502.51138 252.969982 
L 503.489305 256.869289 
L 504.141255 258.821615 
L 504.793205 260.219037 
L 505.445155 261.039515 
L 505.77113 261.228996 
L 506.097105 261.270112 
L 506.42308 261.162702 
L 506.749056 260.90719 
L 507.401006 259.956473 
L 508.052956 258.432954 
L 508.704906 256.36066 
L 509.682831 252.296999 
L 510.660757 247.217993 
L 511.964657 239.181945 
L 513.920507 225.47184 
L 516.528308 207.133954 
L 517.832208 199.239712 
L 518.810134 194.30122 
L 519.788059 190.401913 
L 520.440009 188.449587 
L 521.091959 187.052166 
L 521.743909 186.231687 
L 522.069884 186.042206 
L 522.395859 186.00109 
L 522.721834 186.1085 
L 523.04781 186.364012 
L 523.69976 187.314729 
L 524.35171 188.838248 
L 525.00366 190.910542 
L 525.981585 194.974203 
L 526.95951 200.053209 
L 528.263411 208.089257 
L 530.219261 221.799362 
L 532.827062 240.137248 
L 534.130962 248.03149 
L 535.108887 252.969982 
L 536.086813 256.869289 
L 536.738763 258.821615 
L 537.390713 260.219037 
L 538.042663 261.039515 
L 538.368638 261.228996 
L 538.694613 261.270112 
L 539.020588 261.162702 
L 539.346563 260.90719 
L 539.998514 259.956473 
L 540.650464 258.432954 
L 541.302414 256.36066 
L 542.280339 252.296999 
L 543.258264 247.217993 
L 544.562165 239.181945 
L 546.518015 225.47184 
L 549.125816 207.133954 
L 550.429716 199.239712 
L 551.407641 194.30122 
L 552.385567 190.401913 
L 553.037517 188.449587 
L 553.689467 187.052166 
L 554.341417 186.231687 
L 554.667392 186.042206 
L 554.993367 186.00109 
L 555.319342 186.1085 
L 555.645317 186.364012 
L 556.297268 187.314729 
L 556.949218 188.838248 
L 557.601168 190.910542 
L 558.579093 194.974203 
L 559.557018 200.053209 
L 560.860919 208.089257 
L 562.816769 221.799362 
L 565.42457 240.137248 
L 566.72847 248.03149 
L 567.706395 252.969982 
L 568.684321 256.869289 
L 569.336271 258.821615 
L 569.988221 260.219037 
L 570.640171 261.039515 
L 570.966146 261.228996 
L 571.292121 261.270112 
L 571.618096 261.162702 
L 571.944071 260.90719 
L 572.596022 259.956473 
L 573.247972 258.432954 
L 573.899922 256.36066 
L 574.877847 252.296999 
L 575.855772 247.217993 
L 577.159673 239.181945 
L 579.115523 225.47184 
L 581.723324 207.133954 
L 583.027224 199.239712 
L 584.005149 194.30122 
L 584.983075 190.401913 
L 585.635025 188.449587 
L 586.286975 187.052166 
L 586.938925 186.231687 
L 587.2649 186.042206 
L 587.590875 186.00109 
L 587.91685 186.1085 
L 588.242825 186.364012 
L 588.894776 187.314729 
L 589.546726 188.838248 
L 590.198676 190.910542 
L 591.176601 194.974203 
L 592.154526 200.053209 
L 593.458427 208.089257 
L 595.414277 221.799362 
L 598.022078 240.137248 
L 599.325978 248.03149 
L 600.303903 252.969982 
L 601.281829 256.869289 
L 601.933779 258.821615 
L 602.585729 260.219037 
L 603.237679 261.039515 
L 603.563654 261.228996 
L 603.889629 261.270112 
L 604.215604 261.162702 
L 604.541579 260.90719 
L 605.193529 259.956473 
L 605.84548 258.432954 
L 606.49743 256.36066 
L 607.475355 252.296999 
L 608.45328 247.217993 
L 609.757181 239.181945 
L 611.713031 225.47184 
L 614.320832 207.133954 
L 615.624732 199.239712 
L 616.602657 194.30122 
L 617.580582 190.401913 
L 618.232533 188.449587 
L 618.884483 187.052166 
L 619.536433 186.231687 
L 619.862408 186.042206 
L 620.188383 186.00109 
L 620.514358 186.1085 
L 620.840333 186.364012 
L 621.492283 187.314729 
L 622.144234 188.838248 
L 622.796184 190.910542 
L 623.774109 194.974203 
L 624.752034 200.053209 
L 625.403984 203.915736 
L 625.403984 203.915736 
" style="fill:none;stroke:#337ab7;stroke-width:3;"/>
   </g>
   <g id="line2d_129">
    <path clip-path="url(#p2868cdb285)" d="M 367.883672 257.579995 
L 498.273704 257.579995 
L 501.533454 155.746813 
L 625.403984 155.746813 
L 625.403984 155.746813 
" style="fill:none;stroke:#f0ad4e;stroke-width:3;"/>
   </g>
   <g id="line2d_130">
    <path clip-path="url(#p2868cdb285)" d="M 367.883672 257.579995 
L 371.143423 257.579995 
L 374.403173 257.579995 
L 377.662924 257.579995 
L 380.922675 257.579995 
L 384.182426 257.579995 
L 387.442177 257.579995 
L 390.701927 257.579995 
L 393.961678 257.579995 
L 397.221429 257.579995 
L 400.48118 257.579995 
L 403.740931 257.579995 
L 407.000681 257.579995 
L 410.260432 257.579995 
L 413.520183 257.579995 
L 416.779934 257.579995 
L 420.039685 257.579995 
L 423.299435 257.579995 
L 426.559186 257.579995 
L 429.818937 257.579995 
L 433.078688 257.579995 
L 436.338438 257.579995 
L 439.598189 257.579995 
L 442.85794 257.579995 
L 446.117691 257.579995 
L 449.377442 257.579995 
L 452.637192 257.579995 
L 455.896943 257.579995 
L 459.156694 257.579995 
L 462.416445 257.579995 
L 465.676196 257.579995 
L 468.935946 257.579995 
L 472.195697 257.579995 
L 475.455448 257.579995 
L 478.715199 257.579995 
L 481.97495 257.579995 
L 485.2347 257.579995 
L 488.494451 257.579995 
L 491.754202 257.579995 
L 495.013953 257.579995 
L 498.273704 257.579995 
L 501.533454 155.746813 
L 504.793205 155.746813 
L 508.052956 155.746813 
L 511.312707 155.746813 
L 514.572457 155.746813 
L 517.832208 155.746813 
L 521.091959 155.746813 
L 524.35171 155.746813 
L 527.611461 155.746813 
L 530.871211 155.746813 
L 534.130962 155.746813 
L 537.390713 155.746813 
L 540.650464 155.746813 
L 543.910215 155.746813 
L 547.169965 155.746813 
L 550.429716 155.746813 
L 553.689467 155.746813 
L 556.949218 155.746813 
L 560.208969 155.746813 
L 563.468719 155.746813 
L 566.72847 155.746813 
L 569.988221 155.746813 
L 573.247972 155.746813 
L 576.507723 155.746813 
L 579.767473 155.746813 
L 583.027224 155.746813 
L 586.286975 155.746813 
L 589.546726 155.746813 
L 592.806476 155.746813 
L 596.066227 155.746813 
L 599.325978 155.746813 
L 602.585729 155.746813 
L 605.84548 155.746813 
L 609.10523 155.746813 
L 612.364981 155.746813 
L 615.624732 155.746813 
L 618.884483 155.746813 
L 622.144234 155.746813 
L 625.403984 155.746813 
" style="fill:none;stroke:#5bc0de;stroke-width:3;"/>
   </g>
   <g id="line2d_131">
    <path clip-path="url(#p2868cdb285)" d="M 367.883672 257.579995 
L 371.143423 257.579995 
L 374.403173 257.579995 
L 377.662924 257.579995 
L 380.922675 257.579995 
L 384.182426 257.579995 
L 387.442177 257.579995 
L 390.701927 257.579995 
L 393.961678 257.579995 
L 397.221429 257.579995 
L 400.48118 257.579995 
L 403.740931 257.579995 
L 407.000681 257.579995 
L 410.260432 257.579995 
L 413.520183 257.579995 
L 416.779934 257.579995 
L 420.039685 257.579995 
L 423.299435 257.579995 
L 426.559186 257.579995 
L 429.818937 257.579995 
L 433.078688 257.579995 
L 436.338438 257.579995 
L 439.598189 257.579995 
L 442.85794 257.579995 
L 446.117691 257.579995 
L 449.377442 257.579995 
L 452.637192 257.579995 
L 455.896943 257.579995 
L 459.156694 257.579995 
L 462.416445 257.579995 
L 465.676196 257.579995 
L 468.935946 257.579995 
L 472.195697 257.579995 
L 475.455448 257.579995 
L 478.715199 257.579995 
L 481.97495 257.579995 
L 485.2347 257.579995 
L 488.494451 257.579995 
L 491.754202 257.579995 
L 495.013953 257.579995 
L 498.273704 257.579995 
L 501.533454 208.797632 
L 504.793205 208.797632 
L 508.052956 208.797632 
L 511.312707 208.797632 
L 514.572457 208.797632 
L 517.832208 208.797632 
L 521.091959 208.797632 
L 524.35171 208.797632 
L 527.611461 208.797632 
L 530.871211 208.797632 
L 534.130962 208.797632 
L 537.390713 208.797632 
L 540.650464 208.797632 
L 543.910215 208.797632 
L 547.169965 208.797632 
L 550.429716 208.797632 
L 553.689467 208.797632 
L 556.949218 208.797632 
L 560.208969 208.797632 
L 563.468719 208.797632 
L 566.72847 208.797632 
L 569.988221 208.797632 
L 573.247972 208.797632 
L 576.507723 208.797632 
L 579.767473 208.797632 
L 583.027224 208.797632 
L 586.286975 208.797632 
L 589.546726 208.797632 
L 592.806476 208.797632 
L 596.066227 208.797632 
L 599.325978 208.797632 
L 602.585729 208.797632 
L 605.84548 208.797632 
L 609.10523 208.797632 
L 612.364981 208.797632 
L 615.624732 208.797632 
L 618.884483 208.797632 
L 622.144234 208.797632 
L 625.403984 208.797632 
" style="fill:none;stroke:#5e4485;stroke-width:3;"/>
   </g>
   <g id="patch_17">
    <path d="M 355.007656 266.549219 
L 355.007656 150.470508 
" style="fill:none;stroke:#ffffff;stroke-linecap:square;stroke-linejoin:miter;stroke-width:2;"/>
   </g>
   <g id="patch_18">
    <path d="M 638.28 266.549219 
L 638.28 150.470508 
" style="fill:none;stroke:#ffffff;stroke-linecap:square;stroke-linejoin:miter;stroke-width:2;"/>
   </g>
   <g id="patch_19">
    <path d="M 355.007656 266.549219 
L 638.28 266.549219 
" style="fill:none;stroke:#ffffff;stroke-linecap:square;stroke-linejoin:miter;stroke-width:2;"/>
   </g>
   <g id="patch_20">
    <path d="M 355.007656 150.470508 
L 638.28 150.470508 
" style="fill:none;stroke:#ffffff;stroke-linecap:square;stroke-linejoin:miter;stroke-width:2;"/>
   </g>
  </g>
 </g>
 <defs>
  <clipPath id="p3d44773428">
   <rect height="116.078711" width="283.272344" x="33.491094" y="9.72"/>
  </clipPath>
  <clipPath id="pcb9c1e76a8">
   <rect height="116.078711" width="283.272344" x="355.007656" y="9.72"/>
  </clipPath>
  <clipPath id="p379a43f155">
   <rect height="116.078711" width="283.272344" x="33.491094" y="150.470508"/>
  </clipPath>
  <clipPath id="p2868cdb285">
   <rect height="116.078711" width="283.272344" x="355.007656" y="150.470508"/>
  </clipPath>
 </defs>
</svg>
