<?xml version="1.0" encoding="utf-8" standalone="no"?>
<!DOCTYPE svg PUBLIC "-//W3C//DTD SVG 1.1//EN"
  "http://www.w3.org/Graphics/SVG/1.1/DTD/svg11.dtd">
<!-- Created with matplotlib (https://matplotlib.org/) -->
<svg height="288pt" version="1.1" viewBox="0 0 648 288" width="648pt" xmlns="http://www.w3.org/2000/svg" xmlns:xlink="http://www.w3.org/1999/xlink">
 <metadata>
  <rdf:RDF xmlns:cc="http://creativecommons.org/ns#" xmlns:dc="http://purl.org/dc/elements/1.1/" xmlns:rdf="http://www.w3.org/1999/02/22-rdf-syntax-ns#">
   <cc:Work>
    <dc:type rdf:resource="http://purl.org/dc/dcmitype/StillImage"/>
    <dc:date>2020-09-10T19:34:45.869083</dc:date>
    <dc:format>image/svg+xml</dc:format>
    <dc:creator>
     <cc:Agent>
      <dc:title>Matplotlib v3.3.1, https://matplotlib.org/</dc:title>
     </cc:Agent>
    </dc:creator>
   </cc:Work>
  </rdf:RDF>
 </metadata>
 <defs>
  <style type="text/css">*{stroke-linecap:butt;stroke-linejoin:round;}</style>
 </defs>
 <g id="figure_1">
  <g id="axes_1">
   <g id="patch_1">
    <path d="M 33.491094 125.798711 
L 316.763438 125.798711 
L 316.763438 9.72 
L 33.491094 9.72 
z
" style="fill:#ffffff;"/>
   </g>
   <g id="matplotlib.axis_1">
    <g id="xtick_1">
     <g id="line2d_1">
      <path clip-path="url(#p5659b35b94)" d="M 46.367109 125.798711 
L 46.367109 9.72 
" style="fill:none;stroke:#cbcbcb;"/>
     </g>
     <g id="line2d_2"/>
     <g id="text_1">
      <text style="font-family:Arial;font-size:9px;font-stretch:normal;font-style:normal;font-weight:normal;text-anchor:middle;" transform="rotate(-0, 46.367109, 135.740742)" x="46.367109" y="135.740742">0.00</text>
     </g>
    </g>
    <g id="xtick_2">
     <g id="line2d_3">
      <path clip-path="url(#p5659b35b94)" d="M 78.964617 125.798711 
L 78.964617 9.72 
" style="fill:none;stroke:#cbcbcb;"/>
     </g>
     <g id="line2d_4"/>
     <g id="text_2">
      <text style="font-family:Arial;font-size:9px;font-stretch:normal;font-style:normal;font-weight:normal;text-anchor:middle;" transform="rotate(-0, 78.964617, 135.740742)" x="78.964617" y="135.740742">0.01</text>
     </g>
    </g>
    <g id="xtick_3">
     <g id="line2d_5">
      <path clip-path="url(#p5659b35b94)" d="M 111.562125 125.798711 
L 111.562125 9.72 
" style="fill:none;stroke:#cbcbcb;"/>
     </g>
     <g id="line2d_6"/>
     <g id="text_3">
      <text style="font-family:Arial;font-size:9px;font-stretch:normal;font-style:normal;font-weight:normal;text-anchor:middle;" transform="rotate(-0, 111.562125, 135.740742)" x="111.562125" y="135.740742">0.02</text>
     </g>
    </g>
    <g id="xtick_4">
     <g id="line2d_7">
      <path clip-path="url(#p5659b35b94)" d="M 144.159633 125.798711 
L 144.159633 9.72 
" style="fill:none;stroke:#cbcbcb;"/>
     </g>
     <g id="line2d_8"/>
     <g id="text_4">
      <text style="font-family:Arial;font-size:9px;font-stretch:normal;font-style:normal;font-weight:normal;text-anchor:middle;" transform="rotate(-0, 144.159633, 135.740742)" x="144.159633" y="135.740742">0.03</text>
     </g>
    </g>
    <g id="xtick_5">
     <g id="line2d_9">
      <path clip-path="url(#p5659b35b94)" d="M 176.757141 125.798711 
L 176.757141 9.72 
" style="fill:none;stroke:#cbcbcb;"/>
     </g>
     <g id="line2d_10"/>
     <g id="text_5">
      <text style="font-family:Arial;font-size:9px;font-stretch:normal;font-style:normal;font-weight:normal;text-anchor:middle;" transform="rotate(-0, 176.757141, 135.740742)" x="176.757141" y="135.740742">0.04</text>
     </g>
    </g>
    <g id="xtick_6">
     <g id="line2d_11">
      <path clip-path="url(#p5659b35b94)" d="M 209.354649 125.798711 
L 209.354649 9.72 
" style="fill:none;stroke:#cbcbcb;"/>
     </g>
     <g id="line2d_12"/>
     <g id="text_6">
      <text style="font-family:Arial;font-size:9px;font-stretch:normal;font-style:normal;font-weight:normal;text-anchor:middle;" transform="rotate(-0, 209.354649, 135.740742)" x="209.354649" y="135.740742">0.05</text>
     </g>
    </g>
    <g id="xtick_7">
     <g id="line2d_13">
      <path clip-path="url(#p5659b35b94)" d="M 241.952157 125.798711 
L 241.952157 9.72 
" style="fill:none;stroke:#cbcbcb;"/>
     </g>
     <g id="line2d_14"/>
     <g id="text_7">
      <text style="font-family:Arial;font-size:9px;font-stretch:normal;font-style:normal;font-weight:normal;text-anchor:middle;" transform="rotate(-0, 241.952157, 135.740742)" x="241.952157" y="135.740742">0.06</text>
     </g>
    </g>
    <g id="xtick_8">
     <g id="line2d_15">
      <path clip-path="url(#p5659b35b94)" d="M 274.549665 125.798711 
L 274.549665 9.72 
" style="fill:none;stroke:#cbcbcb;"/>
     </g>
     <g id="line2d_16"/>
     <g id="text_8">
      <text style="font-family:Arial;font-size:9px;font-stretch:normal;font-style:normal;font-weight:normal;text-anchor:middle;" transform="rotate(-0, 274.549665, 135.740742)" x="274.549665" y="135.740742">0.07</text>
     </g>
    </g>
    <g id="xtick_9">
     <g id="line2d_17">
      <path clip-path="url(#p5659b35b94)" d="M 307.147173 125.798711 
L 307.147173 9.72 
" style="fill:none;stroke:#cbcbcb;"/>
     </g>
     <g id="line2d_18"/>
     <g id="text_9">
      <text style="font-family:Arial;font-size:9px;font-stretch:normal;font-style:normal;font-weight:normal;text-anchor:middle;" transform="rotate(-0, 307.147173, 135.740742)" x="307.147173" y="135.740742">0.08</text>
     </g>
    </g>
   </g>
   <g id="matplotlib.axis_2">
    <g id="ytick_1">
     <g id="line2d_19">
      <path clip-path="url(#p5659b35b94)" d="M 33.491094 99.671096 
L 316.763438 99.671096 
" style="fill:none;stroke:#cbcbcb;"/>
     </g>
     <g id="line2d_20"/>
     <g id="text_10">
      <text style="font-family:Arial;font-size:9px;font-stretch:normal;font-style:normal;font-weight:normal;text-anchor:end;" transform="rotate(-0, 29.991094, 102.892112)" x="29.991094" y="102.892112">−200</text>
     </g>
    </g>
    <g id="ytick_2">
     <g id="line2d_21">
      <path clip-path="url(#p5659b35b94)" d="M 33.491094 67.759355 
L 316.763438 67.759355 
" style="fill:none;stroke:#cbcbcb;"/>
     </g>
     <g id="line2d_22"/>
     <g id="text_11">
      <text style="font-family:Arial;font-size:9px;font-stretch:normal;font-style:normal;font-weight:normal;text-anchor:end;" transform="rotate(-0, 29.991094, 70.980371)" x="29.991094" y="70.980371">0</text>
     </g>
    </g>
    <g id="ytick_3">
     <g id="line2d_23">
      <path clip-path="url(#p5659b35b94)" d="M 33.491094 35.847615 
L 316.763438 35.847615 
" style="fill:none;stroke:#cbcbcb;"/>
     </g>
     <g id="line2d_24"/>
     <g id="text_12">
      <text style="font-family:Arial;font-size:9px;font-stretch:normal;font-style:normal;font-weight:normal;text-anchor:end;" transform="rotate(-0, 29.991094, 39.06863)" x="29.991094" y="39.06863">200</text>
     </g>
    </g>
   </g>
   <g id="line2d_25">
    <path clip-path="url(#p5659b35b94)" d="M 46.367109 15.647701 
L 47.01906 15.750531 
L 47.67101 16.058617 
L 48.32296 16.570741 
L 49.300885 17.716862 
L 50.27881 19.307164 
L 51.256736 21.327531 
L 52.560636 24.658818 
L 53.864536 28.669826 
L 55.494412 34.542137 
L 57.450262 42.654374 
L 59.732088 53.220667 
L 63.969764 74.290678 
L 67.229514 89.947419 
L 69.185365 98.389818 
L 70.81524 104.60786 
L 72.445116 109.91857 
L 73.749016 113.425147 
L 75.052916 116.211547 
L 76.030842 117.801848 
L 77.008767 118.94797 
L 77.660717 119.460094 
L 78.312667 119.76818 
L 78.964617 119.87101 
L 79.616567 119.76818 
L 80.268518 119.460094 
L 80.920468 118.94797 
L 81.898393 117.801848 
L 82.876318 116.211547 
L 83.854243 114.19118 
L 85.158144 110.859893 
L 86.462044 106.848885 
L 88.09192 100.976574 
L 90.04777 92.864337 
L 92.329596 82.298044 
L 96.567272 61.228033 
L 99.827022 45.571292 
L 101.782873 37.128893 
L 103.412748 30.910851 
L 105.042624 25.600141 
L 106.346524 22.093564 
L 107.650424 19.307164 
L 108.628349 17.716862 
L 109.606275 16.570741 
L 110.258225 16.058617 
L 110.910175 15.750531 
L 111.562125 15.647701 
L 112.214075 15.750531 
L 112.866026 16.058617 
L 113.517976 16.570741 
L 114.495901 17.716862 
L 115.473826 19.307164 
L 116.451751 21.327531 
L 117.755652 24.658818 
L 119.059552 28.669826 
L 120.689427 34.542137 
L 122.645278 42.654374 
L 124.927103 53.220667 
L 129.164779 74.290678 
L 132.42453 89.947419 
L 134.380381 98.389818 
L 136.010256 104.60786 
L 137.640132 109.91857 
L 138.944032 113.425147 
L 140.247932 116.211547 
L 141.225857 117.801848 
L 142.203783 118.94797 
L 142.855733 119.460094 
L 143.507683 119.76818 
L 144.159633 119.87101 
L 144.811583 119.76818 
L 145.463533 119.460094 
L 146.115484 118.94797 
L 147.093409 117.801848 
L 148.071334 116.211547 
L 149.049259 114.19118 
L 150.35316 110.859893 
L 151.65706 106.848885 
L 153.286935 100.976574 
L 155.242786 92.864337 
L 157.524611 82.298044 
L 161.762287 61.228033 
L 165.022038 45.571292 
L 166.977889 37.128893 
L 168.607764 30.910851 
L 170.237639 25.600141 
L 171.54154 22.093564 
L 172.84544 19.307164 
L 173.823365 17.716862 
L 174.801291 16.570741 
L 175.453241 16.058617 
L 176.105191 15.750531 
L 177.083116 15.608307 
L 177.735066 15.684423 
L 178.387016 15.967594 
L 179.038967 16.457723 
L 180.016892 17.578713 
L 180.994817 19.335822 
L 181.972742 21.522742 
L 183.276643 25.073151 
L 184.580543 29.296747 
L 186.210418 35.42051 
L 188.166269 43.805432 
L 190.448094 54.637718 
L 198.923446 96.031212 
L 200.879297 103.878149 
L 202.509172 109.450344 
L 203.813073 113.17473 
L 205.116973 116.182889 
L 206.094898 117.939998 
L 207.072823 119.251701 
L 208.050749 120.106353 
L 208.702699 120.41829 
L 209.354649 120.522406 
L 210.006599 120.41829 
L 210.658549 120.106353 
L 211.310499 119.587827 
L 212.288425 118.42738 
L 213.26635 116.817199 
L 214.244275 114.771578 
L 215.548175 111.39865 
L 216.852076 107.337504 
L 218.481951 101.39179 
L 220.437802 93.178149 
L 222.719627 82.479777 
L 226.957303 61.146392 
L 230.217054 45.293941 
L 232.172904 36.746013 
L 233.80278 30.450245 
L 235.432655 25.073151 
L 236.736556 21.522742 
L 238.040456 18.701512 
L 239.018381 17.091331 
L 239.996306 15.930884 
L 240.648257 15.412357 
L 241.300207 15.100421 
L 241.952157 14.996305 
L 242.604107 15.100421 
L 243.256057 15.412357 
L 243.908007 15.930884 
L 244.885933 17.091331 
L 245.863858 18.701512 
L 246.841783 20.747133 
L 248.145683 24.120061 
L 249.449584 28.181207 
L 251.079459 34.126921 
L 253.03531 42.340562 
L 255.317135 53.038934 
L 259.554811 74.372319 
L 262.814562 90.22477 
L 264.770412 98.772698 
L 266.400288 105.068466 
L 268.030163 110.44556 
L 269.334063 113.995969 
L 270.637964 116.817199 
L 271.615889 118.42738 
L 272.593814 119.587827 
L 273.245764 120.106353 
L 273.897715 120.41829 
L 274.549665 120.522406 
L 275.201615 120.41829 
L 275.853565 120.106353 
L 276.505515 119.587827 
L 277.48344 118.42738 
L 278.461366 116.817199 
L 279.439291 114.771578 
L 280.743191 111.39865 
L 282.047092 107.337504 
L 283.676967 101.39179 
L 285.632817 93.178149 
L 287.914643 82.479777 
L 292.152319 61.146392 
L 295.41207 45.293941 
L 297.36792 36.746013 
L 298.997796 30.450245 
L 300.627671 25.073151 
L 301.931571 21.522742 
L 303.235472 18.701512 
L 303.887422 17.578713 
L 303.887422 17.578713 
" style="fill:none;stroke:#d9524f;stroke-width:3;"/>
   </g>
   <g id="line2d_26">
    <path clip-path="url(#p5659b35b94)" d="M 46.367109 93.815183 
L 48.32296 101.810184 
L 49.952835 107.56203 
L 51.256736 111.463867 
L 52.560636 114.676456 
L 53.538561 116.602671 
L 54.516486 118.095349 
L 55.494412 119.141241 
L 56.146362 119.585537 
L 56.798312 119.825299 
L 57.450262 119.859581 
L 58.102212 119.688247 
L 58.754162 119.311974 
L 59.406113 118.732246 
L 60.384038 117.486398 
L 61.361963 115.79917 
L 62.339888 113.685537 
L 63.643789 110.237014 
L 64.947689 106.118593 
L 66.577564 100.128394 
L 68.533415 91.902478 
L 70.81524 81.246844 
L 79.616567 38.921206 
L 81.572418 31.298741 
L 83.202293 25.923208 
L 84.506194 22.358962 
L 85.810094 19.510707 
L 86.788019 17.871852 
L 87.765944 16.675802 
L 88.417895 16.129846 
L 89.069845 15.787648 
L 89.721795 15.650558 
L 90.373745 15.719118 
L 91.025695 15.993057 
L 91.677645 16.471294 
L 92.655571 17.56736 
L 93.633496 19.108935 
L 94.611421 21.082333 
L 95.915321 24.354451 
L 97.219222 28.31109 
L 98.849097 34.123487 
L 100.478973 40.764111 
L 102.760798 51.137858 
L 106.020549 67.213653 
L 110.258225 87.953434 
L 112.54005 97.946656 
L 114.169926 104.21997 
L 115.799801 109.595503 
L 117.103702 113.159749 
L 118.407602 116.008004 
L 119.385527 117.646859 
L 120.363452 118.842908 
L 121.015402 119.388865 
L 121.667353 119.731063 
L 122.319303 119.868153 
L 122.971253 119.799593 
L 123.623203 119.525654 
L 124.275153 119.047417 
L 125.253079 117.951351 
L 126.231004 116.409776 
L 127.208929 114.436377 
L 128.512829 111.16426 
L 129.81673 107.20762 
L 131.446605 101.395224 
L 133.07648 94.7546 
L 135.358306 84.380853 
L 138.618057 68.305057 
L 142.855733 47.565277 
L 145.137558 37.572055 
L 146.767434 31.298741 
L 148.397309 25.923208 
L 149.701209 22.358962 
L 151.00511 19.510707 
L 151.983035 17.871852 
L 152.96096 16.675802 
L 153.61291 16.129846 
L 154.264861 15.787648 
L 154.916811 15.650558 
L 155.568761 15.719118 
L 156.220711 15.993057 
L 156.872661 16.471294 
L 157.850586 17.56736 
L 158.828512 19.108935 
L 159.806437 21.082333 
L 161.110337 24.354451 
L 162.414238 28.31109 
L 164.044113 34.123487 
L 165.673988 40.764111 
L 167.955814 51.137858 
L 171.215565 67.213653 
L 175.453241 87.953434 
L 178.061041 99.423549 
L 180.016892 106.969943 
L 181.320792 111.085693 
L 182.624692 114.51816 
L 183.602618 116.611112 
L 184.580543 118.270452 
L 185.558468 119.481453 
L 186.210418 120.034234 
L 186.862368 120.38071 
L 187.514319 120.519513 
L 188.166269 120.450096 
L 188.818219 120.172733 
L 189.470169 119.688518 
L 190.448094 118.578751 
L 191.42602 117.017907 
L 192.403945 115.01984 
L 193.707845 111.706821 
L 195.011745 107.700724 
L 196.641621 101.815672 
L 198.271496 95.092041 
L 200.553322 84.588622 
L 203.813073 68.311879 
L 208.050749 47.312851 
L 210.332574 37.194714 
L 211.96245 30.842983 
L 213.592325 25.400257 
L 214.896225 21.791457 
L 216.200126 18.907599 
L 217.178051 17.248259 
L 218.155976 16.037258 
L 218.807926 15.484477 
L 219.459876 15.138001 
L 220.111827 14.999198 
L 220.763777 15.068615 
L 221.415727 15.345978 
L 222.067677 15.830193 
L 223.045602 16.93996 
L 224.023527 18.500804 
L 225.001453 20.498871 
L 226.305353 23.81189 
L 227.609253 27.817987 
L 229.239129 33.703039 
L 230.869004 40.42667 
L 233.15083 50.930089 
L 236.41058 67.206832 
L 240.648257 88.20586 
L 242.930082 98.323997 
L 244.559957 104.675728 
L 246.189833 110.118454 
L 247.493733 113.727254 
L 248.797634 116.611112 
L 249.775559 118.270452 
L 250.753484 119.481453 
L 251.405434 120.034234 
L 252.057384 120.38071 
L 252.709334 120.519513 
L 253.361285 120.450096 
L 254.013235 120.172733 
L 254.665185 119.688518 
L 255.64311 118.578751 
L 256.621035 117.017907 
L 257.598961 115.01984 
L 258.902861 111.706821 
L 260.206761 107.700724 
L 261.836637 101.815672 
L 263.466512 95.092041 
L 265.748338 84.588622 
L 269.008088 68.311879 
L 273.245764 47.312851 
L 275.52759 37.194714 
L 277.157465 30.842983 
L 278.787341 25.400257 
L 280.091241 21.791457 
L 281.395141 18.907599 
L 282.373067 17.248259 
L 283.350992 16.037258 
L 284.002942 15.484477 
L 284.654892 15.138001 
L 285.306842 14.999198 
L 285.958793 15.068615 
L 286.610743 15.345978 
L 287.262693 15.830193 
L 288.240618 16.93996 
L 289.218543 18.500804 
L 290.196469 20.498871 
L 291.500369 23.81189 
L 292.804269 27.817987 
L 294.434145 33.703039 
L 296.06402 40.42667 
L 298.345846 50.930089 
L 301.605596 67.206832 
L 303.887422 78.72941 
L 303.887422 78.72941 
" style="fill:none;stroke:#5cb85c;stroke-width:3;"/>
   </g>
   <g id="line2d_27">
    <path clip-path="url(#p5659b35b94)" d="M 46.367109 93.815183 
L 48.648935 83.342866 
L 52.234661 65.577146 
L 55.820387 48.069447 
L 58.102212 38.018527 
L 59.732088 31.690629 
L 61.361963 26.250863 
L 62.665863 22.629339 
L 63.969764 19.719541 
L 64.947689 18.032313 
L 65.925614 16.786465 
L 66.903539 15.993057 
L 67.55549 15.719118 
L 68.20744 15.650558 
L 68.85939 15.787648 
L 69.51134 16.129846 
L 70.16329 16.675802 
L 71.141215 17.871852 
L 72.119141 19.510707 
L 73.097066 21.577821 
L 74.400966 24.967911 
L 75.704866 29.032849 
L 77.334742 34.964429 
L 79.290592 43.133953 
L 81.572418 53.745499 
L 86.136069 76.449951 
L 89.069845 90.439968 
L 91.025695 98.82962 
L 92.655571 104.991709 
L 94.285446 110.237014 
L 95.589346 113.685537 
L 96.567272 115.79917 
L 97.545197 117.486398 
L 98.523122 118.732246 
L 99.501047 119.525654 
L 100.152997 119.799593 
L 100.804948 119.868153 
L 101.456898 119.731063 
L 102.108848 119.388865 
L 102.760798 118.842908 
L 103.738723 117.646859 
L 104.716649 116.008004 
L 105.694574 113.94089 
L 106.998474 110.5508 
L 108.302374 106.485862 
L 109.93225 100.554282 
L 111.8881 92.384758 
L 114.169926 81.773212 
L 118.733577 59.06876 
L 121.667353 45.078743 
L 123.623203 36.689091 
L 125.253079 30.527002 
L 126.882954 25.281697 
L 128.186854 21.833174 
L 129.164779 19.719541 
L 130.142705 18.032313 
L 131.12063 16.786465 
L 132.098555 15.993057 
L 132.750505 15.719118 
L 133.402455 15.650558 
L 134.054406 15.787648 
L 134.706356 16.129846 
L 135.358306 16.675802 
L 136.336231 17.871852 
L 137.314156 19.510707 
L 138.292082 21.577821 
L 139.595982 24.967911 
L 140.899882 29.032849 
L 142.529758 34.964429 
L 144.485608 43.133953 
L 146.767434 53.745499 
L 151.331085 76.449951 
L 154.264861 90.439968 
L 156.220711 98.82962 
L 157.850586 104.991709 
L 159.480462 110.237014 
L 160.784362 113.685537 
L 161.762287 115.79917 
L 162.740213 117.486398 
L 163.718138 118.732246 
L 164.696063 119.525654 
L 165.348013 119.799593 
L 165.999963 119.868153 
L 166.651914 119.731063 
L 167.303864 119.388865 
L 167.955814 118.842908 
L 168.933739 117.646859 
L 169.911664 116.008004 
L 170.88959 113.94089 
L 172.19349 110.5508 
L 173.49739 106.485862 
L 175.127266 100.554282 
L 177.083116 92.41554 
L 179.038967 83.479222 
L 181.972742 68.864341 
L 186.210418 47.823323 
L 188.492244 37.646767 
L 190.122119 31.23977 
L 191.751995 25.732007 
L 193.055895 22.065213 
L 194.359795 19.119044 
L 195.337721 17.410725 
L 196.315646 16.149304 
L 197.293571 15.345978 
L 197.945521 15.068615 
L 198.597471 14.999198 
L 199.249421 15.138001 
L 199.901372 15.484477 
L 200.553322 16.037258 
L 201.531247 17.248259 
L 202.509172 18.907599 
L 203.487098 21.000551 
L 204.790998 24.433018 
L 206.094898 28.548768 
L 207.724774 34.554492 
L 209.680624 42.826136 
L 211.96245 53.570325 
L 216.526101 76.558583 
L 219.459876 90.723476 
L 221.415727 99.217999 
L 223.045602 105.457113 
L 224.675478 110.767984 
L 225.979378 114.259614 
L 226.957303 116.399667 
L 227.935228 118.107986 
L 228.913154 119.369407 
L 229.891079 120.172733 
L 230.543029 120.450096 
L 231.194979 120.519513 
L 231.846929 120.38071 
L 232.49888 120.034234 
L 233.15083 119.481453 
L 234.128755 118.270452 
L 235.10668 116.611112 
L 236.084605 114.51816 
L 237.388506 111.085693 
L 238.692406 106.969943 
L 240.322281 100.964219 
L 242.278132 92.692575 
L 244.559957 81.948386 
L 249.123609 58.960128 
L 252.057384 44.795235 
L 254.013235 36.300712 
L 255.64311 30.061597 
L 257.272986 24.750726 
L 258.576886 21.259097 
L 259.554811 19.119044 
L 260.532736 17.410725 
L 261.510662 16.149304 
L 262.488587 15.345978 
L 263.140537 15.068615 
L 263.792487 14.999198 
L 264.444437 15.138001 
L 265.096387 15.484477 
L 265.748338 16.037258 
L 266.726263 17.248259 
L 267.704188 18.907599 
L 268.682113 21.000551 
L 269.986014 24.433018 
L 271.289914 28.548768 
L 272.919789 34.554492 
L 274.87564 42.826136 
L 277.157465 53.570325 
L 281.721116 76.558583 
L 284.654892 90.723476 
L 286.610743 99.217999 
L 288.240618 105.457113 
L 289.870493 110.767984 
L 291.174394 114.259614 
L 292.152319 116.399667 
L 293.130244 118.107986 
L 294.10817 119.369407 
L 295.086095 120.172733 
L 295.738045 120.450096 
L 296.389995 120.519513 
L 297.041945 120.38071 
L 297.693895 120.034234 
L 298.345846 119.481453 
L 299.323771 118.270452 
L 300.301696 116.611112 
L 301.279621 114.51816 
L 302.583522 111.085693 
L 303.887422 106.969943 
L 303.887422 106.969943 
" style="fill:none;stroke:#337ab7;stroke-width:3;"/>
   </g>
   <g id="line2d_28">
    <path clip-path="url(#p5659b35b94)" d="M 46.367109 15.647701 
L 47.01906 15.750531 
L 47.67101 16.058617 
L 48.32296 16.570741 
L 49.300885 17.716862 
L 50.27881 19.307164 
L 51.256736 21.327531 
L 52.560636 24.658818 
L 53.864536 28.669826 
L 55.494412 34.542137 
L 57.450262 42.654374 
L 59.732088 53.220667 
L 63.969764 74.290678 
L 67.229514 89.947419 
L 69.185365 98.389818 
L 70.81524 104.60786 
L 72.445116 109.91857 
L 73.749016 113.425147 
L 75.052916 116.211547 
L 76.030842 117.801848 
L 77.008767 118.94797 
L 77.660717 119.460094 
L 78.312667 119.76818 
L 78.964617 119.87101 
L 79.616567 119.76818 
L 80.268518 119.460094 
L 80.920468 118.94797 
L 81.898393 117.801848 
L 82.876318 116.211547 
L 83.854243 114.19118 
L 85.158144 110.859893 
L 86.462044 106.848885 
L 88.09192 100.976574 
L 90.04777 92.864337 
L 92.329596 82.298044 
L 96.567272 61.228033 
L 99.827022 45.571292 
L 101.782873 37.128893 
L 103.412748 30.910851 
L 105.042624 25.600141 
L 106.346524 22.093564 
L 107.650424 19.307164 
L 108.628349 17.716862 
L 109.606275 16.570741 
L 110.258225 16.058617 
L 110.910175 15.750531 
L 111.562125 15.647701 
L 112.214075 15.750531 
L 112.866026 16.058617 
L 113.517976 16.570741 
L 114.495901 17.716862 
L 115.473826 19.307164 
L 116.451751 21.327531 
L 117.755652 24.658818 
L 119.059552 28.669826 
L 120.689427 34.542137 
L 122.645278 42.654374 
L 124.927103 53.220667 
L 129.164779 74.290678 
L 132.42453 89.947419 
L 134.380381 98.389818 
L 136.010256 104.60786 
L 137.640132 109.91857 
L 138.944032 113.425147 
L 140.247932 116.211547 
L 141.225857 117.801848 
L 142.203783 118.94797 
L 142.855733 119.460094 
L 143.507683 119.76818 
L 144.159633 119.87101 
L 144.811583 119.76818 
L 145.463533 119.460094 
L 146.115484 118.94797 
L 147.093409 117.801848 
L 148.071334 116.211547 
L 149.049259 114.19118 
L 150.35316 110.859893 
L 151.65706 106.848885 
L 153.286935 100.976574 
L 155.242786 92.864337 
L 157.524611 82.298044 
L 161.762287 61.228033 
L 165.022038 45.571292 
L 166.977889 37.128893 
L 168.607764 30.910851 
L 170.237639 25.600141 
L 171.54154 22.093564 
L 172.84544 19.307164 
L 173.823365 17.716862 
L 174.801291 16.570741 
L 175.453241 16.058617 
L 176.105191 15.750531 
L 176.757141 15.647701 
L 177.409091 15.750531 
L 178.061041 16.058617 
L 178.712991 16.570741 
L 179.690917 17.716862 
L 180.668842 19.307164 
L 181.646767 21.327531 
L 182.950668 24.658818 
L 184.254568 28.669826 
L 185.884443 34.542137 
L 187.840294 42.654374 
L 190.122119 53.220667 
L 194.359795 74.290678 
L 197.619546 89.947419 
L 199.575397 98.389818 
L 201.205272 104.60786 
L 202.835147 109.91857 
L 204.139048 113.425147 
L 205.442948 116.211547 
L 206.420873 117.801848 
L 207.398798 118.94797 
L 208.050749 119.460094 
L 208.702699 119.76818 
L 209.354649 119.87101 
L 210.006599 119.76818 
L 210.658549 119.460094 
L 211.310499 118.94797 
L 212.288425 117.801848 
L 213.26635 116.211547 
L 214.244275 114.19118 
L 215.548175 110.859893 
L 216.852076 106.848885 
L 218.481951 100.976574 
L 220.437802 92.864337 
L 222.719627 82.298044 
L 226.957303 61.228033 
L 230.217054 45.571292 
L 232.172904 37.128893 
L 233.80278 30.910851 
L 235.432655 25.600141 
L 236.736556 22.093564 
L 238.040456 19.307164 
L 239.018381 17.716862 
L 239.996306 16.570741 
L 240.648257 16.058617 
L 241.300207 15.750531 
L 241.952157 15.647701 
L 242.604107 15.750531 
L 243.256057 16.058617 
L 243.908007 16.570741 
L 244.885933 17.716862 
L 245.863858 19.307164 
L 246.841783 21.327531 
L 248.145683 24.658818 
L 249.449584 28.669826 
L 251.079459 34.542137 
L 253.03531 42.654374 
L 255.317135 53.220667 
L 259.554811 74.290678 
L 262.814562 89.947419 
L 264.770412 98.389818 
L 266.400288 104.60786 
L 268.030163 109.91857 
L 269.334063 113.425147 
L 270.637964 116.211547 
L 271.615889 117.801848 
L 272.593814 118.94797 
L 273.245764 119.460094 
L 273.897715 119.76818 
L 274.549665 119.87101 
L 275.201615 119.76818 
L 275.853565 119.460094 
L 276.505515 118.94797 
L 277.48344 117.801848 
L 278.461366 116.211547 
L 279.439291 114.19118 
L 280.743191 110.859893 
L 282.047092 106.848885 
L 283.676967 100.976574 
L 285.632817 92.864337 
L 287.914643 82.298044 
L 292.152319 61.228033 
L 295.41207 45.571292 
L 297.36792 37.128893 
L 298.997796 30.910851 
L 300.627671 25.600141 
L 301.931571 22.093564 
L 303.235472 19.307164 
L 303.887422 18.198227 
L 303.887422 18.198227 
" style="fill:none;stroke:#f0ad4e;stroke-width:3;"/>
   </g>
   <g id="line2d_29">
    <path clip-path="url(#p5659b35b94)" d="M 46.367109 93.815183 
L 48.32296 101.810184 
L 49.952835 107.56203 
L 51.256736 111.463867 
L 52.560636 114.676456 
L 53.538561 116.602671 
L 54.516486 118.095349 
L 55.494412 119.141241 
L 56.146362 119.585537 
L 56.798312 119.825299 
L 57.450262 119.859581 
L 58.102212 119.688247 
L 58.754162 119.311974 
L 59.406113 118.732246 
L 60.384038 117.486398 
L 61.361963 115.79917 
L 62.339888 113.685537 
L 63.643789 110.237014 
L 64.947689 106.118593 
L 66.577564 100.128394 
L 68.533415 91.902478 
L 70.81524 81.246844 
L 79.616567 38.921206 
L 81.572418 31.298741 
L 83.202293 25.923208 
L 84.506194 22.358962 
L 85.810094 19.510707 
L 86.788019 17.871852 
L 87.765944 16.675802 
L 88.417895 16.129846 
L 89.069845 15.787648 
L 89.721795 15.650558 
L 90.373745 15.719118 
L 91.025695 15.993057 
L 91.677645 16.471294 
L 92.655571 17.56736 
L 93.633496 19.108935 
L 94.611421 21.082333 
L 95.915321 24.354451 
L 97.219222 28.31109 
L 98.849097 34.123487 
L 100.478973 40.764111 
L 102.760798 51.137858 
L 106.020549 67.213653 
L 110.258225 87.953434 
L 112.54005 97.946656 
L 114.169926 104.21997 
L 115.799801 109.595503 
L 117.103702 113.159749 
L 118.407602 116.008004 
L 119.385527 117.646859 
L 120.363452 118.842908 
L 121.015402 119.388865 
L 121.667353 119.731063 
L 122.319303 119.868153 
L 122.971253 119.799593 
L 123.623203 119.525654 
L 124.275153 119.047417 
L 125.253079 117.951351 
L 126.231004 116.409776 
L 127.208929 114.436377 
L 128.512829 111.16426 
L 129.81673 107.20762 
L 131.446605 101.395224 
L 133.07648 94.7546 
L 135.358306 84.380853 
L 138.618057 68.305057 
L 142.855733 47.565277 
L 145.137558 37.572055 
L 146.767434 31.298741 
L 148.397309 25.923208 
L 149.701209 22.358962 
L 151.00511 19.510707 
L 151.983035 17.871852 
L 152.96096 16.675802 
L 153.61291 16.129846 
L 154.264861 15.787648 
L 154.916811 15.650558 
L 155.568761 15.719118 
L 156.220711 15.993057 
L 156.872661 16.471294 
L 157.850586 17.56736 
L 158.828512 19.108935 
L 159.806437 21.082333 
L 161.110337 24.354451 
L 162.414238 28.31109 
L 164.044113 34.123487 
L 165.673988 40.764111 
L 167.955814 51.137858 
L 171.215565 67.213653 
L 175.453241 87.953434 
L 177.735066 97.946656 
L 179.364942 104.21997 
L 180.994817 109.595503 
L 182.298717 113.159749 
L 183.602618 116.008004 
L 184.580543 117.646859 
L 185.558468 118.842908 
L 186.210418 119.388865 
L 186.862368 119.731063 
L 187.514319 119.868153 
L 188.166269 119.799593 
L 188.818219 119.525654 
L 189.470169 119.047417 
L 190.448094 117.951351 
L 191.42602 116.409776 
L 192.403945 114.436377 
L 193.707845 111.16426 
L 195.011745 107.20762 
L 196.641621 101.395224 
L 198.271496 94.7546 
L 200.553322 84.380853 
L 203.813073 68.305057 
L 208.050749 47.565277 
L 210.332574 37.572055 
L 211.96245 31.298741 
L 213.592325 25.923208 
L 214.896225 22.358962 
L 216.200126 19.510707 
L 217.178051 17.871852 
L 218.155976 16.675802 
L 218.807926 16.129846 
L 219.459876 15.787648 
L 220.111827 15.650558 
L 220.763777 15.719118 
L 221.415727 15.993057 
L 222.067677 16.471294 
L 223.045602 17.56736 
L 224.023527 19.108935 
L 225.001453 21.082333 
L 226.305353 24.354451 
L 227.609253 28.31109 
L 229.239129 34.123487 
L 230.869004 40.764111 
L 233.15083 51.137858 
L 236.41058 67.213653 
L 240.648257 87.953434 
L 242.930082 97.946656 
L 244.559957 104.21997 
L 246.189833 109.595503 
L 247.493733 113.159749 
L 248.797634 116.008004 
L 249.775559 117.646859 
L 250.753484 118.842908 
L 251.405434 119.388865 
L 252.057384 119.731063 
L 252.709334 119.868153 
L 253.361285 119.799593 
L 254.013235 119.525654 
L 254.665185 119.047417 
L 255.64311 117.951351 
L 256.621035 116.409776 
L 257.598961 114.436377 
L 258.902861 111.16426 
L 260.206761 107.20762 
L 261.836637 101.395224 
L 263.466512 94.7546 
L 265.748338 84.380853 
L 269.008088 68.305057 
L 273.245764 47.565277 
L 275.52759 37.572055 
L 277.157465 31.298741 
L 278.787341 25.923208 
L 280.091241 22.358962 
L 281.395141 19.510707 
L 282.373067 17.871852 
L 283.350992 16.675802 
L 284.002942 16.129846 
L 284.654892 15.787648 
L 285.306842 15.650558 
L 285.958793 15.719118 
L 286.610743 15.993057 
L 287.262693 16.471294 
L 288.240618 17.56736 
L 289.218543 19.108935 
L 290.196469 21.082333 
L 291.500369 24.354451 
L 292.804269 28.31109 
L 294.434145 34.123487 
L 296.06402 40.764111 
L 298.345846 51.137858 
L 301.605596 67.213653 
L 303.887422 78.593978 
L 303.887422 78.593978 
" style="fill:none;stroke:#5bc0de;stroke-width:3;"/>
   </g>
   <g id="line2d_30">
    <path clip-path="url(#p5659b35b94)" d="M 46.367109 93.815183 
L 48.648935 83.342866 
L 52.234661 65.577146 
L 55.820387 48.069447 
L 58.102212 38.018527 
L 59.732088 31.690629 
L 61.361963 26.250863 
L 62.665863 22.629339 
L 63.969764 19.719541 
L 64.947689 18.032313 
L 65.925614 16.786465 
L 66.903539 15.993057 
L 67.55549 15.719118 
L 68.20744 15.650558 
L 68.85939 15.787648 
L 69.51134 16.129846 
L 70.16329 16.675802 
L 71.141215 17.871852 
L 72.119141 19.510707 
L 73.097066 21.577821 
L 74.400966 24.967911 
L 75.704866 29.032849 
L 77.334742 34.964429 
L 79.290592 43.133953 
L 81.572418 53.745499 
L 86.136069 76.449951 
L 89.069845 90.439968 
L 91.025695 98.82962 
L 92.655571 104.991709 
L 94.285446 110.237014 
L 95.589346 113.685537 
L 96.567272 115.79917 
L 97.545197 117.486398 
L 98.523122 118.732246 
L 99.501047 119.525654 
L 100.152997 119.799593 
L 100.804948 119.868153 
L 101.456898 119.731063 
L 102.108848 119.388865 
L 102.760798 118.842908 
L 103.738723 117.646859 
L 104.716649 116.008004 
L 105.694574 113.94089 
L 106.998474 110.5508 
L 108.302374 106.485862 
L 109.93225 100.554282 
L 111.8881 92.384758 
L 114.169926 81.773212 
L 118.733577 59.06876 
L 121.667353 45.078743 
L 123.623203 36.689091 
L 125.253079 30.527002 
L 126.882954 25.281697 
L 128.186854 21.833174 
L 129.164779 19.719541 
L 130.142705 18.032313 
L 131.12063 16.786465 
L 132.098555 15.993057 
L 132.750505 15.719118 
L 133.402455 15.650558 
L 134.054406 15.787648 
L 134.706356 16.129846 
L 135.358306 16.675802 
L 136.336231 17.871852 
L 137.314156 19.510707 
L 138.292082 21.577821 
L 139.595982 24.967911 
L 140.899882 29.032849 
L 142.529758 34.964429 
L 144.485608 43.133953 
L 146.767434 53.745499 
L 151.331085 76.449951 
L 154.264861 90.439968 
L 156.220711 98.82962 
L 157.850586 104.991709 
L 159.480462 110.237014 
L 160.784362 113.685537 
L 161.762287 115.79917 
L 162.740213 117.486398 
L 163.718138 118.732246 
L 164.696063 119.525654 
L 165.348013 119.799593 
L 165.999963 119.868153 
L 166.651914 119.731063 
L 167.303864 119.388865 
L 167.955814 118.842908 
L 168.933739 117.646859 
L 169.911664 116.008004 
L 170.88959 113.94089 
L 172.19349 110.5508 
L 173.49739 106.485862 
L 175.127266 100.554282 
L 177.083116 92.384758 
L 179.364942 81.773212 
L 183.928593 59.06876 
L 186.862368 45.078743 
L 188.818219 36.689091 
L 190.448094 30.527002 
L 192.07797 25.281697 
L 193.38187 21.833174 
L 194.359795 19.719541 
L 195.337721 18.032313 
L 196.315646 16.786465 
L 197.293571 15.993057 
L 197.945521 15.719118 
L 198.597471 15.650558 
L 199.249421 15.787648 
L 199.901372 16.129846 
L 200.553322 16.675802 
L 201.531247 17.871852 
L 202.509172 19.510707 
L 203.487098 21.577821 
L 204.790998 24.967911 
L 206.094898 29.032849 
L 207.724774 34.964429 
L 209.680624 43.133953 
L 211.96245 53.745499 
L 216.526101 76.449951 
L 219.459876 90.439968 
L 221.415727 98.82962 
L 223.045602 104.991709 
L 224.675478 110.237014 
L 225.979378 113.685537 
L 226.957303 115.79917 
L 227.935228 117.486398 
L 228.913154 118.732246 
L 229.891079 119.525654 
L 230.543029 119.799593 
L 231.194979 119.868153 
L 231.846929 119.731063 
L 232.49888 119.388865 
L 233.15083 118.842908 
L 234.128755 117.646859 
L 235.10668 116.008004 
L 236.084605 113.94089 
L 237.388506 110.5508 
L 238.692406 106.485862 
L 240.322281 100.554282 
L 242.278132 92.384758 
L 244.559957 81.773212 
L 249.123609 59.06876 
L 252.057384 45.078743 
L 254.013235 36.689091 
L 255.64311 30.527002 
L 257.272986 25.281697 
L 258.576886 21.833174 
L 259.554811 19.719541 
L 260.532736 18.032313 
L 261.510662 16.786465 
L 262.488587 15.993057 
L 263.140537 15.719118 
L 263.792487 15.650558 
L 264.444437 15.787648 
L 265.096387 16.129846 
L 265.748338 16.675802 
L 266.726263 17.871852 
L 267.704188 19.510707 
L 268.682113 21.577821 
L 269.986014 24.967911 
L 271.289914 29.032849 
L 272.919789 34.964429 
L 274.87564 43.133953 
L 277.157465 53.745499 
L 281.721116 76.449951 
L 284.654892 90.439968 
L 286.610743 98.82962 
L 288.240618 104.991709 
L 289.870493 110.237014 
L 291.174394 113.685537 
L 292.152319 115.79917 
L 293.130244 117.486398 
L 294.10817 118.732246 
L 295.086095 119.525654 
L 295.738045 119.799593 
L 296.389995 119.868153 
L 297.041945 119.731063 
L 297.693895 119.388865 
L 298.345846 118.842908 
L 299.323771 117.646859 
L 300.301696 116.008004 
L 301.279621 113.94089 
L 302.583522 110.5508 
L 303.887422 106.485862 
L 303.887422 106.485862 
" style="fill:none;stroke:#5e4485;stroke-width:3;"/>
   </g>
   <g id="patch_2">
    <path d="M 33.491094 125.798711 
L 33.491094 9.72 
" style="fill:none;stroke:#ffffff;stroke-linecap:square;stroke-linejoin:miter;stroke-width:2;"/>
   </g>
   <g id="patch_3">
    <path d="M 316.763438 125.798711 
L 316.763438 9.72 
" style="fill:none;stroke:#ffffff;stroke-linecap:square;stroke-linejoin:miter;stroke-width:2;"/>
   </g>
   <g id="patch_4">
    <path d="M 33.491094 125.798711 
L 316.763438 125.798711 
" style="fill:none;stroke:#ffffff;stroke-linecap:square;stroke-linejoin:miter;stroke-width:2;"/>
   </g>
   <g id="patch_5">
    <path d="M 33.491094 9.72 
L 316.763438 9.72 
" style="fill:none;stroke:#ffffff;stroke-linecap:square;stroke-linejoin:miter;stroke-width:2;"/>
   </g>
  </g>
  <g id="axes_2">
   <g id="patch_6">
    <path d="M 355.007656 125.798711 
L 638.28 125.798711 
L 638.28 9.72 
L 355.007656 9.72 
z
" style="fill:#ffffff;"/>
   </g>
   <g id="matplotlib.axis_3">
    <g id="xtick_10">
     <g id="line2d_31">
      <path clip-path="url(#pcaeae21f35)" d="M 367.883672 125.798711 
L 367.883672 9.72 
" style="fill:none;stroke:#cbcbcb;"/>
     </g>
     <g id="line2d_32"/>
     <g id="text_13">
      <text style="font-family:Arial;font-size:9px;font-stretch:normal;font-style:normal;font-weight:normal;text-anchor:middle;" transform="rotate(-0, 367.883672, 135.740742)" x="367.883672" y="135.740742">0.00</text>
     </g>
    </g>
    <g id="xtick_11">
     <g id="line2d_33">
      <path clip-path="url(#pcaeae21f35)" d="M 400.48118 125.798711 
L 400.48118 9.72 
" style="fill:none;stroke:#cbcbcb;"/>
     </g>
     <g id="line2d_34"/>
     <g id="text_14">
      <text style="font-family:Arial;font-size:9px;font-stretch:normal;font-style:normal;font-weight:normal;text-anchor:middle;" transform="rotate(-0, 400.48118, 135.740742)" x="400.48118" y="135.740742">0.01</text>
     </g>
    </g>
    <g id="xtick_12">
     <g id="line2d_35">
      <path clip-path="url(#pcaeae21f35)" d="M 433.078688 125.798711 
L 433.078688 9.72 
" style="fill:none;stroke:#cbcbcb;"/>
     </g>
     <g id="line2d_36"/>
     <g id="text_15">
      <text style="font-family:Arial;font-size:9px;font-stretch:normal;font-style:normal;font-weight:normal;text-anchor:middle;" transform="rotate(-0, 433.078688, 135.740742)" x="433.078688" y="135.740742">0.02</text>
     </g>
    </g>
    <g id="xtick_13">
     <g id="line2d_37">
      <path clip-path="url(#pcaeae21f35)" d="M 465.676196 125.798711 
L 465.676196 9.72 
" style="fill:none;stroke:#cbcbcb;"/>
     </g>
     <g id="line2d_38"/>
     <g id="text_16">
      <text style="font-family:Arial;font-size:9px;font-stretch:normal;font-style:normal;font-weight:normal;text-anchor:middle;" transform="rotate(-0, 465.676196, 135.740742)" x="465.676196" y="135.740742">0.03</text>
     </g>
    </g>
    <g id="xtick_14">
     <g id="line2d_39">
      <path clip-path="url(#pcaeae21f35)" d="M 498.273704 125.798711 
L 498.273704 9.72 
" style="fill:none;stroke:#cbcbcb;"/>
     </g>
     <g id="line2d_40"/>
     <g id="text_17">
      <text style="font-family:Arial;font-size:9px;font-stretch:normal;font-style:normal;font-weight:normal;text-anchor:middle;" transform="rotate(-0, 498.273704, 135.740742)" x="498.273704" y="135.740742">0.04</text>
     </g>
    </g>
    <g id="xtick_15">
     <g id="line2d_41">
      <path clip-path="url(#pcaeae21f35)" d="M 530.871211 125.798711 
L 530.871211 9.72 
" style="fill:none;stroke:#cbcbcb;"/>
     </g>
     <g id="line2d_42"/>
     <g id="text_18">
      <text style="font-family:Arial;font-size:9px;font-stretch:normal;font-style:normal;font-weight:normal;text-anchor:middle;" transform="rotate(-0, 530.871211, 135.740742)" x="530.871211" y="135.740742">0.05</text>
     </g>
    </g>
    <g id="xtick_16">
     <g id="line2d_43">
      <path clip-path="url(#pcaeae21f35)" d="M 563.468719 125.798711 
L 563.468719 9.72 
" style="fill:none;stroke:#cbcbcb;"/>
     </g>
     <g id="line2d_44"/>
     <g id="text_19">
      <text style="font-family:Arial;font-size:9px;font-stretch:normal;font-style:normal;font-weight:normal;text-anchor:middle;" transform="rotate(-0, 563.468719, 135.740742)" x="563.468719" y="135.740742">0.06</text>
     </g>
    </g>
    <g id="xtick_17">
     <g id="line2d_45">
      <path clip-path="url(#pcaeae21f35)" d="M 596.066227 125.798711 
L 596.066227 9.72 
" style="fill:none;stroke:#cbcbcb;"/>
     </g>
     <g id="line2d_46"/>
     <g id="text_20">
      <text style="font-family:Arial;font-size:9px;font-stretch:normal;font-style:normal;font-weight:normal;text-anchor:middle;" transform="rotate(-0, 596.066227, 135.740742)" x="596.066227" y="135.740742">0.07</text>
     </g>
    </g>
    <g id="xtick_18">
     <g id="line2d_47">
      <path clip-path="url(#pcaeae21f35)" d="M 628.663735 125.798711 
L 628.663735 9.72 
" style="fill:none;stroke:#cbcbcb;"/>
     </g>
     <g id="line2d_48"/>
     <g id="text_21">
      <text style="font-family:Arial;font-size:9px;font-stretch:normal;font-style:normal;font-weight:normal;text-anchor:middle;" transform="rotate(-0, 628.663735, 135.740742)" x="628.663735" y="135.740742">0.08</text>
     </g>
    </g>
   </g>
   <g id="matplotlib.axis_4">
    <g id="ytick_4">
     <g id="line2d_49">
      <path clip-path="url(#pcaeae21f35)" d="M 355.007656 110.150954 
L 638.28 110.150954 
" style="fill:none;stroke:#cbcbcb;"/>
     </g>
     <g id="line2d_50"/>
     <g id="text_22">
      <text style="font-family:Arial;font-size:9px;font-stretch:normal;font-style:normal;font-weight:normal;text-anchor:end;" transform="rotate(-0, 351.507656, 113.371969)" x="351.507656" y="113.371969">−40</text>
     </g>
    </g>
    <g id="ytick_5">
     <g id="line2d_51">
      <path clip-path="url(#pcaeae21f35)" d="M 355.007656 88.955155 
L 638.28 88.955155 
" style="fill:none;stroke:#cbcbcb;"/>
     </g>
     <g id="line2d_52"/>
     <g id="text_23">
      <text style="font-family:Arial;font-size:9px;font-stretch:normal;font-style:normal;font-weight:normal;text-anchor:end;" transform="rotate(-0, 351.507656, 92.17617)" x="351.507656" y="92.17617">−20</text>
     </g>
    </g>
    <g id="ytick_6">
     <g id="line2d_53">
      <path clip-path="url(#pcaeae21f35)" d="M 355.007656 67.759355 
L 638.28 67.759355 
" style="fill:none;stroke:#cbcbcb;"/>
     </g>
     <g id="line2d_54"/>
     <g id="text_24">
      <text style="font-family:Arial;font-size:9px;font-stretch:normal;font-style:normal;font-weight:normal;text-anchor:end;" transform="rotate(-0, 351.507656, 70.980371)" x="351.507656" y="70.980371">0</text>
     </g>
    </g>
    <g id="ytick_7">
     <g id="line2d_55">
      <path clip-path="url(#pcaeae21f35)" d="M 355.007656 46.563556 
L 638.28 46.563556 
" style="fill:none;stroke:#cbcbcb;"/>
     </g>
     <g id="line2d_56"/>
     <g id="text_25">
      <text style="font-family:Arial;font-size:9px;font-stretch:normal;font-style:normal;font-weight:normal;text-anchor:end;" transform="rotate(-0, 351.507656, 49.784572)" x="351.507656" y="49.784572">20</text>
     </g>
    </g>
    <g id="ytick_8">
     <g id="line2d_57">
      <path clip-path="url(#pcaeae21f35)" d="M 355.007656 25.367757 
L 638.28 25.367757 
" style="fill:none;stroke:#cbcbcb;"/>
     </g>
     <g id="line2d_58"/>
     <g id="text_26">
      <text style="font-family:Arial;font-size:9px;font-stretch:normal;font-style:normal;font-weight:normal;text-anchor:end;" transform="rotate(-0, 351.507656, 28.588773)" x="351.507656" y="28.588773">40</text>
     </g>
    </g>
   </g>
   <g id="line2d_59">
    <path clip-path="url(#pcaeae21f35)" d="M 367.883672 67.759355 
L 498.273704 67.759355 
L 501.533454 15.223503 
L 502.185404 15.634326 
L 502.837355 16.250862 
L 503.81528 17.555838 
L 504.793205 19.306423 
L 505.77113 21.48708 
L 507.075031 25.029641 
L 508.378931 29.246074 
L 510.008806 35.362019 
L 511.964657 43.739476 
L 514.246482 54.56602 
L 522.721834 95.968711 
L 524.677685 103.824188 
L 526.30756 109.404974 
L 527.611461 113.137049 
L 528.915361 116.15349 
L 529.893286 117.917124 
L 530.871211 119.235553 
L 531.849137 120.097076 
L 532.501087 120.413642 
L 533.153037 120.522406 
L 533.804987 120.422938 
L 534.456937 120.115631 
L 535.108887 119.601698 
L 536.086813 118.448032 
L 537.064738 116.844449 
L 538.042663 114.805184 
L 539.346563 111.440257 
L 540.650464 107.386457 
L 542.280339 101.448826 
L 544.23619 93.243017 
L 546.518015 82.550862 
L 550.755691 61.219832 
L 554.015442 45.36092 
L 555.971293 36.805899 
L 557.601168 30.502588 
L 559.231043 25.116661 
L 560.534944 21.558403 
L 561.838844 18.728762 
L 562.816769 17.111983 
L 563.794694 15.944754 
L 564.446645 15.421635 
L 565.098595 15.105069 
L 565.750545 14.996305 
L 566.402495 15.095773 
L 567.054445 15.40308 
L 567.706395 15.917013 
L 568.684321 17.070679 
L 569.662246 18.674262 
L 570.640171 20.713527 
L 571.944071 24.078454 
L 573.247972 28.132254 
L 574.877847 34.069885 
L 576.833698 42.275694 
L 579.115523 52.967849 
L 583.353199 74.298879 
L 586.61295 90.15779 
L 588.5688 98.712811 
L 590.198676 105.016123 
L 591.828551 110.40205 
L 593.132452 113.960308 
L 594.436352 116.789949 
L 595.414277 118.406728 
L 596.392202 119.573956 
L 597.044152 120.097076 
L 597.696103 120.413642 
L 598.348053 120.522406 
L 599.000003 120.422938 
L 599.651953 120.115631 
L 600.303903 119.601698 
L 601.281829 118.448032 
L 602.259754 116.844449 
L 603.237679 114.805184 
L 604.541579 111.440257 
L 605.84548 107.386457 
L 607.475355 101.448826 
L 609.431205 93.243017 
L 611.713031 82.550862 
L 615.950707 61.219832 
L 619.210458 45.36092 
L 621.166308 36.805899 
L 622.796184 30.502588 
L 624.426059 25.116661 
L 625.403984 22.381662 
L 625.403984 22.381662 
" style="fill:none;stroke:#d9524f;stroke-width:3;"/>
   </g>
   <g id="line2d_60">
    <path clip-path="url(#pcaeae21f35)" d="M 367.883672 67.759355 
L 498.273704 67.759355 
L 498.925654 71.527251 
L 499.577604 76.518131 
L 500.555529 86.181548 
L 501.533454 98.263658 
L 503.16333 104.622839 
L 504.793205 110.074319 
L 506.097105 113.690915 
L 507.401006 116.583142 
L 508.378931 118.249057 
L 509.356856 119.466821 
L 510.008806 120.024187 
L 510.660757 120.375288 
L 511.312707 120.518738 
L 511.964657 120.45397 
L 512.616607 120.181241 
L 513.268557 119.701627 
L 514.246482 118.598657 
L 515.224408 117.044435 
L 516.202333 115.052754 
L 517.506233 111.747785 
L 518.810134 107.749093 
L 520.440009 101.872211 
L 522.069884 95.155358 
L 524.35171 84.658779 
L 527.611461 68.385899 
L 531.849137 47.381091 
L 534.130962 37.255053 
L 535.760838 30.895872 
L 537.390713 25.444392 
L 538.694613 21.827796 
L 539.998514 18.935569 
L 540.976439 17.269654 
L 541.954364 16.05189 
L 542.606314 15.494523 
L 543.258264 15.143423 
L 543.910215 14.999973 
L 544.562165 15.064741 
L 545.214115 15.33747 
L 545.866065 15.817084 
L 546.84399 16.920054 
L 547.821916 18.474276 
L 548.799841 20.465957 
L 550.103741 23.770926 
L 551.407641 27.769618 
L 553.037517 33.646499 
L 554.667392 40.363352 
L 556.949218 50.859931 
L 560.208969 67.132812 
L 564.446645 88.13762 
L 566.72847 98.263658 
L 568.358346 104.622839 
L 569.988221 110.074319 
L 571.292121 113.690915 
L 572.596022 116.583142 
L 573.573947 118.249057 
L 574.551872 119.466821 
L 575.203822 120.024187 
L 575.855772 120.375288 
L 576.507723 120.518738 
L 577.159673 120.45397 
L 577.811623 120.181241 
L 578.463573 119.701627 
L 579.441498 118.598657 
L 580.419423 117.044435 
L 581.397349 115.052754 
L 582.701249 111.747785 
L 584.005149 107.749093 
L 585.635025 101.872211 
L 587.2649 95.155358 
L 589.546726 84.658779 
L 592.806476 68.385899 
L 597.044152 47.381091 
L 599.325978 37.255053 
L 600.955853 30.895872 
L 602.585729 25.444392 
L 603.889629 21.827796 
L 605.193529 18.935569 
L 606.171455 17.269654 
L 607.14938 16.05189 
L 607.80133 15.494523 
L 608.45328 15.143423 
L 609.10523 14.999973 
L 609.757181 15.064741 
L 610.409131 15.33747 
L 611.061081 15.817084 
L 612.039006 16.920054 
L 613.016931 18.474276 
L 613.994857 20.465957 
L 615.298757 23.770926 
L 616.602657 27.769618 
L 618.232533 33.646499 
L 619.862408 40.363352 
L 622.144234 50.859931 
L 625.403984 67.132812 
L 625.403984 67.132812 
" style="fill:none;stroke:#5cb85c;stroke-width:3;"/>
   </g>
   <g id="line2d_61">
    <path clip-path="url(#pcaeae21f35)" d="M 367.883672 67.759355 
L 498.273704 67.759355 
L 499.251629 77.347192 
L 500.229554 84.47938 
L 500.881504 87.758122 
L 501.533454 89.790905 
L 504.141255 77.175741 
L 510.986732 43.380044 
L 512.942582 35.043716 
L 514.572457 28.970733 
L 515.876358 24.793607 
L 517.180258 21.294077 
L 518.484158 18.527332 
L 519.462084 16.959867 
L 520.440009 15.843302 
L 521.091959 15.354486 
L 521.743909 15.072489 
L 522.395859 14.998423 
L 523.04781 15.13258 
L 523.69976 15.474431 
L 524.35171 16.022627 
L 525.329635 17.226863 
L 526.30756 18.87963 
L 527.285486 20.966256 
L 528.589386 24.390772 
L 529.893286 28.499236 
L 531.523162 34.496964 
L 533.479012 42.760898 
L 535.760838 53.499028 
L 540.324489 76.485596 
L 543.258264 90.65683 
L 545.214115 99.158571 
L 546.84399 105.405321 
L 548.473866 110.725104 
L 549.777766 114.224634 
L 551.081666 116.991379 
L 552.059592 118.558844 
L 553.037517 119.675409 
L 553.689467 120.164225 
L 554.341417 120.446222 
L 554.993367 120.520288 
L 555.645317 120.386131 
L 556.297268 120.04428 
L 556.949218 119.496084 
L 557.927143 118.291848 
L 558.905068 116.639081 
L 559.882993 114.552455 
L 561.186894 111.127939 
L 562.490794 107.019475 
L 564.12067 101.021747 
L 566.07652 92.757813 
L 568.358346 82.019683 
L 572.921997 59.033115 
L 575.855772 44.861881 
L 577.811623 36.36014 
L 579.441498 30.11339 
L 581.071374 24.793607 
L 582.375274 21.294077 
L 583.679174 18.527332 
L 584.657099 16.959867 
L 585.635025 15.843302 
L 586.286975 15.354486 
L 586.938925 15.072489 
L 587.590875 14.998423 
L 588.242825 15.13258 
L 588.894776 15.474431 
L 589.546726 16.022627 
L 590.524651 17.226863 
L 591.502576 18.87963 
L 592.480501 20.966256 
L 593.784402 24.390772 
L 595.088302 28.499236 
L 596.718177 34.496964 
L 598.674028 42.760898 
L 600.955853 53.499028 
L 605.519505 76.485596 
L 608.45328 90.65683 
L 610.409131 99.158571 
L 612.039006 105.405321 
L 613.668882 110.725104 
L 614.972782 114.224634 
L 616.276682 116.991379 
L 617.254607 118.558844 
L 618.232533 119.675409 
L 618.884483 120.164225 
L 619.536433 120.446222 
L 620.188383 120.520288 
L 620.840333 120.386131 
L 621.492283 120.04428 
L 622.144234 119.496084 
L 623.122159 118.291848 
L 624.100084 116.639081 
L 625.078009 114.552455 
L 625.403984 113.763593 
L 625.403984 113.763593 
" style="fill:none;stroke:#337ab7;stroke-width:3;"/>
   </g>
   <g id="patch_7">
    <path d="M 355.007656 125.798711 
L 355.007656 9.72 
" style="fill:none;stroke:#ffffff;stroke-linecap:square;stroke-linejoin:miter;stroke-width:2;"/>
   </g>
   <g id="patch_8">
    <path d="M 638.28 125.798711 
L 638.28 9.72 
" style="fill:none;stroke:#ffffff;stroke-linecap:square;stroke-linejoin:miter;stroke-width:2;"/>
   </g>
   <g id="patch_9">
    <path d="M 355.007656 125.798711 
L 638.28 125.798711 
" style="fill:none;stroke:#ffffff;stroke-linecap:square;stroke-linejoin:miter;stroke-width:2;"/>
   </g>
   <g id="patch_10">
    <path d="M 355.007656 9.72 
L 638.28 9.72 
" style="fill:none;stroke:#ffffff;stroke-linecap:square;stroke-linejoin:miter;stroke-width:2;"/>
   </g>
  </g>
  <g id="axes_3">
   <g id="patch_11">
    <path d="M 33.491094 266.549219 
L 316.763438 266.549219 
L 316.763438 150.470508 
L 33.491094 150.470508 
z
" style="fill:#ffffff;"/>
   </g>
   <g id="matplotlib.axis_5">
    <g id="xtick_19">
     <g id="line2d_62">
      <path clip-path="url(#p612d979e93)" d="M 46.367109 266.549219 
L 46.367109 150.470508 
" style="fill:none;stroke:#cbcbcb;"/>
     </g>
     <g id="line2d_63"/>
     <g id="text_27">
      <text style="font-family:Arial;font-size:9px;font-stretch:normal;font-style:normal;font-weight:normal;text-anchor:middle;" transform="rotate(-0, 46.367109, 276.49125)" x="46.367109" y="276.49125">0.00</text>
     </g>
    </g>
    <g id="xtick_20">
     <g id="line2d_64">
      <path clip-path="url(#p612d979e93)" d="M 78.964617 266.549219 
L 78.964617 150.470508 
" style="fill:none;stroke:#cbcbcb;"/>
     </g>
     <g id="line2d_65"/>
     <g id="text_28">
      <text style="font-family:Arial;font-size:9px;font-stretch:normal;font-style:normal;font-weight:normal;text-anchor:middle;" transform="rotate(-0, 78.964617, 276.49125)" x="78.964617" y="276.49125">0.01</text>
     </g>
    </g>
    <g id="xtick_21">
     <g id="line2d_66">
      <path clip-path="url(#p612d979e93)" d="M 111.562125 266.549219 
L 111.562125 150.470508 
" style="fill:none;stroke:#cbcbcb;"/>
     </g>
     <g id="line2d_67"/>
     <g id="text_29">
      <text style="font-family:Arial;font-size:9px;font-stretch:normal;font-style:normal;font-weight:normal;text-anchor:middle;" transform="rotate(-0, 111.562125, 276.49125)" x="111.562125" y="276.49125">0.02</text>
     </g>
    </g>
    <g id="xtick_22">
     <g id="line2d_68">
      <path clip-path="url(#p612d979e93)" d="M 144.159633 266.549219 
L 144.159633 150.470508 
" style="fill:none;stroke:#cbcbcb;"/>
     </g>
     <g id="line2d_69"/>
     <g id="text_30">
      <text style="font-family:Arial;font-size:9px;font-stretch:normal;font-style:normal;font-weight:normal;text-anchor:middle;" transform="rotate(-0, 144.159633, 276.49125)" x="144.159633" y="276.49125">0.03</text>
     </g>
    </g>
    <g id="xtick_23">
     <g id="line2d_70">
      <path clip-path="url(#p612d979e93)" d="M 176.757141 266.549219 
L 176.757141 150.470508 
" style="fill:none;stroke:#cbcbcb;"/>
     </g>
     <g id="line2d_71"/>
     <g id="text_31">
      <text style="font-family:Arial;font-size:9px;font-stretch:normal;font-style:normal;font-weight:normal;text-anchor:middle;" transform="rotate(-0, 176.757141, 276.49125)" x="176.757141" y="276.49125">0.04</text>
     </g>
    </g>
    <g id="xtick_24">
     <g id="line2d_72">
      <path clip-path="url(#p612d979e93)" d="M 209.354649 266.549219 
L 209.354649 150.470508 
" style="fill:none;stroke:#cbcbcb;"/>
     </g>
     <g id="line2d_73"/>
     <g id="text_32">
      <text style="font-family:Arial;font-size:9px;font-stretch:normal;font-style:normal;font-weight:normal;text-anchor:middle;" transform="rotate(-0, 209.354649, 276.49125)" x="209.354649" y="276.49125">0.05</text>
     </g>
    </g>
    <g id="xtick_25">
     <g id="line2d_74">
      <path clip-path="url(#p612d979e93)" d="M 241.952157 266.549219 
L 241.952157 150.470508 
" style="fill:none;stroke:#cbcbcb;"/>
     </g>
     <g id="line2d_75"/>
     <g id="text_33">
      <text style="font-family:Arial;font-size:9px;font-stretch:normal;font-style:normal;font-weight:normal;text-anchor:middle;" transform="rotate(-0, 241.952157, 276.49125)" x="241.952157" y="276.49125">0.06</text>
     </g>
    </g>
    <g id="xtick_26">
     <g id="line2d_76">
      <path clip-path="url(#p612d979e93)" d="M 274.549665 266.549219 
L 274.549665 150.470508 
" style="fill:none;stroke:#cbcbcb;"/>
     </g>
     <g id="line2d_77"/>
     <g id="text_34">
      <text style="font-family:Arial;font-size:9px;font-stretch:normal;font-style:normal;font-weight:normal;text-anchor:middle;" transform="rotate(-0, 274.549665, 276.49125)" x="274.549665" y="276.49125">0.07</text>
     </g>
    </g>
    <g id="xtick_27">
     <g id="line2d_78">
      <path clip-path="url(#p612d979e93)" d="M 307.147173 266.549219 
L 307.147173 150.470508 
" style="fill:none;stroke:#cbcbcb;"/>
     </g>
     <g id="line2d_79"/>
     <g id="text_35">
      <text style="font-family:Arial;font-size:9px;font-stretch:normal;font-style:normal;font-weight:normal;text-anchor:middle;" transform="rotate(-0, 307.147173, 276.49125)" x="307.147173" y="276.49125">0.08</text>
     </g>
    </g>
   </g>
   <g id="matplotlib.axis_6">
    <g id="ytick_9">
     <g id="line2d_80">
      <path clip-path="url(#p612d979e93)" d="M 33.491094 266.549219 
L 316.763438 266.549219 
" style="fill:none;stroke:#cbcbcb;"/>
     </g>
     <g id="line2d_81"/>
     <g id="text_36">
      <text style="font-family:Arial;font-size:9px;font-stretch:normal;font-style:normal;font-weight:normal;text-anchor:end;" transform="rotate(-0, 29.991094, 269.770234)" x="29.991094" y="269.770234">315</text>
     </g>
    </g>
    <g id="ytick_10">
     <g id="line2d_82">
      <path clip-path="url(#p612d979e93)" d="M 33.491094 237.529541 
L 316.763438 237.529541 
" style="fill:none;stroke:#cbcbcb;"/>
     </g>
     <g id="line2d_83"/>
     <g id="text_37">
      <text style="font-family:Arial;font-size:9px;font-stretch:normal;font-style:normal;font-weight:normal;text-anchor:end;" transform="rotate(-0, 29.991094, 240.750557)" x="29.991094" y="240.750557">320</text>
     </g>
    </g>
    <g id="ytick_11">
     <g id="line2d_84">
      <path clip-path="url(#p612d979e93)" d="M 33.491094 208.509863 
L 316.763438 208.509863 
" style="fill:none;stroke:#cbcbcb;"/>
     </g>
     <g id="line2d_85"/>
     <g id="text_38">
      <text style="font-family:Arial;font-size:9px;font-stretch:normal;font-style:normal;font-weight:normal;text-anchor:end;" transform="rotate(-0, 29.991094, 211.730879)" x="29.991094" y="211.730879">325</text>
     </g>
    </g>
    <g id="ytick_12">
     <g id="line2d_86">
      <path clip-path="url(#p612d979e93)" d="M 33.491094 179.490186 
L 316.763438 179.490186 
" style="fill:none;stroke:#cbcbcb;"/>
     </g>
     <g id="line2d_87"/>
     <g id="text_39">
      <text style="font-family:Arial;font-size:9px;font-stretch:normal;font-style:normal;font-weight:normal;text-anchor:end;" transform="rotate(-0, 29.991094, 182.711201)" x="29.991094" y="182.711201">330</text>
     </g>
    </g>
    <g id="ytick_13">
     <g id="line2d_88">
      <path clip-path="url(#p612d979e93)" d="M 33.491094 150.470508 
L 316.763438 150.470508 
" style="fill:none;stroke:#cbcbcb;"/>
     </g>
     <g id="line2d_89"/>
     <g id="text_40">
      <text style="font-family:Arial;font-size:9px;font-stretch:normal;font-style:normal;font-weight:normal;text-anchor:end;" transform="rotate(-0, 29.991094, 153.691523)" x="29.991094" y="153.691523">335</text>
     </g>
    </g>
   </g>
   <g id="line2d_90">
    <path clip-path="url(#p612d979e93)" d="M 46.367109 199.231504 
L 46.693084 200.166847 
L 47.01906 202.971954 
L 47.345035 207.644055 
L 47.996985 222.568961 
L 48.648935 244.882664 
L 49.300885 274.497102 
L 49.570885 289 
M 108.35835 289 
L 109.2803 244.882664 
L 109.93225 222.568961 
L 110.5842 207.644055 
L 110.910175 202.971954 
L 111.23615 200.166847 
L 111.562125 199.231504 
L 111.8881 200.166847 
L 112.214075 202.971954 
L 112.54005 207.644055 
L 113.192001 222.568961 
L 113.843951 244.882664 
L 114.495901 274.497102 
L 114.765901 289 
M 173.553366 289 
L 174.475315 244.882664 
L 175.127266 222.568961 
L 175.779216 207.644055 
L 176.105191 202.971954 
L 176.431166 200.166847 
L 176.757141 199.231504 
L 177.083116 197.79857 
L 177.409091 198.242411 
L 177.735066 200.567262 
L 178.061041 204.775489 
L 178.712991 218.842173 
L 179.364942 240.423876 
L 180.016892 269.471909 
L 180.342838 289 
M 238.36646 289 
L 239.344356 235.833863 
L 239.996306 209.532264 
L 240.648257 190.670911 
L 241.300207 179.324242 
L 241.626182 176.484071 
L 241.952157 175.537036 
L 242.278132 176.484071 
L 242.604107 179.324242 
L 242.930082 184.054744 
L 243.582032 199.166212 
L 244.233982 221.758836 
L 244.885933 251.743455 
L 245.537854 289 
M 303.561476 289 
L 303.887422 269.471909 
L 303.887422 269.471909 
" style="fill:none;stroke:#d9524f;stroke-width:3;"/>
   </g>
   <g id="line2d_91">
    <path clip-path="url(#p612d979e93)" d="M 86.628402 289 
L 87.439969 249.314211 
L 88.09192 225.77682 
L 88.74387 209.615566 
L 89.069845 204.322067 
L 89.39582 200.89423 
L 89.721795 199.335439 
L 90.04777 199.647231 
L 90.373745 201.8293 
L 90.69972 205.879491 
L 91.35167 219.566413 
L 92.00362 240.653981 
L 92.655571 269.058974 
L 93.034343 289 
M 151.823417 289 
L 152.634985 249.314211 
L 153.286935 225.77682 
L 153.938885 209.615566 
L 154.264861 204.322067 
L 154.590836 200.89423 
L 154.916811 199.335439 
L 155.242786 199.647231 
L 155.568761 201.8293 
L 155.894736 205.879491 
L 156.546686 219.566413 
L 157.198636 240.653981 
L 157.850586 269.058974 
L 158.229359 289 
M 216.637998 289 
L 217.504026 240.933958 
L 218.155976 213.401622 
L 218.807926 193.294261 
L 219.459876 180.691231 
L 219.785851 177.220546 
L 220.111827 175.64227 
L 220.437802 175.95796 
L 220.763777 178.167304 
L 221.089752 182.268123 
L 221.741702 196.126132 
L 222.393652 217.477295 
L 223.045602 246.237349 
L 223.803072 289 
M 281.833014 289 
L 282.699042 240.933958 
L 283.350992 213.401622 
L 284.002942 193.294261 
L 284.654892 180.691231 
L 284.980867 177.220546 
L 285.306842 175.64227 
L 285.632817 175.95796 
L 285.958793 178.167304 
L 286.284768 182.268123 
L 286.936718 196.126132 
L 287.588668 217.477295 
L 288.240618 246.237349 
L 288.998088 289 
L 288.998088 289 
" style="fill:none;stroke:#5cb85c;stroke-width:3;"/>
   </g>
   <g id="line2d_92">
    <path clip-path="url(#p612d979e93)" d="M 64.894892 289 
L 65.599639 253.948134 
L 66.251589 229.189636 
L 66.903539 211.793807 
L 67.55549 201.8293 
L 67.881465 199.647231 
L 68.20744 199.335439 
L 68.533415 200.89423 
L 68.85939 204.322067 
L 69.185365 209.615566 
L 69.837315 225.77682 
L 70.489265 249.314211 
L 71.300833 289 
M 130.089907 289 
L 130.794655 253.948134 
L 131.446605 229.189636 
L 132.098555 211.793807 
L 132.750505 201.8293 
L 133.07648 199.647231 
L 133.402455 199.335439 
L 133.728431 200.89423 
L 134.054406 204.322067 
L 134.380381 209.615566 
L 135.032331 225.77682 
L 135.684281 249.314211 
L 136.495849 289 
M 194.906226 289 
L 195.663696 246.237349 
L 196.315646 217.477295 
L 196.967596 196.126132 
L 197.619546 182.268123 
L 197.945521 178.167304 
L 198.271496 175.95796 
L 198.597471 175.64227 
L 198.923446 177.220546 
L 199.249421 180.691231 
L 199.575397 186.050899 
L 200.227347 202.414169 
L 200.879297 226.245777 
L 201.531247 257.451671 
L 202.071299 289 
M 260.101242 289 
L 260.858711 246.237349 
L 261.510662 217.477295 
L 262.162612 196.126132 
L 262.814562 182.268123 
L 263.140537 178.167304 
L 263.466512 175.95796 
L 263.792487 175.64227 
L 264.118462 177.220546 
L 264.444437 180.691231 
L 264.770412 186.050899 
L 265.422363 202.414169 
L 266.074313 226.245777 
L 266.726263 257.451671 
L 267.266315 289 
L 267.266315 289 
" style="fill:none;stroke:#337ab7;stroke-width:3;"/>
   </g>
   <g id="line2d_93">
    <path clip-path="url(#p612d979e93)" d="M 46.367109 199.231504 
L 46.693084 200.166847 
L 47.01906 202.971954 
L 47.345035 207.644055 
L 47.996985 222.568961 
L 48.648935 244.882664 
L 49.300885 274.497102 
L 49.570885 289 
M 108.35835 289 
L 109.2803 244.882664 
L 109.93225 222.568961 
L 110.5842 207.644055 
L 110.910175 202.971954 
L 111.23615 200.166847 
L 111.562125 199.231504 
L 111.8881 200.166847 
L 112.214075 202.971954 
L 112.54005 207.644055 
L 113.192001 222.568961 
L 113.843951 244.882664 
L 114.495901 274.497102 
L 114.765901 289 
M 173.553366 289 
L 174.475315 244.882664 
L 175.127266 222.568961 
L 175.779216 207.644055 
L 176.105191 202.971954 
L 176.431166 200.166847 
L 176.757141 199.231504 
L 177.083116 200.166847 
L 177.409091 202.971954 
L 177.735066 207.644055 
L 178.387016 222.568961 
L 179.038967 244.882664 
L 179.690917 274.497102 
L 179.960916 289 
M 238.748381 289 
L 239.670331 244.882664 
L 240.322281 222.568961 
L 240.974232 207.644055 
L 241.300207 202.971954 
L 241.626182 200.166847 
L 241.952157 199.231504 
L 242.278132 200.166847 
L 242.604107 202.971954 
L 242.930082 207.644055 
L 243.582032 222.568961 
L 244.233982 244.882664 
L 244.885933 274.497102 
L 245.155932 289 
L 245.155932 289 
" style="fill:none;stroke:#f0ad4e;stroke-width:3;"/>
   </g>
   <g id="line2d_94">
    <path clip-path="url(#p612d979e93)" d="M 86.628402 289 
L 87.439969 249.314211 
L 88.09192 225.77682 
L 88.74387 209.615566 
L 89.069845 204.322067 
L 89.39582 200.89423 
L 89.721795 199.335439 
L 90.04777 199.647231 
L 90.373745 201.8293 
L 90.69972 205.879491 
L 91.35167 219.566413 
L 92.00362 240.653981 
L 92.655571 269.058974 
L 93.034343 289 
M 151.823417 289 
L 152.634985 249.314211 
L 153.286935 225.77682 
L 153.938885 209.615566 
L 154.264861 204.322067 
L 154.590836 200.89423 
L 154.916811 199.335439 
L 155.242786 199.647231 
L 155.568761 201.8293 
L 155.894736 205.879491 
L 156.546686 219.566413 
L 157.198636 240.653981 
L 157.850586 269.058974 
L 158.229359 289 
M 217.018433 289 
L 217.830001 249.314211 
L 218.481951 225.77682 
L 219.133901 209.615566 
L 219.459876 204.322067 
L 219.785851 200.89423 
L 220.111827 199.335439 
L 220.437802 199.647231 
L 220.763777 201.8293 
L 221.089752 205.879491 
L 221.741702 219.566413 
L 222.393652 240.653981 
L 223.045602 269.058974 
L 223.424375 289 
M 282.213449 289 
L 283.025017 249.314211 
L 283.676967 225.77682 
L 284.328917 209.615566 
L 284.654892 204.322067 
L 284.980867 200.89423 
L 285.306842 199.335439 
L 285.632817 199.647231 
L 285.958793 201.8293 
L 286.284768 205.879491 
L 286.936718 219.566413 
L 287.588668 240.653981 
L 288.240618 269.058974 
L 288.61939 289 
L 288.61939 289 
" style="fill:none;stroke:#5bc0de;stroke-width:3;"/>
   </g>
   <g id="line2d_95">
    <path clip-path="url(#p612d979e93)" d="M 64.894892 289 
L 65.599639 253.948134 
L 66.251589 229.189636 
L 66.903539 211.793807 
L 67.55549 201.8293 
L 67.881465 199.647231 
L 68.20744 199.335439 
L 68.533415 200.89423 
L 68.85939 204.322067 
L 69.185365 209.615566 
L 69.837315 225.77682 
L 70.489265 249.314211 
L 71.300833 289 
M 130.089907 289 
L 130.794655 253.948134 
L 131.446605 229.189636 
L 132.098555 211.793807 
L 132.750505 201.8293 
L 133.07648 199.647231 
L 133.402455 199.335439 
L 133.728431 200.89423 
L 134.054406 204.322067 
L 134.380381 209.615566 
L 135.032331 225.77682 
L 135.684281 249.314211 
L 136.495849 289 
M 195.284923 289 
L 195.989671 253.948134 
L 196.641621 229.189636 
L 197.293571 211.793807 
L 197.945521 201.8293 
L 198.271496 199.647231 
L 198.597471 199.335439 
L 198.923446 200.89423 
L 199.249421 204.322067 
L 199.575397 209.615566 
L 200.227347 225.77682 
L 200.879297 249.314211 
L 201.690865 289 
M 260.479939 289 
L 261.184687 253.948134 
L 261.836637 229.189636 
L 262.488587 211.793807 
L 263.140537 201.8293 
L 263.466512 199.647231 
L 263.792487 199.335439 
L 264.118462 200.89423 
L 264.444437 204.322067 
L 264.770412 209.615566 
L 265.422363 225.77682 
L 266.074313 249.314211 
L 266.88588 289 
L 266.88588 289 
" style="fill:none;stroke:#5e4485;stroke-width:3;"/>
   </g>
   <g id="patch_12">
    <path d="M 33.491094 266.549219 
L 33.491094 150.470508 
" style="fill:none;stroke:#ffffff;stroke-linecap:square;stroke-linejoin:miter;stroke-width:2;"/>
   </g>
   <g id="patch_13">
    <path d="M 316.763438 266.549219 
L 316.763438 150.470508 
" style="fill:none;stroke:#ffffff;stroke-linecap:square;stroke-linejoin:miter;stroke-width:2;"/>
   </g>
   <g id="patch_14">
    <path d="M 33.491094 266.549219 
L 316.763438 266.549219 
" style="fill:none;stroke:#ffffff;stroke-linecap:square;stroke-linejoin:miter;stroke-width:2;"/>
   </g>
   <g id="patch_15">
    <path d="M 33.491094 150.470508 
L 316.763438 150.470508 
" style="fill:none;stroke:#ffffff;stroke-linecap:square;stroke-linejoin:miter;stroke-width:2;"/>
   </g>
  </g>
  <g id="axes_4">
   <g id="patch_16">
    <path d="M 355.007656 266.549219 
L 638.28 266.549219 
L 638.28 150.470508 
L 355.007656 150.470508 
z
" style="fill:#ffffff;"/>
   </g>
   <g id="matplotlib.axis_7">
    <g id="xtick_28">
     <g id="line2d_96">
      <path clip-path="url(#p50a631cebc)" d="M 367.883672 266.549219 
L 367.883672 150.470508 
" style="fill:none;stroke:#cbcbcb;"/>
     </g>
     <g id="line2d_97"/>
     <g id="text_41">
      <text style="font-family:Arial;font-size:9px;font-stretch:normal;font-style:normal;font-weight:normal;text-anchor:middle;" transform="rotate(-0, 367.883672, 276.49125)" x="367.883672" y="276.49125">0.00</text>
     </g>
    </g>
    <g id="xtick_29">
     <g id="line2d_98">
      <path clip-path="url(#p50a631cebc)" d="M 400.48118 266.549219 
L 400.48118 150.470508 
" style="fill:none;stroke:#cbcbcb;"/>
     </g>
     <g id="line2d_99"/>
     <g id="text_42">
      <text style="font-family:Arial;font-size:9px;font-stretch:normal;font-style:normal;font-weight:normal;text-anchor:middle;" transform="rotate(-0, 400.48118, 276.49125)" x="400.48118" y="276.49125">0.01</text>
     </g>
    </g>
    <g id="xtick_30">
     <g id="line2d_100">
      <path clip-path="url(#p50a631cebc)" d="M 433.078688 266.549219 
L 433.078688 150.470508 
" style="fill:none;stroke:#cbcbcb;"/>
     </g>
     <g id="line2d_101"/>
     <g id="text_43">
      <text style="font-family:Arial;font-size:9px;font-stretch:normal;font-style:normal;font-weight:normal;text-anchor:middle;" transform="rotate(-0, 433.078688, 276.49125)" x="433.078688" y="276.49125">0.02</text>
     </g>
    </g>
    <g id="xtick_31">
     <g id="line2d_102">
      <path clip-path="url(#p50a631cebc)" d="M 465.676196 266.549219 
L 465.676196 150.470508 
" style="fill:none;stroke:#cbcbcb;"/>
     </g>
     <g id="line2d_103"/>
     <g id="text_44">
      <text style="font-family:Arial;font-size:9px;font-stretch:normal;font-style:normal;font-weight:normal;text-anchor:middle;" transform="rotate(-0, 465.676196, 276.49125)" x="465.676196" y="276.49125">0.03</text>
     </g>
    </g>
    <g id="xtick_32">
     <g id="line2d_104">
      <path clip-path="url(#p50a631cebc)" d="M 498.273704 266.549219 
L 498.273704 150.470508 
" style="fill:none;stroke:#cbcbcb;"/>
     </g>
     <g id="line2d_105"/>
     <g id="text_45">
      <text style="font-family:Arial;font-size:9px;font-stretch:normal;font-style:normal;font-weight:normal;text-anchor:middle;" transform="rotate(-0, 498.273704, 276.49125)" x="498.273704" y="276.49125">0.04</text>
     </g>
    </g>
    <g id="xtick_33">
     <g id="line2d_106">
      <path clip-path="url(#p50a631cebc)" d="M 530.871211 266.549219 
L 530.871211 150.470508 
" style="fill:none;stroke:#cbcbcb;"/>
     </g>
     <g id="line2d_107"/>
     <g id="text_46">
      <text style="font-family:Arial;font-size:9px;font-stretch:normal;font-style:normal;font-weight:normal;text-anchor:middle;" transform="rotate(-0, 530.871211, 276.49125)" x="530.871211" y="276.49125">0.05</text>
     </g>
    </g>
    <g id="xtick_34">
     <g id="line2d_108">
      <path clip-path="url(#p50a631cebc)" d="M 563.468719 266.549219 
L 563.468719 150.470508 
" style="fill:none;stroke:#cbcbcb;"/>
     </g>
     <g id="line2d_109"/>
     <g id="text_47">
      <text style="font-family:Arial;font-size:9px;font-stretch:normal;font-style:normal;font-weight:normal;text-anchor:middle;" transform="rotate(-0, 563.468719, 276.49125)" x="563.468719" y="276.49125">0.06</text>
     </g>
    </g>
    <g id="xtick_35">
     <g id="line2d_110">
      <path clip-path="url(#p50a631cebc)" d="M 596.066227 266.549219 
L 596.066227 150.470508 
" style="fill:none;stroke:#cbcbcb;"/>
     </g>
     <g id="line2d_111"/>
     <g id="text_48">
      <text style="font-family:Arial;font-size:9px;font-stretch:normal;font-style:normal;font-weight:normal;text-anchor:middle;" transform="rotate(-0, 596.066227, 276.49125)" x="596.066227" y="276.49125">0.07</text>
     </g>
    </g>
    <g id="xtick_36">
     <g id="line2d_112">
      <path clip-path="url(#p50a631cebc)" d="M 628.663735 266.549219 
L 628.663735 150.470508 
" style="fill:none;stroke:#cbcbcb;"/>
     </g>
     <g id="line2d_113"/>
     <g id="text_49">
      <text style="font-family:Arial;font-size:9px;font-stretch:normal;font-style:normal;font-weight:normal;text-anchor:middle;" transform="rotate(-0, 628.663735, 276.49125)" x="628.663735" y="276.49125">0.08</text>
     </g>
    </g>
   </g>
   <g id="matplotlib.axis_8">
    <g id="ytick_14">
     <g id="line2d_114">
      <path clip-path="url(#p50a631cebc)" d="M 355.007656 260.402255 
L 638.28 260.402255 
" style="fill:none;stroke:#cbcbcb;"/>
     </g>
     <g id="line2d_115"/>
     <g id="text_50">
      <text style="font-family:Arial;font-size:9px;font-stretch:normal;font-style:normal;font-weight:normal;text-anchor:end;" transform="rotate(-0, 351.507656, 263.623271)" x="351.507656" y="263.623271">0</text>
     </g>
    </g>
    <g id="ytick_15">
     <g id="line2d_116">
      <path clip-path="url(#p50a631cebc)" d="M 355.007656 238.683021 
L 638.28 238.683021 
" style="fill:none;stroke:#cbcbcb;"/>
     </g>
     <g id="line2d_117"/>
     <g id="text_51">
      <text style="font-family:Arial;font-size:9px;font-stretch:normal;font-style:normal;font-weight:normal;text-anchor:end;" transform="rotate(-0, 351.507656, 241.904037)" x="351.507656" y="241.904037">5000</text>
     </g>
    </g>
    <g id="ytick_16">
     <g id="line2d_118">
      <path clip-path="url(#p50a631cebc)" d="M 355.007656 216.963787 
L 638.28 216.963787 
" style="fill:none;stroke:#cbcbcb;"/>
     </g>
     <g id="line2d_119"/>
     <g id="text_52">
      <text style="font-family:Arial;font-size:9px;font-stretch:normal;font-style:normal;font-weight:normal;text-anchor:end;" transform="rotate(-0, 351.507656, 220.184802)" x="351.507656" y="220.184802">10000</text>
     </g>
    </g>
    <g id="ytick_17">
     <g id="line2d_120">
      <path clip-path="url(#p50a631cebc)" d="M 355.007656 195.244552 
L 638.28 195.244552 
" style="fill:none;stroke:#cbcbcb;"/>
     </g>
     <g id="line2d_121"/>
     <g id="text_53">
      <text style="font-family:Arial;font-size:9px;font-stretch:normal;font-style:normal;font-weight:normal;text-anchor:end;" transform="rotate(-0, 351.507656, 198.465568)" x="351.507656" y="198.465568">15000</text>
     </g>
    </g>
    <g id="ytick_18">
     <g id="line2d_122">
      <path clip-path="url(#p50a631cebc)" d="M 355.007656 173.525318 
L 638.28 173.525318 
" style="fill:none;stroke:#cbcbcb;"/>
     </g>
     <g id="line2d_123"/>
     <g id="text_54">
      <text style="font-family:Arial;font-size:9px;font-stretch:normal;font-style:normal;font-weight:normal;text-anchor:end;" transform="rotate(-0, 351.507656, 176.746333)" x="351.507656" y="176.746333">20000</text>
     </g>
    </g>
    <g id="ytick_19">
     <g id="line2d_124">
      <path clip-path="url(#p50a631cebc)" d="M 355.007656 151.806083 
L 638.28 151.806083 
" style="fill:none;stroke:#cbcbcb;"/>
     </g>
     <g id="line2d_125"/>
     <g id="text_55">
      <text style="font-family:Arial;font-size:9px;font-stretch:normal;font-style:normal;font-weight:normal;text-anchor:end;" transform="rotate(-0, 351.507656, 155.027099)" x="351.507656" y="155.027099">25000</text>
     </g>
    </g>
   </g>
   <g id="line2d_126">
    <path clip-path="url(#p50a631cebc)" d="M 367.883672 260.402255 
L 498.273704 260.402255 
L 501.533454 192.680811 
L 502.185404 194.713811 
L 503.16333 198.66203 
L 504.141255 203.561604 
L 505.445155 211.270155 
L 507.726981 226.590129 
L 510.008806 241.705858 
L 511.312707 249.126166 
L 512.290632 253.740124 
L 513.268557 257.354268 
L 513.920507 259.143415 
L 514.572457 260.402255 
L 515.224408 261.110936 
L 515.550383 261.255129 
L 515.876358 261.258281 
L 516.202333 261.120378 
L 516.854283 260.424142 
L 517.506233 259.177401 
L 518.158183 257.399818 
L 519.136109 253.801618 
L 520.114034 249.201426 
L 521.417934 241.795254 
L 523.373785 228.932105 
L 526.30756 209.328358 
L 527.611461 201.90805 
L 528.589386 197.294092 
L 529.567311 193.679948 
L 530.219261 191.890801 
L 530.871211 190.63196 
L 531.523162 189.92328 
L 531.849137 189.779087 
L 532.175112 189.775935 
L 532.501087 189.913838 
L 533.153037 190.610074 
L 533.804987 191.856814 
L 534.456937 193.634398 
L 535.434863 197.232598 
L 536.412788 201.83279 
L 537.716688 209.238962 
L 539.672539 222.102111 
L 542.606314 241.705858 
L 543.910215 249.126166 
L 544.88814 253.740124 
L 545.866065 257.354268 
L 546.518015 259.143415 
L 547.169965 260.402255 
L 547.821916 261.110936 
L 548.147891 261.255129 
L 548.473866 261.258281 
L 548.799841 261.120378 
L 549.451791 260.424142 
L 550.103741 259.177401 
L 550.755691 257.399818 
L 551.733616 253.801618 
L 552.711542 249.201426 
L 554.015442 241.795254 
L 555.971293 228.932105 
L 558.905068 209.328358 
L 560.208969 201.90805 
L 561.186894 197.294092 
L 562.164819 193.679948 
L 562.816769 191.890801 
L 563.468719 190.63196 
L 564.12067 189.92328 
L 564.446645 189.779087 
L 564.77262 189.775935 
L 565.098595 189.913838 
L 565.750545 190.610074 
L 566.402495 191.856814 
L 567.054445 193.634398 
L 568.03237 197.232598 
L 569.010296 201.83279 
L 570.314196 209.238962 
L 572.270046 222.102111 
L 575.203822 241.705858 
L 576.507723 249.126166 
L 577.485648 253.740124 
L 578.463573 257.354268 
L 579.115523 259.143415 
L 579.767473 260.402255 
L 580.419423 261.110936 
L 580.745399 261.255129 
L 581.071374 261.258281 
L 581.397349 261.120378 
L 582.049299 260.424142 
L 582.701249 259.177401 
L 583.353199 257.399818 
L 584.331124 253.801618 
L 585.30905 249.201426 
L 586.61295 241.795254 
L 588.5688 228.932105 
L 591.502576 209.328358 
L 592.806476 201.90805 
L 593.784402 197.294092 
L 594.762327 193.679948 
L 595.414277 191.890801 
L 596.066227 190.63196 
L 596.718177 189.92328 
L 597.044152 189.779087 
L 597.370128 189.775935 
L 597.696103 189.913838 
L 598.348053 190.610074 
L 599.000003 191.856814 
L 599.651953 193.634398 
L 600.629878 197.232598 
L 601.607804 201.83279 
L 602.911704 209.238962 
L 604.867554 222.102111 
L 607.80133 241.705858 
L 609.10523 249.126166 
L 610.083156 253.740124 
L 611.061081 257.354268 
L 611.713031 259.143415 
L 612.364981 260.402255 
L 613.016931 261.110936 
L 613.342906 261.255129 
L 613.668882 261.258281 
L 613.994857 261.120378 
L 614.646807 260.424142 
L 615.298757 259.177401 
L 615.950707 257.399818 
L 616.928632 253.801618 
L 617.906558 249.201426 
L 619.210458 241.795254 
L 621.166308 228.932105 
L 624.100084 209.328358 
L 625.403984 201.90805 
L 625.403984 201.90805 
" style="fill:none;stroke:#d9524f;stroke-width:3;"/>
   </g>
   <g id="line2d_127">
    <path clip-path="url(#p50a631cebc)" d="M 367.883672 260.402255 
L 498.273704 260.402255 
L 498.925654 257.604016 
L 499.577604 253.277893 
L 500.229554 247.253073 
L 500.881504 239.408515 
L 501.533454 229.676777 
L 504.793205 208.007449 
L 506.097105 200.804185 
L 507.075031 196.399447 
L 508.052956 193.026216 
L 508.704906 191.411108 
L 509.356856 190.333872 
L 510.008806 189.811496 
L 510.334781 189.761302 
L 510.660757 189.85222 
L 510.986732 190.08389 
L 511.638682 190.965281 
L 512.290632 192.391576 
L 512.942582 194.340279 
L 513.920507 198.173489 
L 514.898433 202.975361 
L 516.202333 210.586443 
L 518.158183 223.595621 
L 520.765984 241.034606 
L 522.069884 248.558578 
L 523.04781 253.274133 
L 524.025735 257.006382 
L 524.677685 258.88139 
L 525.329635 260.230224 
L 525.981585 261.031611 
L 526.30756 261.222719 
L 526.633535 261.272914 
L 526.95951 261.181996 
L 527.285486 260.950326 
L 527.937436 260.068934 
L 528.589386 258.64264 
L 529.241336 256.693937 
L 530.219261 252.860727 
L 531.197187 248.058855 
L 532.501087 240.447773 
L 534.456937 227.438594 
L 537.064738 209.99961 
L 538.368638 202.475638 
L 539.346563 197.760083 
L 540.324489 194.027834 
L 540.976439 192.152825 
L 541.628389 190.803992 
L 542.280339 190.002604 
L 542.606314 189.811496 
L 542.932289 189.761302 
L 543.258264 189.85222 
L 543.58424 190.08389 
L 544.23619 190.965281 
L 544.88814 192.391576 
L 545.54009 194.340279 
L 546.518015 198.173489 
L 547.49594 202.975361 
L 548.799841 210.586443 
L 550.755691 223.595621 
L 553.363492 241.034606 
L 554.667392 248.558578 
L 555.645317 253.274133 
L 556.623243 257.006382 
L 557.275193 258.88139 
L 557.927143 260.230224 
L 558.579093 261.031611 
L 558.905068 261.222719 
L 559.231043 261.272914 
L 559.557018 261.181996 
L 559.882993 260.950326 
L 560.534944 260.068934 
L 561.186894 258.64264 
L 561.838844 256.693937 
L 562.816769 252.860727 
L 563.794694 248.058855 
L 565.098595 240.447773 
L 567.054445 227.438594 
L 569.662246 209.99961 
L 570.966146 202.475638 
L 571.944071 197.760083 
L 572.921997 194.027834 
L 573.573947 192.152825 
L 574.225897 190.803992 
L 574.877847 190.002604 
L 575.203822 189.811496 
L 575.529797 189.761302 
L 575.855772 189.85222 
L 576.181747 190.08389 
L 576.833698 190.965281 
L 577.485648 192.391576 
L 578.137598 194.340279 
L 579.115523 198.173489 
L 580.093448 202.975361 
L 581.397349 210.586443 
L 583.353199 223.595621 
L 585.961 241.034606 
L 587.2649 248.558578 
L 588.242825 253.274133 
L 589.220751 257.006382 
L 589.872701 258.88139 
L 590.524651 260.230224 
L 591.176601 261.031611 
L 591.502576 261.222719 
L 591.828551 261.272914 
L 592.154526 261.181996 
L 592.480501 260.950326 
L 593.132452 260.068934 
L 593.784402 258.64264 
L 594.436352 256.693937 
L 595.414277 252.860727 
L 596.392202 248.058855 
L 597.696103 240.447773 
L 599.651953 227.438594 
L 602.259754 209.99961 
L 603.563654 202.475638 
L 604.541579 197.760083 
L 605.519505 194.027834 
L 606.171455 192.152825 
L 606.823405 190.803992 
L 607.475355 190.002604 
L 607.80133 189.811496 
L 608.127305 189.761302 
L 608.45328 189.85222 
L 608.779255 190.08389 
L 609.431205 190.965281 
L 610.083156 192.391576 
L 610.735106 194.340279 
L 611.713031 198.173489 
L 612.690956 202.975361 
L 613.994857 210.586443 
L 615.950707 223.595621 
L 618.558508 241.034606 
L 619.862408 248.558578 
L 620.840333 253.274133 
L 621.818259 257.006382 
L 622.470209 258.88139 
L 623.122159 260.230224 
L 623.774109 261.031611 
L 624.100084 261.222719 
L 624.426059 261.272914 
L 624.752034 261.181996 
L 625.078009 260.950326 
L 625.403984 260.578816 
L 625.403984 260.578816 
" style="fill:none;stroke:#5cb85c;stroke-width:3;"/>
   </g>
   <g id="line2d_128">
    <path clip-path="url(#p50a631cebc)" d="M 367.883672 260.402255 
L 498.273704 260.402255 
L 498.925654 256.43271 
L 499.577604 254.015797 
L 499.903579 253.33985 
L 500.229554 252.986236 
L 500.555529 252.926845 
L 500.881504 253.130882 
L 501.207479 253.565047 
L 501.533454 254.193736 
L 502.51138 257.688189 
L 503.16333 259.390691 
L 503.81528 260.558985 
L 504.46723 261.174648 
L 504.793205 261.271863 
L 505.11918 261.22797 
L 505.445155 261.043143 
L 506.097105 260.254157 
L 506.749056 258.917346 
L 507.401006 257.053794 
L 508.378931 253.337274 
L 509.356856 248.635211 
L 510.660757 241.124937 
L 512.616607 228.185935 
L 515.550383 208.664208 
L 516.854283 201.350818 
L 517.832208 196.84048 
L 518.810134 193.346026 
L 519.462084 191.643525 
L 520.114034 190.475231 
L 520.765984 189.859568 
L 521.091959 189.762353 
L 521.417934 189.806245 
L 521.743909 189.991073 
L 522.395859 190.780059 
L 523.04781 192.11687 
L 523.69976 193.980422 
L 524.677685 197.696942 
L 525.65561 202.399005 
L 526.95951 209.909279 
L 528.915361 222.848281 
L 531.849137 242.370008 
L 533.153037 249.683398 
L 534.130962 254.193736 
L 535.108887 257.688189 
L 535.760838 259.390691 
L 536.412788 260.558985 
L 537.064738 261.174648 
L 537.390713 261.271863 
L 537.716688 261.22797 
L 538.042663 261.043143 
L 538.694613 260.254157 
L 539.346563 258.917346 
L 539.998514 257.053794 
L 540.976439 253.337274 
L 541.954364 248.635211 
L 543.258264 241.124937 
L 545.214115 228.185935 
L 548.147891 208.664208 
L 549.451791 201.350818 
L 550.429716 196.84048 
L 551.407641 193.346026 
L 552.059592 191.643525 
L 552.711542 190.475231 
L 553.363492 189.859568 
L 553.689467 189.762353 
L 554.015442 189.806245 
L 554.341417 189.991073 
L 554.993367 190.780059 
L 555.645317 192.11687 
L 556.297268 193.980422 
L 557.275193 197.696942 
L 558.253118 202.399005 
L 559.557018 209.909279 
L 561.512869 222.848281 
L 564.446645 242.370008 
L 565.750545 249.683398 
L 566.72847 254.193736 
L 567.706395 257.688189 
L 568.358346 259.390691 
L 569.010296 260.558985 
L 569.662246 261.174648 
L 569.988221 261.271863 
L 570.314196 261.22797 
L 570.640171 261.043143 
L 571.292121 260.254157 
L 571.944071 258.917346 
L 572.596022 257.053794 
L 573.573947 253.337274 
L 574.551872 248.635211 
L 575.855772 241.124937 
L 577.811623 228.185935 
L 580.745399 208.664208 
L 582.049299 201.350818 
L 583.027224 196.84048 
L 584.005149 193.346026 
L 584.657099 191.643525 
L 585.30905 190.475231 
L 585.961 189.859568 
L 586.286975 189.762353 
L 586.61295 189.806245 
L 586.938925 189.991073 
L 587.590875 190.780059 
L 588.242825 192.11687 
L 588.894776 193.980422 
L 589.872701 197.696942 
L 590.850626 202.399005 
L 592.154526 209.909279 
L 594.110377 222.848281 
L 597.044152 242.370008 
L 598.348053 249.683398 
L 599.325978 254.193736 
L 600.303903 257.688189 
L 600.955853 259.390691 
L 601.607804 260.558985 
L 602.259754 261.174648 
L 602.585729 261.271863 
L 602.911704 261.22797 
L 603.237679 261.043143 
L 603.889629 260.254157 
L 604.541579 258.917346 
L 605.193529 257.053794 
L 606.171455 253.337274 
L 607.14938 248.635211 
L 608.45328 241.124937 
L 610.409131 228.185935 
L 613.342906 208.664208 
L 614.646807 201.350818 
L 615.624732 196.84048 
L 616.602657 193.346026 
L 617.254607 191.643525 
L 617.906558 190.475231 
L 618.558508 189.859568 
L 618.884483 189.762353 
L 619.210458 189.806245 
L 619.536433 189.991073 
L 620.188383 190.780059 
L 620.840333 192.11687 
L 621.492283 193.980422 
L 622.470209 197.696942 
L 623.448134 202.399005 
L 624.752034 209.909279 
L 625.403984 214.064457 
L 625.403984 214.064457 
" style="fill:none;stroke:#337ab7;stroke-width:3;"/>
   </g>
   <g id="line2d_129">
    <path clip-path="url(#p50a631cebc)" d="M 367.883672 260.402255 
L 498.273704 260.402255 
L 501.533454 155.746813 
L 625.403984 155.746813 
L 625.403984 155.746813 
" style="fill:none;stroke:#f0ad4e;stroke-width:3;"/>
   </g>
   <g id="patch_17">
    <path d="M 355.007656 266.549219 
L 355.007656 150.470508 
" style="fill:none;stroke:#ffffff;stroke-linecap:square;stroke-linejoin:miter;stroke-width:2;"/>
   </g>
   <g id="patch_18">
    <path d="M 638.28 266.549219 
L 638.28 150.470508 
" style="fill:none;stroke:#ffffff;stroke-linecap:square;stroke-linejoin:miter;stroke-width:2;"/>
   </g>
   <g id="patch_19">
    <path d="M 355.007656 266.549219 
L 638.28 266.549219 
" style="fill:none;stroke:#ffffff;stroke-linecap:square;stroke-linejoin:miter;stroke-width:2;"/>
   </g>
   <g id="patch_20">
    <path d="M 355.007656 150.470508 
L 638.28 150.470508 
" style="fill:none;stroke:#ffffff;stroke-linecap:square;stroke-linejoin:miter;stroke-width:2;"/>
   </g>
  </g>
 </g>
 <defs>
  <clipPath id="p5659b35b94">
   <rect height="116.078711" width="283.272344" x="33.491094" y="9.72"/>
  </clipPath>
  <clipPath id="pcaeae21f35">
   <rect height="116.078711" width="283.272344" x="355.007656" y="9.72"/>
  </clipPath>
  <clipPath id="p612d979e93">
   <rect height="116.078711" width="283.272344" x="33.491094" y="150.470508"/>
  </clipPath>
  <clipPath id="p50a631cebc">
   <rect height="116.078711" width="283.272344" x="355.007656" y="150.470508"/>
  </clipPath>
 </defs>
</svg>
