<?xml version="1.0" encoding="utf-8" standalone="no"?>
<!DOCTYPE svg PUBLIC "-//W3C//DTD SVG 1.1//EN"
  "http://www.w3.org/Graphics/SVG/1.1/DTD/svg11.dtd">
<!-- Created with matplotlib (https://matplotlib.org/) -->
<svg height="216pt" version="1.1" viewBox="0 0 648 216" width="648pt" xmlns="http://www.w3.org/2000/svg" xmlns:xlink="http://www.w3.org/1999/xlink">
 <metadata>
  <rdf:RDF xmlns:cc="http://creativecommons.org/ns#" xmlns:dc="http://purl.org/dc/elements/1.1/" xmlns:rdf="http://www.w3.org/1999/02/22-rdf-syntax-ns#">
   <cc:Work>
    <dc:type rdf:resource="http://purl.org/dc/dcmitype/StillImage"/>
    <dc:date>2021-02-24T11:26:27.133835</dc:date>
    <dc:format>image/svg+xml</dc:format>
    <dc:creator>
     <cc:Agent>
      <dc:title>Matplotlib v3.3.2, https://matplotlib.org/</dc:title>
     </cc:Agent>
    </dc:creator>
   </cc:Work>
  </rdf:RDF>
 </metadata>
 <defs>
  <style type="text/css">*{stroke-linecap:butt;stroke-linejoin:round;}</style>
 </defs>
 <g id="figure_1">
  <g id="axes_1">
   <g id="patch_1">
    <path d="M 33.491094 180.414094 
L 319.14 180.414094 
L 319.14 12.941016 
L 33.491094 12.941016 
z
" style="fill:#ffffff;"/>
   </g>
   <g id="matplotlib.axis_1">
    <g id="xtick_1">
     <g id="line2d_1">
      <path clip-path="url(#pbf5c17c0b2)" d="M 46.475135 180.414094 
L 46.475135 12.941016 
" style="fill:none;stroke:#cbcbcb;"/>
     </g>
     <g id="line2d_2"/>
     <g id="text_1">
      <text style="font-family:Arial;font-size:9px;font-stretch:normal;font-style:normal;font-weight:normal;text-anchor:middle;" transform="rotate(-0, 46.475135, 190.356125)" x="46.475135" y="190.356125">0.00</text>
     </g>
    </g>
    <g id="xtick_2">
     <g id="line2d_3">
      <path clip-path="url(#pbf5c17c0b2)" d="M 79.346125 180.414094 
L 79.346125 12.941016 
" style="fill:none;stroke:#cbcbcb;"/>
     </g>
     <g id="line2d_4"/>
     <g id="text_2">
      <text style="font-family:Arial;font-size:9px;font-stretch:normal;font-style:normal;font-weight:normal;text-anchor:middle;" transform="rotate(-0, 79.346125, 190.356125)" x="79.346125" y="190.356125">0.01</text>
     </g>
    </g>
    <g id="xtick_3">
     <g id="line2d_5">
      <path clip-path="url(#pbf5c17c0b2)" d="M 112.217116 180.414094 
L 112.217116 12.941016 
" style="fill:none;stroke:#cbcbcb;"/>
     </g>
     <g id="line2d_6"/>
     <g id="text_3">
      <text style="font-family:Arial;font-size:9px;font-stretch:normal;font-style:normal;font-weight:normal;text-anchor:middle;" transform="rotate(-0, 112.217116, 190.356125)" x="112.217116" y="190.356125">0.02</text>
     </g>
    </g>
    <g id="xtick_4">
     <g id="line2d_7">
      <path clip-path="url(#pbf5c17c0b2)" d="M 145.088106 180.414094 
L 145.088106 12.941016 
" style="fill:none;stroke:#cbcbcb;"/>
     </g>
     <g id="line2d_8"/>
     <g id="text_4">
      <text style="font-family:Arial;font-size:9px;font-stretch:normal;font-style:normal;font-weight:normal;text-anchor:middle;" transform="rotate(-0, 145.088106, 190.356125)" x="145.088106" y="190.356125">0.03</text>
     </g>
    </g>
    <g id="xtick_5">
     <g id="line2d_9">
      <path clip-path="url(#pbf5c17c0b2)" d="M 177.959096 180.414094 
L 177.959096 12.941016 
" style="fill:none;stroke:#cbcbcb;"/>
     </g>
     <g id="line2d_10"/>
     <g id="text_5">
      <text style="font-family:Arial;font-size:9px;font-stretch:normal;font-style:normal;font-weight:normal;text-anchor:middle;" transform="rotate(-0, 177.959096, 190.356125)" x="177.959096" y="190.356125">0.04</text>
     </g>
    </g>
    <g id="xtick_6">
     <g id="line2d_11">
      <path clip-path="url(#pbf5c17c0b2)" d="M 210.830087 180.414094 
L 210.830087 12.941016 
" style="fill:none;stroke:#cbcbcb;"/>
     </g>
     <g id="line2d_12"/>
     <g id="text_6">
      <text style="font-family:Arial;font-size:9px;font-stretch:normal;font-style:normal;font-weight:normal;text-anchor:middle;" transform="rotate(-0, 210.830087, 190.356125)" x="210.830087" y="190.356125">0.05</text>
     </g>
    </g>
    <g id="xtick_7">
     <g id="line2d_13">
      <path clip-path="url(#pbf5c17c0b2)" d="M 243.701077 180.414094 
L 243.701077 12.941016 
" style="fill:none;stroke:#cbcbcb;"/>
     </g>
     <g id="line2d_14"/>
     <g id="text_7">
      <text style="font-family:Arial;font-size:9px;font-stretch:normal;font-style:normal;font-weight:normal;text-anchor:middle;" transform="rotate(-0, 243.701077, 190.356125)" x="243.701077" y="190.356125">0.06</text>
     </g>
    </g>
    <g id="xtick_8">
     <g id="line2d_15">
      <path clip-path="url(#pbf5c17c0b2)" d="M 276.572067 180.414094 
L 276.572067 12.941016 
" style="fill:none;stroke:#cbcbcb;"/>
     </g>
     <g id="line2d_16"/>
     <g id="text_8">
      <text style="font-family:Arial;font-size:9px;font-stretch:normal;font-style:normal;font-weight:normal;text-anchor:middle;" transform="rotate(-0, 276.572067, 190.356125)" x="276.572067" y="190.356125">0.07</text>
     </g>
    </g>
    <g id="xtick_9">
     <g id="line2d_17">
      <path clip-path="url(#pbf5c17c0b2)" d="M 309.443058 180.414094 
L 309.443058 12.941016 
" style="fill:none;stroke:#cbcbcb;"/>
     </g>
     <g id="line2d_18"/>
     <g id="text_9">
      <text style="font-family:Arial;font-size:9px;font-stretch:normal;font-style:normal;font-weight:normal;text-anchor:middle;" transform="rotate(-0, 309.443058, 190.356125)" x="309.443058" y="190.356125">0.08</text>
     </g>
    </g>
    <g id="text_10">
     <text style="font-family:Arial;font-size:10.8px;font-stretch:normal;font-style:normal;font-weight:normal;text-anchor:middle;" transform="rotate(-0, 176.315547, 204.006937)" x="176.315547" y="204.006937">Time (s)</text>
    </g>
   </g>
   <g id="matplotlib.axis_2">
    <g id="ytick_1">
     <g id="line2d_19">
      <path clip-path="url(#pbf5c17c0b2)" d="M 33.491094 180.414094 
L 319.14 180.414094 
" style="fill:none;stroke:#cbcbcb;"/>
     </g>
     <g id="line2d_20"/>
     <g id="text_11">
      <text style="font-family:Arial;font-size:9px;font-stretch:normal;font-style:normal;font-weight:normal;text-anchor:end;" transform="rotate(-0, 29.991094, 183.635109)" x="29.991094" y="183.635109">−400</text>
     </g>
    </g>
    <g id="ytick_2">
     <g id="line2d_21">
      <path clip-path="url(#pbf5c17c0b2)" d="M 33.491094 159.479959 
L 319.14 159.479959 
" style="fill:none;stroke:#cbcbcb;"/>
     </g>
     <g id="line2d_22"/>
     <g id="text_12">
      <text style="font-family:Arial;font-size:9px;font-stretch:normal;font-style:normal;font-weight:normal;text-anchor:end;" transform="rotate(-0, 29.991094, 162.700975)" x="29.991094" y="162.700975">−300</text>
     </g>
    </g>
    <g id="ytick_3">
     <g id="line2d_23">
      <path clip-path="url(#pbf5c17c0b2)" d="M 33.491094 138.545824 
L 319.14 138.545824 
" style="fill:none;stroke:#cbcbcb;"/>
     </g>
     <g id="line2d_24"/>
     <g id="text_13">
      <text style="font-family:Arial;font-size:9px;font-stretch:normal;font-style:normal;font-weight:normal;text-anchor:end;" transform="rotate(-0, 29.991094, 141.76684)" x="29.991094" y="141.76684">−200</text>
     </g>
    </g>
    <g id="ytick_4">
     <g id="line2d_25">
      <path clip-path="url(#pbf5c17c0b2)" d="M 33.491094 117.611689 
L 319.14 117.611689 
" style="fill:none;stroke:#cbcbcb;"/>
     </g>
     <g id="line2d_26"/>
     <g id="text_14">
      <text style="font-family:Arial;font-size:9px;font-stretch:normal;font-style:normal;font-weight:normal;text-anchor:end;" transform="rotate(-0, 29.991094, 120.832705)" x="29.991094" y="120.832705">−100</text>
     </g>
    </g>
    <g id="ytick_5">
     <g id="line2d_27">
      <path clip-path="url(#pbf5c17c0b2)" d="M 33.491094 96.677555 
L 319.14 96.677555 
" style="fill:none;stroke:#cbcbcb;"/>
     </g>
     <g id="line2d_28"/>
     <g id="text_15">
      <text style="font-family:Arial;font-size:9px;font-stretch:normal;font-style:normal;font-weight:normal;text-anchor:end;" transform="rotate(-0, 29.991094, 99.89857)" x="29.991094" y="99.89857">0</text>
     </g>
    </g>
    <g id="ytick_6">
     <g id="line2d_29">
      <path clip-path="url(#pbf5c17c0b2)" d="M 33.491094 75.74342 
L 319.14 75.74342 
" style="fill:none;stroke:#cbcbcb;"/>
     </g>
     <g id="line2d_30"/>
     <g id="text_16">
      <text style="font-family:Arial;font-size:9px;font-stretch:normal;font-style:normal;font-weight:normal;text-anchor:end;" transform="rotate(-0, 29.991094, 78.964436)" x="29.991094" y="78.964436">100</text>
     </g>
    </g>
    <g id="ytick_7">
     <g id="line2d_31">
      <path clip-path="url(#pbf5c17c0b2)" d="M 33.491094 54.809285 
L 319.14 54.809285 
" style="fill:none;stroke:#cbcbcb;"/>
     </g>
     <g id="line2d_32"/>
     <g id="text_17">
      <text style="font-family:Arial;font-size:9px;font-stretch:normal;font-style:normal;font-weight:normal;text-anchor:end;" transform="rotate(-0, 29.991094, 58.030301)" x="29.991094" y="58.030301">200</text>
     </g>
    </g>
    <g id="ytick_8">
     <g id="line2d_33">
      <path clip-path="url(#pbf5c17c0b2)" d="M 33.491094 33.87515 
L 319.14 33.87515 
" style="fill:none;stroke:#cbcbcb;"/>
     </g>
     <g id="line2d_34"/>
     <g id="text_18">
      <text style="font-family:Arial;font-size:9px;font-stretch:normal;font-style:normal;font-weight:normal;text-anchor:end;" transform="rotate(-0, 29.991094, 37.096166)" x="29.991094" y="37.096166">300</text>
     </g>
    </g>
    <g id="ytick_9">
     <g id="line2d_35">
      <path clip-path="url(#pbf5c17c0b2)" d="M 33.491094 12.941016 
L 319.14 12.941016 
" style="fill:none;stroke:#cbcbcb;"/>
     </g>
     <g id="line2d_36"/>
     <g id="text_19">
      <text style="font-family:Arial;font-size:9px;font-stretch:normal;font-style:normal;font-weight:normal;text-anchor:end;" transform="rotate(-0, 29.991094, 16.162031)" x="29.991094" y="16.162031">400</text>
     </g>
    </g>
   </g>
   <g id="line2d_37">
    <path clip-path="url(#pbf5c17c0b2)" d="M 46.475135 28.306957 
L 47.132555 28.441871 
L 47.789975 28.846079 
L 48.447394 29.517988 
L 49.104814 30.454945 
L 50.090944 32.348974 
L 51.077074 34.813988 
L 52.063203 37.828108 
L 53.378043 42.654184 
L 54.692883 48.332241 
L 56.336432 56.490326 
L 58.308691 67.56677 
L 60.938371 83.866182 
L 67.841279 127.717157 
L 69.813538 138.582376 
L 71.457088 146.517576 
L 72.771927 151.99053 
L 74.086767 156.591166 
L 75.072897 159.424987 
L 76.059026 161.701857 
L 77.045156 163.401567 
L 77.702576 164.206397 
L 78.359996 164.744721 
L 79.017415 165.014416 
L 79.674835 165.014416 
L 80.332255 164.744721 
L 80.989675 164.206397 
L 81.647095 163.401567 
L 82.633224 161.701857 
L 83.619354 159.424987 
L 84.605484 156.591166 
L 85.920323 151.99053 
L 87.235163 146.517576 
L 88.878713 138.582376 
L 90.850972 127.717157 
L 93.151941 113.680631 
L 101.698399 60.042756 
L 103.670658 49.87466 
L 105.314208 42.654184 
L 106.629047 37.828108 
L 107.943887 33.930122 
L 108.930017 31.653252 
L 109.916146 29.953542 
L 110.573566 29.148712 
L 111.230986 28.610388 
L 111.888406 28.340694 
L 112.545826 28.340694 
L 113.203245 28.610388 
L 113.860665 29.148712 
L 114.518085 29.953542 
L 115.504215 31.653252 
L 116.490344 33.930122 
L 117.476474 36.763943 
L 118.791314 41.364579 
L 120.106153 46.837534 
L 121.749703 54.772733 
L 123.721962 65.637953 
L 126.022932 79.674478 
L 134.569389 133.312353 
L 136.541649 143.48045 
L 138.185198 150.700925 
L 139.500038 155.527002 
L 140.814877 159.424987 
L 141.801007 161.701857 
L 142.787137 163.401567 
L 143.444557 164.206397 
L 144.101976 164.744721 
L 144.759396 165.014416 
L 145.416816 165.014416 
L 146.074236 164.744721 
L 146.731656 164.206397 
L 147.389075 163.401567 
L 148.375205 161.701857 
L 149.361335 159.424987 
L 150.347464 156.591166 
L 151.662304 151.99053 
L 152.977144 146.517576 
L 154.620693 138.582376 
L 156.592953 127.717157 
L 158.893922 113.680631 
L 167.440379 60.042756 
L 169.412639 49.87466 
L 171.056188 42.654184 
L 172.371028 37.828108 
L 173.685868 33.930122 
L 174.671997 31.653252 
L 175.658127 29.953542 
L 176.315547 29.148712 
L 176.972967 28.610388 
L 177.630386 28.340694 
L 177.959096 28.306957 
L 178.616516 27.759514 
L 179.273936 27.48945 
L 179.931356 27.503201 
L 180.588776 27.806041 
L 181.246195 28.402037 
L 182.232325 30.792751 
L 183.218455 33.768262 
L 184.533294 38.59893 
L 185.848134 44.345533 
L 187.491684 52.677492 
L 189.463943 64.085973 
L 191.764912 78.824325 
L 200.31137 135.144093 
L 202.283629 145.820594 
L 203.927179 153.402094 
L 205.242018 158.469474 
L 206.556858 162.562359 
L 207.542988 164.953072 
L 208.529117 166.737768 
L 209.186537 167.582839 
L 209.843957 168.14808 
L 210.501377 168.431259 
L 211.158797 168.431259 
L 211.816216 168.14808 
L 212.473636 167.582839 
L 213.131056 166.737768 
L 214.117186 164.953072 
L 215.103316 162.562359 
L 216.089445 159.586847 
L 217.404285 154.756179 
L 218.719124 149.009577 
L 220.362674 140.677617 
L 222.334933 129.269137 
L 224.635903 114.530785 
L 233.18236 58.211016 
L 235.15462 47.534515 
L 236.798169 39.953016 
L 238.113009 34.885635 
L 239.427848 30.792751 
L 240.413978 28.402037 
L 241.400108 26.617342 
L 242.057528 25.77227 
L 242.714947 25.20703 
L 243.372367 24.923851 
L 244.029787 24.923851 
L 244.687207 25.20703 
L 245.344627 25.77227 
L 246.002046 26.617342 
L 246.988176 28.402037 
L 247.974306 30.792751 
L 248.960436 33.768262 
L 250.275275 38.59893 
L 251.590115 44.345533 
L 253.233664 52.677492 
L 255.205924 64.085973 
L 257.506893 78.824325 
L 266.053351 135.144093 
L 268.02561 145.820594 
L 269.66916 153.402094 
L 270.983999 158.469474 
L 272.298839 162.562359 
L 273.284968 164.953072 
L 274.271098 166.737768 
L 274.928518 167.582839 
L 275.585938 168.14808 
L 276.243358 168.431259 
L 276.900777 168.431259 
L 277.558197 168.14808 
L 278.215617 167.582839 
L 278.873037 166.737768 
L 279.859167 164.953072 
L 280.845296 162.562359 
L 281.831426 159.586847 
L 283.146266 154.756179 
L 284.461105 149.009577 
L 286.104655 140.677617 
L 288.076914 129.269137 
L 290.377883 114.530785 
L 298.924341 58.211016 
L 300.8966 47.534515 
L 302.54015 39.953016 
L 303.854989 34.885635 
L 305.169829 30.792751 
L 306.155959 28.402037 
L 306.155959 28.402037 
" style="fill:none;stroke:#d9524f;stroke-width:3;"/>
   </g>
   <g id="line2d_38">
    <path clip-path="url(#pbf5c17c0b2)" d="M 46.475135 130.862854 
L 48.447394 141.352312 
L 50.090944 148.898746 
L 51.405783 154.017963 
L 52.720623 158.232887 
L 53.706753 160.760085 
L 54.692883 162.718481 
L 55.679012 164.090693 
L 56.336432 164.673611 
L 56.993852 164.98818 
L 57.651272 165.033158 
L 58.308691 164.808367 
L 58.966111 164.314696 
L 59.623531 163.554091 
L 60.609661 161.919536 
L 61.595791 159.705889 
L 62.58192 156.932799 
L 63.89676 152.408329 
L 65.211599 147.004953 
L 66.855149 139.1458 
L 68.827408 128.353382 
L 71.128378 114.373168 
L 79.674835 60.649272 
L 81.647095 50.39914 
L 83.290644 43.095964 
L 84.605484 38.195789 
L 85.920323 34.217906 
L 86.906453 31.878062 
L 87.892583 30.113383 
L 88.550003 29.264416 
L 89.207422 28.681498 
L 89.864842 28.366929 
L 90.522262 28.321952 
L 91.179682 28.546742 
L 91.837102 29.040414 
L 92.494521 29.801018 
L 93.480651 31.435573 
L 94.466781 33.64922 
L 95.452911 36.422311 
L 96.76775 40.94678 
L 98.08259 46.350157 
L 99.726139 54.20931 
L 101.698399 65.001728 
L 103.999368 78.981942 
L 112.545826 132.705837 
L 114.518085 142.955969 
L 116.161635 150.259145 
L 117.476474 155.159321 
L 118.791314 159.137204 
L 119.777443 161.477047 
L 120.763573 163.241726 
L 121.420993 164.090693 
L 122.078413 164.673611 
L 122.735833 164.98818 
L 123.393252 165.033158 
L 124.050672 164.808367 
L 124.708092 164.314696 
L 125.365512 163.554091 
L 126.351642 161.919536 
L 127.337771 159.705889 
L 128.323901 156.932799 
L 129.638741 152.408329 
L 130.95358 147.004953 
L 132.59713 139.1458 
L 134.569389 128.353382 
L 136.870358 114.373168 
L 145.416816 60.649272 
L 147.389075 50.39914 
L 149.032625 43.095964 
L 150.347464 38.195789 
L 151.662304 34.217906 
L 152.648434 31.878062 
L 153.634564 30.113383 
L 154.291983 29.264416 
L 154.949403 28.681498 
L 155.606823 28.366929 
L 156.264243 28.321952 
L 156.921663 28.546742 
L 157.579082 29.040414 
L 158.236502 29.801018 
L 159.222632 31.435573 
L 160.208762 33.64922 
L 161.194891 36.422311 
L 162.509731 40.94678 
L 163.824571 46.350157 
L 165.46812 54.20931 
L 167.440379 65.001728 
L 169.741349 78.981942 
L 179.602646 140.780241 
L 181.246195 150.027273 
L 182.561035 155.62714 
L 183.875875 160.297337 
L 184.862004 163.144996 
L 185.848134 165.402686 
L 186.834264 167.050367 
L 187.491684 167.802478 
L 188.149103 168.273891 
L 188.806523 168.462746 
L 189.463943 168.368298 
L 190.121363 167.990919 
L 190.778783 167.332099 
L 191.436202 166.394438 
L 192.422332 164.473511 
L 193.408462 161.950822 
L 194.394592 158.848763 
L 195.709431 153.859743 
L 197.024271 147.968925 
L 198.66782 139.480018 
L 200.64008 127.922416 
L 203.269759 110.867203 
L 210.501377 62.753547 
L 212.473636 51.499193 
L 214.117186 43.327836 
L 215.432025 37.727969 
L 216.746865 33.057773 
L 217.732995 30.210113 
L 218.719124 27.952423 
L 219.705254 26.304742 
L 220.362674 25.552631 
L 221.020094 25.081218 
L 221.677514 24.892363 
L 222.334933 24.986811 
L 222.992353 25.36419 
L 223.649773 26.02301 
L 224.307193 26.960672 
L 225.293323 28.881599 
L 226.279452 31.404288 
L 227.265582 34.506346 
L 228.580422 39.495367 
L 229.895261 45.386184 
L 231.538811 53.875091 
L 233.51107 65.432694 
L 236.140749 82.487907 
L 243.372367 130.601562 
L 245.344627 141.855917 
L 246.988176 150.027273 
L 248.303016 155.62714 
L 249.617855 160.297337 
L 250.603985 163.144996 
L 251.590115 165.402686 
L 252.576245 167.050367 
L 253.233664 167.802478 
L 253.891084 168.273891 
L 254.548504 168.462746 
L 255.205924 168.368298 
L 255.863344 167.990919 
L 256.520763 167.332099 
L 257.178183 166.394438 
L 258.164313 164.473511 
L 259.150443 161.950822 
L 260.136572 158.848763 
L 261.451412 153.859743 
L 262.766252 147.968925 
L 264.409801 139.480018 
L 266.38206 127.922416 
L 269.01174 110.867203 
L 276.243358 62.753547 
L 278.215617 51.499193 
L 279.859167 43.327836 
L 281.174006 37.727969 
L 282.488846 33.057773 
L 283.474975 30.210113 
L 284.461105 27.952423 
L 285.447235 26.304742 
L 286.104655 25.552631 
L 286.762074 25.081218 
L 287.419494 24.892363 
L 288.076914 24.986811 
L 288.734334 25.36419 
L 289.391754 26.02301 
L 290.049174 26.960672 
L 291.035303 28.881599 
L 292.021433 31.404288 
L 293.007563 34.506346 
L 294.322402 39.495367 
L 295.637242 45.386184 
L 297.280791 53.875091 
L 299.253051 65.432694 
L 301.88273 82.487907 
L 306.155959 111.603354 
L 306.155959 111.603354 
" style="fill:none;stroke:#5cb85c;stroke-width:3;"/>
   </g>
   <g id="line2d_39">
    <path clip-path="url(#pbf5c17c0b2)" d="M 46.475135 130.862854 
L 48.776104 117.123152 
L 52.391913 93.814491 
L 56.007722 70.844354 
L 58.308691 57.657527 
L 59.952241 49.355312 
L 61.595791 42.218328 
L 62.91063 37.46688 
L 64.22547 33.64922 
L 65.211599 31.435573 
L 66.197729 29.801018 
L 66.855149 29.040414 
L 67.512569 28.546742 
L 68.169989 28.321952 
L 68.827408 28.366929 
L 69.484828 28.681498 
L 70.142248 29.264416 
L 70.799668 30.113383 
L 71.785798 31.878062 
L 72.771927 34.217906 
L 73.758057 37.112146 
L 75.072897 41.788444 
L 76.387736 47.330376 
L 78.031286 55.340752 
L 80.003545 66.277582 
L 82.304514 80.36888 
L 90.522262 132.095371 
L 92.494521 142.426414 
L 94.138071 149.811489 
L 95.452911 154.785226 
L 96.76775 158.842571 
L 97.75388 161.245132 
L 98.74001 163.074586 
L 99.397429 163.967597 
L 100.054849 164.595045 
L 100.712269 164.954453 
L 101.369689 165.044404 
L 102.027109 164.864542 
L 102.684528 164.415577 
L 103.341948 163.699281 
L 103.999368 162.718481 
L 104.985498 160.760085 
L 105.971627 158.232887 
L 106.957757 155.159321 
L 108.272597 150.259145 
L 109.587436 144.513956 
L 111.230986 136.283355 
L 113.203245 125.138921 
L 115.832925 108.784944 
L 122.407123 66.920544 
L 124.379382 55.913304 
L 126.022932 47.82863 
L 127.666481 40.94678 
L 128.981321 36.422311 
L 129.96745 33.64922 
L 130.95358 31.435573 
L 131.93971 29.801018 
L 132.59713 29.040414 
L 133.25455 28.546742 
L 133.911969 28.321952 
L 134.569389 28.366929 
L 135.226809 28.681498 
L 135.884229 29.264416 
L 136.541649 30.113383 
L 137.527778 31.878062 
L 138.513908 34.217906 
L 139.500038 37.112146 
L 140.814877 41.788444 
L 142.129717 47.330376 
L 143.773266 55.340752 
L 145.745526 66.277582 
L 148.046495 80.36888 
L 156.264243 132.095371 
L 158.236502 142.426414 
L 159.880052 149.811489 
L 161.194891 154.785226 
L 162.509731 158.842571 
L 163.495861 161.245132 
L 164.48199 163.074586 
L 165.13941 163.967597 
L 165.79683 164.595045 
L 166.45425 164.954453 
L 167.11167 165.044404 
L 167.769089 164.864542 
L 168.426509 164.415577 
L 169.083929 163.699281 
L 169.741349 162.718481 
L 170.727479 160.760085 
L 171.713608 158.232887 
L 172.699738 155.159321 
L 174.014578 150.259145 
L 175.329417 144.513956 
L 176.972967 136.283355 
L 179.931356 119.836908 
L 181.903615 107.164728 
L 188.149103 65.432694 
L 190.121363 53.875091 
L 191.764912 45.386184 
L 193.408462 38.160241 
L 194.723301 33.409549 
L 195.709431 30.497803 
L 196.695561 28.173474 
L 197.681691 26.457192 
L 198.33911 25.658557 
L 198.99653 25.140202 
L 199.65395 24.904171 
L 200.31137 24.951398 
L 200.96879 25.281695 
L 201.626209 25.893759 
L 202.283629 26.785174 
L 203.269759 28.638087 
L 204.255889 31.094923 
L 205.242018 34.133875 
L 206.556858 39.043988 
L 207.871698 44.863017 
L 209.515247 53.273912 
L 211.487507 64.757583 
L 213.788476 79.553446 
L 222.006223 133.866262 
L 223.978483 144.713857 
L 225.622032 152.468185 
L 226.936872 157.69061 
L 228.251712 161.950822 
L 229.237841 164.473511 
L 230.223971 166.394438 
L 230.881391 167.332099 
L 231.538811 167.990919 
L 232.19623 168.368298 
L 232.85365 168.462746 
L 233.51107 168.273891 
L 234.16849 167.802478 
L 234.82591 167.050367 
L 235.48333 166.020527 
L 236.469459 163.964211 
L 237.455589 161.310654 
L 238.441719 158.083409 
L 239.756558 152.938224 
L 241.071398 146.905776 
L 242.714947 138.263645 
L 244.687207 126.56199 
L 247.316886 109.390314 
L 253.891084 65.432694 
L 255.863344 53.875091 
L 257.506893 45.386184 
L 259.150443 38.160241 
L 260.465282 33.409549 
L 261.451412 30.497803 
L 262.437542 28.173474 
L 263.423671 26.457192 
L 264.081091 25.658557 
L 264.738511 25.140202 
L 265.395931 24.904171 
L 266.053351 24.951398 
L 266.71077 25.281695 
L 267.36819 25.893759 
L 268.02561 26.785174 
L 269.01174 28.638087 
L 269.997869 31.094923 
L 270.983999 34.133875 
L 272.298839 39.043988 
L 273.613678 44.863017 
L 275.257228 53.273912 
L 277.229487 64.757583 
L 279.530457 79.553446 
L 287.748204 133.866262 
L 289.720464 144.713857 
L 291.364013 152.468185 
L 292.678853 157.69061 
L 293.993692 161.950822 
L 294.979822 164.473511 
L 295.965952 166.394438 
L 296.623372 167.332099 
L 297.280791 167.990919 
L 297.938211 168.368298 
L 298.595631 168.462746 
L 299.253051 168.273891 
L 299.910471 167.802478 
L 300.56789 167.050367 
L 301.22531 166.020527 
L 302.21144 163.964211 
L 303.19757 161.310654 
L 304.183699 158.083409 
L 305.498539 152.938224 
L 306.155959 150.027273 
L 306.155959 150.027273 
" style="fill:none;stroke:#337ab7;stroke-width:3;"/>
   </g>
   <g id="line2d_40">
    <path clip-path="url(#pbf5c17c0b2)" d="M 46.475135 48.332241 
L 49.762234 48.332241 
L 53.049333 48.332241 
L 56.336432 48.332241 
L 59.623531 48.332241 
L 62.91063 48.332241 
L 66.197729 48.332241 
L 69.484828 48.332241 
L 72.771927 48.332241 
L 76.059026 48.332241 
L 79.346125 48.332241 
L 82.633224 48.332241 
L 85.920323 48.332241 
L 89.207422 48.332241 
L 92.494521 48.332241 
L 95.78162 48.332241 
L 99.06872 48.332241 
L 102.355819 48.332241 
L 105.642918 48.332241 
L 108.930017 48.332241 
L 112.217116 48.332241 
L 115.504215 48.332241 
L 118.791314 48.332241 
L 122.078413 48.332241 
L 125.365512 48.332241 
L 128.652611 48.332241 
L 131.93971 48.332241 
L 135.226809 48.332241 
L 138.513908 48.332241 
L 141.801007 48.332241 
L 145.088106 48.332241 
L 148.375205 48.332241 
L 151.662304 48.332241 
L 154.949403 48.332241 
L 158.236502 48.332241 
L 161.523601 48.332241 
L 164.8107 48.332241 
L 168.097799 48.332241 
L 171.384898 48.332241 
L 174.671997 48.332241 
L 177.959096 48.332241 
L 181.246195 45.914976 
L 184.533294 45.914976 
L 187.820394 45.914976 
L 191.107493 45.914976 
L 194.394592 45.914976 
L 197.681691 45.914976 
L 200.96879 45.914976 
L 204.255889 45.914976 
L 207.542988 45.914976 
L 210.830087 45.914976 
L 214.117186 45.914976 
L 217.404285 45.914976 
L 220.691384 45.914976 
L 223.978483 45.914976 
L 227.265582 45.914976 
L 230.552681 45.914976 
L 233.83978 45.914976 
L 237.126879 45.914976 
L 240.413978 45.914976 
L 243.701077 45.914976 
L 246.988176 45.914976 
L 250.275275 45.914976 
L 253.562374 45.914976 
L 256.849473 45.914976 
L 260.136572 45.914976 
L 263.423671 45.914976 
L 266.71077 45.914976 
L 269.997869 45.914976 
L 273.284968 45.914976 
L 276.572067 45.914976 
L 279.859167 45.914976 
L 283.146266 45.914976 
L 286.433365 45.914976 
L 289.720464 45.914976 
L 293.007563 45.914976 
L 296.294662 45.914976 
L 299.581761 45.914976 
L 302.86886 45.914976 
L 306.155959 45.914976 
" style="fill:none;stroke:#d9524f;stroke-dasharray:3,4.95;stroke-dashoffset:0;stroke-width:3;"/>
   </g>
   <g id="line2d_41">
    <path clip-path="url(#pbf5c17c0b2)" d="M 46.475135 28.306957 
L 47.132555 28.441871 
L 47.789975 28.846079 
L 48.447394 29.517988 
L 49.104814 30.454945 
L 50.090944 32.348974 
L 51.077074 34.813988 
L 52.063203 37.828108 
L 53.378043 42.654184 
L 54.692883 48.332241 
L 56.336432 56.490326 
L 58.308691 67.56677 
L 60.938371 83.866182 
L 67.841279 127.717157 
L 69.813538 138.582376 
L 71.457088 146.517576 
L 72.771927 151.99053 
L 74.086767 156.591166 
L 75.072897 159.424987 
L 76.059026 161.701857 
L 77.045156 163.401567 
L 77.702576 164.206397 
L 78.359996 164.744721 
L 79.017415 165.014416 
L 79.674835 165.014416 
L 80.332255 164.744721 
L 80.989675 164.206397 
L 81.647095 163.401567 
L 82.633224 161.701857 
L 83.619354 159.424987 
L 84.605484 156.591166 
L 85.920323 151.99053 
L 87.235163 146.517576 
L 88.878713 138.582376 
L 90.850972 127.717157 
L 93.151941 113.680631 
L 101.698399 60.042756 
L 103.670658 49.87466 
L 105.314208 42.654184 
L 106.629047 37.828108 
L 107.943887 33.930122 
L 108.930017 31.653252 
L 109.916146 29.953542 
L 110.573566 29.148712 
L 111.230986 28.610388 
L 111.888406 28.340694 
L 112.545826 28.340694 
L 113.203245 28.610388 
L 113.860665 29.148712 
L 114.518085 29.953542 
L 115.504215 31.653252 
L 116.490344 33.930122 
L 117.476474 36.763943 
L 118.791314 41.364579 
L 120.106153 46.837534 
L 121.749703 54.772733 
L 123.721962 65.637953 
L 126.022932 79.674478 
L 134.569389 133.312353 
L 136.541649 143.48045 
L 138.185198 150.700925 
L 139.500038 155.527002 
L 140.814877 159.424987 
L 141.801007 161.701857 
L 142.787137 163.401567 
L 143.444557 164.206397 
L 144.101976 164.744721 
L 144.759396 165.014416 
L 145.416816 165.014416 
L 146.074236 164.744721 
L 146.731656 164.206397 
L 147.389075 163.401567 
L 148.375205 161.701857 
L 149.361335 159.424987 
L 150.347464 156.591166 
L 151.662304 151.99053 
L 152.977144 146.517576 
L 154.620693 138.582376 
L 156.592953 127.717157 
L 158.893922 113.680631 
L 167.440379 60.042756 
L 169.412639 49.87466 
L 171.056188 42.654184 
L 172.371028 37.828108 
L 173.685868 33.930122 
L 174.671997 31.653252 
L 175.658127 29.953542 
L 176.315547 29.148712 
L 176.972967 28.610388 
L 177.630386 28.340694 
L 178.287806 28.340694 
L 178.945226 28.610388 
L 179.602646 29.148712 
L 180.260066 29.953542 
L 181.246195 31.653252 
L 182.232325 33.930122 
L 183.218455 36.763943 
L 184.533294 41.364579 
L 185.848134 46.837534 
L 187.491684 54.772733 
L 189.463943 65.637953 
L 191.764912 79.674478 
L 200.31137 133.312353 
L 202.283629 143.48045 
L 203.927179 150.700925 
L 205.242018 155.527002 
L 206.556858 159.424987 
L 207.542988 161.701857 
L 208.529117 163.401567 
L 209.186537 164.206397 
L 209.843957 164.744721 
L 210.501377 165.014416 
L 211.158797 165.014416 
L 211.816216 164.744721 
L 212.473636 164.206397 
L 213.131056 163.401567 
L 214.117186 161.701857 
L 215.103316 159.424987 
L 216.089445 156.591166 
L 217.404285 151.99053 
L 218.719124 146.517576 
L 220.362674 138.582376 
L 222.334933 127.717157 
L 224.635903 113.680631 
L 233.18236 60.042756 
L 235.15462 49.87466 
L 236.798169 42.654184 
L 238.113009 37.828108 
L 239.427848 33.930122 
L 240.413978 31.653252 
L 241.400108 29.953542 
L 242.057528 29.148712 
L 242.714947 28.610388 
L 243.372367 28.340694 
L 244.029787 28.340694 
L 244.687207 28.610388 
L 245.344627 29.148712 
L 246.002046 29.953542 
L 246.988176 31.653252 
L 247.974306 33.930122 
L 248.960436 36.763943 
L 250.275275 41.364579 
L 251.590115 46.837534 
L 253.233664 54.772733 
L 255.205924 65.637953 
L 257.506893 79.674478 
L 266.053351 133.312353 
L 268.02561 143.48045 
L 269.66916 150.700925 
L 270.983999 155.527002 
L 272.298839 159.424987 
L 273.284968 161.701857 
L 274.271098 163.401567 
L 274.928518 164.206397 
L 275.585938 164.744721 
L 276.243358 165.014416 
L 276.900777 165.014416 
L 277.558197 164.744721 
L 278.215617 164.206397 
L 278.873037 163.401567 
L 279.859167 161.701857 
L 280.845296 159.424987 
L 281.831426 156.591166 
L 283.146266 151.99053 
L 284.461105 146.517576 
L 286.104655 138.582376 
L 288.076914 127.717157 
L 290.377883 113.680631 
L 298.924341 60.042756 
L 300.8966 49.87466 
L 302.54015 42.654184 
L 303.854989 37.828108 
L 305.169829 33.930122 
L 306.155959 31.653252 
L 306.155959 31.653252 
" style="fill:none;stroke:#f0ad4e;stroke-width:3;"/>
   </g>
   <g id="line2d_42">
    <path clip-path="url(#pbf5c17c0b2)" d="M 46.475135 130.862854 
L 48.447394 141.352312 
L 50.090944 148.898746 
L 51.405783 154.017963 
L 52.720623 158.232887 
L 53.706753 160.760085 
L 54.692883 162.718481 
L 55.679012 164.090693 
L 56.336432 164.673611 
L 56.993852 164.98818 
L 57.651272 165.033158 
L 58.308691 164.808367 
L 58.966111 164.314696 
L 59.623531 163.554091 
L 60.609661 161.919536 
L 61.595791 159.705889 
L 62.58192 156.932799 
L 63.89676 152.408329 
L 65.211599 147.004953 
L 66.855149 139.1458 
L 68.827408 128.353382 
L 71.128378 114.373168 
L 79.674835 60.649272 
L 81.647095 50.39914 
L 83.290644 43.095964 
L 84.605484 38.195789 
L 85.920323 34.217906 
L 86.906453 31.878062 
L 87.892583 30.113383 
L 88.550003 29.264416 
L 89.207422 28.681498 
L 89.864842 28.366929 
L 90.522262 28.321952 
L 91.179682 28.546742 
L 91.837102 29.040414 
L 92.494521 29.801018 
L 93.480651 31.435573 
L 94.466781 33.64922 
L 95.452911 36.422311 
L 96.76775 40.94678 
L 98.08259 46.350157 
L 99.726139 54.20931 
L 101.698399 65.001728 
L 103.999368 78.981942 
L 112.545826 132.705837 
L 114.518085 142.955969 
L 116.161635 150.259145 
L 117.476474 155.159321 
L 118.791314 159.137204 
L 119.777443 161.477047 
L 120.763573 163.241726 
L 121.420993 164.090693 
L 122.078413 164.673611 
L 122.735833 164.98818 
L 123.393252 165.033158 
L 124.050672 164.808367 
L 124.708092 164.314696 
L 125.365512 163.554091 
L 126.351642 161.919536 
L 127.337771 159.705889 
L 128.323901 156.932799 
L 129.638741 152.408329 
L 130.95358 147.004953 
L 132.59713 139.1458 
L 134.569389 128.353382 
L 136.870358 114.373168 
L 145.416816 60.649272 
L 147.389075 50.39914 
L 149.032625 43.095964 
L 150.347464 38.195789 
L 151.662304 34.217906 
L 152.648434 31.878062 
L 153.634564 30.113383 
L 154.291983 29.264416 
L 154.949403 28.681498 
L 155.606823 28.366929 
L 156.264243 28.321952 
L 156.921663 28.546742 
L 157.579082 29.040414 
L 158.236502 29.801018 
L 159.222632 31.435573 
L 160.208762 33.64922 
L 161.194891 36.422311 
L 162.509731 40.94678 
L 163.824571 46.350157 
L 165.46812 54.20931 
L 167.440379 65.001728 
L 169.741349 78.981942 
L 178.287806 132.705837 
L 180.260066 142.955969 
L 181.903615 150.259145 
L 183.218455 155.159321 
L 184.533294 159.137204 
L 185.519424 161.477047 
L 186.505554 163.241726 
L 187.162974 164.090693 
L 187.820394 164.673611 
L 188.477813 164.98818 
L 189.135233 165.033158 
L 189.792653 164.808367 
L 190.450073 164.314696 
L 191.107493 163.554091 
L 192.093622 161.919536 
L 193.079752 159.705889 
L 194.065882 156.932799 
L 195.380721 152.408329 
L 196.695561 147.004953 
L 198.33911 139.1458 
L 200.31137 128.353382 
L 202.612339 114.373168 
L 211.158797 60.649272 
L 213.131056 50.39914 
L 214.774606 43.095964 
L 216.089445 38.195789 
L 217.404285 34.217906 
L 218.390415 31.878062 
L 219.376544 30.113383 
L 220.033964 29.264416 
L 220.691384 28.681498 
L 221.348804 28.366929 
L 222.006223 28.321952 
L 222.663643 28.546742 
L 223.321063 29.040414 
L 223.978483 29.801018 
L 224.964613 31.435573 
L 225.950742 33.64922 
L 226.936872 36.422311 
L 228.251712 40.94678 
L 229.566551 46.350157 
L 231.210101 54.20931 
L 233.18236 65.001728 
L 235.48333 78.981942 
L 244.029787 132.705837 
L 246.002046 142.955969 
L 247.645596 150.259145 
L 248.960436 155.159321 
L 250.275275 159.137204 
L 251.261405 161.477047 
L 252.247535 163.241726 
L 252.904954 164.090693 
L 253.562374 164.673611 
L 254.219794 164.98818 
L 254.877214 165.033158 
L 255.534634 164.808367 
L 256.192053 164.314696 
L 256.849473 163.554091 
L 257.835603 161.919536 
L 258.821733 159.705889 
L 259.807862 156.932799 
L 261.122702 152.408329 
L 262.437542 147.004953 
L 264.081091 139.1458 
L 266.053351 128.353382 
L 268.35432 114.373168 
L 276.900777 60.649272 
L 278.873037 50.39914 
L 280.516586 43.095964 
L 281.831426 38.195789 
L 283.146266 34.217906 
L 284.132395 31.878062 
L 285.118525 30.113383 
L 285.775945 29.264416 
L 286.433365 28.681498 
L 287.090784 28.366929 
L 287.748204 28.321952 
L 288.405624 28.546742 
L 289.063044 29.040414 
L 289.720464 29.801018 
L 290.706593 31.435573 
L 291.692723 33.64922 
L 292.678853 36.422311 
L 293.993692 40.94678 
L 295.308532 46.350157 
L 296.952082 54.20931 
L 298.924341 65.001728 
L 301.22531 78.981942 
L 306.155959 110.892601 
L 306.155959 110.892601 
" style="fill:none;stroke:#5bc0de;stroke-width:3;"/>
   </g>
   <g id="line2d_43">
    <path clip-path="url(#pbf5c17c0b2)" d="M 46.475135 130.862854 
L 48.776104 117.123152 
L 52.391913 93.814491 
L 56.007722 70.844354 
L 58.308691 57.657527 
L 59.952241 49.355312 
L 61.595791 42.218328 
L 62.91063 37.46688 
L 64.22547 33.64922 
L 65.211599 31.435573 
L 66.197729 29.801018 
L 66.855149 29.040414 
L 67.512569 28.546742 
L 68.169989 28.321952 
L 68.827408 28.366929 
L 69.484828 28.681498 
L 70.142248 29.264416 
L 70.799668 30.113383 
L 71.785798 31.878062 
L 72.771927 34.217906 
L 73.758057 37.112146 
L 75.072897 41.788444 
L 76.387736 47.330376 
L 78.031286 55.340752 
L 80.003545 66.277582 
L 82.304514 80.36888 
L 90.522262 132.095371 
L 92.494521 142.426414 
L 94.138071 149.811489 
L 95.452911 154.785226 
L 96.76775 158.842571 
L 97.75388 161.245132 
L 98.74001 163.074586 
L 99.397429 163.967597 
L 100.054849 164.595045 
L 100.712269 164.954453 
L 101.369689 165.044404 
L 102.027109 164.864542 
L 102.684528 164.415577 
L 103.341948 163.699281 
L 103.999368 162.718481 
L 104.985498 160.760085 
L 105.971627 158.232887 
L 106.957757 155.159321 
L 108.272597 150.259145 
L 109.587436 144.513956 
L 111.230986 136.283355 
L 113.203245 125.138921 
L 115.832925 108.784944 
L 122.407123 66.920544 
L 124.379382 55.913304 
L 126.022932 47.82863 
L 127.666481 40.94678 
L 128.981321 36.422311 
L 129.96745 33.64922 
L 130.95358 31.435573 
L 131.93971 29.801018 
L 132.59713 29.040414 
L 133.25455 28.546742 
L 133.911969 28.321952 
L 134.569389 28.366929 
L 135.226809 28.681498 
L 135.884229 29.264416 
L 136.541649 30.113383 
L 137.527778 31.878062 
L 138.513908 34.217906 
L 139.500038 37.112146 
L 140.814877 41.788444 
L 142.129717 47.330376 
L 143.773266 55.340752 
L 145.745526 66.277582 
L 148.046495 80.36888 
L 156.264243 132.095371 
L 158.236502 142.426414 
L 159.880052 149.811489 
L 161.194891 154.785226 
L 162.509731 158.842571 
L 163.495861 161.245132 
L 164.48199 163.074586 
L 165.13941 163.967597 
L 165.79683 164.595045 
L 166.45425 164.954453 
L 167.11167 165.044404 
L 167.769089 164.864542 
L 168.426509 164.415577 
L 169.083929 163.699281 
L 169.741349 162.718481 
L 170.727479 160.760085 
L 171.713608 158.232887 
L 172.699738 155.159321 
L 174.014578 150.259145 
L 175.329417 144.513956 
L 176.972967 136.283355 
L 178.945226 125.138921 
L 181.574905 108.784944 
L 188.149103 66.920544 
L 190.121363 55.913304 
L 191.764912 47.82863 
L 193.408462 40.94678 
L 194.723301 36.422311 
L 195.709431 33.64922 
L 196.695561 31.435573 
L 197.681691 29.801018 
L 198.33911 29.040414 
L 198.99653 28.546742 
L 199.65395 28.321952 
L 200.31137 28.366929 
L 200.96879 28.681498 
L 201.626209 29.264416 
L 202.283629 30.113383 
L 203.269759 31.878062 
L 204.255889 34.217906 
L 205.242018 37.112146 
L 206.556858 41.788444 
L 207.871698 47.330376 
L 209.515247 55.340752 
L 211.487507 66.277582 
L 213.788476 80.36888 
L 222.006223 132.095371 
L 223.978483 142.426414 
L 225.622032 149.811489 
L 226.936872 154.785226 
L 228.251712 158.842571 
L 229.237841 161.245132 
L 230.223971 163.074586 
L 230.881391 163.967597 
L 231.538811 164.595045 
L 232.19623 164.954453 
L 232.85365 165.044404 
L 233.51107 164.864542 
L 234.16849 164.415577 
L 234.82591 163.699281 
L 235.48333 162.718481 
L 236.469459 160.760085 
L 237.455589 158.232887 
L 238.441719 155.159321 
L 239.756558 150.259145 
L 241.071398 144.513956 
L 242.714947 136.283355 
L 244.687207 125.138921 
L 247.316886 108.784944 
L 253.891084 66.920544 
L 255.863344 55.913304 
L 257.506893 47.82863 
L 259.150443 40.94678 
L 260.465282 36.422311 
L 261.451412 33.64922 
L 262.437542 31.435573 
L 263.423671 29.801018 
L 264.081091 29.040414 
L 264.738511 28.546742 
L 265.395931 28.321952 
L 266.053351 28.366929 
L 266.71077 28.681498 
L 267.36819 29.264416 
L 268.02561 30.113383 
L 269.01174 31.878062 
L 269.997869 34.217906 
L 270.983999 37.112146 
L 272.298839 41.788444 
L 273.613678 47.330376 
L 275.257228 55.340752 
L 277.229487 66.277582 
L 279.530457 80.36888 
L 287.748204 132.095371 
L 289.720464 142.426414 
L 291.364013 149.811489 
L 292.678853 154.785226 
L 293.993692 158.842571 
L 294.979822 161.245132 
L 295.965952 163.074586 
L 296.623372 163.967597 
L 297.280791 164.595045 
L 297.938211 164.954453 
L 298.595631 165.044404 
L 299.253051 164.864542 
L 299.910471 164.415577 
L 300.56789 163.699281 
L 301.22531 162.718481 
L 302.21144 160.760085 
L 303.19757 158.232887 
L 304.183699 155.159321 
L 305.498539 150.259145 
L 306.155959 147.486811 
L 306.155959 147.486811 
" style="fill:none;stroke:#5e4485;stroke-width:3;"/>
   </g>
   <g id="line2d_44">
    <path clip-path="url(#pbf5c17c0b2)" d="M 46.475135 48.332241 
L 49.762234 48.332241 
L 53.049333 48.332241 
L 56.336432 48.332241 
L 59.623531 48.332241 
L 62.91063 48.332241 
L 66.197729 48.332241 
L 69.484828 48.332241 
L 72.771927 48.332241 
L 76.059026 48.332241 
L 79.346125 48.332241 
L 82.633224 48.332241 
L 85.920323 48.332241 
L 89.207422 48.332241 
L 92.494521 48.332241 
L 95.78162 48.332241 
L 99.06872 48.332241 
L 102.355819 48.332241 
L 105.642918 48.332241 
L 108.930017 48.332241 
L 112.217116 48.332241 
L 115.504215 48.332241 
L 118.791314 48.332241 
L 122.078413 48.332241 
L 125.365512 48.332241 
L 128.652611 48.332241 
L 131.93971 48.332241 
L 135.226809 48.332241 
L 138.513908 48.332241 
L 141.801007 48.332241 
L 145.088106 48.332241 
L 148.375205 48.332241 
L 151.662304 48.332241 
L 154.949403 48.332241 
L 158.236502 48.332241 
L 161.523601 48.332241 
L 164.8107 48.332241 
L 168.097799 48.332241 
L 171.384898 48.332241 
L 174.671997 48.332241 
L 177.959096 48.332241 
L 181.246195 48.332241 
L 184.533294 48.332241 
L 187.820394 48.332241 
L 191.107493 48.332241 
L 194.394592 48.332241 
L 197.681691 48.332241 
L 200.96879 48.332241 
L 204.255889 48.332241 
L 207.542988 48.332241 
L 210.830087 48.332241 
L 214.117186 48.332241 
L 217.404285 48.332241 
L 220.691384 48.332241 
L 223.978483 48.332241 
L 227.265582 48.332241 
L 230.552681 48.332241 
L 233.83978 48.332241 
L 237.126879 48.332241 
L 240.413978 48.332241 
L 243.701077 48.332241 
L 246.988176 48.332241 
L 250.275275 48.332241 
L 253.562374 48.332241 
L 256.849473 48.332241 
L 260.136572 48.332241 
L 263.423671 48.332241 
L 266.71077 48.332241 
L 269.997869 48.332241 
L 273.284968 48.332241 
L 276.572067 48.332241 
L 279.859167 48.332241 
L 283.146266 48.332241 
L 286.433365 48.332241 
L 289.720464 48.332241 
L 293.007563 48.332241 
L 296.294662 48.332241 
L 299.581761 48.332241 
L 302.86886 48.332241 
L 306.155959 48.332241 
" style="fill:none;stroke:#f0ad4e;stroke-dasharray:3,4.95;stroke-dashoffset:0;stroke-width:3;"/>
   </g>
   <g id="patch_2">
    <path d="M 33.491094 180.414094 
L 33.491094 12.941016 
" style="fill:none;stroke:#ffffff;stroke-linecap:square;stroke-linejoin:miter;stroke-width:2;"/>
   </g>
   <g id="patch_3">
    <path d="M 319.14 180.414094 
L 319.14 12.941016 
" style="fill:none;stroke:#ffffff;stroke-linecap:square;stroke-linejoin:miter;stroke-width:2;"/>
   </g>
   <g id="patch_4">
    <path d="M 33.491094 180.414094 
L 319.14 180.414094 
" style="fill:none;stroke:#ffffff;stroke-linecap:square;stroke-linejoin:miter;stroke-width:2;"/>
   </g>
   <g id="patch_5">
    <path d="M 33.491094 12.941016 
L 319.14 12.941016 
" style="fill:none;stroke:#ffffff;stroke-linecap:square;stroke-linejoin:miter;stroke-width:2;"/>
   </g>
   <g id="legend_1">
    <g id="patch_6">
     <path d="M 40.491094 175.414094 
L 184.491094 175.414094 
Q 186.491094 175.414094 186.491094 173.414094 
L 186.491094 116.414094 
Q 186.491094 114.414094 184.491094 114.414094 
L 40.491094 114.414094 
Q 38.491094 114.414094 38.491094 116.414094 
L 38.491094 173.414094 
Q 38.491094 175.414094 40.491094 175.414094 
z
" style="fill:#ffffff;opacity:0.8;stroke:#cccccc;stroke-linejoin:miter;stroke-width:0.5;"/>
    </g>
    <g id="line2d_45">
     <path d="M 42.491094 122.214094 
L 62.491094 122.214094 
" style="fill:none;stroke:#d9524f;stroke-width:3;"/>
    </g>
    <g id="line2d_46"/>
    <g id="text_20">
     <!-- $v_{1a}$ (V) -->
     <g transform="translate(70.491094 125.714094)">
      <text>
       <tspan style="font-family:DejaVu Sans;font-size:10px;font-style:oblique;font-weight:oblique;" x="0" y="-0.71875">v</tspan>
       <tspan style="font-family:DejaVu Sans;font-size:7px;font-style:book;font-weight:book;" x="5.917969" y="0.921875">1</tspan>
       <tspan style="font-family:DejaVu Sans;font-size:7px;font-style:oblique;font-weight:oblique;" x="10.371582" y="0.921875">a</tspan>
       <tspan style="font-family:Arial;font-size:10px;font-style:regular;font-weight:regular;" x="14.93457 17.712891 21.042969 27.712891" y="-0.71875"> (V)</tspan>
      </text>
     </g>
    </g>
    <g id="line2d_47">
     <path d="M 42.491094 136.714094 
L 62.491094 136.714094 
" style="fill:none;stroke:#5cb85c;stroke-width:3;"/>
    </g>
    <g id="line2d_48"/>
    <g id="text_21">
     <!-- $v_{1b}$ (V) -->
     <g transform="translate(70.491094 140.214094)">
      <text>
       <tspan style="font-family:DejaVu Sans;font-size:10px;font-style:oblique;font-weight:oblique;" x="0" y="-0.71875">v</tspan>
       <tspan style="font-family:DejaVu Sans;font-size:7px;font-style:book;font-weight:book;" x="5.917969" y="0.921875">1</tspan>
       <tspan style="font-family:DejaVu Sans;font-size:7px;font-style:oblique;font-weight:oblique;" x="10.371582" y="0.921875">b</tspan>
       <tspan style="font-family:Arial;font-size:10px;font-style:regular;font-weight:regular;" x="15.088379 17.866699 21.196777 27.866699" y="-0.71875"> (V)</tspan>
      </text>
     </g>
    </g>
    <g id="line2d_49">
     <path d="M 42.491094 151.214094 
L 62.491094 151.214094 
" style="fill:none;stroke:#337ab7;stroke-width:3;"/>
    </g>
    <g id="line2d_50"/>
    <g id="text_22">
     <!-- $v_{1c}$ (V) -->
     <g transform="translate(70.491094 154.714094)">
      <text>
       <tspan style="font-family:DejaVu Sans;font-size:10px;font-style:oblique;font-weight:oblique;" x="0" y="-0.71875">v</tspan>
       <tspan style="font-family:DejaVu Sans;font-size:7px;font-style:book;font-weight:book;" x="5.917969" y="0.921875">1</tspan>
       <tspan style="font-family:DejaVu Sans;font-size:7px;font-style:oblique;font-weight:oblique;" x="10.371582" y="0.921875">c</tspan>
       <tspan style="font-family:Arial;font-size:10px;font-style:regular;font-weight:regular;" x="14.493652 17.271973 20.602051 27.271973" y="-0.71875"> (V)</tspan>
      </text>
     </g>
    </g>
    <g id="line2d_51">
     <path d="M 42.491094 165.714094 
L 62.491094 165.714094 
" style="fill:none;stroke:#d9524f;stroke-dasharray:3,4.95;stroke-dashoffset:0;stroke-width:3;"/>
    </g>
    <g id="line2d_52"/>
    <g id="text_23">
     <!-- $V_{1a}$ (V) -->
     <g transform="translate(70.491094 169.214094)">
      <text>
       <tspan style="font-family:DejaVu Sans;font-size:10px;font-style:oblique;font-weight:oblique;" x="0" y="-0.703125">V</tspan>
       <tspan style="font-family:DejaVu Sans;font-size:7px;font-style:book;font-weight:book;" x="6.84082" y="0.9375">1</tspan>
       <tspan style="font-family:DejaVu Sans;font-size:7px;font-style:oblique;font-weight:oblique;" x="11.294434" y="0.9375">a</tspan>
       <tspan style="font-family:Arial;font-size:10px;font-style:regular;font-weight:regular;" x="15.857422 18.635742 21.96582 28.635742" y="-0.703125"> (V)</tspan>
      </text>
     </g>
    </g>
    <g id="line2d_53">
     <path d="M 122.491094 122.214094 
L 142.491094 122.214094 
" style="fill:none;stroke:#f0ad4e;stroke-width:3;"/>
    </g>
    <g id="line2d_54"/>
    <g id="text_24">
     <!-- $v_{2a}$ (V) -->
     <g transform="translate(150.491094 125.714094)">
      <text>
       <tspan style="font-family:DejaVu Sans;font-size:10px;font-style:oblique;font-weight:oblique;" x="0" y="-0.71875">v</tspan>
       <tspan style="font-family:DejaVu Sans;font-size:7px;font-style:book;font-weight:book;" x="5.917969" y="0.921875">2</tspan>
       <tspan style="font-family:DejaVu Sans;font-size:7px;font-style:oblique;font-weight:oblique;" x="10.371582" y="0.921875">a</tspan>
       <tspan style="font-family:Arial;font-size:10px;font-style:regular;font-weight:regular;" x="14.93457 17.712891 21.042969 27.712891" y="-0.71875"> (V)</tspan>
      </text>
     </g>
    </g>
    <g id="line2d_55">
     <path d="M 122.491094 136.714094 
L 142.491094 136.714094 
" style="fill:none;stroke:#5bc0de;stroke-width:3;"/>
    </g>
    <g id="line2d_56"/>
    <g id="text_25">
     <!-- $v_{2b}$ (V) -->
     <g transform="translate(150.491094 140.214094)">
      <text>
       <tspan style="font-family:DejaVu Sans;font-size:10px;font-style:oblique;font-weight:oblique;" x="0" y="-0.71875">v</tspan>
       <tspan style="font-family:DejaVu Sans;font-size:7px;font-style:book;font-weight:book;" x="5.917969" y="0.921875">2</tspan>
       <tspan style="font-family:DejaVu Sans;font-size:7px;font-style:oblique;font-weight:oblique;" x="10.371582" y="0.921875">b</tspan>
       <tspan style="font-family:Arial;font-size:10px;font-style:regular;font-weight:regular;" x="15.088379 17.866699 21.196777 27.866699" y="-0.71875"> (V)</tspan>
      </text>
     </g>
    </g>
    <g id="line2d_57">
     <path d="M 122.491094 151.214094 
L 142.491094 151.214094 
" style="fill:none;stroke:#5e4485;stroke-width:3;"/>
    </g>
    <g id="line2d_58"/>
    <g id="text_26">
     <!-- $v_{2c}$ (V) -->
     <g transform="translate(150.491094 154.714094)">
      <text>
       <tspan style="font-family:DejaVu Sans;font-size:10px;font-style:oblique;font-weight:oblique;" x="0" y="-0.71875">v</tspan>
       <tspan style="font-family:DejaVu Sans;font-size:7px;font-style:book;font-weight:book;" x="5.917969" y="0.921875">2</tspan>
       <tspan style="font-family:DejaVu Sans;font-size:7px;font-style:oblique;font-weight:oblique;" x="10.371582" y="0.921875">c</tspan>
       <tspan style="font-family:Arial;font-size:10px;font-style:regular;font-weight:regular;" x="14.493652 17.271973 20.602051 27.271973" y="-0.71875"> (V)</tspan>
      </text>
     </g>
    </g>
    <g id="line2d_59">
     <path d="M 122.491094 165.714094 
L 142.491094 165.714094 
" style="fill:none;stroke:#f0ad4e;stroke-dasharray:3,4.95;stroke-dashoffset:0;stroke-width:3;"/>
    </g>
    <g id="line2d_60"/>
    <g id="text_27">
     <!-- $V_{2a}$ (V) -->
     <g transform="translate(150.491094 169.214094)">
      <text>
       <tspan style="font-family:DejaVu Sans;font-size:10px;font-style:oblique;font-weight:oblique;" x="0" y="-0.703125">V</tspan>
       <tspan style="font-family:DejaVu Sans;font-size:7px;font-style:book;font-weight:book;" x="6.84082" y="0.9375">2</tspan>
       <tspan style="font-family:DejaVu Sans;font-size:7px;font-style:oblique;font-weight:oblique;" x="11.294434" y="0.9375">a</tspan>
       <tspan style="font-family:Arial;font-size:10px;font-style:regular;font-weight:regular;" x="15.857422 18.635742 21.96582 28.635742" y="-0.703125"> (V)</tspan>
      </text>
     </g>
    </g>
   </g>
  </g>
  <g id="axes_2">
   <g id="patch_7">
    <path d="M 352.631094 180.414094 
L 638.28 180.414094 
L 638.28 12.941016 
L 352.631094 12.941016 
z
" style="fill:#ffffff;"/>
   </g>
   <g id="matplotlib.axis_3">
    <g id="xtick_10">
     <g id="line2d_61">
      <path clip-path="url(#p2ed1680773)" d="M 365.615135 180.414094 
L 365.615135 12.941016 
" style="fill:none;stroke:#cbcbcb;"/>
     </g>
     <g id="line2d_62"/>
     <g id="text_28">
      <text style="font-family:Arial;font-size:9px;font-stretch:normal;font-style:normal;font-weight:normal;text-anchor:middle;" transform="rotate(-0, 365.615135, 190.356125)" x="365.615135" y="190.356125">0.00</text>
     </g>
    </g>
    <g id="xtick_11">
     <g id="line2d_63">
      <path clip-path="url(#p2ed1680773)" d="M 398.486125 180.414094 
L 398.486125 12.941016 
" style="fill:none;stroke:#cbcbcb;"/>
     </g>
     <g id="line2d_64"/>
     <g id="text_29">
      <text style="font-family:Arial;font-size:9px;font-stretch:normal;font-style:normal;font-weight:normal;text-anchor:middle;" transform="rotate(-0, 398.486125, 190.356125)" x="398.486125" y="190.356125">0.01</text>
     </g>
    </g>
    <g id="xtick_12">
     <g id="line2d_65">
      <path clip-path="url(#p2ed1680773)" d="M 431.357116 180.414094 
L 431.357116 12.941016 
" style="fill:none;stroke:#cbcbcb;"/>
     </g>
     <g id="line2d_66"/>
     <g id="text_30">
      <text style="font-family:Arial;font-size:9px;font-stretch:normal;font-style:normal;font-weight:normal;text-anchor:middle;" transform="rotate(-0, 431.357116, 190.356125)" x="431.357116" y="190.356125">0.02</text>
     </g>
    </g>
    <g id="xtick_13">
     <g id="line2d_67">
      <path clip-path="url(#p2ed1680773)" d="M 464.228106 180.414094 
L 464.228106 12.941016 
" style="fill:none;stroke:#cbcbcb;"/>
     </g>
     <g id="line2d_68"/>
     <g id="text_31">
      <text style="font-family:Arial;font-size:9px;font-stretch:normal;font-style:normal;font-weight:normal;text-anchor:middle;" transform="rotate(-0, 464.228106, 190.356125)" x="464.228106" y="190.356125">0.03</text>
     </g>
    </g>
    <g id="xtick_14">
     <g id="line2d_69">
      <path clip-path="url(#p2ed1680773)" d="M 497.099096 180.414094 
L 497.099096 12.941016 
" style="fill:none;stroke:#cbcbcb;"/>
     </g>
     <g id="line2d_70"/>
     <g id="text_32">
      <text style="font-family:Arial;font-size:9px;font-stretch:normal;font-style:normal;font-weight:normal;text-anchor:middle;" transform="rotate(-0, 497.099096, 190.356125)" x="497.099096" y="190.356125">0.04</text>
     </g>
    </g>
    <g id="xtick_15">
     <g id="line2d_71">
      <path clip-path="url(#p2ed1680773)" d="M 529.970087 180.414094 
L 529.970087 12.941016 
" style="fill:none;stroke:#cbcbcb;"/>
     </g>
     <g id="line2d_72"/>
     <g id="text_33">
      <text style="font-family:Arial;font-size:9px;font-stretch:normal;font-style:normal;font-weight:normal;text-anchor:middle;" transform="rotate(-0, 529.970087, 190.356125)" x="529.970087" y="190.356125">0.05</text>
     </g>
    </g>
    <g id="xtick_16">
     <g id="line2d_73">
      <path clip-path="url(#p2ed1680773)" d="M 562.841077 180.414094 
L 562.841077 12.941016 
" style="fill:none;stroke:#cbcbcb;"/>
     </g>
     <g id="line2d_74"/>
     <g id="text_34">
      <text style="font-family:Arial;font-size:9px;font-stretch:normal;font-style:normal;font-weight:normal;text-anchor:middle;" transform="rotate(-0, 562.841077, 190.356125)" x="562.841077" y="190.356125">0.06</text>
     </g>
    </g>
    <g id="xtick_17">
     <g id="line2d_75">
      <path clip-path="url(#p2ed1680773)" d="M 595.712067 180.414094 
L 595.712067 12.941016 
" style="fill:none;stroke:#cbcbcb;"/>
     </g>
     <g id="line2d_76"/>
     <g id="text_35">
      <text style="font-family:Arial;font-size:9px;font-stretch:normal;font-style:normal;font-weight:normal;text-anchor:middle;" transform="rotate(-0, 595.712067, 190.356125)" x="595.712067" y="190.356125">0.07</text>
     </g>
    </g>
    <g id="xtick_18">
     <g id="line2d_77">
      <path clip-path="url(#p2ed1680773)" d="M 628.583058 180.414094 
L 628.583058 12.941016 
" style="fill:none;stroke:#cbcbcb;"/>
     </g>
     <g id="line2d_78"/>
     <g id="text_36">
      <text style="font-family:Arial;font-size:9px;font-stretch:normal;font-style:normal;font-weight:normal;text-anchor:middle;" transform="rotate(-0, 628.583058, 190.356125)" x="628.583058" y="190.356125">0.08</text>
     </g>
    </g>
    <g id="text_37">
     <text style="font-family:Arial;font-size:10.8px;font-stretch:normal;font-style:normal;font-weight:normal;text-anchor:middle;" transform="rotate(-0, 495.455547, 204.006937)" x="495.455547" y="204.006937">Time (s)</text>
    </g>
   </g>
   <g id="matplotlib.axis_4">
    <g id="ytick_10">
     <g id="line2d_79">
      <path clip-path="url(#p2ed1680773)" d="M 352.631094 180.414094 
L 638.28 180.414094 
" style="fill:none;stroke:#cbcbcb;"/>
     </g>
     <g id="line2d_80"/>
     <g id="text_38">
      <text style="font-family:Arial;font-size:9px;font-stretch:normal;font-style:normal;font-weight:normal;text-anchor:end;" transform="rotate(-0, 349.131094, 183.635109)" x="349.131094" y="183.635109">−600</text>
     </g>
    </g>
    <g id="ytick_11">
     <g id="line2d_81">
      <path clip-path="url(#p2ed1680773)" d="M 352.631094 152.501914 
L 638.28 152.501914 
" style="fill:none;stroke:#cbcbcb;"/>
     </g>
     <g id="line2d_82"/>
     <g id="text_39">
      <text style="font-family:Arial;font-size:9px;font-stretch:normal;font-style:normal;font-weight:normal;text-anchor:end;" transform="rotate(-0, 349.131094, 155.72293)" x="349.131094" y="155.72293">−400</text>
     </g>
    </g>
    <g id="ytick_12">
     <g id="line2d_83">
      <path clip-path="url(#p2ed1680773)" d="M 352.631094 124.589734 
L 638.28 124.589734 
" style="fill:none;stroke:#cbcbcb;"/>
     </g>
     <g id="line2d_84"/>
     <g id="text_40">
      <text style="font-family:Arial;font-size:9px;font-stretch:normal;font-style:normal;font-weight:normal;text-anchor:end;" transform="rotate(-0, 349.131094, 127.81075)" x="349.131094" y="127.81075">−200</text>
     </g>
    </g>
    <g id="ytick_13">
     <g id="line2d_85">
      <path clip-path="url(#p2ed1680773)" d="M 352.631094 96.677555 
L 638.28 96.677555 
" style="fill:none;stroke:#cbcbcb;"/>
     </g>
     <g id="line2d_86"/>
     <g id="text_41">
      <text style="font-family:Arial;font-size:9px;font-stretch:normal;font-style:normal;font-weight:normal;text-anchor:end;" transform="rotate(-0, 349.131094, 99.89857)" x="349.131094" y="99.89857">0</text>
     </g>
    </g>
    <g id="ytick_14">
     <g id="line2d_87">
      <path clip-path="url(#p2ed1680773)" d="M 352.631094 68.765375 
L 638.28 68.765375 
" style="fill:none;stroke:#cbcbcb;"/>
     </g>
     <g id="line2d_88"/>
     <g id="text_42">
      <text style="font-family:Arial;font-size:9px;font-stretch:normal;font-style:normal;font-weight:normal;text-anchor:end;" transform="rotate(-0, 349.131094, 71.986391)" x="349.131094" y="71.986391">200</text>
     </g>
    </g>
    <g id="ytick_15">
     <g id="line2d_89">
      <path clip-path="url(#p2ed1680773)" d="M 352.631094 40.853195 
L 638.28 40.853195 
" style="fill:none;stroke:#cbcbcb;"/>
     </g>
     <g id="line2d_90"/>
     <g id="text_43">
      <text style="font-family:Arial;font-size:9px;font-stretch:normal;font-style:normal;font-weight:normal;text-anchor:end;" transform="rotate(-0, 349.131094, 44.074211)" x="349.131094" y="44.074211">400</text>
     </g>
    </g>
    <g id="ytick_16">
     <g id="line2d_91">
      <path clip-path="url(#p2ed1680773)" d="M 352.631094 12.941016 
L 638.28 12.941016 
" style="fill:none;stroke:#cbcbcb;"/>
     </g>
     <g id="line2d_92"/>
     <g id="text_44">
      <text style="font-family:Arial;font-size:9px;font-stretch:normal;font-style:normal;font-weight:normal;text-anchor:end;" transform="rotate(-0, 349.131094, 16.162031)" x="349.131094" y="16.162031">600</text>
     </g>
    </g>
   </g>
   <g id="line2d_93">
    <path clip-path="url(#p2ed1680773)" d="M 365.615135 96.677555 
L 497.099096 96.677555 
L 498.742646 67.190552 
L 500.386195 35.679991 
L 501.043615 35.289563 
L 501.701035 35.141404 
L 502.358455 35.236101 
L 503.015875 35.573279 
L 503.673294 36.151607 
L 504.330714 36.968804 
L 505.316844 38.635168 
L 506.302974 40.81672 
L 507.289103 43.494097 
L 508.603943 47.793533 
L 509.918783 52.863899 
L 511.562332 60.163101 
L 513.534592 70.091537 
L 516.164271 84.728654 
L 523.395889 125.949763 
L 525.368148 135.574153 
L 527.011698 142.554971 
L 528.326537 147.333621 
L 529.641377 151.313395 
L 530.627507 153.735704 
L 531.613636 155.65156 
L 532.599766 157.04396 
L 533.257186 157.675118 
L 533.914606 158.065547 
L 534.572025 158.213705 
L 535.229445 158.119009 
L 535.886865 157.781831 
L 536.544285 157.203502 
L 537.201705 156.386305 
L 538.187834 154.719941 
L 539.173964 152.538389 
L 540.160094 149.861013 
L 541.474933 145.561577 
L 542.789773 140.491211 
L 544.433323 133.192008 
L 546.405582 123.263573 
L 549.035261 108.626455 
L 556.266879 67.405346 
L 558.239138 57.780956 
L 559.882688 50.800138 
L 561.197528 46.021488 
L 562.512367 42.041714 
L 563.498497 39.619405 
L 564.484627 37.703549 
L 565.470756 36.31115 
L 566.128176 35.679991 
L 566.785596 35.289563 
L 567.443016 35.141404 
L 568.100436 35.236101 
L 568.757855 35.573279 
L 569.415275 36.151607 
L 570.072695 36.968804 
L 571.058825 38.635168 
L 572.044954 40.81672 
L 573.031084 43.494097 
L 574.345924 47.793533 
L 575.660763 52.863899 
L 577.304313 60.163101 
L 579.276572 70.091537 
L 581.906252 84.728654 
L 589.137869 125.949763 
L 591.110129 135.574153 
L 592.753678 142.554971 
L 594.068518 147.333621 
L 595.383358 151.313395 
L 596.369487 153.735704 
L 597.355617 155.65156 
L 598.341747 157.04396 
L 598.999167 157.675118 
L 599.656586 158.065547 
L 600.314006 158.213705 
L 600.971426 158.119009 
L 601.628846 157.781831 
L 602.286266 157.203502 
L 602.943685 156.386305 
L 603.929815 154.719941 
L 604.915945 152.538389 
L 605.902074 149.861013 
L 607.216914 145.561577 
L 608.531754 140.491211 
L 610.175303 133.192008 
L 612.147563 123.263573 
L 614.777242 108.626455 
L 622.00886 67.405346 
L 623.981119 57.780956 
L 625.295959 52.111054 
L 625.295959 52.111054 
" style="fill:none;stroke:#d9524f;stroke-width:3;"/>
   </g>
   <g id="line2d_94">
    <path clip-path="url(#p2ed1680773)" d="M 365.615135 96.677555 
L 497.099096 96.677555 
L 497.427806 97.342544 
L 497.756516 98.391202 
L 498.413936 101.628623 
L 499.071356 106.360509 
L 499.728776 112.545676 
L 500.386195 120.13132 
L 502.687165 131.977275 
L 504.330714 139.427981 
L 505.974264 145.826029 
L 507.289103 150.079713 
L 508.603943 153.491213 
L 509.590073 155.464266 
L 510.576202 156.915523 
L 511.233622 157.586587 
L 511.891042 158.01727 
L 512.548462 158.205873 
L 513.205882 158.151652 
L 513.863301 157.854821 
L 514.520721 157.316552 
L 515.178141 156.538967 
L 516.164271 154.930845 
L 517.150401 152.805662 
L 518.13653 150.182282 
L 519.45137 145.950327 
L 520.766209 140.941311 
L 522.409759 133.708711 
L 524.382018 123.843281 
L 526.682988 111.143856 
L 534.900735 64.612537 
L 536.872995 55.338582 
L 538.516544 48.716509 
L 539.831384 44.262263 
L 541.146223 40.634638 
L 542.132353 38.491321 
L 543.118483 36.864469 
L 544.104613 35.768523 
L 544.762032 35.33784 
L 545.419452 35.149236 
L 546.076872 35.203457 
L 546.734292 35.500288 
L 547.391712 36.038558 
L 548.049131 36.816142 
L 549.035261 38.424264 
L 550.021391 40.549447 
L 551.007521 43.172827 
L 552.32236 47.404782 
L 553.6372 52.413798 
L 555.280749 59.646399 
L 557.253009 69.511828 
L 559.553978 82.211253 
L 567.771726 128.742573 
L 569.743985 138.016528 
L 571.387535 144.638601 
L 572.702374 149.092846 
L 574.017214 152.720471 
L 575.003344 154.863788 
L 575.989473 156.49064 
L 576.975603 157.586587 
L 577.633023 158.01727 
L 578.290443 158.205873 
L 578.947862 158.151652 
L 579.605282 157.854821 
L 580.262702 157.316552 
L 580.920122 156.538967 
L 581.906252 154.930845 
L 582.892381 152.805662 
L 583.878511 150.182282 
L 585.193351 145.950327 
L 586.50819 140.941311 
L 588.15174 133.708711 
L 590.123999 123.843281 
L 592.424968 111.143856 
L 600.642716 64.612537 
L 602.614975 55.338582 
L 604.258525 48.716509 
L 605.573365 44.262263 
L 606.888204 40.634638 
L 607.874334 38.491321 
L 608.860464 36.864469 
L 609.846593 35.768523 
L 610.504013 35.33784 
L 611.161433 35.149236 
L 611.818853 35.203457 
L 612.476273 35.500288 
L 613.133692 36.038558 
L 613.791112 36.816142 
L 614.777242 38.424264 
L 615.763372 40.549447 
L 616.749501 43.172827 
L 618.064341 47.404782 
L 619.379181 52.413798 
L 621.02273 59.646399 
L 622.994989 69.511828 
L 625.295959 82.211253 
L 625.295959 82.211253 
" style="fill:none;stroke:#5cb85c;stroke-width:3;"/>
   </g>
   <g id="line2d_95">
    <path clip-path="url(#p2ed1680773)" d="M 365.615135 96.677555 
L 497.099096 96.677555 
L 498.413936 115.083607 
L 499.400066 126.053552 
L 500.386195 134.221352 
L 502.358455 124.420011 
L 504.659424 111.769413 
L 512.877172 65.164309 
L 514.849431 55.818202 
L 516.492981 49.122896 
L 517.80782 44.602764 
L 519.12266 40.903882 
L 520.10879 38.704272 
L 521.094919 37.019237 
L 522.081049 35.863733 
L 522.738469 35.392843 
L 523.395889 35.163816 
L 524.053308 35.177555 
L 524.710728 35.434006 
L 525.368148 35.932158 
L 526.025568 36.670044 
L 527.011698 38.219749 
L 527.997827 40.28833 
L 528.983957 42.857425 
L 530.298797 47.021435 
L 531.613636 51.968552 
L 533.257186 59.133757 
L 535.229445 68.935098 
L 537.530415 81.585696 
L 545.748162 128.1908 
L 547.720422 137.536908 
L 549.363971 144.232214 
L 550.678811 148.752346 
L 551.99365 152.451227 
L 552.97978 154.650837 
L 553.96591 156.335872 
L 554.952039 157.491376 
L 555.609459 157.962266 
L 556.266879 158.191294 
L 556.924299 158.177555 
L 557.581719 157.921103 
L 558.239138 157.422951 
L 558.896558 156.685065 
L 559.882688 155.13536 
L 560.868818 153.06678 
L 561.854947 150.497685 
L 563.169787 146.333674 
L 564.484627 141.386557 
L 566.128176 134.221352 
L 568.100436 124.420011 
L 570.401405 111.769413 
L 578.619152 65.164309 
L 580.591412 55.818202 
L 582.234961 49.122896 
L 583.549801 44.602764 
L 584.864641 40.903882 
L 585.85077 38.704272 
L 586.8369 37.019237 
L 587.82303 35.863733 
L 588.48045 35.392843 
L 589.137869 35.163816 
L 589.795289 35.177555 
L 590.452709 35.434006 
L 591.110129 35.932158 
L 591.767549 36.670044 
L 592.753678 38.219749 
L 593.739808 40.28833 
L 594.725938 42.857425 
L 596.040777 47.021435 
L 597.355617 51.968552 
L 598.999167 59.133757 
L 600.971426 68.935098 
L 603.272395 81.585696 
L 611.490143 128.1908 
L 613.462402 137.536908 
L 615.105952 144.232214 
L 616.420791 148.752346 
L 617.735631 152.451227 
L 618.721761 154.650837 
L 619.70789 156.335872 
L 620.69402 157.491376 
L 621.35144 157.962266 
L 622.00886 158.191294 
L 622.66628 158.177555 
L 623.323699 157.921103 
L 623.981119 157.422951 
L 624.638539 156.685065 
L 625.295959 155.710357 
L 625.295959 155.710357 
" style="fill:none;stroke:#337ab7;stroke-width:3;"/>
   </g>
   <g id="line2d_96">
    <path clip-path="url(#p2ed1680773)" d="M 365.615135 96.677555 
L 368.902234 96.677555 
L 372.189333 96.677555 
L 375.476432 96.677555 
L 378.763531 96.677555 
L 382.05063 96.677555 
L 385.337729 96.677555 
L 388.624828 96.677555 
L 391.911927 96.677555 
L 395.199026 96.677555 
L 398.486125 96.677555 
L 401.773224 96.677555 
L 405.060323 96.677555 
L 408.347422 96.677555 
L 411.634521 96.677555 
L 414.92162 96.677555 
L 418.20872 96.677555 
L 421.495819 96.677555 
L 424.782918 96.677555 
L 428.070017 96.677555 
L 431.357116 96.677555 
L 434.644215 96.677555 
L 437.931314 96.677555 
L 441.218413 96.677555 
L 444.505512 96.677555 
L 447.792611 96.677555 
L 451.07971 96.677555 
L 454.366809 96.677555 
L 457.653908 96.677555 
L 460.941007 96.677555 
L 464.228106 96.677555 
L 467.515205 96.677555 
L 470.802304 96.677555 
L 474.089403 96.677555 
L 477.376502 96.677555 
L 480.663601 96.677555 
L 483.9507 96.677555 
L 487.237799 96.677555 
L 490.524898 96.677555 
L 493.811997 96.677555 
L 497.099096 96.677555 
L 500.386195 53.163884 
L 503.673294 53.163884 
L 506.960394 53.163884 
L 510.247493 53.163884 
L 513.534592 53.163884 
L 516.821691 53.163884 
L 520.10879 53.163884 
L 523.395889 53.163884 
L 526.682988 53.163884 
L 529.970087 53.163884 
L 533.257186 53.163884 
L 536.544285 53.163884 
L 539.831384 53.163884 
L 543.118483 53.163884 
L 546.405582 53.163884 
L 549.692681 53.163884 
L 552.97978 53.163884 
L 556.266879 53.163884 
L 559.553978 53.163884 
L 562.841077 53.163884 
L 566.128176 53.163884 
L 569.415275 53.163884 
L 572.702374 53.163884 
L 575.989473 53.163884 
L 579.276572 53.163884 
L 582.563671 53.163884 
L 585.85077 53.163884 
L 589.137869 53.163884 
L 592.424968 53.163884 
L 595.712067 53.163884 
L 598.999167 53.163884 
L 602.286266 53.163884 
L 605.573365 53.163884 
L 608.860464 53.163884 
L 612.147563 53.163884 
L 615.434662 53.163884 
L 618.721761 53.163884 
L 622.00886 53.163884 
L 625.295959 53.163884 
" style="fill:none;stroke:#d9524f;stroke-dasharray:3,4.95;stroke-dashoffset:0;stroke-width:3;"/>
   </g>
   <g id="patch_8">
    <path d="M 352.631094 180.414094 
L 352.631094 12.941016 
" style="fill:none;stroke:#ffffff;stroke-linecap:square;stroke-linejoin:miter;stroke-width:2;"/>
   </g>
   <g id="patch_9">
    <path d="M 638.28 180.414094 
L 638.28 12.941016 
" style="fill:none;stroke:#ffffff;stroke-linecap:square;stroke-linejoin:miter;stroke-width:2;"/>
   </g>
   <g id="patch_10">
    <path d="M 352.631094 180.414094 
L 638.28 180.414094 
" style="fill:none;stroke:#ffffff;stroke-linecap:square;stroke-linejoin:miter;stroke-width:2;"/>
   </g>
   <g id="patch_11">
    <path d="M 352.631094 12.941016 
L 638.28 12.941016 
" style="fill:none;stroke:#ffffff;stroke-linecap:square;stroke-linejoin:miter;stroke-width:2;"/>
   </g>
   <g id="legend_2">
    <g id="patch_12">
     <path d="M 359.631094 79.841016 
L 423.731094 79.841016 
Q 425.731094 79.841016 425.731094 77.841016 
L 425.731094 19.941016 
Q 425.731094 17.941016 423.731094 17.941016 
L 359.631094 17.941016 
Q 357.631094 17.941016 357.631094 19.941016 
L 357.631094 77.841016 
Q 357.631094 79.841016 359.631094 79.841016 
z
" style="fill:#ffffff;opacity:0.8;stroke:#cccccc;stroke-linejoin:miter;stroke-width:0.5;"/>
    </g>
    <g id="line2d_97">
     <path d="M 361.631094 26.041016 
L 381.631094 26.041016 
" style="fill:none;stroke:#d9524f;stroke-width:3;"/>
    </g>
    <g id="line2d_98"/>
    <g id="text_45">
     <!-- $i_{a}$ (A) -->
     <g transform="translate(389.631094 29.541016)">
      <text>
       <tspan style="font-family:DejaVu Sans;font-size:10px;font-style:oblique;font-weight:oblique;" x="0" y="-0.40625">i</tspan>
       <tspan style="font-family:DejaVu Sans;font-size:7px;font-style:oblique;font-weight:oblique;" x="2.77832" y="1.234375">a</tspan>
       <tspan style="font-family:Arial;font-size:10px;font-style:regular;font-weight:regular;" x="7.341309 10.119629 13.449707 20.119629" y="-0.40625"> (A)</tspan>
      </text>
     </g>
    </g>
    <g id="line2d_99">
     <path d="M 361.631094 40.841016 
L 381.631094 40.841016 
" style="fill:none;stroke:#5cb85c;stroke-width:3;"/>
    </g>
    <g id="line2d_100"/>
    <g id="text_46">
     <!-- $i_{b}$ (A) -->
     <g transform="translate(389.631094 44.341016)">
      <text>
       <tspan style="font-family:DejaVu Sans;font-size:10px;font-style:oblique;font-weight:oblique;" x="0" y="-0.40625">i</tspan>
       <tspan style="font-family:DejaVu Sans;font-size:7px;font-style:oblique;font-weight:oblique;" x="2.77832" y="1.234375">b</tspan>
       <tspan style="font-family:Arial;font-size:10px;font-style:regular;font-weight:regular;" x="7.495117 10.273438 13.603516 20.273438" y="-0.40625"> (A)</tspan>
      </text>
     </g>
    </g>
    <g id="line2d_101">
     <path d="M 361.631094 55.641016 
L 381.631094 55.641016 
" style="fill:none;stroke:#337ab7;stroke-width:3;"/>
    </g>
    <g id="line2d_102"/>
    <g id="text_47">
     <!-- $i_{c}$ (A) -->
     <g transform="translate(389.631094 59.141016)">
      <text>
       <tspan style="font-family:DejaVu Sans;font-size:10px;font-style:oblique;font-weight:oblique;" x="0" y="-0.40625">i</tspan>
       <tspan style="font-family:DejaVu Sans;font-size:7px;font-style:oblique;font-weight:oblique;" x="2.77832" y="1.234375">c</tspan>
       <tspan style="font-family:Arial;font-size:10px;font-style:regular;font-weight:regular;" x="6.900391 9.678711 13.008789 19.678711" y="-0.40625"> (A)</tspan>
      </text>
     </g>
    </g>
    <g id="line2d_103">
     <path d="M 361.631094 70.141016 
L 381.631094 70.141016 
" style="fill:none;stroke:#d9524f;stroke-dasharray:3,4.95;stroke-dashoffset:0;stroke-width:3;"/>
    </g>
    <g id="line2d_104"/>
    <g id="text_48">
     <!-- $I_{12c}$ (A) -->
     <g transform="translate(389.631094 73.641016)">
      <text>
       <tspan style="font-family:DejaVu Sans;font-size:10px;font-style:oblique;font-weight:oblique;" x="0" y="-0.703125">I</tspan>
       <tspan style="font-family:DejaVu Sans;font-size:7px;font-style:book;font-weight:book;" x="2.949219 7.402832" y="0.9375">12</tspan>
       <tspan style="font-family:DejaVu Sans;font-size:7px;font-style:oblique;font-weight:oblique;" x="11.856445" y="0.9375">c</tspan>
       <tspan style="font-family:Arial;font-size:10px;font-style:regular;font-weight:regular;" x="15.978516 18.756836 22.086914 28.756836" y="-0.703125"> (A)</tspan>
      </text>
     </g>
    </g>
   </g>
  </g>
 </g>
 <defs>
  <clipPath id="pbf5c17c0b2">
   <rect height="167.473078" width="285.648906" x="33.491094" y="12.941016"/>
  </clipPath>
  <clipPath id="p2ed1680773">
   <rect height="167.473078" width="285.648906" x="352.631094" y="12.941016"/>
  </clipPath>
 </defs>
</svg>
