<?xml version="1.0" encoding="utf-8" standalone="no"?>
<!DOCTYPE svg PUBLIC "-//W3C//DTD SVG 1.1//EN"
  "http://www.w3.org/Graphics/SVG/1.1/DTD/svg11.dtd">
<svg xmlns:xlink="http://www.w3.org/1999/xlink" width="460.8pt" height="345.6pt" viewBox="0 0 460.8 345.6" xmlns="http://www.w3.org/2000/svg" version="1.1">
 <metadata>
  <rdf:RDF xmlns:dc="http://purl.org/dc/elements/1.1/" xmlns:cc="http://creativecommons.org/ns#" xmlns:rdf="http://www.w3.org/1999/02/22-rdf-syntax-ns#">
   <cc:Work>
    <dc:type rdf:resource="http://purl.org/dc/dcmitype/StillImage"/>
    <dc:date>2023-10-25T20:48:52.807801</dc:date>
    <dc:format>image/svg+xml</dc:format>
    <dc:creator>
     <cc:Agent>
      <dc:title>Matplotlib v3.7.2, https://matplotlib.org/</dc:title>
     </cc:Agent>
    </dc:creator>
   </cc:Work>
  </rdf:RDF>
 </metadata>
 <defs>
  <style type="text/css">*{stroke-linejoin: round; stroke-linecap: butt}</style>
 </defs>
 <g id="figure_1">
  <g id="patch_1">
   <path d="M 0 345.6 
L 460.8 345.6 
L 460.8 0 
L 0 0 
z
" style="fill: #ffffff"/>
  </g>
  <g id="axes_1">
   <g id="patch_2">
    <path d="M 57.6 307.584 
L 414.72 307.584 
L 414.72 41.472 
L 57.6 41.472 
z
" style="fill: #ffffff"/>
   </g>
   <g id="matplotlib.axis_1">
    <g id="xtick_1">
     <g id="line2d_1">
      <path d="M 73.832727 307.584 
L 73.832727 41.472 
" clip-path="url(#p1abcde915c)" style="fill: none; stroke: #b0b0b0; stroke-width: 0.8; stroke-linecap: square"/>
     </g>
     <g id="line2d_2">
      <defs>
       <path id="m14801b7f84" d="M 0 0 
L 0 3.5 
" style="stroke: #000000; stroke-width: 0.8"/>
      </defs>
      <g>
       <use xlink:href="#m14801b7f84" x="73.832727" y="307.584" style="stroke: #000000; stroke-width: 0.8"/>
      </g>
     </g>
     <g id="text_1">
      <!-- 0 -->
      <g transform="translate(70.651477 322.182437) scale(0.1 -0.1)">
       <defs>
        <path id="DejaVuSans-30" d="M 2034 4250 
Q 1547 4250 1301 3770 
Q 1056 3291 1056 2328 
Q 1056 1369 1301 889 
Q 1547 409 2034 409 
Q 2525 409 2770 889 
Q 3016 1369 3016 2328 
Q 3016 3291 2770 3770 
Q 2525 4250 2034 4250 
z
M 2034 4750 
Q 2819 4750 3233 4129 
Q 3647 3509 3647 2328 
Q 3647 1150 3233 529 
Q 2819 -91 2034 -91 
Q 1250 -91 836 529 
Q 422 1150 422 2328 
Q 422 3509 836 4129 
Q 1250 4750 2034 4750 
z
" transform="scale(0.015625)"/>
       </defs>
       <use xlink:href="#DejaVuSans-30"/>
      </g>
     </g>
    </g>
    <g id="xtick_2">
     <g id="line2d_3">
      <path d="M 138.776625 307.584 
L 138.776625 41.472 
" clip-path="url(#p1abcde915c)" style="fill: none; stroke: #b0b0b0; stroke-width: 0.8; stroke-linecap: square"/>
     </g>
     <g id="line2d_4">
      <g>
       <use xlink:href="#m14801b7f84" x="138.776625" y="307.584" style="stroke: #000000; stroke-width: 0.8"/>
      </g>
     </g>
     <g id="text_2">
      <!-- 1 -->
      <g transform="translate(135.595375 322.182437) scale(0.1 -0.1)">
       <defs>
        <path id="DejaVuSans-31" d="M 794 531 
L 1825 531 
L 1825 4091 
L 703 3866 
L 703 4441 
L 1819 4666 
L 2450 4666 
L 2450 531 
L 3481 531 
L 3481 0 
L 794 0 
L 794 531 
z
" transform="scale(0.015625)"/>
       </defs>
       <use xlink:href="#DejaVuSans-31"/>
      </g>
     </g>
    </g>
    <g id="xtick_3">
     <g id="line2d_5">
      <path d="M 203.720523 307.584 
L 203.720523 41.472 
" clip-path="url(#p1abcde915c)" style="fill: none; stroke: #b0b0b0; stroke-width: 0.8; stroke-linecap: square"/>
     </g>
     <g id="line2d_6">
      <g>
       <use xlink:href="#m14801b7f84" x="203.720523" y="307.584" style="stroke: #000000; stroke-width: 0.8"/>
      </g>
     </g>
     <g id="text_3">
      <!-- 2 -->
      <g transform="translate(200.539273 322.182437) scale(0.1 -0.1)">
       <defs>
        <path id="DejaVuSans-32" d="M 1228 531 
L 3431 531 
L 3431 0 
L 469 0 
L 469 531 
Q 828 903 1448 1529 
Q 2069 2156 2228 2338 
Q 2531 2678 2651 2914 
Q 2772 3150 2772 3378 
Q 2772 3750 2511 3984 
Q 2250 4219 1831 4219 
Q 1534 4219 1204 4116 
Q 875 4013 500 3803 
L 500 4441 
Q 881 4594 1212 4672 
Q 1544 4750 1819 4750 
Q 2544 4750 2975 4387 
Q 3406 4025 3406 3419 
Q 3406 3131 3298 2873 
Q 3191 2616 2906 2266 
Q 2828 2175 2409 1742 
Q 1991 1309 1228 531 
z
" transform="scale(0.015625)"/>
       </defs>
       <use xlink:href="#DejaVuSans-32"/>
      </g>
     </g>
    </g>
    <g id="xtick_4">
     <g id="line2d_7">
      <path d="M 268.664421 307.584 
L 268.664421 41.472 
" clip-path="url(#p1abcde915c)" style="fill: none; stroke: #b0b0b0; stroke-width: 0.8; stroke-linecap: square"/>
     </g>
     <g id="line2d_8">
      <g>
       <use xlink:href="#m14801b7f84" x="268.664421" y="307.584" style="stroke: #000000; stroke-width: 0.8"/>
      </g>
     </g>
     <g id="text_4">
      <!-- 3 -->
      <g transform="translate(265.483171 322.182437) scale(0.1 -0.1)">
       <defs>
        <path id="DejaVuSans-33" d="M 2597 2516 
Q 3050 2419 3304 2112 
Q 3559 1806 3559 1356 
Q 3559 666 3084 287 
Q 2609 -91 1734 -91 
Q 1441 -91 1130 -33 
Q 819 25 488 141 
L 488 750 
Q 750 597 1062 519 
Q 1375 441 1716 441 
Q 2309 441 2620 675 
Q 2931 909 2931 1356 
Q 2931 1769 2642 2001 
Q 2353 2234 1838 2234 
L 1294 2234 
L 1294 2753 
L 1863 2753 
Q 2328 2753 2575 2939 
Q 2822 3125 2822 3475 
Q 2822 3834 2567 4026 
Q 2313 4219 1838 4219 
Q 1578 4219 1281 4162 
Q 984 4106 628 3988 
L 628 4550 
Q 988 4650 1302 4700 
Q 1616 4750 1894 4750 
Q 2613 4750 3031 4423 
Q 3450 4097 3450 3541 
Q 3450 3153 3228 2886 
Q 3006 2619 2597 2516 
z
" transform="scale(0.015625)"/>
       </defs>
       <use xlink:href="#DejaVuSans-33"/>
      </g>
     </g>
    </g>
    <g id="xtick_5">
     <g id="line2d_9">
      <path d="M 333.608319 307.584 
L 333.608319 41.472 
" clip-path="url(#p1abcde915c)" style="fill: none; stroke: #b0b0b0; stroke-width: 0.8; stroke-linecap: square"/>
     </g>
     <g id="line2d_10">
      <g>
       <use xlink:href="#m14801b7f84" x="333.608319" y="307.584" style="stroke: #000000; stroke-width: 0.8"/>
      </g>
     </g>
     <g id="text_5">
      <!-- 4 -->
      <g transform="translate(330.427069 322.182437) scale(0.1 -0.1)">
       <defs>
        <path id="DejaVuSans-34" d="M 2419 4116 
L 825 1625 
L 2419 1625 
L 2419 4116 
z
M 2253 4666 
L 3047 4666 
L 3047 1625 
L 3713 1625 
L 3713 1100 
L 3047 1100 
L 3047 0 
L 2419 0 
L 2419 1100 
L 313 1100 
L 313 1709 
L 2253 4666 
z
" transform="scale(0.015625)"/>
       </defs>
       <use xlink:href="#DejaVuSans-34"/>
      </g>
     </g>
    </g>
    <g id="xtick_6">
     <g id="line2d_11">
      <path d="M 398.552217 307.584 
L 398.552217 41.472 
" clip-path="url(#p1abcde915c)" style="fill: none; stroke: #b0b0b0; stroke-width: 0.8; stroke-linecap: square"/>
     </g>
     <g id="line2d_12">
      <g>
       <use xlink:href="#m14801b7f84" x="398.552217" y="307.584" style="stroke: #000000; stroke-width: 0.8"/>
      </g>
     </g>
     <g id="text_6">
      <!-- 5 -->
      <g transform="translate(395.370967 322.182437) scale(0.1 -0.1)">
       <defs>
        <path id="DejaVuSans-35" d="M 691 4666 
L 3169 4666 
L 3169 4134 
L 1269 4134 
L 1269 2991 
Q 1406 3038 1543 3061 
Q 1681 3084 1819 3084 
Q 2600 3084 3056 2656 
Q 3513 2228 3513 1497 
Q 3513 744 3044 326 
Q 2575 -91 1722 -91 
Q 1428 -91 1123 -41 
Q 819 9 494 109 
L 494 744 
Q 775 591 1075 516 
Q 1375 441 1709 441 
Q 2250 441 2565 725 
Q 2881 1009 2881 1497 
Q 2881 1984 2565 2268 
Q 2250 2553 1709 2553 
Q 1456 2553 1204 2497 
Q 953 2441 691 2322 
L 691 4666 
z
" transform="scale(0.015625)"/>
       </defs>
       <use xlink:href="#DejaVuSans-35"/>
      </g>
     </g>
    </g>
   </g>
   <g id="matplotlib.axis_2">
    <g id="ytick_1">
     <g id="line2d_13">
      <path d="M 57.6 295.488 
L 414.72 295.488 
" clip-path="url(#p1abcde915c)" style="fill: none; stroke: #b0b0b0; stroke-width: 0.8; stroke-linecap: square"/>
     </g>
     <g id="line2d_14">
      <defs>
       <path id="m0f42558cc8" d="M 0 0 
L -3.5 0 
" style="stroke: #000000; stroke-width: 0.8"/>
      </defs>
      <g>
       <use xlink:href="#m0f42558cc8" x="57.6" y="295.488" style="stroke: #000000; stroke-width: 0.8"/>
      </g>
     </g>
     <g id="text_7">
      <!-- 1.00 -->
      <g transform="translate(28.334375 299.287219) scale(0.1 -0.1)">
       <defs>
        <path id="DejaVuSans-2e" d="M 684 794 
L 1344 794 
L 1344 0 
L 684 0 
L 684 794 
z
" transform="scale(0.015625)"/>
       </defs>
       <use xlink:href="#DejaVuSans-31"/>
       <use xlink:href="#DejaVuSans-2e" x="63.623047"/>
       <use xlink:href="#DejaVuSans-30" x="95.410156"/>
       <use xlink:href="#DejaVuSans-30" x="159.033203"/>
      </g>
     </g>
    </g>
    <g id="ytick_2">
     <g id="line2d_15">
      <path d="M 57.6 265.381542 
L 414.72 265.381542 
" clip-path="url(#p1abcde915c)" style="fill: none; stroke: #b0b0b0; stroke-width: 0.8; stroke-linecap: square"/>
     </g>
     <g id="line2d_16">
      <g>
       <use xlink:href="#m0f42558cc8" x="57.6" y="265.381542" style="stroke: #000000; stroke-width: 0.8"/>
      </g>
     </g>
     <g id="text_8">
      <!-- 1.01 -->
      <g transform="translate(28.334375 269.18076) scale(0.1 -0.1)">
       <use xlink:href="#DejaVuSans-31"/>
       <use xlink:href="#DejaVuSans-2e" x="63.623047"/>
       <use xlink:href="#DejaVuSans-30" x="95.410156"/>
       <use xlink:href="#DejaVuSans-31" x="159.033203"/>
      </g>
     </g>
    </g>
    <g id="ytick_3">
     <g id="line2d_17">
      <path d="M 57.6 235.275083 
L 414.72 235.275083 
" clip-path="url(#p1abcde915c)" style="fill: none; stroke: #b0b0b0; stroke-width: 0.8; stroke-linecap: square"/>
     </g>
     <g id="line2d_18">
      <g>
       <use xlink:href="#m0f42558cc8" x="57.6" y="235.275083" style="stroke: #000000; stroke-width: 0.8"/>
      </g>
     </g>
     <g id="text_9">
      <!-- 1.02 -->
      <g transform="translate(28.334375 239.074302) scale(0.1 -0.1)">
       <use xlink:href="#DejaVuSans-31"/>
       <use xlink:href="#DejaVuSans-2e" x="63.623047"/>
       <use xlink:href="#DejaVuSans-30" x="95.410156"/>
       <use xlink:href="#DejaVuSans-32" x="159.033203"/>
      </g>
     </g>
    </g>
    <g id="ytick_4">
     <g id="line2d_19">
      <path d="M 57.6 205.168625 
L 414.72 205.168625 
" clip-path="url(#p1abcde915c)" style="fill: none; stroke: #b0b0b0; stroke-width: 0.8; stroke-linecap: square"/>
     </g>
     <g id="line2d_20">
      <g>
       <use xlink:href="#m0f42558cc8" x="57.6" y="205.168625" style="stroke: #000000; stroke-width: 0.8"/>
      </g>
     </g>
     <g id="text_10">
      <!-- 1.03 -->
      <g transform="translate(28.334375 208.967843) scale(0.1 -0.1)">
       <use xlink:href="#DejaVuSans-31"/>
       <use xlink:href="#DejaVuSans-2e" x="63.623047"/>
       <use xlink:href="#DejaVuSans-30" x="95.410156"/>
       <use xlink:href="#DejaVuSans-33" x="159.033203"/>
      </g>
     </g>
    </g>
    <g id="ytick_5">
     <g id="line2d_21">
      <path d="M 57.6 175.062166 
L 414.72 175.062166 
" clip-path="url(#p1abcde915c)" style="fill: none; stroke: #b0b0b0; stroke-width: 0.8; stroke-linecap: square"/>
     </g>
     <g id="line2d_22">
      <g>
       <use xlink:href="#m0f42558cc8" x="57.6" y="175.062166" style="stroke: #000000; stroke-width: 0.8"/>
      </g>
     </g>
     <g id="text_11">
      <!-- 1.04 -->
      <g transform="translate(28.334375 178.861385) scale(0.1 -0.1)">
       <use xlink:href="#DejaVuSans-31"/>
       <use xlink:href="#DejaVuSans-2e" x="63.623047"/>
       <use xlink:href="#DejaVuSans-30" x="95.410156"/>
       <use xlink:href="#DejaVuSans-34" x="159.033203"/>
      </g>
     </g>
    </g>
    <g id="ytick_6">
     <g id="line2d_23">
      <path d="M 57.6 144.955708 
L 414.72 144.955708 
" clip-path="url(#p1abcde915c)" style="fill: none; stroke: #b0b0b0; stroke-width: 0.8; stroke-linecap: square"/>
     </g>
     <g id="line2d_24">
      <g>
       <use xlink:href="#m0f42558cc8" x="57.6" y="144.955708" style="stroke: #000000; stroke-width: 0.8"/>
      </g>
     </g>
     <g id="text_12">
      <!-- 1.05 -->
      <g transform="translate(28.334375 148.754926) scale(0.1 -0.1)">
       <use xlink:href="#DejaVuSans-31"/>
       <use xlink:href="#DejaVuSans-2e" x="63.623047"/>
       <use xlink:href="#DejaVuSans-30" x="95.410156"/>
       <use xlink:href="#DejaVuSans-35" x="159.033203"/>
      </g>
     </g>
    </g>
    <g id="ytick_7">
     <g id="line2d_25">
      <path d="M 57.6 114.849249 
L 414.72 114.849249 
" clip-path="url(#p1abcde915c)" style="fill: none; stroke: #b0b0b0; stroke-width: 0.8; stroke-linecap: square"/>
     </g>
     <g id="line2d_26">
      <g>
       <use xlink:href="#m0f42558cc8" x="57.6" y="114.849249" style="stroke: #000000; stroke-width: 0.8"/>
      </g>
     </g>
     <g id="text_13">
      <!-- 1.06 -->
      <g transform="translate(28.334375 118.648468) scale(0.1 -0.1)">
       <defs>
        <path id="DejaVuSans-36" d="M 2113 2584 
Q 1688 2584 1439 2293 
Q 1191 2003 1191 1497 
Q 1191 994 1439 701 
Q 1688 409 2113 409 
Q 2538 409 2786 701 
Q 3034 994 3034 1497 
Q 3034 2003 2786 2293 
Q 2538 2584 2113 2584 
z
M 3366 4563 
L 3366 3988 
Q 3128 4100 2886 4159 
Q 2644 4219 2406 4219 
Q 1781 4219 1451 3797 
Q 1122 3375 1075 2522 
Q 1259 2794 1537 2939 
Q 1816 3084 2150 3084 
Q 2853 3084 3261 2657 
Q 3669 2231 3669 1497 
Q 3669 778 3244 343 
Q 2819 -91 2113 -91 
Q 1303 -91 875 529 
Q 447 1150 447 2328 
Q 447 3434 972 4092 
Q 1497 4750 2381 4750 
Q 2619 4750 2861 4703 
Q 3103 4656 3366 4563 
z
" transform="scale(0.015625)"/>
       </defs>
       <use xlink:href="#DejaVuSans-31"/>
       <use xlink:href="#DejaVuSans-2e" x="63.623047"/>
       <use xlink:href="#DejaVuSans-30" x="95.410156"/>
       <use xlink:href="#DejaVuSans-36" x="159.033203"/>
      </g>
     </g>
    </g>
    <g id="ytick_8">
     <g id="line2d_27">
      <path d="M 57.6 84.742791 
L 414.72 84.742791 
" clip-path="url(#p1abcde915c)" style="fill: none; stroke: #b0b0b0; stroke-width: 0.8; stroke-linecap: square"/>
     </g>
     <g id="line2d_28">
      <g>
       <use xlink:href="#m0f42558cc8" x="57.6" y="84.742791" style="stroke: #000000; stroke-width: 0.8"/>
      </g>
     </g>
     <g id="text_14">
      <!-- 1.07 -->
      <g transform="translate(28.334375 88.542009) scale(0.1 -0.1)">
       <defs>
        <path id="DejaVuSans-37" d="M 525 4666 
L 3525 4666 
L 3525 4397 
L 1831 0 
L 1172 0 
L 2766 4134 
L 525 4134 
L 525 4666 
z
" transform="scale(0.015625)"/>
       </defs>
       <use xlink:href="#DejaVuSans-31"/>
       <use xlink:href="#DejaVuSans-2e" x="63.623047"/>
       <use xlink:href="#DejaVuSans-30" x="95.410156"/>
       <use xlink:href="#DejaVuSans-37" x="159.033203"/>
      </g>
     </g>
    </g>
    <g id="ytick_9">
     <g id="line2d_29">
      <path d="M 57.6 54.636332 
L 414.72 54.636332 
" clip-path="url(#p1abcde915c)" style="fill: none; stroke: #b0b0b0; stroke-width: 0.8; stroke-linecap: square"/>
     </g>
     <g id="line2d_30">
      <g>
       <use xlink:href="#m0f42558cc8" x="57.6" y="54.636332" style="stroke: #000000; stroke-width: 0.8"/>
      </g>
     </g>
     <g id="text_15">
      <!-- 1.08 -->
      <g transform="translate(28.334375 58.435551) scale(0.1 -0.1)">
       <defs>
        <path id="DejaVuSans-38" d="M 2034 2216 
Q 1584 2216 1326 1975 
Q 1069 1734 1069 1313 
Q 1069 891 1326 650 
Q 1584 409 2034 409 
Q 2484 409 2743 651 
Q 3003 894 3003 1313 
Q 3003 1734 2745 1975 
Q 2488 2216 2034 2216 
z
M 1403 2484 
Q 997 2584 770 2862 
Q 544 3141 544 3541 
Q 544 4100 942 4425 
Q 1341 4750 2034 4750 
Q 2731 4750 3128 4425 
Q 3525 4100 3525 3541 
Q 3525 3141 3298 2862 
Q 3072 2584 2669 2484 
Q 3125 2378 3379 2068 
Q 3634 1759 3634 1313 
Q 3634 634 3220 271 
Q 2806 -91 2034 -91 
Q 1263 -91 848 271 
Q 434 634 434 1313 
Q 434 1759 690 2068 
Q 947 2378 1403 2484 
z
M 1172 3481 
Q 1172 3119 1398 2916 
Q 1625 2713 2034 2713 
Q 2441 2713 2670 2916 
Q 2900 3119 2900 3481 
Q 2900 3844 2670 4047 
Q 2441 4250 2034 4250 
Q 1625 4250 1398 4047 
Q 1172 3844 1172 3481 
z
" transform="scale(0.015625)"/>
       </defs>
       <use xlink:href="#DejaVuSans-31"/>
       <use xlink:href="#DejaVuSans-2e" x="63.623047"/>
       <use xlink:href="#DejaVuSans-30" x="95.410156"/>
       <use xlink:href="#DejaVuSans-38" x="159.033203"/>
      </g>
     </g>
    </g>
   </g>
   <g id="line2d_31">
    <path d="M 73.832727 295.488 
L 138.906513 295.424003 
L 139.36112 294.822055 
L 140.659998 292.581751 
L 144.3618 285.641446 
L 160.402943 255.305203 
L 168.261155 241.034254 
L 174.820488 229.59967 
L 181.964317 217.189217 
L 182.548812 215.642303 
L 183.00342 213.84494 
L 183.522971 210.734855 
L 184.107466 205.630843 
L 184.886793 196.505743 
L 185.990839 180.545455 
L 188.0041 147.356146 
L 189.627697 122.145367 
L 190.6668 109.344369 
L 191.446126 102.143947 
L 192.160509 97.477542 
L 192.745004 94.998477 
L 193.199612 93.853504 
L 193.589275 93.384077 
L 193.913994 93.335904 
L 194.238714 93.587648 
L 194.628377 94.274458 
L 195.082985 95.59691 
L 195.66748 98.120463 
L 196.316919 102.027751 
L 197.096245 108.278065 
L 197.940516 116.937154 
L 198.979618 129.973487 
L 200.538272 152.713848 
L 203.00614 188.583778 
L 204.240074 203.394326 
L 205.279177 213.4703 
L 206.188391 220.335443 
L 206.967718 224.731311 
L 207.682101 227.543939 
L 208.266596 228.976511 
L 208.721203 229.548441 
L 209.045923 229.665289 
L 209.370642 229.537981 
L 209.695362 229.165295 
L 210.149969 228.228491 
L 210.66952 226.559438 
L 211.254015 223.909432 
L 211.968398 219.544379 
L 212.747725 213.352784 
L 213.656939 204.24358 
L 214.696042 191.434769 
L 215.929976 173.331882 
L 220.151329 108.416931 
L 220.9956 100.001917 
L 221.709983 94.89911 
L 222.294478 92.084191 
L 222.814029 90.553176 
L 223.203692 89.968218 
L 223.528412 89.830812 
L 223.788187 89.942015 
L 224.112907 90.350581 
L 224.50257 91.229844 
L 225.022122 93.058983 
L 225.606617 96.024413 
L 226.320999 100.984135 
L 227.100326 108.08105 
L 228.009541 118.452142 
L 229.243475 135.353544 
L 233.010221 188.992053 
L 234.114267 200.683374 
L 235.023482 208.122044 
L 235.802809 212.82226 
L 236.452248 215.525028 
L 236.971799 216.881367 
L 237.361462 217.424425 
L 237.686182 217.564522 
L 237.945957 217.471079 
L 238.270677 217.09619 
L 238.66034 216.265931 
L 239.179891 214.509532 
L 239.764386 211.641001 
L 240.478769 206.846624 
L 241.258096 200.008574 
L 242.167311 189.973176 
L 243.271357 175.079681 
L 244.765066 151.486028 
L 247.167991 113.499246 
L 248.142149 101.568826 
L 248.921476 94.387068 
L 249.635859 89.768028 
L 250.220354 87.343911 
L 250.674961 86.250143 
L 251.064625 85.83144 
L 251.3244 85.807039 
L 251.584176 85.980639 
L 251.908895 86.471005 
L 252.363503 87.662432 
L 252.883054 89.747716 
L 253.467549 93.034133 
L 254.181932 98.434093 
L 255.026202 106.760522 
L 256.000361 118.718045 
L 257.429127 139.317731 
L 259.832051 174.038945 
L 261.001041 187.614543 
L 261.910256 195.82707 
L 262.689582 201.042415 
L 263.339021 204.03797 
L 263.858572 205.527658 
L 264.248236 206.108334 
L 264.572955 206.237765 
L 264.832731 206.107951 
L 265.15745 205.652666 
L 265.547114 204.674928 
L 266.066665 202.636996 
L 266.65116 199.341212 
L 267.365543 193.882235 
L 268.209814 185.457892 
L 269.183972 173.279647 
L 270.417906 154.805269 
L 273.730045 103.304503 
L 274.639259 93.325704 
L 275.353642 87.611652 
L 276.003081 84.062637 
L 276.522633 82.297571 
L 276.97724 81.486885 
L 277.301959 81.305311 
L 277.561735 81.390165 
L 277.886454 81.777643 
L 278.276118 82.65045 
L 278.730725 84.231263 
L 279.31522 87.168675 
L 279.964659 91.656924 
L 280.743986 98.756401 
L 281.6532 109.247964 
L 282.887135 126.375243 
L 285.939498 170.009075 
L 286.9786 181.243236 
L 287.822871 188.123225 
L 288.537254 192.208128 
L 289.121749 194.3087 
L 289.576356 195.150301 
L 289.901075 195.321303 
L 290.160851 195.19811 
L 290.485571 194.717675 
L 290.875234 193.661076 
L 291.329841 191.766354 
L 291.914336 188.288418 
L 292.628719 182.474742 
L 293.47299 173.491645 
L 294.447148 160.596826 
L 295.81097 139.28182 
L 298.148951 102.518773 
L 299.123109 90.805361 
L 299.902436 83.910496 
L 300.551875 79.929041 
L 301.13637 77.663649 
L 301.590977 76.710983 
L 301.915697 76.440366 
L 302.175472 76.460972 
L 302.500192 76.776471 
L 302.889855 77.574762 
L 303.344462 79.085001 
L 303.928957 81.958875 
L 304.578396 86.415385 
L 305.357723 93.532491 
L 306.266938 104.107561 
L 307.500872 121.370389 
L 310.228516 160.445256 
L 311.202674 171.153108 
L 312.046945 178.107897 
L 312.696384 181.812722 
L 313.215935 183.688187 
L 313.605598 184.442097 
L 313.930318 184.636638 
L 314.190093 184.506153 
L 314.514813 183.983845 
L 314.904476 182.829509 
L 315.359083 180.757568 
L 315.943579 176.959767 
L 316.657961 170.638842 
L 317.502232 160.956076 
L 318.541334 146.280658 
L 320.489651 114.681101 
L 321.853473 94.449054 
L 322.762688 83.99239 
L 323.542015 77.509364 
L 324.191454 73.897797 
L 324.711005 72.123914 
L 325.100668 71.40478 
L 325.425388 71.186573 
L 325.685163 71.253793 
L 326.009883 71.634371 
L 326.399546 72.522591 
L 326.854153 74.157249 
L 327.438648 77.226711 
L 328.088087 81.948655 
L 328.867414 89.434325 
L 329.776629 100.44372 
L 331.140451 120.054887 
L 333.218655 149.848528 
L 334.192814 160.868493 
L 334.972141 167.509167 
L 335.62158 171.354432 
L 336.141131 173.251248 
L 336.530794 173.962799 
L 336.79057 174.093085 
L 337.050345 173.945953 
L 337.375065 173.370512 
L 337.764728 172.105824 
L 338.219336 169.843932 
L 338.803831 165.715254 
L 339.518213 158.887683 
L 340.362484 148.539147 
L 341.531474 131.07207 
L 344.389006 86.764597 
L 345.233276 77.372617 
L 345.947659 71.589967 
L 346.597098 68.074545 
L 347.11665 66.394891 
L 347.506313 65.755575 
L 347.831032 65.610445 
L 348.090808 65.741176 
L 348.415527 66.208698 
L 348.805191 67.214595 
L 349.259798 69.008542 
L 349.844293 72.322109 
L 350.493732 77.365317 
L 351.273059 85.27953 
L 352.247217 97.658437 
L 354.000703 123.556634 
L 355.429468 143.194413 
L 356.338683 152.982882 
L 357.053066 158.624949 
L 357.637561 161.724525 
L 358.092168 163.133802 
L 358.416888 163.587934 
L 358.676663 163.615088 
L 358.936439 163.341562 
L 359.261158 162.576069 
L 359.650822 161.038458 
L 360.170373 157.952589 
L 360.819812 152.489529 
L 361.599139 143.765463 
L 362.573297 130.114963 
L 364.521614 98.596696 
L 365.755548 80.677003 
L 366.599819 71.249257 
L 367.314202 65.485297 
L 367.898697 62.295707 
L 368.418248 60.555751 
L 368.807911 59.887669 
L 369.132631 59.729066 
L 369.392406 59.855961 
L 369.717126 60.327724 
L 370.106789 61.352891 
L 370.561397 63.190722 
L 371.145892 66.597488 
L 371.795331 71.792405 
L 372.574657 79.938383 
L 373.548816 92.609645 
L 377.055786 140.926965 
L 377.835113 147.671921 
L 378.419608 151.066091 
L 378.874216 152.640419 
L 379.198935 153.173274 
L 379.458711 153.238579 
L 379.718486 152.980683 
L 380.043206 152.203071 
L 380.432869 150.605681 
L 380.95242 147.369052 
L 381.601859 141.623345 
L 382.381186 132.478528 
L 383.420288 117.307232 
L 386.407708 71.552522 
L 387.251978 62.828919 
L 387.901417 58.118178 
L 388.485912 55.343072 
L 388.94052 54.08952 
L 389.330183 53.609891 
L 389.589959 53.584136 
L 389.849734 53.789068 
L 390.174454 54.367526 
L 390.564117 55.536827 
L 391.083668 57.91893 
L 391.668163 61.757327 
L 392.382546 68.136248 
L 393.226817 77.912951 
L 394.395807 94.369648 
L 396.538956 124.898595 
L 397.383226 133.92866 
L 398.032665 138.921341 
L 398.487273 141.265692 
L 398.487273 141.265692 
" clip-path="url(#p1abcde915c)" style="fill: none; stroke: #1f77b4; stroke-width: 1.5; stroke-linecap: square"/>
   </g>
   <g id="patch_3">
    <path d="M 57.6 307.584 
L 57.6 41.472 
" style="fill: none; stroke: #000000; stroke-width: 0.8; stroke-linejoin: miter; stroke-linecap: square"/>
   </g>
   <g id="patch_4">
    <path d="M 414.72 307.584 
L 414.72 41.472 
" style="fill: none; stroke: #000000; stroke-width: 0.8; stroke-linejoin: miter; stroke-linecap: square"/>
   </g>
   <g id="patch_5">
    <path d="M 57.6 307.584 
L 414.72 307.584 
" style="fill: none; stroke: #000000; stroke-width: 0.8; stroke-linejoin: miter; stroke-linecap: square"/>
   </g>
   <g id="patch_6">
    <path d="M 57.6 41.472 
L 414.72 41.472 
" style="fill: none; stroke: #000000; stroke-width: 0.8; stroke-linejoin: miter; stroke-linecap: square"/>
   </g>
  </g>
 </g>
 <defs>
  <clipPath id="p1abcde915c">
   <rect x="57.6" y="41.472" width="357.12" height="266.112"/>
  </clipPath>
 </defs>
</svg>
