<?xml version="1.0" encoding="utf-8" standalone="no"?>
<!DOCTYPE svg PUBLIC "-//W3C//DTD SVG 1.1//EN"
  "http://www.w3.org/Graphics/SVG/1.1/DTD/svg11.dtd">
<svg xmlns:xlink="http://www.w3.org/1999/xlink" width="576pt" height="576pt" viewBox="0 0 576 576" xmlns="http://www.w3.org/2000/svg" version="1.1">
 <metadata>
  <rdf:RDF xmlns:dc="http://purl.org/dc/elements/1.1/" xmlns:cc="http://creativecommons.org/ns#" xmlns:rdf="http://www.w3.org/1999/02/22-rdf-syntax-ns#">
   <cc:Work>
    <dc:type rdf:resource="http://purl.org/dc/dcmitype/StillImage"/>
    <dc:date>2026-04-08T12:06:33.089930</dc:date>
    <dc:format>image/svg+xml</dc:format>
    <dc:creator>
     <cc:Agent>
      <dc:title>Matplotlib v3.10.6, https://matplotlib.org/</dc:title>
     </cc:Agent>
    </dc:creator>
   </cc:Work>
  </rdf:RDF>
 </metadata>
 <defs>
  <style type="text/css">*{stroke-linejoin: round; stroke-linecap: butt}</style>
 </defs>
 <g id="figure_1">
  <g id="patch_1">
   <path d="M 0 576 
L 576 576 
L 576 0 
L 0 0 
z
" style="fill: #ffffff"/>
  </g>
  <g id="axes_1">
   <g id="patch_2">
    <path d="M 62.57 166.626667 
L 565.2 166.626667 
L 565.2 10.8 
L 62.57 10.8 
z
" style="fill: #ffffff"/>
   </g>
   <g id="matplotlib.axis_1">
    <g id="xtick_1">
     <g id="line2d_1">
      <path d="M 85.416818 166.626667 
L 85.416818 10.8 
" clip-path="url(#pd13fa57613)" style="fill: none; stroke: #b0b0b0; stroke-width: 0.8; stroke-linecap: square"/>
     </g>
     <g id="line2d_2">
      <defs>
       <path id="mece4ce5f32" d="M 0 0 
L 0 3.5 
" style="stroke: #000000; stroke-width: 0.8"/>
      </defs>
      <g>
       <use xlink:href="#mece4ce5f32" x="85.416818" y="166.626667" style="stroke: #000000; stroke-width: 0.8"/>
      </g>
     </g>
     <g id="text_1">
      <!-- 0 -->
      <g transform="translate(82.235568 181.225104) scale(0.1 -0.1)">
       <defs>
        <path id="DejaVuSans-30" d="M 2034 4250 
Q 1547 4250 1301 3770 
Q 1056 3291 1056 2328 
Q 1056 1369 1301 889 
Q 1547 409 2034 409 
Q 2525 409 2770 889 
Q 3016 1369 3016 2328 
Q 3016 3291 2770 3770 
Q 2525 4250 2034 4250 
z
M 2034 4750 
Q 2819 4750 3233 4129 
Q 3647 3509 3647 2328 
Q 3647 1150 3233 529 
Q 2819 -91 2034 -91 
Q 1250 -91 836 529 
Q 422 1150 422 2328 
Q 422 3509 836 4129 
Q 1250 4750 2034 4750 
z
" transform="scale(0.015625)"/>
       </defs>
       <use xlink:href="#DejaVuSans-30"/>
      </g>
     </g>
    </g>
    <g id="xtick_2">
     <g id="line2d_3">
      <path d="M 176.804091 166.626667 
L 176.804091 10.8 
" clip-path="url(#pd13fa57613)" style="fill: none; stroke: #b0b0b0; stroke-width: 0.8; stroke-linecap: square"/>
     </g>
     <g id="line2d_4">
      <g>
       <use xlink:href="#mece4ce5f32" x="176.804091" y="166.626667" style="stroke: #000000; stroke-width: 0.8"/>
      </g>
     </g>
     <g id="text_2">
      <!-- 2 -->
      <g transform="translate(173.622841 181.225104) scale(0.1 -0.1)">
       <defs>
        <path id="DejaVuSans-32" d="M 1228 531 
L 3431 531 
L 3431 0 
L 469 0 
L 469 531 
Q 828 903 1448 1529 
Q 2069 2156 2228 2338 
Q 2531 2678 2651 2914 
Q 2772 3150 2772 3378 
Q 2772 3750 2511 3984 
Q 2250 4219 1831 4219 
Q 1534 4219 1204 4116 
Q 875 4013 500 3803 
L 500 4441 
Q 881 4594 1212 4672 
Q 1544 4750 1819 4750 
Q 2544 4750 2975 4387 
Q 3406 4025 3406 3419 
Q 3406 3131 3298 2873 
Q 3191 2616 2906 2266 
Q 2828 2175 2409 1742 
Q 1991 1309 1228 531 
z
" transform="scale(0.015625)"/>
       </defs>
       <use xlink:href="#DejaVuSans-32"/>
      </g>
     </g>
    </g>
    <g id="xtick_3">
     <g id="line2d_5">
      <path d="M 268.191364 166.626667 
L 268.191364 10.8 
" clip-path="url(#pd13fa57613)" style="fill: none; stroke: #b0b0b0; stroke-width: 0.8; stroke-linecap: square"/>
     </g>
     <g id="line2d_6">
      <g>
       <use xlink:href="#mece4ce5f32" x="268.191364" y="166.626667" style="stroke: #000000; stroke-width: 0.8"/>
      </g>
     </g>
     <g id="text_3">
      <!-- 4 -->
      <g transform="translate(265.010114 181.225104) scale(0.1 -0.1)">
       <defs>
        <path id="DejaVuSans-34" d="M 2419 4116 
L 825 1625 
L 2419 1625 
L 2419 4116 
z
M 2253 4666 
L 3047 4666 
L 3047 1625 
L 3713 1625 
L 3713 1100 
L 3047 1100 
L 3047 0 
L 2419 0 
L 2419 1100 
L 313 1100 
L 313 1709 
L 2253 4666 
z
" transform="scale(0.015625)"/>
       </defs>
       <use xlink:href="#DejaVuSans-34"/>
      </g>
     </g>
    </g>
    <g id="xtick_4">
     <g id="line2d_7">
      <path d="M 359.578636 166.626667 
L 359.578636 10.8 
" clip-path="url(#pd13fa57613)" style="fill: none; stroke: #b0b0b0; stroke-width: 0.8; stroke-linecap: square"/>
     </g>
     <g id="line2d_8">
      <g>
       <use xlink:href="#mece4ce5f32" x="359.578636" y="166.626667" style="stroke: #000000; stroke-width: 0.8"/>
      </g>
     </g>
     <g id="text_4">
      <!-- 6 -->
      <g transform="translate(356.397386 181.225104) scale(0.1 -0.1)">
       <defs>
        <path id="DejaVuSans-36" d="M 2113 2584 
Q 1688 2584 1439 2293 
Q 1191 2003 1191 1497 
Q 1191 994 1439 701 
Q 1688 409 2113 409 
Q 2538 409 2786 701 
Q 3034 994 3034 1497 
Q 3034 2003 2786 2293 
Q 2538 2584 2113 2584 
z
M 3366 4563 
L 3366 3988 
Q 3128 4100 2886 4159 
Q 2644 4219 2406 4219 
Q 1781 4219 1451 3797 
Q 1122 3375 1075 2522 
Q 1259 2794 1537 2939 
Q 1816 3084 2150 3084 
Q 2853 3084 3261 2657 
Q 3669 2231 3669 1497 
Q 3669 778 3244 343 
Q 2819 -91 2113 -91 
Q 1303 -91 875 529 
Q 447 1150 447 2328 
Q 447 3434 972 4092 
Q 1497 4750 2381 4750 
Q 2619 4750 2861 4703 
Q 3103 4656 3366 4563 
z
" transform="scale(0.015625)"/>
       </defs>
       <use xlink:href="#DejaVuSans-36"/>
      </g>
     </g>
    </g>
    <g id="xtick_5">
     <g id="line2d_9">
      <path d="M 450.965909 166.626667 
L 450.965909 10.8 
" clip-path="url(#pd13fa57613)" style="fill: none; stroke: #b0b0b0; stroke-width: 0.8; stroke-linecap: square"/>
     </g>
     <g id="line2d_10">
      <g>
       <use xlink:href="#mece4ce5f32" x="450.965909" y="166.626667" style="stroke: #000000; stroke-width: 0.8"/>
      </g>
     </g>
     <g id="text_5">
      <!-- 8 -->
      <g transform="translate(447.784659 181.225104) scale(0.1 -0.1)">
       <defs>
        <path id="DejaVuSans-38" d="M 2034 2216 
Q 1584 2216 1326 1975 
Q 1069 1734 1069 1313 
Q 1069 891 1326 650 
Q 1584 409 2034 409 
Q 2484 409 2743 651 
Q 3003 894 3003 1313 
Q 3003 1734 2745 1975 
Q 2488 2216 2034 2216 
z
M 1403 2484 
Q 997 2584 770 2862 
Q 544 3141 544 3541 
Q 544 4100 942 4425 
Q 1341 4750 2034 4750 
Q 2731 4750 3128 4425 
Q 3525 4100 3525 3541 
Q 3525 3141 3298 2862 
Q 3072 2584 2669 2484 
Q 3125 2378 3379 2068 
Q 3634 1759 3634 1313 
Q 3634 634 3220 271 
Q 2806 -91 2034 -91 
Q 1263 -91 848 271 
Q 434 634 434 1313 
Q 434 1759 690 2068 
Q 947 2378 1403 2484 
z
M 1172 3481 
Q 1172 3119 1398 2916 
Q 1625 2713 2034 2713 
Q 2441 2713 2670 2916 
Q 2900 3119 2900 3481 
Q 2900 3844 2670 4047 
Q 2441 4250 2034 4250 
Q 1625 4250 1398 4047 
Q 1172 3844 1172 3481 
z
" transform="scale(0.015625)"/>
       </defs>
       <use xlink:href="#DejaVuSans-38"/>
      </g>
     </g>
    </g>
    <g id="xtick_6">
     <g id="line2d_11">
      <path d="M 542.353182 166.626667 
L 542.353182 10.8 
" clip-path="url(#pd13fa57613)" style="fill: none; stroke: #b0b0b0; stroke-width: 0.8; stroke-linecap: square"/>
     </g>
     <g id="line2d_12">
      <g>
       <use xlink:href="#mece4ce5f32" x="542.353182" y="166.626667" style="stroke: #000000; stroke-width: 0.8"/>
      </g>
     </g>
     <g id="text_6">
      <!-- 10 -->
      <g transform="translate(535.990682 181.225104) scale(0.1 -0.1)">
       <defs>
        <path id="DejaVuSans-31" d="M 794 531 
L 1825 531 
L 1825 4091 
L 703 3866 
L 703 4441 
L 1819 4666 
L 2450 4666 
L 2450 531 
L 3481 531 
L 3481 0 
L 794 0 
L 794 531 
z
" transform="scale(0.015625)"/>
       </defs>
       <use xlink:href="#DejaVuSans-31"/>
       <use xlink:href="#DejaVuSans-30" transform="translate(63.623047 0)"/>
      </g>
     </g>
    </g>
   </g>
   <g id="matplotlib.axis_2">
    <g id="ytick_1">
     <g id="line2d_13">
      <path d="M 62.57 154.067275 
L 565.2 154.067275 
" clip-path="url(#pd13fa57613)" style="fill: none; stroke: #b0b0b0; stroke-width: 0.8; stroke-linecap: square"/>
     </g>
     <g id="line2d_14">
      <defs>
       <path id="m1a798bf2fa" d="M 0 0 
L -3.5 0 
" style="stroke: #000000; stroke-width: 0.8"/>
      </defs>
      <g>
       <use xlink:href="#m1a798bf2fa" x="62.57" y="154.067275" style="stroke: #000000; stroke-width: 0.8"/>
      </g>
     </g>
     <g id="text_7">
      <!-- 0.996 -->
      <g transform="translate(26.941875 157.866494) scale(0.1 -0.1)">
       <defs>
        <path id="DejaVuSans-2e" d="M 684 794 
L 1344 794 
L 1344 0 
L 684 0 
L 684 794 
z
" transform="scale(0.015625)"/>
        <path id="DejaVuSans-39" d="M 703 97 
L 703 672 
Q 941 559 1184 500 
Q 1428 441 1663 441 
Q 2288 441 2617 861 
Q 2947 1281 2994 2138 
Q 2813 1869 2534 1725 
Q 2256 1581 1919 1581 
Q 1219 1581 811 2004 
Q 403 2428 403 3163 
Q 403 3881 828 4315 
Q 1253 4750 1959 4750 
Q 2769 4750 3195 4129 
Q 3622 3509 3622 2328 
Q 3622 1225 3098 567 
Q 2575 -91 1691 -91 
Q 1453 -91 1209 -44 
Q 966 3 703 97 
z
M 1959 2075 
Q 2384 2075 2632 2365 
Q 2881 2656 2881 3163 
Q 2881 3666 2632 3958 
Q 2384 4250 1959 4250 
Q 1534 4250 1286 3958 
Q 1038 3666 1038 3163 
Q 1038 2656 1286 2365 
Q 1534 2075 1959 2075 
z
" transform="scale(0.015625)"/>
       </defs>
       <use xlink:href="#DejaVuSans-30"/>
       <use xlink:href="#DejaVuSans-2e" transform="translate(63.623047 0)"/>
       <use xlink:href="#DejaVuSans-39" transform="translate(95.410156 0)"/>
       <use xlink:href="#DejaVuSans-39" transform="translate(159.033203 0)"/>
       <use xlink:href="#DejaVuSans-36" transform="translate(222.65625 0)"/>
      </g>
     </g>
    </g>
    <g id="ytick_2">
     <g id="line2d_15">
      <path d="M 62.57 127.042802 
L 565.2 127.042802 
" clip-path="url(#pd13fa57613)" style="fill: none; stroke: #b0b0b0; stroke-width: 0.8; stroke-linecap: square"/>
     </g>
     <g id="line2d_16">
      <g>
       <use xlink:href="#m1a798bf2fa" x="62.57" y="127.042802" style="stroke: #000000; stroke-width: 0.8"/>
      </g>
     </g>
     <g id="text_8">
      <!-- 0.998 -->
      <g transform="translate(26.941875 130.842021) scale(0.1 -0.1)">
       <use xlink:href="#DejaVuSans-30"/>
       <use xlink:href="#DejaVuSans-2e" transform="translate(63.623047 0)"/>
       <use xlink:href="#DejaVuSans-39" transform="translate(95.410156 0)"/>
       <use xlink:href="#DejaVuSans-39" transform="translate(159.033203 0)"/>
       <use xlink:href="#DejaVuSans-38" transform="translate(222.65625 0)"/>
      </g>
     </g>
    </g>
    <g id="ytick_3">
     <g id="line2d_17">
      <path d="M 62.57 100.018329 
L 565.2 100.018329 
" clip-path="url(#pd13fa57613)" style="fill: none; stroke: #b0b0b0; stroke-width: 0.8; stroke-linecap: square"/>
     </g>
     <g id="line2d_18">
      <g>
       <use xlink:href="#m1a798bf2fa" x="62.57" y="100.018329" style="stroke: #000000; stroke-width: 0.8"/>
      </g>
     </g>
     <g id="text_9">
      <!-- 1.000 -->
      <g transform="translate(26.941875 103.817548) scale(0.1 -0.1)">
       <use xlink:href="#DejaVuSans-31"/>
       <use xlink:href="#DejaVuSans-2e" transform="translate(63.623047 0)"/>
       <use xlink:href="#DejaVuSans-30" transform="translate(95.410156 0)"/>
       <use xlink:href="#DejaVuSans-30" transform="translate(159.033203 0)"/>
       <use xlink:href="#DejaVuSans-30" transform="translate(222.65625 0)"/>
      </g>
     </g>
    </g>
    <g id="ytick_4">
     <g id="line2d_19">
      <path d="M 62.57 72.993857 
L 565.2 72.993857 
" clip-path="url(#pd13fa57613)" style="fill: none; stroke: #b0b0b0; stroke-width: 0.8; stroke-linecap: square"/>
     </g>
     <g id="line2d_20">
      <g>
       <use xlink:href="#m1a798bf2fa" x="62.57" y="72.993857" style="stroke: #000000; stroke-width: 0.8"/>
      </g>
     </g>
     <g id="text_10">
      <!-- 1.002 -->
      <g transform="translate(26.941875 76.793075) scale(0.1 -0.1)">
       <use xlink:href="#DejaVuSans-31"/>
       <use xlink:href="#DejaVuSans-2e" transform="translate(63.623047 0)"/>
       <use xlink:href="#DejaVuSans-30" transform="translate(95.410156 0)"/>
       <use xlink:href="#DejaVuSans-30" transform="translate(159.033203 0)"/>
       <use xlink:href="#DejaVuSans-32" transform="translate(222.65625 0)"/>
      </g>
     </g>
    </g>
    <g id="ytick_5">
     <g id="line2d_21">
      <path d="M 62.57 45.969384 
L 565.2 45.969384 
" clip-path="url(#pd13fa57613)" style="fill: none; stroke: #b0b0b0; stroke-width: 0.8; stroke-linecap: square"/>
     </g>
     <g id="line2d_22">
      <g>
       <use xlink:href="#m1a798bf2fa" x="62.57" y="45.969384" style="stroke: #000000; stroke-width: 0.8"/>
      </g>
     </g>
     <g id="text_11">
      <!-- 1.004 -->
      <g transform="translate(26.941875 49.768603) scale(0.1 -0.1)">
       <use xlink:href="#DejaVuSans-31"/>
       <use xlink:href="#DejaVuSans-2e" transform="translate(63.623047 0)"/>
       <use xlink:href="#DejaVuSans-30" transform="translate(95.410156 0)"/>
       <use xlink:href="#DejaVuSans-30" transform="translate(159.033203 0)"/>
       <use xlink:href="#DejaVuSans-34" transform="translate(222.65625 0)"/>
      </g>
     </g>
    </g>
    <g id="ytick_6">
     <g id="line2d_23">
      <path d="M 62.57 18.944911 
L 565.2 18.944911 
" clip-path="url(#pd13fa57613)" style="fill: none; stroke: #b0b0b0; stroke-width: 0.8; stroke-linecap: square"/>
     </g>
     <g id="line2d_24">
      <g>
       <use xlink:href="#m1a798bf2fa" x="62.57" y="18.944911" style="stroke: #000000; stroke-width: 0.8"/>
      </g>
     </g>
     <g id="text_12">
      <!-- 1.006 -->
      <g transform="translate(26.941875 22.74413) scale(0.1 -0.1)">
       <use xlink:href="#DejaVuSans-31"/>
       <use xlink:href="#DejaVuSans-2e" transform="translate(63.623047 0)"/>
       <use xlink:href="#DejaVuSans-30" transform="translate(95.410156 0)"/>
       <use xlink:href="#DejaVuSans-30" transform="translate(159.033203 0)"/>
       <use xlink:href="#DejaVuSans-36" transform="translate(222.65625 0)"/>
      </g>
     </g>
    </g>
    <g id="text_13">
     <!-- Speed -->
     <g transform="translate(20.862188 104.389115) rotate(-90) scale(0.1 -0.1)">
      <defs>
       <path id="DejaVuSans-53" d="M 3425 4513 
L 3425 3897 
Q 3066 4069 2747 4153 
Q 2428 4238 2131 4238 
Q 1616 4238 1336 4038 
Q 1056 3838 1056 3469 
Q 1056 3159 1242 3001 
Q 1428 2844 1947 2747 
L 2328 2669 
Q 3034 2534 3370 2195 
Q 3706 1856 3706 1288 
Q 3706 609 3251 259 
Q 2797 -91 1919 -91 
Q 1588 -91 1214 -16 
Q 841 59 441 206 
L 441 856 
Q 825 641 1194 531 
Q 1563 422 1919 422 
Q 2459 422 2753 634 
Q 3047 847 3047 1241 
Q 3047 1584 2836 1778 
Q 2625 1972 2144 2069 
L 1759 2144 
Q 1053 2284 737 2584 
Q 422 2884 422 3419 
Q 422 4038 858 4394 
Q 1294 4750 2059 4750 
Q 2388 4750 2728 4690 
Q 3069 4631 3425 4513 
z
" transform="scale(0.015625)"/>
       <path id="DejaVuSans-70" d="M 1159 525 
L 1159 -1331 
L 581 -1331 
L 581 3500 
L 1159 3500 
L 1159 2969 
Q 1341 3281 1617 3432 
Q 1894 3584 2278 3584 
Q 2916 3584 3314 3078 
Q 3713 2572 3713 1747 
Q 3713 922 3314 415 
Q 2916 -91 2278 -91 
Q 1894 -91 1617 61 
Q 1341 213 1159 525 
z
M 3116 1747 
Q 3116 2381 2855 2742 
Q 2594 3103 2138 3103 
Q 1681 3103 1420 2742 
Q 1159 2381 1159 1747 
Q 1159 1113 1420 752 
Q 1681 391 2138 391 
Q 2594 391 2855 752 
Q 3116 1113 3116 1747 
z
" transform="scale(0.015625)"/>
       <path id="DejaVuSans-65" d="M 3597 1894 
L 3597 1613 
L 953 1613 
Q 991 1019 1311 708 
Q 1631 397 2203 397 
Q 2534 397 2845 478 
Q 3156 559 3463 722 
L 3463 178 
Q 3153 47 2828 -22 
Q 2503 -91 2169 -91 
Q 1331 -91 842 396 
Q 353 884 353 1716 
Q 353 2575 817 3079 
Q 1281 3584 2069 3584 
Q 2775 3584 3186 3129 
Q 3597 2675 3597 1894 
z
M 3022 2063 
Q 3016 2534 2758 2815 
Q 2500 3097 2075 3097 
Q 1594 3097 1305 2825 
Q 1016 2553 972 2059 
L 3022 2063 
z
" transform="scale(0.015625)"/>
       <path id="DejaVuSans-64" d="M 2906 2969 
L 2906 4863 
L 3481 4863 
L 3481 0 
L 2906 0 
L 2906 525 
Q 2725 213 2448 61 
Q 2172 -91 1784 -91 
Q 1150 -91 751 415 
Q 353 922 353 1747 
Q 353 2572 751 3078 
Q 1150 3584 1784 3584 
Q 2172 3584 2448 3432 
Q 2725 3281 2906 2969 
z
M 947 1747 
Q 947 1113 1208 752 
Q 1469 391 1925 391 
Q 2381 391 2643 752 
Q 2906 1113 2906 1747 
Q 2906 2381 2643 2742 
Q 2381 3103 1925 3103 
Q 1469 3103 1208 2742 
Q 947 2381 947 1747 
z
" transform="scale(0.015625)"/>
      </defs>
      <use xlink:href="#DejaVuSans-53"/>
      <use xlink:href="#DejaVuSans-70" transform="translate(63.476562 0)"/>
      <use xlink:href="#DejaVuSans-65" transform="translate(126.953125 0)"/>
      <use xlink:href="#DejaVuSans-65" transform="translate(188.476562 0)"/>
      <use xlink:href="#DejaVuSans-64" transform="translate(250 0)"/>
     </g>
    </g>
   </g>
   <g id="line2d_25">
    <path d="M 85.416818 100.018329 
L 131.110455 100.002613 
L 133.852073 61.12645 
L 135.222882 44.638901 
L 136.136755 35.441839 
L 137.050627 27.980038 
L 137.9645 22.465937 
L 138.421436 20.492803 
L 138.878373 19.064119 
L 139.335309 18.191618 
L 139.792245 17.88303 
L 140.249182 18.141873 
L 140.706118 18.967277 
L 141.163055 20.353864 
L 141.619991 22.291673 
L 142.533864 27.758163 
L 143.447736 35.196379 
L 144.361609 44.368067 
L 145.732418 60.709915 
L 148.0171 91.768377 
L 150.301782 122.122204 
L 151.672591 137.443302 
L 152.586464 145.756081 
L 153.500336 152.250505 
L 154.414209 156.747819 
L 154.871145 158.212123 
L 155.328082 159.144329 
L 155.785018 159.543636 
L 156.241955 159.414032 
L 156.698891 158.764145 
L 157.155827 157.607033 
L 157.612764 155.959924 
L 158.526636 151.283586 
L 159.440509 144.943802 
L 160.354382 137.193357 
L 161.725191 123.550825 
L 164.466809 92.836824 
L 166.294555 73.152842 
L 167.665364 60.407852 
L 168.579236 53.322197 
L 169.493109 47.596241 
L 170.406982 43.386192 
L 170.863918 41.886897 
L 171.320855 40.805537 
L 171.777791 40.148865 
L 172.234727 39.920439 
L 172.691664 40.120543 
L 173.1486 40.746136 
L 173.605536 41.790833 
L 174.062473 43.244922 
L 174.976345 47.326131 
L 175.890218 52.848362 
L 176.804091 59.623928 
L 178.1749 71.630542 
L 180.459582 94.284629 
L 182.744264 116.266397 
L 184.115073 127.30738 
L 185.028945 133.279169 
L 185.942818 137.929174 
L 186.856691 141.129536 
L 187.313627 142.160186 
L 187.770564 142.80399 
L 188.2275 143.059785 
L 188.684436 142.929732 
L 189.141373 142.419243 
L 189.598309 141.536873 
L 190.055245 140.294175 
L 190.969118 136.787944 
L 191.882991 132.045809 
L 192.796864 126.247787 
L 194.167673 116.028922 
L 196.909291 92.993075 
L 198.737036 78.279759 
L 200.107845 68.832809 
L 201.021718 63.639473 
L 201.935591 59.504526 
L 202.849464 56.542166 
L 203.3064 55.526746 
L 203.763336 54.831012 
L 204.220273 54.45878 
L 204.677209 54.411356 
L 205.134145 54.687513 
L 205.591082 55.283487 
L 206.048018 56.193003 
L 206.961891 58.915296 
L 207.875764 62.75626 
L 208.789636 67.582876 
L 210.160445 76.306659 
L 211.988191 89.674895 
L 214.729809 109.926636 
L 216.100618 118.58777 
L 217.014491 123.393906 
L 217.928364 127.256116 
L 218.842236 130.065453 
L 219.299173 131.051074 
L 219.756109 131.749151 
L 220.213045 132.156577 
L 220.669982 132.272685 
L 221.126918 132.099219 
L 221.583855 131.640297 
L 222.040791 130.902338 
L 222.954664 128.625958 
L 223.868536 125.363643 
L 224.782409 121.238167 
L 226.153218 113.758519 
L 227.980964 102.27691 
L 230.722582 84.812892 
L 232.093391 77.272619 
L 233.007264 73.043667 
L 233.921136 69.59823 
L 234.835009 67.033213 
L 235.748882 65.417628 
L 236.205818 64.979359 
L 236.662755 64.790784 
L 237.119691 64.851968 
L 237.576627 65.161019 
L 238.033564 65.714106 
L 238.4905 66.505497 
L 239.404373 68.771058 
L 240.318245 71.876115 
L 241.232118 75.713489 
L 242.602927 82.55573 
L 244.887609 95.575344 
L 247.172291 108.373805 
L 248.5431 114.91135 
L 249.456973 118.509369 
L 250.370845 121.373893 
L 251.284718 123.425111 
L 251.741655 124.128172 
L 252.198591 124.610382 
L 252.655527 124.869642 
L 253.112464 124.905673 
L 253.5694 124.720005 
L 254.026336 124.315948 
L 254.483273 123.698546 
L 255.397145 121.852165 
L 256.311018 119.253231 
L 257.224891 115.996593 
L 258.5957 110.131273 
L 260.880382 98.861204 
L 263.165064 87.66896 
L 264.535873 81.888186 
L 265.449745 78.672085 
L 266.363618 76.07732 
L 267.277491 74.17675 
L 268.191364 73.021021 
L 268.6483 72.731868 
L 269.105236 72.637174 
L 269.562173 72.736523 
L 270.019109 73.027982 
L 270.476045 73.508128 
L 271.389918 75.013533 
L 272.303791 77.197094 
L 273.217664 79.982702 
L 274.588473 85.080444 
L 276.416218 92.995735 
L 279.614773 107.082525 
L 280.985582 112.127449 
L 281.899455 114.892586 
L 282.813327 117.084051 
L 283.7272 118.641407 
L 284.184136 119.169053 
L 284.641073 119.52499 
L 285.098009 119.70768 
L 285.554945 119.716976 
L 286.011882 119.554112 
L 286.468818 119.221688 
L 287.382691 118.065157 
L 288.296564 116.293924 
L 289.210436 113.973183 
L 290.581245 109.643511 
L 292.408991 102.809393 
L 295.607545 90.430558 
L 296.978355 85.921546 
L 297.892227 83.419982 
L 298.8061 81.408632 
L 299.719973 79.943954 
L 300.633845 79.064811 
L 301.090782 78.851889 
L 301.547718 78.791464 
L 302.004655 78.883095 
L 302.461591 79.125156 
L 303.375464 80.048295 
L 304.289336 81.525238 
L 305.203209 83.503649 
L 306.574018 87.261095 
L 308.401764 93.301587 
L 312.057255 105.996207 
L 313.428064 109.9658 
L 314.341936 112.144 
L 315.255809 113.873263 
L 316.169682 115.106183 
L 317.083555 115.811422 
L 317.540491 115.960979 
L 317.997427 115.974545 
L 318.454364 115.853003 
L 318.9113 115.598292 
L 319.825173 114.702282 
L 320.739045 113.322163 
L 321.652918 111.508238 
L 323.023727 108.115042 
L 324.851473 102.743844 
L 328.506964 91.721057 
L 329.877773 88.371511 
L 330.791645 86.572118 
L 331.705518 85.181533 
L 332.619391 84.238011 
L 333.533264 83.765502 
L 333.9902 83.709303 
L 334.447136 83.773092 
L 335.361009 84.254916 
L 336.274882 85.190536 
L 337.188755 86.545773 
L 338.102627 88.27396 
L 339.473436 91.437162 
L 341.301182 96.354132 
L 344.499736 105.138216 
L 345.870545 108.305147 
L 346.784418 110.051685 
L 347.698291 111.446993 
L 348.612164 112.45286 
L 349.526036 113.043618 
L 350.439909 113.206817 
L 351.353782 112.943484 
L 352.267655 112.267927 
L 353.181527 111.207128 
L 354.0954 109.799717 
L 355.466209 107.148083 
L 357.293955 102.922479 
L 360.949445 94.17391 
L 362.320255 91.490682 
L 363.234127 90.039967 
L 364.148 88.909816 
L 365.061873 88.131537 
L 365.975745 87.725166 
L 366.889618 87.698998 
L 367.803491 88.049485 
L 368.717364 88.761507 
L 369.631236 89.808993 
L 370.545109 91.155879 
L 371.915918 93.637521 
L 373.743664 97.519924 
L 376.942218 104.512422 
L 378.313027 107.055101 
L 379.683836 109.070712 
L 380.597709 110.056636 
L 381.511582 110.724165 
L 382.425455 111.057135 
L 383.339327 111.049972 
L 384.2532 110.707746 
L 385.167073 110.045892 
L 386.080945 109.089592 
L 387.451755 107.179591 
L 388.822564 104.830988 
L 392.021118 98.643629 
L 393.848864 95.376337 
L 395.219673 93.367181 
L 396.133545 92.314862 
L 397.047418 91.528341 
L 397.961291 91.028976 
L 398.875164 90.828976 
L 399.789036 90.931143 
L 400.702909 91.328909 
L 401.616782 92.006663 
L 402.530655 92.940347 
L 403.901464 94.749697 
L 405.729209 97.7114 
L 409.841636 104.798527 
L 411.212445 106.714 
L 412.583255 108.178102 
L 413.497127 108.856579 
L 414.411 109.275304 
L 415.324873 109.424969 
L 416.238745 109.30475 
L 417.152618 108.922237 
L 418.066491 108.29309 
L 418.980364 107.440446 
L 420.351173 105.809166 
L 422.178918 103.173858 
L 426.291345 97.0125 
L 427.662155 95.398494 
L 429.032964 94.20136 
L 429.946836 93.673872 
L 430.860709 93.380084 
L 431.774582 93.326448 
L 432.688455 93.511892 
L 433.602327 93.927951 
L 434.5162 94.559121 
L 435.887009 95.859557 
L 437.257818 97.495944 
L 439.5425 100.641216 
L 442.284118 104.346334 
L 443.654927 105.873124 
L 445.025736 107.042307 
L 445.939609 107.585493 
L 446.853482 107.9222 
L 447.767355 108.044863 
L 448.681227 107.952691 
L 449.5951 107.651606 
L 450.508973 107.153977 
L 451.879782 106.080607 
L 453.250591 104.690995 
L 455.535273 101.960226 
L 458.276891 98.674684 
L 459.6477 97.296833 
L 461.018509 96.224457 
L 461.932382 95.714592 
L 462.846255 95.385795 
L 463.760127 95.246166 
L 464.674 95.297817 
L 465.587873 95.536881 
L 466.501745 95.953709 
L 467.872555 96.877966 
L 469.243364 98.096478 
L 471.528045 100.531249 
L 474.7266 103.971544 
L 476.097409 105.173099 
L 477.468218 106.088657 
L 478.839027 106.660303 
L 479.7529 106.833057 
L 480.666773 106.834784 
L 481.580645 106.667823 
L 482.951455 106.119052 
L 484.322264 105.254947 
L 486.150009 103.730681 
L 492.090182 98.279184 
L 493.460991 97.438942 
L 494.8318 96.898109 
L 496.202609 96.688828 
L 497.116482 96.738633 
L 498.487291 97.088703 
L 499.8581 97.740232 
L 501.228909 98.642014 
L 503.056655 100.114813 
L 507.626018 103.942568 
L 508.996827 104.802554 
L 510.367636 105.415177 
L 511.738445 105.742476 
L 513.109255 105.767281 
L 514.480064 105.494009 
L 515.850873 104.947915 
L 517.221682 104.172877 
L 519.049427 102.887 
L 523.618791 99.476134 
L 525.446536 98.476161 
L 526.817345 97.986164 
L 528.188155 97.753537 
L 529.558964 97.7893 
L 530.929773 98.085442 
L 532.300582 98.615846 
L 534.128327 99.612869 
L 536.869945 101.448966 
L 539.611564 103.224588 
L 541.439309 104.129477 
L 542.353182 104.45476 
L 542.353182 104.45476 
" clip-path="url(#pd13fa57613)" style="fill: none; stroke: #0000ff; stroke-width: 1.5; stroke-linecap: square"/>
   </g>
   <g id="patch_3">
    <path d="M 62.57 166.626667 
L 62.57 10.8 
" style="fill: none; stroke: #000000; stroke-width: 0.8; stroke-linejoin: miter; stroke-linecap: square"/>
   </g>
   <g id="patch_4">
    <path d="M 565.2 166.626667 
L 565.2 10.8 
" style="fill: none; stroke: #000000; stroke-width: 0.8; stroke-linejoin: miter; stroke-linecap: square"/>
   </g>
   <g id="patch_5">
    <path d="M 62.57 166.626667 
L 565.2 166.626667 
" style="fill: none; stroke: #000000; stroke-width: 0.8; stroke-linejoin: miter; stroke-linecap: square"/>
   </g>
   <g id="patch_6">
    <path d="M 62.57 10.8 
L 565.2 10.8 
" style="fill: none; stroke: #000000; stroke-width: 0.8; stroke-linejoin: miter; stroke-linecap: square"/>
   </g>
   <g id="legend_1">
    <g id="patch_7">
     <path d="M 494.1 33.5 
L 558.2 33.5 
Q 560.2 33.5 560.2 31.5 
L 560.2 17.8 
Q 560.2 15.8 558.2 15.8 
L 494.1 15.8 
Q 492.1 15.8 492.1 17.8 
L 492.1 31.5 
Q 492.1 33.5 494.1 33.5 
z
" style="fill: #ffffff; opacity: 0.8; stroke: #cccccc; stroke-linejoin: miter"/>
    </g>
    <g id="line2d_26">
     <path d="M 496.1 23.9 
L 506.1 23.9 
L 516.1 23.9 
" style="fill: none; stroke: #0000ff; stroke-width: 1.5; stroke-linecap: square"/>
    </g>
    <g id="text_14">
     <!-- $\omega$ (pu) -->
     <g transform="translate(524.1 27.4) scale(0.1 -0.1)">
      <defs>
       <path id="DejaVuSans-Oblique-3c9" d="M 1369 -91 
Q 72 -91 434 1766 
Q 575 2500 1256 3500 
L 1875 3500 
Q 1231 2500 1088 1750 
Q 819 397 1519 397 
Q 2166 397 2478 2078 
L 3009 2078 
Q 2669 388 3316 397 
Q 4013 403 4275 1750 
Q 4419 2500 4169 3500 
L 4788 3500 
Q 5075 2500 4934 1766 
Q 4578 -94 3278 -91 
Q 2428 -88 2503 844 
Q 2194 -91 1369 -91 
z
" transform="scale(0.015625)"/>
       <path id="DejaVuSans-20" transform="scale(0.015625)"/>
       <path id="DejaVuSans-28" d="M 1984 4856 
Q 1566 4138 1362 3434 
Q 1159 2731 1159 2009 
Q 1159 1288 1364 580 
Q 1569 -128 1984 -844 
L 1484 -844 
Q 1016 -109 783 600 
Q 550 1309 550 2009 
Q 550 2706 781 3412 
Q 1013 4119 1484 4856 
L 1984 4856 
z
" transform="scale(0.015625)"/>
       <path id="DejaVuSans-75" d="M 544 1381 
L 544 3500 
L 1119 3500 
L 1119 1403 
Q 1119 906 1312 657 
Q 1506 409 1894 409 
Q 2359 409 2629 706 
Q 2900 1003 2900 1516 
L 2900 3500 
L 3475 3500 
L 3475 0 
L 2900 0 
L 2900 538 
Q 2691 219 2414 64 
Q 2138 -91 1772 -91 
Q 1169 -91 856 284 
Q 544 659 544 1381 
z
M 1991 3584 
L 1991 3584 
z
" transform="scale(0.015625)"/>
       <path id="DejaVuSans-29" d="M 513 4856 
L 1013 4856 
Q 1481 4119 1714 3412 
Q 1947 2706 1947 2009 
Q 1947 1309 1714 600 
Q 1481 -109 1013 -844 
L 513 -844 
Q 928 -128 1133 580 
Q 1338 1288 1338 2009 
Q 1338 2731 1133 3434 
Q 928 4138 513 4856 
z
" transform="scale(0.015625)"/>
      </defs>
      <use xlink:href="#DejaVuSans-Oblique-3c9" transform="translate(0 0.125)"/>
      <use xlink:href="#DejaVuSans-20" transform="translate(83.740234 0.125)"/>
      <use xlink:href="#DejaVuSans-28" transform="translate(115.527344 0.125)"/>
      <use xlink:href="#DejaVuSans-70" transform="translate(154.541016 0.125)"/>
      <use xlink:href="#DejaVuSans-75" transform="translate(218.017578 0.125)"/>
      <use xlink:href="#DejaVuSans-29" transform="translate(281.396484 0.125)"/>
     </g>
    </g>
   </g>
  </g>
  <g id="axes_2">
   <g id="patch_8">
    <path d="M 62.57 350.333333 
L 565.2 350.333333 
L 565.2 194.506667 
L 62.57 194.506667 
z
" style="fill: #ffffff"/>
   </g>
   <g id="matplotlib.axis_3">
    <g id="xtick_7">
     <g id="line2d_27">
      <path d="M 85.416818 350.333333 
L 85.416818 194.506667 
" clip-path="url(#pa0142a3cc7)" style="fill: none; stroke: #b0b0b0; stroke-width: 0.8; stroke-linecap: square"/>
     </g>
     <g id="line2d_28">
      <g>
       <use xlink:href="#mece4ce5f32" x="85.416818" y="350.333333" style="stroke: #000000; stroke-width: 0.8"/>
      </g>
     </g>
     <g id="text_15">
      <!-- 0 -->
      <g transform="translate(82.235568 364.931771) scale(0.1 -0.1)">
       <use xlink:href="#DejaVuSans-30"/>
      </g>
     </g>
    </g>
    <g id="xtick_8">
     <g id="line2d_29">
      <path d="M 176.804091 350.333333 
L 176.804091 194.506667 
" clip-path="url(#pa0142a3cc7)" style="fill: none; stroke: #b0b0b0; stroke-width: 0.8; stroke-linecap: square"/>
     </g>
     <g id="line2d_30">
      <g>
       <use xlink:href="#mece4ce5f32" x="176.804091" y="350.333333" style="stroke: #000000; stroke-width: 0.8"/>
      </g>
     </g>
     <g id="text_16">
      <!-- 2 -->
      <g transform="translate(173.622841 364.931771) scale(0.1 -0.1)">
       <use xlink:href="#DejaVuSans-32"/>
      </g>
     </g>
    </g>
    <g id="xtick_9">
     <g id="line2d_31">
      <path d="M 268.191364 350.333333 
L 268.191364 194.506667 
" clip-path="url(#pa0142a3cc7)" style="fill: none; stroke: #b0b0b0; stroke-width: 0.8; stroke-linecap: square"/>
     </g>
     <g id="line2d_32">
      <g>
       <use xlink:href="#mece4ce5f32" x="268.191364" y="350.333333" style="stroke: #000000; stroke-width: 0.8"/>
      </g>
     </g>
     <g id="text_17">
      <!-- 4 -->
      <g transform="translate(265.010114 364.931771) scale(0.1 -0.1)">
       <use xlink:href="#DejaVuSans-34"/>
      </g>
     </g>
    </g>
    <g id="xtick_10">
     <g id="line2d_33">
      <path d="M 359.578636 350.333333 
L 359.578636 194.506667 
" clip-path="url(#pa0142a3cc7)" style="fill: none; stroke: #b0b0b0; stroke-width: 0.8; stroke-linecap: square"/>
     </g>
     <g id="line2d_34">
      <g>
       <use xlink:href="#mece4ce5f32" x="359.578636" y="350.333333" style="stroke: #000000; stroke-width: 0.8"/>
      </g>
     </g>
     <g id="text_18">
      <!-- 6 -->
      <g transform="translate(356.397386 364.931771) scale(0.1 -0.1)">
       <use xlink:href="#DejaVuSans-36"/>
      </g>
     </g>
    </g>
    <g id="xtick_11">
     <g id="line2d_35">
      <path d="M 450.965909 350.333333 
L 450.965909 194.506667 
" clip-path="url(#pa0142a3cc7)" style="fill: none; stroke: #b0b0b0; stroke-width: 0.8; stroke-linecap: square"/>
     </g>
     <g id="line2d_36">
      <g>
       <use xlink:href="#mece4ce5f32" x="450.965909" y="350.333333" style="stroke: #000000; stroke-width: 0.8"/>
      </g>
     </g>
     <g id="text_19">
      <!-- 8 -->
      <g transform="translate(447.784659 364.931771) scale(0.1 -0.1)">
       <use xlink:href="#DejaVuSans-38"/>
      </g>
     </g>
    </g>
    <g id="xtick_12">
     <g id="line2d_37">
      <path d="M 542.353182 350.333333 
L 542.353182 194.506667 
" clip-path="url(#pa0142a3cc7)" style="fill: none; stroke: #b0b0b0; stroke-width: 0.8; stroke-linecap: square"/>
     </g>
     <g id="line2d_38">
      <g>
       <use xlink:href="#mece4ce5f32" x="542.353182" y="350.333333" style="stroke: #000000; stroke-width: 0.8"/>
      </g>
     </g>
     <g id="text_20">
      <!-- 10 -->
      <g transform="translate(535.990682 364.931771) scale(0.1 -0.1)">
       <use xlink:href="#DejaVuSans-31"/>
       <use xlink:href="#DejaVuSans-30" transform="translate(63.623047 0)"/>
      </g>
     </g>
    </g>
   </g>
   <g id="matplotlib.axis_4">
    <g id="ytick_7">
     <g id="line2d_39">
      <path d="M 62.57 332.448052 
L 565.2 332.448052 
" clip-path="url(#pa0142a3cc7)" style="fill: none; stroke: #b0b0b0; stroke-width: 0.8; stroke-linecap: square"/>
     </g>
     <g id="line2d_40">
      <g>
       <use xlink:href="#m1a798bf2fa" x="62.57" y="332.448052" style="stroke: #000000; stroke-width: 0.8"/>
      </g>
     </g>
     <g id="text_21">
      <!-- 0.5 -->
      <g transform="translate(39.666875 336.24727) scale(0.1 -0.1)">
       <defs>
        <path id="DejaVuSans-35" d="M 691 4666 
L 3169 4666 
L 3169 4134 
L 1269 4134 
L 1269 2991 
Q 1406 3038 1543 3061 
Q 1681 3084 1819 3084 
Q 2600 3084 3056 2656 
Q 3513 2228 3513 1497 
Q 3513 744 3044 326 
Q 2575 -91 1722 -91 
Q 1428 -91 1123 -41 
Q 819 9 494 109 
L 494 744 
Q 775 591 1075 516 
Q 1375 441 1709 441 
Q 2250 441 2565 725 
Q 2881 1009 2881 1497 
Q 2881 1984 2565 2268 
Q 2250 2553 1709 2553 
Q 1456 2553 1204 2497 
Q 953 2441 691 2322 
L 691 4666 
z
" transform="scale(0.015625)"/>
       </defs>
       <use xlink:href="#DejaVuSans-30"/>
       <use xlink:href="#DejaVuSans-2e" transform="translate(63.623047 0)"/>
       <use xlink:href="#DejaVuSans-35" transform="translate(95.410156 0)"/>
      </g>
     </g>
    </g>
    <g id="ytick_8">
     <g id="line2d_41">
      <path d="M 62.57 288.429698 
L 565.2 288.429698 
" clip-path="url(#pa0142a3cc7)" style="fill: none; stroke: #b0b0b0; stroke-width: 0.8; stroke-linecap: square"/>
     </g>
     <g id="line2d_42">
      <g>
       <use xlink:href="#m1a798bf2fa" x="62.57" y="288.429698" style="stroke: #000000; stroke-width: 0.8"/>
      </g>
     </g>
     <g id="text_22">
      <!-- 0.6 -->
      <g transform="translate(39.666875 292.228917) scale(0.1 -0.1)">
       <use xlink:href="#DejaVuSans-30"/>
       <use xlink:href="#DejaVuSans-2e" transform="translate(63.623047 0)"/>
       <use xlink:href="#DejaVuSans-36" transform="translate(95.410156 0)"/>
      </g>
     </g>
    </g>
    <g id="ytick_9">
     <g id="line2d_43">
      <path d="M 62.57 244.411344 
L 565.2 244.411344 
" clip-path="url(#pa0142a3cc7)" style="fill: none; stroke: #b0b0b0; stroke-width: 0.8; stroke-linecap: square"/>
     </g>
     <g id="line2d_44">
      <g>
       <use xlink:href="#m1a798bf2fa" x="62.57" y="244.411344" style="stroke: #000000; stroke-width: 0.8"/>
      </g>
     </g>
     <g id="text_23">
      <!-- 0.7 -->
      <g transform="translate(39.666875 248.210563) scale(0.1 -0.1)">
       <defs>
        <path id="DejaVuSans-37" d="M 525 4666 
L 3525 4666 
L 3525 4397 
L 1831 0 
L 1172 0 
L 2766 4134 
L 525 4134 
L 525 4666 
z
" transform="scale(0.015625)"/>
       </defs>
       <use xlink:href="#DejaVuSans-30"/>
       <use xlink:href="#DejaVuSans-2e" transform="translate(63.623047 0)"/>
       <use xlink:href="#DejaVuSans-37" transform="translate(95.410156 0)"/>
      </g>
     </g>
    </g>
    <g id="ytick_10">
     <g id="line2d_45">
      <path d="M 62.57 200.39299 
L 565.2 200.39299 
" clip-path="url(#pa0142a3cc7)" style="fill: none; stroke: #b0b0b0; stroke-width: 0.8; stroke-linecap: square"/>
     </g>
     <g id="line2d_46">
      <g>
       <use xlink:href="#m1a798bf2fa" x="62.57" y="200.39299" style="stroke: #000000; stroke-width: 0.8"/>
      </g>
     </g>
     <g id="text_24">
      <!-- 0.8 -->
      <g transform="translate(39.666875 204.192209) scale(0.1 -0.1)">
       <use xlink:href="#DejaVuSans-30"/>
       <use xlink:href="#DejaVuSans-2e" transform="translate(63.623047 0)"/>
       <use xlink:href="#DejaVuSans-38" transform="translate(95.410156 0)"/>
      </g>
     </g>
    </g>
    <g id="text_25">
     <!-- q-axis Transient V -->
     <g transform="translate(33.587187 316.817656) rotate(-90) scale(0.1 -0.1)">
      <defs>
       <path id="DejaVuSans-71" d="M 947 1747 
Q 947 1113 1208 752 
Q 1469 391 1925 391 
Q 2381 391 2643 752 
Q 2906 1113 2906 1747 
Q 2906 2381 2643 2742 
Q 2381 3103 1925 3103 
Q 1469 3103 1208 2742 
Q 947 2381 947 1747 
z
M 2906 525 
Q 2725 213 2448 61 
Q 2172 -91 1784 -91 
Q 1150 -91 751 415 
Q 353 922 353 1747 
Q 353 2572 751 3078 
Q 1150 3584 1784 3584 
Q 2172 3584 2448 3432 
Q 2725 3281 2906 2969 
L 2906 3500 
L 3481 3500 
L 3481 -1331 
L 2906 -1331 
L 2906 525 
z
" transform="scale(0.015625)"/>
       <path id="DejaVuSans-2d" d="M 313 2009 
L 1997 2009 
L 1997 1497 
L 313 1497 
L 313 2009 
z
" transform="scale(0.015625)"/>
       <path id="DejaVuSans-61" d="M 2194 1759 
Q 1497 1759 1228 1600 
Q 959 1441 959 1056 
Q 959 750 1161 570 
Q 1363 391 1709 391 
Q 2188 391 2477 730 
Q 2766 1069 2766 1631 
L 2766 1759 
L 2194 1759 
z
M 3341 1997 
L 3341 0 
L 2766 0 
L 2766 531 
Q 2569 213 2275 61 
Q 1981 -91 1556 -91 
Q 1019 -91 701 211 
Q 384 513 384 1019 
Q 384 1609 779 1909 
Q 1175 2209 1959 2209 
L 2766 2209 
L 2766 2266 
Q 2766 2663 2505 2880 
Q 2244 3097 1772 3097 
Q 1472 3097 1187 3025 
Q 903 2953 641 2809 
L 641 3341 
Q 956 3463 1253 3523 
Q 1550 3584 1831 3584 
Q 2591 3584 2966 3190 
Q 3341 2797 3341 1997 
z
" transform="scale(0.015625)"/>
       <path id="DejaVuSans-78" d="M 3513 3500 
L 2247 1797 
L 3578 0 
L 2900 0 
L 1881 1375 
L 863 0 
L 184 0 
L 1544 1831 
L 300 3500 
L 978 3500 
L 1906 2253 
L 2834 3500 
L 3513 3500 
z
" transform="scale(0.015625)"/>
       <path id="DejaVuSans-69" d="M 603 3500 
L 1178 3500 
L 1178 0 
L 603 0 
L 603 3500 
z
M 603 4863 
L 1178 4863 
L 1178 4134 
L 603 4134 
L 603 4863 
z
" transform="scale(0.015625)"/>
       <path id="DejaVuSans-73" d="M 2834 3397 
L 2834 2853 
Q 2591 2978 2328 3040 
Q 2066 3103 1784 3103 
Q 1356 3103 1142 2972 
Q 928 2841 928 2578 
Q 928 2378 1081 2264 
Q 1234 2150 1697 2047 
L 1894 2003 
Q 2506 1872 2764 1633 
Q 3022 1394 3022 966 
Q 3022 478 2636 193 
Q 2250 -91 1575 -91 
Q 1294 -91 989 -36 
Q 684 19 347 128 
L 347 722 
Q 666 556 975 473 
Q 1284 391 1588 391 
Q 1994 391 2212 530 
Q 2431 669 2431 922 
Q 2431 1156 2273 1281 
Q 2116 1406 1581 1522 
L 1381 1569 
Q 847 1681 609 1914 
Q 372 2147 372 2553 
Q 372 3047 722 3315 
Q 1072 3584 1716 3584 
Q 2034 3584 2315 3537 
Q 2597 3491 2834 3397 
z
" transform="scale(0.015625)"/>
       <path id="DejaVuSans-54" d="M -19 4666 
L 3928 4666 
L 3928 4134 
L 2272 4134 
L 2272 0 
L 1638 0 
L 1638 4134 
L -19 4134 
L -19 4666 
z
" transform="scale(0.015625)"/>
       <path id="DejaVuSans-72" d="M 2631 2963 
Q 2534 3019 2420 3045 
Q 2306 3072 2169 3072 
Q 1681 3072 1420 2755 
Q 1159 2438 1159 1844 
L 1159 0 
L 581 0 
L 581 3500 
L 1159 3500 
L 1159 2956 
Q 1341 3275 1631 3429 
Q 1922 3584 2338 3584 
Q 2397 3584 2469 3576 
Q 2541 3569 2628 3553 
L 2631 2963 
z
" transform="scale(0.015625)"/>
       <path id="DejaVuSans-6e" d="M 3513 2113 
L 3513 0 
L 2938 0 
L 2938 2094 
Q 2938 2591 2744 2837 
Q 2550 3084 2163 3084 
Q 1697 3084 1428 2787 
Q 1159 2491 1159 1978 
L 1159 0 
L 581 0 
L 581 3500 
L 1159 3500 
L 1159 2956 
Q 1366 3272 1645 3428 
Q 1925 3584 2291 3584 
Q 2894 3584 3203 3211 
Q 3513 2838 3513 2113 
z
" transform="scale(0.015625)"/>
       <path id="DejaVuSans-74" d="M 1172 4494 
L 1172 3500 
L 2356 3500 
L 2356 3053 
L 1172 3053 
L 1172 1153 
Q 1172 725 1289 603 
Q 1406 481 1766 481 
L 2356 481 
L 2356 0 
L 1766 0 
Q 1100 0 847 248 
Q 594 497 594 1153 
L 594 3053 
L 172 3053 
L 172 3500 
L 594 3500 
L 594 4494 
L 1172 4494 
z
" transform="scale(0.015625)"/>
       <path id="DejaVuSans-56" d="M 1831 0 
L 50 4666 
L 709 4666 
L 2188 738 
L 3669 4666 
L 4325 4666 
L 2547 0 
L 1831 0 
z
" transform="scale(0.015625)"/>
      </defs>
      <use xlink:href="#DejaVuSans-71"/>
      <use xlink:href="#DejaVuSans-2d" transform="translate(63.476562 0)"/>
      <use xlink:href="#DejaVuSans-61" transform="translate(99.560547 0)"/>
      <use xlink:href="#DejaVuSans-78" transform="translate(160.839844 0)"/>
      <use xlink:href="#DejaVuSans-69" transform="translate(220.019531 0)"/>
      <use xlink:href="#DejaVuSans-73" transform="translate(247.802734 0)"/>
      <use xlink:href="#DejaVuSans-20" transform="translate(299.902344 0)"/>
      <use xlink:href="#DejaVuSans-54" transform="translate(331.689453 0)"/>
      <use xlink:href="#DejaVuSans-72" transform="translate(378.023438 0)"/>
      <use xlink:href="#DejaVuSans-61" transform="translate(419.136719 0)"/>
      <use xlink:href="#DejaVuSans-6e" transform="translate(480.416016 0)"/>
      <use xlink:href="#DejaVuSans-73" transform="translate(543.794922 0)"/>
      <use xlink:href="#DejaVuSans-69" transform="translate(595.894531 0)"/>
      <use xlink:href="#DejaVuSans-65" transform="translate(623.677734 0)"/>
      <use xlink:href="#DejaVuSans-6e" transform="translate(685.201172 0)"/>
      <use xlink:href="#DejaVuSans-74" transform="translate(748.580078 0)"/>
      <use xlink:href="#DejaVuSans-20" transform="translate(787.789062 0)"/>
      <use xlink:href="#DejaVuSans-56" transform="translate(819.576172 0)"/>
     </g>
    </g>
   </g>
   <g id="line2d_47">
    <path d="M 85.416818 201.600773 
L 133.852073 201.684896 
L 135.222882 201.909585 
L 136.593691 202.343096 
L 137.9645 203.044613 
L 139.335309 204.059632 
L 140.706118 205.414249 
L 142.076927 207.110662 
L 143.447736 209.125126 
L 145.275482 212.218902 
L 148.474036 218.252395 
L 151.215655 223.343091 
L 153.0434 226.368213 
L 154.871145 228.951598 
L 156.241955 230.562625 
L 157.612764 231.891477 
L 158.983573 232.956352 
L 160.354382 233.791349 
L 162.182127 234.629177 
L 164.923745 235.575917 
L 167.665364 236.600945 
L 169.493109 237.565373 
L 170.863918 238.517374 
L 172.234727 239.699294 
L 173.605536 241.12291 
L 175.433282 243.381675 
L 177.717964 246.679376 
L 185.485882 258.464276 
L 187.313627 260.624071 
L 189.141373 262.395341 
L 190.969118 263.784241 
L 192.796864 264.839988 
L 194.624609 265.646546 
L 201.478655 268.380014 
L 203.3064 269.526888 
L 205.134145 270.98638 
L 206.961891 272.764759 
L 209.246573 275.373932 
L 212.902064 280.041683 
L 216.100618 284.020658 
L 218.3853 286.488663 
L 220.213045 288.142296 
L 222.040791 289.48752 
L 223.868536 290.54087 
L 225.696282 291.350971 
L 228.4379 292.276369 
L 232.550327 293.629696 
L 234.378073 294.444008 
L 236.205818 295.478261 
L 238.033564 296.756952 
L 240.318245 298.680835 
L 243.059864 301.340017 
L 248.5431 306.774679 
L 250.827782 308.676713 
L 252.655527 309.938878 
L 254.483273 310.95505 
L 256.311018 311.740618 
L 258.5957 312.461793 
L 262.251191 313.309629 
L 265.449745 314.144752 
L 267.734427 314.99181 
L 270.019109 316.123561 
L 272.303791 317.538427 
L 275.045409 319.51753 
L 280.985582 323.919327 
L 283.270264 325.302546 
L 285.554945 326.391853 
L 287.839627 327.176114 
L 290.124309 327.696136 
L 293.322864 328.144746 
L 297.892227 328.777864 
L 300.176909 329.312638 
L 302.461591 330.067941 
L 304.746273 331.040202 
L 307.944827 332.661337 
L 312.971127 335.250397 
L 315.255809 336.206043 
L 317.540491 336.93096 
L 319.825173 337.408423 
L 322.109855 337.663377 
L 325.308409 337.76698 
L 330.791645 337.893886 
L 333.533264 338.211561 
L 336.274882 338.778565 
L 339.473436 339.700864 
L 346.327482 341.785287 
L 349.0691 342.313872 
L 351.353782 342.53847 
L 354.0954 342.558161 
L 357.293955 342.328941 
L 364.148 341.750623 
L 366.889618 341.762487 
L 370.088173 342.016842 
L 375.114473 342.71522 
L 378.769964 343.136974 
L 381.511582 343.250303 
L 384.2532 343.137878 
L 386.994818 342.811177 
L 391.107245 342.061249 
L 396.590482 341.071752 
L 399.789036 340.719961 
L 403.444527 340.56176 
L 413.040191 340.331089 
L 416.238745 339.915712 
L 419.4373 339.264546 
L 424.006664 338.074694 
L 429.4899 336.68264 
L 433.145391 335.986756 
L 437.257818 335.435485 
L 444.5688 334.514131 
L 448.224291 333.790686 
L 451.879782 332.825123 
L 457.819955 330.9613 
L 462.846255 329.477174 
L 466.958682 328.498025 
L 473.355791 327.260822 
L 478.382091 326.181829 
L 482.494518 325.053883 
L 487.520818 323.409934 
L 495.288736 320.860873 
L 499.8581 319.625847 
L 514.480064 315.929182 
L 520.420236 313.968379 
L 527.731218 311.587429 
L 532.757518 310.205383 
L 542.353182 307.831907 
L 542.353182 307.831907 
" clip-path="url(#pa0142a3cc7)" style="fill: none; stroke: #ff0000; stroke-width: 1.5; stroke-linecap: square"/>
   </g>
   <g id="patch_9">
    <path d="M 62.57 350.333333 
L 62.57 194.506667 
" style="fill: none; stroke: #000000; stroke-width: 0.8; stroke-linejoin: miter; stroke-linecap: square"/>
   </g>
   <g id="patch_10">
    <path d="M 565.2 350.333333 
L 565.2 194.506667 
" style="fill: none; stroke: #000000; stroke-width: 0.8; stroke-linejoin: miter; stroke-linecap: square"/>
   </g>
   <g id="patch_11">
    <path d="M 62.57 350.333333 
L 565.2 350.333333 
" style="fill: none; stroke: #000000; stroke-width: 0.8; stroke-linejoin: miter; stroke-linecap: square"/>
   </g>
   <g id="patch_12">
    <path d="M 62.57 194.506667 
L 565.2 194.506667 
" style="fill: none; stroke: #000000; stroke-width: 0.8; stroke-linejoin: miter; stroke-linecap: square"/>
   </g>
   <g id="legend_2">
    <g id="patch_13">
     <path d="M 488.9 218.406667 
L 558.2 218.406667 
Q 560.2 218.406667 560.2 216.406667 
L 560.2 201.506667 
Q 560.2 199.506667 558.2 199.506667 
L 488.9 199.506667 
Q 486.9 199.506667 486.9 201.506667 
L 486.9 216.406667 
Q 486.9 218.406667 488.9 218.406667 
z
" style="fill: #ffffff; opacity: 0.8; stroke: #cccccc; stroke-linejoin: miter"/>
    </g>
    <g id="line2d_48">
     <path d="M 490.9 207.806667 
L 500.9 207.806667 
L 510.9 207.806667 
" style="fill: none; stroke: #ff0000; stroke-width: 1.5; stroke-linecap: square"/>
    </g>
    <g id="text_26">
     <!-- $e'_q$ (pu) -->
     <g transform="translate(518.9 211.306667) scale(0.1 -0.1)">
      <defs>
       <path id="DejaVuSans-Oblique-65" d="M 3078 2063 
Q 3088 2113 3092 2166 
Q 3097 2219 3097 2272 
Q 3097 2653 2873 2875 
Q 2650 3097 2266 3097 
Q 1838 3097 1509 2826 
Q 1181 2556 1013 2059 
L 3078 2063 
z
M 3578 1613 
L 903 1613 
Q 884 1494 878 1425 
Q 872 1356 872 1306 
Q 872 872 1139 634 
Q 1406 397 1894 397 
Q 2269 397 2603 481 
Q 2938 566 3225 728 
L 3116 159 
Q 2806 34 2476 -28 
Q 2147 -91 1806 -91 
Q 1078 -91 686 257 
Q 294 606 294 1247 
Q 294 1794 489 2264 
Q 684 2734 1063 3103 
Q 1306 3334 1642 3459 
Q 1978 3584 2356 3584 
Q 2950 3584 3301 3228 
Q 3653 2872 3653 2272 
Q 3653 2128 3634 1964 
Q 3616 1800 3578 1613 
z
" transform="scale(0.015625)"/>
       <path id="Cmsy10-30" d="M 225 347 
Q 184 359 184 409 
L 966 3316 
Q 1003 3434 1093 3506 
Q 1184 3578 1300 3578 
Q 1450 3578 1564 3479 
Q 1678 3381 1678 3231 
Q 1678 3166 1644 3084 
L 488 319 
Q 466 275 428 275 
Q 394 275 320 306 
Q 247 338 225 347 
z
" transform="scale(0.015625)"/>
       <path id="DejaVuSans-Oblique-71" d="M 2669 525 
Q 2438 222 2123 65 
Q 1809 -91 1428 -91 
Q 897 -91 595 267 
Q 294 625 294 1253 
Q 294 1759 480 2231 
Q 666 2703 1013 3078 
Q 1238 3322 1530 3453 
Q 1822 3584 2144 3584 
Q 2531 3584 2781 3431 
Q 3031 3278 3144 2969 
L 3244 3494 
L 3822 3494 
L 2888 -1319 
L 2309 -1319 
L 2669 525 
z
M 891 1338 
Q 891 875 1084 633 
Q 1278 391 1644 391 
Q 2188 391 2572 911 
Q 2956 1431 2956 2175 
Q 2956 2625 2757 2864 
Q 2559 3103 2188 3103 
Q 1916 3103 1684 2976 
Q 1453 2850 1281 2606 
Q 1100 2350 995 2006 
Q 891 1663 891 1338 
z
" transform="scale(0.015625)"/>
      </defs>
      <use xlink:href="#DejaVuSans-Oblique-65" transform="translate(0 0.584375)"/>
      <use xlink:href="#Cmsy10-30" transform="translate(66.173333 38.865625) scale(0.7)"/>
      <use xlink:href="#DejaVuSans-Oblique-71" transform="translate(89.107904 -15.821875) scale(0.7)"/>
      <use xlink:href="#DejaVuSans-20" transform="translate(136.275872 0.584375)"/>
      <use xlink:href="#DejaVuSans-28" transform="translate(168.062982 0.584375)"/>
      <use xlink:href="#DejaVuSans-70" transform="translate(207.076654 0.584375)"/>
      <use xlink:href="#DejaVuSans-75" transform="translate(270.553216 0.584375)"/>
      <use xlink:href="#DejaVuSans-29" transform="translate(333.932122 0.584375)"/>
     </g>
    </g>
   </g>
  </g>
  <g id="axes_3">
   <g id="patch_14">
    <path d="M 62.57 534.04 
L 565.2 534.04 
L 565.2 378.213333 
L 62.57 378.213333 
z
" style="fill: #ffffff"/>
   </g>
   <g id="matplotlib.axis_5">
    <g id="xtick_13">
     <g id="line2d_49">
      <path d="M 85.416818 534.04 
L 85.416818 378.213333 
" clip-path="url(#pcb6b51a286)" style="fill: none; stroke: #b0b0b0; stroke-width: 0.8; stroke-linecap: square"/>
     </g>
     <g id="line2d_50">
      <g>
       <use xlink:href="#mece4ce5f32" x="85.416818" y="534.04" style="stroke: #000000; stroke-width: 0.8"/>
      </g>
     </g>
     <g id="text_27">
      <!-- 0 -->
      <g transform="translate(82.235568 548.638438) scale(0.1 -0.1)">
       <use xlink:href="#DejaVuSans-30"/>
      </g>
     </g>
    </g>
    <g id="xtick_14">
     <g id="line2d_51">
      <path d="M 176.804091 534.04 
L 176.804091 378.213333 
" clip-path="url(#pcb6b51a286)" style="fill: none; stroke: #b0b0b0; stroke-width: 0.8; stroke-linecap: square"/>
     </g>
     <g id="line2d_52">
      <g>
       <use xlink:href="#mece4ce5f32" x="176.804091" y="534.04" style="stroke: #000000; stroke-width: 0.8"/>
      </g>
     </g>
     <g id="text_28">
      <!-- 2 -->
      <g transform="translate(173.622841 548.638438) scale(0.1 -0.1)">
       <use xlink:href="#DejaVuSans-32"/>
      </g>
     </g>
    </g>
    <g id="xtick_15">
     <g id="line2d_53">
      <path d="M 268.191364 534.04 
L 268.191364 378.213333 
" clip-path="url(#pcb6b51a286)" style="fill: none; stroke: #b0b0b0; stroke-width: 0.8; stroke-linecap: square"/>
     </g>
     <g id="line2d_54">
      <g>
       <use xlink:href="#mece4ce5f32" x="268.191364" y="534.04" style="stroke: #000000; stroke-width: 0.8"/>
      </g>
     </g>
     <g id="text_29">
      <!-- 4 -->
      <g transform="translate(265.010114 548.638438) scale(0.1 -0.1)">
       <use xlink:href="#DejaVuSans-34"/>
      </g>
     </g>
    </g>
    <g id="xtick_16">
     <g id="line2d_55">
      <path d="M 359.578636 534.04 
L 359.578636 378.213333 
" clip-path="url(#pcb6b51a286)" style="fill: none; stroke: #b0b0b0; stroke-width: 0.8; stroke-linecap: square"/>
     </g>
     <g id="line2d_56">
      <g>
       <use xlink:href="#mece4ce5f32" x="359.578636" y="534.04" style="stroke: #000000; stroke-width: 0.8"/>
      </g>
     </g>
     <g id="text_30">
      <!-- 6 -->
      <g transform="translate(356.397386 548.638438) scale(0.1 -0.1)">
       <use xlink:href="#DejaVuSans-36"/>
      </g>
     </g>
    </g>
    <g id="xtick_17">
     <g id="line2d_57">
      <path d="M 450.965909 534.04 
L 450.965909 378.213333 
" clip-path="url(#pcb6b51a286)" style="fill: none; stroke: #b0b0b0; stroke-width: 0.8; stroke-linecap: square"/>
     </g>
     <g id="line2d_58">
      <g>
       <use xlink:href="#mece4ce5f32" x="450.965909" y="534.04" style="stroke: #000000; stroke-width: 0.8"/>
      </g>
     </g>
     <g id="text_31">
      <!-- 8 -->
      <g transform="translate(447.784659 548.638438) scale(0.1 -0.1)">
       <use xlink:href="#DejaVuSans-38"/>
      </g>
     </g>
    </g>
    <g id="xtick_18">
     <g id="line2d_59">
      <path d="M 542.353182 534.04 
L 542.353182 378.213333 
" clip-path="url(#pcb6b51a286)" style="fill: none; stroke: #b0b0b0; stroke-width: 0.8; stroke-linecap: square"/>
     </g>
     <g id="line2d_60">
      <g>
       <use xlink:href="#mece4ce5f32" x="542.353182" y="534.04" style="stroke: #000000; stroke-width: 0.8"/>
      </g>
     </g>
     <g id="text_32">
      <!-- 10 -->
      <g transform="translate(535.990682 548.638438) scale(0.1 -0.1)">
       <use xlink:href="#DejaVuSans-31"/>
       <use xlink:href="#DejaVuSans-30" transform="translate(63.623047 0)"/>
      </g>
     </g>
    </g>
    <g id="text_33">
     <!-- Time (s) -->
     <g transform="translate(293.556094 562.316562) scale(0.1 -0.1)">
      <defs>
       <path id="DejaVuSans-6d" d="M 3328 2828 
Q 3544 3216 3844 3400 
Q 4144 3584 4550 3584 
Q 5097 3584 5394 3201 
Q 5691 2819 5691 2113 
L 5691 0 
L 5113 0 
L 5113 2094 
Q 5113 2597 4934 2840 
Q 4756 3084 4391 3084 
Q 3944 3084 3684 2787 
Q 3425 2491 3425 1978 
L 3425 0 
L 2847 0 
L 2847 2094 
Q 2847 2600 2669 2842 
Q 2491 3084 2119 3084 
Q 1678 3084 1418 2786 
Q 1159 2488 1159 1978 
L 1159 0 
L 581 0 
L 581 3500 
L 1159 3500 
L 1159 2956 
Q 1356 3278 1631 3431 
Q 1906 3584 2284 3584 
Q 2666 3584 2933 3390 
Q 3200 3197 3328 2828 
z
" transform="scale(0.015625)"/>
      </defs>
      <use xlink:href="#DejaVuSans-54"/>
      <use xlink:href="#DejaVuSans-69" transform="translate(57.958984 0)"/>
      <use xlink:href="#DejaVuSans-6d" transform="translate(85.742188 0)"/>
      <use xlink:href="#DejaVuSans-65" transform="translate(183.154297 0)"/>
      <use xlink:href="#DejaVuSans-20" transform="translate(244.677734 0)"/>
      <use xlink:href="#DejaVuSans-28" transform="translate(276.464844 0)"/>
      <use xlink:href="#DejaVuSans-73" transform="translate(315.478516 0)"/>
      <use xlink:href="#DejaVuSans-29" transform="translate(367.578125 0)"/>
     </g>
    </g>
   </g>
   <g id="matplotlib.axis_6">
    <g id="ytick_11">
     <g id="line2d_61">
      <path d="M 62.57 512.790909 
L 565.2 512.790909 
" clip-path="url(#pcb6b51a286)" style="fill: none; stroke: #b0b0b0; stroke-width: 0.8; stroke-linecap: square"/>
     </g>
     <g id="line2d_62">
      <g>
       <use xlink:href="#m1a798bf2fa" x="62.57" y="512.790909" style="stroke: #000000; stroke-width: 0.8"/>
      </g>
     </g>
     <g id="text_34">
      <!-- −0.04 -->
      <g transform="translate(24.924688 516.590128) scale(0.1 -0.1)">
       <defs>
        <path id="DejaVuSans-2212" d="M 678 2272 
L 4684 2272 
L 4684 1741 
L 678 1741 
L 678 2272 
z
" transform="scale(0.015625)"/>
       </defs>
       <use xlink:href="#DejaVuSans-2212"/>
       <use xlink:href="#DejaVuSans-30" transform="translate(83.789062 0)"/>
       <use xlink:href="#DejaVuSans-2e" transform="translate(147.412109 0)"/>
       <use xlink:href="#DejaVuSans-30" transform="translate(179.199219 0)"/>
       <use xlink:href="#DejaVuSans-34" transform="translate(242.822266 0)"/>
      </g>
     </g>
    </g>
    <g id="ytick_12">
     <g id="line2d_63">
      <path d="M 62.57 484.458788 
L 565.2 484.458788 
" clip-path="url(#pcb6b51a286)" style="fill: none; stroke: #b0b0b0; stroke-width: 0.8; stroke-linecap: square"/>
     </g>
     <g id="line2d_64">
      <g>
       <use xlink:href="#m1a798bf2fa" x="62.57" y="484.458788" style="stroke: #000000; stroke-width: 0.8"/>
      </g>
     </g>
     <g id="text_35">
      <!-- −0.02 -->
      <g transform="translate(24.924688 488.258007) scale(0.1 -0.1)">
       <use xlink:href="#DejaVuSans-2212"/>
       <use xlink:href="#DejaVuSans-30" transform="translate(83.789062 0)"/>
       <use xlink:href="#DejaVuSans-2e" transform="translate(147.412109 0)"/>
       <use xlink:href="#DejaVuSans-30" transform="translate(179.199219 0)"/>
       <use xlink:href="#DejaVuSans-32" transform="translate(242.822266 0)"/>
      </g>
     </g>
    </g>
    <g id="ytick_13">
     <g id="line2d_65">
      <path d="M 62.57 456.126667 
L 565.2 456.126667 
" clip-path="url(#pcb6b51a286)" style="fill: none; stroke: #b0b0b0; stroke-width: 0.8; stroke-linecap: square"/>
     </g>
     <g id="line2d_66">
      <g>
       <use xlink:href="#m1a798bf2fa" x="62.57" y="456.126667" style="stroke: #000000; stroke-width: 0.8"/>
      </g>
     </g>
     <g id="text_36">
      <!-- 0.00 -->
      <g transform="translate(33.304375 459.925885) scale(0.1 -0.1)">
       <use xlink:href="#DejaVuSans-30"/>
       <use xlink:href="#DejaVuSans-2e" transform="translate(63.623047 0)"/>
       <use xlink:href="#DejaVuSans-30" transform="translate(95.410156 0)"/>
       <use xlink:href="#DejaVuSans-30" transform="translate(159.033203 0)"/>
      </g>
     </g>
    </g>
    <g id="ytick_14">
     <g id="line2d_67">
      <path d="M 62.57 427.794545 
L 565.2 427.794545 
" clip-path="url(#pcb6b51a286)" style="fill: none; stroke: #b0b0b0; stroke-width: 0.8; stroke-linecap: square"/>
     </g>
     <g id="line2d_68">
      <g>
       <use xlink:href="#m1a798bf2fa" x="62.57" y="427.794545" style="stroke: #000000; stroke-width: 0.8"/>
      </g>
     </g>
     <g id="text_37">
      <!-- 0.02 -->
      <g transform="translate(33.304375 431.593764) scale(0.1 -0.1)">
       <use xlink:href="#DejaVuSans-30"/>
       <use xlink:href="#DejaVuSans-2e" transform="translate(63.623047 0)"/>
       <use xlink:href="#DejaVuSans-30" transform="translate(95.410156 0)"/>
       <use xlink:href="#DejaVuSans-32" transform="translate(159.033203 0)"/>
      </g>
     </g>
    </g>
    <g id="ytick_15">
     <g id="line2d_69">
      <path d="M 62.57 399.462424 
L 565.2 399.462424 
" clip-path="url(#pcb6b51a286)" style="fill: none; stroke: #b0b0b0; stroke-width: 0.8; stroke-linecap: square"/>
     </g>
     <g id="line2d_70">
      <g>
       <use xlink:href="#m1a798bf2fa" x="62.57" y="399.462424" style="stroke: #000000; stroke-width: 0.8"/>
      </g>
     </g>
     <g id="text_38">
      <!-- 0.04 -->
      <g transform="translate(33.304375 403.261643) scale(0.1 -0.1)">
       <use xlink:href="#DejaVuSans-30"/>
       <use xlink:href="#DejaVuSans-2e" transform="translate(63.623047 0)"/>
       <use xlink:href="#DejaVuSans-30" transform="translate(95.410156 0)"/>
       <use xlink:href="#DejaVuSans-34" transform="translate(159.033203 0)"/>
      </g>
     </g>
    </g>
    <g id="text_39">
     <!-- Saturation Factor -->
     <g transform="translate(18.845 499.087604) rotate(-90) scale(0.1 -0.1)">
      <defs>
       <path id="DejaVuSans-6f" d="M 1959 3097 
Q 1497 3097 1228 2736 
Q 959 2375 959 1747 
Q 959 1119 1226 758 
Q 1494 397 1959 397 
Q 2419 397 2687 759 
Q 2956 1122 2956 1747 
Q 2956 2369 2687 2733 
Q 2419 3097 1959 3097 
z
M 1959 3584 
Q 2709 3584 3137 3096 
Q 3566 2609 3566 1747 
Q 3566 888 3137 398 
Q 2709 -91 1959 -91 
Q 1206 -91 779 398 
Q 353 888 353 1747 
Q 353 2609 779 3096 
Q 1206 3584 1959 3584 
z
" transform="scale(0.015625)"/>
       <path id="DejaVuSans-46" d="M 628 4666 
L 3309 4666 
L 3309 4134 
L 1259 4134 
L 1259 2759 
L 3109 2759 
L 3109 2228 
L 1259 2228 
L 1259 0 
L 628 0 
L 628 4666 
z
" transform="scale(0.015625)"/>
       <path id="DejaVuSans-63" d="M 3122 3366 
L 3122 2828 
Q 2878 2963 2633 3030 
Q 2388 3097 2138 3097 
Q 1578 3097 1268 2742 
Q 959 2388 959 1747 
Q 959 1106 1268 751 
Q 1578 397 2138 397 
Q 2388 397 2633 464 
Q 2878 531 3122 666 
L 3122 134 
Q 2881 22 2623 -34 
Q 2366 -91 2075 -91 
Q 1284 -91 818 406 
Q 353 903 353 1747 
Q 353 2603 823 3093 
Q 1294 3584 2113 3584 
Q 2378 3584 2631 3529 
Q 2884 3475 3122 3366 
z
" transform="scale(0.015625)"/>
      </defs>
      <use xlink:href="#DejaVuSans-53"/>
      <use xlink:href="#DejaVuSans-61" transform="translate(63.476562 0)"/>
      <use xlink:href="#DejaVuSans-74" transform="translate(124.755859 0)"/>
      <use xlink:href="#DejaVuSans-75" transform="translate(163.964844 0)"/>
      <use xlink:href="#DejaVuSans-72" transform="translate(227.34375 0)"/>
      <use xlink:href="#DejaVuSans-61" transform="translate(268.457031 0)"/>
      <use xlink:href="#DejaVuSans-74" transform="translate(329.736328 0)"/>
      <use xlink:href="#DejaVuSans-69" transform="translate(368.945312 0)"/>
      <use xlink:href="#DejaVuSans-6f" transform="translate(396.728516 0)"/>
      <use xlink:href="#DejaVuSans-6e" transform="translate(457.910156 0)"/>
      <use xlink:href="#DejaVuSans-20" transform="translate(521.289062 0)"/>
      <use xlink:href="#DejaVuSans-46" transform="translate(553.076172 0)"/>
      <use xlink:href="#DejaVuSans-61" transform="translate(601.470703 0)"/>
      <use xlink:href="#DejaVuSans-63" transform="translate(662.75 0)"/>
      <use xlink:href="#DejaVuSans-74" transform="translate(717.730469 0)"/>
      <use xlink:href="#DejaVuSans-6f" transform="translate(756.939453 0)"/>
      <use xlink:href="#DejaVuSans-72" transform="translate(818.121094 0)"/>
     </g>
    </g>
   </g>
   <g id="line2d_71">
    <path d="M 85.416818 456.126667 
L 542.353182 456.126667 
L 542.353182 456.126667 
" clip-path="url(#pcb6b51a286)" style="fill: none; stroke: #800080; stroke-width: 1.5; stroke-linecap: square"/>
   </g>
   <g id="patch_15">
    <path d="M 62.57 534.04 
L 62.57 378.213333 
" style="fill: none; stroke: #000000; stroke-width: 0.8; stroke-linejoin: miter; stroke-linecap: square"/>
   </g>
   <g id="patch_16">
    <path d="M 565.2 534.04 
L 565.2 378.213333 
" style="fill: none; stroke: #000000; stroke-width: 0.8; stroke-linejoin: miter; stroke-linecap: square"/>
   </g>
   <g id="patch_17">
    <path d="M 62.57 534.04 
L 565.2 534.04 
" style="fill: none; stroke: #000000; stroke-width: 0.8; stroke-linejoin: miter; stroke-linecap: square"/>
   </g>
   <g id="patch_18">
    <path d="M 62.57 378.213333 
L 565.2 378.213333 
" style="fill: none; stroke: #000000; stroke-width: 0.8; stroke-linejoin: miter; stroke-linecap: square"/>
   </g>
   <g id="legend_3">
    <g id="patch_19">
     <path d="M 488.8 400.913333 
L 558.2 400.913333 
Q 560.2 400.913333 560.2 398.913333 
L 560.2 385.213333 
Q 560.2 383.213333 558.2 383.213333 
L 488.8 383.213333 
Q 486.8 383.213333 486.8 385.213333 
L 486.8 398.913333 
Q 486.8 400.913333 488.8 400.913333 
z
" style="fill: #ffffff; opacity: 0.8; stroke: #cccccc; stroke-linejoin: miter"/>
    </g>
    <g id="line2d_72">
     <path d="M 490.8 391.313333 
L 500.8 391.313333 
L 510.8 391.313333 
" style="fill: none; stroke: #800080; stroke-width: 1.5; stroke-linecap: square"/>
    </g>
    <g id="text_40">
     <!-- $S_{at}$ (pu) -->
     <g transform="translate(518.8 394.813333) scale(0.1 -0.1)">
      <defs>
       <path id="DejaVuSans-Oblique-53" d="M 3859 4513 
L 3738 3897 
Q 3422 4066 3111 4152 
Q 2800 4238 2509 4238 
Q 1944 4238 1609 3991 
Q 1275 3744 1275 3334 
Q 1275 3109 1398 2989 
Q 1522 2869 2034 2731 
L 2413 2638 
Q 3053 2472 3303 2217 
Q 3553 1963 3553 1503 
Q 3553 797 2998 353 
Q 2444 -91 1538 -91 
Q 1166 -91 791 -17 
Q 416 56 38 206 
L 166 856 
Q 513 641 861 531 
Q 1209 422 1556 422 
Q 2147 422 2503 684 
Q 2859 947 2859 1369 
Q 2859 1650 2717 1795 
Q 2575 1941 2106 2059 
L 1728 2156 
Q 1081 2325 845 2545 
Q 609 2766 609 3163 
Q 609 3859 1145 4304 
Q 1681 4750 2541 4750 
Q 2875 4750 3203 4690 
Q 3531 4631 3859 4513 
z
" transform="scale(0.015625)"/>
       <path id="DejaVuSans-Oblique-61" d="M 3438 1997 
L 3047 0 
L 2472 0 
L 2578 531 
Q 2325 219 2001 64 
Q 1678 -91 1281 -91 
Q 834 -91 548 182 
Q 263 456 263 884 
Q 263 1497 752 1853 
Q 1241 2209 2100 2209 
L 2900 2209 
L 2931 2363 
Q 2938 2388 2941 2417 
Q 2944 2447 2944 2509 
Q 2944 2788 2717 2942 
Q 2491 3097 2081 3097 
Q 1800 3097 1504 3025 
Q 1209 2953 897 2809 
L 997 3341 
Q 1322 3463 1633 3523 
Q 1944 3584 2234 3584 
Q 2853 3584 3176 3315 
Q 3500 3047 3500 2534 
Q 3500 2431 3484 2292 
Q 3469 2153 3438 1997 
z
M 2816 1759 
L 2241 1759 
Q 1534 1759 1195 1570 
Q 856 1381 856 984 
Q 856 709 1029 553 
Q 1203 397 1509 397 
Q 1978 397 2328 733 
Q 2678 1069 2791 1631 
L 2816 1759 
z
" transform="scale(0.015625)"/>
       <path id="DejaVuSans-Oblique-74" d="M 2706 3500 
L 2619 3053 
L 1472 3053 
L 1100 1153 
Q 1081 1047 1072 975 
Q 1063 903 1063 863 
Q 1063 663 1183 572 
Q 1303 481 1569 481 
L 2150 481 
L 2053 0 
L 1503 0 
Q 991 0 739 200 
Q 488 400 488 806 
Q 488 878 497 964 
Q 506 1050 525 1153 
L 897 3053 
L 409 3053 
L 500 3500 
L 978 3500 
L 1172 4494 
L 1747 4494 
L 1556 3500 
L 2706 3500 
z
" transform="scale(0.015625)"/>
      </defs>
      <use xlink:href="#DejaVuSans-Oblique-53" transform="translate(0 0.125)"/>
      <use xlink:href="#DejaVuSans-Oblique-61" transform="translate(63.476562 -16.28125) scale(0.7)"/>
      <use xlink:href="#DejaVuSans-Oblique-74" transform="translate(106.37207 -16.28125) scale(0.7)"/>
      <use xlink:href="#DejaVuSans-20" transform="translate(136.552734 0.125)"/>
      <use xlink:href="#DejaVuSans-28" transform="translate(168.339844 0.125)"/>
      <use xlink:href="#DejaVuSans-70" transform="translate(207.353516 0.125)"/>
      <use xlink:href="#DejaVuSans-75" transform="translate(270.830078 0.125)"/>
      <use xlink:href="#DejaVuSans-29" transform="translate(334.208984 0.125)"/>
     </g>
    </g>
   </g>
  </g>
 </g>
 <defs>
  <clipPath id="pd13fa57613">
   <rect x="62.57" y="10.8" width="502.63" height="155.826667"/>
  </clipPath>
  <clipPath id="pa0142a3cc7">
   <rect x="62.57" y="194.506667" width="502.63" height="155.826667"/>
  </clipPath>
  <clipPath id="pcb6b51a286">
   <rect x="62.57" y="378.213333" width="502.63" height="155.826667"/>
  </clipPath>
 </defs>
</svg>
