<?xml version="1.0" encoding="utf-8" standalone="no"?>
<!DOCTYPE svg PUBLIC "-//W3C//DTD SVG 1.1//EN"
  "http://www.w3.org/Graphics/SVG/1.1/DTD/svg11.dtd">
<!-- Created with matplotlib (https://matplotlib.org/) -->
<svg height="360pt" version="1.1" viewBox="0 0 720 360" width="720pt" xmlns="http://www.w3.org/2000/svg" xmlns:xlink="http://www.w3.org/1999/xlink">
 <metadata>
  <rdf:RDF xmlns:cc="http://creativecommons.org/ns#" xmlns:dc="http://purl.org/dc/elements/1.1/" xmlns:rdf="http://www.w3.org/1999/02/22-rdf-syntax-ns#">
   <cc:Work>
    <dc:type rdf:resource="http://purl.org/dc/dcmitype/StillImage"/>
    <dc:date>2020-09-07T21:19:20.073558</dc:date>
    <dc:format>image/svg+xml</dc:format>
    <dc:creator>
     <cc:Agent>
      <dc:title>Matplotlib v3.3.1, https://matplotlib.org/</dc:title>
     </cc:Agent>
    </dc:creator>
   </cc:Work>
  </rdf:RDF>
 </metadata>
 <defs>
  <style type="text/css">*{stroke-linecap:butt;stroke-linejoin:round;}</style>
 </defs>
 <g id="figure_1">
  <g id="axes_1">
   <g id="patch_1">
    <path d="M 90 169.2 
L 343.636364 169.2 
L 343.636364 43.2 
L 90 43.2 
z
" style="fill:#ffffff;"/>
   </g>
   <g id="matplotlib.axis_1">
    <g id="xtick_1">
     <g id="line2d_1">
      <path clip-path="url(#pfaf98671a0)" d="M 101.528926 169.2 
L 101.528926 43.2 
" style="fill:none;stroke:#b0b0b0;stroke-linecap:square;stroke-width:0.8;"/>
     </g>
     <g id="line2d_2">
      <defs>
       <path d="M 0 0 
L 0 3.5 
" id="m1cb2329639" style="stroke:#000000;stroke-width:0.8;"/>
      </defs>
      <g>
       <use style="stroke:#000000;stroke-width:0.8;" x="101.528926" xlink:href="#m1cb2329639" y="169.2"/>
      </g>
     </g>
     <g id="text_1">
      <!-- 0 -->
      <g transform="translate(98.347676 183.798437)scale(0.1 -0.1)">
       <defs>
        <path d="M 31.78125 66.40625 
Q 24.171875 66.40625 20.328125 58.90625 
Q 16.5 51.421875 16.5 36.375 
Q 16.5 21.390625 20.328125 13.890625 
Q 24.171875 6.390625 31.78125 6.390625 
Q 39.453125 6.390625 43.28125 13.890625 
Q 47.125 21.390625 47.125 36.375 
Q 47.125 51.421875 43.28125 58.90625 
Q 39.453125 66.40625 31.78125 66.40625 
z
M 31.78125 74.21875 
Q 44.046875 74.21875 50.515625 64.515625 
Q 56.984375 54.828125 56.984375 36.375 
Q 56.984375 17.96875 50.515625 8.265625 
Q 44.046875 -1.421875 31.78125 -1.421875 
Q 19.53125 -1.421875 13.0625 8.265625 
Q 6.59375 17.96875 6.59375 36.375 
Q 6.59375 54.828125 13.0625 64.515625 
Q 19.53125 74.21875 31.78125 74.21875 
z
" id="DejaVuSans-48"/>
       </defs>
       <use xlink:href="#DejaVuSans-48"/>
      </g>
     </g>
    </g>
    <g id="xtick_2">
     <g id="line2d_3">
      <path clip-path="url(#pfaf98671a0)" d="M 150.07177 169.2 
L 150.07177 43.2 
" style="fill:none;stroke:#b0b0b0;stroke-linecap:square;stroke-width:0.8;"/>
     </g>
     <g id="line2d_4">
      <g>
       <use style="stroke:#000000;stroke-width:0.8;" x="150.07177" xlink:href="#m1cb2329639" y="169.2"/>
      </g>
     </g>
     <g id="text_2">
      <!-- 1 -->
      <g transform="translate(146.89052 183.798437)scale(0.1 -0.1)">
       <defs>
        <path d="M 12.40625 8.296875 
L 28.515625 8.296875 
L 28.515625 63.921875 
L 10.984375 60.40625 
L 10.984375 69.390625 
L 28.421875 72.90625 
L 38.28125 72.90625 
L 38.28125 8.296875 
L 54.390625 8.296875 
L 54.390625 0 
L 12.40625 0 
z
" id="DejaVuSans-49"/>
       </defs>
       <use xlink:href="#DejaVuSans-49"/>
      </g>
     </g>
    </g>
    <g id="xtick_3">
     <g id="line2d_5">
      <path clip-path="url(#pfaf98671a0)" d="M 198.614615 169.2 
L 198.614615 43.2 
" style="fill:none;stroke:#b0b0b0;stroke-linecap:square;stroke-width:0.8;"/>
     </g>
     <g id="line2d_6">
      <g>
       <use style="stroke:#000000;stroke-width:0.8;" x="198.614615" xlink:href="#m1cb2329639" y="169.2"/>
      </g>
     </g>
     <g id="text_3">
      <!-- 2 -->
      <g transform="translate(195.433365 183.798437)scale(0.1 -0.1)">
       <defs>
        <path d="M 19.1875 8.296875 
L 53.609375 8.296875 
L 53.609375 0 
L 7.328125 0 
L 7.328125 8.296875 
Q 12.9375 14.109375 22.625 23.890625 
Q 32.328125 33.6875 34.8125 36.53125 
Q 39.546875 41.84375 41.421875 45.53125 
Q 43.3125 49.21875 43.3125 52.78125 
Q 43.3125 58.59375 39.234375 62.25 
Q 35.15625 65.921875 28.609375 65.921875 
Q 23.96875 65.921875 18.8125 64.3125 
Q 13.671875 62.703125 7.8125 59.421875 
L 7.8125 69.390625 
Q 13.765625 71.78125 18.9375 73 
Q 24.125 74.21875 28.421875 74.21875 
Q 39.75 74.21875 46.484375 68.546875 
Q 53.21875 62.890625 53.21875 53.421875 
Q 53.21875 48.921875 51.53125 44.890625 
Q 49.859375 40.875 45.40625 35.40625 
Q 44.1875 33.984375 37.640625 27.21875 
Q 31.109375 20.453125 19.1875 8.296875 
z
" id="DejaVuSans-50"/>
       </defs>
       <use xlink:href="#DejaVuSans-50"/>
      </g>
     </g>
    </g>
    <g id="xtick_4">
     <g id="line2d_7">
      <path clip-path="url(#pfaf98671a0)" d="M 247.15746 169.2 
L 247.15746 43.2 
" style="fill:none;stroke:#b0b0b0;stroke-linecap:square;stroke-width:0.8;"/>
     </g>
     <g id="line2d_8">
      <g>
       <use style="stroke:#000000;stroke-width:0.8;" x="247.15746" xlink:href="#m1cb2329639" y="169.2"/>
      </g>
     </g>
     <g id="text_4">
      <!-- 3 -->
      <g transform="translate(243.97621 183.798437)scale(0.1 -0.1)">
       <defs>
        <path d="M 40.578125 39.3125 
Q 47.65625 37.796875 51.625 33 
Q 55.609375 28.21875 55.609375 21.1875 
Q 55.609375 10.40625 48.1875 4.484375 
Q 40.765625 -1.421875 27.09375 -1.421875 
Q 22.515625 -1.421875 17.65625 -0.515625 
Q 12.796875 0.390625 7.625 2.203125 
L 7.625 11.71875 
Q 11.71875 9.328125 16.59375 8.109375 
Q 21.484375 6.890625 26.8125 6.890625 
Q 36.078125 6.890625 40.9375 10.546875 
Q 45.796875 14.203125 45.796875 21.1875 
Q 45.796875 27.640625 41.28125 31.265625 
Q 36.765625 34.90625 28.71875 34.90625 
L 20.21875 34.90625 
L 20.21875 43.015625 
L 29.109375 43.015625 
Q 36.375 43.015625 40.234375 45.921875 
Q 44.09375 48.828125 44.09375 54.296875 
Q 44.09375 59.90625 40.109375 62.90625 
Q 36.140625 65.921875 28.71875 65.921875 
Q 24.65625 65.921875 20.015625 65.03125 
Q 15.375 64.15625 9.8125 62.3125 
L 9.8125 71.09375 
Q 15.4375 72.65625 20.34375 73.4375 
Q 25.25 74.21875 29.59375 74.21875 
Q 40.828125 74.21875 47.359375 69.109375 
Q 53.90625 64.015625 53.90625 55.328125 
Q 53.90625 49.265625 50.4375 45.09375 
Q 46.96875 40.921875 40.578125 39.3125 
z
" id="DejaVuSans-51"/>
       </defs>
       <use xlink:href="#DejaVuSans-51"/>
      </g>
     </g>
    </g>
    <g id="xtick_5">
     <g id="line2d_9">
      <path clip-path="url(#pfaf98671a0)" d="M 295.700304 169.2 
L 295.700304 43.2 
" style="fill:none;stroke:#b0b0b0;stroke-linecap:square;stroke-width:0.8;"/>
     </g>
     <g id="line2d_10">
      <g>
       <use style="stroke:#000000;stroke-width:0.8;" x="295.700304" xlink:href="#m1cb2329639" y="169.2"/>
      </g>
     </g>
     <g id="text_5">
      <!-- 4 -->
      <g transform="translate(292.519054 183.798437)scale(0.1 -0.1)">
       <defs>
        <path d="M 37.796875 64.3125 
L 12.890625 25.390625 
L 37.796875 25.390625 
z
M 35.203125 72.90625 
L 47.609375 72.90625 
L 47.609375 25.390625 
L 58.015625 25.390625 
L 58.015625 17.1875 
L 47.609375 17.1875 
L 47.609375 0 
L 37.796875 0 
L 37.796875 17.1875 
L 4.890625 17.1875 
L 4.890625 26.703125 
z
" id="DejaVuSans-52"/>
       </defs>
       <use xlink:href="#DejaVuSans-52"/>
      </g>
     </g>
    </g>
   </g>
   <g id="matplotlib.axis_2">
    <g id="ytick_1">
     <g id="line2d_11">
      <path clip-path="url(#pfaf98671a0)" d="M 90 161.995658 
L 343.636364 161.995658 
" style="fill:none;stroke:#b0b0b0;stroke-linecap:square;stroke-width:0.8;"/>
     </g>
     <g id="line2d_12">
      <defs>
       <path d="M 0 0 
L -3.5 0 
" id="me9a9c994a8" style="stroke:#000000;stroke-width:0.8;"/>
      </defs>
      <g>
       <use style="stroke:#000000;stroke-width:0.8;" x="90" xlink:href="#me9a9c994a8" y="161.995658"/>
      </g>
     </g>
     <g id="text_6">
      <!-- 0.96 -->
      <g transform="translate(60.734375 165.794877)scale(0.1 -0.1)">
       <defs>
        <path d="M 10.6875 12.40625 
L 21 12.40625 
L 21 0 
L 10.6875 0 
z
" id="DejaVuSans-46"/>
        <path d="M 10.984375 1.515625 
L 10.984375 10.5 
Q 14.703125 8.734375 18.5 7.8125 
Q 22.3125 6.890625 25.984375 6.890625 
Q 35.75 6.890625 40.890625 13.453125 
Q 46.046875 20.015625 46.78125 33.40625 
Q 43.953125 29.203125 39.59375 26.953125 
Q 35.25 24.703125 29.984375 24.703125 
Q 19.046875 24.703125 12.671875 31.3125 
Q 6.296875 37.9375 6.296875 49.421875 
Q 6.296875 60.640625 12.9375 67.421875 
Q 19.578125 74.21875 30.609375 74.21875 
Q 43.265625 74.21875 49.921875 64.515625 
Q 56.59375 54.828125 56.59375 36.375 
Q 56.59375 19.140625 48.40625 8.859375 
Q 40.234375 -1.421875 26.421875 -1.421875 
Q 22.703125 -1.421875 18.890625 -0.6875 
Q 15.09375 0.046875 10.984375 1.515625 
z
M 30.609375 32.421875 
Q 37.25 32.421875 41.125 36.953125 
Q 45.015625 41.5 45.015625 49.421875 
Q 45.015625 57.28125 41.125 61.84375 
Q 37.25 66.40625 30.609375 66.40625 
Q 23.96875 66.40625 20.09375 61.84375 
Q 16.21875 57.28125 16.21875 49.421875 
Q 16.21875 41.5 20.09375 36.953125 
Q 23.96875 32.421875 30.609375 32.421875 
z
" id="DejaVuSans-57"/>
        <path d="M 33.015625 40.375 
Q 26.375 40.375 22.484375 35.828125 
Q 18.609375 31.296875 18.609375 23.390625 
Q 18.609375 15.53125 22.484375 10.953125 
Q 26.375 6.390625 33.015625 6.390625 
Q 39.65625 6.390625 43.53125 10.953125 
Q 47.40625 15.53125 47.40625 23.390625 
Q 47.40625 31.296875 43.53125 35.828125 
Q 39.65625 40.375 33.015625 40.375 
z
M 52.59375 71.296875 
L 52.59375 62.3125 
Q 48.875 64.0625 45.09375 64.984375 
Q 41.3125 65.921875 37.59375 65.921875 
Q 27.828125 65.921875 22.671875 59.328125 
Q 17.53125 52.734375 16.796875 39.40625 
Q 19.671875 43.65625 24.015625 45.921875 
Q 28.375 48.1875 33.59375 48.1875 
Q 44.578125 48.1875 50.953125 41.515625 
Q 57.328125 34.859375 57.328125 23.390625 
Q 57.328125 12.15625 50.6875 5.359375 
Q 44.046875 -1.421875 33.015625 -1.421875 
Q 20.359375 -1.421875 13.671875 8.265625 
Q 6.984375 17.96875 6.984375 36.375 
Q 6.984375 53.65625 15.1875 63.9375 
Q 23.390625 74.21875 37.203125 74.21875 
Q 40.921875 74.21875 44.703125 73.484375 
Q 48.484375 72.75 52.59375 71.296875 
z
" id="DejaVuSans-54"/>
       </defs>
       <use xlink:href="#DejaVuSans-48"/>
       <use x="63.623047" xlink:href="#DejaVuSans-46"/>
       <use x="95.410156" xlink:href="#DejaVuSans-57"/>
       <use x="159.033203" xlink:href="#DejaVuSans-54"/>
      </g>
     </g>
    </g>
    <g id="ytick_2">
     <g id="line2d_13">
      <path clip-path="url(#pfaf98671a0)" d="M 90 125.670545 
L 343.636364 125.670545 
" style="fill:none;stroke:#b0b0b0;stroke-linecap:square;stroke-width:0.8;"/>
     </g>
     <g id="line2d_14">
      <g>
       <use style="stroke:#000000;stroke-width:0.8;" x="90" xlink:href="#me9a9c994a8" y="125.670545"/>
      </g>
     </g>
     <g id="text_7">
      <!-- 0.98 -->
      <g transform="translate(60.734375 129.469764)scale(0.1 -0.1)">
       <defs>
        <path d="M 31.78125 34.625 
Q 24.75 34.625 20.71875 30.859375 
Q 16.703125 27.09375 16.703125 20.515625 
Q 16.703125 13.921875 20.71875 10.15625 
Q 24.75 6.390625 31.78125 6.390625 
Q 38.8125 6.390625 42.859375 10.171875 
Q 46.921875 13.96875 46.921875 20.515625 
Q 46.921875 27.09375 42.890625 30.859375 
Q 38.875 34.625 31.78125 34.625 
z
M 21.921875 38.8125 
Q 15.578125 40.375 12.03125 44.71875 
Q 8.5 49.078125 8.5 55.328125 
Q 8.5 64.0625 14.71875 69.140625 
Q 20.953125 74.21875 31.78125 74.21875 
Q 42.671875 74.21875 48.875 69.140625 
Q 55.078125 64.0625 55.078125 55.328125 
Q 55.078125 49.078125 51.53125 44.71875 
Q 48 40.375 41.703125 38.8125 
Q 48.828125 37.15625 52.796875 32.3125 
Q 56.78125 27.484375 56.78125 20.515625 
Q 56.78125 9.90625 50.3125 4.234375 
Q 43.84375 -1.421875 31.78125 -1.421875 
Q 19.734375 -1.421875 13.25 4.234375 
Q 6.78125 9.90625 6.78125 20.515625 
Q 6.78125 27.484375 10.78125 32.3125 
Q 14.796875 37.15625 21.921875 38.8125 
z
M 18.3125 54.390625 
Q 18.3125 48.734375 21.84375 45.5625 
Q 25.390625 42.390625 31.78125 42.390625 
Q 38.140625 42.390625 41.71875 45.5625 
Q 45.3125 48.734375 45.3125 54.390625 
Q 45.3125 60.0625 41.71875 63.234375 
Q 38.140625 66.40625 31.78125 66.40625 
Q 25.390625 66.40625 21.84375 63.234375 
Q 18.3125 60.0625 18.3125 54.390625 
z
" id="DejaVuSans-56"/>
       </defs>
       <use xlink:href="#DejaVuSans-48"/>
       <use x="63.623047" xlink:href="#DejaVuSans-46"/>
       <use x="95.410156" xlink:href="#DejaVuSans-57"/>
       <use x="159.033203" xlink:href="#DejaVuSans-56"/>
      </g>
     </g>
    </g>
    <g id="ytick_3">
     <g id="line2d_15">
      <path clip-path="url(#pfaf98671a0)" d="M 90 89.345432 
L 343.636364 89.345432 
" style="fill:none;stroke:#b0b0b0;stroke-linecap:square;stroke-width:0.8;"/>
     </g>
     <g id="line2d_16">
      <g>
       <use style="stroke:#000000;stroke-width:0.8;" x="90" xlink:href="#me9a9c994a8" y="89.345432"/>
      </g>
     </g>
     <g id="text_8">
      <!-- 1.00 -->
      <g transform="translate(60.734375 93.144651)scale(0.1 -0.1)">
       <use xlink:href="#DejaVuSans-49"/>
       <use x="63.623047" xlink:href="#DejaVuSans-46"/>
       <use x="95.410156" xlink:href="#DejaVuSans-48"/>
       <use x="159.033203" xlink:href="#DejaVuSans-48"/>
      </g>
     </g>
    </g>
    <g id="ytick_4">
     <g id="line2d_17">
      <path clip-path="url(#pfaf98671a0)" d="M 90 53.02032 
L 343.636364 53.02032 
" style="fill:none;stroke:#b0b0b0;stroke-linecap:square;stroke-width:0.8;"/>
     </g>
     <g id="line2d_18">
      <g>
       <use style="stroke:#000000;stroke-width:0.8;" x="90" xlink:href="#me9a9c994a8" y="53.02032"/>
      </g>
     </g>
     <g id="text_9">
      <!-- 1.02 -->
      <g transform="translate(60.734375 56.819538)scale(0.1 -0.1)">
       <use xlink:href="#DejaVuSans-49"/>
       <use x="63.623047" xlink:href="#DejaVuSans-46"/>
       <use x="95.410156" xlink:href="#DejaVuSans-48"/>
       <use x="159.033203" xlink:href="#DejaVuSans-50"/>
      </g>
     </g>
    </g>
   </g>
   <g id="line2d_19">
    <path clip-path="url(#pfaf98671a0)" d="M 101.528926 86.946776 
L 101.77164 83.609306 
L 103.956068 67.030298 
L 106.38321 66.539842 
L 108.810352 66.532292 
L 111.237495 66.532638 
L 113.664637 53.278282 
L 116.091779 52.936313 
L 118.518921 52.930701 
L 120.946064 52.930925 
L 123.373206 51.492076 
L 125.800348 51.454437 
L 128.22749 51.453816 
L 130.654632 51.453841 
L 133.081775 53.925537 
L 135.508917 53.989946 
L 137.936059 53.991001 
L 140.363201 53.990959 
L 142.790344 54.698594 
L 145.217486 54.716965 
L 147.644628 54.717264 
L 150.07177 54.717252 
L 152.498913 53.678145 
L 154.926055 53.651118 
L 157.353197 53.650675 
L 159.780339 53.650693 
L 162.207482 114.253136 
L 164.634624 116.337977 
L 167.061766 116.365255 
L 169.488908 116.363981 
L 171.91605 157.462335 
L 174.343193 158.677131 
L 176.770335 158.689417 
L 179.197477 158.688521 
L 181.624619 163.340882 
L 184.051762 163.471464 
L 186.478904 163.472727 
L 188.906046 163.472627 
L 191.333188 155.592206 
L 193.760331 155.367509 
L 196.187473 155.365202 
L 198.614615 155.365368 
L 201.041757 152.907184 
L 203.4689 152.836128 
L 205.896042 152.835387 
L 208.323184 152.835439 
L 210.750326 156.033972 
L 213.177468 156.12592 
L 215.604611 156.126861 
L 218.031753 156.126794 
L 220.458895 159.225305 
L 222.886037 159.313407 
L 225.31318 159.314288 
L 227.740322 159.314222 
L 230.167464 160.002198 
L 232.594606 160.021665 
L 235.021749 160.021858 
L 237.448891 160.021844 
L 239.876033 159.490251 
L 242.303175 159.475196 
L 244.730318 159.475045 
L 247.15746 159.475057 
L 249.584602 159.150401 
L 252.011744 159.141195 
L 254.438886 159.141103 
L 256.866029 159.14111 
L 259.293171 97.5272 
L 261.720313 95.505804 
L 264.147455 95.476789 
L 266.574598 95.477953 
L 269.00174 54.803317 
L 271.428882 53.271559 
L 273.856024 53.244924 
L 276.283167 53.245588 
L 278.710309 49.093211 
L 281.137451 48.93016 
L 283.564593 48.927273 
L 285.991736 48.927342 
L 288.418878 56.697176 
L 290.84602 56.998915 
L 293.273162 57.004106 
L 295.700304 57.003975 
L 298.127447 59.201626 
L 300.554589 59.286048 
L 302.981731 59.287484 
L 305.408873 59.287446 
L 307.836016 56.065082 
L 310.263158 55.940737 
L 312.6903 55.938591 
L 315.117442 55.938644 
L 317.544585 52.949682 
L 319.971727 52.833373 
L 322.398869 52.831341 
L 324.826011 52.83139 
L 327.253154 52.183425 
L 329.680296 52.158119 
L 332.107438 52.157676 
" style="fill:none;stroke:#1f77b4;stroke-linecap:square;stroke-width:1.5;"/>
   </g>
   <g id="line2d_20">
    <path clip-path="url(#pfaf98671a0)" d="M 101.528926 78.518861 
L 101.77164 76.449115 
L 103.956068 66.163187 
L 106.38321 65.850947 
L 108.810352 65.844504 
L 111.237495 65.844374 
L 113.664637 57.627244 
L 116.091779 57.409803 
L 118.518921 57.405122 
L 120.946064 57.405023 
L 123.373206 56.513164 
L 125.800348 56.489228 
L 128.22749 56.48871 
L 130.654632 56.488699 
L 133.081775 58.020697 
L 135.508917 58.061647 
L 137.936059 58.062526 
L 140.363201 58.062545 
L 142.790344 58.50118 
L 145.217486 58.512863 
L 147.644628 58.513113 
L 150.07177 58.513118 
L 152.498913 57.869034 
L 154.926055 57.851851 
L 157.353197 57.851482 
L 159.780339 57.851474 
L 162.207482 95.443648 
L 164.634624 96.767386 
L 167.061766 96.79058 
L 169.488908 96.790977 
L 171.91605 122.325668 
L 174.343193 123.100143 
L 176.770335 123.111718 
L 179.197477 123.111885 
L 181.624619 126.004694 
L 184.051762 126.088033 
L 186.478904 126.089253 
L 188.906046 126.089271 
L 191.333188 121.189725 
L 193.760331 121.046466 
L 196.187473 121.0443 
L 198.614615 121.044268 
L 201.041757 119.516151 
L 203.4689 119.470856 
L 205.896042 119.470165 
L 208.323184 119.470154 
L 210.750326 121.458481 
L 213.177468 121.517102 
L 215.604611 121.517986 
L 218.031753 121.517999 
L 220.458895 123.444358 
L 222.886037 123.500548 
L 225.31318 123.501385 
L 227.740322 123.501397 
L 230.167464 123.929148 
L 232.594606 123.941567 
L 235.021749 123.941751 
L 237.448891 123.941754 
L 239.876033 123.611242 
L 242.303175 123.601641 
L 244.730318 123.601498 
L 247.15746 123.601496 
L 249.584602 123.399645 
L 252.011744 123.393773 
L 254.438886 123.393686 
L 256.866029 123.393684 
L 259.293171 85.12199 
L 261.720313 83.839593 
L 264.147455 83.815535 
L 266.574598 83.815092 
L 269.00174 58.590142 
L 271.428882 57.62163 
L 273.856024 57.600814 
L 276.283167 57.600372 
L 278.710309 55.026919 
L 281.137451 54.92385 
L 283.564593 54.921602 
L 285.991736 54.921554 
L 288.418878 59.73683 
L 290.84602 59.927598 
L 293.273162 59.931658 
L 295.700304 59.931743 
L 298.127447 61.293967 
L 300.554589 61.347359 
L 302.981731 61.348487 
L 305.408873 61.348511 
L 307.836016 59.351194 
L 310.263158 59.27258 
L 312.6903 59.270903 
L 315.117442 59.270867 
L 317.544585 57.418374 
L 319.971727 57.344854 
L 322.398869 57.343269 
L 324.826011 57.343236 
L 327.253154 56.941655 
L 329.680296 56.925658 
L 332.107438 56.925312 
" style="fill:none;stroke:#ff7f0e;stroke-linecap:square;stroke-width:1.5;"/>
   </g>
   <g id="line2d_21">
    <path clip-path="url(#pfaf98671a0)" d="M 101.528926 73.918668 
L 101.77164 73.209099 
L 103.956068 69.703324 
L 106.38321 69.596911 
L 108.810352 69.594704 
L 111.237495 69.594657 
L 113.664637 66.797015 
L 116.091779 66.722981 
L 118.518921 66.72138 
L 120.946064 66.721345 
L 123.373206 66.417861 
L 125.800348 66.409713 
L 128.22749 66.409536 
L 130.654632 66.409532 
L 133.081775 66.930859 
L 135.508917 66.944803 
L 137.936059 66.945104 
L 140.363201 66.94511 
L 142.790344 67.094392 
L 145.217486 67.09837 
L 147.644628 67.098456 
L 150.07177 67.098458 
L 152.498913 66.879257 
L 154.926055 66.873407 
L 157.353197 66.87328 
L 159.780339 66.873278 
L 162.207482 79.693381 
L 164.634624 80.145994 
L 167.061766 80.153964 
L 169.488908 80.154108 
L 171.91605 88.893892 
L 174.343193 89.159485 
L 176.770335 89.16348 
L 179.197477 89.163542 
L 181.624619 90.155281 
L 184.051762 90.183872 
L 186.478904 90.184293 
L 188.906046 90.1843 
L 191.333188 88.50476 
L 193.760331 88.45564 
L 196.187473 88.454893 
L 198.614615 88.454881 
L 201.041757 87.931241 
L 203.4689 87.915713 
L 205.896042 87.915474 
L 208.323184 87.915471 
L 210.750326 88.596825 
L 213.177468 88.616925 
L 215.604611 88.61723 
L 218.031753 88.617235 
L 220.458895 89.277499 
L 222.886037 89.29677 
L 225.31318 89.297059 
L 227.740322 89.297063 
L 230.167464 89.443695 
L 232.594606 89.447955 
L 235.021749 89.448018 
L 237.448891 89.448019 
L 239.876033 89.33472 
L 242.303175 89.331427 
L 244.730318 89.331378 
L 247.15746 89.331377 
L 249.584602 89.262184 
L 252.011744 89.260171 
L 254.438886 89.260141 
L 256.866029 89.26014 
L 259.293171 76.168452 
L 261.720313 75.730539 
L 264.147455 75.722287 
L 266.574598 75.722127 
L 269.00174 67.124835 
L 271.428882 66.795095 
L 273.856024 66.787981 
L 276.283167 66.787825 
L 278.710309 65.912191 
L 281.137451 65.877112 
L 283.564593 65.876345 
L 285.991736 65.876328 
L 288.418878 67.514941 
L 290.84602 67.579903 
L 293.273162 67.58129 
L 295.700304 67.581321 
L 298.127447 68.04505 
L 300.554589 68.063235 
L 302.981731 68.06362 
L 305.408873 68.063629 
L 307.836016 67.383721 
L 310.263158 67.356952 
L 312.6903 67.356379 
L 315.117442 67.356366 
L 317.544585 66.7259 
L 319.971727 66.700871 
L 322.398869 66.70033 
L 324.826011 66.700318 
L 327.253154 66.563665 
L 329.680296 66.558219 
L 332.107438 66.558101 
" style="fill:none;stroke:#2ca02c;stroke-linecap:square;stroke-width:1.5;"/>
   </g>
   <g id="patch_2">
    <path d="M 90 169.2 
L 90 43.2 
" style="fill:none;stroke:#000000;stroke-linecap:square;stroke-linejoin:miter;stroke-width:0.8;"/>
   </g>
   <g id="patch_3">
    <path d="M 343.636364 169.2 
L 343.636364 43.2 
" style="fill:none;stroke:#000000;stroke-linecap:square;stroke-linejoin:miter;stroke-width:0.8;"/>
   </g>
   <g id="patch_4">
    <path d="M 90 169.2 
L 343.636364 169.2 
" style="fill:none;stroke:#000000;stroke-linecap:square;stroke-linejoin:miter;stroke-width:0.8;"/>
   </g>
   <g id="patch_5">
    <path d="M 90 43.2 
L 343.636364 43.2 
" style="fill:none;stroke:#000000;stroke-linecap:square;stroke-linejoin:miter;stroke-width:0.8;"/>
   </g>
   <g id="legend_1">
    <g id="patch_6">
     <path d="M 259.636364 164.2 
L 336.636364 164.2 
Q 338.636364 164.2 338.636364 162.2 
L 338.636364 119.165625 
Q 338.636364 117.165625 336.636364 117.165625 
L 259.636364 117.165625 
Q 257.636364 117.165625 257.636364 119.165625 
L 257.636364 162.2 
Q 257.636364 164.2 259.636364 164.2 
z
" style="fill:#ffffff;opacity:0.8;stroke:#cccccc;stroke-linejoin:miter;"/>
    </g>
    <g id="line2d_22">
     <path d="M 261.636364 125.264062 
L 281.636364 125.264062 
" style="fill:none;stroke:#1f77b4;stroke-linecap:square;stroke-width:1.5;"/>
    </g>
    <g id="line2d_23"/>
    <g id="text_10">
     <!-- $V_{W1}$ (LV) -->
     <g transform="translate(289.636364 128.764062)scale(0.1 -0.1)">
      <defs>
       <path d="M 20.609375 0 
L 7.8125 72.90625 
L 17.484375 72.90625 
L 28.078125 10.203125 
L 63.484375 72.90625 
L 74.21875 72.90625 
L 32.078125 0 
z
" id="DejaVuSans-Oblique-86"/>
       <path d="M 9.625 72.90625 
L 19.1875 72.90625 
L 22.703125 10.890625 
L 50.203125 72.90625 
L 61.1875 72.90625 
L 64.796875 10.890625 
L 92 72.90625 
L 102 72.90625 
L 69.578125 0 
L 57.171875 0 
L 53.8125 60.796875 
L 26.515625 0 
L 14.109375 0 
z
" id="DejaVuSans-Oblique-87"/>
       <path id="DejaVuSans-32"/>
       <path d="M 31 75.875 
Q 24.46875 64.65625 21.28125 53.65625 
Q 18.109375 42.671875 18.109375 31.390625 
Q 18.109375 20.125 21.3125 9.0625 
Q 24.515625 -2 31 -13.1875 
L 23.1875 -13.1875 
Q 15.875 -1.703125 12.234375 9.375 
Q 8.59375 20.453125 8.59375 31.390625 
Q 8.59375 42.28125 12.203125 53.3125 
Q 15.828125 64.359375 23.1875 75.875 
z
" id="DejaVuSans-40"/>
       <path d="M 9.8125 72.90625 
L 19.671875 72.90625 
L 19.671875 8.296875 
L 55.171875 8.296875 
L 55.171875 0 
L 9.8125 0 
z
" id="DejaVuSans-76"/>
       <path d="M 28.609375 0 
L 0.78125 72.90625 
L 11.078125 72.90625 
L 34.1875 11.53125 
L 57.328125 72.90625 
L 67.578125 72.90625 
L 39.796875 0 
z
" id="DejaVuSans-86"/>
       <path d="M 8.015625 75.875 
L 15.828125 75.875 
Q 23.140625 64.359375 26.78125 53.3125 
Q 30.421875 42.28125 30.421875 31.390625 
Q 30.421875 20.453125 26.78125 9.375 
Q 23.140625 -1.703125 15.828125 -13.1875 
L 8.015625 -13.1875 
Q 14.5 -2 17.703125 9.0625 
Q 20.90625 20.125 20.90625 31.390625 
Q 20.90625 42.671875 17.703125 53.65625 
Q 14.5 64.65625 8.015625 75.875 
z
" id="DejaVuSans-41"/>
      </defs>
      <use transform="translate(0 0.125)" xlink:href="#DejaVuSans-Oblique-86"/>
      <use transform="translate(68.408203 -16.28125)scale(0.7)" xlink:href="#DejaVuSans-Oblique-87"/>
      <use transform="translate(137.62207 -16.28125)scale(0.7)" xlink:href="#DejaVuSans-49"/>
      <use transform="translate(184.892578 0.125)" xlink:href="#DejaVuSans-32"/>
      <use transform="translate(216.679688 0.125)" xlink:href="#DejaVuSans-40"/>
      <use transform="translate(255.693359 0.125)" xlink:href="#DejaVuSans-76"/>
      <use transform="translate(311.40625 0.125)" xlink:href="#DejaVuSans-86"/>
      <use transform="translate(379.814453 0.125)" xlink:href="#DejaVuSans-41"/>
     </g>
    </g>
    <g id="line2d_24">
     <path d="M 261.636364 139.942187 
L 281.636364 139.942187 
" style="fill:none;stroke:#ff7f0e;stroke-linecap:square;stroke-width:1.5;"/>
    </g>
    <g id="line2d_25"/>
    <g id="text_11">
     <!-- $V_{W1}$ (MV) -->
     <g transform="translate(289.636364 143.442187)scale(0.1 -0.1)">
      <defs>
       <path d="M 9.8125 72.90625 
L 24.515625 72.90625 
L 43.109375 23.296875 
L 61.8125 72.90625 
L 76.515625 72.90625 
L 76.515625 0 
L 66.890625 0 
L 66.890625 64.015625 
L 48.09375 14.015625 
L 38.1875 14.015625 
L 19.390625 64.015625 
L 19.390625 0 
L 9.8125 0 
z
" id="DejaVuSans-77"/>
      </defs>
      <use transform="translate(0 0.125)" xlink:href="#DejaVuSans-Oblique-86"/>
      <use transform="translate(68.408203 -16.28125)scale(0.7)" xlink:href="#DejaVuSans-Oblique-87"/>
      <use transform="translate(137.62207 -16.28125)scale(0.7)" xlink:href="#DejaVuSans-49"/>
      <use transform="translate(184.892578 0.125)" xlink:href="#DejaVuSans-32"/>
      <use transform="translate(216.679688 0.125)" xlink:href="#DejaVuSans-40"/>
      <use transform="translate(255.693359 0.125)" xlink:href="#DejaVuSans-77"/>
      <use transform="translate(341.972656 0.125)" xlink:href="#DejaVuSans-86"/>
      <use transform="translate(410.380859 0.125)" xlink:href="#DejaVuSans-41"/>
     </g>
    </g>
    <g id="line2d_26">
     <path d="M 261.636364 154.620313 
L 281.636364 154.620313 
" style="fill:none;stroke:#2ca02c;stroke-linecap:square;stroke-width:1.5;"/>
    </g>
    <g id="line2d_27"/>
    <g id="text_12">
     <!-- $V_{POI}$ (HV) -->
     <g transform="translate(289.636364 158.120313)scale(0.1 -0.1)">
      <defs>
       <path d="M 16.890625 72.90625 
L 39.703125 72.90625 
Q 49.65625 72.90625 54.875 68.265625 
Q 60.109375 63.625 60.109375 54.6875 
Q 60.109375 42.671875 52.390625 35.984375 
Q 44.671875 29.296875 30.71875 29.296875 
L 18.3125 29.296875 
L 12.59375 0 
L 2.6875 0 
z
M 25.203125 64.796875 
L 19.921875 37.40625 
L 32.328125 37.40625 
Q 40.71875 37.40625 45.203125 41.703125 
Q 49.703125 46 49.703125 54 
Q 49.703125 59.125 46.65625 61.953125 
Q 43.609375 64.796875 38.09375 64.796875 
z
" id="DejaVuSans-Oblique-80"/>
       <path d="M 45.609375 66.21875 
Q 37.5 66.21875 31.296875 62.28125 
Q 25.09375 58.34375 20.515625 50.296875 
Q 17.578125 45.171875 16.03125 39.40625 
Q 14.5 33.640625 14.5 27.78125 
Q 14.5 17.625 19.359375 12.109375 
Q 24.21875 6.59375 33.109375 6.59375 
Q 41.109375 6.59375 47.375 10.5625 
Q 53.65625 14.546875 58.109375 22.40625 
Q 61.078125 27.6875 62.640625 33.46875 
Q 64.203125 39.265625 64.203125 45.015625 
Q 64.203125 55.125 59.3125 60.671875 
Q 54.4375 66.21875 45.609375 66.21875 
z
M 32.8125 -1.421875 
Q 19.390625 -1.421875 11.6875 6.53125 
Q 4 14.5 4 28.328125 
Q 4 36.234375 7 44.484375 
Q 10.015625 52.734375 15.28125 59.1875 
Q 21.484375 66.75 29.09375 70.484375 
Q 36.71875 74.21875 45.90625 74.21875 
Q 59.28125 74.21875 66.984375 66.328125 
Q 74.703125 58.453125 74.703125 44.828125 
Q 74.703125 36.421875 71.765625 28.3125 
Q 68.84375 20.21875 63.375 13.625 
Q 57.125 6 49.578125 2.28125 
Q 42.046875 -1.421875 32.8125 -1.421875 
z
" id="DejaVuSans-Oblique-79"/>
       <path d="M 16.890625 72.90625 
L 26.8125 72.90625 
L 12.59375 0 
L 2.6875 0 
z
" id="DejaVuSans-Oblique-73"/>
       <path d="M 9.8125 72.90625 
L 19.671875 72.90625 
L 19.671875 43.015625 
L 55.515625 43.015625 
L 55.515625 72.90625 
L 65.375 72.90625 
L 65.375 0 
L 55.515625 0 
L 55.515625 34.71875 
L 19.671875 34.71875 
L 19.671875 0 
L 9.8125 0 
z
" id="DejaVuSans-72"/>
      </defs>
      <use transform="translate(0 0.125)" xlink:href="#DejaVuSans-Oblique-86"/>
      <use transform="translate(68.408203 -16.28125)scale(0.7)" xlink:href="#DejaVuSans-Oblique-80"/>
      <use transform="translate(110.620117 -16.28125)scale(0.7)" xlink:href="#DejaVuSans-Oblique-79"/>
      <use transform="translate(165.717773 -16.28125)scale(0.7)" xlink:href="#DejaVuSans-Oblique-73"/>
      <use transform="translate(189.09668 0.125)" xlink:href="#DejaVuSans-32"/>
      <use transform="translate(220.883789 0.125)" xlink:href="#DejaVuSans-40"/>
      <use transform="translate(259.897461 0.125)" xlink:href="#DejaVuSans-72"/>
      <use transform="translate(335.092773 0.125)" xlink:href="#DejaVuSans-86"/>
      <use transform="translate(403.500977 0.125)" xlink:href="#DejaVuSans-41"/>
     </g>
    </g>
   </g>
  </g>
  <g id="axes_2">
   <g id="patch_7">
    <path d="M 394.363636 169.2 
L 648 169.2 
L 648 43.2 
L 394.363636 43.2 
z
" style="fill:#ffffff;"/>
   </g>
   <g id="matplotlib.axis_3">
    <g id="xtick_6">
     <g id="line2d_28">
      <path clip-path="url(#p5d91961f52)" d="M 405.892562 169.2 
L 405.892562 43.2 
" style="fill:none;stroke:#b0b0b0;stroke-linecap:square;stroke-width:0.8;"/>
     </g>
     <g id="line2d_29">
      <g>
       <use style="stroke:#000000;stroke-width:0.8;" x="405.892562" xlink:href="#m1cb2329639" y="169.2"/>
      </g>
     </g>
     <g id="text_13">
      <!-- 0 -->
      <g transform="translate(402.711312 183.798437)scale(0.1 -0.1)">
       <use xlink:href="#DejaVuSans-48"/>
      </g>
     </g>
    </g>
    <g id="xtick_7">
     <g id="line2d_30">
      <path clip-path="url(#p5d91961f52)" d="M 454.435407 169.2 
L 454.435407 43.2 
" style="fill:none;stroke:#b0b0b0;stroke-linecap:square;stroke-width:0.8;"/>
     </g>
     <g id="line2d_31">
      <g>
       <use style="stroke:#000000;stroke-width:0.8;" x="454.435407" xlink:href="#m1cb2329639" y="169.2"/>
      </g>
     </g>
     <g id="text_14">
      <!-- 1 -->
      <g transform="translate(451.254157 183.798437)scale(0.1 -0.1)">
       <use xlink:href="#DejaVuSans-49"/>
      </g>
     </g>
    </g>
    <g id="xtick_8">
     <g id="line2d_32">
      <path clip-path="url(#p5d91961f52)" d="M 502.978251 169.2 
L 502.978251 43.2 
" style="fill:none;stroke:#b0b0b0;stroke-linecap:square;stroke-width:0.8;"/>
     </g>
     <g id="line2d_33">
      <g>
       <use style="stroke:#000000;stroke-width:0.8;" x="502.978251" xlink:href="#m1cb2329639" y="169.2"/>
      </g>
     </g>
     <g id="text_15">
      <!-- 2 -->
      <g transform="translate(499.797001 183.798437)scale(0.1 -0.1)">
       <use xlink:href="#DejaVuSans-50"/>
      </g>
     </g>
    </g>
    <g id="xtick_9">
     <g id="line2d_34">
      <path clip-path="url(#p5d91961f52)" d="M 551.521096 169.2 
L 551.521096 43.2 
" style="fill:none;stroke:#b0b0b0;stroke-linecap:square;stroke-width:0.8;"/>
     </g>
     <g id="line2d_35">
      <g>
       <use style="stroke:#000000;stroke-width:0.8;" x="551.521096" xlink:href="#m1cb2329639" y="169.2"/>
      </g>
     </g>
     <g id="text_16">
      <!-- 3 -->
      <g transform="translate(548.339846 183.798437)scale(0.1 -0.1)">
       <use xlink:href="#DejaVuSans-51"/>
      </g>
     </g>
    </g>
    <g id="xtick_10">
     <g id="line2d_36">
      <path clip-path="url(#p5d91961f52)" d="M 600.063941 169.2 
L 600.063941 43.2 
" style="fill:none;stroke:#b0b0b0;stroke-linecap:square;stroke-width:0.8;"/>
     </g>
     <g id="line2d_37">
      <g>
       <use style="stroke:#000000;stroke-width:0.8;" x="600.063941" xlink:href="#m1cb2329639" y="169.2"/>
      </g>
     </g>
     <g id="text_17">
      <!-- 4 -->
      <g transform="translate(596.882691 183.798437)scale(0.1 -0.1)">
       <use xlink:href="#DejaVuSans-52"/>
      </g>
     </g>
    </g>
   </g>
   <g id="matplotlib.axis_4">
    <g id="ytick_5">
     <g id="line2d_38">
      <path clip-path="url(#p5d91961f52)" d="M 394.363636 145.173152 
L 648 145.173152 
" style="fill:none;stroke:#b0b0b0;stroke-linecap:square;stroke-width:0.8;"/>
     </g>
     <g id="line2d_39">
      <g>
       <use style="stroke:#000000;stroke-width:0.8;" x="394.363636" xlink:href="#me9a9c994a8" y="145.173152"/>
      </g>
     </g>
     <g id="text_18">
      <!-- −2 -->
      <g transform="translate(372.621449 148.972371)scale(0.1 -0.1)">
       <defs>
        <path d="M 10.59375 35.5 
L 73.1875 35.5 
L 73.1875 27.203125 
L 10.59375 27.203125 
z
" id="DejaVuSans-8722"/>
       </defs>
       <use xlink:href="#DejaVuSans-8722"/>
       <use x="83.789062" xlink:href="#DejaVuSans-50"/>
      </g>
     </g>
    </g>
    <g id="ytick_6">
     <g id="line2d_40">
      <path clip-path="url(#p5d91961f52)" d="M 394.363636 120.841949 
L 648 120.841949 
" style="fill:none;stroke:#b0b0b0;stroke-linecap:square;stroke-width:0.8;"/>
     </g>
     <g id="line2d_41">
      <g>
       <use style="stroke:#000000;stroke-width:0.8;" x="394.363636" xlink:href="#me9a9c994a8" y="120.841949"/>
      </g>
     </g>
     <g id="text_19">
      <!-- 0 -->
      <g transform="translate(381.001136 124.641168)scale(0.1 -0.1)">
       <use xlink:href="#DejaVuSans-48"/>
      </g>
     </g>
    </g>
    <g id="ytick_7">
     <g id="line2d_42">
      <path clip-path="url(#p5d91961f52)" d="M 394.363636 96.510746 
L 648 96.510746 
" style="fill:none;stroke:#b0b0b0;stroke-linecap:square;stroke-width:0.8;"/>
     </g>
     <g id="line2d_43">
      <g>
       <use style="stroke:#000000;stroke-width:0.8;" x="394.363636" xlink:href="#me9a9c994a8" y="96.510746"/>
      </g>
     </g>
     <g id="text_20">
      <!-- 2 -->
      <g transform="translate(381.001136 100.309964)scale(0.1 -0.1)">
       <use xlink:href="#DejaVuSans-50"/>
      </g>
     </g>
    </g>
    <g id="ytick_8">
     <g id="line2d_44">
      <path clip-path="url(#p5d91961f52)" d="M 394.363636 72.179542 
L 648 72.179542 
" style="fill:none;stroke:#b0b0b0;stroke-linecap:square;stroke-width:0.8;"/>
     </g>
     <g id="line2d_45">
      <g>
       <use style="stroke:#000000;stroke-width:0.8;" x="394.363636" xlink:href="#me9a9c994a8" y="72.179542"/>
      </g>
     </g>
     <g id="text_21">
      <!-- 4 -->
      <g transform="translate(381.001136 75.978761)scale(0.1 -0.1)">
       <use xlink:href="#DejaVuSans-52"/>
      </g>
     </g>
    </g>
    <g id="ytick_9">
     <g id="line2d_46">
      <path clip-path="url(#p5d91961f52)" d="M 394.363636 47.848339 
L 648 47.848339 
" style="fill:none;stroke:#b0b0b0;stroke-linecap:square;stroke-width:0.8;"/>
     </g>
     <g id="line2d_47">
      <g>
       <use style="stroke:#000000;stroke-width:0.8;" x="394.363636" xlink:href="#me9a9c994a8" y="47.848339"/>
      </g>
     </g>
     <g id="text_22">
      <!-- 6 -->
      <g transform="translate(381.001136 51.647558)scale(0.1 -0.1)">
       <use xlink:href="#DejaVuSans-54"/>
      </g>
     </g>
    </g>
   </g>
   <g id="line2d_48">
    <path clip-path="url(#p5d91961f52)" d="M 405.892562 48.994143 
L 406.135276 48.985601 
L 408.319704 48.950737 
L 410.746846 48.94988 
L 413.173989 48.949863 
L 415.601131 48.949863 
L 418.028273 48.931521 
L 420.455415 48.931147 
L 422.882558 48.931139 
L 425.3097 48.931139 
L 427.736842 48.929664 
L 430.163984 48.929626 
L 432.591127 48.929626 
L 435.018269 48.929625 
L 437.445411 48.932214 
L 439.872553 48.932286 
L 442.299696 48.932288 
L 444.726838 48.932288 
L 447.15398 48.933084 
L 449.581122 48.933105 
L 452.008264 48.933106 
L 454.435407 48.933106 
L 456.862549 48.931944 
L 459.289691 48.931914 
L 461.716833 48.931914 
L 464.143976 48.931914 
L 466.571118 49.083509 
L 468.99826 49.091939 
L 471.425402 49.092087 
L 473.852545 49.09209 
L 476.279687 49.296011 
L 478.706829 49.303405 
L 481.133971 49.303515 
L 483.561114 49.303516 
L 485.988256 49.331799 
L 488.415398 49.332628 
L 490.84254 49.33264 
L 493.269682 49.33264 
L 495.696825 49.285274 
L 498.123967 49.283933 
L 500.551109 49.283913 
L 502.978251 49.283913 
L 505.405394 49.269752 
L 507.832536 49.269336 
L 510.259678 49.26933 
L 512.68682 49.26933 
L 515.113963 49.2878 
L 517.541105 49.288351 
L 519.968247 49.288359 
L 522.395389 49.288359 
L 524.822532 49.306717 
L 527.249674 49.307258 
L 529.676816 49.307266 
L 532.103958 49.307266 
L 534.5311 49.311406 
L 536.958243 49.311526 
L 539.385385 49.311528 
L 541.812527 49.311528 
L 544.239669 49.308327 
L 546.666812 49.308234 
L 549.093954 49.308233 
L 551.521096 49.308233 
L 553.948238 49.306285 
L 556.375381 49.306228 
L 558.802523 49.306228 
L 561.229665 49.306228 
L 563.656807 49.024907 
L 566.08395 49.01853 
L 568.511092 49.018413 
L 570.938234 49.018411 
L 573.365376 48.933244 
L 575.792518 48.931511 
L 578.219661 48.931476 
L 580.646803 48.931475 
L 583.073945 48.927421 
L 585.501087 48.927276 
L 587.92823 48.927273 
L 590.355372 48.927273 
L 592.782514 48.935451 
L 595.209656 48.935832 
L 597.636799 48.93584 
L 600.063941 48.93584 
L 602.491083 48.938696 
L 604.918225 48.938812 
L 607.345368 48.938815 
L 609.77251 48.938815 
L 612.199652 48.934691 
L 614.626794 48.934539 
L 617.053936 48.934536 
L 619.481079 48.934536 
L 621.908221 48.931162 
L 624.335363 48.931037 
L 626.762505 48.931034 
L 629.189648 48.931034 
L 631.61679 48.930361 
L 634.043932 48.930335 
L 636.471074 48.930334 
" style="fill:none;stroke:#1f77b4;stroke-linecap:square;stroke-width:1.5;"/>
   </g>
   <g id="line2d_49">
    <path clip-path="url(#p5d91961f52)" d="M 405.892562 137.92664 
L 406.135276 136.805677 
L 408.319704 131.203962 
L 410.746846 131.033418 
L 413.173989 131.029881 
L 415.601131 131.029806 
L 418.028273 126.535393 
L 420.455415 126.416175 
L 422.882558 126.413596 
L 425.3097 126.413539 
L 427.736842 125.924681 
L 430.163984 125.911551 
L 432.591127 125.911266 
L 435.018269 125.911259 
L 437.445411 126.750887 
L 439.872553 126.773334 
L 442.299696 126.773818 
L 444.726838 126.773829 
L 447.15398 127.014117 
L 449.581122 127.02052 
L 452.008264 127.020657 
L 454.435407 127.02066 
L 456.862549 126.667812 
L 459.289691 126.658392 
L 461.716833 126.658189 
L 464.143976 126.658184 
L 466.571118 147.081141 
L 468.99826 147.794266 
L 471.425402 147.806821 
L 473.852545 147.807048 
L 476.279687 161.471965 
L 478.706829 161.884121 
L 481.133971 161.89032 
L 483.561114 161.890417 
L 485.988256 163.427781 
L 488.415398 163.472064 
L 490.84254 163.472717 
L 493.269682 163.472727 
L 495.696825 160.867785 
L 498.123967 160.791489 
L 500.551109 160.790328 
L 502.978251 160.79031 
L 505.405394 159.976586 
L 507.832536 159.952445 
L 510.259678 159.952074 
L 512.68682 159.952068 
L 515.113963 161.010763 
L 517.541105 161.041978 
L 519.968247 161.042451 
L 522.395389 161.042459 
L 524.822532 162.067198 
L 527.249674 162.097091 
L 529.676816 162.097539 
L 532.103958 162.097546 
L 534.5311 162.324961 
L 536.958243 162.331566 
L 539.385385 162.331665 
L 541.812527 162.331666 
L 544.239669 162.155954 
L 546.666812 162.150847 
L 549.093954 162.15077 
L 551.521096 162.150769 
L 553.948238 162.043444 
L 556.375381 162.04032 
L 558.802523 162.040273 
L 561.229665 162.040273 
L 563.656807 141.509022 
L 566.08395 140.814491 
L 568.511092 140.801396 
L 570.938234 140.801143 
L 573.365376 127.063114 
L 575.792518 126.532301 
L 578.219661 126.520846 
L 580.646803 126.520594 
L 583.073945 125.10959 
L 585.501087 125.053021 
L 587.92823 125.051783 
L 590.355372 125.051755 
L 592.782514 127.690725 
L 595.209656 127.795198 
L 597.636799 127.79743 
L 600.063941 127.797478 
L 602.491083 128.542931 
L 604.918225 128.572151 
L 607.345368 128.572771 
L 609.77251 128.572784 
L 612.199652 127.479659 
L 614.626794 127.436597 
L 617.053936 127.435675 
L 619.481079 127.435655 
L 621.908221 126.420875 
L 624.335363 126.380568 
L 626.762505 126.379696 
L 629.189648 126.379677 
L 631.61679 126.159575 
L 634.043932 126.150803 
L 636.471074 126.150613 
" style="fill:none;stroke:#ff7f0e;stroke-linecap:square;stroke-width:1.5;"/>
   </g>
   <g id="patch_8">
    <path d="M 394.363636 169.2 
L 394.363636 43.2 
" style="fill:none;stroke:#000000;stroke-linecap:square;stroke-linejoin:miter;stroke-width:0.8;"/>
   </g>
   <g id="patch_9">
    <path d="M 648 169.2 
L 648 43.2 
" style="fill:none;stroke:#000000;stroke-linecap:square;stroke-linejoin:miter;stroke-width:0.8;"/>
   </g>
   <g id="patch_10">
    <path d="M 394.363636 169.2 
L 648 169.2 
" style="fill:none;stroke:#000000;stroke-linecap:square;stroke-linejoin:miter;stroke-width:0.8;"/>
   </g>
   <g id="patch_11">
    <path d="M 394.363636 43.2 
L 648 43.2 
" style="fill:none;stroke:#000000;stroke-linecap:square;stroke-linejoin:miter;stroke-width:0.8;"/>
   </g>
   <g id="legend_2">
    <g id="patch_12">
     <path d="M 592.148437 164.2 
L 641 164.2 
Q 643 164.2 643 162.2 
L 643 133.84375 
Q 643 131.84375 641 131.84375 
L 592.148437 131.84375 
Q 590.148437 131.84375 590.148437 133.84375 
L 590.148437 162.2 
Q 590.148437 164.2 592.148437 164.2 
z
" style="fill:#ffffff;opacity:0.8;stroke:#cccccc;stroke-linejoin:miter;"/>
    </g>
    <g id="line2d_50">
     <path d="M 594.148437 139.942187 
L 614.148437 139.942187 
" style="fill:none;stroke:#1f77b4;stroke-linecap:square;stroke-width:1.5;"/>
    </g>
    <g id="line2d_51"/>
    <g id="text_23">
     <!-- POI -->
     <g transform="translate(622.148437 143.442187)scale(0.1 -0.1)">
      <defs>
       <path d="M 19.671875 64.796875 
L 19.671875 37.40625 
L 32.078125 37.40625 
Q 38.96875 37.40625 42.71875 40.96875 
Q 46.484375 44.53125 46.484375 51.125 
Q 46.484375 57.671875 42.71875 61.234375 
Q 38.96875 64.796875 32.078125 64.796875 
z
M 9.8125 72.90625 
L 32.078125 72.90625 
Q 44.34375 72.90625 50.609375 67.359375 
Q 56.890625 61.8125 56.890625 51.125 
Q 56.890625 40.328125 50.609375 34.8125 
Q 44.34375 29.296875 32.078125 29.296875 
L 19.671875 29.296875 
L 19.671875 0 
L 9.8125 0 
z
" id="DejaVuSans-80"/>
       <path d="M 39.40625 66.21875 
Q 28.65625 66.21875 22.328125 58.203125 
Q 16.015625 50.203125 16.015625 36.375 
Q 16.015625 22.609375 22.328125 14.59375 
Q 28.65625 6.59375 39.40625 6.59375 
Q 50.140625 6.59375 56.421875 14.59375 
Q 62.703125 22.609375 62.703125 36.375 
Q 62.703125 50.203125 56.421875 58.203125 
Q 50.140625 66.21875 39.40625 66.21875 
z
M 39.40625 74.21875 
Q 54.734375 74.21875 63.90625 63.9375 
Q 73.09375 53.65625 73.09375 36.375 
Q 73.09375 19.140625 63.90625 8.859375 
Q 54.734375 -1.421875 39.40625 -1.421875 
Q 24.03125 -1.421875 14.8125 8.828125 
Q 5.609375 19.09375 5.609375 36.375 
Q 5.609375 53.65625 14.8125 63.9375 
Q 24.03125 74.21875 39.40625 74.21875 
z
" id="DejaVuSans-79"/>
       <path d="M 9.8125 72.90625 
L 19.671875 72.90625 
L 19.671875 0 
L 9.8125 0 
z
" id="DejaVuSans-73"/>
      </defs>
      <use xlink:href="#DejaVuSans-80"/>
      <use x="60.302734" xlink:href="#DejaVuSans-79"/>
      <use x="139.013672" xlink:href="#DejaVuSans-73"/>
     </g>
    </g>
    <g id="line2d_52">
     <path d="M 594.148437 154.620312 
L 614.148437 154.620312 
" style="fill:none;stroke:#ff7f0e;stroke-linecap:square;stroke-width:1.5;"/>
    </g>
    <g id="line2d_53"/>
    <g id="text_24">
     <!-- POI -->
     <g transform="translate(622.148437 158.120312)scale(0.1 -0.1)">
      <use xlink:href="#DejaVuSans-80"/>
      <use x="60.302734" xlink:href="#DejaVuSans-79"/>
      <use x="139.013672" xlink:href="#DejaVuSans-73"/>
     </g>
    </g>
   </g>
  </g>
  <g id="axes_3">
   <g id="patch_13">
    <path d="M 90 320.4 
L 343.636364 320.4 
L 343.636364 194.4 
L 90 194.4 
z
" style="fill:#ffffff;"/>
   </g>
   <g id="matplotlib.axis_5">
    <g id="xtick_11">
     <g id="line2d_54">
      <path clip-path="url(#p73afc3f197)" d="M 101.528926 320.4 
L 101.528926 194.4 
" style="fill:none;stroke:#b0b0b0;stroke-linecap:square;stroke-width:0.8;"/>
     </g>
     <g id="line2d_55">
      <g>
       <use style="stroke:#000000;stroke-width:0.8;" x="101.528926" xlink:href="#m1cb2329639" y="320.4"/>
      </g>
     </g>
     <g id="text_25">
      <!-- 0 -->
      <g transform="translate(98.347676 334.998438)scale(0.1 -0.1)">
       <use xlink:href="#DejaVuSans-48"/>
      </g>
     </g>
    </g>
    <g id="xtick_12">
     <g id="line2d_56">
      <path clip-path="url(#p73afc3f197)" d="M 149.566116 320.4 
L 149.566116 194.4 
" style="fill:none;stroke:#b0b0b0;stroke-linecap:square;stroke-width:0.8;"/>
     </g>
     <g id="line2d_57">
      <g>
       <use style="stroke:#000000;stroke-width:0.8;" x="149.566116" xlink:href="#m1cb2329639" y="320.4"/>
      </g>
     </g>
     <g id="text_26">
      <!-- 1 -->
      <g transform="translate(146.384866 334.998438)scale(0.1 -0.1)">
       <use xlink:href="#DejaVuSans-49"/>
      </g>
     </g>
    </g>
    <g id="xtick_13">
     <g id="line2d_58">
      <path clip-path="url(#p73afc3f197)" d="M 197.603306 320.4 
L 197.603306 194.4 
" style="fill:none;stroke:#b0b0b0;stroke-linecap:square;stroke-width:0.8;"/>
     </g>
     <g id="line2d_59">
      <g>
       <use style="stroke:#000000;stroke-width:0.8;" x="197.603306" xlink:href="#m1cb2329639" y="320.4"/>
      </g>
     </g>
     <g id="text_27">
      <!-- 2 -->
      <g transform="translate(194.422056 334.998438)scale(0.1 -0.1)">
       <use xlink:href="#DejaVuSans-50"/>
      </g>
     </g>
    </g>
    <g id="xtick_14">
     <g id="line2d_60">
      <path clip-path="url(#p73afc3f197)" d="M 245.640496 320.4 
L 245.640496 194.4 
" style="fill:none;stroke:#b0b0b0;stroke-linecap:square;stroke-width:0.8;"/>
     </g>
     <g id="line2d_61">
      <g>
       <use style="stroke:#000000;stroke-width:0.8;" x="245.640496" xlink:href="#m1cb2329639" y="320.4"/>
      </g>
     </g>
     <g id="text_28">
      <!-- 3 -->
      <g transform="translate(242.459246 334.998438)scale(0.1 -0.1)">
       <use xlink:href="#DejaVuSans-51"/>
      </g>
     </g>
    </g>
    <g id="xtick_15">
     <g id="line2d_62">
      <path clip-path="url(#p73afc3f197)" d="M 293.677686 320.4 
L 293.677686 194.4 
" style="fill:none;stroke:#b0b0b0;stroke-linecap:square;stroke-width:0.8;"/>
     </g>
     <g id="line2d_63">
      <g>
       <use style="stroke:#000000;stroke-width:0.8;" x="293.677686" xlink:href="#m1cb2329639" y="320.4"/>
      </g>
     </g>
     <g id="text_29">
      <!-- 4 -->
      <g transform="translate(290.496436 334.998438)scale(0.1 -0.1)">
       <use xlink:href="#DejaVuSans-52"/>
      </g>
     </g>
    </g>
    <g id="xtick_16">
     <g id="line2d_64">
      <path clip-path="url(#p73afc3f197)" d="M 341.714876 320.4 
L 341.714876 194.4 
" style="fill:none;stroke:#b0b0b0;stroke-linecap:square;stroke-width:0.8;"/>
     </g>
     <g id="line2d_65">
      <g>
       <use style="stroke:#000000;stroke-width:0.8;" x="341.714876" xlink:href="#m1cb2329639" y="320.4"/>
      </g>
     </g>
     <g id="text_30">
      <!-- 5 -->
      <g transform="translate(338.533626 334.998438)scale(0.1 -0.1)">
       <defs>
        <path d="M 10.796875 72.90625 
L 49.515625 72.90625 
L 49.515625 64.59375 
L 19.828125 64.59375 
L 19.828125 46.734375 
Q 21.96875 47.46875 24.109375 47.828125 
Q 26.265625 48.1875 28.421875 48.1875 
Q 40.625 48.1875 47.75 41.5 
Q 54.890625 34.8125 54.890625 23.390625 
Q 54.890625 11.625 47.5625 5.09375 
Q 40.234375 -1.421875 26.90625 -1.421875 
Q 22.3125 -1.421875 17.546875 -0.640625 
Q 12.796875 0.140625 7.71875 1.703125 
L 7.71875 11.625 
Q 12.109375 9.234375 16.796875 8.0625 
Q 21.484375 6.890625 26.703125 6.890625 
Q 35.15625 6.890625 40.078125 11.328125 
Q 45.015625 15.765625 45.015625 23.390625 
Q 45.015625 31 40.078125 35.4375 
Q 35.15625 39.890625 26.703125 39.890625 
Q 22.75 39.890625 18.8125 39.015625 
Q 14.890625 38.140625 10.796875 36.28125 
z
" id="DejaVuSans-53"/>
       </defs>
       <use xlink:href="#DejaVuSans-53"/>
      </g>
     </g>
    </g>
   </g>
   <g id="matplotlib.axis_6">
    <g id="ytick_10">
     <g id="line2d_66">
      <path clip-path="url(#p73afc3f197)" d="M 90 306.198702 
L 343.636364 306.198702 
" style="fill:none;stroke:#b0b0b0;stroke-linecap:square;stroke-width:0.8;"/>
     </g>
     <g id="line2d_67">
      <g>
       <use style="stroke:#000000;stroke-width:0.8;" x="90" xlink:href="#me9a9c994a8" y="306.198702"/>
      </g>
     </g>
     <g id="text_31">
      <!-- −0.0004 -->
      <g transform="translate(39.629687 309.997921)scale(0.1 -0.1)">
       <use xlink:href="#DejaVuSans-8722"/>
       <use x="83.789062" xlink:href="#DejaVuSans-48"/>
       <use x="147.412109" xlink:href="#DejaVuSans-46"/>
       <use x="179.199219" xlink:href="#DejaVuSans-48"/>
       <use x="242.822266" xlink:href="#DejaVuSans-48"/>
       <use x="306.445312" xlink:href="#DejaVuSans-48"/>
       <use x="370.068359" xlink:href="#DejaVuSans-52"/>
      </g>
     </g>
    </g>
    <g id="ytick_11">
     <g id="line2d_68">
      <path clip-path="url(#p73afc3f197)" d="M 90 272.196291 
L 343.636364 272.196291 
" style="fill:none;stroke:#b0b0b0;stroke-linecap:square;stroke-width:0.8;"/>
     </g>
     <g id="line2d_69">
      <g>
       <use style="stroke:#000000;stroke-width:0.8;" x="90" xlink:href="#me9a9c994a8" y="272.196291"/>
      </g>
     </g>
     <g id="text_32">
      <!-- −0.0002 -->
      <g transform="translate(39.629687 275.99551)scale(0.1 -0.1)">
       <use xlink:href="#DejaVuSans-8722"/>
       <use x="83.789062" xlink:href="#DejaVuSans-48"/>
       <use x="147.412109" xlink:href="#DejaVuSans-46"/>
       <use x="179.199219" xlink:href="#DejaVuSans-48"/>
       <use x="242.822266" xlink:href="#DejaVuSans-48"/>
       <use x="306.445312" xlink:href="#DejaVuSans-48"/>
       <use x="370.068359" xlink:href="#DejaVuSans-50"/>
      </g>
     </g>
    </g>
    <g id="ytick_12">
     <g id="line2d_70">
      <path clip-path="url(#p73afc3f197)" d="M 90 238.193881 
L 343.636364 238.193881 
" style="fill:none;stroke:#b0b0b0;stroke-linecap:square;stroke-width:0.8;"/>
     </g>
     <g id="line2d_71">
      <g>
       <use style="stroke:#000000;stroke-width:0.8;" x="90" xlink:href="#me9a9c994a8" y="238.193881"/>
      </g>
     </g>
     <g id="text_33">
      <!-- 0.0000 -->
      <g transform="translate(48.009375 241.9931)scale(0.1 -0.1)">
       <use xlink:href="#DejaVuSans-48"/>
       <use x="63.623047" xlink:href="#DejaVuSans-46"/>
       <use x="95.410156" xlink:href="#DejaVuSans-48"/>
       <use x="159.033203" xlink:href="#DejaVuSans-48"/>
       <use x="222.65625" xlink:href="#DejaVuSans-48"/>
       <use x="286.279297" xlink:href="#DejaVuSans-48"/>
      </g>
     </g>
    </g>
    <g id="ytick_13">
     <g id="line2d_72">
      <path clip-path="url(#p73afc3f197)" d="M 90 204.19147 
L 343.636364 204.19147 
" style="fill:none;stroke:#b0b0b0;stroke-linecap:square;stroke-width:0.8;"/>
     </g>
     <g id="line2d_73">
      <g>
       <use style="stroke:#000000;stroke-width:0.8;" x="90" xlink:href="#me9a9c994a8" y="204.19147"/>
      </g>
     </g>
     <g id="text_34">
      <!-- 0.0002 -->
      <g transform="translate(48.009375 207.990689)scale(0.1 -0.1)">
       <use xlink:href="#DejaVuSans-48"/>
       <use x="63.623047" xlink:href="#DejaVuSans-46"/>
       <use x="95.410156" xlink:href="#DejaVuSans-48"/>
       <use x="159.033203" xlink:href="#DejaVuSans-48"/>
       <use x="222.65625" xlink:href="#DejaVuSans-48"/>
       <use x="286.279297" xlink:href="#DejaVuSans-50"/>
      </g>
     </g>
    </g>
   </g>
   <g id="line2d_74">
    <path clip-path="url(#p73afc3f197)" d="M 101.528926 238.193881 
L 101.528926 217.760397 
L 111.136364 217.760397 
L 111.136364 204.138075 
L 120.743802 204.138075 
L 120.743802 202.658326 
L 130.35124 202.658326 
L 130.35124 205.199814 
L 139.958678 205.199814 
L 139.958678 205.92734 
L 149.566116 205.92734 
L 149.566116 204.858994 
L 159.173554 204.858994 
L 159.173554 267.615873 
L 168.780992 267.615873 
L 168.780992 309.897133 
L 178.38843 309.897133 
L 178.38843 314.672727 
L 187.995868 314.672727 
L 187.995868 306.579895 
L 197.603306 306.579895 
L 197.603306 304.05395 
L 207.210744 304.05395 
L 207.210744 307.340001 
L 216.818182 307.340001 
L 216.818182 310.521975 
L 226.42562 310.521975 
L 226.42562 311.228353 
L 236.033058 311.228353 
L 236.033058 310.682547 
L 245.640496 310.682547 
L 245.640496 310.349188 
L 255.247934 310.349188 
L 255.247934 246.730166 
L 264.855372 246.730166 
L 264.855372 204.453512 
L 274.46281 204.453512 
L 274.46281 200.127273 
L 284.070248 200.127273 
L 284.070248 208.217743 
L 293.677686 208.217743 
L 293.677686 210.504827 
L 303.285124 210.504827 
L 303.285124 207.15078 
L 312.892562 207.15078 
L 312.892562 204.038302 
L 322.5 204.038302 
L 322.5 203.363408 
L 332.107438 203.363408 
" style="fill:none;stroke:#1f77b4;stroke-linecap:square;stroke-width:1.5;"/>
   </g>
   <g id="patch_14">
    <path d="M 90 320.4 
L 90 194.4 
" style="fill:none;stroke:#000000;stroke-linecap:square;stroke-linejoin:miter;stroke-width:0.8;"/>
   </g>
   <g id="patch_15">
    <path d="M 343.636364 320.4 
L 343.636364 194.4 
" style="fill:none;stroke:#000000;stroke-linecap:square;stroke-linejoin:miter;stroke-width:0.8;"/>
   </g>
   <g id="patch_16">
    <path d="M 90 320.4 
L 343.636364 320.4 
" style="fill:none;stroke:#000000;stroke-linecap:square;stroke-linejoin:miter;stroke-width:0.8;"/>
   </g>
   <g id="patch_17">
    <path d="M 90 194.4 
L 343.636364 194.4 
" style="fill:none;stroke:#000000;stroke-linecap:square;stroke-linejoin:miter;stroke-width:0.8;"/>
   </g>
   <g id="legend_3">
    <g id="patch_18">
     <path d="M 97 315.4 
L 151.729688 315.4 
Q 153.729688 315.4 153.729688 313.4 
L 153.729688 299.44375 
Q 153.729688 297.44375 151.729688 297.44375 
L 97 297.44375 
Q 95 297.44375 95 299.44375 
L 95 313.4 
Q 95 315.4 97 315.4 
z
" style="fill:#ffffff;opacity:0.8;stroke:#cccccc;stroke-linejoin:miter;"/>
    </g>
    <g id="line2d_75">
     <path d="M 99 305.542188 
L 119 305.542188 
" style="fill:none;stroke:#1f77b4;stroke-linecap:square;stroke-width:1.5;"/>
    </g>
    <g id="line2d_76"/>
    <g id="text_35">
     <!-- Dv_r -->
     <g transform="translate(127 309.042188)scale(0.1 -0.1)">
      <defs>
       <path d="M 19.671875 64.796875 
L 19.671875 8.109375 
L 31.59375 8.109375 
Q 46.6875 8.109375 53.6875 14.9375 
Q 60.6875 21.78125 60.6875 36.53125 
Q 60.6875 51.171875 53.6875 57.984375 
Q 46.6875 64.796875 31.59375 64.796875 
z
M 9.8125 72.90625 
L 30.078125 72.90625 
Q 51.265625 72.90625 61.171875 64.09375 
Q 71.09375 55.28125 71.09375 36.53125 
Q 71.09375 17.671875 61.125 8.828125 
Q 51.171875 0 30.078125 0 
L 9.8125 0 
z
" id="DejaVuSans-68"/>
       <path d="M 2.984375 54.6875 
L 12.5 54.6875 
L 29.59375 8.796875 
L 46.6875 54.6875 
L 56.203125 54.6875 
L 35.6875 0 
L 23.484375 0 
z
" id="DejaVuSans-118"/>
       <path d="M 50.984375 -16.609375 
L 50.984375 -23.578125 
L -0.984375 -23.578125 
L -0.984375 -16.609375 
z
" id="DejaVuSans-95"/>
       <path d="M 41.109375 46.296875 
Q 39.59375 47.171875 37.8125 47.578125 
Q 36.03125 48 33.890625 48 
Q 26.265625 48 22.1875 43.046875 
Q 18.109375 38.09375 18.109375 28.8125 
L 18.109375 0 
L 9.078125 0 
L 9.078125 54.6875 
L 18.109375 54.6875 
L 18.109375 46.1875 
Q 20.953125 51.171875 25.484375 53.578125 
Q 30.03125 56 36.53125 56 
Q 37.453125 56 38.578125 55.875 
Q 39.703125 55.765625 41.0625 55.515625 
z
" id="DejaVuSans-114"/>
      </defs>
      <use xlink:href="#DejaVuSans-68"/>
      <use x="77.001953" xlink:href="#DejaVuSans-118"/>
      <use x="136.181641" xlink:href="#DejaVuSans-95"/>
      <use x="186.181641" xlink:href="#DejaVuSans-114"/>
     </g>
    </g>
   </g>
  </g>
  <g id="axes_4">
   <g id="patch_19">
    <path d="M 394.363636 320.4 
L 648 320.4 
L 648 194.4 
L 394.363636 194.4 
z
" style="fill:#ffffff;"/>
   </g>
   <g id="matplotlib.axis_7">
    <g id="xtick_17">
     <g id="line2d_77">
      <path clip-path="url(#pee80e5311a)" d="M 405.892562 320.4 
L 405.892562 194.4 
" style="fill:none;stroke:#b0b0b0;stroke-linecap:square;stroke-width:0.8;"/>
     </g>
     <g id="line2d_78">
      <g>
       <use style="stroke:#000000;stroke-width:0.8;" x="405.892562" xlink:href="#m1cb2329639" y="320.4"/>
      </g>
     </g>
     <g id="text_36">
      <!-- 0 -->
      <g transform="translate(402.711312 334.998438)scale(0.1 -0.1)">
       <use xlink:href="#DejaVuSans-48"/>
      </g>
     </g>
    </g>
    <g id="xtick_18">
     <g id="line2d_79">
      <path clip-path="url(#pee80e5311a)" d="M 454.435407 320.4 
L 454.435407 194.4 
" style="fill:none;stroke:#b0b0b0;stroke-linecap:square;stroke-width:0.8;"/>
     </g>
     <g id="line2d_80">
      <g>
       <use style="stroke:#000000;stroke-width:0.8;" x="454.435407" xlink:href="#m1cb2329639" y="320.4"/>
      </g>
     </g>
     <g id="text_37">
      <!-- 1 -->
      <g transform="translate(451.254157 334.998438)scale(0.1 -0.1)">
       <use xlink:href="#DejaVuSans-49"/>
      </g>
     </g>
    </g>
    <g id="xtick_19">
     <g id="line2d_81">
      <path clip-path="url(#pee80e5311a)" d="M 502.978251 320.4 
L 502.978251 194.4 
" style="fill:none;stroke:#b0b0b0;stroke-linecap:square;stroke-width:0.8;"/>
     </g>
     <g id="line2d_82">
      <g>
       <use style="stroke:#000000;stroke-width:0.8;" x="502.978251" xlink:href="#m1cb2329639" y="320.4"/>
      </g>
     </g>
     <g id="text_38">
      <!-- 2 -->
      <g transform="translate(499.797001 334.998438)scale(0.1 -0.1)">
       <use xlink:href="#DejaVuSans-50"/>
      </g>
     </g>
    </g>
    <g id="xtick_20">
     <g id="line2d_83">
      <path clip-path="url(#pee80e5311a)" d="M 551.521096 320.4 
L 551.521096 194.4 
" style="fill:none;stroke:#b0b0b0;stroke-linecap:square;stroke-width:0.8;"/>
     </g>
     <g id="line2d_84">
      <g>
       <use style="stroke:#000000;stroke-width:0.8;" x="551.521096" xlink:href="#m1cb2329639" y="320.4"/>
      </g>
     </g>
     <g id="text_39">
      <!-- 3 -->
      <g transform="translate(548.339846 334.998438)scale(0.1 -0.1)">
       <use xlink:href="#DejaVuSans-51"/>
      </g>
     </g>
    </g>
    <g id="xtick_21">
     <g id="line2d_85">
      <path clip-path="url(#pee80e5311a)" d="M 600.063941 320.4 
L 600.063941 194.4 
" style="fill:none;stroke:#b0b0b0;stroke-linecap:square;stroke-width:0.8;"/>
     </g>
     <g id="line2d_86">
      <g>
       <use style="stroke:#000000;stroke-width:0.8;" x="600.063941" xlink:href="#m1cb2329639" y="320.4"/>
      </g>
     </g>
     <g id="text_40">
      <!-- 4 -->
      <g transform="translate(596.882691 334.998438)scale(0.1 -0.1)">
       <use xlink:href="#DejaVuSans-52"/>
      </g>
     </g>
    </g>
   </g>
   <g id="matplotlib.axis_8">
    <g id="ytick_14">
     <g id="line2d_87">
      <path clip-path="url(#pee80e5311a)" d="M 394.363636 296.385351 
L 648 296.385351 
" style="fill:none;stroke:#b0b0b0;stroke-linecap:square;stroke-width:0.8;"/>
     </g>
     <g id="line2d_88">
      <g>
       <use style="stroke:#000000;stroke-width:0.8;" x="394.363636" xlink:href="#me9a9c994a8" y="296.385351"/>
      </g>
     </g>
     <g id="text_41">
      <!-- −3 -->
      <g transform="translate(372.621449 300.18457)scale(0.1 -0.1)">
       <use xlink:href="#DejaVuSans-8722"/>
       <use x="83.789062" xlink:href="#DejaVuSans-51"/>
      </g>
     </g>
    </g>
    <g id="ytick_15">
     <g id="line2d_89">
      <path clip-path="url(#pee80e5311a)" d="M 394.363636 260.115723 
L 648 260.115723 
" style="fill:none;stroke:#b0b0b0;stroke-linecap:square;stroke-width:0.8;"/>
     </g>
     <g id="line2d_90">
      <g>
       <use style="stroke:#000000;stroke-width:0.8;" x="394.363636" xlink:href="#me9a9c994a8" y="260.115723"/>
      </g>
     </g>
     <g id="text_42">
      <!-- −2 -->
      <g transform="translate(372.621449 263.914941)scale(0.1 -0.1)">
       <use xlink:href="#DejaVuSans-8722"/>
       <use x="83.789062" xlink:href="#DejaVuSans-50"/>
      </g>
     </g>
    </g>
    <g id="ytick_16">
     <g id="line2d_91">
      <path clip-path="url(#pee80e5311a)" d="M 394.363636 223.846094 
L 648 223.846094 
" style="fill:none;stroke:#b0b0b0;stroke-linecap:square;stroke-width:0.8;"/>
     </g>
     <g id="line2d_92">
      <g>
       <use style="stroke:#000000;stroke-width:0.8;" x="394.363636" xlink:href="#me9a9c994a8" y="223.846094"/>
      </g>
     </g>
     <g id="text_43">
      <!-- −1 -->
      <g transform="translate(372.621449 227.645313)scale(0.1 -0.1)">
       <use xlink:href="#DejaVuSans-8722"/>
       <use x="83.789062" xlink:href="#DejaVuSans-49"/>
      </g>
     </g>
    </g>
   </g>
   <g id="line2d_93">
    <path clip-path="url(#pee80e5311a)" d="M 405.892562 238.511506 
L 406.135276 235.16955 
L 408.319704 218.469007 
L 410.746846 217.960562 
L 413.173989 217.950016 
L 415.601131 217.949792 
L 418.028273 204.550481 
L 420.455415 204.195053 
L 422.882558 204.187365 
L 425.3097 204.187195 
L 427.736842 202.729748 
L 430.163984 202.690604 
L 432.591127 202.689754 
L 435.018269 202.689735 
L 437.445411 205.19294 
L 439.872553 205.259861 
L 442.299696 205.261304 
L 444.726838 205.261336 
L 447.15398 205.977713 
L 449.581122 205.996801 
L 452.008264 205.997212 
L 454.435407 205.997221 
L 456.862549 204.945264 
L 459.289691 204.917181 
L 461.716833 204.916575 
L 464.143976 204.916562 
L 466.571118 265.804059 
L 468.99826 267.930118 
L 471.425402 267.967549 
L 473.852545 267.968224 
L 476.279687 308.707803 
L 478.706829 309.936573 
L 481.133971 309.955055 
L 483.561114 309.955343 
L 485.988256 314.538728 
L 488.415398 314.67075 
L 490.84254 314.672697 
L 493.269682 314.672727 
L 495.696825 306.906544 
L 498.123967 306.679081 
L 500.551109 306.67562 
L 502.978251 306.675565 
L 505.405394 304.249589 
L 507.832536 304.177617 
L 510.259678 304.176511 
L 512.68682 304.176493 
L 515.113963 307.332809 
L 517.541105 307.425869 
L 519.968247 307.427281 
L 522.395389 307.427304 
L 524.822532 310.482387 
L 527.249674 310.571507 
L 529.676816 310.572843 
L 532.103958 310.572864 
L 534.5311 311.250862 
L 536.958243 311.270553 
L 539.385385 311.270848 
L 541.812527 311.270852 
L 544.239669 310.746998 
L 546.666812 310.73177 
L 549.093954 310.731542 
L 551.521096 310.731539 
L 553.948238 310.411567 
L 556.375381 310.402255 
L 558.802523 310.402115 
L 561.229665 310.402113 
L 563.656807 249.191753 
L 566.08395 247.12113 
L 568.511092 247.082091 
L 570.938234 247.081336 
L 573.365376 206.123789 
L 575.792518 204.541262 
L 578.219661 204.50711 
L 580.646803 204.50636 
L 583.073945 200.299696 
L 585.501087 200.131046 
L 587.92823 200.127355 
L 590.355372 200.127273 
L 592.782514 207.994902 
L 595.209656 208.30637 
L 597.636799 208.313024 
L 600.063941 208.313168 
L 602.491083 210.535606 
L 604.918225 210.622722 
L 607.345368 210.624569 
L 609.77251 210.624609 
L 612.199652 207.365647 
L 614.626794 207.237265 
L 617.053936 207.234514 
L 619.481079 207.234454 
L 621.908221 204.209067 
L 624.335363 204.088897 
L 626.762505 204.086298 
L 629.189648 204.08624 
L 631.61679 203.430046 
L 634.043932 203.403893 
L 636.471074 203.403326 
" style="fill:none;stroke:#1f77b4;stroke-linecap:square;stroke-width:1.5;"/>
   </g>
   <g id="patch_20">
    <path d="M 394.363636 320.4 
L 394.363636 194.4 
" style="fill:none;stroke:#000000;stroke-linecap:square;stroke-linejoin:miter;stroke-width:0.8;"/>
   </g>
   <g id="patch_21">
    <path d="M 648 320.4 
L 648 194.4 
" style="fill:none;stroke:#000000;stroke-linecap:square;stroke-linejoin:miter;stroke-width:0.8;"/>
   </g>
   <g id="patch_22">
    <path d="M 394.363636 320.4 
L 648 320.4 
" style="fill:none;stroke:#000000;stroke-linecap:square;stroke-linejoin:miter;stroke-width:0.8;"/>
   </g>
   <g id="patch_23">
    <path d="M 394.363636 194.4 
L 648 194.4 
" style="fill:none;stroke:#000000;stroke-linecap:square;stroke-linejoin:miter;stroke-width:0.8;"/>
   </g>
   <g id="legend_4">
    <g id="patch_24">
     <path d="M 401.363636 315.4 
L 450.215199 315.4 
Q 452.215199 315.4 452.215199 313.4 
L 452.215199 299.721875 
Q 452.215199 297.721875 450.215199 297.721875 
L 401.363636 297.721875 
Q 399.363636 297.721875 399.363636 299.721875 
L 399.363636 313.4 
Q 399.363636 315.4 401.363636 315.4 
z
" style="fill:#ffffff;opacity:0.8;stroke:#cccccc;stroke-linejoin:miter;"/>
    </g>
    <g id="line2d_94">
     <path d="M 403.363636 305.820312 
L 423.363636 305.820312 
" style="fill:none;stroke:#1f77b4;stroke-linecap:square;stroke-width:1.5;"/>
    </g>
    <g id="line2d_95"/>
    <g id="text_44">
     <!-- POI -->
     <g transform="translate(431.363636 309.320312)scale(0.1 -0.1)">
      <use xlink:href="#DejaVuSans-80"/>
      <use x="60.302734" xlink:href="#DejaVuSans-79"/>
      <use x="139.013672" xlink:href="#DejaVuSans-73"/>
     </g>
    </g>
   </g>
  </g>
 </g>
 <defs>
  <clipPath id="pfaf98671a0">
   <rect height="126" width="253.636364" x="90" y="43.2"/>
  </clipPath>
  <clipPath id="p5d91961f52">
   <rect height="126" width="253.636364" x="394.363636" y="43.2"/>
  </clipPath>
  <clipPath id="p73afc3f197">
   <rect height="126" width="253.636364" x="90" y="194.4"/>
  </clipPath>
  <clipPath id="pee80e5311a">
   <rect height="126" width="253.636364" x="394.363636" y="194.4"/>
  </clipPath>
 </defs>
</svg>
