<?xml version="1.0" encoding="utf-8" ?>
<svg baseProfile="full" height="400" version="1.1" width="400" xmlns="http://www.w3.org/2000/svg" xmlns:ev="http://www.w3.org/2001/xml-events" xmlns:xlink="http://www.w3.org/1999/xlink"><defs /><path d="M 200,200 h 1.32292 v -52.916665 h 1.32291 l -2.64583,-5.291666 -2.64583,5.291666 h 1.32291 v 52.916665 z" fill="#337ab7" id="arrow_1" onmouseover="showMyTooltip(evt)" stroke="black" stroke-width="0" transform="translate(100.0,100.0) scale(0.5)  rotate(10,200,200)" /><path d="M 200,200 h 1.32292 v -52.916665 h 1.32291 l -2.64583,-5.291666 -2.64583,5.291666 h 1.32291 v 52.916665 z" fill="#337ab7" id="arrow_2" onmouseover="showMyTooltip(evt)" stroke="black" stroke-width="0" transform="translate(-200,-200) scale(2)  rotate(20,200,200)" /><path d="M 200,200 h 1.32292 v -52.916665 h 1.32291 l -2.64583,-5.291666 -2.64583,5.291666 h 1.32291 v 52.916665 z" fill="#337ab7" id="arrow_3" onmouseover="showMyTooltip(evt)" stroke="black" stroke-width="0" transform="translate(0,0) scale(1)  rotate(90,200,200)" /><path d="M 200,200 h 1.32292 v -52.916665 h 1.32291 l -2.64583,-5.291666 -2.64583,5.291666 h 1.32291 v 52.916665 z" fill="#337ab7" id="arrow_4" onmouseover="showMyTooltip(evt)" stroke="black" stroke-width="0" transform="translate(180.0,180.0) scale(0.1)  rotate(180,200,200)" /></svg>